%FSLAX24Y24*%
%MOIN*%
G70*
G01*
G75*
G04 Layer_Physical_Order=2*
G04 Layer_Color=48896*
%ADD10R,0.0118X0.0295*%
%ADD11R,0.0236X0.0886*%
%ADD12R,0.0591X0.0295*%
%ADD13R,0.0295X0.0591*%
%ADD14R,0.0354X0.0315*%
%ADD15R,0.0315X0.0354*%
%ADD16R,0.0433X0.0492*%
%ADD17R,0.0492X0.0433*%
%ADD18R,0.0480X0.0358*%
%ADD19R,0.0358X0.0480*%
%ADD20R,0.0906X0.0906*%
%ADD21R,0.0354X0.0315*%
%ADD22R,0.0197X0.0236*%
%ADD23R,0.0236X0.0197*%
%ADD24R,0.0827X0.0315*%
%ADD25R,0.0984X0.0315*%
%ADD26R,0.0315X0.0354*%
%ADD27R,0.0886X0.0236*%
%ADD28C,0.0335*%
%ADD29R,0.0846X0.0335*%
%ADD30R,0.0335X0.0846*%
%ADD31C,0.0197*%
%ADD32C,0.0118*%
%ADD33C,0.0157*%
%ADD34C,0.0177*%
%ADD35C,0.0138*%
%ADD36C,0.0591*%
%ADD37R,0.0591X0.0591*%
%ADD38O,0.0669X0.1181*%
%ADD39C,0.0500*%
%ADD40C,0.0394*%
%ADD41R,0.0630X0.1063*%
%ADD42R,0.2165X0.0827*%
%ADD43R,0.0906X0.0236*%
D11*
X2089Y12992D02*
D03*
X1589D02*
D03*
X1089D02*
D03*
X589D02*
D03*
X2089Y15039D02*
D03*
X1589D02*
D03*
X1089D02*
D03*
X589D02*
D03*
D12*
X5512Y14656D02*
D03*
Y15344D02*
D03*
X3740Y14656D02*
D03*
Y15344D02*
D03*
X12756Y14911D02*
D03*
Y14222D02*
D03*
X13189Y3947D02*
D03*
Y4636D02*
D03*
X5157Y2608D02*
D03*
Y3297D02*
D03*
X1220Y10659D02*
D03*
Y9970D02*
D03*
X5433Y11959D02*
D03*
Y11270D02*
D03*
X12362Y3947D02*
D03*
Y4636D02*
D03*
D13*
X11348Y14724D02*
D03*
X12037D02*
D03*
X4518Y1102D02*
D03*
X3829D02*
D03*
X3179D02*
D03*
X2490D02*
D03*
X4222Y13386D02*
D03*
X4911D02*
D03*
X4400Y6772D02*
D03*
X3711D02*
D03*
X4951Y10157D02*
D03*
X4262D02*
D03*
X7372Y10354D02*
D03*
X8061D02*
D03*
X7982Y8622D02*
D03*
X7293D02*
D03*
D14*
X13189Y1398D02*
D03*
Y650D02*
D03*
X12402Y1024D02*
D03*
X3780Y4547D02*
D03*
Y5295D02*
D03*
X4567Y4921D02*
D03*
X13228Y3091D02*
D03*
Y2343D02*
D03*
X12441Y2717D02*
D03*
D15*
X3760Y9134D02*
D03*
X4508D02*
D03*
X4134Y8346D02*
D03*
X1949Y8465D02*
D03*
X1201D02*
D03*
X1575Y9252D02*
D03*
D18*
X3740Y12219D02*
D03*
Y10931D02*
D03*
D21*
X6929Y14764D02*
D03*
Y14213D02*
D03*
D26*
X4882Y14685D02*
D03*
X4331D02*
D03*
X15000Y4724D02*
D03*
X15551D02*
D03*
X18021Y7717D02*
D03*
X17469D02*
D03*
X11929Y15315D02*
D03*
X11378D02*
D03*
D31*
X11102Y11614D02*
Y11929D01*
X10787Y11299D02*
X11102Y11614D01*
X10787Y8898D02*
Y11299D01*
X12707Y14173D02*
X12756Y14222D01*
X11378Y14173D02*
X12707D01*
X11102Y13898D02*
X11378Y14173D01*
X11102Y13189D02*
Y13898D01*
Y11929D02*
Y13189D01*
X10709Y8819D02*
X10787Y8898D01*
X11260Y9764D02*
Y10630D01*
Y9764D02*
X11496Y9528D01*
X14764Y2874D02*
X15360Y3470D01*
X14488Y2874D02*
X14764D01*
X7835Y13543D02*
X8110Y13819D01*
Y14488D01*
X7244Y13543D02*
X7835D01*
X7835Y14764D02*
X8110Y14488D01*
X5720Y1642D02*
X8553D01*
X5157Y2205D02*
Y2608D01*
Y2205D02*
X5720Y1642D01*
X9154Y1161D02*
X9232D01*
X4577D02*
X9154D01*
X4518Y1102D02*
X4577Y1161D01*
X14882Y10945D02*
X15039Y10787D01*
Y9409D02*
Y10787D01*
X14921Y9291D02*
X15039Y9409D01*
X14843Y10984D02*
X14882Y10945D01*
X13907Y7510D02*
X14094Y7323D01*
X13907Y7510D02*
Y8364D01*
X16260Y14449D02*
X16575Y14134D01*
X16260Y14449D02*
Y14685D01*
X15669Y12559D02*
Y13268D01*
X15984Y13583D01*
X16447Y12864D02*
X16575Y12992D01*
X16220Y12638D02*
X16447Y12864D01*
X17510D01*
Y12364D02*
Y12864D01*
X16220Y12205D02*
Y12638D01*
X16575Y12992D02*
Y14134D01*
X12795Y1645D02*
X13228Y2078D01*
X17510Y11929D02*
Y12364D01*
X17480Y11900D02*
X17510Y11929D01*
X14181Y10866D02*
X14803D01*
X7559Y14213D02*
X7638Y14134D01*
X6929Y14213D02*
X7559D01*
X6929Y14764D02*
X7835D01*
X5512Y14656D02*
X6821D01*
X6929Y14764D01*
X2623Y14272D02*
X6870D01*
X6929Y14213D01*
X2089Y13738D02*
X2623Y14272D01*
X2089Y12992D02*
Y13738D01*
X4882Y14685D02*
X4911Y14656D01*
X5512D01*
X6220Y7205D02*
Y8780D01*
X7283Y10443D02*
Y11339D01*
X3711Y5364D02*
Y6772D01*
X4518Y1102D02*
Y2726D01*
X3937Y3307D02*
X4518Y2726D01*
X787Y8024D02*
Y8051D01*
X1201Y8465D01*
X3780Y5218D02*
Y5295D01*
X3386Y4824D02*
X3780Y5218D01*
X3386Y3858D02*
Y4824D01*
Y3858D02*
X3937Y3307D01*
X7441Y4961D02*
X9055Y3346D01*
X7441Y4961D02*
Y5551D01*
X12795Y1043D02*
X13189Y650D01*
X12795Y1043D02*
Y1645D01*
X13189Y650D02*
X13648Y1108D01*
X13973D01*
X14488Y1624D01*
Y2874D01*
X17831Y3470D02*
X18104Y3744D01*
Y4130D01*
X17831Y4404D02*
X18104Y4130D01*
X15551Y4724D02*
X15872Y4404D01*
X17165D01*
X17831D01*
X13228Y2078D02*
Y2343D01*
X15360Y3470D02*
X17831D01*
X14488Y2874D02*
Y3622D01*
X14764Y3898D01*
X17165Y4404D02*
Y5039D01*
X17469Y7717D02*
X17514Y7672D01*
X17165Y5039D02*
X17520D01*
X17638Y4921D01*
X18583Y3465D02*
Y4134D01*
X15669Y2244D02*
X15703Y2211D01*
X17329D01*
X18583Y3465D01*
X11260Y8024D02*
X11772Y7512D01*
Y5733D02*
Y7512D01*
X11260Y5024D02*
Y5221D01*
X11772Y5733D01*
X11378Y14803D02*
Y15315D01*
D32*
X16968Y8071D02*
X18543D01*
X16850Y8189D02*
X16968Y8071D01*
X16850Y8189D02*
Y9213D01*
X19994Y2671D02*
Y6620D01*
X18543Y8071D02*
X19994Y6620D01*
X3415Y15669D02*
X3740Y15344D01*
X394Y15669D02*
X3415D01*
X276Y15551D02*
X394Y15669D01*
X276Y14528D02*
Y15551D01*
X589Y12992D02*
Y14215D01*
X276Y14528D02*
X589Y14215D01*
X18329Y12892D02*
X18797D01*
X17856Y13364D02*
X18329Y12892D01*
X17510Y13364D02*
X17856D01*
X19055Y13488D02*
X19528Y13961D01*
X19055Y13150D02*
Y13488D01*
X18797Y12892D02*
X19055Y13150D01*
X18819Y13819D02*
X19016Y14016D01*
X17874Y13819D02*
X18819D01*
X17835Y13858D02*
X17874Y13819D01*
X19016Y14016D02*
Y14449D01*
X19528Y14961D01*
X12205Y13031D02*
Y13189D01*
X11693Y12520D02*
X12205Y13031D01*
X11693Y11024D02*
Y12520D01*
Y11024D02*
X11890Y10827D01*
Y9266D02*
Y10827D01*
X12205Y9094D02*
Y11929D01*
X15354Y4331D02*
X15709Y3976D01*
X14790Y4331D02*
X15354D01*
X14284Y4837D02*
X14790Y4331D01*
X15709Y3976D02*
X17598D01*
X17638Y3937D01*
X16457Y2913D02*
X16693Y2677D01*
X15512Y2913D02*
X16457D01*
X14961Y2362D02*
X15512Y2913D01*
X13321Y5197D02*
X14016Y4503D01*
Y1811D02*
Y4503D01*
X13780Y1575D02*
X14016Y1811D01*
X7293Y8622D02*
Y8927D01*
X6673Y9547D02*
X7293Y8927D01*
X5561Y9547D02*
X6673D01*
X16864Y5341D02*
Y6260D01*
Y5341D02*
X17165Y5039D01*
X16864Y6260D02*
X17514Y6910D01*
X15715Y7553D02*
Y11411D01*
X14803Y12323D02*
X15715Y11411D01*
X14803Y12323D02*
Y12598D01*
X15715Y7553D02*
X16378Y6890D01*
X14326Y12364D02*
X15394Y11296D01*
Y7053D02*
Y11296D01*
X15039Y6699D02*
X15394Y7053D01*
X14537Y12864D02*
X14803Y12598D01*
X13963Y6699D02*
X15039D01*
X19528Y11827D02*
X20039Y11315D01*
Y9764D02*
Y11315D01*
X19724Y9449D02*
X20039Y9764D01*
X19331Y9449D02*
X19724D01*
X18819Y8937D02*
X19331Y9449D01*
X18522Y8364D02*
X18819Y8661D01*
Y8937D01*
X17510Y8364D02*
X18522D01*
X17510Y8864D02*
X17516Y8858D01*
X18228D01*
X19331Y9961D01*
X19528D01*
Y11827D02*
Y11961D01*
X18711Y10364D02*
X18937Y10591D01*
X17510Y10364D02*
X18711D01*
X19528Y10633D02*
Y10961D01*
X17510Y9864D02*
X18759D01*
X19528Y10633D01*
X14144Y13904D02*
X14567D01*
X14843Y14179D01*
Y14724D01*
X13907Y14864D02*
X14240Y15197D01*
X15236D01*
X16463Y15585D02*
X16735Y15312D01*
X12756Y15315D02*
X13026Y15585D01*
X16463D01*
X12756Y14911D02*
Y15315D01*
X16735Y14522D02*
Y15312D01*
X10827Y8203D02*
X11890Y9266D01*
X12087Y5157D02*
Y8976D01*
X12205Y9094D01*
X11827Y4898D02*
X12087Y5157D01*
X11260Y4024D02*
X11827Y4591D01*
Y4898D01*
X12756Y2359D02*
Y3031D01*
X12402Y1024D02*
X12407Y1030D01*
Y2011D01*
X12756Y2359D01*
X10827Y3457D02*
X11260Y3024D01*
X10827Y3457D02*
Y8203D01*
X13189Y1398D02*
Y1649D01*
X13228Y11614D02*
X13478Y11864D01*
X12638Y8780D02*
Y9924D01*
X12912Y10198D01*
Y11298D01*
X13228Y11614D01*
X13228D01*
X13907Y11904D02*
X14144D01*
X13478Y11864D02*
X13907D01*
X12362Y8504D02*
X12638Y8780D01*
X13228Y10236D02*
Y11181D01*
X13907Y11404D02*
X14144D01*
X13228Y11181D02*
X13411Y11364D01*
X13907D01*
X12835Y8661D02*
Y9843D01*
X13228Y10236D01*
X17510Y9366D02*
X17709D01*
X17002Y9364D02*
X17510D01*
X16850Y9213D02*
X17002Y9364D01*
X16476Y10571D02*
X16770Y10864D01*
X16476Y8209D02*
Y10571D01*
Y8209D02*
X17047Y7638D01*
X17041Y7014D02*
Y7047D01*
X17047D02*
Y7638D01*
X16770Y10864D02*
X17510D01*
X13907Y12864D02*
X14537D01*
X13907Y12364D02*
X14326D01*
X13642Y6378D02*
X13963Y6699D01*
X14483Y5242D02*
X14528Y5197D01*
X13976Y5242D02*
X14483D01*
X13642Y5576D02*
X13976Y5242D01*
X13642Y5576D02*
Y6378D01*
X15000Y7362D02*
Y8431D01*
X14567Y8864D02*
X15000Y8431D01*
X13907Y8864D02*
X14567D01*
X17510Y14409D02*
X17740D01*
X16735Y14522D02*
X16893Y14364D01*
X17510D01*
X3740Y15344D02*
X5512D01*
X1476Y8937D02*
X1949Y8465D01*
X1282Y8937D02*
X1476D01*
X551Y9668D02*
X1282Y8937D01*
X551Y9668D02*
Y10962D01*
X770Y11181D01*
X1732D01*
X2362Y11811D01*
Y12381D01*
X2639Y12657D01*
X3209D01*
X3937Y13386D01*
X4222D01*
X5433Y11270D02*
X5561D01*
X6220Y11929D01*
X4951Y9262D02*
X5472Y8740D01*
X4951Y9262D02*
Y10157D01*
X4262Y9380D02*
X4508Y9134D01*
X4262Y9380D02*
Y10157D01*
X3740Y9154D02*
Y10931D01*
X3451Y11929D02*
X3740Y12219D01*
X5173D01*
X5433Y11959D01*
X7982Y10276D02*
X8061Y10354D01*
X7982Y8622D02*
Y10276D01*
X4134Y8346D02*
X4400Y8081D01*
Y6772D02*
Y8081D01*
X4567Y3888D02*
Y4921D01*
Y3888D02*
X5157Y3297D01*
X1220Y10659D02*
X1998D01*
X2480Y11142D01*
X3150D01*
X3360Y10931D01*
X3740D01*
X1220Y9970D02*
X1998D01*
X2402Y9567D01*
X3189D01*
X3386Y9370D01*
Y8858D02*
Y9370D01*
Y8858D02*
X3543Y8701D01*
X4075D01*
X4508Y9134D01*
X3780Y4710D02*
X4134Y5064D01*
Y5246D01*
X4400Y5512D01*
X3780Y4547D02*
Y4710D01*
X4400Y5512D02*
Y6772D01*
X4951Y10157D02*
X5561Y9547D01*
X4951Y10157D02*
Y10787D01*
X5433Y11270D01*
X852Y10984D02*
X1890D01*
X748Y10880D02*
X852Y10984D01*
X748Y9749D02*
Y10880D01*
X1246Y9252D02*
X1575D01*
X748Y9749D02*
X1246Y9252D01*
X1890Y10984D02*
X2835Y11929D01*
X2835Y11929D01*
X2835Y11929D02*
X3451D01*
X787Y748D02*
X2151D01*
X2269Y630D01*
X2711D01*
X3179Y1102D02*
X3184D01*
X3829D01*
X2711Y630D02*
X3184Y1102D01*
X787Y3024D02*
X1569D01*
X1793Y3248D01*
X3047D01*
X3346Y2948D01*
Y1963D02*
Y2948D01*
X2490Y1107D02*
X3346Y1963D01*
X2490Y1102D02*
Y1107D01*
X787Y4024D02*
X2803D01*
X787Y6024D02*
X2441D01*
X2835Y5630D01*
X8628Y10921D02*
X9055D01*
X8061Y10354D02*
X8628Y10921D01*
X5359Y13386D02*
X6008Y12736D01*
X8240D01*
X9055Y11921D01*
X4911Y13386D02*
X5359D01*
X4567Y4956D02*
X6008Y6398D01*
X8307Y8253D02*
Y8959D01*
X6451Y6398D02*
X8307Y8253D01*
X6008Y6398D02*
X6451D01*
X4567Y4921D02*
Y4956D01*
X8976Y9629D02*
Y9961D01*
X8307Y8959D02*
X8976Y9629D01*
X17740Y14409D02*
X17746Y14404D01*
X11260Y3024D02*
X12134D01*
X12441Y2717D01*
X11260Y1024D02*
X11664D01*
X12372Y315D01*
X17709Y9366D02*
X17746Y9404D01*
X15000Y4803D02*
Y5965D01*
X13189Y3947D02*
X13228Y3907D01*
Y3091D02*
Y3907D01*
X13071Y9764D02*
X13211Y9904D01*
X13071Y8564D02*
Y9764D01*
X13211Y9904D02*
X14144D01*
X13419Y9404D02*
X14144D01*
X13307Y9291D02*
X13419Y9404D01*
X13307Y8425D02*
Y9291D01*
X14016Y4837D02*
X14284D01*
X12372Y315D02*
X17638D01*
X19488Y6220D02*
Y6629D01*
X18401Y7717D02*
X19488Y6629D01*
X18021Y7717D02*
X18401D01*
X18701Y4606D02*
Y5039D01*
Y4606D02*
X19134Y4173D01*
X17638Y315D02*
X19994Y2671D01*
X17514Y6910D02*
Y7672D01*
X17874Y6614D02*
X18386Y7126D01*
X17598Y6614D02*
X17874D01*
X17323Y6339D02*
X17598Y6614D01*
X17323Y5630D02*
Y6339D01*
Y5630D02*
X17598Y5354D01*
X17874D01*
X18268Y4961D01*
Y4449D02*
Y4961D01*
Y4449D02*
X18583Y4134D01*
X8551Y7961D02*
X9055D01*
X6220Y5630D02*
X8551Y7961D01*
X13189Y5197D02*
X13321D01*
X12598Y8425D02*
X12835Y8661D01*
X12598Y5226D02*
Y8425D01*
Y5226D02*
X13189Y4636D01*
X12835Y5551D02*
X13189Y5197D01*
X12835Y5551D02*
Y8327D01*
X13071Y8564D01*
Y8189D02*
X13307Y8425D01*
X13071Y5781D02*
Y8189D01*
Y5781D02*
X14016Y4837D01*
X12087Y14911D02*
X12756D01*
X11929Y15236D02*
Y15315D01*
Y15236D02*
X12047Y15118D01*
Y14823D02*
Y15118D01*
X13189Y1649D02*
X13740Y2200D01*
X13622Y4291D02*
X13740Y4173D01*
Y2200D02*
Y4173D01*
X12480Y3947D02*
X12825Y4291D01*
X13622D01*
X12362Y4636D02*
Y8504D01*
X11260Y4024D02*
X11858Y3425D01*
X12362D01*
X12756Y3031D01*
D33*
X315Y7275D02*
X787Y7747D01*
X315Y5496D02*
Y7275D01*
Y5496D02*
X787Y5024D01*
X15242Y12382D02*
Y14415D01*
Y12382D02*
X16102Y11522D01*
X15242Y14415D02*
X15433Y14606D01*
X16102Y8995D02*
Y11522D01*
X16187Y7947D02*
X16614Y7520D01*
X16187Y7947D02*
Y8911D01*
X16102Y8995D02*
X16187Y8911D01*
X5959Y15098D02*
X8012D01*
X9055Y12961D02*
Y13016D01*
X8583Y13488D02*
X9055Y13016D01*
X8583Y13488D02*
Y14528D01*
X8012Y15098D02*
X8583Y14528D01*
X5880Y15020D02*
X5959Y15098D01*
X5132Y15020D02*
X5880D01*
X5113Y15039D02*
X5132Y15020D01*
X4331Y15039D02*
X5113D01*
X4301Y14656D02*
X4331Y14685D01*
X3740Y14656D02*
X4301D01*
X1916Y14055D02*
X2516Y14656D01*
X3740D01*
X1089Y14055D02*
Y15039D01*
Y12992D02*
Y14055D01*
X1589D02*
X1916D01*
X1589D02*
Y15039D01*
Y12992D02*
Y14055D01*
X1089D02*
X1589D01*
X787Y5024D02*
X2299D01*
X2480Y4843D01*
X3386D01*
X19331Y4636D02*
Y5197D01*
Y4636D02*
X19600Y4366D01*
Y3734D02*
Y4366D01*
X19567Y3701D02*
X19600Y3734D01*
X4331Y15039D02*
X4331Y15039D01*
X4331Y14685D02*
Y15039D01*
D36*
X8553Y1642D02*
D03*
X9154Y1161D02*
D03*
X8553Y642D02*
D03*
X18543Y11315D02*
D03*
Y12315D02*
D03*
Y13315D02*
D03*
Y14315D02*
D03*
X11260Y8024D02*
D03*
Y7024D02*
D03*
Y6024D02*
D03*
Y5024D02*
D03*
Y4024D02*
D03*
Y3024D02*
D03*
Y2024D02*
D03*
X19528Y7961D02*
D03*
Y8961D02*
D03*
Y9961D02*
D03*
Y10961D02*
D03*
Y11961D02*
D03*
Y12961D02*
D03*
Y13961D02*
D03*
X787Y8024D02*
D03*
Y7024D02*
D03*
Y6024D02*
D03*
Y5024D02*
D03*
Y4024D02*
D03*
Y3024D02*
D03*
Y2024D02*
D03*
X9055Y7961D02*
D03*
Y8961D02*
D03*
Y9961D02*
D03*
Y10961D02*
D03*
Y11961D02*
D03*
Y12961D02*
D03*
Y13961D02*
D03*
D37*
X18543Y15315D02*
D03*
X11260Y1024D02*
D03*
X19528Y14961D02*
D03*
X787Y1024D02*
D03*
X9055Y14961D02*
D03*
D38*
X6220Y13504D02*
D03*
Y11929D02*
D03*
Y10354D02*
D03*
Y8780D02*
D03*
Y7205D02*
D03*
Y5630D02*
D03*
Y4055D02*
D03*
Y2480D02*
D03*
X2835Y13504D02*
D03*
Y11929D02*
D03*
Y10354D02*
D03*
Y8780D02*
D03*
Y7205D02*
D03*
Y5630D02*
D03*
Y4055D02*
D03*
Y2480D02*
D03*
D39*
X16811Y11378D02*
D03*
X16181Y10984D02*
D03*
X14843D02*
D03*
X14567Y10354D02*
D03*
X14921Y9291D02*
D03*
X14094Y7323D02*
D03*
X17402Y15157D02*
D03*
X18937Y10591D02*
D03*
X15433Y14606D02*
D03*
X15669Y12559D02*
D03*
X16220Y12205D02*
D03*
X15984Y13583D02*
D03*
X15236Y15197D02*
D03*
X11496Y9528D02*
D03*
X10709Y8819D02*
D03*
X11299Y10827D02*
D03*
X15000Y7362D02*
D03*
X7638Y14134D02*
D03*
X7244Y13543D02*
D03*
X7283Y11339D02*
D03*
X3937Y3307D02*
D03*
X5472Y8740D02*
D03*
X7441Y5551D02*
D03*
X9055Y3346D02*
D03*
X16260Y14685D02*
D03*
X14528Y5197D02*
D03*
X14843Y14724D02*
D03*
X17638Y3937D02*
D03*
X15000Y6063D02*
D03*
X14488Y2874D02*
D03*
X13780Y1575D02*
D03*
X19488Y6220D02*
D03*
X14961Y2362D02*
D03*
X16693Y2677D02*
D03*
X12795Y1850D02*
D03*
X14764Y3898D02*
D03*
X16378Y6890D02*
D03*
X16614Y7520D02*
D03*
X18701Y5039D02*
D03*
X17047Y7047D02*
D03*
X19134Y4173D02*
D03*
X19331Y5197D02*
D03*
X19567Y3701D02*
D03*
X17638Y4921D02*
D03*
X15669Y2244D02*
D03*
D40*
X11348Y14724D02*
D03*
X18386Y7126D02*
D03*
D41*
X12205Y13189D02*
D03*
X11102D02*
D03*
X12205Y11929D02*
D03*
X11102D02*
D03*
D42*
X14980Y5984D02*
D03*
X18720D02*
D03*
D43*
X17510Y14864D02*
D03*
Y14364D02*
D03*
Y13864D02*
D03*
Y13364D02*
D03*
Y12864D02*
D03*
Y12364D02*
D03*
Y11864D02*
D03*
Y11364D02*
D03*
Y10864D02*
D03*
Y10364D02*
D03*
Y9864D02*
D03*
Y9364D02*
D03*
Y8864D02*
D03*
Y8364D02*
D03*
X13907Y14864D02*
D03*
Y14364D02*
D03*
Y13864D02*
D03*
Y13364D02*
D03*
Y12864D02*
D03*
Y12364D02*
D03*
Y11864D02*
D03*
Y11364D02*
D03*
Y10864D02*
D03*
Y10364D02*
D03*
Y9864D02*
D03*
Y9364D02*
D03*
Y8864D02*
D03*
Y8364D02*
D03*
M02*
