%FSLAX24Y24*%
%MOIN*%
G70*
G01*
G75*
G04 Layer_Physical_Order=1*
G04 Layer_Color=255*
%ADD10R,0.0118X0.0295*%
%ADD11R,0.0236X0.0886*%
%ADD12R,0.0591X0.0295*%
%ADD13R,0.0295X0.0591*%
%ADD14R,0.0354X0.0315*%
%ADD15R,0.0315X0.0354*%
%ADD16R,0.0433X0.0492*%
%ADD17R,0.0492X0.0433*%
%ADD18R,0.0480X0.0358*%
%ADD19R,0.0358X0.0480*%
%ADD20R,0.0906X0.0906*%
%ADD21R,0.0354X0.0315*%
%ADD22R,0.0197X0.0236*%
%ADD23R,0.0236X0.0197*%
%ADD24R,0.0827X0.0315*%
%ADD25R,0.0984X0.0315*%
%ADD26R,0.0315X0.0354*%
%ADD27R,0.0886X0.0236*%
%ADD28C,0.0335*%
%ADD29R,0.0846X0.0335*%
%ADD30R,0.0335X0.0846*%
%ADD31C,0.0197*%
%ADD32C,0.0118*%
%ADD33C,0.0157*%
%ADD34C,0.0177*%
%ADD35C,0.0138*%
%ADD36C,0.0591*%
%ADD37R,0.0591X0.0591*%
%ADD38O,0.0669X0.1181*%
%ADD39C,0.0500*%
%ADD40C,0.0394*%
D10*
X17854Y7815D02*
D03*
X18051D02*
D03*
X18248D02*
D03*
X18445D02*
D03*
X17854Y6594D02*
D03*
X18051D02*
D03*
X18248D02*
D03*
X18445D02*
D03*
D11*
X470Y9134D02*
D03*
X970D02*
D03*
X1470D02*
D03*
X1970D02*
D03*
X470Y11181D02*
D03*
X970D02*
D03*
X1470D02*
D03*
X1970D02*
D03*
D12*
X16417Y6329D02*
D03*
Y5640D02*
D03*
X15669Y5669D02*
D03*
Y6358D02*
D03*
X12008Y9124D02*
D03*
Y8435D02*
D03*
X5315Y6309D02*
D03*
Y6998D02*
D03*
X1969Y7825D02*
D03*
Y7136D02*
D03*
D13*
X10876Y13819D02*
D03*
X11565D02*
D03*
X11033Y11850D02*
D03*
X11722D02*
D03*
X12254Y4488D02*
D03*
X12943D02*
D03*
X3789Y4921D02*
D03*
X4478D02*
D03*
X7864Y10591D02*
D03*
X7175D02*
D03*
X5226Y9409D02*
D03*
X4537D02*
D03*
X5226Y10984D02*
D03*
X4537D02*
D03*
Y12559D02*
D03*
X5226D02*
D03*
D14*
X4606Y6398D02*
D03*
Y7146D02*
D03*
X3819Y6772D02*
D03*
D15*
X7854Y9764D02*
D03*
X7106D02*
D03*
X7480Y8976D02*
D03*
D16*
X16417Y4990D02*
D03*
Y4065D02*
D03*
D17*
X11762Y13189D02*
D03*
X10837D02*
D03*
X11762Y12520D02*
D03*
X10837D02*
D03*
D18*
X7362Y892D02*
D03*
Y2179D02*
D03*
D19*
X5368Y8110D02*
D03*
X4081D02*
D03*
D20*
X3012Y1102D02*
D03*
X4715D02*
D03*
D21*
X1693Y6535D02*
D03*
Y5984D02*
D03*
X5315Y2480D02*
D03*
Y1929D02*
D03*
X13898Y4528D02*
D03*
Y3976D02*
D03*
X18543Y6142D02*
D03*
Y5591D02*
D03*
X5866Y866D02*
D03*
Y1417D02*
D03*
D22*
X12205Y10709D02*
D03*
Y11102D02*
D03*
X18071Y5591D02*
D03*
Y5984D02*
D03*
X12008Y14724D02*
D03*
Y15118D02*
D03*
X12008Y10276D02*
D03*
Y9882D02*
D03*
D23*
X12165Y3622D02*
D03*
X12559D02*
D03*
D24*
X7421Y6260D02*
D03*
X9035D02*
D03*
D25*
X9055Y4134D02*
D03*
X7480D02*
D03*
D26*
X15000Y3228D02*
D03*
X15551D02*
D03*
D27*
X14173Y5274D02*
D03*
Y5774D02*
D03*
Y6274D02*
D03*
Y6774D02*
D03*
X12126Y5274D02*
D03*
Y5774D02*
D03*
Y6274D02*
D03*
Y6774D02*
D03*
D28*
X18248Y9154D02*
D03*
X17402D02*
D03*
X18248Y9646D02*
D03*
X17402D02*
D03*
X13504Y10630D02*
D03*
X12657D02*
D03*
X13504Y11122D02*
D03*
X12657D02*
D03*
X13504Y13091D02*
D03*
X12657D02*
D03*
X13504Y13583D02*
D03*
X12657D02*
D03*
X13504Y14075D02*
D03*
X12657D02*
D03*
X13504Y14567D02*
D03*
X12657D02*
D03*
X13504Y15059D02*
D03*
X12657D02*
D03*
X16683Y8711D02*
D03*
Y7864D02*
D03*
X17402Y13091D02*
D03*
X18248D02*
D03*
X17402Y12598D02*
D03*
X18248D02*
D03*
X17402Y10138D02*
D03*
X18248D02*
D03*
X17175Y7864D02*
D03*
Y8711D02*
D03*
D29*
X17825Y9154D02*
D03*
Y9646D02*
D03*
X13081Y10630D02*
D03*
Y11122D02*
D03*
Y13091D02*
D03*
Y13583D02*
D03*
Y14075D02*
D03*
Y14567D02*
D03*
Y15059D02*
D03*
X17825Y13091D02*
D03*
Y12598D02*
D03*
Y10138D02*
D03*
D30*
X16683Y8287D02*
D03*
X17175D02*
D03*
D31*
X14291Y3622D02*
Y4224D01*
X13514Y5001D02*
X14291Y4224D01*
X13514Y5001D02*
Y6191D01*
X10679Y11250D02*
X10906Y11024D01*
X11102D02*
X11299Y10827D01*
X10906Y11024D02*
X11102D01*
X481Y433D02*
X4409D01*
X4715Y738D01*
Y1102D01*
X8281Y2705D02*
Y4541D01*
X7756Y2179D02*
X8281Y2705D01*
X7362Y2179D02*
X7756D01*
X7362D02*
X7900Y1642D01*
X8553D01*
X9035Y5295D02*
Y6260D01*
X8281Y4541D02*
X9035Y5295D01*
X9055Y2126D02*
Y4134D01*
X9092Y1102D02*
X9291Y1301D01*
Y1890D01*
X9055Y2126D02*
X9291Y1890D01*
X5442Y413D02*
X8150D01*
X8378Y642D02*
X8553D01*
X8150Y413D02*
X8378Y642D01*
X315Y8275D02*
X470Y8431D01*
X315Y599D02*
Y8275D01*
Y599D02*
X481Y433D01*
X9053Y1142D02*
X9092Y1102D01*
X17008Y13091D02*
X17402D01*
X17008Y11575D02*
Y13091D01*
X16811Y11378D02*
X17008Y11575D01*
X16467Y13583D02*
X16959Y13091D01*
X17402D02*
X17825D01*
X15984Y13583D02*
X16467D01*
X15945Y9134D02*
X16890D01*
X14724Y10354D02*
X15945Y9134D01*
X14567Y10354D02*
X14724D01*
X13504Y10630D02*
X13780Y10354D01*
X14567D01*
X14921Y8740D02*
Y9291D01*
X14094Y7323D02*
Y7913D01*
X14921Y8740D01*
X16260Y14685D02*
X16929D01*
X17402Y15157D01*
X11432Y14724D02*
X12244Y13912D01*
Y11609D02*
Y13912D01*
X11850Y11215D02*
X12244Y11609D01*
X10679Y11250D02*
Y12323D01*
X11299Y14724D02*
X11324Y14700D01*
X11348Y14724D02*
X11432D01*
X12008Y10315D02*
Y10669D01*
X11502Y10315D02*
X12008D01*
X11030Y9843D02*
X11502Y10315D01*
X11968Y10709D02*
X12205D01*
X11850D02*
X11968D01*
X11850Y10709D02*
Y11215D01*
X11968Y10709D02*
X12008Y10669D01*
X17126Y8780D02*
Y8898D01*
X16890Y9134D02*
X17126Y8898D01*
X15663Y10478D02*
X17004D01*
X17008Y10482D02*
X18391D01*
X15039Y11102D02*
X15663Y10478D01*
X17004D02*
X17008Y10482D01*
X13701Y10591D02*
X15669Y12559D01*
X16168Y12257D02*
X16254Y12343D01*
X15039Y11102D02*
X16142Y12205D01*
X16220D01*
X11850Y10709D02*
X11850Y10709D01*
X11030Y9390D02*
Y9843D01*
X12205Y10709D02*
X12539D01*
X10837Y12480D02*
Y13189D01*
X12165Y2480D02*
Y3622D01*
Y2480D02*
X12795Y1850D01*
X11496Y9361D02*
Y9528D01*
X11030Y9390D02*
X11181Y9238D01*
Y8102D02*
Y9238D01*
Y8102D02*
X11260Y8024D01*
X18209Y13091D02*
X18433Y13315D01*
X18622D01*
X13307Y7705D02*
X13532Y7480D01*
X13514Y7462D02*
X14037D01*
X19026Y9463D02*
Y9847D01*
X18391Y10482D02*
X19026Y9847D01*
Y9463D02*
X19528Y8961D01*
X7047Y11102D02*
X7283Y11339D01*
X7244Y11378D02*
Y13543D01*
X3937Y3307D02*
X4488D01*
X5276Y2520D01*
X6220Y7205D02*
X7146D01*
X7185Y7244D01*
X5591Y9409D02*
X6220Y8780D01*
X5226Y9409D02*
X5591D01*
X6220Y8878D02*
X7106Y9764D01*
X6811Y10976D02*
X6938Y11102D01*
X6811Y10079D02*
Y10976D01*
Y10079D02*
X7106Y9783D01*
Y9764D02*
Y9783D01*
X6938Y11102D02*
X7047D01*
X7106Y9764D02*
X7500Y9370D01*
X7727D01*
X7854Y9243D01*
Y8213D02*
Y9243D01*
X7185Y7543D02*
X7854Y8213D01*
X7185Y7244D02*
Y7543D01*
X7421Y6260D02*
Y6929D01*
X7146Y7205D02*
X7421Y6929D01*
X2835Y1280D02*
X3012Y1102D01*
X2835Y1280D02*
Y2480D01*
X4715Y1102D02*
Y1329D01*
X5315Y1929D01*
X1244Y2480D02*
X2835D01*
X787Y2024D02*
X1244Y2480D01*
X787Y7747D02*
Y8024D01*
Y7747D02*
X1299Y7236D01*
Y6929D02*
Y7236D01*
Y6929D02*
X1693Y6535D01*
X7480Y3110D02*
Y4134D01*
X6772Y2402D02*
X7480Y3110D01*
X6449Y1673D02*
X6772Y1996D01*
X5954Y1673D02*
X6449D01*
X6772Y1996D02*
Y2402D01*
X4753Y1102D02*
X5442Y413D01*
X4753Y1102D02*
X5383D01*
X4715D02*
X5404Y413D01*
X5383Y1102D02*
X5954Y1673D01*
X5404Y413D02*
X5442D01*
X470Y8431D02*
Y9134D01*
X1603Y6535D02*
X1693D01*
X1299Y6231D02*
X1603Y6535D01*
X1299Y5535D02*
Y6231D01*
X787Y5024D02*
X1299Y5535D01*
X5866Y866D02*
X7337D01*
Y892D02*
X7362D01*
X7441Y5551D02*
Y6240D01*
X12303Y15059D02*
X12618D01*
X12244Y15118D02*
X12303Y15059D01*
X12008Y15118D02*
X12244D01*
X12539Y10709D02*
X12618Y10630D01*
X12875Y8770D02*
X13307Y8338D01*
Y7705D02*
Y8338D01*
X13898Y3465D02*
Y3976D01*
Y3465D02*
X14488Y2874D01*
X14528Y2835D01*
X15247D01*
X15551Y3139D01*
Y3228D01*
X15000D02*
Y3318D01*
X14291Y3622D02*
X14567Y3346D01*
X14882D01*
X14764Y3898D02*
Y4773D01*
X14994Y5004D01*
Y5409D01*
X14630Y5774D02*
X14994Y5409D01*
X14173Y5774D02*
X14630D01*
X13596Y6274D02*
X14173D01*
X13514Y6191D02*
X13596Y6274D01*
X13514Y6191D02*
Y7462D01*
X13532Y7480D01*
X18031Y5630D02*
X18071D01*
X18543D01*
X18071Y5039D02*
Y5630D01*
X17953Y4921D02*
X18071Y5039D01*
X17638Y4921D02*
X17953D01*
X15747Y4065D02*
X16417D01*
X15000Y3318D02*
X15747Y4065D01*
X14882Y3346D02*
X15000Y3228D01*
X15669Y2244D02*
Y2706D01*
X15925Y2961D01*
Y3248D01*
X16102Y3425D01*
Y3750D01*
X16417Y4065D01*
X9035Y6260D02*
Y7257D01*
X8543Y7749D02*
X9035Y7257D01*
X8543Y7749D02*
Y8449D01*
X9055Y8961D01*
X11394Y14748D02*
X11764Y15118D01*
X12008D01*
D32*
X20000Y11457D02*
X20197Y11260D01*
Y4331D02*
Y11260D01*
X19567Y3701D02*
X20197Y4331D01*
X19684Y10472D02*
X20000Y10156D01*
Y6732D02*
Y10156D01*
X19488Y6220D02*
X20000Y6732D01*
X19173Y10472D02*
X19684D01*
X19055Y10591D02*
X19173Y10472D01*
X20000Y11457D02*
Y11765D01*
X10797Y7229D02*
X11064Y7496D01*
X10797Y5818D02*
Y7229D01*
Y5818D02*
X11064Y5551D01*
X18031Y15551D02*
X18346Y15236D01*
X16220Y15551D02*
X18031D01*
X15821Y15152D02*
X16220Y15551D01*
X10787Y14964D02*
X11394Y15571D01*
X10787Y14367D02*
Y14964D01*
Y14367D02*
X10876Y14279D01*
Y13819D02*
Y14279D01*
X10984Y14449D02*
X11220Y14213D01*
Y13465D02*
Y14213D01*
Y13465D02*
X11299Y13386D01*
Y12207D02*
Y13386D01*
X11033Y11941D02*
X11299Y12207D01*
X10984Y14449D02*
Y14883D01*
X11476Y15374D01*
X11073Y11654D02*
Y11850D01*
X11033D02*
Y11941D01*
X18248Y12598D02*
X18260D01*
X17593Y13970D02*
X17858Y14236D01*
X18622D01*
X18346Y15236D02*
X18622D01*
X18937Y10591D02*
X19055D01*
X15824Y13970D02*
X17593D01*
X14944Y13091D02*
X15824Y13970D01*
X13504Y13091D02*
X14944D01*
X14958Y13583D02*
X15821Y14446D01*
X13504Y13583D02*
X14958D01*
X15821Y14446D02*
Y15152D01*
X13957Y15374D02*
X14606Y14724D01*
X14843D01*
X11394Y15571D02*
X14094D01*
X14468Y15197D02*
X15236D01*
X14094Y15571D02*
X14468Y15197D01*
X11762Y11654D02*
Y12480D01*
X11604Y13386D02*
Y13671D01*
X11476Y15374D02*
X13957D01*
X17825Y12598D02*
X18248D01*
X14801Y7750D02*
X15374D01*
X14534Y7076D02*
Y7483D01*
X14232Y6774D02*
X14534Y7076D01*
Y7483D02*
X14801Y7750D01*
X17825Y12598D02*
X17825Y12598D01*
X18750Y6900D02*
Y7913D01*
X18829Y7992D02*
Y9291D01*
X18750Y7913D02*
X18829Y7992D01*
X18750Y9370D02*
X18829Y9291D01*
X18750Y9370D02*
Y9575D01*
X18248Y10077D02*
X18750Y9575D01*
X18553Y8514D02*
Y9341D01*
X18209Y9641D02*
X18226Y9624D01*
X18209Y9641D02*
Y9646D01*
X18445Y7815D02*
X18445Y7815D01*
Y8406D01*
X18553Y8514D01*
X18248Y9646D02*
X18553Y9341D01*
X18209Y10133D02*
X18248Y10093D01*
X18209Y10133D02*
Y10138D01*
X18248Y10093D02*
Y10138D01*
Y10077D02*
Y10093D01*
X18445Y6594D02*
X18750Y6900D01*
X18041Y6368D02*
X18051Y6398D01*
X17677Y6024D02*
X17771Y6117D01*
X18051Y6398D02*
Y6594D01*
X17771Y6117D02*
X18041Y6368D01*
X17677Y5776D02*
Y6024D01*
X18248Y6181D02*
Y6575D01*
X4606Y6398D02*
X5226D01*
X7864Y9774D02*
Y10591D01*
X7854Y9764D02*
X7864Y9774D01*
X3789Y5581D02*
X4606Y6398D01*
X3789Y4921D02*
Y5581D01*
X5472Y8215D02*
Y8740D01*
X3819Y6772D02*
X4081Y7033D01*
Y8110D01*
X970Y11181D02*
X1470D01*
X970Y9134D02*
X1470D01*
X970D02*
Y11181D01*
X1969Y7825D02*
X1970Y7827D01*
Y9134D01*
X4537Y9409D02*
Y10984D01*
Y12559D01*
X3465Y4553D02*
X3568Y4449D01*
X4010D01*
X4478Y4917D01*
X4173Y6713D02*
X4606Y7146D01*
X3465Y5832D02*
X4173Y6541D01*
Y6713D01*
X5315Y6998D02*
X5709Y7392D01*
Y7673D01*
X6008Y7972D01*
X6476D01*
X7480Y8976D01*
X4862Y10620D02*
X5226Y10984D01*
X4862Y9041D02*
Y10620D01*
X4758Y8937D02*
X4862Y9041D01*
X2623Y9547D02*
X3047D01*
X3657Y8937D02*
X4758D01*
X1970Y9134D02*
X2209D01*
X2623Y9547D01*
X3047D02*
X3657Y8937D01*
X787Y3024D02*
X2398D01*
X2623Y3248D01*
X3274D01*
X3760Y3734D01*
X5900D01*
X1496Y7604D02*
Y9108D01*
X1470Y9134D02*
X1496Y9108D01*
X3445Y4862D02*
X3465Y4843D01*
X2623Y4862D02*
X3445D01*
X1693Y5792D02*
Y5984D01*
Y5792D02*
X2623Y4862D01*
X3465Y4553D02*
Y4843D01*
Y5832D01*
X1969Y6845D02*
X2047Y6766D01*
Y6305D02*
Y6766D01*
X1727Y5984D02*
X2047Y6305D01*
X1693Y5984D02*
X1727D01*
X1969Y6845D02*
Y7131D01*
Y7136D01*
X1496Y7604D02*
X1969Y7131D01*
X6658Y14921D02*
X9055D01*
X5226Y13490D02*
X6658Y14921D01*
X5226Y12559D02*
Y13490D01*
X7958Y12942D02*
X8976Y13961D01*
X7958Y11378D02*
Y12942D01*
X7175Y10591D02*
Y10595D01*
X7958Y11378D01*
X16417Y4990D02*
Y5640D01*
X18248Y7913D02*
Y9154D01*
X15197Y6831D02*
Y7323D01*
Y6831D02*
X15669Y6358D01*
X16388D01*
X16417Y6329D01*
X11260Y6024D02*
X11510Y6274D01*
X12126D01*
X12008Y9124D02*
Y9882D01*
X12008Y9124D02*
X12008Y9124D01*
X12254Y4085D02*
Y4488D01*
X12126Y6274D02*
X12663D01*
X12943Y5994D01*
Y4488D02*
Y5994D01*
X12126Y5274D02*
X12162D01*
X12618Y4817D01*
Y4055D02*
Y4817D01*
X16629Y4567D02*
X16811Y4384D01*
X16127Y4567D02*
X16629D01*
X12618Y4055D02*
X13091Y3582D01*
Y3038D02*
Y3582D01*
X15669Y5025D02*
X16127Y4567D01*
X15669Y5025D02*
Y5669D01*
X12559Y3622D02*
Y3780D01*
X12254Y4085D02*
X12559Y3780D01*
X11400Y7496D02*
X12008Y8104D01*
X11064Y7496D02*
X11400D01*
X11064Y5551D02*
X11456D01*
X11678Y5774D01*
X12126D01*
X13091Y3038D02*
X14357Y1772D01*
X12008Y7703D02*
X13179Y6532D01*
Y4945D02*
Y6532D01*
Y4945D02*
X13543Y4581D01*
Y3215D02*
Y4581D01*
X12008Y7703D02*
Y8104D01*
Y8435D01*
X16811Y3399D02*
Y4384D01*
X14173Y6774D02*
X14232D01*
X15374Y7750D02*
X16234Y6890D01*
X16378D01*
X13780Y1575D02*
X13819Y1535D01*
X16194D01*
X16929Y5551D02*
X17126Y5748D01*
X16929Y4646D02*
Y5551D01*
Y4646D02*
X17638Y3937D01*
X16786Y6004D02*
X16890Y6108D01*
Y6850D01*
X14961Y6004D02*
X16786D01*
X17126Y6378D02*
X17480Y6732D01*
Y7717D01*
X17126Y5748D02*
Y6378D01*
X18031Y6024D02*
X18189Y6181D01*
X18012Y5650D02*
X18031Y5630D01*
X17736Y7972D02*
X17854D01*
X17480Y7717D02*
X17736Y7972D01*
X17677Y5776D02*
X17804Y5650D01*
X18012D01*
X17362Y6063D02*
X17835Y6535D01*
X18051Y7461D02*
Y7815D01*
Y7461D02*
X18386Y7126D01*
X17861Y3202D02*
X18163D01*
X19134Y4173D01*
X16194Y1535D02*
X17861Y3202D01*
X17866Y3510D02*
X18969Y4612D01*
X16693Y2677D02*
X17526Y3510D01*
X17866D01*
X19055Y6693D02*
X19061Y6687D01*
Y6044D02*
Y6687D01*
Y6044D02*
X19311Y5793D01*
X19561D01*
X19843Y5512D01*
Y4961D02*
Y5512D01*
X19494Y4612D02*
X19843Y4961D01*
X18969Y4612D02*
X19494D01*
X18189Y6181D02*
X18543D01*
X19528Y10961D02*
X19530D01*
X17362Y5591D02*
Y6063D01*
X17165Y5394D02*
X17362Y5591D01*
X17165Y4744D02*
Y5394D01*
Y4744D02*
X17545Y4364D01*
X18380D01*
X18675Y4659D01*
Y5039D01*
X16266Y2854D02*
X16811Y3399D01*
X16266Y2093D02*
Y2854D01*
X15945Y1772D02*
X16266Y2093D01*
X14357Y1772D02*
X15945D01*
X14311Y2447D02*
X14876D01*
X14961Y2362D01*
X13543Y3215D02*
X14311Y2447D01*
X19055Y7488D02*
X19528Y7961D01*
X19055Y6693D02*
Y7488D01*
D33*
X19692Y11457D02*
X20000Y11765D01*
X18843Y11457D02*
X19692D01*
X18291Y10906D02*
X18843Y11457D01*
X20000Y11765D02*
Y12488D01*
X10591Y7357D02*
X10709Y7475D01*
X10591Y2693D02*
Y7357D01*
Y2693D02*
X11260Y2024D01*
X7612Y1142D02*
X9053D01*
X9386Y14433D02*
X9606Y14213D01*
X16648Y11968D02*
Y12526D01*
X16102Y13071D02*
X16648Y12526D01*
X15453Y13071D02*
X16102D01*
X13504Y11122D02*
X15453Y13071D01*
X16102Y10906D02*
X18291D01*
X19528Y12961D02*
X20000Y12488D01*
X18260Y12598D02*
X18622Y12236D01*
X16102Y10906D02*
Y11423D01*
X16648Y11968D01*
X14902Y14075D02*
X15433Y14606D01*
X13504Y14075D02*
X14902D01*
X12205Y11102D02*
X13061D01*
X13081Y11122D01*
X13465Y14075D02*
Y14567D01*
Y14075D02*
X13504D01*
X11890Y3926D02*
X12194Y3622D01*
X10709Y7475D02*
Y8819D01*
X16644Y7392D02*
Y7864D01*
X7362Y892D02*
X7612Y1142D01*
X12362Y14567D02*
X12618D01*
X12205Y14724D02*
X12362Y14567D01*
X12126Y14724D02*
X12205D01*
X11496Y8887D02*
Y9361D01*
X11603Y8780D02*
X11614D01*
X11496Y8887D02*
X11603Y8780D01*
X11260Y5024D02*
X11890Y4394D01*
Y3926D02*
Y4394D01*
X18543Y6142D02*
X18608D01*
X19331Y5419D01*
Y5197D02*
Y5419D01*
D34*
X9606Y9512D02*
Y14213D01*
X8526Y14433D02*
X9386D01*
X9055Y8961D02*
X9606Y9512D01*
X8227Y14134D02*
X8526Y14433D01*
X7638Y14134D02*
X8227D01*
D35*
X11624Y8770D02*
X12875D01*
X11614Y8780D02*
X11624Y8770D01*
D36*
X8553Y1642D02*
D03*
X9154Y1161D02*
D03*
X8553Y642D02*
D03*
X18543Y11315D02*
D03*
Y12315D02*
D03*
Y13315D02*
D03*
Y14315D02*
D03*
X11260Y8024D02*
D03*
Y7024D02*
D03*
Y6024D02*
D03*
Y5024D02*
D03*
Y4024D02*
D03*
Y3024D02*
D03*
Y2024D02*
D03*
X19528Y7961D02*
D03*
Y8961D02*
D03*
Y9961D02*
D03*
Y10961D02*
D03*
Y11961D02*
D03*
Y12961D02*
D03*
Y13961D02*
D03*
X787Y8024D02*
D03*
Y7024D02*
D03*
Y6024D02*
D03*
Y5024D02*
D03*
Y4024D02*
D03*
Y3024D02*
D03*
Y2024D02*
D03*
X9055Y7961D02*
D03*
Y8961D02*
D03*
Y9961D02*
D03*
Y10961D02*
D03*
Y11961D02*
D03*
Y12961D02*
D03*
Y13961D02*
D03*
D37*
X18543Y15315D02*
D03*
X11260Y1024D02*
D03*
X19528Y14961D02*
D03*
X787Y1024D02*
D03*
X9055Y14961D02*
D03*
D38*
X6220Y13504D02*
D03*
Y11929D02*
D03*
Y10354D02*
D03*
Y8780D02*
D03*
Y7205D02*
D03*
Y5630D02*
D03*
Y4055D02*
D03*
Y2480D02*
D03*
X2835Y13504D02*
D03*
Y11929D02*
D03*
Y10354D02*
D03*
Y8780D02*
D03*
Y7205D02*
D03*
Y5630D02*
D03*
Y4055D02*
D03*
Y2480D02*
D03*
D39*
X16811Y11378D02*
D03*
X16181Y10984D02*
D03*
X14843D02*
D03*
X14567Y10354D02*
D03*
X14921Y9291D02*
D03*
X14094Y7323D02*
D03*
X17402Y15157D02*
D03*
X18937Y10591D02*
D03*
X15433Y14606D02*
D03*
X15669Y12559D02*
D03*
X16220Y12205D02*
D03*
X15984Y13583D02*
D03*
X15236Y15197D02*
D03*
X11496Y9528D02*
D03*
X10709Y8819D02*
D03*
X11299Y10827D02*
D03*
X15000Y7362D02*
D03*
X7638Y14134D02*
D03*
X7244Y13543D02*
D03*
X7283Y11339D02*
D03*
X3937Y3307D02*
D03*
X5472Y8740D02*
D03*
X7441Y5551D02*
D03*
X9055Y3346D02*
D03*
X16260Y14685D02*
D03*
X14528Y5197D02*
D03*
X14843Y14724D02*
D03*
X17638Y3937D02*
D03*
X15000Y6063D02*
D03*
X14488Y2874D02*
D03*
X13780Y1575D02*
D03*
X19488Y6220D02*
D03*
X14961Y2362D02*
D03*
X16693Y2677D02*
D03*
X12795Y1850D02*
D03*
X14764Y3898D02*
D03*
X16378Y6890D02*
D03*
X16614Y7520D02*
D03*
X18701Y5039D02*
D03*
X17047Y7047D02*
D03*
X19134Y4173D02*
D03*
X19331Y5197D02*
D03*
X19567Y3701D02*
D03*
X17638Y4921D02*
D03*
X15669Y2244D02*
D03*
D40*
X11348Y14724D02*
D03*
X18386Y7126D02*
D03*
M02*
