%FSLAX24Y24*%
%MOIN*%
G70*
G01*
G75*
G04 Layer_Color=16777215*
%ADD10C,0.0079*%
%ADD11C,0.0276*%
%ADD12R,0.0276X0.0394*%
%ADD13R,0.0236X0.0886*%
%ADD14R,0.0591X0.0295*%
%ADD15R,0.0295X0.0591*%
%ADD16R,0.0354X0.0315*%
%ADD17R,0.0492X0.0433*%
%ADD18R,0.0906X0.0906*%
%ADD19R,0.0354X0.0315*%
%ADD20R,0.0315X0.0354*%
%ADD21R,0.0236X0.0197*%
%ADD22R,0.0394X0.0276*%
%ADD23R,0.0315X0.0630*%
%ADD24R,0.0846X0.0335*%
%ADD25C,0.0335*%
%ADD26R,0.0335X0.0846*%
%ADD27R,0.0886X0.0236*%
%ADD28R,0.0299X0.0945*%
%ADD29C,0.0138*%
%ADD30C,0.0100*%
%ADD31C,0.0118*%
%ADD32C,0.0098*%
%ADD33O,0.0669X0.1181*%
%ADD34R,0.0380X0.0380*%
%ADD35C,0.0380*%
%ADD36C,0.0380*%
%ADD37R,0.0630X0.0315*%
%ADD38R,0.0906X0.0236*%
%ADD39R,0.0630X0.1063*%
%ADD40R,0.0358X0.0480*%
%ADD41R,0.0480X0.0358*%
%ADD42R,0.0118X0.0295*%
%ADD43R,0.2165X0.0827*%
%ADD44C,0.0236*%
%ADD45C,0.0394*%
%ADD46C,0.0039*%
%ADD47C,0.0063*%
G36*
X5319Y1732D02*
X5222D01*
Y1829D01*
X5319D01*
Y1732D01*
D02*
G37*
G36*
X2938Y1772D02*
X2842D01*
Y2136D01*
X2841Y2135D01*
X2839Y2133D01*
X2836Y2131D01*
X2833Y2127D01*
X2827Y2123D01*
X2821Y2119D01*
X2814Y2113D01*
X2806Y2108D01*
X2797Y2102D01*
X2787Y2096D01*
X2766Y2084D01*
X2743Y2073D01*
X2717Y2063D01*
Y2150D01*
X2717D01*
X2718Y2151D01*
X2720Y2152D01*
X2723Y2153D01*
X2731Y2156D01*
X2741Y2161D01*
X2753Y2167D01*
X2767Y2176D01*
X2783Y2185D01*
X2799Y2197D01*
X2799Y2198D01*
X2801Y2199D01*
X2803Y2201D01*
X2806Y2203D01*
X2813Y2210D01*
X2823Y2220D01*
X2833Y2232D01*
X2843Y2246D01*
X2852Y2261D01*
X2859Y2278D01*
X2938D01*
Y1772D01*
D02*
G37*
G36*
X4977Y2238D02*
X4984Y2237D01*
X4991Y2235D01*
X5000Y2233D01*
X5009Y2231D01*
X5019Y2228D01*
X5029Y2224D01*
X5040Y2219D01*
X5050Y2213D01*
X5060Y2206D01*
X5071Y2198D01*
X5081Y2189D01*
X5090Y2178D01*
X5091Y2178D01*
X5093Y2175D01*
X5095Y2172D01*
X5098Y2167D01*
X5102Y2161D01*
X5106Y2152D01*
X5110Y2143D01*
X5115Y2132D01*
X5120Y2119D01*
X5124Y2105D01*
X5128Y2089D01*
X5132Y2071D01*
X5135Y2052D01*
X5137Y2031D01*
X5139Y2008D01*
X5140Y1983D01*
Y1982D01*
Y1977D01*
Y1970D01*
X5139Y1961D01*
X5138Y1950D01*
X5136Y1937D01*
X5135Y1922D01*
X5133Y1907D01*
X5127Y1874D01*
X5123Y1857D01*
X5118Y1841D01*
X5112Y1825D01*
X5105Y1810D01*
X5097Y1796D01*
X5088Y1784D01*
X5087Y1783D01*
X5086Y1781D01*
X5083Y1778D01*
X5079Y1775D01*
X5073Y1770D01*
X5067Y1765D01*
X5060Y1759D01*
X5052Y1754D01*
X5043Y1748D01*
X5033Y1742D01*
X5022Y1737D01*
X5011Y1732D01*
X4997Y1728D01*
X4984Y1725D01*
X4970Y1724D01*
X4955Y1723D01*
X4950D01*
X4945Y1724D01*
X4941D01*
X4934Y1725D01*
X4921Y1727D01*
X4906Y1731D01*
X4890Y1736D01*
X4874Y1744D01*
X4859Y1755D01*
Y1755D01*
X4858Y1756D01*
X4853Y1761D01*
X4847Y1768D01*
X4840Y1778D01*
X4832Y1791D01*
X4825Y1808D01*
X4818Y1827D01*
X4813Y1848D01*
X4907Y1859D01*
Y1857D01*
X4908Y1854D01*
X4908Y1849D01*
X4910Y1843D01*
X4912Y1836D01*
X4915Y1828D01*
X4919Y1822D01*
X4924Y1816D01*
X4924Y1815D01*
X4926Y1814D01*
X4930Y1812D01*
X4934Y1810D01*
X4940Y1807D01*
X4946Y1805D01*
X4954Y1804D01*
X4962Y1803D01*
X4964D01*
X4967Y1804D01*
X4973Y1804D01*
X4980Y1806D01*
X4987Y1810D01*
X4996Y1814D01*
X5004Y1821D01*
X5013Y1830D01*
X5014Y1831D01*
X5015Y1833D01*
X5016Y1835D01*
X5018Y1839D01*
X5020Y1843D01*
X5022Y1848D01*
X5024Y1854D01*
X5026Y1862D01*
X5028Y1870D01*
X5030Y1879D01*
X5033Y1890D01*
X5035Y1901D01*
X5037Y1914D01*
X5038Y1929D01*
X5040Y1944D01*
X5039Y1943D01*
X5038Y1943D01*
X5036Y1940D01*
X5033Y1937D01*
X5025Y1931D01*
X5014Y1924D01*
X5001Y1915D01*
X4986Y1909D01*
X4968Y1904D01*
X4958Y1903D01*
X4948Y1902D01*
X4943D01*
X4938Y1903D01*
X4933Y1904D01*
X4928Y1904D01*
X4914Y1907D01*
X4898Y1913D01*
X4889Y1917D01*
X4880Y1921D01*
X4872Y1927D01*
X4863Y1933D01*
X4855Y1940D01*
X4846Y1947D01*
X4845Y1948D01*
X4845Y1950D01*
X4842Y1952D01*
X4839Y1956D01*
X4836Y1960D01*
X4832Y1966D01*
X4828Y1972D01*
X4825Y1980D01*
X4821Y1988D01*
X4817Y1996D01*
X4813Y2006D01*
X4810Y2017D01*
X4805Y2041D01*
X4804Y2053D01*
X4803Y2067D01*
Y2068D01*
Y2070D01*
Y2075D01*
X4804Y2080D01*
X4805Y2086D01*
X4805Y2094D01*
X4807Y2102D01*
X4809Y2112D01*
X4814Y2131D01*
X4818Y2142D01*
X4822Y2152D01*
X4828Y2162D01*
X4834Y2172D01*
X4841Y2182D01*
X4848Y2191D01*
X4849Y2192D01*
X4851Y2193D01*
X4853Y2195D01*
X4857Y2198D01*
X4862Y2202D01*
X4867Y2206D01*
X4873Y2210D01*
X4880Y2215D01*
X4888Y2219D01*
X4897Y2223D01*
X4906Y2228D01*
X4917Y2231D01*
X4928Y2234D01*
X4939Y2236D01*
X4951Y2238D01*
X4964Y2238D01*
X4972D01*
X4977Y2238D01*
D02*
G37*
%LPC*%
G36*
X4960Y2159D02*
X4955D01*
X4951Y2158D01*
X4944Y2156D01*
X4937Y2153D01*
X4930Y2149D01*
X4922Y2144D01*
X4915Y2137D01*
X4915Y2136D01*
X4913Y2133D01*
X4910Y2128D01*
X4907Y2120D01*
X4904Y2111D01*
X4901Y2099D01*
X4899Y2084D01*
X4898Y2067D01*
Y2066D01*
Y2065D01*
Y2063D01*
Y2059D01*
X4899Y2050D01*
X4901Y2039D01*
X4903Y2028D01*
X4906Y2016D01*
X4911Y2005D01*
X4917Y1995D01*
X4918Y1994D01*
X4921Y1992D01*
X4924Y1988D01*
X4930Y1984D01*
X4937Y1980D01*
X4945Y1977D01*
X4954Y1973D01*
X4965Y1973D01*
X4970D01*
X4975Y1974D01*
X4981Y1976D01*
X4989Y1978D01*
X4997Y1982D01*
X5004Y1987D01*
X5012Y1994D01*
X5013Y1995D01*
X5015Y1998D01*
X5018Y2003D01*
X5022Y2011D01*
X5025Y2020D01*
X5028Y2031D01*
X5030Y2044D01*
X5031Y2059D01*
Y2060D01*
Y2062D01*
Y2064D01*
Y2067D01*
X5030Y2076D01*
X5029Y2086D01*
X5026Y2098D01*
X5022Y2110D01*
X5017Y2122D01*
X5010Y2132D01*
X5009Y2133D01*
X5006Y2136D01*
X5001Y2141D01*
X4995Y2145D01*
X4988Y2150D01*
X4980Y2155D01*
X4970Y2158D01*
X4960Y2159D01*
D02*
G37*
%LPD*%
D10*
X11220Y11260D02*
X11575D01*
X11102Y11378D02*
X11220Y11260D01*
X12992Y7638D02*
X13209Y7854D01*
X12795Y7638D02*
X12992D01*
X2953Y13307D02*
Y14331D01*
X4921D01*
X2953Y13307D02*
X4921D01*
Y14331D01*
X6535Y3110D02*
Y3386D01*
Y3110D02*
X6811D01*
X6535Y4016D02*
Y4291D01*
X6811D01*
X2726Y8907D02*
Y11555D01*
Y8907D02*
X4045D01*
X2726Y10630D02*
X4045D01*
Y8907D02*
Y11555D01*
X12441Y8543D02*
Y10512D01*
X13465Y8543D02*
Y10512D01*
X12441Y8543D02*
X13465D01*
X12441Y10512D02*
X13465D01*
X2913Y5276D02*
Y6299D01*
X4882D01*
X2913Y5276D02*
X4882D01*
Y6299D01*
D30*
X9236Y10321D02*
G03*
X9236Y10321I-112J0D01*
G01*
X6362Y12513D02*
G03*
X6362Y12513I-112J0D01*
G01*
X1736Y10321D02*
G03*
X1736Y10321I-112J0D01*
G01*
X14379Y236D02*
G03*
X14379Y236I-88J0D01*
G01*
X14610Y12513D02*
G03*
X14610Y12513I-112J0D01*
G01*
X10866Y14911D02*
G03*
X10866Y14911I-49J0D01*
G01*
X3553Y7687D02*
Y8071D01*
X6487Y8516D02*
Y13024D01*
Y8516D02*
X7687D01*
X6487Y13024D02*
X7587D01*
X7687Y8516D02*
Y13024D01*
X7587D02*
X7687D01*
X187Y9811D02*
X287D01*
X187D02*
Y14319D01*
X287Y9811D02*
X1387D01*
X187Y14319D02*
X1387D01*
Y9811D02*
Y14319D01*
X3365Y3632D02*
Y4016D01*
X4488Y11191D02*
X4872D01*
X2638Y14686D02*
Y15306D01*
X9970Y541D02*
X9980Y531D01*
X9970Y541D02*
Y6654D01*
X13268D01*
X9980Y531D02*
X13268D01*
Y6654D01*
D31*
X2726Y11555D02*
X2953Y11782D01*
X3819D01*
X2953Y11929D02*
X3819D01*
Y11782D02*
X4045Y11555D01*
D32*
X2902Y12795D02*
G03*
X2902Y12795I-49J0D01*
G01*
X7254Y2953D02*
G03*
X7254Y2953I-49J0D01*
G01*
X11978Y10612D02*
G03*
X11978Y10612I-49J0D01*
G01*
X2862Y4764D02*
G03*
X2862Y4764I-49J0D01*
G01*
D44*
X3465Y13701D02*
G03*
X3465Y13701I-118J0D01*
G01*
X12953Y10118D02*
G03*
X12953Y10118I-118J0D01*
G01*
X3425Y5669D02*
G03*
X3425Y5669I-118J0D01*
G01*
D45*
X12888Y827D02*
G03*
X12888Y827I-2J0D01*
G01*
D46*
X11752Y11073D02*
X11880Y10945D01*
X12343D01*
X11752Y11073D02*
X11880Y10945D01*
X11752Y11073D02*
Y11516D01*
X11890Y11654D01*
X11762Y11526D02*
X11890Y11654D01*
X12343D01*
X12894Y10945D02*
X13484D01*
Y11654D01*
X12894D02*
X13484D01*
D47*
X3924Y1929D02*
X3793D01*
X3858D01*
Y1601D01*
X3793Y1535D01*
X3727D01*
X3661Y1601D01*
X4055Y1535D02*
X4186D01*
X4121D01*
Y1929D01*
X4055Y1863D01*
X3924Y8635D02*
X3858Y8701D01*
X3727D01*
X3661Y8635D01*
Y8373D01*
X3727Y8307D01*
X3858D01*
X3924Y8373D01*
X4055Y8307D02*
X4186D01*
X4121D01*
Y8701D01*
X4055Y8635D01*
X4383D02*
X4449Y8701D01*
X4580D01*
X4645Y8635D01*
Y8569D01*
X4580Y8504D01*
X4514D01*
X4580D01*
X4645Y8438D01*
Y8373D01*
X4580Y8307D01*
X4449D01*
X4383Y8373D01*
X5157Y15197D02*
Y14869D01*
X5223Y14803D01*
X5354D01*
X5420Y14869D01*
Y15197D01*
X5551Y15131D02*
X5617Y15197D01*
X5748D01*
X5813Y15131D01*
Y15066D01*
X5748Y15000D01*
X5682D01*
X5748D01*
X5813Y14934D01*
Y14869D01*
X5748Y14803D01*
X5617D01*
X5551Y14869D01*
X10079Y10276D02*
X9685D01*
Y10472D01*
X9751Y10538D01*
X9882D01*
X9948Y10472D01*
Y10276D01*
Y10407D02*
X10079Y10538D01*
X9751Y10669D02*
X9685Y10735D01*
Y10866D01*
X9751Y10932D01*
X9816D01*
X9882Y10866D01*
Y10800D01*
Y10866D01*
X9948Y10932D01*
X10013D01*
X10079Y10866D01*
Y10735D01*
X10013Y10669D01*
X10079Y11063D02*
Y11194D01*
Y11128D01*
X9685D01*
X9751Y11063D01*
X14685Y10787D02*
X14291D01*
Y10984D01*
X14357Y11050D01*
X14488D01*
X14554Y10984D01*
Y10787D01*
Y10919D02*
X14685Y11050D01*
Y11443D02*
Y11181D01*
X14423Y11443D01*
X14357D01*
X14291Y11378D01*
Y11247D01*
X14357Y11181D01*
X14685Y11771D02*
X14291D01*
X14488Y11575D01*
Y11837D01*
X14334Y6732D02*
Y7126D01*
X14531D01*
X14597Y7060D01*
Y6929D01*
X14531Y6863D01*
X14334D01*
X14466D02*
X14597Y6732D01*
X14990D02*
X14728D01*
X14990Y6995D01*
Y7060D01*
X14925Y7126D01*
X14793D01*
X14728Y7060D01*
X15121D02*
X15187Y7126D01*
X15318D01*
X15384Y7060D01*
Y6995D01*
X15318Y6929D01*
X15253D01*
X15318D01*
X15384Y6863D01*
Y6798D01*
X15318Y6732D01*
X15187D01*
X15121Y6798D01*
X13268Y14370D02*
Y14764D01*
X13464D01*
X13530Y14698D01*
Y14567D01*
X13464Y14501D01*
X13268D01*
X13399D02*
X13530Y14370D01*
X13924D02*
X13661D01*
X13924Y14632D01*
Y14698D01*
X13858Y14764D01*
X13727D01*
X13661Y14698D01*
X14317Y14370D02*
X14055D01*
X14317Y14632D01*
Y14698D01*
X14252Y14764D01*
X14120D01*
X14055Y14698D01*
X6969Y5465D02*
X6575D01*
Y5662D01*
X6641Y5728D01*
X6772D01*
X6837Y5662D01*
Y5465D01*
Y5596D02*
X6969Y5728D01*
Y5859D02*
Y5990D01*
Y5924D01*
X6575D01*
X6641Y5859D01*
X6969Y6384D02*
X6575D01*
X6772Y6187D01*
Y6449D01*
X7021Y2338D02*
X6759D01*
X6693Y2272D01*
Y2141D01*
X6759Y2076D01*
X7021D01*
X7087Y2141D01*
Y2272D01*
X6955Y2207D02*
X7087Y2338D01*
Y2272D02*
X7021Y2338D01*
X6693Y2732D02*
Y2469D01*
X6890D01*
X6824Y2600D01*
Y2666D01*
X6890Y2732D01*
X7021D01*
X7087Y2666D01*
Y2535D01*
X7021Y2469D01*
X10472Y11890D02*
Y11496D01*
X10735D01*
X11128Y11890D02*
X10866D01*
Y11693D01*
X10997Y11758D01*
X11063D01*
X11128Y11693D01*
Y11562D01*
X11063Y11496D01*
X10932D01*
X10866Y11562D01*
X8609Y9940D02*
X8478D01*
X8543D01*
Y9612D01*
X8478Y9547D01*
X8412D01*
X8346Y9612D01*
X8937Y9547D02*
Y9940D01*
X8740Y9743D01*
X9002D01*
X7047Y13491D02*
Y13360D01*
Y13425D01*
X7375D01*
X7441Y13360D01*
Y13294D01*
X7375Y13228D01*
X7113Y13622D02*
X7047Y13688D01*
Y13819D01*
X7113Y13884D01*
X7179D01*
X7244Y13819D01*
Y13753D01*
Y13819D01*
X7310Y13884D01*
X7375D01*
X7441Y13819D01*
Y13688D01*
X7375Y13622D01*
X656Y9646D02*
X525D01*
X590D01*
Y9318D01*
X525Y9252D01*
X459D01*
X394Y9318D01*
X1050Y9252D02*
X787D01*
X1050Y9514D01*
Y9580D01*
X984Y9646D01*
X853D01*
X787Y9580D01*
X2912Y8150D02*
X3306D01*
Y8346D01*
X3240Y8412D01*
X2978D01*
X2912Y8346D01*
Y8150D01*
X3306Y8543D02*
Y8674D01*
Y8609D01*
X2912D01*
X2978Y8543D01*
X14869Y2192D02*
X14803Y2126D01*
Y1995D01*
X14869Y1929D01*
X15131D01*
X15197Y1995D01*
Y2126D01*
X15131Y2192D01*
X15197Y2323D02*
Y2454D01*
Y2388D01*
X14803D01*
X14869Y2323D01*
X14803Y2913D02*
X14869Y2782D01*
X15000Y2651D01*
X15131D01*
X15197Y2716D01*
Y2847D01*
X15131Y2913D01*
X15066D01*
X15000Y2847D01*
Y2651D01*
X14829Y4147D02*
X14764Y4212D01*
X14633D01*
X14567Y4147D01*
Y3884D01*
X14633Y3819D01*
X14764D01*
X14829Y3884D01*
X14961Y3819D02*
X15092D01*
X15026D01*
Y4212D01*
X14961Y4147D01*
X15551Y4212D02*
X15288D01*
Y4016D01*
X15420Y4081D01*
X15485D01*
X15551Y4016D01*
Y3884D01*
X15485Y3819D01*
X15354D01*
X15288Y3884D01*
X9916Y9147D02*
X9851Y9212D01*
X9720D01*
X9654Y9147D01*
Y8884D01*
X9720Y8819D01*
X9851D01*
X9916Y8884D01*
X10048Y8819D02*
X10179D01*
X10113D01*
Y9212D01*
X10048Y9147D01*
X10572Y8819D02*
Y9212D01*
X10376Y9016D01*
X10638D01*
X3648Y3359D02*
X3583Y3425D01*
X3451D01*
X3386Y3359D01*
Y3097D01*
X3451Y3031D01*
X3583D01*
X3648Y3097D01*
X3779Y3031D02*
X3911D01*
X3845D01*
Y3425D01*
X3779Y3359D01*
X4370Y3031D02*
X4107D01*
X4370Y3294D01*
Y3359D01*
X4304Y3425D01*
X4173D01*
X4107Y3359D01*
X14751Y6076D02*
X14685Y6142D01*
X14554D01*
X14488Y6076D01*
Y5814D01*
X14554Y5748D01*
X14685D01*
X14751Y5814D01*
X14882D02*
X14947Y5748D01*
X15079D01*
X15144Y5814D01*
Y6076D01*
X15079Y6142D01*
X14947D01*
X14882Y6076D01*
Y6010D01*
X14947Y5945D01*
X15144D01*
X14672Y15184D02*
X14606Y15118D01*
Y14987D01*
X14672Y14921D01*
X14934D01*
X15000Y14987D01*
Y15118D01*
X14934Y15184D01*
X14672Y15315D02*
X14606Y15380D01*
Y15512D01*
X14672Y15577D01*
X14738D01*
X14803Y15512D01*
X14869Y15577D01*
X14934D01*
X15000Y15512D01*
Y15380D01*
X14934Y15315D01*
X14869D01*
X14803Y15380D01*
X14738Y15315D01*
X14672D01*
X14803Y15380D02*
Y15512D01*
X4578Y10577D02*
X4512Y10512D01*
Y10381D01*
X4578Y10315D01*
X4840D01*
X4905Y10381D01*
Y10512D01*
X4840Y10577D01*
X4512Y10709D02*
Y10971D01*
X4578D01*
X4840Y10709D01*
X4905D01*
X1837Y14462D02*
X1772Y14527D01*
X1640D01*
X1575Y14462D01*
Y14199D01*
X1640Y14134D01*
X1772D01*
X1837Y14199D01*
X2231Y14527D02*
X2100Y14462D01*
X1968Y14331D01*
Y14199D01*
X2034Y14134D01*
X2165D01*
X2231Y14199D01*
Y14265D01*
X2165Y14331D01*
X1968D01*
X12349Y7808D02*
X12283Y7874D01*
X12152D01*
X12087Y7808D01*
Y7546D01*
X12152Y7480D01*
X12283D01*
X12349Y7546D01*
X12480Y7480D02*
X12611D01*
X12546D01*
Y7874D01*
X12480Y7808D01*
X8386Y1693D02*
Y1365D01*
X8451Y1299D01*
X8583D01*
X8648Y1365D01*
Y1693D01*
X9042D02*
X8779D01*
Y1496D01*
X8911Y1562D01*
X8976D01*
X9042Y1496D01*
Y1365D01*
X8976Y1299D01*
X8845D01*
X8779Y1365D01*
X15276Y8806D02*
Y8674D01*
Y8740D01*
X15604D01*
X15669Y8674D01*
Y8609D01*
X15604Y8543D01*
X15276Y9199D02*
Y8937D01*
X15473D01*
X15407Y9068D01*
Y9134D01*
X15473Y9199D01*
X15604D01*
X15669Y9134D01*
Y9002D01*
X15604Y8937D01*
X10866Y8819D02*
X11194D01*
X11260Y8884D01*
Y9016D01*
X11194Y9081D01*
X10866D01*
X11260Y9475D02*
Y9212D01*
X10997Y9475D01*
X10932D01*
X10866Y9409D01*
Y9278D01*
X10932Y9212D01*
X10026Y14882D02*
X9895D01*
X9961D01*
Y14554D01*
X9895Y14488D01*
X9829D01*
X9764Y14554D01*
X10420Y14882D02*
X10289Y14816D01*
X10157Y14685D01*
Y14554D01*
X10223Y14488D01*
X10354D01*
X10420Y14554D01*
Y14619D01*
X10354Y14685D01*
X10157D01*
X11496Y14843D02*
Y15236D01*
X11693D01*
X11758Y15171D01*
Y15039D01*
X11693Y14974D01*
X11496D01*
X11890Y14843D02*
X12021D01*
X11955D01*
Y15236D01*
X11890Y15171D01*
X4606Y3425D02*
X4934D01*
X5000Y3491D01*
Y3622D01*
X4934Y3688D01*
X4606D01*
Y3819D02*
Y4081D01*
X4672D01*
X4934Y3819D01*
X5000D01*
M02*
