%FSLAX24Y24*%
%MOIN*%
G70*
G01*
G75*
G04 Layer_Color=8421504*
%ADD10C,0.0079*%
%ADD11R,0.0236X0.0886*%
%ADD12R,0.0299X0.0945*%
%ADD13R,0.0315X0.0354*%
%ADD14R,0.0886X0.0236*%
%ADD15R,0.0846X0.0335*%
%ADD16C,0.0335*%
%ADD17R,0.0335X0.0846*%
%ADD18R,0.0315X0.0630*%
%ADD19R,0.0394X0.0276*%
%ADD20R,0.0236X0.0197*%
%ADD21R,0.0276X0.0394*%
%ADD22R,0.0354X0.0315*%
%ADD23R,0.0906X0.0906*%
%ADD24R,0.0492X0.0433*%
%ADD25R,0.0354X0.0315*%
%ADD26R,0.0591X0.0295*%
%ADD27R,0.0295X0.0591*%
%ADD28C,0.0276*%
%ADD29C,0.0100*%
%ADD30C,0.0118*%
%ADD31C,0.0138*%
%ADD32C,0.0098*%
%ADD33C,0.0380*%
%ADD34R,0.0380X0.0380*%
%ADD35O,0.0669X0.1181*%
%ADD36C,0.0380*%
%ADD37R,0.2165X0.0827*%
%ADD38R,0.0118X0.0295*%
%ADD39R,0.0480X0.0358*%
%ADD40R,0.0358X0.0480*%
%ADD41R,0.0630X0.1063*%
%ADD42R,0.0906X0.0236*%
%ADD43R,0.0630X0.0315*%
%ADD44C,0.0236*%
%ADD45C,0.0394*%
%ADD46C,0.0039*%
%ADD47C,0.0063*%
D11*
X4648Y6811D02*
D03*
X4148D02*
D03*
X3648D02*
D03*
X4648Y4764D02*
D03*
X4148D02*
D03*
X3648D02*
D03*
X3148D02*
D03*
Y6811D02*
D03*
X4687Y14843D02*
D03*
X4187D02*
D03*
X3687D02*
D03*
X4687Y12795D02*
D03*
X4187D02*
D03*
X3687D02*
D03*
X3187D02*
D03*
Y14843D02*
D03*
D12*
X10811Y12657D02*
D03*
Y14193D02*
D03*
X11311Y12657D02*
D03*
Y14193D02*
D03*
X11811Y12657D02*
D03*
Y14193D02*
D03*
X12811Y12657D02*
D03*
Y14193D02*
D03*
X12311Y12657D02*
D03*
Y14193D02*
D03*
D13*
X9469Y14646D02*
D03*
X9035D02*
D03*
X14094Y7992D02*
D03*
X13543D02*
D03*
X10433Y8425D02*
D03*
X9882D02*
D03*
D14*
X13976Y10278D02*
D03*
Y9278D02*
D03*
Y9778D02*
D03*
Y8778D02*
D03*
X11929Y10278D02*
D03*
Y9778D02*
D03*
Y9278D02*
D03*
Y8778D02*
D03*
D15*
X14006Y5039D02*
D03*
Y2579D02*
D03*
Y2087D02*
D03*
Y4547D02*
D03*
Y1594D02*
D03*
Y610D02*
D03*
Y1102D02*
D03*
X9262Y6516D02*
D03*
Y6024D02*
D03*
Y5531D02*
D03*
Y3071D02*
D03*
Y2579D02*
D03*
D16*
X13583Y5039D02*
D03*
X10404Y6959D02*
D03*
X13583Y4547D02*
D03*
Y2579D02*
D03*
Y2087D02*
D03*
Y1594D02*
D03*
Y1102D02*
D03*
Y610D02*
D03*
X9911Y6959D02*
D03*
X9685Y6516D02*
D03*
Y6024D02*
D03*
Y5531D02*
D03*
Y2579D02*
D03*
Y3071D02*
D03*
D17*
X10404Y7382D02*
D03*
X9911D02*
D03*
D18*
X2283Y15001D02*
D03*
X1496D02*
D03*
D19*
X4685Y12028D02*
D03*
Y11516D02*
D03*
D20*
X15236Y14685D02*
D03*
X14843D02*
D03*
X15039Y6417D02*
D03*
X14646D02*
D03*
D21*
X4201Y3819D02*
D03*
X3689D02*
D03*
X4390Y7874D02*
D03*
X3878D02*
D03*
D22*
X14921Y5157D02*
D03*
Y4606D02*
D03*
X14921Y1535D02*
D03*
Y984D02*
D03*
D23*
X3386Y11171D02*
D03*
Y9469D02*
D03*
D24*
X13100Y11299D02*
D03*
X12175D02*
D03*
D25*
X7205Y4075D02*
D03*
Y3327D02*
D03*
X6417Y3701D02*
D03*
D26*
X6772Y7431D02*
D03*
Y6742D02*
D03*
X14803Y8140D02*
D03*
Y7451D02*
D03*
X13898Y11604D02*
D03*
Y10915D02*
D03*
X10551Y11093D02*
D03*
Y10404D02*
D03*
D27*
X15423Y14016D02*
D03*
X14734D02*
D03*
D28*
X591Y15039D02*
D03*
X6929Y787D02*
D03*
X13150Y15315D02*
D03*
X8465Y669D02*
D03*
M02*
