%FSLAX24Y24*%
%MOIN*%
G70*
G01*
G75*
G04 Layer_Physical_Order=1*
G04 Layer_Color=255*
%ADD10C,0.0079*%
%ADD11R,0.0236X0.0886*%
%ADD12R,0.0299X0.0945*%
%ADD13R,0.0315X0.0354*%
%ADD14R,0.0886X0.0236*%
%ADD15R,0.0846X0.0335*%
%ADD16C,0.0335*%
%ADD17R,0.0335X0.0846*%
%ADD18R,0.0315X0.0630*%
%ADD19R,0.0394X0.0276*%
%ADD20R,0.0236X0.0197*%
%ADD21R,0.0276X0.0394*%
%ADD22R,0.0354X0.0315*%
%ADD23R,0.0906X0.0906*%
%ADD24R,0.0492X0.0433*%
%ADD25R,0.0354X0.0315*%
%ADD26R,0.0591X0.0295*%
%ADD27R,0.0295X0.0591*%
%ADD28C,0.0276*%
%ADD29C,0.0100*%
%ADD30C,0.0118*%
%ADD31C,0.0138*%
%ADD32C,0.0098*%
%ADD33C,0.0380*%
%ADD34R,0.0380X0.0380*%
%ADD35O,0.0669X0.1181*%
%ADD36C,0.0380*%
D10*
X14961Y12992D02*
G03*
X15002Y12871I197J0D01*
G01*
X14886Y13563D02*
G03*
X14961Y13060I272J-217D01*
G01*
Y12992D02*
G03*
X15002Y12871I197J0D01*
G01*
X14599Y15118D02*
G03*
X13986Y14894I-347J0D01*
G01*
X14441Y14827D02*
G03*
X14599Y15118I-189J292D01*
G01*
X14648Y12176D02*
G03*
X14617Y11972I312J-153D01*
G01*
X15308Y10524D02*
G03*
X15302Y10587I-347J0D01*
G01*
X15202Y10274D02*
G03*
X15308Y10524I-241J250D01*
G01*
Y10024D02*
G03*
X15202Y10274I-347J0D01*
G01*
X15188Y9761D02*
G03*
X15308Y10024I-228J263D01*
G01*
X15290Y9523D02*
G03*
X15188Y9761I-329J0D01*
G01*
X15175Y9273D02*
G03*
X15290Y9523I-214J250D01*
G01*
Y9023D02*
G03*
X15175Y9273I-329J0D01*
G01*
X14822Y8724D02*
G03*
X15290Y9023I139J299D01*
G01*
X15000Y8465D02*
G03*
X14942Y8604I-197J0D01*
G01*
X15000Y8465D02*
G03*
X14942Y8604I-197J0D01*
G01*
X14391Y14743D02*
G03*
X14441Y14827I-139J139D01*
G01*
X14391Y14743D02*
G03*
X14441Y14827I-139J139D01*
G01*
X13780Y15315D02*
G03*
X13736Y15551I-669J0D01*
G01*
X13879Y13089D02*
G03*
X13937Y13228I-139J139D01*
G01*
X13879Y13089D02*
G03*
X13937Y13228I-139J139D01*
G01*
X13100Y14646D02*
G03*
X13780Y15315I10J669D01*
G01*
X13601Y14509D02*
G03*
X13543Y14370I139J-139D01*
G01*
X13601Y14509D02*
G03*
X13543Y14370I139J-139D01*
G01*
X12995Y13287D02*
G03*
X12964Y13327I-184J-114D01*
G01*
X12995Y13287D02*
G03*
X12964Y13326I-184J-114D01*
G01*
X14382Y11737D02*
G03*
X14350Y11697I146J-146D01*
G01*
X14381Y11737D02*
G03*
X14350Y11697I146J-146D01*
G01*
X14016Y11997D02*
G03*
X14166Y12283I-197J286D01*
G01*
X13247Y13013D02*
G03*
X13189Y12874I139J-139D01*
G01*
X13247Y13013D02*
G03*
X13189Y12874I139J-139D01*
G01*
X14166Y12283D02*
G03*
X13583Y12538I-347J0D01*
G01*
X13710Y8327D02*
G03*
X13650Y8453I-206J-20D01*
G01*
X13710Y8327D02*
G03*
X13650Y8454I-206J-20D01*
G01*
X13650Y5759D02*
G03*
X13711Y5906I-146J146D01*
G01*
X13650Y5759D02*
G03*
X13711Y5906I-146J146D01*
G01*
X13334Y5529D02*
G03*
X13480Y5589I0J207D01*
G01*
X13334Y5529D02*
G03*
X13480Y5589I0J207D01*
G01*
X13583Y5346D02*
G03*
X13443Y5313I0J-307D01*
G01*
D02*
G03*
X13385Y4805I139J-273D01*
G01*
X13425Y4263D02*
G03*
X13583Y4222I157J284D01*
G01*
X13385Y4805D02*
G03*
X13425Y4263I198J-258D01*
G01*
X13583Y2904D02*
G03*
X13425Y2863I0J-325D01*
G01*
D02*
G03*
X13310Y2756I157J-284D01*
G01*
X13207Y963D02*
G03*
X13323Y907I139J139D01*
G01*
D02*
G03*
X13385Y845I259J195D01*
G01*
X13207Y963D02*
G03*
X13323Y907I139J139D01*
G01*
X13385Y845D02*
G03*
X13443Y337I198J-234D01*
G01*
D02*
G03*
X13583Y304I139J273D01*
G01*
X12830Y13460D02*
G03*
X12677Y13524I-153J-153D01*
G01*
X12831Y13460D02*
G03*
X12677Y13524I-153J-153D01*
G01*
X12462D02*
G03*
X12488Y13563I-151J126D01*
G01*
X12462Y13524D02*
G03*
X12488Y13563I-151J126D01*
G01*
X11169Y11811D02*
G03*
X11210Y11496I327J-118D01*
G01*
X11253Y9843D02*
G03*
X11228Y9973I-347J0D01*
G01*
X10906Y11496D02*
G03*
X10766Y11438I0J-197D01*
G01*
X10906Y11496D02*
G03*
X10766Y11438I0J-197D01*
G01*
X10551Y10079D02*
G03*
X10583Y9972I197J0D01*
G01*
X10583Y9972D02*
G03*
X11253Y9843I323J-129D01*
G01*
X10551Y10079D02*
G03*
X10583Y9972I197J0D01*
G01*
X11347Y9711D02*
G03*
X11278Y9667I70J-184D01*
G01*
X11347Y9711D02*
G03*
X11278Y9667I70J-184D01*
G01*
X11199Y9588D02*
G03*
X11142Y9449I139J-139D01*
G01*
X11199Y9588D02*
G03*
X11142Y9449I139J-139D01*
G01*
Y8583D02*
G03*
X11199Y8443I197J0D01*
G01*
X11142Y8583D02*
G03*
X11199Y8443I197J0D01*
G01*
X11922Y8320D02*
G03*
X11917Y8071I322J-131D01*
G01*
X11917Y8071D02*
G03*
X11811Y7411I-145J-316D01*
G01*
Y7179D02*
G03*
X11869Y7040I197J0D01*
G01*
X11811Y7179D02*
G03*
X11869Y7040I197J0D01*
G01*
X11265Y8378D02*
G03*
X11405Y8320I139J139D01*
G01*
X11265Y8378D02*
G03*
X11405Y8320I139J139D01*
G01*
X11063Y8989D02*
G03*
X11005Y9128I-197J0D01*
G01*
X11063Y8989D02*
G03*
X11005Y9128I-197J0D01*
G01*
X8420Y13562D02*
G03*
X8420Y13061I241J-250D01*
G01*
D02*
G03*
X8420Y12561I241J-250D01*
G01*
X8319Y13750D02*
G03*
X8420Y13562I342J62D01*
G01*
X8420Y12061D02*
G03*
X8420Y11561I241J-250D01*
G01*
D02*
G03*
X8420Y11061I241J-250D01*
G01*
Y12561D02*
G03*
X8420Y12061I241J-250D01*
G01*
Y11061D02*
G03*
X8349Y10659I241J-250D01*
G01*
X9605Y6959D02*
G03*
X9628Y6841I307J0D01*
G01*
X9459Y7431D02*
G03*
X9401Y7570I-197J0D01*
G01*
X9459Y7431D02*
G03*
X9401Y7570I-197J0D01*
G01*
X9048Y9213D02*
G03*
X8365Y9124I-347J0D01*
G01*
X8664Y8867D02*
G03*
X9048Y9213I37J346D01*
G01*
X8898Y8100D02*
G03*
X9048Y8386I-197J286D01*
G01*
D02*
G03*
X8590Y8715I-347J0D01*
G01*
X12240Y6668D02*
G03*
X12134Y6386I240J-251D01*
G01*
X12347Y5589D02*
G03*
X12493Y5529I146J146D01*
G01*
X12347Y5589D02*
G03*
X12493Y5529I146J146D01*
G01*
X11958Y6563D02*
G03*
X11962Y6614I-344J51D01*
G01*
X11956Y5567D02*
G03*
X11962Y5630I-342J63D01*
G01*
X13182Y4646D02*
G03*
X12611Y4912I-347J0D01*
G01*
X12543Y4457D02*
G03*
X13182Y4646I292J189D01*
G01*
X11962Y6614D02*
G03*
X11666Y6271I-347J0D01*
G01*
X11962Y5630D02*
G03*
X11677Y5288I-347J0D01*
G01*
X12459Y4506D02*
G03*
X12543Y4457I139J139D01*
G01*
X12459Y4506D02*
G03*
X12543Y4457I139J139D01*
G01*
X12402Y1850D02*
G03*
X12459Y1711I197J0D01*
G01*
X12402Y1850D02*
G03*
X12459Y1711I197J0D01*
G01*
X11348Y3374D02*
G03*
X11638Y2769I227J-263D01*
G01*
X10208Y6699D02*
G03*
X10264Y6583I195J23D01*
G01*
X10146Y6761D02*
G03*
X10208Y6699I258J198D01*
G01*
D02*
G03*
X10264Y6583I195J23D01*
G01*
X9977Y6659D02*
G03*
X10146Y6761I-65J300D01*
G01*
X10236Y5797D02*
G03*
X10179Y5936I-197J0D01*
G01*
X10010Y6516D02*
G03*
X9977Y6659I-325J0D01*
G01*
X10236Y5797D02*
G03*
X10179Y5936I-197J0D01*
G01*
Y4821D02*
G03*
X10236Y4961I-139J139D01*
G01*
X10179Y4821D02*
G03*
X10236Y4961I-139J139D01*
G01*
X9897Y6270D02*
G03*
X10010Y6516I-212J246D01*
G01*
X9995Y6120D02*
G03*
X9897Y6270I-310J-96D01*
G01*
X9685Y5207D02*
G03*
X9843Y5247I0J325D01*
G01*
X9843Y5188D02*
G03*
X10146Y4789I-39J-345D01*
G01*
X10315Y4488D02*
G03*
X10373Y4349I197J0D01*
G01*
X10315Y4488D02*
G03*
X10373Y4349I197J0D01*
G01*
X9883Y2813D02*
G03*
X10010Y3071I-198J258D01*
G01*
X9843Y3355D02*
G03*
X9685Y3396I-157J-284D01*
G01*
X10010Y3071D02*
G03*
X9843Y3355I-325J0D01*
G01*
X9992Y2579D02*
G03*
X9883Y2813I-307J0D01*
G01*
X9935Y2402D02*
G03*
X9992Y2579I-250J177D01*
G01*
X9459Y4636D02*
G03*
X9401Y4775I-197J0D01*
G01*
X9459Y4636D02*
G03*
X9401Y4775I-197J0D01*
G01*
X7433Y12046D02*
G03*
X7399Y12176I-347J-22D01*
G01*
X7648Y11742D02*
G03*
X7584Y11896I-217J0D01*
G01*
X7648Y11742D02*
G03*
X7584Y11895I-217J0D01*
G01*
Y8617D02*
G03*
X7648Y8770I-153J153D01*
G01*
X7584Y8616D02*
G03*
X7648Y8770I-153J153D01*
G01*
X6800Y9827D02*
G03*
X6859Y9761I286J197D01*
G01*
D02*
G03*
X6872Y9274I228J-238D01*
G01*
D02*
G03*
X7052Y8697I215J-250D01*
G01*
X6619Y8264D02*
G03*
X6555Y8110I153J-153D01*
G01*
X6619Y8263D02*
G03*
X6555Y8110I153J-153D01*
G01*
X6122Y13642D02*
G03*
X5561Y14129I-492J0D01*
G01*
X5396Y14294D02*
G03*
X5236Y14360I-160J-160D01*
G01*
X5396Y14294D02*
G03*
X5236Y14360I-160J-160D01*
G01*
X5189Y13861D02*
G03*
X5138Y13642I441J-219D01*
G01*
Y13130D02*
G03*
X5288Y12776I492J0D01*
G01*
X5197D02*
G03*
X5044Y12712I0J-217D01*
G01*
X5197Y12776D02*
G03*
X5043Y12712I0J-217D01*
G01*
X5269Y10827D02*
G03*
X5138Y10492I361J-335D01*
G01*
Y9980D02*
G03*
X6097Y9827I492J0D01*
G01*
X6122Y8917D02*
G03*
X5138Y8917I-492J0D01*
G01*
X6008Y8091D02*
G03*
X6122Y8406I-378J315D01*
G01*
X5055Y8401D02*
G03*
X4902Y8465I-153J-153D01*
G01*
X5138Y8406D02*
G03*
X5147Y8308I492J0D01*
G01*
X5055Y8401D02*
G03*
X4902Y8465I-153J-153D01*
G01*
X5253Y7659D02*
G03*
X5138Y7343I377J-316D01*
G01*
X6122D02*
G03*
X6008Y7657I-492J0D01*
G01*
X5122Y7721D02*
G03*
X5253Y7659I153J153D01*
G01*
X5122Y7721D02*
G03*
X5253Y7659I153J153D01*
G01*
X4627Y9231D02*
G03*
X4685Y9370I-139J139D01*
G01*
X4627Y9231D02*
G03*
X4685Y9370I-139J139D01*
G01*
X6991Y4372D02*
G03*
X6950Y4431I-180J-80D01*
G01*
X6911Y5491D02*
G03*
X6969Y5630I-139J139D01*
G01*
X6911Y5491D02*
G03*
X6969Y5630I-139J139D01*
G01*
X6725Y4724D02*
G03*
X6477Y5057I-347J0D01*
G01*
X6991Y4372D02*
G03*
X6950Y4431I-180J-80D01*
G01*
X6720Y4661D02*
G03*
X6725Y4724I-342J63D01*
G01*
X6829Y3188D02*
G03*
X6870Y3156I139J139D01*
G01*
X6829Y3188D02*
G03*
X6870Y3156I139J139D01*
G01*
X7244Y197D02*
G03*
X7598Y787I-315J591D01*
G01*
X6641Y3386D02*
G03*
X6672Y3345I170J98D01*
G01*
X6641Y3386D02*
G03*
X6672Y3345I170J98D01*
G01*
X6557Y1869D02*
G03*
X6614Y2008I-139J139D01*
G01*
X6557Y1869D02*
G03*
X6614Y2008I-139J139D01*
G01*
X7598Y787D02*
G03*
X6614Y197I-669J0D01*
G01*
X5138Y6831D02*
G03*
X6122Y6831I492J0D01*
G01*
Y5768D02*
G03*
X5138Y5768I-492J0D01*
G01*
Y5256D02*
G03*
X5873Y4828I492J0D01*
G01*
Y4621D02*
G03*
X5138Y4193I-243J-428D01*
G01*
X5293Y3322D02*
G03*
X6083Y3488I337J359D01*
G01*
X6122Y2618D02*
G03*
X5138Y2618I-492J0D01*
G01*
X6103Y1972D02*
G03*
X6122Y2106I-474J134D01*
G01*
X5138D02*
G03*
X5310Y1732I492J0D01*
G01*
X5945Y1339D02*
G03*
X6084Y1396I0J197D01*
G01*
X5945Y1339D02*
G03*
X6084Y1396I0J197D01*
G01*
X4875Y2480D02*
G03*
X4732Y2761I-347J0D01*
G01*
X4388Y2974D02*
G03*
X4331Y2835I139J-139D01*
G01*
X4388Y2974D02*
G03*
X4331Y2835I139J-139D01*
G01*
Y2767D02*
G03*
X4875Y2480I197J-286D01*
G01*
X3819Y13514D02*
G03*
X3979Y13580I0J226D01*
G01*
X3819Y13514D02*
G03*
X3979Y13580I0J226D01*
G01*
X1752Y9980D02*
G03*
X2559Y9602I492J0D01*
G01*
X3937Y8622D02*
G03*
X4076Y8680I0J197D01*
G01*
X3937Y8622D02*
G03*
X4076Y8680I0J197D01*
G01*
X3878Y8465D02*
G03*
X3661Y8248I0J-217D01*
G01*
X3878Y8465D02*
G03*
X3661Y8248I0J-217D01*
G01*
X3384Y8091D02*
G03*
X3231Y8027I0J-217D01*
G01*
X3384Y8091D02*
G03*
X3230Y8027I0J-217D01*
G01*
X2995Y7791D02*
G03*
X2931Y7638I153J-153D01*
G01*
X2995Y7791D02*
G03*
X2931Y7638I153J-153D01*
G01*
X2718Y8660D02*
G03*
X2835Y8622I117J159D01*
G01*
X2718Y8660D02*
G03*
X2835Y8622I117J159D01*
G01*
X2559Y9272D02*
G03*
X1770Y8917I-315J-354D01*
G01*
Y8406D02*
G03*
X2718Y8406I474J0D01*
G01*
X1732Y14478D02*
G03*
X1572Y14412I0J-226D01*
G01*
X1732Y14478D02*
G03*
X1572Y14412I0J-226D01*
G01*
X1454Y14294D02*
G03*
X1388Y14134I160J-160D01*
G01*
X1454Y14294D02*
G03*
X1388Y14134I160J-160D01*
G01*
X1199Y15318D02*
G03*
X1022Y15551I-609J-278D01*
G01*
X197Y14498D02*
G03*
X1199Y14761I394J541D01*
G01*
X1029Y13561D02*
G03*
X1135Y13810I-242J250D01*
G01*
D02*
G03*
X546Y13561I-347J0D01*
G01*
X1135Y13311D02*
G03*
X1029Y13561I-347J0D01*
G01*
X1029Y13061D02*
G03*
X1135Y13311I-241J250D01*
G01*
X1029Y12561D02*
G03*
X1135Y12811I-241J250D01*
G01*
Y12311D02*
G03*
X1029Y12561I-347J0D01*
G01*
X546Y13561D02*
G03*
X450Y13394I242J-250D01*
G01*
X1135Y12811D02*
G03*
X1029Y13061I-347J0D01*
G01*
X1388Y11299D02*
G03*
X1454Y11139I226J0D01*
G01*
X1730Y10864D02*
G03*
X1860Y10799I160J160D01*
G01*
D02*
G03*
X1752Y10492I385J-307D01*
G01*
X1730Y10864D02*
G03*
X1860Y10799I160J160D01*
G01*
X1388Y11299D02*
G03*
X1454Y11139I226J0D01*
G01*
X1752Y9563D02*
G03*
X1688Y9716I-217J0D01*
G01*
X1752Y9563D02*
G03*
X1689Y9716I-217J0D01*
G01*
X1029Y12061D02*
G03*
X1135Y12311I-241J250D01*
G01*
Y11811D02*
G03*
X1029Y12061I-347J0D01*
G01*
Y11061D02*
G03*
X1135Y11311I-241J250D01*
G01*
Y10811D02*
G03*
X1029Y11061I-347J0D01*
G01*
Y11561D02*
G03*
X1135Y11811I-241J250D01*
G01*
Y11311D02*
G03*
X1029Y11561I-347J0D01*
G01*
X1100Y10659D02*
G03*
X1135Y10811I-312J153D01*
G01*
X2718Y7343D02*
G03*
X1770Y7343I-474J0D01*
G01*
Y6831D02*
G03*
X2718Y6831I474J0D01*
G01*
X2736Y5768D02*
G03*
X1752Y5768I-492J0D01*
G01*
X2621Y4940D02*
G03*
X2736Y5256I-377J316D01*
G01*
X2752Y4878D02*
G03*
X2621Y4940I-153J-153D01*
G01*
X2752Y4877D02*
G03*
X2621Y4940I-153J-153D01*
G01*
X2994Y3668D02*
G03*
X3148Y3604I153J153D01*
G01*
X2995Y3668D02*
G03*
X3148Y3604I153J153D01*
G01*
X1752Y3681D02*
G03*
X2736Y3681I492J0D01*
G01*
X2564Y1732D02*
G03*
X2736Y2106I-320J374D01*
G01*
Y2618D02*
G03*
X1752Y2618I-492J0D01*
G01*
X1776Y4572D02*
G03*
X1872Y4515I153J153D01*
G01*
X1752Y5256D02*
G03*
X1755Y5205I492J0D01*
G01*
X1776Y4571D02*
G03*
X1872Y4515I153J153D01*
G01*
D02*
G03*
X1752Y4193I372J-323D01*
G01*
X1319Y5118D02*
G03*
X1383Y4965I217J0D01*
G01*
X1319Y5118D02*
G03*
X1382Y4965I217J0D01*
G01*
X1568Y3386D02*
G03*
X1024Y3100I-347J0D01*
G01*
X1417D02*
G03*
X1568Y3386I-197J286D01*
G01*
X1752Y2106D02*
G03*
X1924Y1732I492J0D01*
G01*
X1554Y1396D02*
G03*
X1693Y1339I139J139D01*
G01*
X1554Y1396D02*
G03*
X1693Y1339I139J139D01*
G01*
X1024Y2008D02*
G03*
X1081Y1869I197J0D01*
G01*
X1024Y2008D02*
G03*
X1081Y1869I197J0D01*
G01*
X1253Y906D02*
G03*
X945Y1251I-347J0D01*
G01*
X574Y1010D02*
G03*
X1253Y906I332J-104D01*
G01*
X15454Y15551D02*
X15551Y15454D01*
X15203Y15551D02*
X15551Y15203D01*
X14953Y15551D02*
X15551Y14953D01*
X14941Y14941D02*
X15551Y15551D01*
X15494Y14742D02*
X15551Y14800D01*
X15494Y14491D02*
X15551Y14549D01*
X15173Y14923D02*
X15551Y15301D01*
X15424Y14923D02*
X15551Y15050D01*
X15118Y14923D02*
X15494D01*
X14690Y14941D02*
X15301Y15551D01*
X14702D02*
X15331Y14923D01*
X15494Y14760D02*
X15551Y14702D01*
X15494Y14509D02*
X15534Y14468D01*
X15494D02*
Y14923D01*
X15551Y14468D02*
Y15551D01*
X15494Y14468D02*
X15551D01*
X15480Y10765D02*
X15551Y10693D01*
X15355Y10639D02*
X15551Y10443D01*
X15302Y10587D02*
X15551Y10836D01*
X15307Y10547D02*
X15551Y10791D01*
X14961Y12992D02*
Y13060D01*
X14686Y13563D02*
X14820Y13429D01*
X14625Y12871D02*
X14885Y13131D01*
X14876Y12871D02*
X14963Y12959D01*
X14613Y12176D02*
Y12871D01*
X14599Y15100D02*
X15050Y15551D01*
X14597Y15155D02*
X14811Y14941D01*
X13736Y15551D02*
X15551D01*
X14452D02*
X15062Y14941D01*
X14567D02*
X15118D01*
X14613Y12871D02*
X15002D01*
X14429Y13563D02*
X14886D01*
X14435D02*
X14961Y13038D01*
X14548Y15300D02*
X14800Y15551D01*
X14567Y14468D02*
Y14724D01*
X14429Y14468D02*
X14567D01*
X14606D01*
X13937Y13560D02*
X14626Y12871D01*
X13937Y13811D02*
X14877Y12871D01*
X14048Y12545D02*
X14812Y13309D01*
X13879Y12626D02*
X14816Y13563D01*
X13768Y12978D02*
X14627Y12119D01*
X14613Y12176D02*
X14648D01*
X14350Y11845D02*
X14627Y12122D01*
X14148Y12394D02*
X14613Y12859D01*
X14127Y12122D02*
X14613Y12609D01*
X13937Y13310D02*
X14613Y12634D01*
X13893Y13104D02*
X14613Y12383D01*
X14164Y11909D02*
X14613Y12358D01*
X14382Y11737D02*
X14617Y11972D01*
X14163Y12332D02*
X14570Y11925D01*
X15299Y10445D02*
X15551Y10192D01*
X15307Y10046D02*
X15551Y10290D01*
X15241Y10230D02*
X15551Y10540D01*
X15211Y10282D02*
X15551Y9942D01*
X15299Y9944D02*
X15551Y9691D01*
X15290Y9026D02*
X15551Y9287D01*
X15228Y9716D02*
X15551Y10039D01*
X15284Y9458D02*
X15551Y9190D01*
X15290Y9527D02*
X15551Y9789D01*
X15228Y9215D02*
X15551Y9538D01*
X15283Y8957D02*
X15551Y8689D01*
X15210Y9782D02*
X15551Y9441D01*
X15256Y7990D02*
X15551Y8285D01*
X15256Y8233D02*
X15551Y7937D01*
X15210Y8445D02*
X15551Y8786D01*
X15256Y8241D02*
X15551Y8536D01*
X15256Y7489D02*
X15551Y7784D01*
X15256Y7238D02*
X15551Y7534D01*
X15256Y7739D02*
X15551Y8035D01*
X15256Y7982D02*
X15551Y7687D01*
X15256Y7835D02*
Y8445D01*
Y7489D02*
X15551Y7784D01*
X15232Y7756D02*
X15256Y7732D01*
Y7146D02*
Y7756D01*
Y7481D02*
X15551Y7186D01*
X15256Y7230D02*
X15551Y6935D01*
X15256Y7732D02*
X15551Y7436D01*
X15197Y9294D02*
X15551Y8940D01*
X14999Y8485D02*
X15551Y9037D01*
X14905Y8641D02*
X14957Y8694D01*
X14822Y8724D02*
X14942Y8604D01*
X15000Y8445D02*
X15256D01*
X15197Y8793D02*
X15551Y8438D01*
X15153Y7835D02*
X15232Y7756D01*
X15037Y8702D02*
X15551Y8188D01*
X14391Y7835D02*
X15256D01*
X15022Y7756D02*
X15101Y7835D01*
X14843Y7146D02*
X15256D01*
X14391Y7756D02*
X15256D01*
X14998Y8490D02*
X15044Y8445D01*
X14902Y7835D02*
X14981Y7756D01*
X14521D02*
X14599Y7835D01*
X14771Y7756D02*
X14850Y7835D01*
X14843Y7075D02*
X14913Y7146D01*
X14843Y7075D02*
X14913Y7146D01*
X14652Y7835D02*
X14730Y7756D01*
X14420Y15422D02*
X14549Y15551D01*
X14567Y14724D02*
Y14941D01*
X14210Y15463D02*
X14298Y15551D01*
X14437Y14814D02*
X14567Y14684D01*
X14469Y14468D02*
X14567Y14567D01*
X14325Y14676D02*
X14532Y14468D01*
X14201Y15551D02*
X14289Y15464D01*
X13951Y15551D02*
X14081Y15421D01*
X13779Y15282D02*
X14048Y15551D01*
X13754Y15497D02*
X13954Y15297D01*
X13774Y15227D02*
X13905Y15095D01*
X13752Y15506D02*
X13797Y15551D01*
X14429Y14429D02*
X14469Y14468D01*
X14199Y14551D02*
X14429Y14321D01*
X13937Y14188D02*
X14567Y14817D01*
X13937Y13937D02*
X14429Y14429D01*
X14074Y14426D02*
X14429Y14070D01*
X13949Y14300D02*
X14429Y13820D01*
X13937Y13686D02*
X14429Y14179D01*
X13937Y13436D02*
X14429Y13928D01*
X13937Y14289D02*
X14391Y14743D01*
X14429Y13563D02*
Y14468D01*
X13937Y14061D02*
X14429Y13569D01*
X13937Y13228D02*
Y14289D01*
X13931Y13179D02*
X14429Y13677D01*
X13717Y15033D02*
X13921Y14829D01*
X13100Y14353D02*
X13907Y15160D01*
X13100Y14102D02*
X13948Y14950D01*
X13619Y14880D02*
X13796Y14704D01*
X13601Y14509D02*
X13986Y14894D01*
X13487Y14762D02*
X13670Y14579D01*
X13319Y14679D02*
X13557Y14442D01*
X13100Y14603D02*
X13143Y14646D01*
X13102Y14646D02*
X13543Y14205D01*
X13100Y13852D02*
X13543Y14295D01*
X13100Y14147D02*
X13543Y13703D01*
X13100Y14397D02*
X13543Y13954D01*
X13100Y13601D02*
X13543Y14044D01*
Y13310D02*
Y14370D01*
X13100Y13896D02*
X13543Y13453D01*
X13037Y13287D02*
X13543Y13794D01*
X13247Y13013D02*
X13543Y13310D01*
X13583Y12580D02*
X14565Y13563D01*
X13118Y13118D02*
X13543Y13543D01*
X13100Y13581D02*
Y14646D01*
Y13646D02*
X13490Y13256D01*
X13118Y13126D02*
X13239Y13005D01*
X13118Y12176D02*
Y13287D01*
X12995D02*
X13118D01*
X14016Y11909D02*
X14350D01*
Y11894D02*
X14445Y11800D01*
X14485Y8502D02*
X14543Y8445D01*
X14487Y8502D02*
X14544Y8445D01*
X14350D02*
X14544D01*
X14458D02*
X14501Y8488D01*
X14125Y12119D02*
X14335Y11909D01*
X14016D02*
Y11997D01*
Y11978D02*
X14085Y11909D01*
X14350Y11697D02*
Y11909D01*
X14235Y8502D02*
X14350Y8387D01*
X13839Y8327D02*
X14014Y8502D01*
X14391Y7756D02*
Y7835D01*
X14401D02*
X14480Y7756D01*
X13858Y8309D02*
X14350D01*
X14322D02*
X14350Y8337D01*
Y7146D02*
Y7676D01*
Y7146D02*
X14449D01*
X14059Y7676D02*
X14350Y7384D01*
Y8309D02*
Y8445D01*
X13984Y8502D02*
X14178Y8309D01*
X14071D02*
X14265Y8502D01*
X14310Y7676D02*
X14350Y7635D01*
X13858Y7676D02*
X14350D01*
X13583Y12792D02*
X13879Y13089D01*
X13118Y12868D02*
X13207Y12957D01*
X13643Y12852D02*
X13868Y12627D01*
X13583Y12538D02*
Y12792D01*
Y12662D02*
X13655Y12590D01*
X13118Y12876D02*
X13189Y12805D01*
Y12247D02*
Y12874D01*
X13118Y12617D02*
X13189Y12688D01*
X13118Y12625D02*
X13189Y12555D01*
X13118Y12375D02*
X13189Y12304D01*
X13118Y12176D02*
X13189Y12247D01*
X13118Y12366D02*
X13189Y12437D01*
X13734Y8502D02*
X13927Y8309D01*
X13711Y7196D02*
X14190Y7676D01*
X13601Y8502D02*
X14487D01*
X13710Y8327D02*
X13858D01*
X13711Y7447D02*
X13939Y7676D01*
X13827Y7657D02*
X14449Y7035D01*
X13711Y6946D02*
X14350Y7586D01*
X13679Y8417D02*
X13764Y8502D01*
X13601D02*
X13650Y8454D01*
X13798Y8309D02*
X13858D01*
X13798Y7676D02*
X13858D01*
X13711Y7657D02*
X13858D01*
X15297Y6528D02*
X15551Y6782D01*
X15297Y6277D02*
X15551Y6531D01*
X15090Y7146D02*
X15551Y6685D01*
X15174Y6655D02*
X15551Y7033D01*
X15297Y6438D02*
X15551Y6184D01*
X15297Y6187D02*
X15551Y5933D01*
X15226Y5454D02*
X15551Y5780D01*
X15238Y5216D02*
X15551Y5529D01*
X15297Y6180D02*
Y6655D01*
X15054Y6180D02*
X15551Y5682D01*
X15238Y4965D02*
X15551Y5279D01*
X14975Y5454D02*
X15551Y6030D01*
X15256Y4733D02*
X15551Y5028D01*
Y197D02*
Y10836D01*
X15238Y5244D02*
X15551Y4931D01*
X15238Y4994D02*
X15551Y4680D01*
X15256Y4482D02*
X15551Y4778D01*
X15256Y4725D02*
X15551Y4430D01*
X15256Y4474D02*
X15551Y4179D01*
X15118Y3843D02*
X15551Y4276D01*
X15238Y4921D02*
Y5454D01*
X15256Y4291D02*
Y4921D01*
X15238Y4861D02*
Y4921D01*
X15118Y4094D02*
X15551Y4527D01*
X15188Y4291D02*
X15551Y3929D01*
X15118Y1850D02*
Y4291D01*
X15256D01*
X14921Y6655D02*
X15297D01*
X14923D02*
X15551Y7283D01*
X14843Y6825D02*
X15163Y7146D01*
X14843Y7143D02*
X15551Y6434D01*
X14921Y6180D02*
X15297D01*
X14822Y6161D02*
X15551Y5432D01*
X14605Y5454D02*
X15238D01*
X14725D02*
X15551Y6281D01*
X14843Y6673D02*
Y7146D01*
Y6892D02*
X15080Y6655D01*
X14843Y6673D02*
X14921D01*
X13711Y6771D02*
X15028Y5454D01*
X14843Y6655D02*
X14921D01*
X14370Y6161D02*
X14921D01*
X13711Y6521D02*
X14777Y5454D01*
X14571Y6161D02*
X15551Y5181D01*
X14115Y5346D02*
X14949Y6180D01*
X14366Y5346D02*
X15199Y6180D01*
X14587Y4291D02*
X14724D01*
X14687D02*
X14724Y4254D01*
Y1850D02*
Y4291D01*
X13754Y4222D02*
X14724Y3252D01*
X13503Y4222D02*
X14724Y3002D01*
X14506Y4222D02*
X14724Y4004D01*
X14255Y4222D02*
X14724Y3753D01*
X14005Y4222D02*
X14724Y3503D01*
X15118Y2608D02*
X15551Y2175D01*
X15118Y2090D02*
X15551Y2523D01*
X15118Y2858D02*
X15551Y2425D01*
X15118Y2340D02*
X15551Y2773D01*
X15129Y1850D02*
X15551Y2272D01*
X15256Y1726D02*
X15551Y2022D01*
X15118Y2357D02*
X15551Y1924D01*
X15118Y2107D02*
X15551Y1674D01*
X15118Y3092D02*
X15551Y3525D01*
X15118Y3359D02*
X15551Y2926D01*
X15118Y3342D02*
X15551Y3775D01*
X15118Y3610D02*
X15551Y3177D01*
X15118Y3109D02*
X15551Y2676D01*
X15118Y2591D02*
X15551Y3024D01*
X15118Y2841D02*
X15551Y3274D01*
X15256Y1225D02*
X15551Y1520D01*
X15256Y1468D02*
X15551Y1173D01*
X15256Y1476D02*
X15551Y1771D01*
X15256Y1718D02*
X15551Y1423D01*
X15253Y1220D02*
X15551Y922D01*
X15480Y197D02*
X15551Y268D01*
X15238Y957D02*
X15551Y1270D01*
X15238Y1220D02*
Y1281D01*
X15256Y1220D02*
Y1850D01*
X15238Y706D02*
X15551Y1019D01*
X15238Y687D02*
Y1220D01*
Y985D02*
X15551Y671D01*
X15238Y734D02*
X15551Y421D01*
X15230Y197D02*
X15551Y518D01*
X15118Y4111D02*
X15551Y3678D01*
X15118Y3593D02*
X15551Y4026D01*
X13427Y2904D02*
X14724Y4201D01*
X13677Y2904D02*
X14724Y3951D01*
X15118Y3861D02*
X15551Y3427D01*
X14587Y2889D02*
X14724Y2751D01*
X13928Y2904D02*
X14724Y3700D01*
X14178Y2904D02*
X14724Y3450D01*
X14587Y2310D02*
X14724Y2447D01*
X14587Y2388D02*
X14724Y2250D01*
X14587Y2560D02*
X14724Y2698D01*
X14587Y2638D02*
X14724Y2500D01*
X14587Y2137D02*
X14724Y1999D01*
X14628Y1850D02*
X14724Y1946D01*
X14587Y2059D02*
X14724Y2197D01*
X15118Y1850D02*
X15256D01*
X15034Y687D02*
X15525Y197D01*
X14979D02*
X15551Y769D01*
X15034Y687D02*
X15525Y197D01*
X14729D02*
X15219Y687D01*
X14784D02*
X15274Y197D01*
X14605Y687D02*
X15238D01*
X14587Y1850D02*
X14724D01*
X14569Y652D02*
X15024Y197D01*
X14569Y401D02*
X14773Y197D01*
X14478D02*
X14969Y687D01*
X14449Y6673D02*
Y7146D01*
X14370Y6603D02*
X14440Y6673D01*
X14370Y6603D02*
X14440Y6673D01*
X13711Y6194D02*
X14449Y6932D01*
X14370Y6673D02*
X14449D01*
X14569Y5298D02*
X14605Y5334D01*
X13711Y6270D02*
X14605Y5376D01*
X13865Y5346D02*
X14680Y6161D01*
X13711Y7022D02*
X14370Y6362D01*
Y6161D02*
Y6673D01*
X13711Y7272D02*
X14370Y6613D01*
X13711Y5906D02*
Y7657D01*
Y5944D02*
X14370Y6603D01*
X13711Y6020D02*
X14384Y5346D01*
X13711Y5944D02*
X14370Y6603D01*
X14605Y4921D02*
Y5454D01*
Y4861D02*
Y4921D01*
X14569Y5162D02*
X14605Y5126D01*
X14569Y5048D02*
X14605Y5084D01*
X14587Y4872D02*
Y4921D01*
Y4291D02*
Y4429D01*
X14495Y4222D02*
X14587Y4314D01*
Y4222D02*
Y4291D01*
X14569Y4872D02*
Y5346D01*
X14587Y4823D02*
Y4872D01*
Y4823D02*
Y4872D01*
Y4291D02*
Y4429D01*
X14569Y4823D02*
Y4872D01*
X13711Y7523D02*
X14449Y6785D01*
X13711Y6695D02*
X14350Y7335D01*
X13711Y6445D02*
X14412Y7146D01*
X13614Y5346D02*
X14430Y6161D01*
X13681Y5799D02*
X14134Y5346D01*
X13560Y5669D02*
X13883Y5346D01*
X13583D02*
X14569D01*
X13480Y5589D02*
X13650Y5759D01*
X13443Y5346D02*
X13583D01*
X13428Y5551D02*
X13633Y5346D01*
X12979Y4962D02*
X14370Y6353D01*
X13078Y4398D02*
X14572Y2904D01*
X12917Y4308D02*
X14321Y2904D01*
X13443Y5313D02*
Y5346D01*
X13200Y5529D02*
X13425Y5303D01*
X12949Y5529D02*
X13306Y5172D01*
X13117Y4849D02*
X13277Y5009D01*
X13182Y4663D02*
X13354Y4835D01*
X13170Y4556D02*
X13271Y4455D01*
X14587Y2411D02*
Y2904D01*
Y2254D02*
Y2411D01*
X14429Y2904D02*
X14724Y3199D01*
X14587Y2811D02*
X14724Y2949D01*
X14587Y1887D02*
X14623Y1850D01*
X14587Y1809D02*
X14628Y1850D01*
X14587Y2254D02*
Y2411D01*
Y1919D02*
Y2254D01*
Y1850D02*
Y1919D01*
Y1850D02*
Y1919D01*
X14587Y1762D02*
Y1850D01*
X14587Y1762D02*
Y1850D01*
Y1270D02*
Y1339D01*
Y1270D02*
Y1339D01*
Y1762D02*
Y1850D01*
Y1220D02*
Y1270D01*
X14605Y1220D02*
Y1281D01*
X14587Y1270D02*
Y1339D01*
Y1220D02*
Y1270D01*
X14587Y778D02*
Y1220D01*
X14605Y687D02*
Y1220D01*
X14569Y538D02*
X14718Y687D01*
X14569Y304D02*
Y778D01*
X14416Y304D02*
X14522Y197D01*
X14165Y304D02*
X14272Y197D01*
X14228D02*
X14334Y304D01*
X13977Y197D02*
X14084Y304D01*
X13425Y4222D02*
Y4263D01*
X13583Y4222D02*
X14587D01*
X13005Y2983D02*
X14244Y4222D01*
X13130Y2857D02*
X14495Y4222D01*
X13425D02*
X13583D01*
Y2904D02*
X14587D01*
X13425D02*
X13583D01*
X13425Y2863D02*
Y2904D01*
X13231Y2756D02*
X13310D01*
X13279D02*
X13425Y2902D01*
X13583Y304D02*
X14569D01*
X13915D02*
X14021Y197D01*
X13664Y304D02*
X13771Y197D01*
X13727D02*
X13833Y304D01*
X13443D02*
X13583D01*
X13309Y909D02*
X13379Y839D01*
X12975Y197D02*
X13292Y514D01*
X13225Y197D02*
X13396Y367D01*
X13443Y304D02*
Y337D01*
X13476Y197D02*
X13583Y304D01*
X12895Y13396D02*
X13080Y13581D01*
X12914D02*
X13364Y13131D01*
X12618Y13581D02*
X13100D01*
X12757Y13508D02*
X12829Y13581D01*
X12831Y13460D02*
X12964Y13327D01*
X12663Y13581D02*
X12727Y13518D01*
X12488Y13563D02*
X12618D01*
X12521Y13524D02*
X12561Y13563D01*
X12462Y13524D02*
X12677D01*
X11228Y9973D02*
X11326Y9875D01*
X10926Y11811D02*
X11174Y11563D01*
X10906Y11496D02*
X11210D01*
X11347Y9711D02*
Y9856D01*
X11235Y9731D02*
X11347Y9844D01*
X10995Y11496D02*
X11151Y11652D01*
X10726Y11398D02*
X10766Y11438D01*
X10709Y10709D02*
X10787Y10787D01*
X10827Y10709D02*
Y10787D01*
X10697D02*
X10776Y10709D01*
X10675Y11811D02*
X10990Y11496D01*
X10646Y11398D02*
X11059Y11811D01*
X9887D02*
X11169D01*
X10395Y11398D02*
X10809Y11811D01*
X10425D02*
X10783Y11453D01*
X10174Y11811D02*
X10588Y11398D01*
X10098D02*
X10726D01*
X10098Y10787D02*
X10827D01*
X10145Y11398D02*
X10558Y11811D01*
X10098Y11351D02*
X10145Y11398D01*
X9924Y11811D02*
X10337Y11398D01*
X9724Y11228D02*
X10308Y11811D01*
X10208Y10709D02*
X10286Y10787D01*
X10458Y10709D02*
X10537Y10787D01*
X10196D02*
X10274Y10709D01*
X10384Y10098D02*
X10566Y9916D01*
X10133Y10098D02*
X11142Y9090D01*
X10098Y10709D02*
X10827D01*
X9724Y10409D02*
X11005Y9128D01*
X10446Y10787D02*
X10525Y10709D01*
X10192Y9941D02*
X10349Y10098D01*
X10098D02*
X10551D01*
X10098Y10133D02*
X10133Y10098D01*
X10317Y9816D02*
X10553Y10052D01*
X10442Y9691D02*
X10560Y9808D01*
X8982Y9964D02*
X10186Y8760D01*
X11239Y9744D02*
X11299Y9685D01*
X11199Y9588D02*
X11278Y9667D01*
X11199Y8443D02*
X11265Y8378D01*
X11405Y8320D02*
X11922D01*
X11143Y9589D02*
X11175Y9558D01*
X11142Y8583D02*
Y9449D01*
X11063Y8918D02*
X11142Y8839D01*
X11063Y8667D02*
X11142Y8589D01*
X11063Y8558D02*
X11142Y8636D01*
X11852Y8094D02*
X11900Y8142D01*
X11661Y8320D02*
X11904Y8077D01*
X11865Y6854D02*
X11960Y6949D01*
X11709Y6948D02*
X11839Y7078D01*
X11410Y8320D02*
X11649Y8081D01*
X11063Y7555D02*
X11828Y8320D01*
X11811Y7179D02*
Y7411D01*
X11387Y6877D02*
X11811Y7301D01*
X11063Y8166D02*
X11427Y7802D01*
X10979Y9503D02*
X11142Y9340D01*
X11054Y9049D02*
X11142Y9137D01*
X10818Y9315D02*
X11017Y9513D01*
X10944Y9190D02*
X11142Y9388D01*
X11063Y8808D02*
X11142Y8887D01*
X11063Y8307D02*
X11199Y8443D01*
X10568Y9566D02*
X10631Y9629D01*
X10693Y9440D02*
X10774Y9521D01*
X10118Y8760D02*
X10186D01*
X9994Y8742D02*
X10099Y8846D01*
X10118Y8742D02*
X10179D01*
X10118Y8109D02*
X10179D01*
X9585Y8742D02*
X10118D01*
X11063Y7305D02*
X11434Y7675D01*
X11063Y7916D02*
X11811Y7167D01*
X11063Y8417D02*
X11503Y7977D01*
X11063Y7806D02*
X11577Y8320D01*
X11063Y7415D02*
X11527Y6951D01*
X11063Y7164D02*
X11368Y6859D01*
X11063Y7054D02*
X11523Y7514D01*
X11063Y8056D02*
X11338Y8331D01*
X10136Y8091D02*
X10217Y8010D01*
X9585Y8109D02*
X10118D01*
X9949Y7944D02*
X10113Y8109D01*
X10118Y8091D02*
X10217D01*
Y7963D02*
Y8091D01*
X10079Y7963D02*
X10217D01*
X9724Y11648D02*
X9887Y11811D01*
X9724Y11478D02*
X10057Y11811D01*
X9780Y11704D02*
X10098Y11386D01*
X9724Y11509D02*
X10098Y11135D01*
X9724Y10977D02*
X10098Y11351D01*
X9724Y11259D02*
X10098Y10885D01*
X8277Y13708D02*
X8388Y13597D01*
X8268Y13028D02*
X8367Y13127D01*
X8268Y12966D02*
X8327Y12906D01*
X10098Y10787D02*
Y11398D01*
X9724Y10727D02*
X10098Y11101D01*
X9724Y11008D02*
X10098Y10634D01*
X9724Y10476D02*
X10098Y10850D01*
X9816Y10317D02*
X10098Y10600D01*
X10067Y10067D02*
X10098Y10098D01*
X9724Y10758D02*
X10098Y10384D01*
X9724Y10507D02*
X10098Y10133D01*
X9724Y10409D02*
Y11648D01*
X10098Y10098D02*
Y10709D01*
X8314Y9964D02*
Y10659D01*
X9941Y10192D02*
X10098Y10349D01*
X8765Y9964D02*
X9986Y8742D01*
X8314Y10659D02*
X8349D01*
X8268Y13216D02*
X8392Y13092D01*
X8268Y12715D02*
X8394Y12589D01*
X8268Y13529D02*
X8366Y13628D01*
X8268Y13467D02*
X8327Y13407D01*
X8268Y12026D02*
X8367Y12126D01*
X8268Y11713D02*
X8420Y11561D01*
X8268Y12527D02*
X8367Y12626D01*
X8268Y12214D02*
X8401Y12081D01*
X8268Y12778D02*
X8314Y12824D01*
X8268Y12465D02*
X8327Y12405D01*
X8268Y13698D02*
X8319Y13750D01*
X8268Y13279D02*
X8314Y13325D01*
X8268Y11964D02*
X8327Y11905D01*
X8268Y11775D02*
X8314Y11822D01*
X8268Y12276D02*
X8314Y12323D01*
X8268Y11274D02*
X8314Y11321D01*
X8268Y11212D02*
X8419Y11060D01*
X8268Y11525D02*
X8368Y11625D01*
X8268Y11463D02*
X8327Y11404D01*
X8268Y10962D02*
X8326Y10903D01*
X8268Y10711D02*
X8320Y10659D01*
X8268Y11024D02*
X8368Y11124D01*
X8268Y10523D02*
X8314Y10569D01*
X8268Y10460D02*
X8314Y10414D01*
X8268Y10773D02*
X8314Y10820D01*
X8268Y9027D02*
Y13698D01*
Y10210D02*
X8314Y10164D01*
X8268Y10022D02*
X8314Y10068D01*
X8268Y10272D02*
X8314Y10318D01*
X9744Y8742D02*
X9974Y8972D01*
X9032Y8280D02*
X9849Y9097D01*
X9868Y8109D02*
X10032Y7944D01*
X9605D02*
X10079D01*
X9698D02*
X9863Y8109D01*
X9047Y9180D02*
X9585Y8642D01*
Y8109D02*
Y8742D01*
X9039Y9290D02*
X9348Y9598D01*
X9045Y8430D02*
X9605Y7871D01*
X9585Y8141D02*
X9617Y8109D01*
X9781Y7944D01*
X9112Y7859D02*
X9585Y8332D01*
X9237Y7734D02*
X9612Y8109D01*
X9457Y7453D02*
X9605Y7600D01*
X9459Y6953D02*
X9605Y7099D01*
Y6959D02*
Y7944D01*
X9363Y7609D02*
X9605Y7851D01*
X9459Y7265D02*
X9605Y7119D01*
X9459Y7015D02*
X9605Y6868D01*
X9459Y7204D02*
X9605Y7350D01*
X8314Y9964D02*
X8982D01*
X8471Y9473D02*
X8961Y9964D01*
X8268Y9959D02*
X8668Y9559D01*
X8268Y9520D02*
X8711Y9964D01*
X8795Y9547D02*
X9097Y9849D01*
X8952Y9453D02*
X9222Y9723D01*
X8268Y9458D02*
X8380Y9346D01*
X8268Y9270D02*
X8440Y9442D01*
X8268Y9771D02*
X8460Y9964D01*
X8268Y9709D02*
X8489Y9488D01*
X8268Y9027D02*
X8365Y9124D01*
X8590Y8792D02*
X8664Y8867D01*
X8268Y9208D02*
X8358Y9117D01*
X9021Y8520D02*
X9723Y9222D01*
X8976Y9000D02*
X9585Y8391D01*
X8514Y9964D02*
X9736Y8742D01*
X8912Y8662D02*
X9598Y9348D01*
X8987Y7985D02*
X9585Y8583D01*
X9006Y8219D02*
X9605Y7620D01*
X8898Y8077D02*
X9605Y7370D01*
X8732Y8732D02*
X9473Y9473D01*
X8834Y8892D02*
X9585Y8141D01*
X8636Y8839D02*
X8745Y8730D01*
X8590Y8715D02*
Y8792D01*
X8898Y8074D02*
X9401Y7570D01*
X12018Y5504D02*
X12225Y5711D01*
X11869Y7040D02*
X12240Y6668D01*
X12016Y6504D02*
X12210Y6698D01*
X12493Y5529D02*
X13334D01*
X12144Y5379D02*
X12350Y5586D01*
X11958Y6563D02*
X12134Y6386D01*
X11953Y6691D02*
X12085Y6823D01*
X11723Y5960D02*
X11849Y6087D01*
X11956Y5692D02*
X12100Y5836D01*
X11874Y5861D02*
X11975Y5961D01*
X12750Y4983D02*
X13296Y5529D01*
X12750Y4983D02*
X13296Y5529D01*
X12698D02*
X13296Y4931D01*
X12441Y5535D02*
X13289Y4687D01*
X12394Y5128D02*
X12794Y5529D01*
X12519Y5003D02*
X13045Y5529D01*
X12269Y5254D02*
X12544Y5529D01*
X11956Y5567D02*
X12611Y4912D01*
X11903Y5823D02*
X12745Y4981D01*
X11677Y5288D02*
X12459Y4506D01*
X11877Y4110D02*
X12366Y4599D01*
X11877Y4110D02*
X12366Y4599D01*
X11752Y4235D02*
X12241Y4725D01*
X11063Y7665D02*
X12165Y6563D01*
X11063Y6804D02*
X11680Y7421D01*
X11063Y6663D02*
X11807Y5919D01*
X11446Y5934D02*
X11724Y6212D01*
X11666Y6271D02*
X12347Y5589D01*
X11063Y6412D02*
X11513Y5962D01*
X11063Y5801D02*
X11537Y6275D01*
X11063Y6303D02*
X11280Y6519D01*
X11063Y6052D02*
X11374Y6363D01*
X11063Y6913D02*
X11277Y6699D01*
X11063Y6553D02*
X11352Y6842D01*
X11063Y5911D02*
X11274Y5700D01*
X11063Y5551D02*
X11310Y5798D01*
X11063Y6162D02*
X11359Y5866D01*
X11063Y5661D02*
X13820Y2904D01*
X11063Y5410D02*
X13570Y2904D01*
X11063Y5160D02*
X13386Y2837D01*
X11501Y4486D02*
X11991Y4975D01*
X11626Y4361D02*
X12116Y4850D01*
X11063Y4924D02*
X13231Y2756D01*
X11063Y5050D02*
X11383Y5370D01*
X11125Y4862D02*
X11552Y5288D01*
X11063Y5300D02*
X11284Y5521D01*
X11063Y4924D02*
Y8989D01*
X11251Y4736D02*
X11740Y5226D01*
X11376Y4611D02*
X11865Y5100D01*
X10083Y4636D02*
X11347Y3372D01*
X12503Y3484D02*
X13345Y4326D01*
X12498Y4476D02*
X14071Y2904D01*
X12128Y3859D02*
X12632Y4364D01*
X12378Y3609D02*
X13262Y4493D01*
X12754Y3233D02*
X13743Y4222D01*
X12879Y3108D02*
X13994Y4222D01*
X12253Y3734D02*
X12817Y4299D01*
X12629Y3358D02*
X13493Y4222D01*
X12002Y3985D02*
X12495Y4478D01*
X11811Y2290D02*
X11964Y2443D01*
X12402Y1850D02*
Y2005D01*
X12459Y1711D02*
X13207Y963D01*
X12223Y197D02*
X13098Y1072D01*
X11811Y1405D02*
X13019Y197D01*
X11811Y1906D02*
X13520Y197D01*
X12474D02*
X13225Y948D01*
X12724Y197D02*
X13378Y850D01*
X11811Y197D02*
X15551D01*
X11811D02*
Y2402D01*
X11973Y197D02*
X12973Y1197D01*
X11811Y1288D02*
X12402Y1879D01*
X11811Y1154D02*
X12769Y197D01*
X11811Y653D02*
X12268Y197D01*
X11811Y403D02*
X12017Y197D01*
X11811Y904D02*
X12518Y197D01*
X10373Y4349D02*
X11348Y3374D01*
X9459Y4258D02*
X11316Y2402D01*
X9459Y4509D02*
X11566Y2402D01*
X11421D02*
X11713Y2693D01*
X11672Y2402D02*
X11838Y2568D01*
X10920Y2402D02*
X11358Y2839D01*
X11171Y2402D02*
X11534Y2765D01*
X9944Y4525D02*
X11246Y3223D01*
X9966Y2701D02*
X10994Y3728D01*
X9711Y4508D02*
X11265Y2954D01*
X9459Y4008D02*
X11065Y2402D01*
X10419D02*
X11249Y3232D01*
X10670Y2402D02*
X11251Y2983D01*
X9961Y2444D02*
X11119Y3603D01*
X11811Y1037D02*
X12472Y1698D01*
X11811Y1656D02*
X13270Y197D01*
X11418Y2800D02*
X12405Y1813D01*
X11811Y2157D02*
X13285Y683D01*
X11811Y536D02*
X12723Y1448D01*
X11811Y286D02*
X12848Y1323D01*
X11811Y787D02*
X12597Y1573D01*
X10169Y2402D02*
X11244Y3477D01*
X11638Y2769D02*
X12402Y2005D01*
X9935Y2402D02*
X11811D01*
X10169D02*
X11244Y3477D01*
X11811Y1789D02*
X12214Y2192D01*
X11811Y1539D02*
X12340Y2067D01*
X11811Y2040D02*
X12089Y2318D01*
X10264Y6583D02*
X10315Y6533D01*
X10042Y6681D02*
X10315Y6409D01*
X9958Y6200D02*
X10303Y6545D01*
X10062Y6053D02*
X10315Y6306D01*
X10187Y5928D02*
X10315Y6056D01*
X10006Y6467D02*
X10315Y6158D01*
X9925Y6297D02*
X10315Y5908D01*
X10010Y6502D02*
X10207Y6700D01*
X9995Y6120D02*
X10179Y5936D01*
X10236Y5476D02*
X10315Y5555D01*
X10236Y5485D02*
X10315Y5407D01*
X10236Y5726D02*
X10315Y5805D01*
X10236Y5736D02*
X10315Y5657D01*
X10236Y5235D02*
X10315Y5156D01*
X10236Y4984D02*
X10315Y4905D01*
X10236Y5485D02*
X10315Y5407D01*
X10236Y5225D02*
X10315Y5304D01*
X10236Y4961D02*
Y5797D01*
X10315Y4488D02*
Y6533D01*
X10236Y4975D02*
X10315Y5053D01*
X10146Y4789D02*
X10179Y4821D01*
X9843Y5207D02*
Y5247D01*
X9843Y5188D02*
Y5247D01*
X9685Y5207D02*
X9843D01*
X8969D02*
X9685D01*
X9676Y5166D02*
X9717Y5207D01*
X9459Y6841D02*
Y7431D01*
X9605Y6841D02*
Y6959D01*
X9459Y6841D02*
X9605D01*
X8071Y5315D02*
X8188Y5432D01*
X9513Y5207D02*
X9597Y5122D01*
X9092Y5084D02*
X9215Y5207D01*
X8071Y5064D02*
X8313Y5306D01*
X9262Y5207D02*
X9485Y4983D01*
X9012Y5207D02*
X9468Y4750D01*
X8969Y5207D02*
X9401Y4775D01*
X8071Y5548D02*
X9065Y4554D01*
X9343Y4833D02*
X9480Y4970D01*
X9218Y4958D02*
X9466Y5207D01*
X8071Y4814D02*
X8438Y5181D01*
X8071Y5145D02*
X9065Y4151D01*
X8071Y5396D02*
X9065Y4402D01*
X8071Y2402D02*
Y5548D01*
Y4313D02*
X8689Y4931D01*
X8071Y4895D02*
X9065Y3901D01*
X8071Y4563D02*
X8563Y5056D01*
X10164Y4806D02*
X10315Y4655D01*
X9459Y3947D02*
X10315Y4803D01*
X9459Y3696D02*
X10315Y4552D01*
X9820Y3396D02*
X9843Y3374D01*
X9459Y3445D02*
X10367Y4354D01*
X9659Y3396D02*
X10493Y4229D01*
X9459Y4197D02*
X9759Y4498D01*
X9459Y3757D02*
X9820Y3396D01*
X9459Y4448D02*
X9584Y4573D01*
X9459Y3396D02*
Y4636D01*
Y3507D02*
X9570Y3396D01*
X9685D02*
X9843D01*
X9459D02*
X9685D01*
X9977Y3212D02*
X10743Y3978D01*
X9997Y2982D02*
X10868Y3853D01*
X9859Y3345D02*
X10618Y4104D01*
X9843Y3374D02*
X10814Y2402D01*
X9978Y2487D02*
X10063Y2402D01*
X9994Y2971D02*
X10564Y2402D01*
X9893Y2822D02*
X10313Y2402D01*
X9843Y3355D02*
Y3396D01*
X9451Y4690D02*
X9479Y4718D01*
X8071Y4644D02*
X9065Y3650D01*
X8681Y3396D02*
X9065D01*
X8908D02*
X9065Y3553D01*
X8071Y4394D02*
X9065Y3399D01*
X8071Y3310D02*
X9065Y4305D01*
X8071Y3561D02*
X9065Y4555D01*
X9065Y3396D02*
Y4554D01*
X8071Y4062D02*
X8814Y4805D01*
X8071Y3812D02*
X8939Y4680D01*
X8071Y3892D02*
X8681Y3282D01*
X8071Y3060D02*
X9065Y4054D01*
X8071Y4143D02*
X8818Y3396D01*
X8415Y2402D02*
X8699Y2686D01*
Y2402D02*
Y2746D01*
X8071Y2809D02*
X9065Y3803D01*
X8071Y3141D02*
X8699Y2512D01*
X8665Y2402D02*
X8699Y2435D01*
X8071Y2402D02*
X8699D01*
X8071Y3642D02*
X8681Y3032D01*
Y2746D02*
Y3396D01*
X8071Y3391D02*
X8681Y2781D01*
X8071Y2559D02*
X8681Y3169D01*
X8071Y2890D02*
X8560Y2402D01*
X8164D02*
X8681Y2918D01*
X8071Y2640D02*
X8309Y2402D01*
X7434Y12696D02*
X7677Y12939D01*
X7436Y15551D02*
X7677Y15310D01*
X7434Y12797D02*
X7677Y12554D01*
X7434Y12445D02*
X7677Y12688D01*
X7434Y12547D02*
X7677Y12304D01*
X7434Y12195D02*
X7677Y12438D01*
X7608Y11867D02*
X7677Y11937D01*
X7434Y12296D02*
X7677Y12053D01*
X7433Y12046D02*
X7677Y11803D01*
X7434Y12176D02*
Y12871D01*
X7485Y11995D02*
X7677Y12187D01*
X7360Y12871D02*
X7434Y12797D01*
X7399Y12176D02*
X7434D01*
X7433Y12046D02*
X7584Y11896D01*
X7648Y11331D02*
X7677Y11301D01*
X7648Y11406D02*
X7677Y11435D01*
X7648Y11155D02*
X7677Y11185D01*
X7648Y11656D02*
X7677Y11686D01*
X7648Y11582D02*
X7677Y11552D01*
X7648Y10830D02*
X7677Y10800D01*
X7648Y10654D02*
X7677Y10684D01*
X7648Y11080D02*
X7677Y11051D01*
X7648Y10905D02*
X7677Y10934D01*
X7648Y10404D02*
X7677Y10433D01*
X7648Y10329D02*
X7677Y10299D01*
X7648Y10579D02*
X7677Y10550D01*
X7648Y8770D02*
Y11742D01*
Y9903D02*
X7677Y9932D01*
X7648Y9828D02*
X7677Y9798D01*
X7648Y10153D02*
X7677Y10183D01*
X7648Y10078D02*
X7677Y10049D01*
X6935Y15551D02*
X7677Y14809D01*
X7186Y15551D02*
X7677Y15060D01*
X6434Y15551D02*
X7677Y14308D01*
X6184Y15551D02*
X7677Y14058D01*
X5432Y15551D02*
X7677Y13306D01*
X6685Y15551D02*
X7677Y14559D01*
X6328Y13343D02*
X7677Y14693D01*
X6078Y13845D02*
X7677Y15444D01*
X6203Y13468D02*
X7677Y14943D01*
X5975Y13993D02*
X7534Y15551D01*
X5933D02*
X7677Y13807D01*
X5825Y14093D02*
X7283Y15551D01*
X5682D02*
X7677Y13556D01*
X5615Y14134D02*
X7033Y15551D01*
X6122Y13639D02*
X7677Y15194D01*
X5323Y14343D02*
X6531Y15551D01*
X5461Y14230D02*
X6782Y15551D01*
X6578Y13093D02*
X7677Y14191D01*
X6453Y13218D02*
X7677Y14442D01*
X6704Y12967D02*
X7677Y13941D01*
X5181Y15551D02*
X7677Y13055D01*
X4931Y15551D02*
X7677Y12805D01*
X7108Y12871D02*
X7677Y13440D01*
X7359Y12871D02*
X7677Y13189D01*
X6800Y12871D02*
X7434D01*
X6858D02*
X7677Y13690D01*
X6122Y13608D02*
X6859Y12871D01*
X6125Y13546D02*
X6800Y12871D01*
X4963Y15269D02*
X7360Y12871D01*
X4963Y15018D02*
X7110Y12871D01*
X6646Y9827D02*
X6795Y9678D01*
X6396Y9827D02*
X6764Y9459D01*
X6097Y9827D02*
X6800D01*
X6145D02*
X6795Y9177D01*
X7648Y9151D02*
X7677Y9180D01*
X7648Y9327D02*
X7677Y9297D01*
X7648Y9076D02*
X7677Y9047D01*
X7648Y9652D02*
X7677Y9682D01*
X7648Y9401D02*
X7677Y9431D01*
X7648Y8900D02*
X7677Y8930D01*
X7648Y8826D02*
X7677Y8796D01*
X7595Y8628D02*
X7677Y8545D01*
X6988Y7990D02*
X7677Y8679D01*
X7648Y9577D02*
X7677Y9548D01*
X6988Y8021D02*
X7584Y8616D01*
X7470Y8502D02*
X7677Y8295D01*
X7345Y8377D02*
X7677Y8044D01*
X6988Y7874D02*
Y8021D01*
X7219Y8252D02*
X7677Y7794D01*
X7094Y8126D02*
X7677Y7543D01*
X7224Y7726D02*
X7677Y8178D01*
X7224Y7475D02*
X7677Y7928D01*
X6988Y7740D02*
X7677Y8429D01*
X6988Y7982D02*
X7677Y7293D01*
X7224Y7495D02*
X7677Y7042D01*
X7224Y6974D02*
X7677Y7427D01*
X7224Y7224D02*
X7677Y7677D01*
X7224Y7224D02*
X7677Y7677D01*
X7224Y7126D02*
Y7736D01*
Y7244D02*
X7677Y6792D01*
X6988Y7736D02*
X7224D01*
X6988D02*
Y7874D01*
X7092Y7126D02*
X7171Y7047D01*
X7224Y6994D01*
X7047Y7047D02*
X7126Y7126D01*
X7047Y7047D02*
X7126Y7126D01*
X6089Y9095D02*
X6809Y9815D01*
X5901Y9570D02*
X6913Y8558D01*
X6122Y8628D02*
X6822Y9327D01*
X6619Y8264D02*
X7052Y8697D01*
X6029Y9692D02*
X6764Y8957D01*
X6122Y8878D02*
X6757Y9513D01*
X5850Y9358D02*
X6319Y9827D01*
X5993Y9250D02*
X6570Y9827D01*
X6122Y8848D02*
X6663Y8307D01*
X6122Y8597D02*
X6561Y8159D01*
X6055Y9166D02*
X6788Y8433D01*
X6121Y8376D02*
X6757Y9012D01*
X6337Y8091D02*
X6965Y8718D01*
X6842Y7126D02*
X6920Y7047D01*
X6086Y8091D02*
X6823Y8827D01*
X6319Y7126D02*
X7224D01*
X6591D02*
X6670Y7047D01*
X6797D02*
X6875Y7126D01*
X6319Y7047D02*
X7224D01*
X6546D02*
X6625Y7126D01*
X6319D02*
Y7657D01*
X6008Y8091D02*
X6555D01*
X6119Y8350D02*
X6378Y8091D01*
X6319Y7148D02*
X6341Y7126D01*
X6419Y7047D01*
X6122Y7124D02*
X6319Y7321D01*
X6122Y6874D02*
X6374Y7126D01*
X4963Y14483D02*
X6030Y15551D01*
X4963Y14734D02*
X5780Y15551D01*
X5090Y14360D02*
X6281Y15551D01*
X4963Y14985D02*
X5529Y15551D01*
X4963Y14768D02*
X5598Y14133D01*
X6122Y13549D02*
Y13642D01*
X5396Y14294D02*
X5561Y14129D01*
X4963Y14517D02*
X5120Y14360D01*
X4963Y15235D02*
X5279Y15551D01*
X4963Y14360D02*
Y15443D01*
X5142Y13907D02*
X5189Y13861D01*
X4963Y14360D02*
X5236D01*
X5071Y13907D02*
X5168Y13811D01*
X5197Y12776D02*
X5288D01*
X4944Y13032D02*
X5201Y12776D01*
X4944Y12712D02*
X5175Y12942D01*
X5200Y10827D02*
X5269D01*
X5172Y10800D02*
X5215Y10757D01*
X4944Y13213D02*
X5138Y13406D01*
Y13130D02*
Y13642D01*
X4944Y13283D02*
X5140Y13087D01*
X4944Y12613D02*
Y13378D01*
X5047Y10674D02*
X5145Y10576D01*
X5138Y9980D02*
Y10492D01*
X4944Y12781D02*
X5029Y12697D01*
X4944Y12613D02*
X5043Y12712D01*
X4680Y15551D02*
X4789Y15443D01*
X4669D02*
X4778Y15551D01*
X4920Y15443D02*
X5028Y15551D01*
X4463Y15443D02*
X4963D01*
X4608Y13378D02*
X5138Y13907D01*
X4821D02*
X5138Y13590D01*
X4859Y13378D02*
X5138Y13657D01*
X4306Y13907D02*
X5142D01*
X4320D02*
X4849Y13378D01*
X4419Y15443D02*
X4527Y15551D01*
X4430D02*
X4538Y15443D01*
X4168D02*
X4276Y15551D01*
X4179D02*
X4287Y15443D01*
X4411D02*
X4463D01*
X4411D02*
X4463D01*
X4062Y13664D02*
X4348Y13378D01*
X4107D02*
X4637Y13907D01*
X4922Y10549D02*
X5138Y10333D01*
X4944Y12962D02*
X5138Y13155D01*
X4685Y10312D02*
X5200Y10827D01*
X4570Y13907D02*
X5138Y13340D01*
X4685Y10197D02*
X5180Y10693D01*
X4685Y9696D02*
X5138Y10149D01*
X4685Y10034D02*
X5379Y9341D01*
X4685Y9947D02*
X5138Y10399D01*
X4685Y10285D02*
X5173Y9796D01*
X4358Y13378D02*
X4888Y13907D01*
X4444Y13378D02*
X4944D01*
X4188Y13789D02*
X4599Y13378D01*
X4797Y10424D02*
X5138Y10083D01*
X4685Y9370D02*
Y10312D01*
X5651Y9409D02*
X5743Y9501D01*
X5446Y9524D02*
X5565Y9405D01*
X5723Y9497D02*
X5878Y9342D01*
X6122Y8406D02*
Y8917D01*
X6057Y8161D02*
X6128Y8091D01*
X5055Y8401D02*
X5147Y8308D01*
X4951Y8459D02*
X5138Y8645D01*
Y8406D02*
Y8917D01*
X4706Y8465D02*
X5138Y8896D01*
X5099Y8356D02*
X5138Y8395D01*
X4812Y8031D02*
X5122Y7721D01*
X6008Y7657D02*
X6319D01*
X6066Y7570D02*
X6154Y7657D01*
X6060D02*
X6319Y7398D01*
X6122Y7094D02*
X6319Y6897D01*
X6122Y6831D02*
Y7343D01*
X6121Y7374D02*
X6319Y7572D01*
X6122Y7345D02*
X6319Y7148D01*
X4906Y7411D02*
X5176Y7682D01*
X4923Y7178D02*
X5141Y7396D01*
X4923Y7291D02*
X5138Y7076D01*
Y6831D02*
Y7343D01*
X4923Y6928D02*
X5138Y7142D01*
X4923Y7040D02*
X5138Y6825D01*
X4685Y9784D02*
X5245Y9224D01*
X4685Y9445D02*
X5144Y9904D01*
X4685Y9533D02*
X5159Y9059D01*
X4205Y8465D02*
X5330Y9590D01*
X4456Y8465D02*
X5498Y9506D01*
X4671Y9297D02*
X5138Y8830D01*
X4667Y8031D02*
X4812D01*
X4557Y9160D02*
X5138Y8579D01*
X4432Y9035D02*
X5145Y8322D01*
X4076Y8680D02*
X4627Y9231D01*
X4306Y8910D02*
X4751Y8465D01*
X4667Y7924D02*
X4774Y8031D01*
X4054Y8661D02*
X4250Y8465D01*
X4181Y8784D02*
X4501Y8465D01*
X4667Y7538D02*
Y8031D01*
X4683D02*
X5178Y7537D01*
X4667Y7674D02*
X4918Y7925D01*
X4655Y7411D02*
X5044Y7800D01*
X4667Y7547D02*
X4802Y7411D01*
X4667Y7797D02*
X5138Y7327D01*
X4173Y7538D02*
X4667D01*
X4423Y7411D02*
X4923D01*
X4405D02*
X4531Y7538D01*
X4426D02*
X4552Y7411D01*
X4113Y7538D02*
X4173D01*
X4372Y7411D02*
X4423D01*
X4372D02*
X4423D01*
X4154D02*
X4281Y7538D01*
X4175D02*
X4301Y7411D01*
X7224Y6994D02*
X7677Y6541D01*
X7224Y6723D02*
X7677Y7176D01*
X7224Y6473D02*
X7677Y6926D01*
X7224Y6743D02*
X7677Y6291D01*
X6969Y5966D02*
X7677Y6675D01*
X7224Y6493D02*
X7677Y6040D01*
X7030Y6437D02*
X7677Y5789D01*
X6969Y6248D02*
X7677Y5539D01*
X6969Y5997D02*
X7677Y5288D01*
X7189Y6437D02*
X7224Y6473D01*
Y6437D02*
Y7047D01*
X6969Y6437D02*
X7224D01*
X6969Y5630D02*
Y6437D01*
Y5746D02*
X7677Y5038D01*
X6991Y4372D02*
X7521D01*
X6969Y6217D02*
X7189Y6437D01*
X6969Y5716D02*
X7677Y6424D01*
X7521Y4191D02*
X7677Y4036D01*
X7521Y4264D02*
X7677Y4420D01*
Y197D02*
Y15551D01*
X7128Y4372D02*
X7677Y4921D01*
X7378Y4372D02*
X7677Y4671D01*
X7521Y4014D02*
X7677Y4169D01*
X7521Y3941D02*
X7677Y3785D01*
X7400Y3642D02*
X7677Y3919D01*
X7434Y3778D02*
X7677Y3534D01*
X7521Y3778D02*
Y4372D01*
X7183Y3778D02*
X7319Y3642D01*
X7008Y3778D02*
X7521D01*
X7008Y3642D02*
Y3778D01*
X6528Y6437D02*
X6575Y6391D01*
X6319Y6437D02*
X6575D01*
Y5711D02*
Y6437D01*
X6081Y6634D02*
X6575Y6140D01*
X5980Y6485D02*
X6575Y5890D01*
X6113Y5862D02*
X6575Y6324D01*
X6122Y5621D02*
X6575Y6074D01*
X6122Y6843D02*
X6319Y6647D01*
Y6437D02*
Y7047D01*
X5745Y6246D02*
X6319Y6820D01*
X5917Y6167D02*
X6319Y6569D01*
X6040Y6040D02*
X6437Y6437D01*
X6115Y5848D02*
X6413Y5550D01*
X6040Y6040D02*
X6437Y6437D01*
X5832Y6382D02*
X6539Y5675D01*
X6725Y4721D02*
X7677Y5673D01*
X6939Y5526D02*
X7677Y4787D01*
X6818Y4563D02*
X7677Y5422D01*
X6537Y5033D02*
X7677Y6174D01*
X6669Y4915D02*
X7677Y5923D01*
X6817Y5397D02*
X7677Y4537D01*
X6943Y4438D02*
X7677Y5172D01*
X6566Y5146D02*
X7341Y4372D01*
X6692Y5272D02*
X7677Y4286D01*
X6477Y5057D02*
X6911Y5491D01*
X6122Y5370D02*
X6575Y5823D01*
X6122Y5259D02*
X6575Y5711D01*
X6725Y4737D02*
X7091Y4372D01*
X6720Y4661D02*
X6950Y4431D01*
X7539Y3280D02*
X7677Y3418D01*
X7539Y3531D02*
X7677Y3668D01*
X7539Y3012D02*
Y3642D01*
X7008D02*
X7539D01*
Y3422D02*
X7677Y3284D01*
X7539Y3171D02*
X7677Y3033D01*
X7539Y3029D02*
X7677Y3167D01*
X6870Y3012D02*
X7539D01*
X7448D02*
X7677Y2783D01*
X7008Y3751D02*
X7035Y3778D01*
X7149Y3642D02*
X7286Y3778D01*
X7008Y3703D02*
X7069Y3642D01*
X6672Y3345D02*
X6829Y3188D01*
X6870Y3012D02*
Y3156D01*
Y3089D02*
X6947Y3012D01*
X7173Y1411D02*
X7677Y1915D01*
X7198Y3012D02*
X7677Y2532D01*
X7334Y1321D02*
X7677Y1664D01*
X6947Y3012D02*
X7677Y2282D01*
X6968Y1456D02*
X7677Y2165D01*
X7597Y832D02*
X7677Y912D01*
X7594Y861D02*
X7677Y778D01*
X7459Y1196D02*
X7677Y1413D01*
X7550Y1036D02*
X7677Y1163D01*
X7548Y533D02*
X7677Y662D01*
X7579Y626D02*
X7677Y528D01*
X7506Y448D02*
X7677Y277D01*
X7506Y448D02*
X7677Y277D01*
X7463Y197D02*
X7677Y411D01*
X7244Y197D02*
X7677D01*
X7396Y308D02*
X7507Y197D01*
X6614Y2104D02*
X7522Y3012D01*
X6614Y2355D02*
X7271Y3012D01*
X6614Y3094D02*
X7677Y2031D01*
X6614Y3345D02*
X6870Y3089D01*
X6614Y2856D02*
X6870Y3112D01*
X6614Y2605D02*
X7021Y3012D01*
X6614Y2844D02*
X7677Y1781D01*
X6614Y2593D02*
X7677Y1530D01*
X6571Y1885D02*
X7003Y1453D01*
X6614Y3357D02*
X6641Y3384D01*
X6614Y2008D02*
Y3386D01*
Y3106D02*
X6762Y3255D01*
X6446Y1759D02*
X6768Y1437D01*
X6663Y1402D02*
X7677Y2416D01*
X6614Y2343D02*
X7677Y1280D01*
X4957Y197D02*
X7677Y2917D01*
X5208Y197D02*
X7677Y2666D01*
X6321Y1633D02*
X6590Y1364D01*
X6614Y2092D02*
X7677Y1029D01*
X6321Y1633D02*
X6590Y1364D01*
X6084Y1396D02*
X6557Y1869D01*
X6196Y1508D02*
X6450Y1254D01*
X6070Y1383D02*
X6343Y1110D01*
X5363Y1339D02*
X6505Y197D01*
X6210D02*
X6396Y383D01*
X6461Y197D02*
X6521Y257D01*
X5458Y197D02*
X6315Y1053D01*
X5959Y197D02*
X6306Y543D01*
X5625Y6339D02*
X5710Y6253D01*
X5487Y6239D02*
X5589Y6340D01*
X4923Y6790D02*
X5477Y6236D01*
X4923Y6539D02*
X5316Y6146D01*
X6122Y5591D02*
X6288Y5425D01*
X6122Y5340D02*
X6163Y5299D01*
X6122Y5259D02*
Y5768D01*
X4923Y6427D02*
X5165Y6669D01*
X4923Y6288D02*
X5202Y6010D01*
X4923Y6677D02*
X5138Y6892D01*
X4923Y6211D02*
Y7411D01*
X5138Y5256D02*
Y5768D01*
X4905Y5156D02*
X5138Y5388D01*
X4863Y5346D02*
X4905Y5304D01*
X5210Y5000D01*
X5374Y4836D02*
X5534Y4676D01*
X5873Y4621D02*
Y4828D01*
X4905Y5054D02*
X5357Y4602D01*
X4905Y4404D02*
X5351Y4850D01*
X5684Y4682D02*
X5794Y4792D01*
X5692Y4768D02*
X5809Y4651D01*
X5348Y4596D02*
X5526Y4775D01*
X4905Y4905D02*
X5149Y5149D01*
X4905Y4655D02*
X5226Y4975D01*
X4905Y4905D02*
X5149Y5149D01*
X4905Y4182D02*
Y5346D01*
Y4302D02*
X5138Y4069D01*
Y3723D02*
Y4193D01*
X4905Y4803D02*
X5229Y4479D01*
X4905Y4553D02*
X5151Y4307D01*
X4750Y6211D02*
X5141Y5820D01*
X4500Y6211D02*
X5138Y5573D01*
X4344Y5346D02*
X5396Y6398D01*
X4093Y5346D02*
X5257Y6510D01*
X4249Y6211D02*
X5138Y5322D01*
X4594Y5346D02*
X5159Y5911D01*
X4845Y5346D02*
X5138Y5639D01*
X4423Y6211D02*
X4923D01*
X4405Y5346D02*
X4905D01*
X4372Y6211D02*
X4423D01*
X4372D02*
X4423D01*
X3999D02*
X4863Y5346D01*
X4478Y3727D02*
X5227Y4475D01*
X4775Y4182D02*
X5138Y3819D01*
X4525Y4182D02*
X5060Y3646D01*
X4405Y4182D02*
X4905D01*
X4478Y3977D02*
X4683Y4182D01*
X4478Y3977D02*
X4935Y3521D01*
X4478Y3483D02*
Y4155D01*
X3985D02*
X4478D01*
Y3727D02*
X4810Y3395D01*
X4274Y4182D02*
X4300Y4155D01*
X4406D02*
X4432Y4182D01*
X4024D02*
X4050Y4155D01*
X4155D02*
X4182Y4182D01*
X4155Y4155D02*
X4182Y4182D01*
X6043Y3414D02*
X6220Y3237D01*
X6083Y3386D02*
X6220D01*
X5975Y2969D02*
X6220Y3214D01*
X5922Y3285D02*
X6220Y2987D01*
X5752Y3204D02*
X6220Y2736D01*
X6122Y2584D02*
X6220Y2486D01*
X6122Y2364D02*
X6220Y2462D01*
X6078Y2821D02*
X6220Y2963D01*
X6122Y2614D02*
X6220Y2713D01*
X6083Y3386D02*
Y3488D01*
X5826Y3070D02*
X6142Y3386D01*
X5213Y3242D02*
X5402Y3054D01*
X5616Y3110D02*
X5699Y3194D01*
X5500Y3207D02*
X5597Y3109D01*
X5088Y3117D02*
X5261Y2944D01*
X6122Y2113D02*
X6220Y2212D01*
X6122Y2334D02*
X6220Y2235D01*
Y2089D02*
Y3386D01*
X6122Y2084D02*
X6168Y2037D01*
X6103Y1972D02*
X6220Y2089D01*
X5864Y1339D02*
X6275Y928D01*
X5709Y197D02*
X6261Y749D01*
X5614Y1339D02*
X6268Y685D01*
X5113Y1339D02*
X6254Y197D01*
X6122Y2106D02*
Y2618D01*
X5138Y2106D02*
Y2618D01*
X4989Y1732D02*
X5175Y1918D01*
X5240Y1732D02*
X5274Y1766D01*
X4751Y2746D02*
X5311Y3306D01*
X4963Y2992D02*
X5168Y2787D01*
X4854Y2599D02*
X5470Y3216D01*
X4388Y2974D02*
X5138Y3723D01*
X4732Y2761D02*
X5293Y3322D01*
X4963Y2992D02*
X5168Y2787D01*
X4845Y2340D02*
X5138Y2633D01*
X4838Y2866D02*
X5138Y2566D01*
X4472Y3483D02*
X4685Y3270D01*
X4472Y3483D02*
X4685Y3270D01*
X3985Y3483D02*
X4478D01*
X4221D02*
X4559Y3145D01*
X4331Y2767D02*
Y2835D01*
X3985Y3469D02*
X4434Y3019D01*
X4744Y2208D02*
X5220Y1732D01*
X4361Y1339D02*
X5503Y197D01*
X4110Y1339D02*
X5252Y197D01*
X4206D02*
X5347Y1339D01*
X4707Y197D02*
X5848Y1339D01*
X4862D02*
X6004Y197D01*
X4456D02*
X5598Y1339D01*
X4612D02*
X5753Y197D01*
X4854Y2599D02*
X5138Y2316D01*
X4851Y2352D02*
X5140Y2063D01*
X4488Y1732D02*
X5138Y2382D01*
X4567Y2135D02*
X4969Y1732D01*
X4739D02*
X5138Y2131D01*
X3987Y1732D02*
X4409Y2154D01*
X4238Y1732D02*
X4668Y2163D01*
X3929Y15551D02*
X4037Y15443D01*
X3918D02*
X4026Y15551D01*
X3963Y15443D02*
X4411D01*
X3463D02*
X3911D01*
X3678Y15551D02*
X3786Y15443D01*
X3911D02*
X3963D01*
X3979Y13580D02*
X4306Y13907D01*
X3911Y15443D02*
X3963D01*
X3427Y15551D02*
X3536Y15443D01*
X3667D02*
X3775Y15551D01*
X2926D02*
X3035Y15443D01*
X3417D02*
X3525Y15551D01*
X3411Y15443D02*
X3463D01*
X3411D02*
X3463D01*
X3166D02*
X3274Y15551D01*
X3177D02*
X3285Y15443D01*
X3875Y13396D02*
X4387Y13907D01*
X3932Y13544D02*
X4098Y13378D01*
X3243Y13514D02*
X3819D01*
X3711D02*
X3829Y13396D01*
X3963Y13378D02*
X4430D01*
X3955Y8465D02*
X5211Y9721D01*
X3463Y13396D02*
X3963D01*
X3930Y13378D02*
X3963D01*
X3460Y13514D02*
X3579Y13396D01*
X3624D02*
X3742Y13514D01*
X3125Y13396D02*
X3243Y13514D01*
X3374Y13396D02*
X3492Y13514D01*
X3411Y13396D02*
X3463D01*
X3411D02*
X3463D01*
X3125D02*
X3411D01*
X3227Y13497D02*
X3328Y13396D01*
X2911Y15443D02*
X3411D01*
X2915D02*
X3024Y15551D01*
X2676D02*
X2911Y15316D01*
X1022Y15551D02*
X7677D01*
X2598Y15376D02*
X2773Y15551D01*
X2871Y15148D02*
X2911Y15188D01*
Y15148D02*
Y15443D01*
X2598Y15148D02*
X2911D01*
X2598Y15378D02*
X2829Y15148D01*
X2425Y15551D02*
X2503Y15473D01*
X2445D02*
X2523Y15551D01*
X2175D02*
X2252Y15473D01*
X2194D02*
X2272Y15551D01*
X1924D02*
X2002Y15473D01*
X1969D02*
X2598D01*
X1793Y15323D02*
X2022Y15551D01*
X1793Y15432D02*
X1969Y15256D01*
X2620Y15148D02*
X2911Y15439D01*
X2598Y15148D02*
Y15473D01*
X2032Y14478D02*
X2057Y14503D01*
X1969Y14529D02*
X2057D01*
X1951Y14478D02*
X2001Y14529D01*
X2559Y9272D02*
Y9602D01*
X1732Y14478D02*
X2032D01*
X1135Y10327D02*
X2095Y9367D01*
X1793Y15072D02*
X1969Y15248D01*
Y14529D02*
Y15473D01*
X1793Y15181D02*
X1969Y15006D01*
X1793Y14821D02*
X1969Y14997D01*
X1793Y14931D02*
X1969Y14755D01*
X1793Y14571D02*
X1969Y14747D01*
X1793Y14680D02*
X1995Y14478D01*
X1752Y9519D02*
X1881Y9648D01*
X3842Y8622D02*
X4000Y8465D01*
X3341Y8622D02*
X3667Y8296D01*
X3321Y8081D02*
X3862Y8622D01*
X3878Y8465D02*
X4902D01*
X3592Y8622D02*
X3775Y8439D01*
X3583Y8228D02*
X3661D01*
X3583Y8091D02*
Y8228D01*
X3091Y8622D02*
X3583Y8130D01*
X2840Y8622D02*
X3372Y8090D01*
X3384Y8091D02*
X3583D01*
X2995Y7791D02*
X3230Y8027D01*
X3554Y7657D02*
X3583Y7629D01*
X3474Y7657D02*
X3583D01*
Y7520D02*
Y7657D01*
X3364Y7548D02*
X3474Y7657D01*
X3403Y7411D02*
X3583Y7591D01*
X3653Y7411D02*
X3761Y7520D01*
X3943D02*
X4051Y7411D01*
X3583Y7520D02*
X4173D01*
X3423Y7411D02*
X3872D01*
X2931D02*
Y7638D01*
X3364Y7411D02*
Y7548D01*
X3372Y7411D02*
X3423D01*
X3372D02*
X3423D01*
X2872D02*
X2931D01*
X2902D02*
X2931Y7441D01*
X2530Y9295D02*
X2559Y9324D01*
X2718Y8406D02*
Y8660D01*
X2361Y9377D02*
X2559Y9574D01*
X2835Y8622D02*
X3937D01*
X2718Y8481D02*
X2859Y8622D01*
X2652Y8164D02*
X3110Y8622D01*
X2436Y9527D02*
X2559Y9404D01*
X2224Y9489D02*
X2329Y9384D01*
X2104Y9370D02*
X2223Y9489D01*
X1752Y9268D02*
X2024Y9540D01*
X1752Y9460D02*
X1935Y9277D01*
X2718Y8494D02*
X3208Y8004D01*
X2620Y7631D02*
X3611Y8622D01*
X2488Y7749D02*
X3361Y8622D01*
X2697Y8264D02*
X3082Y7879D01*
X2703Y7463D02*
X2941Y7701D01*
X2608Y8102D02*
X2962Y7749D01*
X2471Y7989D02*
X2931Y7529D01*
X2301Y7813D02*
X2485Y7998D01*
X1752Y8207D02*
X2151Y7807D01*
X1752Y7765D02*
X1991Y8005D01*
X2277Y7933D02*
X2432Y7778D01*
X1957Y7720D02*
X2174Y7937D01*
X1752Y7956D02*
X1975Y7733D01*
X1752Y7515D02*
X1867Y7629D01*
X1675Y15455D02*
X1771Y15551D01*
X1674D02*
X1769Y15455D01*
X1793Y15432D01*
X1199Y15455D02*
X1793D01*
X1425D02*
X1520Y15551D01*
X1769Y14547D02*
X1793Y14571D01*
Y14547D02*
Y15455D01*
X1199Y14547D02*
X1793D01*
X1423Y15551D02*
X1519Y15455D01*
X1199Y15318D02*
Y15455D01*
X1173Y15551D02*
X1268Y15455D01*
X1140Y15421D02*
X1270Y15551D01*
X1163Y14693D02*
X1199Y14729D01*
Y14547D02*
Y14761D01*
X1698Y14476D02*
X1769Y14547D01*
X1676D02*
X1744Y14478D01*
X1425Y14547D02*
X1566Y14406D01*
X1107Y14614D02*
X1441Y14280D01*
X1454Y14294D02*
X1572Y14412D01*
X1134Y13836D02*
X1388Y13582D01*
Y11299D02*
Y14134D01*
X1123Y13901D02*
X1390Y14168D01*
X1123Y13400D02*
X1388Y13665D01*
X1134Y13335D02*
X1388Y13081D01*
X1134Y12834D02*
X1388Y12580D01*
X1123Y12899D02*
X1388Y13164D01*
X1124Y12398D02*
X1388Y12663D01*
X978Y14493D02*
X1388Y14083D01*
X1030Y14059D02*
X1518Y14547D01*
X869Y14148D02*
X1268Y14547D01*
X1031Y13559D02*
X1388Y13915D01*
X812Y14408D02*
X1388Y13833D01*
X600Y14370D02*
X813Y14157D01*
X264Y14455D02*
X610Y14109D01*
X197Y14228D02*
X375Y14406D01*
X197Y13727D02*
X937Y14467D01*
X197Y14021D02*
X442Y13777D01*
X197Y13771D02*
X485Y13483D01*
X197Y14272D02*
X486Y13983D01*
X197Y13977D02*
X590Y14370D01*
X1032Y13058D02*
X1388Y13414D01*
X1086Y13633D02*
X1388Y13332D01*
X1086Y13133D02*
X1388Y12830D01*
X1032Y12558D02*
X1388Y12913D01*
X1085Y12632D02*
X1388Y12329D01*
X197Y13225D02*
X539Y13567D01*
X197Y13476D02*
X450Y13729D01*
X197Y13141D02*
Y14498D01*
Y13270D02*
X261Y13205D01*
X197Y13520D02*
X387Y13331D01*
X197Y13141D02*
X450Y13394D01*
X1454Y11139D02*
X1730Y10864D01*
X1135Y10656D02*
X1536Y11057D01*
X1134Y11330D02*
X1788Y10677D01*
X1135Y10405D02*
X1661Y10932D01*
X1192Y10212D02*
X1797Y10817D01*
X1134Y12332D02*
X1388Y12079D01*
X1134Y11831D02*
X1388Y11578D01*
X1124Y11898D02*
X1388Y12161D01*
X1124Y11397D02*
X1388Y11660D01*
X1135Y10270D02*
Y10659D01*
X1124Y10896D02*
X1417Y11188D01*
X1100Y10659D02*
X1135D01*
X1752Y9209D02*
X1824Y9137D01*
X1752Y9018D02*
X1791Y9057D01*
X1770Y8406D02*
Y8917D01*
X1318Y10087D02*
X1753Y10522D01*
X1693Y9711D02*
X1785Y9803D01*
X1752Y7706D02*
X1851Y7607D01*
X1752Y7455D02*
X1778Y7429D01*
X1752Y8266D02*
X1783Y8297D01*
X1752Y8016D02*
X1862Y8125D01*
X1752Y9980D02*
Y10492D01*
X1443Y9962D02*
X1752Y10271D01*
X1134Y10829D02*
X1752Y10211D01*
X1135Y10578D02*
X1752Y9960D01*
X1568Y9836D02*
X1752Y10020D01*
X1135Y10270D02*
X1688Y9716D01*
X1085Y12131D02*
X1388Y11828D01*
X1033Y12057D02*
X1388Y12412D01*
X1033Y11556D02*
X1388Y11911D01*
X1084Y11631D02*
X1388Y11327D01*
X1084Y11130D02*
X1752Y10462D01*
X1034Y11056D02*
X1388Y11410D01*
X829Y9964D02*
X1319Y9473D01*
X531Y9802D02*
X693Y9964D01*
X531D02*
X829D01*
X531Y9551D02*
X886Y9906D01*
X747Y9964D02*
X1319Y9392D01*
X531Y9929D02*
X1319Y9141D01*
X531Y9678D02*
X1319Y8891D01*
X531Y9427D02*
X1319Y8640D01*
X531Y8299D02*
X1319Y9086D01*
X531Y7797D02*
X1319Y8585D01*
X531Y8549D02*
X1319Y9336D01*
X531Y9177D02*
X1319Y8389D01*
X531Y8800D02*
X1262Y9530D01*
X531Y8926D02*
X1319Y8139D01*
X531Y9301D02*
X1011Y9781D01*
X531Y9050D02*
X1137Y9655D01*
X531Y8425D02*
X1319Y7638D01*
X531Y7547D02*
X1319Y8334D01*
X531Y8048D02*
X1319Y8835D01*
X531Y8676D02*
X1319Y7888D01*
X3904Y7411D02*
X4012Y7520D01*
X3872Y7411D02*
X3923D01*
X4372D01*
X3872D02*
X3923D01*
X3861Y5364D02*
X4707Y6211D01*
X3872D02*
X3923D01*
X4372D01*
X3423D02*
X3872D01*
X3923D01*
X3389Y7573D02*
X3550Y7411D01*
X3692Y7520D02*
X3800Y7411D01*
X2872Y7382D02*
X2902Y7411D01*
X2872Y6211D02*
Y7411D01*
X3372Y6211D02*
X3423D01*
X3372D02*
X3423D01*
X2872D02*
X3372D01*
X2997D02*
X3843Y5364D01*
X3748Y6211D02*
X4613Y5346D01*
X3610Y5364D02*
X4457Y6211D01*
X3498D02*
X4362Y5346D01*
X3360Y5364D02*
X4206Y6211D01*
X3247D02*
X4112Y5346D01*
X3923Y4173D02*
X3985D01*
X3924Y4155D02*
X3985D01*
X3923Y5346D02*
X4390D01*
X3923Y4182D02*
X4390D01*
X3372Y5364D02*
X3423D01*
X3923D01*
X3109D02*
X3956Y6211D01*
X3372Y5364D02*
X3423D01*
X3890Y5346D02*
X3923D01*
X2872Y4757D02*
Y5364D01*
X3372D01*
X2812Y4817D02*
X2872Y4876D01*
X2718Y6977D02*
X2872Y7131D01*
X2718Y7241D02*
X2872Y7087D01*
X2718Y6990D02*
X2872Y6836D01*
X2679Y7530D02*
X2872Y7337D01*
X2718Y7228D02*
X2872Y7382D01*
X2703Y6712D02*
X2872Y6881D01*
X2711Y6747D02*
X2872Y6586D01*
X2639Y6568D02*
X2872Y6335D01*
X2699Y5956D02*
X2953Y6211D01*
X2718Y6831D02*
Y7343D01*
X2454Y6213D02*
X2872Y6630D01*
X2600Y6108D02*
X2872Y6380D01*
X2251Y6260D02*
X2363Y6372D01*
X2340Y6366D02*
X2568Y6139D01*
X2736Y5492D02*
X3455Y6211D01*
X2736Y5743D02*
X3204Y6211D01*
X2736Y5242D02*
X3705Y6211D01*
X2515Y6442D02*
X3593Y5364D01*
X2615Y6091D02*
X3342Y5364D01*
X2736Y5719D02*
X3091Y5364D01*
X2752Y4877D02*
X2872Y4757D01*
X2736Y5469D02*
X2872Y5333D01*
X2673Y4928D02*
X2872Y5127D01*
X2736Y5256D02*
Y5768D01*
X2735Y5220D02*
X2872Y5082D01*
X2735Y5220D02*
X2872Y5082D01*
X2679Y5025D02*
X2872Y4832D01*
X3738Y3465D02*
X4334Y2869D01*
X3924Y3483D02*
X3985D01*
X3488Y3465D02*
X4256Y2697D01*
X3148Y3604D02*
X3394D01*
X3089Y3612D02*
X4182Y2519D01*
X3394Y3465D02*
X3985D01*
X2736Y2486D02*
X3715Y3465D01*
X2736Y2235D02*
X3966Y3465D01*
X2736Y2462D02*
X3466Y1732D01*
X2736Y3738D02*
X2830Y3832D01*
X2736Y3681D02*
Y3926D01*
X2994Y3668D01*
X3348Y3604D02*
X3394Y3558D01*
Y3465D02*
Y3604D01*
X2736Y2106D02*
Y2618D01*
X2985Y1732D02*
X5138Y3885D01*
X3860Y1339D02*
X5002Y197D01*
X3955D02*
X5097Y1339D01*
X2734Y1732D02*
X5138Y4136D01*
X2736Y3715D02*
X4719Y1732D01*
X3609Y1339D02*
X4751Y197D01*
X3705D02*
X4846Y1339D01*
X3359D02*
X4501Y197D01*
X3454D02*
X4596Y1339D01*
X3486Y1732D02*
X4184Y2430D01*
X3737Y1732D02*
X4261Y2257D01*
X2736Y2212D02*
X3216Y1732D01*
X3236D02*
X4331Y2827D01*
X3108Y1339D02*
X4250Y197D01*
X3203D02*
X4345Y1339D01*
X2858D02*
X3999Y197D01*
X2953D02*
X4095Y1339D01*
X2725Y2725D02*
X3465Y3465D01*
X2725Y2725D02*
X3465Y3465D01*
X2715Y1963D02*
X4234Y3483D01*
X2648Y2899D02*
X3354Y3604D01*
X2701Y3499D02*
X4468Y1732D01*
X2604Y3346D02*
X4218Y1732D01*
X2725Y2724D02*
X3717Y1732D01*
X2460Y3239D02*
X3967Y1732D01*
X2564D02*
X5310D01*
X2647Y3399D02*
X2955Y3707D01*
X2523Y3024D02*
X3107Y3608D01*
X2348Y3099D02*
X2526Y3278D01*
X2719Y1978D02*
X2965Y1732D01*
X2260Y3189D02*
X2350Y3099D01*
X2357Y1339D02*
X3498Y197D01*
X2452D02*
X3594Y1339D01*
X2106D02*
X3248Y197D01*
X2201D02*
X3343Y1339D01*
X2607D02*
X3749Y197D01*
X2702D02*
X3844Y1339D01*
X1693D02*
X5945D01*
X197Y197D02*
X6614D01*
X2637Y1810D02*
X2715Y1732D01*
X1855Y1339D02*
X2997Y197D01*
X531Y2161D02*
X2496Y197D01*
X531Y2412D02*
X2747Y197D01*
X1700D02*
X2842Y1339D01*
X1951Y197D02*
X3092Y1339D01*
X1199Y197D02*
X2341Y1339D01*
X1450Y197D02*
X2591Y1339D01*
X1752Y6262D02*
X1949Y6459D01*
X1752Y6453D02*
X2006Y6199D01*
X2063Y6393D02*
X2198Y6258D01*
X1752Y6011D02*
X2115Y6375D01*
X1752Y6203D02*
X1869Y6086D01*
X1752Y6203D02*
X1869Y6086D01*
X531Y7924D02*
X1319Y7137D01*
X531Y7046D02*
X1319Y7833D01*
X531Y8175D02*
X1319Y7387D01*
X531Y7296D02*
X1319Y8084D01*
X1770Y6831D02*
Y7343D01*
X1752Y6704D02*
X1806Y6650D01*
X1752Y6512D02*
X1833Y6594D01*
X1752Y5952D02*
X1778Y5926D01*
X1752Y5256D02*
Y5768D01*
X1383Y4965D02*
X1776Y4572D01*
X1560Y3314D02*
X1776Y3530D01*
X1228Y3733D02*
X1757Y4262D01*
X1533Y3537D02*
X1752Y3756D01*
X1752Y5208D02*
Y9563D01*
X1319Y5118D02*
Y9473D01*
X531Y1664D02*
Y9964D01*
X1752Y3681D02*
Y4193D01*
X1417Y3672D02*
X1752Y4007D01*
X531Y6421D02*
X1319Y5633D01*
X531Y5793D02*
X1319Y6580D01*
X531Y5542D02*
X1319Y6330D01*
X531Y6044D02*
X1319Y6831D01*
X531Y6671D02*
X1319Y5884D01*
X531Y5920D02*
X1319Y5132D01*
X531Y5041D02*
X1319Y5829D01*
X531Y6170D02*
X1319Y5383D01*
X531Y5292D02*
X1319Y6079D01*
X531Y7423D02*
X1319Y6636D01*
X531Y7423D02*
X1319Y6636D01*
X531Y7674D02*
X1319Y6886D01*
X531Y6795D02*
X1319Y7583D01*
X531Y6294D02*
X1319Y7082D01*
X531Y6922D02*
X1319Y6135D01*
X531Y6545D02*
X1319Y7332D01*
X531Y7172D02*
X1319Y6385D01*
X531Y5168D02*
X1752Y3948D01*
X531Y4039D02*
X1420Y4927D01*
X531Y4918D02*
X1752Y3697D01*
X531Y5669D02*
X1799Y4402D01*
X531Y5419D02*
X1752Y4198D01*
X531Y3288D02*
X1797Y4553D01*
X531Y4667D02*
X2108Y3091D01*
X531Y3789D02*
X1545Y4802D01*
X531Y3538D02*
X1670Y4677D01*
X531Y4290D02*
X1322Y5080D01*
X531Y4416D02*
X1215Y3733D01*
X531Y4791D02*
X1319Y5578D01*
X531Y4540D02*
X1319Y5328D01*
X531Y3665D02*
X880Y3316D01*
X531Y3414D02*
X1024Y2922D01*
X531Y4166D02*
X1025Y3673D01*
X531Y3915D02*
X908Y3538D01*
X2080Y3082D02*
X2190Y3192D01*
X1568Y3380D02*
X1942Y3006D01*
X1507Y3190D02*
X1824Y2874D01*
X1417Y2921D02*
X1865Y3368D01*
X1417Y2670D02*
X2001Y3253D01*
X1417Y2278D02*
X1799Y1896D01*
X1628Y1879D02*
X1761Y2012D01*
X1417Y3029D02*
X1757Y2690D01*
X1417Y2420D02*
X1780Y2782D01*
X1417Y2089D02*
Y3100D01*
Y2779D02*
X1752Y2444D01*
X1024Y2008D02*
Y3100D01*
X1752Y2106D02*
Y2618D01*
X1503Y2004D02*
X1752Y2253D01*
X1417Y2528D02*
X1752Y2194D01*
X1417Y2169D02*
X1752Y2504D01*
X1753Y1753D02*
X1834Y1834D01*
X1753Y1753D02*
X1834Y1834D01*
X1774Y1732D02*
X1924D01*
X1417Y2089D02*
X1774Y1732D01*
X1208Y734D02*
X1744Y197D01*
X1251Y941D02*
X1995Y197D01*
X1081Y1869D02*
X1554Y1396D01*
X992Y1242D02*
X1350Y1600D01*
X1151Y1151D02*
X1475Y1475D01*
X1242Y992D02*
X1608Y1358D01*
X1151Y1151D02*
X1475Y1475D01*
X1084Y607D02*
X1494Y197D01*
X531Y2285D02*
X1024Y2777D01*
X531Y2913D02*
X1024Y2421D01*
X531Y2663D02*
X1024Y2170D01*
X531Y3164D02*
X1024Y2672D01*
X531Y2536D02*
X1024Y3028D01*
X847Y1349D02*
X1224Y1726D01*
X531Y2035D02*
X1024Y2527D01*
X722Y1474D02*
X1099Y1851D01*
X531Y1784D02*
X1024Y2276D01*
X597Y1599D02*
X1024Y2026D01*
X531Y3037D02*
X873Y3379D01*
X531Y2786D02*
X934Y3189D01*
X531Y1664D02*
X945Y1251D01*
X197Y1387D02*
X574Y1010D01*
X197Y1199D02*
X291Y1293D01*
X197Y949D02*
X416Y1168D01*
X698Y197D02*
X1840Y1339D01*
X949Y197D02*
X2090Y1339D01*
X531Y1911D02*
X2246Y197D01*
X447D02*
X819Y569D01*
X881Y559D02*
X1243Y197D01*
X197Y993D02*
X993Y197D01*
X197Y742D02*
X742Y197D01*
X197Y698D02*
X541Y1042D01*
X197Y447D02*
X569Y819D01*
X197Y1243D02*
X559Y881D01*
X197Y197D02*
Y1387D01*
Y492D02*
X492Y197D01*
X197Y241D02*
X241Y197D01*
X197D02*
X660Y660D01*
X197Y197D02*
X660Y660D01*
X13740Y14370D02*
X14252Y14882D01*
X13740Y13228D02*
Y14370D01*
X13386Y12874D02*
X13740Y13228D01*
X15315Y11942D02*
Y12835D01*
X15157Y12992D02*
X15315Y12835D01*
X15157Y12992D02*
Y13346D01*
X14961Y11588D02*
X15315Y11942D01*
X14803Y14242D02*
Y14594D01*
X14695Y14134D02*
X14803Y14242D01*
X14764Y14724D02*
X14803Y14594D01*
X14252Y14882D02*
Y15157D01*
X15512Y11075D02*
Y14006D01*
X15384Y14134D02*
X15512Y14006D01*
X14961Y10524D02*
X15512Y11075D01*
X12205Y13543D02*
X12311Y13650D01*
X10236Y13543D02*
X12205D01*
X9291Y12598D02*
X10236Y13543D01*
X9291Y10276D02*
Y12598D01*
X10945Y15157D02*
X11311Y14791D01*
X9213Y15157D02*
X10945D01*
X9035Y14980D02*
X9213Y15157D01*
X12598Y1850D02*
Y2087D01*
X11575Y3110D02*
X12598Y2087D01*
X13543Y1142D02*
X13583Y1181D01*
X12598Y1850D02*
X13346Y1102D01*
X13583D01*
X10404Y6959D02*
Y7382D01*
Y6722D02*
Y6959D01*
X10512Y4488D02*
Y6614D01*
X10404Y6722D02*
X10512Y6614D01*
Y4488D02*
X11575Y3425D01*
Y3110D02*
Y3425D01*
X10709Y4646D02*
Y8858D01*
X9291Y10276D02*
X10709Y8858D01*
X9528Y11729D02*
X9806Y12008D01*
X9528Y10327D02*
Y11729D01*
Y10327D02*
X10866Y8989D01*
X9806Y12008D02*
X12244D01*
X11311Y14193D02*
Y14791D01*
X9035Y14646D02*
Y14980D01*
X12244Y12008D02*
X12311Y12075D01*
Y13650D02*
Y14193D01*
Y12075D02*
Y12657D01*
X12717Y11929D02*
X13150D01*
X12480Y11693D02*
X12717Y11929D01*
X11614Y11693D02*
X12480D01*
X9469Y14646D02*
Y14705D01*
X8504Y14213D02*
X8858D01*
X9035Y14390D01*
Y14646D01*
X13386Y12165D02*
Y12874D01*
X11811Y10945D02*
X12520D01*
X12638Y11063D01*
Y11575D02*
X12756Y11693D01*
X12638Y11063D02*
Y11575D01*
X12756Y11693D02*
X13750D01*
X10906Y11299D02*
X11978D01*
X10699Y11093D02*
X10906Y11299D01*
X10551Y11093D02*
X10699D01*
X10748Y10079D02*
X10906Y9921D01*
Y9843D02*
Y9921D01*
X3648Y6811D02*
X4148D01*
X3148Y4764D02*
X3648D01*
X8071Y13780D02*
X8504Y14213D01*
X8071Y5827D02*
Y13780D01*
X14803Y8140D02*
Y8465D01*
X8071Y5827D02*
X9262Y4636D01*
X14646Y6417D02*
Y7283D01*
X11299Y10179D02*
X11465Y10014D01*
X11417Y9528D02*
X12407D01*
X12490Y9611D01*
Y9945D01*
X12421Y10014D02*
X12490Y9945D01*
X11465Y10014D02*
X12421D01*
X12352Y8517D02*
X12795Y8073D01*
X11405Y8517D02*
X12352D01*
X11339Y8583D02*
X11405Y8517D01*
X11339Y8583D02*
Y9449D01*
X11417Y9528D01*
X8393Y8874D02*
X8661Y9143D01*
X8393Y5859D02*
X8642Y5610D01*
X8393Y5859D02*
Y8874D01*
X12795Y7992D02*
Y8073D01*
X11929Y10278D02*
X12640D01*
X12677Y10315D01*
X14606Y9669D02*
X14961Y10024D01*
X14606Y10169D02*
X14961Y10524D01*
X14606Y10000D02*
Y10169D01*
X14384Y9778D02*
X14606Y10000D01*
X14215Y9778D02*
X14384D01*
X10866Y4843D02*
Y8989D01*
X11614Y5630D02*
X12598Y4646D01*
X12835D01*
X13189Y7441D02*
Y8268D01*
X12679Y8778D02*
X13189Y8268D01*
X11772Y8778D02*
X12679D01*
X12244Y7165D02*
Y8189D01*
Y7165D02*
X12835Y6575D01*
X12008Y7179D02*
X12480Y6706D01*
X11772Y7756D02*
X12008Y7520D01*
Y7179D02*
Y7520D01*
X12835Y7087D02*
X13189Y7441D01*
X12480Y6417D02*
Y6706D01*
X12835Y6063D02*
Y6575D01*
X14961Y11524D02*
Y11588D01*
X9262Y6654D02*
Y7431D01*
X8701Y7992D02*
Y8386D01*
Y7992D02*
X9262Y7431D01*
X8661Y9143D02*
Y9331D01*
X14006Y1535D02*
Y1673D01*
Y1181D02*
Y1535D01*
X8642Y5610D02*
X9262D01*
X13750Y11693D02*
X13819Y11624D01*
Y12283D01*
Y10837D02*
X13898Y10915D01*
X13819Y10278D02*
Y10837D01*
X9262Y3150D02*
Y4636D01*
X13150Y11929D02*
X13386Y12165D01*
X9685Y6024D02*
X9813D01*
X9921Y4843D02*
X10039Y4961D01*
Y5797D01*
X9813Y6024D02*
X10039Y5797D01*
X10709Y4646D02*
X13228Y2126D01*
X13543D01*
X13583Y2165D01*
X10866Y4843D02*
X13150Y2559D01*
X13484D01*
X13583Y2657D01*
X14006Y1535D02*
X14921D01*
Y4626D01*
X14006D02*
X14921D01*
X1220Y2008D02*
X1693Y1535D01*
X1220Y2008D02*
Y3386D01*
X3648Y4764D02*
X3689Y4722D01*
X11624Y11135D02*
X11804Y10954D01*
Y10952D02*
Y10954D01*
Y10952D02*
X11811Y10945D01*
X11299Y10630D02*
X11496Y10827D01*
X11299Y10179D02*
Y10630D01*
X11024Y10827D02*
X11332Y11135D01*
X11624D01*
X10748Y10079D02*
Y10315D01*
X10915Y10404D02*
X11024Y10512D01*
X10551Y10404D02*
X10837D01*
X10915D01*
X10748Y10315D02*
X10837Y10404D01*
X11024Y10512D02*
Y10827D01*
X3687Y14843D02*
X4187D01*
X14606Y8661D02*
X14803Y8465D01*
X14593Y9278D02*
X14606Y9291D01*
X13976Y9278D02*
X14593D01*
X14606Y8661D02*
Y9291D01*
Y9669D01*
X5630Y10178D02*
X5784Y10024D01*
X7087D01*
X6850Y11024D02*
X7087D01*
X6063Y11811D02*
X6850Y11024D01*
X5630Y11811D02*
X6063D01*
X5945Y1535D02*
X6417Y2008D01*
X1693Y1535D02*
X5945D01*
X4528Y2835D02*
X5630Y3937D01*
X4528Y2480D02*
Y2835D01*
X6524Y10524D02*
X7087D01*
X5118Y11024D02*
X6024D01*
X6524Y10524D01*
X6417Y2008D02*
Y3701D01*
X6969Y3327D02*
X7205D01*
X6811Y3484D02*
X6969Y3327D01*
X6811Y3484D02*
Y4291D01*
X6378Y4724D02*
X6811Y4291D01*
X2756Y8898D02*
X2835Y8819D01*
X2756Y8898D02*
Y9724D01*
X2244Y10236D02*
X2756Y9724D01*
X4488Y10394D02*
X5118Y11024D01*
X2835Y8819D02*
X3937D01*
X4488Y9370D01*
Y10394D01*
X6070Y4928D02*
X6772Y5630D01*
Y6742D01*
X6070Y4481D02*
Y4928D01*
Y4481D02*
X6417Y4134D01*
Y3701D02*
Y4134D01*
D11*
X4648Y6811D02*
D03*
X4148D02*
D03*
X3648D02*
D03*
X4648Y4764D02*
D03*
X4148D02*
D03*
X3648D02*
D03*
X3148D02*
D03*
Y6811D02*
D03*
X4687Y14843D02*
D03*
X4187D02*
D03*
X3687D02*
D03*
X4687Y12795D02*
D03*
X4187D02*
D03*
X3687D02*
D03*
X3187D02*
D03*
Y14843D02*
D03*
D12*
X10811Y12657D02*
D03*
Y14193D02*
D03*
X11311Y12657D02*
D03*
Y14193D02*
D03*
X11811Y12657D02*
D03*
Y14193D02*
D03*
X12811Y12657D02*
D03*
Y14193D02*
D03*
X12311Y12657D02*
D03*
Y14193D02*
D03*
D13*
X9469Y14646D02*
D03*
X9035D02*
D03*
X14094Y7992D02*
D03*
X13543D02*
D03*
X10433Y8425D02*
D03*
X9882D02*
D03*
D14*
X13976Y10278D02*
D03*
Y9278D02*
D03*
Y9778D02*
D03*
Y8778D02*
D03*
X11929Y10278D02*
D03*
Y9778D02*
D03*
Y9278D02*
D03*
Y8778D02*
D03*
D15*
X14006Y5039D02*
D03*
Y2579D02*
D03*
Y2087D02*
D03*
Y4547D02*
D03*
Y1594D02*
D03*
Y610D02*
D03*
Y1102D02*
D03*
X9262Y6516D02*
D03*
Y6024D02*
D03*
Y5531D02*
D03*
Y3071D02*
D03*
Y2579D02*
D03*
D16*
X13583Y5039D02*
D03*
X10404Y6959D02*
D03*
X13583Y4547D02*
D03*
Y2579D02*
D03*
Y2087D02*
D03*
Y1594D02*
D03*
Y1102D02*
D03*
Y610D02*
D03*
X9911Y6959D02*
D03*
X9685Y6516D02*
D03*
Y6024D02*
D03*
Y5531D02*
D03*
Y2579D02*
D03*
Y3071D02*
D03*
D17*
X10404Y7382D02*
D03*
X9911D02*
D03*
D18*
X2283Y15001D02*
D03*
X1496D02*
D03*
D19*
X4685Y12028D02*
D03*
Y11516D02*
D03*
D20*
X15236Y14685D02*
D03*
X14843D02*
D03*
X15039Y6417D02*
D03*
X14646D02*
D03*
D21*
X4201Y3819D02*
D03*
X3689D02*
D03*
X4390Y7874D02*
D03*
X3878D02*
D03*
D22*
X14921Y5157D02*
D03*
Y4606D02*
D03*
X14921Y1535D02*
D03*
Y984D02*
D03*
D23*
X3386Y11171D02*
D03*
Y9469D02*
D03*
D24*
X13100Y11299D02*
D03*
X12175D02*
D03*
D25*
X7205Y4075D02*
D03*
Y3327D02*
D03*
X6417Y3701D02*
D03*
D26*
X6772Y7431D02*
D03*
Y6742D02*
D03*
X14803Y8140D02*
D03*
Y7451D02*
D03*
X13898Y11604D02*
D03*
Y10915D02*
D03*
X10551Y11093D02*
D03*
Y10404D02*
D03*
D27*
X15423Y14016D02*
D03*
X14734D02*
D03*
D28*
X591Y15039D02*
D03*
X6929Y787D02*
D03*
X13150Y15315D02*
D03*
X8465Y669D02*
D03*
D29*
X15236Y14685D02*
Y14883D01*
Y14685D02*
X15454D01*
X14961Y9023D02*
X15251D01*
X14961Y9523D02*
X15251D01*
X14961Y8733D02*
Y9023D01*
X14094Y7992D02*
Y8269D01*
Y7715D02*
Y7992D01*
X15039Y6417D02*
Y6616D01*
Y6417D02*
X15257D01*
X15039Y6219D02*
Y6417D01*
X14921Y5157D02*
Y5415D01*
X14644Y5157D02*
X14921D01*
X15198D01*
X14921Y984D02*
X15198D01*
X14921Y727D02*
Y984D01*
X14644D02*
X14921D01*
X14006Y5039D02*
X14529D01*
X14006D02*
Y5307D01*
X13315Y5039D02*
X13583D01*
Y5307D01*
X14006Y610D02*
X14529D01*
X14006Y343D02*
Y610D01*
X13315D02*
X13583D01*
Y343D02*
Y610D01*
X12811Y14193D02*
X13061D01*
X12811Y13620D02*
Y14193D01*
X11386Y9778D02*
X11929D01*
X9882Y8425D02*
Y8702D01*
X9624Y8425D02*
X9882D01*
Y8148D02*
Y8425D01*
X9644Y7382D02*
X9911D01*
Y7905D01*
X9644Y6959D02*
X9911D01*
X9685Y2579D02*
X9952D01*
X8739D02*
X9262D01*
X6797Y9524D02*
X7087D01*
X6797Y9024D02*
X7087D01*
X4187Y12795D02*
Y13338D01*
X4687Y12795D02*
X4905D01*
X4687D02*
Y13338D01*
X4390Y7874D02*
X4628D01*
X4390Y7577D02*
Y7874D01*
X7205Y4075D02*
X7482D01*
X7205D02*
Y4332D01*
Y3817D02*
Y4075D01*
X4648Y4764D02*
Y5307D01*
Y4764D02*
X4866D01*
X4648Y4221D02*
Y4764D01*
X4148D02*
Y5307D01*
Y4221D02*
Y4764D01*
X4201Y3819D02*
X4439D01*
X4201Y3522D02*
Y3819D01*
Y4116D01*
X2244Y8661D02*
X2679D01*
X1809D02*
X2244D01*
Y9352D01*
Y7971D02*
Y8661D01*
X1496Y15001D02*
X1754D01*
X1496D02*
Y15416D01*
Y14586D02*
Y15001D01*
X2244Y7087D02*
X2679D01*
X2244D02*
Y7777D01*
X1809Y7087D02*
X2244D01*
Y6396D02*
Y7087D01*
D30*
X13431Y14289D02*
Y14612D01*
X13335Y14193D02*
X13431Y14289D01*
Y14612D02*
X13819Y15000D01*
X15197Y14724D02*
X15236Y14764D01*
X15046Y15505D02*
X15315Y15236D01*
X14002Y15505D02*
X15046D01*
X13819Y15322D02*
X14002Y15505D01*
X13819Y15000D02*
Y15322D01*
X12677Y13307D02*
X12811Y13173D01*
X10433Y13307D02*
X12677D01*
X10236Y13110D02*
X10433Y13307D01*
X10236Y12756D02*
Y13110D01*
X9055Y13425D02*
X9528D01*
X9055Y10197D02*
X10433Y8819D01*
X9055Y13425D02*
Y13898D01*
Y10311D02*
Y13425D01*
Y10197D02*
Y10311D01*
X8661D02*
X9055D01*
X11880Y915D02*
Y2476D01*
X11797Y2559D02*
X11880Y2476D01*
X9783Y2559D02*
X11797D01*
X10319D02*
Y4116D01*
X10226Y4208D02*
X10319Y4116D01*
X10226Y4208D02*
Y6545D01*
X9911Y6860D02*
X10226Y6545D01*
X10433Y7677D02*
Y8819D01*
X12811Y12657D02*
Y13173D01*
X9469Y14311D02*
Y14646D01*
X9055Y13898D02*
X9469Y14311D01*
X10811Y14193D02*
Y14740D01*
X10669Y14882D02*
X10811Y14740D01*
X9646Y14882D02*
X10669D01*
X9469Y14705D02*
X9646Y14882D01*
X11417Y9778D02*
X11772D01*
X11063Y9424D02*
X11417Y9778D01*
X11063Y8228D02*
Y9424D01*
X15315Y7795D02*
Y9252D01*
X15043Y9524D02*
X15315Y9252D01*
Y5157D02*
Y7795D01*
X14065Y630D02*
X14921D01*
X14006Y689D02*
X14065Y630D01*
X13524Y630D02*
X13583Y689D01*
X9243Y2639D02*
X9262Y2657D01*
X8661Y2639D02*
X9243D01*
X8504Y2795D02*
X8661Y2639D01*
X15039Y6417D02*
X15276D01*
X14764Y5157D02*
X15315D01*
X11063Y8228D02*
X11319D01*
X11063Y5039D02*
Y8228D01*
Y5039D02*
X12047Y4055D01*
X13268Y4213D02*
Y4961D01*
X12047Y4055D02*
X13110D01*
X13268Y4213D01*
X14724Y5118D02*
X14764Y5157D01*
X14006Y5118D02*
X14724D01*
X1070Y508D02*
X1303Y741D01*
X468Y508D02*
X1070D01*
X783Y1590D02*
X1303Y1070D01*
X433Y472D02*
X468Y508D01*
X1303Y984D02*
X4606D01*
X1303Y741D02*
Y984D01*
Y1070D01*
X13061Y11181D02*
X13140Y11260D01*
X9685Y2657D02*
X9783Y2559D01*
X9911Y6860D02*
Y7037D01*
X13268Y4961D02*
X13346Y5039D01*
X13504D01*
X13583Y5118D01*
X11880Y915D02*
X12165Y630D01*
X13524D01*
X14094Y7992D02*
X14291Y7795D01*
X15315D01*
X315Y1575D02*
X945Y945D01*
X315Y1575D02*
Y12953D01*
X673Y13311D01*
X787D01*
X9882Y7717D02*
Y8425D01*
X4148Y4764D02*
X4648D01*
X4201Y3819D02*
X4724D01*
X5079Y4173D01*
X2795D02*
Y4528D01*
X2598Y4724D02*
X2795Y4528D01*
Y4173D02*
X3148Y3821D01*
X3687D01*
X3689Y3819D02*
Y4722D01*
X1929Y4724D02*
X2598D01*
X5079Y4173D02*
Y4764D01*
X4648D02*
X5079D01*
X6795Y12024D02*
X7087D01*
X3187Y12795D02*
X3687D01*
X4429Y11516D02*
X5020D01*
X7087Y12024D02*
X7150D01*
X6772Y8110D02*
X7431Y8770D01*
Y11742D01*
X7150Y12024D02*
X7431Y11742D01*
X5197Y12559D02*
X6260D01*
X6795Y12024D01*
X3148Y7638D02*
X3384Y7874D01*
X3148Y6811D02*
Y7638D01*
X6772Y7431D02*
Y7874D01*
Y8110D01*
X5276Y7874D02*
X6772D01*
X4724Y7874D02*
X5079Y7520D01*
X5079Y6299D02*
X5079Y6299D01*
X7205Y4075D02*
Y5630D01*
X7638Y6063D01*
X3189Y5787D02*
X5079D01*
X2244Y6732D02*
X3189Y5787D01*
X5079Y4764D02*
Y5787D01*
Y6299D02*
Y7520D01*
Y5787D02*
Y6299D01*
X6102D01*
X6260Y6457D01*
Y6969D01*
X6378Y7087D01*
X7628D01*
X7165Y7992D02*
X7638D01*
Y6063D02*
Y7992D01*
Y12717D01*
X3384Y7874D02*
X3878D01*
X4390D02*
X4724D01*
X3878D02*
Y8248D01*
X4902D01*
X5276Y7874D01*
X3687Y12258D02*
Y12795D01*
X783Y1590D02*
Y2677D01*
X3687Y12258D02*
X3819Y12126D01*
X4125D01*
X5020Y11516D02*
X5079Y11575D01*
Y12441D01*
X5197Y12559D01*
X4291Y11654D02*
X4429Y11516D01*
X4291Y11654D02*
Y11960D01*
X4125Y12126D02*
X4291Y11960D01*
X1535Y5118D02*
X1929Y4724D01*
X1535Y5118D02*
Y9563D01*
X787Y10311D02*
X1535Y9563D01*
D31*
X12811Y14193D02*
X13335D01*
X15236Y14764D02*
Y15157D01*
Y14685D02*
Y14764D01*
Y15157D02*
X15315Y15236D01*
X5551Y15472D02*
X6654Y14370D01*
X1693Y15472D02*
X5551D01*
X1496Y15276D02*
X1693Y15472D01*
X1614Y14134D02*
X1732Y14252D01*
X14921Y630D02*
Y984D01*
Y630D02*
X15039Y512D01*
X4187Y12795D02*
X4687D01*
X1496Y14921D02*
Y15276D01*
X1614Y11299D02*
Y14134D01*
X4646Y12028D02*
X4687Y12069D01*
Y12795D01*
X1732Y14252D02*
X2126D01*
X2283Y14409D01*
Y14921D01*
X3187Y14136D02*
X3228Y14094D01*
X3661D01*
X3187Y14136D02*
Y14843D01*
X2283Y14921D02*
X3187D01*
X4687Y12795D02*
Y13707D01*
X2795Y12323D02*
Y13386D01*
X6654Y13425D02*
X6929D01*
X7638Y12717D01*
X6654Y13425D02*
Y14370D01*
X2244Y7087D02*
Y8661D01*
X5630Y13386D02*
Y13740D01*
X2795Y13386D02*
X3150Y13740D01*
X4420Y13774D02*
X4921D01*
X4409Y13763D02*
X4420Y13774D01*
X7087Y9024D02*
Y9524D01*
X7087Y9024D02*
X7087Y9024D01*
X7012Y9449D02*
X7087Y9524D01*
X2244Y6732D02*
Y7087D01*
X6827Y12524D02*
X7087D01*
X5630Y13386D02*
X5965D01*
X6827Y12524D01*
X783Y4996D02*
X1024Y5236D01*
Y5630D01*
X783Y2677D02*
Y4996D01*
X3780Y9232D02*
X4055Y9508D01*
X2795Y12323D02*
X3268Y11850D01*
X3937D01*
X4055Y9508D02*
Y11732D01*
X3937Y11850D02*
X4055Y11732D01*
X1614Y11299D02*
X1890Y11024D01*
X3337D01*
X3425Y10935D01*
X3150Y13740D02*
X3819D01*
X4213Y14134D01*
X5236D01*
X5630Y13740D01*
X14961Y9023D02*
Y9523D01*
D32*
X14409Y11260D02*
X14528Y11378D01*
X11825Y9331D02*
X11929D01*
X12756Y9173D02*
X13061D01*
X12652Y9278D02*
X12756Y9173D01*
X11929Y9278D02*
X12652D01*
X12493Y5735D02*
X13334D01*
X13504Y5906D01*
X11614Y6614D02*
X12493Y5735D01*
X11772Y9278D02*
X11825Y9331D01*
X13140Y11260D02*
X14409D01*
X13061Y9173D02*
Y11181D01*
Y8750D02*
Y9173D01*
Y8750D02*
X13504Y8307D01*
Y5906D02*
Y8307D01*
X14528Y11378D02*
Y11591D01*
X14961Y12024D01*
D33*
X14961Y9523D02*
D03*
Y9023D02*
D03*
X14961Y11524D02*
D03*
Y12024D02*
D03*
Y10024D02*
D03*
Y11024D02*
D03*
Y10524D02*
D03*
X787Y13810D02*
D03*
X787Y11311D02*
D03*
Y11811D02*
D03*
Y10811D02*
D03*
Y13311D02*
D03*
Y12311D02*
D03*
Y12811D02*
D03*
X7087Y12024D02*
D03*
Y10024D02*
D03*
Y10524D02*
D03*
Y9524D02*
D03*
Y11024D02*
D03*
Y11524D02*
D03*
X7087Y9024D02*
D03*
X8661Y10811D02*
D03*
Y12311D02*
D03*
Y12811D02*
D03*
X8661Y13812D02*
D03*
Y13312D02*
D03*
X8661Y11811D02*
D03*
Y11311D02*
D03*
D34*
X14961Y12524D02*
D03*
X787Y10311D02*
D03*
X7087Y12524D02*
D03*
X8661Y10311D02*
D03*
D35*
X2244Y13386D02*
D03*
Y11811D02*
D03*
Y10236D02*
D03*
Y8661D02*
D03*
Y5512D02*
D03*
Y7087D02*
D03*
Y3937D02*
D03*
Y2362D02*
D03*
X5630Y13386D02*
D03*
Y11811D02*
D03*
Y10236D02*
D03*
Y8661D02*
D03*
Y7087D02*
D03*
Y5512D02*
D03*
Y3937D02*
D03*
Y2362D02*
D03*
D36*
X14446Y13110D02*
D03*
X14252Y15118D02*
D03*
X15157Y13346D02*
D03*
X10236Y12756D02*
D03*
X9528Y13425D02*
D03*
X11496Y11693D02*
D03*
X10906Y9843D02*
D03*
X12756Y9173D02*
D03*
X12677Y10315D02*
D03*
X12795Y7992D02*
D03*
X11614Y5630D02*
D03*
X12835Y4646D02*
D03*
X11614Y6614D02*
D03*
X12480Y6417D02*
D03*
X15315Y15236D02*
D03*
X11319Y8209D02*
D03*
X12244Y8189D02*
D03*
X11772Y7756D02*
D03*
X12835Y7087D02*
D03*
Y6063D02*
D03*
X11575Y3110D02*
D03*
X8504Y2795D02*
D03*
X9803Y4843D02*
D03*
X8701Y8386D02*
D03*
X15197Y394D02*
D03*
X13819Y12283D02*
D03*
X8701Y9213D02*
D03*
X906Y906D02*
D03*
X433Y472D02*
D03*
X4508Y886D02*
D03*
X12283Y472D02*
D03*
X12717Y906D02*
D03*
X13185Y4134D02*
D03*
X12677D02*
D03*
X1220Y3386D02*
D03*
X1024Y6870D02*
D03*
X12283Y906D02*
D03*
X1024Y6220D02*
D03*
X11496Y10827D02*
D03*
X3661Y14094D02*
D03*
X4409Y13763D02*
D03*
X4921Y13774D02*
D03*
X6654Y13425D02*
D03*
X4528Y2480D02*
D03*
X6378Y4724D02*
D03*
X7165Y7992D02*
D03*
X1024Y5630D02*
D03*
Y7441D02*
D03*
X6444Y9284D02*
D03*
M02*
