%FSLAX24Y24*%
%MOIN*%
G70*
G01*
G75*
G04 Layer_Physical_Order=2*
G04 Layer_Color=48896*
%ADD10C,0.0079*%
%ADD11R,0.0236X0.0886*%
%ADD12R,0.0299X0.0945*%
%ADD13R,0.0315X0.0354*%
%ADD14R,0.0886X0.0236*%
%ADD15R,0.0846X0.0335*%
%ADD16C,0.0335*%
%ADD17R,0.0335X0.0846*%
%ADD18R,0.0315X0.0630*%
%ADD19R,0.0394X0.0276*%
%ADD20R,0.0236X0.0197*%
%ADD21R,0.0276X0.0394*%
%ADD22R,0.0354X0.0315*%
%ADD23R,0.0906X0.0906*%
%ADD24R,0.0492X0.0433*%
%ADD25R,0.0354X0.0315*%
%ADD26R,0.0591X0.0295*%
%ADD27R,0.0295X0.0591*%
%ADD28C,0.0276*%
%ADD29C,0.0100*%
%ADD30C,0.0118*%
%ADD31C,0.0138*%
%ADD32C,0.0098*%
%ADD33C,0.0380*%
%ADD34R,0.0380X0.0380*%
%ADD35O,0.0669X0.1181*%
%ADD36C,0.0380*%
%ADD37R,0.2165X0.0827*%
%ADD38R,0.0118X0.0295*%
%ADD39R,0.0480X0.0358*%
%ADD40R,0.0358X0.0480*%
%ADD41R,0.0630X0.1063*%
%ADD42R,0.0906X0.0236*%
%ADD43R,0.0630X0.0315*%
D10*
X15505Y13346D02*
G03*
X15354Y13633I-347J0D01*
G01*
X14961D02*
G03*
X15505Y13346I197J-286D01*
G01*
X15515Y12186D02*
G03*
X15451Y12339I-217J0D01*
G01*
X15515Y12186D02*
G03*
X15451Y12339I-217J0D01*
G01*
Y8561D02*
G03*
X15515Y8714I-153J153D01*
G01*
X15451Y8560D02*
G03*
X15515Y8714I-153J153D01*
G01*
X14667Y8874D02*
G03*
X14972Y8694I294J149D01*
G01*
X14599Y15118D02*
G03*
X13997Y15354I-347J0D01*
G01*
X13942Y14961D02*
G03*
X14599Y15118I310J157D01*
G01*
X14026Y13218D02*
G03*
X14165Y13276I0J197D01*
G01*
X14026Y13218D02*
G03*
X14165Y13276I0J197D01*
G01*
X14636Y10900D02*
G03*
X14719Y10774I325J124D01*
G01*
D02*
G03*
X14719Y10274I241J-250D01*
G01*
D02*
G03*
X14733Y9761I241J-250D01*
G01*
X14665Y9378D02*
G03*
X14746Y9273I296J145D01*
G01*
X14733Y9761D02*
G03*
X14640Y9449I228J-238D01*
G01*
D02*
G03*
X14609Y9488I-170J-100D01*
G01*
X14640Y9449D02*
G03*
X14609Y9488I-170J-100D01*
G01*
X14746Y9273D02*
G03*
X14667Y9172I214J-250D01*
G01*
X14808Y8529D02*
G03*
X14744Y8376I153J-153D01*
G01*
X14808Y8529D02*
G03*
X14744Y8376I153J-153D01*
G01*
X14375Y9722D02*
G03*
X14283Y9774I-139J-139D01*
G01*
X14375Y9722D02*
G03*
X14283Y9774I-139J-139D01*
G01*
X15551Y1773D02*
G03*
X15551Y825I-472J-474D01*
G01*
X14508Y7449D02*
G03*
X14398Y7393I30J-195D01*
G01*
X14508Y7449D02*
G03*
X14398Y7393I30J-195D01*
G01*
X14301Y7387D02*
G03*
X14440Y7469I-22J196D01*
G01*
X12126Y15354D02*
G03*
X11987Y15297I0J-197D01*
G01*
X12126Y15354D02*
G03*
X11987Y15297I0J-197D01*
G01*
X11869Y7383D02*
G03*
X11811Y7244I139J-139D01*
G01*
X13121Y4449D02*
G03*
X13249Y4506I-11J197D01*
G01*
X13121Y4449D02*
G03*
X13249Y4506I-11J197D01*
G01*
X12520Y4499D02*
G03*
X13121Y4449I315J147D01*
G01*
X11869Y7383D02*
G03*
X11811Y7244I139J-139D01*
G01*
Y6900D02*
G03*
X11639Y6961I-197J-286D01*
G01*
X11575Y3898D02*
G03*
X11714Y3955I0J197D01*
G01*
X11575Y3898D02*
G03*
X11714Y3955I0J197D01*
G01*
X11575Y8042D02*
G03*
X11934Y7449I197J-286D01*
G01*
X11121Y7479D02*
G03*
X10974Y7539I-146J-146D01*
G01*
X11121Y7479D02*
G03*
X10974Y7539I-146J-146D01*
G01*
X8434Y14075D02*
G03*
X8420Y13562I227J-263D01*
G01*
X8420Y13061D02*
G03*
X8314Y12805I241J-250D01*
G01*
X8420Y13562D02*
G03*
X8420Y13061I241J-250D01*
G01*
X8632Y3955D02*
G03*
X8771Y3898I139J139D01*
G01*
X8632Y3955D02*
G03*
X8771Y3898I139J139D01*
G01*
X12420Y3010D02*
G03*
X12559Y2953I139J139D01*
G01*
X12420Y3010D02*
G03*
X12559Y2953I139J139D01*
G01*
X12305Y2814D02*
G03*
X12362Y2953I-139J139D01*
G01*
X12305Y2814D02*
G03*
X12362Y2953I-139J139D01*
G01*
X11399Y3486D02*
G03*
X11260Y3543I-139J-139D01*
G01*
X11399Y3486D02*
G03*
X11260Y3543I-139J-139D01*
G01*
X11922Y3110D02*
G03*
X11450Y3435I-347J0D01*
G01*
X11882Y2948D02*
G03*
X11922Y3110I-307J163D01*
G01*
X11811Y2402D02*
G03*
X11950Y2459I0J197D01*
G01*
X11811Y2402D02*
G03*
X11950Y2459I0J197D01*
G01*
X8937Y3543D02*
G03*
X8798Y3486I0J-197D01*
G01*
X8937Y3543D02*
G03*
X8798Y3486I0J-197D01*
G01*
X8719Y3407D02*
G03*
X8661Y3268I139J-139D01*
G01*
X8719Y3407D02*
G03*
X8661Y3268I139J-139D01*
G01*
X8212Y2288D02*
G03*
X8279Y2244I139J139D01*
G01*
X8212Y2288D02*
G03*
X8279Y2244I139J139D01*
G01*
X9272Y1732D02*
G03*
X9411Y1790I0J197D01*
G01*
X9272Y1732D02*
G03*
X9411Y1790I0J197D01*
G01*
X6122Y13642D02*
G03*
X5867Y14073I-492J0D01*
G01*
X6757Y10915D02*
G03*
X6845Y10774I330J109D01*
G01*
D02*
G03*
X6845Y10274I241J-250D01*
G01*
X6859Y9761D02*
G03*
X6872Y9274I228J-238D01*
G01*
X6845Y10274D02*
G03*
X6859Y9761I241J-250D01*
G01*
X6587Y10827D02*
G03*
X6726Y10884I0J197D01*
G01*
X6587Y10827D02*
G03*
X6726Y10884I0J197D01*
G01*
X6872Y9274D02*
G03*
X7283Y8760I215J-250D01*
G01*
X5991Y12795D02*
G03*
X6122Y13130I-361J335D01*
G01*
Y10492D02*
G03*
X5991Y10827I-492J0D01*
G01*
X5138Y9980D02*
G03*
X6122Y9980I492J0D01*
G01*
Y8917D02*
G03*
X5158Y9057I-492J0D01*
G01*
X5236Y8110D02*
G03*
X6122Y8406I394J295D01*
G01*
Y7343D02*
G03*
X5138Y7343I-492J0D01*
G01*
X5393Y14073D02*
G03*
X5138Y13642I237J-432D01*
G01*
Y13130D02*
G03*
X5269Y12795I492J0D01*
G01*
Y10827D02*
G03*
X5138Y10492I361J-335D01*
G01*
X5058Y10884D02*
G03*
X5197Y10827I139J139D01*
G01*
X5058Y10884D02*
G03*
X5197Y10827I139J139D01*
G01*
X4511Y13969D02*
G03*
X4671Y14036I0J226D01*
G01*
X4511Y13969D02*
G03*
X4671Y14036I0J226D01*
G01*
X5179Y7577D02*
G03*
X5236Y7717I-139J139D01*
G01*
X5179Y7577D02*
G03*
X5236Y7717I-139J139D01*
G01*
X4085Y9656D02*
G03*
X4142Y9516I197J0D01*
G01*
X4085Y9656D02*
G03*
X4142Y9516I197J0D01*
G01*
X4349Y9037D02*
G03*
X4272Y9085I-139J-139D01*
G01*
X4349Y9037D02*
G03*
X4272Y9085I-139J-139D01*
G01*
X4567Y8737D02*
G03*
X4509Y8877I-197J0D01*
G01*
X4567Y8737D02*
G03*
X4509Y8877I-197J0D01*
G01*
X6278Y6084D02*
G03*
X6220Y5945I139J-139D01*
G01*
X6278Y6084D02*
G03*
X6220Y5945I139J-139D01*
G01*
X5138Y6831D02*
G03*
X6122Y6831I492J0D01*
G01*
Y5768D02*
G03*
X5138Y5768I-492J0D01*
G01*
X6166Y5000D02*
G03*
X6285Y4390I212J-276D01*
G01*
X5138Y5256D02*
G03*
X6083Y5063I492J0D01*
G01*
X6122Y4193D02*
G03*
X5138Y4193I-492J0D01*
G01*
X6008Y3366D02*
G03*
X6122Y3681I-378J315D01*
G01*
X6632Y705D02*
G03*
X6716Y197I651J-154D01*
G01*
X6281Y569D02*
G03*
X6339Y705I-139J139D01*
G01*
X6281Y569D02*
G03*
X6339Y705I-139J139D01*
G01*
X5925Y295D02*
G03*
X6064Y353I0J197D01*
G01*
X5925Y295D02*
G03*
X6064Y353I0J197D01*
G01*
X5138Y2106D02*
G03*
X5945Y1728I492J0D01*
G01*
X5407Y1500D02*
G03*
X5362Y1570I-184J-69D01*
G01*
X5407Y1500D02*
G03*
X5362Y1570I-184J-69D01*
G01*
X5138Y3681D02*
G03*
X5252Y3366I492J0D01*
G01*
X5288Y2972D02*
G03*
X5138Y2618I342J-354D01*
G01*
X4882Y6339D02*
G03*
X4824Y6478I-197J0D01*
G01*
X4882Y6339D02*
G03*
X4824Y6478I-197J0D01*
G01*
Y3837D02*
G03*
X4882Y3976I-139J139D01*
G01*
X4824Y3837D02*
G03*
X4882Y3976I-139J139D01*
G01*
X4780Y7213D02*
G03*
X4864Y7262I-55J189D01*
G01*
X4780Y7213D02*
G03*
X4864Y7262I-55J189D01*
G01*
X4724Y7205D02*
G03*
X4780Y7213I0J197D01*
G01*
X4724Y7205D02*
G03*
X4780Y7213I0J197D01*
G01*
X4724Y2194D02*
G03*
X4875Y2480I-197J286D01*
G01*
X4883Y2049D02*
G03*
X4744Y2106I-139J-139D01*
G01*
X4883Y2049D02*
G03*
X4744Y2106I-139J-139D01*
G01*
X4370Y3465D02*
G03*
X4509Y3522I0J197D01*
G01*
X4370Y3465D02*
G03*
X4509Y3522I0J197D01*
G01*
X4875Y2480D02*
G03*
X4331Y2194I-347J0D01*
G01*
X3369Y14282D02*
G03*
X3986Y13969I293J-187D01*
G01*
X3150Y13780D02*
G03*
X3092Y13919I-197J0D01*
G01*
X3150Y13780D02*
G03*
X3092Y13919I-197J0D01*
G01*
X4092Y7598D02*
G03*
X3952Y7541I0J-197D01*
G01*
X4092Y7598D02*
G03*
X3952Y7541I0J-197D01*
G01*
X3804Y7392D02*
G03*
X3746Y7253I139J-139D01*
G01*
X3804Y7392D02*
G03*
X3746Y7253I139J-139D01*
G01*
Y6613D02*
G03*
X3804Y6474I197J0D01*
G01*
X3746Y6613D02*
G03*
X3804Y6474I197J0D01*
G01*
X2774Y9132D02*
G03*
X2815Y9101I139J139D01*
G01*
X2774Y9132D02*
G03*
X2815Y9101I139J139D01*
G01*
X2718Y8917D02*
G03*
X2580Y9252I-474J0D01*
G01*
X2235Y14824D02*
G03*
X2186Y14903I-187J-61D01*
G01*
X2235Y14824D02*
G03*
X2186Y14903I-187J-61D01*
G01*
X1751Y9310D02*
G03*
X1890Y9252I139J139D01*
G01*
X1751Y9310D02*
G03*
X1890Y9252I139J139D01*
G01*
X1908D02*
G03*
X1770Y8917I336J-335D01*
G01*
X2885Y8013D02*
G03*
X2746Y8071I-139J-139D01*
G01*
X2885Y8013D02*
G03*
X2746Y8071I-139J-139D01*
G01*
X2580D02*
G03*
X2718Y8406I-336J335D01*
G01*
X1770D02*
G03*
X1908Y8071I474J0D01*
G01*
X1593Y7735D02*
G03*
X1732Y7677I139J139D01*
G01*
X1593Y7735D02*
G03*
X1732Y7677I139J139D01*
G01*
X1220Y8189D02*
G03*
X1278Y8050I197J0D01*
G01*
X1220Y8189D02*
G03*
X1278Y8050I197J0D01*
G01*
X1908Y7677D02*
G03*
X1770Y7343I336J-335D01*
G01*
Y6831D02*
G03*
X2657Y6599I474J0D01*
G01*
X2913Y5591D02*
G03*
X2971Y5451I197J0D01*
G01*
X2913Y5591D02*
G03*
X2971Y5451I197J0D01*
G01*
X2736Y5768D02*
G03*
X1752Y5768I-492J0D01*
G01*
X3148Y5274D02*
G03*
X3209Y5233I139J139D01*
G01*
X3148Y5274D02*
G03*
X3209Y5233I139J139D01*
G01*
X3307Y709D02*
G03*
X3446Y766I0J197D01*
G01*
X3307Y709D02*
G03*
X3446Y766I0J197D01*
G01*
X1752Y5256D02*
G03*
X1883Y4921I492J0D01*
G01*
X2605D02*
G03*
X2736Y5256I-361J335D01*
G01*
X879Y3449D02*
G03*
X1037Y3091I342J-63D01*
G01*
X719Y3404D02*
G03*
X661Y3543I-197J0D01*
G01*
X719Y3404D02*
G03*
X661Y3543I-197J0D01*
G01*
X1967Y353D02*
G03*
X2106Y295I139J139D01*
G01*
X1967Y353D02*
G03*
X2106Y295I139J139D01*
G01*
X1812Y571D02*
G03*
X1869Y451I196J20D01*
G01*
X1812Y571D02*
G03*
X1869Y451I196J20D01*
G01*
X1192Y1102D02*
G03*
X1192Y709I-286J-197D01*
G01*
X15454Y15551D02*
X15551Y15454D01*
X15453Y14300D02*
X15551Y14201D01*
X15412Y14409D02*
X15551Y14549D01*
X15453Y14049D02*
X15551Y13951D01*
X15453Y13949D02*
X15551Y14048D01*
X15453Y14200D02*
X15551Y14298D01*
X15453Y13780D02*
Y14409D01*
Y13798D02*
X15551Y13700D01*
X15373Y13619D02*
X15551Y13797D01*
X15354Y13633D02*
Y13780D01*
X15480Y13476D02*
X15551Y13547D01*
X15354Y13780D02*
X15453D01*
X15485Y13230D02*
X15551Y13296D01*
X15493Y13257D02*
X15551Y13199D01*
X15354Y13646D02*
X15551Y13449D01*
X15401Y13099D02*
X15551Y12948D01*
X15308Y12803D02*
X15551Y13046D01*
X15308Y12690D02*
X15551Y12447D01*
X15308Y12482D02*
Y12871D01*
X15240Y13009D02*
X15551Y12698D01*
X15399Y12392D02*
X15551Y12545D01*
X15308Y12552D02*
X15551Y12795D01*
X15203Y15551D02*
X15551Y15203D01*
X14702Y15551D02*
X15551Y14702D01*
X14452Y15551D02*
X15551Y14452D01*
X14953Y15551D02*
X15551Y14953D01*
X15161Y14409D02*
X15551Y14800D01*
X14647Y14647D02*
X15551Y15551D01*
X14599Y15100D02*
X15050Y15551D01*
X14597Y15155D02*
X15343Y14409D01*
X14515Y14765D02*
X15301Y15551D01*
X14783Y14409D02*
X15453D01*
X14911D02*
X15551Y15050D01*
X14554Y14947D02*
X15092Y14409D01*
X14647Y14397D02*
X15551Y15301D01*
X14593Y13406D02*
X15127Y12871D01*
X14876D02*
X15028Y13024D01*
X15126Y12871D02*
X15274Y13019D01*
X14613Y12871D02*
X15308D01*
X14783Y13780D02*
X14961D01*
Y13633D02*
Y13780D01*
X14665Y13834D02*
X14910Y13590D01*
X14665Y13413D02*
X14961Y13708D01*
X14625Y12871D02*
X14885Y13131D01*
X15515Y11231D02*
X15551Y11195D01*
X15515Y11005D02*
X15551Y11041D01*
X15515Y11255D02*
X15551Y11292D01*
X15515Y10754D02*
X15551Y10791D01*
X15515Y10730D02*
X15551Y10693D01*
X15515Y10980D02*
X15551Y10944D01*
X15515Y11983D02*
X15551Y11946D01*
X15515Y11757D02*
X15551Y11793D01*
X15515Y12007D02*
X15551Y12043D01*
X15515Y11506D02*
X15551Y11542D01*
X15515Y11481D02*
X15551Y11445D01*
X15515Y11732D02*
X15551Y11696D01*
X15515Y10479D02*
X15551Y10443D01*
X15515Y10253D02*
X15551Y10290D01*
X15515Y10504D02*
X15551Y10540D01*
X15515Y10003D02*
X15551Y10039D01*
X15515Y9978D02*
X15551Y9942D01*
X15515Y10229D02*
X15551Y10192D01*
X15515Y9752D02*
X15551Y9789D01*
X15515Y9226D02*
X15551Y9190D01*
X15515Y8714D02*
Y12186D01*
Y8976D02*
X15551Y8940D01*
X15515Y9001D02*
X15551Y9037D01*
X15508Y12240D02*
X15551Y12197D01*
X15515Y9728D02*
X15551Y9691D01*
X15506Y12248D02*
X15551Y12294D01*
X15515Y9477D02*
X15551Y9441D01*
X15515Y9251D02*
X15551Y9287D01*
X15515Y9502D02*
X15551Y9538D01*
X15308Y12482D02*
X15451Y12339D01*
X15515Y8750D02*
X15551Y8786D01*
X15515Y8725D02*
X15551Y8689D01*
X15440Y8549D02*
X15551Y8438D01*
X15190Y8299D02*
X15241Y8248D01*
X15177Y8286D02*
X15451Y8560D01*
X14808Y8529D02*
X14972Y8694D01*
X15177Y8248D02*
Y8286D01*
X14667Y8403D02*
X14957Y8694D01*
X14647Y14604D02*
X14842Y14409D01*
X14647Y14291D02*
Y14765D01*
X14548Y15300D02*
X14800Y15551D01*
X14647Y14353D02*
X14709Y14291D01*
X14783D02*
Y14409D01*
X14647Y14291D02*
X14783D01*
X14210Y15463D02*
X14298Y15551D01*
X14420Y15422D02*
X14549Y15551D01*
X14201D02*
X14289Y15464D01*
X14431Y14820D02*
X14486Y14765D01*
X14665Y13898D02*
X14783D01*
Y13780D02*
Y13898D01*
X14665Y13663D02*
X14783Y13781D01*
X14665Y13584D02*
X14820Y13429D01*
X14342Y13406D02*
X14877Y12871D01*
X14341Y12838D02*
X14812Y13309D01*
X14294Y13406D02*
X14665D01*
Y13898D01*
X14205Y12952D02*
X14658Y13406D01*
X14613Y12838D02*
Y12871D01*
X14193Y13304D02*
X14626Y12871D01*
X13951Y15551D02*
X14081Y15421D01*
X14014Y14765D02*
X14647D01*
X13937Y14689D02*
X14070Y14822D01*
X13700Y15551D02*
X13897Y15354D01*
X13851D02*
X14048Y15551D01*
X13600Y15354D02*
X13797Y15551D01*
X13937Y14563D02*
X14014Y14485D01*
X13937Y14813D02*
X14014Y14736D01*
X14165Y13276D02*
X14294Y13406D01*
X14079Y13077D02*
X14408Y13406D01*
X14028Y13219D02*
X14409Y12838D01*
X13938Y13218D02*
X14319Y12838D01*
X13937Y14291D02*
Y14961D01*
X14014Y14291D02*
Y14765D01*
X13937Y14438D02*
X14014Y14515D01*
X13938Y13218D02*
X14026D01*
X13937Y14291D02*
X14014D01*
X14667Y9323D02*
X14731Y9259D01*
X14591Y12838D02*
X14613Y12859D01*
X14593Y10900D02*
X14710Y10783D01*
X14429Y9668D02*
X14643Y9883D01*
X14554Y9543D02*
X14654Y9643D01*
X14667Y8654D02*
X14769Y8755D01*
X14667Y8822D02*
X14883Y8605D01*
X14667Y8571D02*
X14766Y8472D01*
X14667Y8248D02*
Y8874D01*
X14744Y8248D02*
Y8376D01*
X14667Y9172D02*
Y9349D01*
Y8248D02*
X14744D01*
X14667Y8320D02*
X14739Y8248D01*
X14301Y10900D02*
X14636D01*
X14343D02*
X14626Y10617D01*
X14301Y10543D02*
X14642Y10884D01*
X14301Y10292D02*
X14626Y10617D01*
X14301Y10440D02*
X14626Y10116D01*
X14301Y10691D02*
X14719Y10273D01*
X14319Y12838D02*
X14613D01*
X14301Y10793D02*
X14407Y10900D01*
X14301Y10608D02*
Y10900D01*
Y10557D02*
Y10608D01*
Y10557D02*
Y10608D01*
X14284Y9774D02*
X14626Y10116D01*
X14301Y10190D02*
X14731Y9759D01*
X14283Y10024D02*
X14643Y10383D01*
X14375Y9722D02*
X14609Y9488D01*
X14283Y9957D02*
X14640Y9600D01*
X14283Y10057D02*
Y10090D01*
X14301Y10057D02*
Y10557D01*
X14283Y9774D02*
Y10057D01*
X15413Y8075D02*
X15551Y7937D01*
X15413Y7897D02*
X15551Y8035D01*
X15413Y8147D02*
X15551Y8285D01*
X15413Y7646D02*
X15551Y7784D01*
X15413Y7646D02*
X15551Y7784D01*
X15413Y7825D02*
X15551Y7687D01*
X15413Y7396D02*
X15551Y7534D01*
X15413Y6949D02*
Y7559D01*
Y7638D02*
Y8248D01*
Y7145D02*
X15551Y7283D01*
X15413Y7073D02*
X15551Y6935D01*
X15413Y7324D02*
X15551Y7186D01*
X15413Y6394D02*
X15551Y6531D01*
X15413Y6321D02*
X15551Y6184D01*
X15413Y6572D02*
X15551Y6434D01*
X15413Y6143D02*
X15551Y6281D01*
X15413Y6071D02*
X15551Y5933D01*
X15395Y5588D02*
X15551Y5432D01*
X15413Y5986D02*
Y6596D01*
X15551Y1773D02*
Y15551D01*
X15395Y5838D02*
X15551Y5682D01*
X15395Y5373D02*
X15551Y5529D01*
X15395Y5624D02*
X15551Y5780D01*
X15263Y8248D02*
X15551Y8536D01*
X15315Y8424D02*
X15551Y8188D01*
X15177Y8248D02*
X15413D01*
X15350Y7638D02*
X15551Y7436D01*
X15287Y6949D02*
X15551Y6685D01*
X14609Y7638D02*
X15413D01*
X15326Y7559D02*
X15405Y7638D01*
X15326Y7559D02*
X15405Y7638D01*
X14530Y7559D02*
X15413D01*
X15036Y6949D02*
X15389Y6596D01*
X14606Y6949D02*
X15413D01*
X15115Y6596D02*
X15551Y7033D01*
X15365Y6596D02*
X15551Y6782D01*
X14606Y6596D02*
X15413D01*
X15389D02*
X15413Y6572D01*
X15395Y5874D02*
X15551Y6030D01*
X14606Y5986D02*
X15413D01*
X15345Y5889D02*
X15395Y5838D01*
Y5317D02*
Y5889D01*
X15248Y5986D02*
X15345Y5889D01*
X14606D02*
X15395D01*
X15494Y5239D02*
X15551Y5181D01*
X15494Y4971D02*
X15551Y5028D01*
X15494Y5221D02*
X15551Y5279D01*
X15494Y4720D02*
X15551Y4778D01*
X15494Y4738D02*
X15551Y4680D01*
X15494Y4988D02*
X15551Y4931D01*
X15416Y5317D02*
X15494Y5239D01*
Y4683D02*
Y5317D01*
X15395D02*
X15494D01*
X15457Y4683D02*
X15494Y4720D01*
X15297Y4683D02*
X15551Y4430D01*
X15079Y2551D02*
X15551Y3024D01*
X15230Y1951D02*
X15551Y2272D01*
X15079Y3303D02*
X15551Y3775D01*
X15410Y1881D02*
X15551Y2022D01*
X15468Y755D02*
X15551Y671D01*
X15303Y669D02*
X15551Y421D01*
X15091Y630D02*
X15525Y197D01*
X15551D02*
Y825D01*
X15091Y630D02*
X15525Y197D01*
X15480D02*
X15551Y268D01*
X15230Y197D02*
X15551Y518D01*
X15047Y4683D02*
X15551Y4179D01*
X15021Y3997D02*
X15551Y4527D01*
X15021Y4459D02*
X15551Y3929D01*
X15021Y4208D02*
X15551Y3678D01*
X15021Y3957D02*
X15551Y3427D01*
X14793Y3935D02*
X15551Y3177D01*
X14961Y4683D02*
X15494D01*
X15021Y4248D02*
X15457Y4683D01*
X14601Y3327D02*
X15551Y4276D01*
X15079Y3052D02*
X15551Y3525D01*
X14852Y3327D02*
X15551Y4026D01*
X15079Y2802D02*
X15551Y3274D01*
X15079Y3148D02*
X15551Y2676D01*
X14542Y3935D02*
X15551Y2926D01*
X15079Y2301D02*
X15551Y2773D01*
X15079Y2647D02*
X15551Y2175D01*
X15079Y2898D02*
X15551Y2425D01*
X15040Y2185D02*
X15291Y1934D01*
X15079Y2397D02*
X15551Y1924D01*
X14991Y1963D02*
X15551Y2523D01*
X14979Y197D02*
X15551Y769D01*
X15076Y7559D02*
X15154Y7638D01*
X15099D02*
X15178Y7559D01*
X14849Y7638D02*
X14927Y7559D01*
X14786Y6949D02*
X15139Y6596D01*
X14864D02*
X15217Y6949D01*
X14614Y6596D02*
X14966Y6949D01*
X14825Y7559D02*
X14904Y7638D01*
X14606Y6839D02*
X14716Y6949D01*
X14606Y6839D02*
X14716Y6949D01*
X14606Y6878D02*
X14888Y6596D01*
X14606Y6627D02*
X14638Y6596D01*
X14606D02*
Y6949D01*
X14997Y5986D02*
X15094Y5889D01*
X15159D02*
X15256Y5986D01*
X14909Y5889D02*
X15006Y5986D01*
X15021Y4498D02*
X15207Y4683D01*
X14658Y5889D02*
X14755Y5986D01*
X14747D02*
X14844Y5889D01*
X14606D02*
Y5986D01*
X14900Y5315D02*
X14961D01*
X14574Y7559D02*
X14653Y7638D01*
X14604Y7632D02*
X14677Y7559D01*
X14530D02*
X14609Y7638D01*
X14508Y7537D02*
X14530Y7559D01*
X14508Y7492D02*
X14574Y7559D01*
X14478Y7507D02*
X14508Y7477D01*
Y7449D02*
Y7537D01*
X14441Y7425D02*
X14508Y7492D01*
X14440Y7469D02*
X14508Y7537D01*
X14340Y7395D02*
X14370Y7365D01*
X14301Y7296D02*
X14398Y7393D01*
X14331Y4665D02*
Y4803D01*
X14176D02*
X14392Y4587D01*
X13546Y4803D02*
X14331D01*
X14301Y7296D02*
Y7387D01*
X14107Y4587D02*
X14324Y4803D01*
X13925D02*
X14142Y4587D01*
X13674Y4803D02*
X13891Y4587D01*
X13485Y4742D02*
X13858Y4369D01*
X14900Y4683D02*
X14961D01*
X14841Y4568D02*
X14938Y4665D01*
X14814D02*
X14911Y4568D01*
X14960Y3935D02*
X15021Y3997D01*
X14488Y4568D02*
X15021D01*
X14564Y4665D02*
X14661Y4568D01*
X14590D02*
X14687Y4665D01*
X14428Y4568D02*
X14488D01*
X14428Y3935D02*
X14488D01*
X15021D02*
Y4568D01*
X15079Y2185D02*
Y3327D01*
X14488Y3935D02*
X15021D01*
X14789Y2185D02*
X15009Y1965D01*
X14761Y710D02*
X15274Y197D01*
X14729D02*
X15168Y636D01*
X14370Y3596D02*
X14709Y3935D01*
X14370Y3327D02*
Y3917D01*
Y3346D02*
X14960Y3935D01*
X14539Y2185D02*
X14811Y1913D01*
X14478Y197D02*
X14928Y647D01*
X14331Y4665D02*
X14961D01*
X14358Y4587D02*
X14437Y4665D01*
X13858Y4587D02*
X14488D01*
X14370Y3847D02*
X14440Y3917D01*
X14370Y3356D02*
X14399Y3327D01*
X14370Y3917D02*
X14488D01*
X13858D02*
Y4587D01*
X13976Y3346D02*
Y3917D01*
X13858D02*
X13976D01*
X13870Y3346D02*
X13976Y3453D01*
X13619Y3346D02*
X13976Y3704D01*
X14370Y3606D02*
X14650Y3327D01*
X14370D02*
X15079D01*
X14370Y3857D02*
X14900Y3327D01*
X14288Y2185D02*
X14655Y1818D01*
X14228Y197D02*
X14748Y717D01*
X13977Y197D02*
X14606Y826D01*
X14038Y2185D02*
X14534Y1688D01*
X13787Y2185D02*
X14448Y1524D01*
X13536Y2185D02*
X14410Y1312D01*
X13727Y197D02*
X14497Y968D01*
X13536Y2185D02*
X14410Y1312D01*
X13099Y15354D02*
X13296Y15551D01*
X13199D02*
X13396Y15354D01*
X12948Y15551D02*
X13145Y15354D01*
X13350D02*
X13547Y15551D01*
X13449D02*
X13646Y15354D01*
X12126D02*
X13997D01*
X12348D02*
X12545Y15551D01*
X12447D02*
X12644Y15354D01*
X12197Y15551D02*
X12394Y15354D01*
X12698Y15551D02*
X12895Y15354D01*
X12849D02*
X13046Y15551D01*
X12598Y15354D02*
X12795Y15551D01*
X11946D02*
X12143Y15354D01*
X12095Y15352D02*
X12294Y15551D01*
X11414Y14921D02*
X12043Y15551D01*
X11611Y14921D02*
X11987Y15297D01*
X11696Y15551D02*
X11968Y15278D01*
X11445Y15551D02*
X11843Y15153D01*
X11195Y15551D02*
X11718Y15028D01*
X11240Y14921D02*
X11611D01*
X11240Y14803D02*
Y14921D01*
X11104Y15113D02*
X11542Y15551D01*
X10944D02*
X11574Y14921D01*
X8071Y15551D02*
X15551D01*
X11018Y15277D02*
X11292Y15551D01*
X11104Y15141D02*
X11323Y14921D01*
X10472Y15277D02*
X11104D01*
X10693Y15551D02*
X10967Y15277D01*
X10767D02*
X11041Y15551D01*
X10443D02*
X10717Y15277D01*
X10517D02*
X10791Y15551D01*
X11104Y14890D02*
X11191Y14803D01*
X11104D02*
X11240D01*
X11104Y14862D02*
X11793Y15551D01*
X10699Y8193D02*
X11107Y8602D01*
X10681Y8799D02*
X11503Y7977D01*
X10681Y9029D02*
X11575Y8134D01*
X11104Y14803D02*
Y15277D01*
X10681Y8927D02*
X10732Y8978D01*
X10681Y8676D02*
X10857Y8852D01*
X10699Y8108D02*
Y8608D01*
Y8444D02*
X10982Y8727D01*
X11869Y7383D02*
X11934Y7449D01*
X13249Y4506D02*
X13546Y4803D01*
X11818Y7412D02*
X11858Y7371D01*
X11575Y8042D02*
Y8134D01*
X11709Y6948D02*
X11811Y7051D01*
Y6900D02*
Y7244D01*
X13360Y4617D02*
X13858Y4118D01*
X13234Y4492D02*
X13976Y3750D01*
X12520Y3750D02*
X13572Y4803D01*
X12520Y4252D02*
X12632Y4364D01*
X12520Y4001D02*
X12817Y4299D01*
X11740Y3981D02*
X11969Y3753D01*
X11865Y4107D02*
X11969Y4004D01*
X11740Y3981D02*
X11969Y3753D01*
X11714Y3955D02*
X11969Y4210D01*
X10699Y7943D02*
X11233Y8477D01*
X10699Y7692D02*
X11358Y8351D01*
X10699Y8530D02*
X11427Y7802D01*
X10797Y7539D02*
X11483Y8226D01*
X11037Y7530D02*
X11575Y8067D01*
X10699Y7539D02*
X10974D01*
X10699Y8057D02*
Y8108D01*
Y7608D02*
Y8057D01*
Y8108D01*
Y7557D02*
Y7608D01*
Y7779D02*
X10938Y7539D01*
X10699Y8280D02*
X11811Y7168D01*
X10699Y8029D02*
X11811Y6917D01*
X11429Y7170D02*
X11680Y7421D01*
X11555Y7045D02*
X11824Y7314D01*
X11121Y7479D02*
X11639Y6961D01*
X11179Y7421D02*
X11434Y7675D01*
X11304Y7295D02*
X11523Y7514D01*
X8771Y3898D02*
X11575D01*
X10192Y15551D02*
X10291Y15453D01*
X10442D02*
X10540Y15551D01*
X10191Y15453D02*
X10290Y15551D01*
X9941Y15453D02*
X10039Y15551D01*
X9942D02*
X10040Y15453D01*
X9528D02*
X10472D01*
X9690D02*
X9789Y15551D01*
X9691D02*
X9790Y15453D01*
X9441Y15551D02*
X9539Y15453D01*
X9370Y15383D02*
X9538Y15551D01*
X9289Y15453D02*
X9370Y15371D01*
X9190Y15551D02*
X9289Y15453D01*
X10472Y15277D02*
Y15453D01*
X9370Y15371D02*
X9528Y15214D01*
X9370Y15133D02*
X9528Y15290D01*
X9370Y14882D02*
X9528Y15040D01*
X9370Y14870D02*
X9528Y14713D01*
X9370Y15121D02*
X9528Y14963D01*
X9370Y14154D02*
Y15453D01*
X9528Y14154D02*
Y15453D01*
X9370Y14632D02*
X9528Y14789D01*
X9370Y14381D02*
X9528Y14539D01*
X9370Y14620D02*
X9528Y14462D01*
X8689Y15551D02*
X8787Y15453D01*
X8938D02*
X9037Y15551D01*
X8688Y15453D02*
X8786Y15551D01*
X8940D02*
X9038Y15453D01*
X9189D02*
X9287Y15551D01*
X8425Y15453D02*
X9370D01*
X8437D02*
X8536Y15551D01*
X8438D02*
X8537Y15453D01*
X8188Y15551D02*
X8425Y15314D01*
X8071Y15086D02*
X8425Y15441D01*
X8071Y15337D02*
X8285Y15551D01*
X8071Y14836D02*
X8425Y15190D01*
X8071Y15167D02*
X8425Y14813D01*
X8071Y15418D02*
X8425Y15063D01*
X8071Y14917D02*
X8425Y14562D01*
X8071Y14335D02*
X8425Y14689D01*
X8071Y14585D02*
X8425Y14939D01*
Y14075D02*
Y15453D01*
X8071Y12562D02*
Y15551D01*
Y14666D02*
X8425Y14312D01*
X8071Y14415D02*
X8422Y14064D01*
X8071Y14084D02*
X8425Y14438D01*
X10652Y9057D02*
X10681Y9029D01*
Y8608D02*
Y9029D01*
X9370Y14154D02*
X9528D01*
X10681Y8575D02*
Y8608D01*
X10699Y7557D02*
Y7608D01*
X9370Y14369D02*
X9528Y14212D01*
X9393Y14154D02*
X9528Y14288D01*
X8339Y6270D02*
X8386D01*
X8649D01*
X8386D02*
X8649D01*
X8287Y4300D02*
X8632Y3955D01*
X8287Y3778D02*
X8548Y4039D01*
X8386Y5659D02*
Y6270D01*
X8406Y5495D02*
Y5659D01*
X8287Y5782D02*
X8386Y5880D01*
X8287Y4028D02*
X8423Y4164D01*
X8287Y5430D02*
X8314Y5403D01*
X8071Y14165D02*
X8328Y13908D01*
X8071Y13914D02*
X8388Y13597D01*
X8071Y13833D02*
X8425Y14188D01*
X8071Y13413D02*
X8392Y13092D01*
X8071Y12831D02*
X8367Y13127D01*
X8071Y13332D02*
X8366Y13628D01*
X8071Y13664D02*
X8327Y13407D01*
X8071Y13082D02*
X8314Y13325D01*
X8071Y13583D02*
X8314Y13826D01*
X8071Y12912D02*
X8246Y12737D01*
X8071Y13163D02*
X8327Y12906D01*
X8287Y6032D02*
X8386Y6131D01*
X8287Y5931D02*
X8386Y5832D01*
X8287Y6181D02*
X8386Y6083D01*
X8287Y5531D02*
X8406Y5649D01*
X8287Y5377D02*
X8406Y5495D01*
X8287Y5680D02*
X8406Y5562D01*
X8071Y12662D02*
X8121Y12612D01*
X8071Y12562D02*
X8314Y12805D01*
X8071Y12581D02*
X8314Y12824D01*
X8287Y5377D02*
Y6218D01*
X8339Y6270D01*
X13078Y4398D02*
X13976Y3499D01*
X12917Y4308D02*
X13878Y3346D01*
X12629Y3358D02*
X14073Y4803D01*
X13118Y3346D02*
X13858Y4087D01*
X13368Y3346D02*
X13939Y3917D01*
X12641Y3346D02*
X13976D01*
X12520Y3467D02*
Y4499D01*
Y4455D02*
X13628Y3346D01*
X12520Y3500D02*
X13823Y4803D01*
X12520Y4204D02*
X13377Y3346D01*
X12867D02*
X13858Y4337D01*
X12520Y3467D02*
X12641Y3346D01*
X12520Y3703D02*
X12876Y3346D01*
X12520Y3954D02*
X13127Y3346D01*
X12559Y2953D02*
X12598D01*
Y2185D02*
Y2953D01*
X12513Y2958D02*
X12598Y2873D01*
X12362Y2953D02*
Y3068D01*
X12420Y3010D01*
X11305Y3538D02*
X11969Y4201D01*
X11453Y3436D02*
X11969Y3951D01*
X11305Y3538D02*
X11969Y4201D01*
X11573Y3898D02*
X11969Y3502D01*
X11072Y3898D02*
X11517Y3453D01*
X11060Y3543D02*
X11414Y3898D01*
X10809Y3543D02*
X11164Y3898D01*
X10822D02*
X11176Y3543D01*
X8937D02*
X11260D01*
X11702Y3434D02*
X11969Y3700D01*
Y3034D02*
Y4210D01*
X11323Y3898D02*
X11969Y3252D01*
X11846Y3327D02*
X11969Y3450D01*
X11920Y3151D02*
X11969Y3199D01*
X9718Y197D02*
X12487Y2966D01*
X11399Y3486D02*
X11450Y3435D01*
X11917Y3052D02*
X11952Y3018D01*
X11882Y2948D02*
X11969Y3034D01*
X12785Y2185D02*
X14773Y197D01*
X13035Y2185D02*
X15024Y197D01*
X12598Y2185D02*
X15079D01*
X13286D02*
X14490Y981D01*
X13225Y197D02*
X14415Y1387D01*
X12724Y197D02*
X14712Y2185D01*
X12346Y2874D02*
X12598Y2622D01*
X12230Y2739D02*
X12598Y2371D01*
X11950Y2459D02*
X12305Y2814D01*
X11339Y2185D02*
Y2402D01*
X12105Y2614D02*
X14522Y197D01*
X12975D02*
X14963Y2185D01*
X11980Y2489D02*
X14272Y197D01*
X12474D02*
X14462Y2185D01*
X13476Y197D02*
X14427Y1148D01*
X12223Y197D02*
X14211Y2185D01*
X11566Y2402D02*
X13771Y197D01*
X11817Y2402D02*
X14021Y197D01*
X11472D02*
X13460Y2185D01*
X11973Y197D02*
X13961Y2185D01*
X11722Y197D02*
X13710Y2185D01*
X11282D02*
X13270Y197D01*
X11339Y2379D02*
X13520Y197D01*
X11221D02*
X13209Y2185D01*
X10970Y197D02*
X12959Y2185D01*
X11031D02*
X13019Y197D01*
X10780Y2185D02*
X12769Y197D01*
X11339Y2402D02*
X11811D01*
X11339Y2319D02*
X11421Y2402D01*
X10720Y197D02*
X12708Y2185D01*
X10530D02*
X12518Y197D01*
X9806Y2185D02*
X11339D01*
X10219Y197D02*
X12598Y2576D01*
X10469Y197D02*
X12598Y2326D01*
X9968Y197D02*
X12598Y2827D01*
X10029Y2185D02*
X12017Y197D01*
X10279Y2185D02*
X12268Y197D01*
X8110D02*
X15551D01*
X9467D02*
X11672Y2402D01*
X9792Y2171D02*
X11766Y197D01*
X9217D02*
X11205Y2185D01*
X9667Y2046D02*
X11516Y197D01*
X9542Y1921D02*
X11265Y197D01*
X10070Y3898D02*
X10424Y3543D01*
X10308D02*
X10662Y3898D01*
X10058Y3543D02*
X10412Y3898D01*
X10559Y3543D02*
X10913Y3898D01*
X10571D02*
X10925Y3543D01*
X10321Y3898D02*
X10675Y3543D01*
X9318Y3898D02*
X9673Y3543D01*
X9556D02*
X9911Y3898D01*
X9306Y3543D02*
X9660Y3898D01*
X9807Y3543D02*
X10161Y3898D01*
X9819D02*
X10174Y3543D01*
X9569Y3898D02*
X9923Y3543D01*
X9055D02*
X9410Y3898D01*
X9068D02*
X9422Y3543D01*
X8817Y3898D02*
X9172Y3543D01*
X8719Y3407D02*
X8798Y3486D01*
X8661Y2711D02*
Y3268D01*
X8575Y2624D02*
X8661Y2711D01*
X8433Y2624D02*
X8575D01*
X8287Y3527D02*
X8680Y3920D01*
X8287Y3926D02*
X8763Y3451D01*
X8287Y4177D02*
X8922Y3543D01*
X8287Y3676D02*
X8664Y3299D01*
X8287Y3276D02*
X8909Y3898D01*
X8287Y3026D02*
X9159Y3898D01*
X8287Y3425D02*
X8661Y3051D01*
X8287Y3175D02*
X8661Y2801D01*
X8287Y2770D02*
Y4300D01*
X8410Y2647D02*
X8661Y2899D01*
X8287Y2775D02*
X8661Y3149D01*
X8287Y2924D02*
X8581Y2630D01*
X8287Y2770D02*
X8433Y2624D01*
X8169Y2156D02*
X8257Y2244D01*
X8169D02*
X8279D01*
X8071Y2389D02*
X8216Y2244D01*
X8071Y236D02*
Y2429D01*
X8212Y2288D01*
X8169Y1614D02*
Y2244D01*
X8071Y2308D02*
X8131Y2369D01*
X9411Y1790D02*
X9806Y2185D01*
X8839Y1732D02*
X9272D01*
X8820Y1304D02*
X9249Y1732D01*
X8820Y1555D02*
X8998Y1732D01*
X8820Y1614D02*
Y1675D01*
X8839Y1614D02*
Y1732D01*
X8820Y1081D02*
Y1614D01*
X8716Y197D02*
X10704Y2185D01*
X8966Y197D02*
X10954Y2185D01*
X8465Y197D02*
X10453Y2185D01*
X9229Y1732D02*
X10764Y197D01*
X9416Y1795D02*
X11015Y197D01*
X8978Y1732D02*
X10514Y197D01*
X8820Y1389D02*
X10013Y197D01*
X8839Y1621D02*
X10263Y197D01*
X8820Y1138D02*
X9762Y197D01*
X8627Y1081D02*
X9512Y197D01*
X8377Y1081D02*
X9261Y197D01*
X8187Y1614D02*
Y1675D01*
Y1081D02*
Y1614D01*
X8071Y1637D02*
X8187Y1521D01*
X8071Y1387D02*
X8187Y1270D01*
Y1081D02*
X8820D01*
X8071Y1306D02*
X8187Y1423D01*
X8071Y2139D02*
X8169Y2040D01*
X8071Y1807D02*
X8169Y1906D01*
X8071Y2058D02*
X8169Y2156D01*
X8071Y1557D02*
X8169Y1655D01*
X8071Y1888D02*
X8169Y1790D01*
X8071Y304D02*
X9952Y2185D01*
X8214Y197D02*
X10203Y2185D01*
X8071Y304D02*
X9952Y2185D01*
X8071Y554D02*
X8598Y1081D01*
X8071Y886D02*
X8760Y197D01*
X8071Y1136D02*
X9010Y197D01*
X8071Y805D02*
X8347Y1081D01*
X8071Y635D02*
X8509Y197D01*
X8071Y1055D02*
X8187Y1172D01*
X8071Y236D02*
X8110Y197D01*
X8071Y385D02*
X8259Y197D01*
X6935Y15551D02*
X7008Y15478D01*
Y14764D02*
Y15551D01*
X6929D02*
X7008D01*
X6929Y15448D02*
X7008Y15527D01*
X6929Y15056D02*
X7008Y14977D01*
X6929Y14947D02*
X7008Y15025D01*
X6929Y15307D02*
X7008Y15228D01*
X6929Y15197D02*
X7008Y15276D01*
X6929Y14806D02*
X6971Y14764D01*
X6929Y14744D02*
Y15551D01*
X6227Y14746D02*
X6319Y14838D01*
Y14746D02*
Y15315D01*
X6970Y14764D02*
X7008D01*
X6970Y14737D02*
X6997Y14764D01*
X6794Y14744D02*
X6929D01*
X6794Y14562D02*
X6970Y14737D01*
X6794Y14189D02*
X6970Y14013D01*
X6794Y13938D02*
X7116Y13616D01*
X6794Y14439D02*
X6970Y14264D01*
X6794Y14060D02*
X6970Y14236D01*
Y13819D02*
X7116D01*
Y13536D02*
Y13819D01*
X6645Y13837D02*
X7031Y13451D01*
X6281Y12795D02*
X7116Y13630D01*
X6794Y13837D02*
Y14744D01*
X6970Y13819D02*
Y14764D01*
X6794Y14690D02*
X6970Y14514D01*
X6794Y14311D02*
X6970Y14487D01*
X6394Y13837D02*
X6906Y13326D01*
X6181Y15303D02*
X6319Y15165D01*
X6181Y14950D02*
X6319Y15088D01*
X6181Y15315D02*
X6319D01*
X6181Y15201D02*
X6295Y15315D01*
X6201Y14746D02*
X6319D01*
X6201Y14719D02*
X6227Y14746D01*
X6181Y15053D02*
X6319Y14915D01*
X6141Y14843D02*
X6237Y14746D01*
X6181Y14843D02*
Y15315D01*
X6148Y14667D02*
X6201Y14719D01*
X5236Y14843D02*
X6181D01*
X5898Y14667D02*
X6073Y14843D01*
X6163Y14570D02*
X6201Y14532D01*
X6163Y14431D02*
X6201Y14469D01*
X5254Y14667D02*
X6163D01*
X6158Y14073D02*
X6201Y14031D01*
Y13837D02*
X6794D01*
X5908Y14073D02*
X6780Y13200D01*
X6122Y13137D02*
X6970Y13985D01*
X6122Y13639D02*
X6321Y13837D01*
X6122Y13388D02*
X6571Y13837D01*
X6122Y13608D02*
X6655Y13075D01*
X6030Y12795D02*
X7054Y13819D01*
X6163Y14073D02*
Y14667D01*
X6201Y13837D02*
Y14746D01*
X6163Y14319D02*
X6201Y14281D01*
X6163Y14181D02*
X6201Y14218D01*
X6078Y13845D02*
X6201Y13968D01*
X6122Y13130D02*
Y13642D01*
X5867Y14073D02*
X6163D01*
X6375Y12795D02*
X7116Y13536D01*
X6641Y10834D02*
X6783Y10692D01*
X6122Y10351D02*
X6795Y9678D01*
X6726Y10884D02*
X6757Y10915D01*
X6122Y13358D02*
X6530Y12950D01*
X6398Y10827D02*
X6741Y10483D01*
X6148Y10827D02*
X6783Y10192D01*
X6122Y9980D02*
Y10492D01*
Y10101D02*
X6764Y9459D01*
X7240Y8733D02*
X7283Y8689D01*
X7020Y8702D02*
X7283Y8438D01*
X6122Y8848D02*
X7283Y7686D01*
X6811Y7421D02*
X7283D01*
X6920D02*
X7283Y7785D01*
X6122Y8597D02*
X7283Y7436D01*
X6651Y7403D02*
X7283Y8035D01*
Y7421D02*
Y8760D01*
X6122Y8878D02*
X6757Y9513D01*
X7171Y7421D02*
X7283Y7534D01*
X6401Y7403D02*
X7283Y8286D01*
X6140Y7403D02*
X6714D01*
X6150D02*
X7283Y8536D01*
X6122Y10131D02*
X6808Y10816D01*
X6109Y9867D02*
X6740Y10498D01*
X5991Y10827D02*
X6587D01*
X6106Y10618D02*
X6742Y9982D01*
X6108Y9864D02*
X6795Y9177D01*
X6089Y9095D02*
X6809Y9815D01*
X5850Y9358D02*
X6808Y10316D01*
X5993Y9250D02*
X6740Y9997D01*
X6122Y13108D02*
X6405Y12825D01*
X6070Y12909D02*
X6183Y12795D01*
X5991D02*
X6375D01*
X6106Y10616D02*
X6317Y10827D01*
X6122Y10381D02*
X6567Y10827D01*
X6122Y8628D02*
X6822Y9327D01*
X6055Y9166D02*
X7283Y7937D01*
X5901Y9570D02*
X7283Y8188D01*
X5800Y7804D02*
X6823Y8827D01*
X6066Y7570D02*
X7220Y8723D01*
X6119Y8350D02*
X7048Y7421D01*
X5957Y7711D02*
X6965Y8718D01*
X6057Y8161D02*
X6811Y7407D01*
X6122Y8406D02*
Y8917D01*
X6121Y8376D02*
X6757Y9012D01*
X6029Y9692D02*
X6764Y8957D01*
X5780Y7937D02*
X6314Y7403D01*
X5942Y8025D02*
X6565Y7403D01*
X5647Y14667D02*
X5823Y14843D01*
X5890D02*
X6066Y14667D01*
X5397D02*
X5572Y14843D01*
X5639D02*
X5815Y14667D01*
X5389Y14843D02*
X5564Y14667D01*
X5254Y14073D02*
X5393D01*
X5041Y14970D02*
X5236D01*
Y14843D02*
Y14970D01*
X5041Y14813D02*
X5199Y14970D01*
X5041Y14940D02*
X5314Y14667D01*
X5041Y14312D02*
X5254Y14525D01*
X5041Y14438D02*
X5254Y14225D01*
X5041Y14562D02*
X5322Y14843D01*
X5041Y14689D02*
X5254Y14476D01*
Y14073D02*
Y14667D01*
X5975Y13993D02*
X6056Y14073D01*
X5197Y10827D02*
X5269D01*
X6025Y10785D02*
X6066Y10827D01*
X5136Y10837D02*
X5215Y10757D01*
X5138Y13130D02*
Y13642D01*
X5041Y13186D02*
X5140Y13087D01*
X5041Y13059D02*
X5138Y13155D01*
X5041Y12808D02*
X5175Y12942D01*
X5138Y9980D02*
Y10492D01*
X5041Y12935D02*
X5181Y12795D01*
X5011Y14282D02*
X5041Y14312D01*
X4948Y14282D02*
X5261Y13968D01*
X4917Y14282D02*
X5041D01*
X4415Y13435D02*
X5254Y14274D01*
X4807Y14172D02*
X5168Y13811D01*
X4916Y13435D02*
X5138Y13657D01*
X4682Y14047D02*
X5138Y13590D01*
X4666Y13435D02*
X5304Y14073D01*
X5041Y14282D02*
Y14970D01*
X4671Y14036D02*
X4917Y14282D01*
X4165Y13435D02*
X5011Y14282D01*
X4541Y13435D02*
X5041D01*
X4041D02*
X4490D01*
X4541D01*
X5041Y13309D02*
X5138Y13406D01*
X5041Y12795D02*
X5269D01*
X4508Y13969D02*
X5138Y13340D01*
X4462Y11260D02*
X5145Y10576D01*
X4587Y10099D02*
X5180Y10693D01*
X4587Y9848D02*
X5138Y10399D01*
X4587Y10349D02*
X5093Y10856D01*
X4211Y11260D02*
X5138Y10333D01*
X5041Y12795D02*
Y13435D01*
X4682Y11260D02*
X5058Y10884D01*
X4258Y13969D02*
X4792Y13435D01*
X4490D02*
X4541D01*
X4558Y10571D02*
X4964Y10978D01*
X4587Y9665D02*
Y10571D01*
X4057D02*
X4714Y11228D01*
X4307Y10571D02*
X4839Y11103D01*
X5446Y9524D02*
X5565Y9405D01*
X4978Y9237D02*
X5330Y9590D01*
X4853Y9363D02*
X5211Y9721D01*
X4587Y9882D02*
X5245Y9224D01*
X5651Y9409D02*
X5743Y9501D01*
X5723Y9497D02*
X5878Y9342D01*
X5103Y9112D02*
X5498Y9506D01*
X5236Y7992D02*
X5292Y8048D01*
X4727Y9488D02*
X5144Y9904D01*
X4742Y8500D02*
X4843Y8601D01*
X4602Y9613D02*
X5138Y10149D01*
X4716Y8500D02*
X4807Y8409D01*
Y8158D02*
X4843Y8123D01*
X4807Y8064D02*
X4843Y8100D01*
X4807Y8409D02*
X4843Y8374D01*
X4807Y8315D02*
X4843Y8350D01*
X5546Y7921D02*
X5632Y7835D01*
X5236Y7742D02*
X5444Y7950D01*
X5236Y7980D02*
X5426Y7790D01*
X5236Y7717D02*
Y8110D01*
X5577Y7832D02*
X5659Y7914D01*
X5236Y7729D02*
X5278Y7687D01*
X4807Y7827D02*
Y8500D01*
X4843Y7798D02*
Y8816D01*
X4807Y7908D02*
X4843Y7872D01*
X4592Y7598D02*
X4843Y7849D01*
X5033Y7432D02*
X5138Y7327D01*
X4864Y7262D02*
X5179Y7577D01*
X4638Y7827D02*
X4754Y7710D01*
X4643Y7598D02*
X4843Y7798D01*
X4587Y10383D02*
X5173Y9796D01*
X4587Y10133D02*
X5379Y9341D01*
X4553Y9665D02*
X5159Y9059D01*
X4550Y9665D02*
X5158Y9057D01*
X4550Y9665D02*
X4587D01*
X4438Y8948D02*
X4574Y9084D01*
X4349Y9037D02*
X4509Y8877D01*
X4142Y9516D02*
X4843Y8816D01*
X4202Y9213D02*
X4324Y9335D01*
X4052Y9665D02*
X4086Y9631D01*
X4272Y9085D02*
Y9213D01*
X4308Y9068D02*
X4449Y9210D01*
X4567Y8576D02*
X4825Y8834D01*
X4567Y8649D02*
X4716Y8500D01*
X4552Y8812D02*
X4700Y8959D01*
X4272Y9195D02*
X4843Y8624D01*
X4567Y8500D02*
X4807D01*
X4387Y7827D02*
X4615Y7598D01*
X4092D02*
X4643D01*
X4341D02*
X4570Y7827D01*
X4567Y8500D02*
Y8737D01*
X4132Y8583D02*
X4173Y8542D01*
Y8500D02*
Y8583D01*
X4137Y7827D02*
X4365Y7598D01*
X4012Y8500D02*
X4173D01*
X4091Y7598D02*
X4319Y7827D01*
X6714Y7215D02*
X6811Y7312D01*
Y6617D02*
Y7421D01*
X6714Y7254D02*
X6811Y7157D01*
X6714Y6965D02*
X6811Y7062D01*
X6714Y6714D02*
X6811Y6811D01*
X6714Y6752D02*
X6811Y6656D01*
X6714Y7003D02*
X6811Y6906D01*
X6714Y6714D02*
X6811Y6811D01*
X6714Y6534D02*
Y7403D01*
X6122Y6831D02*
Y7343D01*
X6140Y6534D02*
Y7403D01*
Y6575D02*
X6181Y6534D01*
X6682D02*
X6705Y6511D01*
X6432Y6534D02*
X6580Y6386D01*
X6140Y6534D02*
X6714D01*
X6278Y6084D02*
X6811Y6617D01*
X6181Y6534D02*
X6454Y6260D01*
X6161Y4390D02*
X6285D01*
X6122Y5630D02*
Y5768D01*
X6220Y5630D02*
Y5945D01*
X6113Y5862D02*
X6222Y5972D01*
X6115Y5848D02*
X6220Y5743D01*
X6131Y5630D02*
X6220Y5719D01*
X6161Y3484D02*
Y4390D01*
X6122Y5630D02*
X6220D01*
X6098Y4344D02*
X6188Y4434D01*
X6081Y6634D02*
X6140Y6575D01*
X6040Y6040D02*
X6534Y6534D01*
X5745Y6246D02*
X6140Y6641D01*
X6040Y6040D02*
X6534Y6534D01*
X5980Y6485D02*
X6329Y6135D01*
X6083Y5000D02*
X6166D01*
X5917Y6167D02*
X6283Y6534D01*
X5832Y6382D02*
X6225Y5988D01*
X4882Y6135D02*
X5257Y6510D01*
X4807Y6906D02*
X5477Y6236D01*
X4807Y6655D02*
X5316Y6146D01*
X5625Y6339D02*
X5710Y6253D01*
X5487Y6239D02*
X5589Y6340D01*
X4882Y5884D02*
X5396Y6398D01*
X6083Y5000D02*
Y5063D01*
X6014Y4948D02*
X6072Y4889D01*
X5879Y4832D02*
X6034Y4677D01*
X6009Y4506D02*
X6069Y4566D01*
X5873Y4621D02*
X6035Y4783D01*
X5374Y4836D02*
X5534Y4676D01*
X4882Y5077D02*
X5357Y4602D01*
X4882Y4826D02*
X5229Y4479D01*
X4882Y4381D02*
X5351Y4850D01*
X5684Y4682D02*
X5794Y4792D01*
X5692Y4768D02*
X5809Y4651D01*
X5348Y4596D02*
X5526Y4775D01*
X4882Y4130D02*
X5227Y4475D01*
X6122Y3867D02*
X6161Y3906D01*
X6122Y3837D02*
X6161Y3797D01*
X6089Y4372D02*
X6161Y4299D01*
X6122Y4118D02*
X6161Y4157D01*
Y3484D02*
X6237D01*
X6161Y3547D02*
X6224Y3484D01*
X6117Y3612D02*
X6161Y3656D01*
X6119Y3366D02*
X6237Y3484D01*
X6122Y4087D02*
X6161Y4048D01*
X6122Y3681D02*
Y4193D01*
X6114Y3594D02*
X6161Y3547D01*
X6008Y3366D02*
X6119D01*
X6043Y3414D02*
X6092Y3366D01*
X5806Y1647D02*
X5945Y1509D01*
Y790D02*
Y1728D01*
X6498Y705D02*
X6615Y588D01*
X6339Y705D02*
X6632D01*
X5959Y197D02*
X6467Y705D01*
X6322Y630D02*
X6671Y281D01*
X6461Y197D02*
X6638Y374D01*
X6207Y495D02*
X6505Y197D01*
X6210D02*
X6616Y603D01*
X5844Y689D02*
X5945Y790D01*
X6064Y353D02*
X6281Y569D01*
X6081Y370D02*
X6254Y197D01*
X5905Y295D02*
X6004Y197D01*
X5345Y1587D02*
X5420Y1661D01*
X5559Y1300D02*
X5945Y1686D01*
X4744Y2208D02*
X5452Y1500D01*
X5407D02*
X5559D01*
X5509D02*
X5623Y1614D01*
X4114Y3366D02*
X5252D01*
X4114Y2972D02*
X5288D01*
X5233D02*
X5261Y2944D01*
X5220Y1712D02*
X5274Y1766D01*
X4854Y2599D02*
X5227Y2972D01*
X4883Y2049D02*
X5362Y1570D01*
X5587Y1616D02*
X5945Y1258D01*
X5559Y1049D02*
X5945Y1435D01*
X5559Y1393D02*
X5945Y1007D01*
X5559Y799D02*
X5945Y1184D01*
X5700Y689D02*
X5945Y934D01*
X5709Y197D02*
X5807Y295D01*
X5559Y1143D02*
X5928Y774D01*
X4214Y689D02*
X5844D01*
X5559Y705D02*
Y1500D01*
X5655Y295D02*
X5753Y197D01*
X4886Y705D02*
X5559D01*
Y892D02*
X5762Y689D01*
X5404Y295D02*
X5503Y197D01*
X5458D02*
X5557Y295D01*
X5154D02*
X5252Y197D01*
X5208D02*
X5306Y295D01*
X4807Y7062D02*
X5141Y7396D01*
X5138Y6831D02*
Y7343D01*
X4807Y7156D02*
X5138Y6825D01*
X4807Y6561D02*
X5138Y6892D01*
X4882Y6079D02*
X5141Y5820D01*
X4882Y5634D02*
X5159Y5911D01*
X4877Y6381D02*
X5165Y6669D01*
X4882Y6330D02*
X5202Y6010D01*
X4908Y7306D02*
X5138Y7076D01*
X4807Y6539D02*
Y7213D01*
Y6811D02*
X5138Y7142D01*
X4786Y6539D02*
X4807Y6561D01*
X4882Y5829D02*
X5138Y5573D01*
X4882Y5383D02*
X5138Y5639D01*
Y5256D02*
Y5768D01*
X4882Y5328D02*
X5210Y5000D01*
X4882Y4882D02*
X5149Y5149D01*
X4882Y4882D02*
X5149Y5149D01*
X4882Y4631D02*
X5226Y4975D01*
X4882Y4576D02*
X5151Y4307D01*
X4845Y3861D02*
X5155Y3551D01*
X4869Y3366D02*
X5140Y3637D01*
X4882Y5132D02*
X5138Y5388D01*
X4882Y4325D02*
X5138Y4069D01*
X4882Y5578D02*
X5138Y5322D01*
X4882Y3976D02*
Y6339D01*
Y4075D02*
X5138Y3819D01*
Y3681D02*
Y4193D01*
X4763Y6539D02*
X4807D01*
X4763D02*
X4824Y6478D01*
X4756Y7207D02*
X4807Y7156D01*
X4096Y4861D02*
X4488Y4469D01*
X4134Y6102D02*
Y6144D01*
X4236Y5472D02*
X4488Y5220D01*
X4098Y6102D02*
X4134Y6138D01*
X4096Y4848D02*
X4488Y5240D01*
X4096Y4597D02*
X4488Y4989D01*
X4096Y4347D02*
X4488Y4739D01*
X4034Y4923D02*
X4096Y4861D01*
Y4610D02*
X4488Y4218D01*
Y4058D02*
Y5472D01*
X4368Y3366D02*
X5138Y4136D01*
X4114Y4114D02*
X4488Y4488D01*
X4114Y4114D02*
X4488Y4488D01*
X4619Y3366D02*
X5138Y3885D01*
X4721Y3734D02*
X5089Y3366D01*
X4509Y3522D02*
X4824Y3837D01*
X4596Y3609D02*
X4839Y3366D01*
X4096Y4114D02*
Y4923D01*
X4114Y3864D02*
X4488Y4238D01*
X4096Y4054D02*
Y4114D01*
Y4360D02*
X4443Y4013D01*
X4114Y3858D02*
Y4114D01*
X4289Y3858D02*
X4488Y4058D01*
X4114Y4091D02*
X4318Y3887D01*
X4114Y3858D02*
X4289D01*
X5120Y3366D02*
X5198Y3445D01*
X4982Y2972D02*
X5168Y2787D01*
X4982Y2972D02*
X5168Y2787D01*
X4732Y2972D02*
X5138Y2566D01*
Y2106D02*
Y2618D01*
X4851Y2352D02*
X5140Y2063D01*
X4845Y2340D02*
X5138Y2633D01*
X4838Y2082D02*
X5138Y2382D01*
X4578Y2824D02*
X4726Y2972D01*
X4751Y2746D02*
X4977Y2972D01*
X4465Y3489D02*
X4588Y3366D01*
X4465Y3489D02*
X4588Y3366D01*
X4854Y2599D02*
X5138Y2316D01*
X4724Y2106D02*
Y2194D01*
X4481Y2972D02*
X4647Y2807D01*
X4969Y1963D02*
X5138Y2131D01*
X5095Y1837D02*
X5175Y1918D01*
X4663Y1713D02*
X4886Y1489D01*
X4488Y1713D02*
X4886Y1315D01*
X4903Y295D02*
X5002Y197D01*
X4957D02*
X5056Y295D01*
X4886Y705D02*
Y1489D01*
X4698Y689D02*
X4886Y877D01*
X4528Y1713D02*
X4663D01*
X4447Y689D02*
X4886Y1128D01*
X4653Y295D02*
X4751Y197D01*
X4707D02*
X4805Y295D01*
X4402D02*
X4501Y197D01*
X4456D02*
X4555Y295D01*
X4114Y3465D02*
X4370D01*
X4239D02*
X4338Y3366D01*
X4230Y2972D02*
X4400Y2803D01*
X4114Y2611D02*
X4476Y2972D01*
X4114Y2337D02*
X4331Y2121D01*
X4114Y3366D02*
Y3465D01*
X4118Y3366D02*
X4216Y3465D01*
X4114Y2861D02*
X4225Y2972D01*
X4114Y2224D02*
Y2972D01*
Y2838D02*
X4256Y2697D01*
X4114Y2588D02*
X4182Y2519D01*
X4114Y2360D02*
X4184Y2430D01*
X4111Y2106D02*
X4261Y2257D01*
X4232Y1713D02*
X4528D01*
X4238D02*
X4886Y1064D01*
X4189Y1183D02*
X4691Y1684D01*
X4214Y957D02*
X4816Y1559D01*
X4232Y1467D02*
X4886Y814D01*
X4214Y706D02*
X4886Y1378D01*
X4130Y1319D02*
X4760Y689D01*
X4214Y984D02*
X4509Y689D01*
X4331Y2106D02*
Y2194D01*
X4232Y1476D02*
X4469Y1713D01*
X4232Y1319D02*
Y1713D01*
X4214Y689D02*
Y1183D01*
Y734D02*
X4259Y689D01*
X4206Y197D02*
X4304Y295D01*
X4152D02*
X4250Y197D01*
X3986Y13969D02*
X4511D01*
X4007D02*
X4541Y13435D01*
X3892Y13834D02*
X4291Y13435D01*
X3914D02*
X4449Y13969D01*
X3806Y10571D02*
X4495Y11260D01*
X3976Y10571D02*
X4587D01*
X3760Y11260D02*
X4682D01*
X3760Y11210D02*
X4399Y10571D01*
X3990Y13435D02*
X4041D01*
X3990D02*
X4041D01*
X3760Y11026D02*
X3994Y11260D01*
X3760Y10807D02*
Y11260D01*
X3976Y10491D02*
X4057Y10571D01*
X3898Y10321D02*
X3976Y10242D01*
X3760Y10959D02*
X4148Y10571D01*
X3898Y10412D02*
X3976Y10491D01*
Y9741D02*
X4052Y9665D01*
X3976D02*
Y10571D01*
X3961Y11260D02*
X5138Y10083D01*
X3801Y9665D02*
X4254Y9213D01*
X3976Y9665D02*
X4085D01*
X3951Y9213D02*
X4199Y9460D01*
X3740Y9252D02*
X4092Y9604D01*
X3740Y9213D02*
X4272D01*
X3898Y10070D02*
X3976Y9991D01*
X3898Y9911D02*
X3976Y9990D01*
X3898Y10161D02*
X3976Y10240D01*
X3898Y9665D02*
Y10571D01*
Y9819D02*
X3976Y9741D01*
X3740Y9503D02*
X3976Y9739D01*
X3740Y9665D02*
X3898D01*
X3740Y9213D02*
Y9665D01*
X3664Y13435D02*
X4198Y13969D01*
X2915Y14310D02*
X3790Y13435D01*
X3143Y13832D02*
X3539Y13435D01*
X3723Y13753D02*
X4040Y13435D01*
X3490Y13417D02*
X3523D01*
X3490Y13435D02*
X3990D01*
X3395Y13417D02*
X3732Y13754D01*
X3194Y14282D02*
X3319Y14156D01*
X3116Y13890D02*
X3314Y14088D01*
X2990Y14282D02*
X3369D01*
X2993Y14017D02*
X3257Y14282D01*
X3150Y13673D02*
X3375Y13898D01*
X3150Y13422D02*
X3510Y13782D01*
X3701Y10807D02*
X3760D01*
X3701Y10716D02*
X4244Y11260D01*
X3150Y13574D02*
X3307Y13417D01*
X3150D02*
X3490D01*
X3701Y10571D02*
X3898D01*
X3740Y9476D02*
X4003Y9213D01*
X3701Y10571D02*
Y10807D01*
Y10768D02*
X3976Y10492D01*
X3257Y8957D02*
X3281Y8933D01*
X3150Y13417D02*
Y13780D01*
X2815Y8957D02*
X3304D01*
X3076Y8839D02*
X3194Y8957D01*
X3186Y8839D02*
X3304Y8957D01*
X2815Y8839D02*
X3186D01*
X3007Y8957D02*
X3125Y8839D01*
X3882Y8583D02*
X4012Y8453D01*
Y7827D02*
Y8500D01*
X3602Y8583D02*
X4173D01*
X3631D02*
X4012Y8202D01*
Y7827D02*
X4807D01*
X3563Y7321D02*
X4069Y7827D01*
X3602Y8583D02*
Y8698D01*
Y8611D02*
X3631Y8583D01*
X3563Y7572D02*
X4012Y8021D01*
X3563Y7649D02*
X3812Y7400D01*
X3804Y7392D02*
X3952Y7541D01*
X3563Y7398D02*
X3746Y7215D01*
X3819Y6458D02*
X3860Y6418D01*
X4134Y6144D01*
X3860Y6115D02*
X4011Y6266D01*
X3996Y6102D02*
X4134D01*
X3860Y6365D02*
X3886Y6391D01*
X3860Y6350D02*
X4107Y6102D01*
X3563Y7205D02*
Y7815D01*
X3746Y6613D02*
Y7253D01*
X3563Y7071D02*
X3746Y7254D01*
X3563Y6516D02*
Y7126D01*
Y6646D02*
X3751Y6458D01*
X3702D02*
X3767Y6524D01*
X3563Y6820D02*
X3746Y7003D01*
X3563Y6897D02*
X3746Y6714D01*
X3559Y8655D02*
X3602Y8611D01*
X3484Y8580D02*
X3602Y8698D01*
X3484Y8495D02*
X3602Y8613D01*
X3305Y7815D02*
X4073Y8583D01*
X3484Y8245D02*
X3822Y8583D01*
X3556Y7815D02*
X4012Y8271D01*
X3484Y8479D02*
X4012Y7951D01*
X3484Y8228D02*
X4114Y7598D01*
X3448Y8209D02*
X3484Y8245D01*
Y8209D02*
Y8580D01*
X2815Y8209D02*
X3484D01*
X2697Y8264D02*
X3146Y7815D01*
X3069Y7829D02*
X3448Y8209D01*
X3084Y7815D02*
X3563D01*
X2944Y7955D02*
X3198Y8209D01*
X3003D02*
X3397Y7815D01*
X3254Y8209D02*
X3937Y7525D01*
X3506Y7205D02*
X3746Y6965D01*
X2718Y7205D02*
X3563D01*
X2718Y7126D02*
X3563D01*
Y6570D02*
X3746Y6753D01*
X3307Y6516D02*
X3563D01*
X3307Y6458D02*
X3819D01*
X3368Y7126D02*
X3446Y7205D01*
X3509Y6516D02*
X3563Y6570D01*
X3117Y7126D02*
X3196Y7205D01*
X3255D02*
X3334Y7126D01*
X3452Y6458D02*
X3509Y6516D01*
X3307Y6458D02*
Y6516D01*
X3443D02*
X3501Y6458D01*
X2933Y15315D02*
X2990D01*
Y14282D02*
Y15315D01*
X2933Y15294D02*
X2990Y15237D01*
X2933Y15210D02*
X2990Y15267D01*
X2933Y15043D02*
X2990Y14986D01*
X2933Y14959D02*
X2990Y15017D01*
X2915Y14811D02*
X2990Y14736D01*
X2915Y14440D02*
X2990Y14515D01*
X2895Y14921D02*
X2933Y14959D01*
Y14921D02*
Y15315D01*
X2554Y14921D02*
X2651Y14824D01*
X2798D02*
X2895Y14921D01*
X2915Y14691D02*
X2990Y14766D01*
X2915Y14560D02*
X2990Y14485D01*
X2805Y14921D02*
X2902Y14824D01*
X2915Y14250D02*
Y14824D01*
X2868Y14143D02*
X3007Y14282D01*
X2760Y14250D02*
X2915D01*
X2760D02*
X3092Y13919D01*
X2825Y8839D02*
X2944Y8957D01*
X2714Y8978D02*
X2815Y9079D01*
X2710Y9002D02*
X2874Y8839D01*
X2649Y9163D02*
X2696Y9210D01*
X2655Y9252D02*
X2774Y9132D01*
X2580Y9252D02*
X2655D01*
X2815Y8957D02*
Y9101D01*
Y8209D02*
Y8839D01*
X2718Y8731D02*
X2815Y8828D01*
X2718Y8406D02*
Y8917D01*
X2304Y14921D02*
X2400Y14824D01*
X2548D02*
X2644Y14921D01*
X2168D02*
X2933D01*
X2297Y14824D02*
X2394Y14921D01*
X2235Y14824D02*
X2915D01*
X1105Y9606D02*
X1220Y9490D01*
X787Y9289D02*
X1220Y9722D01*
X979Y9481D02*
X1220Y9240D01*
X1614Y9381D02*
X1647Y9414D01*
X1614Y9446D02*
X1751Y9310D01*
X1614Y9347D02*
X1824Y9137D01*
X1614Y9131D02*
X1773Y9290D01*
X1614Y9096D02*
X1771Y8940D01*
X1614Y8880D02*
X1791Y9057D01*
X1770Y8406D02*
Y8917D01*
X1614Y8846D02*
X1770Y8690D01*
X1614Y8630D02*
X1770Y8785D01*
X1614Y8271D02*
Y9446D01*
X1220Y8189D02*
Y9722D01*
X787Y9056D02*
X1220Y9489D01*
X854Y9355D02*
X1220Y8989D01*
X787Y8554D02*
X1220Y8987D01*
X787Y8921D02*
X1220Y8488D01*
X787Y8805D02*
X1220Y9238D01*
X787Y9172D02*
X1220Y8738D01*
X2718Y8744D02*
X2815Y8647D01*
X2718Y8481D02*
X2815Y8578D01*
X2718Y8494D02*
X2815Y8397D01*
X2652Y8164D02*
X2815Y8327D01*
X2801Y8063D02*
X2947Y8209D01*
X2885Y8013D02*
X3084Y7815D01*
X1810Y8074D02*
X1862Y8125D01*
X2580Y8071D02*
X2746D01*
X2608Y8102D02*
X2640Y8071D01*
X1814D02*
X1908D01*
X1781Y7677D02*
X1851Y7607D01*
X2867Y7126D02*
X2945Y7205D01*
X3005D02*
X3083Y7126D01*
X2718D02*
Y7205D01*
X2754D02*
X2833Y7126D01*
X2657Y6516D02*
X2913D01*
X2692D02*
X2913Y6294D01*
X2454Y6213D02*
X2758Y6516D01*
X2600Y6108D02*
X2913Y6421D01*
X2657Y6516D02*
Y6599D01*
Y6550D02*
X2692Y6516D01*
X2340Y6366D02*
X2568Y6139D01*
X2251Y6260D02*
X2363Y6372D01*
X2063Y6393D02*
X2198Y6258D01*
X1614Y8595D02*
X1770Y8439D01*
X1614Y8379D02*
X1770Y8535D01*
X1614Y8345D02*
X1888Y8071D01*
X1685Y8199D02*
X1783Y8297D01*
X1732Y7677D02*
X1908D01*
X1614Y8271D02*
X1814Y8071D01*
X787Y8053D02*
X1220Y8486D01*
X787Y7803D02*
X1220Y8236D01*
X787Y8304D02*
X1220Y8737D01*
X787Y8670D02*
X1220Y8237D01*
X1278Y8050D02*
X1593Y7735D01*
X787Y8420D02*
X1778Y7429D01*
X787Y8169D02*
X1770Y7187D01*
X787Y7668D02*
X1806Y6650D01*
X787Y7167D02*
X1869Y6086D01*
X787Y6550D02*
X1867Y7629D01*
X787Y7418D02*
X2006Y6199D01*
X787Y7051D02*
X1532Y7796D01*
X787Y7919D02*
X1770Y6936D01*
X787Y7552D02*
X1282Y8046D01*
X787Y7302D02*
X1407Y7921D01*
X1770Y6831D02*
Y7343D01*
X787Y6801D02*
X1673Y7686D01*
X787Y6299D02*
X1770Y7282D01*
X3860Y6099D02*
X3996Y5963D01*
Y5472D02*
Y6102D01*
X3724Y5728D02*
X3996Y6000D01*
X3844Y5865D02*
X3996Y5712D01*
X3878Y5632D02*
X3996Y5750D01*
Y5472D02*
X4488D01*
X3878Y5131D02*
X4220Y5472D01*
X3878Y5580D02*
X4488Y4970D01*
X3860Y5865D02*
Y6418D01*
X3593Y5865D02*
X3729Y5728D01*
X3473D02*
X3610Y5865D01*
X3878Y5381D02*
X3996Y5499D01*
X3878Y5098D02*
Y5728D01*
X3846Y5098D02*
X3878Y5131D01*
X3425Y4928D02*
X3595Y5098D01*
X3921Y4923D02*
X4470Y5472D01*
X3878Y5329D02*
X4488Y4719D01*
X3670Y4923D02*
X3846Y5098D01*
X3858D02*
X4034Y4923D01*
X3522D02*
X4096D01*
X3608Y5098D02*
X3783Y4923D01*
X3522Y4114D02*
Y4923D01*
X3425Y4780D02*
X3522Y4683D01*
X3425Y4678D02*
X3522Y4775D01*
X3425Y4427D02*
X3522Y4524D01*
X3425Y4279D02*
X3522Y4182D01*
X3425Y4529D02*
X3522Y4432D01*
X3425Y4529D02*
X3522Y4432D01*
X3307Y5813D02*
X3359Y5865D01*
X3343D02*
X3479Y5728D01*
X3307Y5865D02*
X3860D01*
X3307Y5728D02*
Y5865D01*
Y5728D02*
X3878D01*
X2971Y5451D02*
X3148Y5274D01*
X2699Y5956D02*
X2913Y6171D01*
Y5591D02*
Y6516D01*
X2515Y6442D02*
X2913Y6043D01*
X2736Y5719D02*
X2922Y5534D01*
X2736Y5492D02*
X2913Y5669D01*
X2615Y6091D02*
X2913Y5793D01*
X2736Y5743D02*
X2913Y5920D01*
X3209Y5098D02*
Y5233D01*
X3357Y5098D02*
X3533Y4923D01*
X2736Y5469D02*
X3264Y4941D01*
X3209Y5098D02*
X3878D01*
X3425Y4114D02*
Y4941D01*
X2815D02*
X3425D01*
X3187D02*
X3345Y5098D01*
X2736Y5242D02*
X2959Y5465D01*
X2735Y5220D02*
X3014Y4941D01*
X2666Y4921D02*
X3084Y5339D01*
X2735Y5220D02*
X3014Y4941D01*
X2937D02*
X3209Y5213D01*
X2605Y4921D02*
X2815D01*
X2679Y5025D02*
X2783Y4921D01*
X3610Y2106D02*
X3728Y2224D01*
X3726D02*
X3844Y2106D01*
X3522Y4054D02*
Y4114D01*
X3425Y2274D02*
X3593Y2106D01*
X3976Y2224D02*
X4094Y2106D01*
X3999Y1319D02*
X4232D01*
X3504Y2224D02*
X4114D01*
X3860Y2106D02*
X3978Y2224D01*
X3425Y4177D02*
X3522Y4274D01*
X3504Y3366D02*
Y4114D01*
X3425Y4035D02*
Y4114D01*
Y4035D02*
Y4114D01*
X3479Y2972D02*
X3504Y2947D01*
Y2224D02*
Y2972D01*
X3425Y3366D02*
Y4035D01*
Y2423D02*
X3504Y2502D01*
X3939Y1183D02*
X4075Y1319D01*
X3939Y1259D02*
X4016Y1183D01*
X3863D02*
X4214D01*
X3863D02*
X3999Y1319D01*
X3901Y295D02*
X3999Y197D01*
X3955D02*
X4054Y295D01*
X3581Y689D02*
Y901D01*
X3446Y766D02*
X3581Y901D01*
X3445Y689D02*
X3581Y825D01*
X3650Y295D02*
X3749Y197D01*
X3705D02*
X3803Y295D01*
X3438Y758D02*
X3507Y689D01*
X3454Y197D02*
X3552Y295D01*
X3425Y3778D02*
X3504Y3699D01*
X3425Y3676D02*
X3504Y3754D01*
X3425Y4028D02*
X3504Y3949D01*
X3425Y3926D02*
X3504Y4005D01*
X3425Y3425D02*
X3504Y3504D01*
X3425Y3366D02*
X3504D01*
X3425Y3527D02*
X3504Y3448D01*
X3425Y3425D02*
X3504Y3504D01*
X3425Y2775D02*
X3504Y2697D01*
X3425Y2224D02*
Y2972D01*
X3504D01*
X3425Y2924D02*
X3474Y2972D01*
X3425Y2674D02*
X3504Y2752D01*
X3425Y2525D02*
X3504Y2446D01*
X3317Y2224D02*
X3425D01*
X3359Y2106D02*
X3504Y2251D01*
X3317Y2132D02*
X3343Y2106D01*
X3317D02*
X4331D01*
X2657Y689D02*
X3581D01*
X3400Y295D02*
X3498Y197D01*
X2106Y295D02*
X5925D01*
X197Y197D02*
X6716D01*
X3317Y2106D02*
Y2224D01*
X3203Y197D02*
X3302Y295D01*
X2657Y709D02*
X3307D01*
X3149Y295D02*
X3248Y197D01*
X2899Y295D02*
X2997Y197D01*
X2953D02*
X3051Y295D01*
X2648D02*
X2747Y197D01*
X2702D02*
X2801Y295D01*
X2736Y5256D02*
Y5768D01*
X824Y5084D02*
X2115Y6375D01*
X787Y6165D02*
X1756Y5197D01*
X787Y5914D02*
X1780Y4921D01*
X987D02*
X1883D01*
X1664D02*
X1796Y5053D01*
X1752Y5256D02*
Y5768D01*
X1163Y4921D02*
X1752Y5510D01*
X950Y4959D02*
X1752Y5761D01*
X787Y5664D02*
X1530Y4921D01*
X787Y5413D02*
X1279Y4921D01*
X1414D02*
X1752Y5260D01*
X787Y5163D02*
X1029Y4921D01*
X787Y5121D02*
X987Y4921D01*
X906Y3091D02*
X1037D01*
X827Y3082D02*
X934Y3189D01*
X827Y2831D02*
X906Y2910D01*
X827Y2581D02*
X906Y2659D01*
X924Y1337D02*
Y2185D01*
X827Y2618D02*
X906Y2539D01*
X827Y2080D02*
X924Y2176D01*
X827Y2224D02*
Y3091D01*
X906Y2185D02*
Y3091D01*
X827Y2868D02*
X906Y2790D01*
X827Y2330D02*
X906Y2409D01*
X827Y2185D02*
Y2224D01*
Y1319D02*
Y2185D01*
Y2367D02*
X906Y2289D01*
X827Y2185D02*
Y2224D01*
X787Y6917D02*
X1778Y5926D01*
X787Y5798D02*
X1772Y6783D01*
X787Y7167D02*
X1869Y6086D01*
X787Y6049D02*
X1770Y7032D01*
X787Y6415D02*
X1752Y5451D01*
X787Y5297D02*
X1949Y6459D01*
X787Y6666D02*
X1752Y5701D01*
X787Y5548D02*
X1833Y6594D01*
X787Y5121D02*
Y9289D01*
X473Y3730D02*
X535Y3793D01*
X472Y3731D02*
Y3855D01*
X879Y3449D01*
X709Y3465D02*
X786Y3542D01*
X599Y3605D02*
X661Y3667D01*
X472Y3731D02*
X661Y3543D01*
X689Y3507D02*
X880Y3316D01*
X719Y3091D02*
Y3404D01*
X197Y3450D02*
X325Y3322D01*
X719Y3224D02*
X873Y3379D01*
X719Y3227D02*
X906Y3040D01*
X217Y3091D02*
X325D01*
X719D02*
X827D01*
X325D02*
Y3322D01*
X197Y197D02*
Y3450D01*
Y3203D02*
X320Y3327D01*
X197Y3248D02*
X325Y3120D01*
X217Y2185D02*
Y2224D01*
Y1319D02*
Y2185D01*
Y2224D02*
Y3091D01*
Y2185D02*
Y2224D01*
X1498Y1498D02*
X1632Y1632D01*
X1498Y1696D02*
X1718Y1476D01*
X1498Y1767D02*
X1789Y1476D01*
X1498D02*
Y1767D01*
Y1498D02*
X1632Y1632D01*
X1727Y1476D02*
X1758Y1507D01*
X1498Y1476D02*
X1789D01*
X1358Y571D02*
X1812D01*
X1358Y1102D02*
Y1337D01*
X1151Y1151D02*
X1337Y1337D01*
X1192Y1102D02*
X1358D01*
X1233Y709D02*
X1358Y583D01*
X1151Y1151D02*
X1337Y1337D01*
X1192Y709D02*
X1358D01*
X1621Y571D02*
X1995Y197D01*
X1951D02*
X2056Y302D01*
X2398Y295D02*
X2496Y197D01*
X2452D02*
X2550Y295D01*
X2147D02*
X2246Y197D01*
X2201D02*
X2300Y295D01*
X1358Y571D02*
Y709D01*
X1199Y197D02*
X1573Y571D01*
X1869Y451D02*
X1967Y353D01*
X1700Y197D02*
X1912Y408D01*
X1370Y571D02*
X1744Y197D01*
X1450D02*
X1813Y561D01*
X827Y2117D02*
X924Y2020D01*
X827Y1578D02*
X924Y1675D01*
X827Y1616D02*
X924Y1519D01*
X992Y1242D02*
X1086Y1337D01*
X1105D02*
X1340Y1102D01*
X924Y1337D02*
X1358D01*
X827Y1365D02*
X941Y1251D01*
X827Y1829D02*
X924Y1926D01*
X827Y1866D02*
X924Y1769D01*
X827Y1328D02*
X924Y1425D01*
X217Y1319D02*
X827D01*
X622D02*
X734Y1208D01*
X372Y1319D02*
X607Y1084D01*
X197Y1199D02*
X317Y1319D01*
X197Y949D02*
X567Y1319D01*
X698Y197D02*
X1210Y709D01*
X197Y698D02*
X818Y1319D01*
X197Y993D02*
X993Y197D01*
X949D02*
X1358Y607D01*
X1084Y607D02*
X1494Y197D01*
X447D02*
X819Y569D01*
X881Y559D02*
X1243Y197D01*
X197Y742D02*
X742Y197D01*
X197D02*
X660Y660D01*
X197Y1243D02*
X559Y881D01*
X197Y447D02*
X569Y819D01*
X197Y492D02*
X492Y197D01*
X197Y241D02*
X241Y197D01*
X197D02*
X660Y660D01*
X2559Y14173D02*
X2953Y13780D01*
Y12323D02*
Y13780D01*
Y12323D02*
X3071Y12205D01*
X13167Y10333D02*
X13691D01*
X13093Y10258D02*
X13167Y10333D01*
X13093Y9663D02*
Y10258D01*
X14252Y15118D02*
Y15157D01*
X11575Y14606D02*
X12126Y15157D01*
X14252D01*
X15118Y14094D02*
X15157Y14055D01*
Y13346D02*
Y14055D01*
X9528Y13425D02*
X9567D01*
X14931Y6299D02*
X14961Y6329D01*
X14409Y6299D02*
X14931D01*
X13465Y5000D02*
X14409D01*
X14646D01*
X14409D02*
X14409Y5000D01*
X1890Y9449D02*
X2736D01*
X2913Y9272D01*
X3150D01*
X1732Y7874D02*
X2746D01*
X1417Y8189D02*
X1732Y7874D01*
X1417Y8189D02*
Y11181D01*
X3337Y11772D02*
X3376Y11811D01*
X3307Y11772D02*
X3337D01*
X2884Y11801D02*
X3307D01*
X2756Y11929D02*
X2884Y11801D01*
X787Y11247D02*
X1181Y10853D01*
X787Y11811D02*
X1417Y11181D01*
X3150Y8524D02*
X3543Y8917D01*
Y10069D01*
X4409Y11811D02*
X4726Y12128D01*
X3376Y11811D02*
X4409D01*
X4766Y12598D02*
Y12835D01*
X4726Y12128D02*
Y12835D01*
X4266Y14882D02*
Y15512D01*
X9840Y12126D02*
X10669D01*
X9180Y12786D02*
X9840Y12126D01*
X11614Y11693D02*
X12362D01*
X12084Y8189D02*
X12244D01*
X10558Y9715D02*
X12084Y8189D01*
X10558Y9715D02*
Y9718D01*
X10443Y9833D02*
X10558Y9718D01*
X10630Y10079D02*
X10709Y10157D01*
X12609Y8661D02*
X12992D01*
X12290Y8980D02*
X12609Y8661D01*
X12290Y8980D02*
Y9284D01*
X12628Y8865D02*
X12920D01*
X12133Y8915D02*
Y9166D01*
X12448Y9046D02*
X12628Y8865D01*
X12920D02*
X13140Y9085D01*
X14262D01*
X9180Y12786D02*
Y13293D01*
X8661Y13812D02*
X9180Y13293D01*
X11290Y12001D02*
X12749D01*
X9427Y11833D02*
X10089D01*
X8970Y12290D02*
X9427Y11833D01*
X8970Y12290D02*
Y12939D01*
Y11424D02*
Y11939D01*
X8661Y12247D02*
X8970Y11939D01*
X8661Y13247D02*
X8970Y12939D01*
X8661Y13247D02*
Y13311D01*
X276Y11799D02*
X787Y12311D01*
X276Y3650D02*
Y11799D01*
Y3650D02*
X522Y3404D01*
X433Y10504D02*
X740Y10811D01*
X433Y4173D02*
Y10504D01*
Y4173D02*
X1220Y3386D01*
X7480Y6588D02*
Y11181D01*
X7138Y11524D02*
X7480Y11181D01*
X7087Y11524D02*
X7138D01*
X6811Y5919D02*
X7480Y6588D01*
X7205Y5689D02*
X7382D01*
X7116Y6644D02*
Y6969D01*
X6417Y5945D02*
X7116Y6644D01*
X6417Y5315D02*
Y5945D01*
X12749Y12001D02*
X13110Y12362D01*
Y12726D01*
X3543Y10069D02*
X3593Y10118D01*
X3504Y10207D02*
Y11191D01*
X3307D02*
X3504D01*
Y10207D02*
X3593Y10118D01*
X12165Y6890D02*
X12858Y7583D01*
X14280D01*
Y7587D02*
X14470Y7777D01*
Y9349D01*
X9441Y10079D02*
X10630D01*
X8708Y10811D02*
X9441Y10079D01*
X13173Y9583D02*
X14236D01*
X13093Y9663D02*
X13173Y9583D01*
X14236D02*
X14470Y9349D01*
X14313Y7935D02*
Y9034D01*
X14262Y9085D02*
X14313Y9034D01*
X8598Y12811D02*
X8661D01*
X8196Y12408D02*
X8598Y12811D01*
X8196Y10000D02*
Y12408D01*
X12992Y8661D02*
X13163Y8833D01*
X13691D01*
X12677Y10217D02*
Y10315D01*
X8602Y5413D02*
Y5965D01*
X8425Y5236D02*
X8602Y5413D01*
X8425Y4440D02*
Y5236D01*
X8602Y4486D02*
Y4744D01*
Y4486D02*
X8836Y4252D01*
X8425Y4440D02*
X8771Y4094D01*
X8091Y2688D02*
Y6300D01*
Y2688D02*
X8351Y2427D01*
X8091Y6300D02*
X8257Y6467D01*
X8771Y4094D02*
X11575D01*
X8836Y4252D02*
X11510D01*
X11850Y4593D02*
Y4999D01*
X11510Y4252D02*
X11850Y4593D01*
X12008Y4528D02*
Y4934D01*
X11575Y4094D02*
X12008Y4528D01*
X12008Y7244D02*
X12776Y8012D01*
X12008Y6037D02*
X12205Y5840D01*
X12008Y6037D02*
Y7244D01*
X12165Y6102D02*
Y6890D01*
Y6102D02*
X12362Y5906D01*
X12205Y5353D02*
Y5840D01*
X12362Y5288D02*
Y5906D01*
X10089Y9833D02*
X10443D01*
X10089Y11333D02*
X10636D01*
X12520Y5197D02*
Y6378D01*
X12165Y4843D02*
X12520Y5197D01*
X12008Y4934D02*
X12362Y5288D01*
X11850Y4999D02*
X12205Y5353D01*
X10089Y5833D02*
X11339D01*
X11541Y5630D01*
X11614D01*
X12480Y6417D02*
X12520Y6378D01*
X13110Y4646D02*
X13465Y5000D01*
X12835Y4646D02*
X13110D01*
X14888Y11096D02*
X14961Y11024D01*
X11772Y7756D02*
Y8216D01*
X10774Y9214D02*
X11772Y8216D01*
X10774Y9214D02*
Y9226D01*
X10667Y9333D02*
X10774Y9226D01*
X10089Y9333D02*
X10667D01*
X13081Y7333D02*
X13691D01*
X12835Y7087D02*
X13081Y7333D01*
X8351Y2427D02*
X8656D01*
X8731Y6467D02*
X8996Y6201D01*
X8257Y6467D02*
X8731D01*
X8996Y5965D02*
Y6201D01*
X8819Y6641D02*
X9193Y6267D01*
X8976Y6732D02*
X9370Y6339D01*
X8976Y6732D02*
Y7323D01*
X9173Y6772D02*
X9612Y6333D01*
X9193Y5965D02*
Y6267D01*
X9370Y5768D02*
Y6339D01*
X9370Y7046D02*
X9583Y6833D01*
X8701Y7598D02*
X8976Y7323D01*
X8333Y7691D02*
X8819Y7205D01*
Y6641D02*
Y7205D01*
X8333Y7691D02*
Y8853D01*
X8701Y7598D02*
Y8386D01*
X9612Y6333D02*
X10089D01*
X9583Y6833D02*
X10089D01*
X8996Y5394D02*
X9370Y5768D01*
X8996Y4744D02*
Y5394D01*
X9193Y4744D02*
X9823D01*
X9921Y4843D01*
X8333Y8853D02*
X8583Y9103D01*
X10039Y14606D02*
X11575D01*
X10000Y14646D02*
X10039Y14606D01*
X13116Y11333D02*
X13691D01*
X13071Y11378D02*
X13116Y11333D01*
X13071Y11378D02*
Y12008D01*
X13691Y7833D02*
X14211D01*
X14313Y7935D01*
X8353Y10072D02*
Y11439D01*
X8661Y10811D02*
X8708D01*
X9657Y10315D02*
X9803D01*
X8661Y11311D02*
X9657Y10315D01*
X9561Y10833D02*
X10089D01*
X8970Y11424D02*
X9561Y10833D01*
X8661Y12247D02*
Y12311D01*
X8353Y11439D02*
X8661Y11747D01*
X740Y10811D02*
X787D01*
X7156Y3701D02*
X7205Y3750D01*
Y4941D01*
X3110Y2667D02*
X3120Y2677D01*
X3110Y1260D02*
Y2667D01*
X3120Y1890D02*
Y2677D01*
Y1890D02*
X3140Y1909D01*
X906Y906D02*
X1545D01*
X3120Y3661D02*
Y4488D01*
X787Y11247D02*
Y11311D01*
X3287Y5413D02*
X3543D01*
X3110Y5591D02*
X3287Y5413D01*
X3110Y5591D02*
Y6821D01*
X2746Y7874D02*
X3110Y7510D01*
X522Y1772D02*
Y2638D01*
Y3404D01*
X1211Y2638D02*
X1417D01*
X1575Y2480D01*
X2234Y906D02*
X3307D01*
X3898Y1496D01*
Y1634D01*
X13386Y13415D02*
X14026D01*
X14331Y13720D01*
X13780Y14094D02*
X15118D01*
X13465Y14409D02*
X13780Y14094D01*
X8661Y11747D02*
Y11811D01*
X8569Y10218D02*
X8661Y10311D01*
X11575Y10866D02*
X13657D01*
X13691Y10833D01*
X12362Y11693D02*
X12959Y11096D01*
X14888D01*
X10787Y13425D02*
Y14232D01*
X3809Y3661D02*
X4370D01*
X8656Y2427D02*
X8858Y2629D01*
X14173Y3150D02*
Y4291D01*
X12323Y3386D02*
Y4724D01*
Y3386D02*
X12559Y3150D01*
X14173D01*
X8504Y1929D02*
X9272D01*
X10098Y2756D01*
X10394Y2598D02*
X11811D01*
X12165Y2953D01*
Y4843D01*
X11496Y3110D02*
X11575D01*
X11260Y3346D02*
X11496Y3110D01*
X8858Y2629D02*
Y3268D01*
X8937Y3346D01*
X11260D01*
X10873Y9875D02*
X10906Y9843D01*
X11188Y10387D02*
X12290Y9284D01*
X11031Y10269D02*
X12133Y9166D01*
X11031Y12684D02*
X11063Y12717D01*
X10709Y10157D02*
Y11260D01*
X10636Y11333D02*
X10709Y11260D01*
X10873Y9875D02*
Y11922D01*
X10669Y12126D02*
X10873Y11922D01*
X11031Y10269D02*
Y12684D01*
X11188Y10387D02*
Y11899D01*
X11290Y12001D01*
X14409Y6299D02*
Y7126D01*
X14537Y7254D01*
X14409Y5000D02*
Y6299D01*
X14537Y7254D02*
X14961D01*
X13071Y12008D02*
X13346Y12283D01*
X13701D01*
X13819Y12402D01*
X6506Y980D02*
Y1969D01*
X7156Y3701D02*
X7195Y3661D01*
Y2126D02*
Y3661D01*
X6510Y1181D02*
X7205D01*
X5222Y1102D02*
Y1431D01*
X4744Y1909D02*
X5222Y1431D01*
X1575Y1969D02*
Y2480D01*
X1654Y9685D02*
X1890Y9449D01*
X1654Y9685D02*
Y12323D01*
X1929Y12598D01*
X3766Y12348D02*
Y12835D01*
X1535Y13559D02*
Y14537D01*
X787Y12811D02*
X1535Y13559D01*
X3622Y12205D02*
X3766Y12348D01*
X1309Y14882D02*
X1929D01*
X2047Y14764D01*
X787Y13810D02*
X1181Y14204D01*
Y14754D01*
X1309Y14882D01*
X4766Y12598D02*
X6457D01*
X12323Y4724D02*
X12835Y5236D01*
Y6063D01*
X12133Y8915D02*
X12715Y8333D01*
X13425D01*
X12448Y9046D02*
Y9988D01*
X12677Y10217D01*
X4764Y11457D02*
X5197Y11024D01*
X6587D01*
X7087Y11524D01*
X2736Y3169D02*
X3809D01*
X2244Y3661D02*
X2736Y3169D01*
X2244Y3661D02*
Y3937D01*
X3809Y2677D02*
Y3169D01*
Y3661D01*
X6811Y3150D02*
Y5919D01*
X6142Y2480D02*
X6811Y3150D01*
X6201Y3169D02*
X6467Y3435D01*
X3809Y3169D02*
X6201D01*
X6467Y3435D02*
Y3937D01*
X4528Y1909D02*
Y2480D01*
X3140Y1909D02*
X4528D01*
X4744D01*
X3071Y12205D02*
X3622D01*
X1929Y12598D02*
X2441D01*
X2756Y12283D01*
Y11929D02*
Y12283D01*
X6457Y12598D02*
X7313Y13455D01*
Y15197D01*
X2323Y11457D02*
X4764D01*
X6378Y4724D02*
X6417Y4764D01*
Y5315D01*
X4370Y3661D02*
X4685Y3976D01*
X1181Y9961D02*
Y10853D01*
X3071Y4724D02*
X3120Y4675D01*
Y4488D02*
Y4675D01*
X2106Y492D02*
X5925D01*
X6142Y709D01*
Y2480D01*
X2008Y591D02*
X2106Y492D01*
X2008Y591D02*
Y1535D01*
X1575Y1969D02*
X2008Y1535D01*
X7205Y1181D02*
X7559Y1535D01*
Y5512D01*
X7382Y5689D02*
X7559Y5512D01*
X591Y9370D02*
X1181Y9961D01*
X591Y5039D02*
Y9370D01*
Y5039D02*
X906Y4724D01*
X3071D01*
X4331Y5787D02*
Y6225D01*
X3943Y6613D02*
Y7253D01*
X4092Y7402D01*
X3943Y6613D02*
X4331Y6225D01*
X3937Y8898D02*
X4210D01*
X4370Y8737D01*
Y8242D02*
Y8737D01*
X4685Y3976D02*
Y6339D01*
X4370Y6654D02*
X4685Y6339D01*
X4370Y6654D02*
Y6955D01*
X4092Y7402D02*
X4724D01*
X5039Y7717D01*
X4281Y9656D02*
Y10118D01*
X5039Y7717D02*
Y8898D01*
X4281Y9656D02*
X5039Y8898D01*
X9173Y6772D02*
Y9339D01*
X9370Y7046D02*
Y9409D01*
X8196Y10000D02*
X8497Y9699D01*
X8814D01*
X9173Y9339D01*
X8353Y10072D02*
X8544Y9882D01*
X8898D01*
X9370Y9409D01*
X2480Y15394D02*
X2598Y15512D01*
X6467D02*
X6624Y15354D01*
X2480Y15226D02*
Y15394D01*
X1535Y15226D02*
X1614D01*
X2441D01*
X2598Y15512D02*
X6467D01*
X2047Y14291D02*
Y14764D01*
Y14291D02*
X2165Y14173D01*
X2559D01*
D11*
X4766Y14882D02*
D03*
X4266D02*
D03*
X3766D02*
D03*
X4766Y12835D02*
D03*
X4266D02*
D03*
X3766D02*
D03*
X3266Y14882D02*
D03*
Y12835D02*
D03*
D13*
X15197Y5000D02*
D03*
X14646D02*
D03*
X14724Y4252D02*
D03*
X14173D02*
D03*
D18*
X7285Y14291D02*
D03*
X6498D02*
D03*
D22*
X8504Y1929D02*
D03*
Y1378D02*
D03*
D25*
X4331Y5787D02*
D03*
X3543Y6161D02*
D03*
Y5413D02*
D03*
X3937Y8898D02*
D03*
X3150Y9272D02*
D03*
Y8524D02*
D03*
X3898Y1634D02*
D03*
Y886D02*
D03*
X3110Y1260D02*
D03*
X7205Y5689D02*
D03*
Y4941D02*
D03*
X6417Y5315D02*
D03*
X11575Y14606D02*
D03*
X10787Y14980D02*
D03*
Y14232D02*
D03*
X15118Y14094D02*
D03*
X14331Y14468D02*
D03*
Y13720D02*
D03*
D26*
X1614Y15226D02*
D03*
Y14537D02*
D03*
X2480Y15226D02*
D03*
Y14537D02*
D03*
X3110Y7510D02*
D03*
Y6821D02*
D03*
X3307Y11801D02*
D03*
Y11112D02*
D03*
X10945Y13415D02*
D03*
Y12726D02*
D03*
X13110Y13415D02*
D03*
Y12726D02*
D03*
X14961Y7943D02*
D03*
Y7254D02*
D03*
Y6291D02*
D03*
Y5602D02*
D03*
D27*
X3809Y2677D02*
D03*
X3120D02*
D03*
X7313Y15197D02*
D03*
X6624D02*
D03*
X4281Y10118D02*
D03*
X3593D02*
D03*
X3809Y3661D02*
D03*
X3120D02*
D03*
X3809Y4488D02*
D03*
X3120D02*
D03*
X7156Y3937D02*
D03*
X6467D02*
D03*
X7195Y1890D02*
D03*
X6506D02*
D03*
X7116Y6969D02*
D03*
X6427D02*
D03*
X2352Y1024D02*
D03*
X1663D02*
D03*
X1211Y2638D02*
D03*
X522D02*
D03*
X1211Y1772D02*
D03*
X522D02*
D03*
D28*
X11929Y12677D02*
D03*
X15079Y1299D02*
D03*
X591Y15039D02*
D03*
X7283Y551D02*
D03*
D29*
X14671Y9523D02*
X14961D01*
Y8733D02*
Y9023D01*
X14331Y14468D02*
Y14726D01*
Y14468D02*
X14608D01*
X14054D02*
X14331D01*
X13691Y9833D02*
X14244D01*
X14961Y5602D02*
X15356D01*
X15197Y5000D02*
X15454D01*
X15197Y4723D02*
Y5000D01*
X14961Y5354D02*
Y5602D01*
Y5850D01*
X14724Y4252D02*
X14982D01*
X14724D02*
Y4529D01*
Y3975D02*
Y4252D01*
X10787Y14980D02*
Y15238D01*
Y14980D02*
X11065D01*
X10089Y8833D02*
X10641D01*
X8504Y1378D02*
X8781D01*
X8504Y1120D02*
Y1378D01*
X8227D02*
X8504D01*
X6498Y14291D02*
X6755D01*
X6498Y13876D02*
Y14291D01*
X6240D02*
X6498D01*
X5709Y14370D02*
X6124D01*
X6797Y9524D02*
X7087D01*
X7087Y8734D02*
Y9024D01*
X6797D02*
X7087D01*
X5709Y14370D02*
Y14628D01*
X5294Y14370D02*
X5709D01*
X6427Y6969D02*
Y7364D01*
Y6969D02*
X6675D01*
X6427Y6573D02*
Y6969D01*
X6180D02*
X6427D01*
X3266Y12835D02*
Y13378D01*
X3543Y6161D02*
X3820D01*
X3543D02*
Y6419D01*
X2480Y14537D02*
Y14785D01*
Y14537D02*
X2876D01*
X2244Y8661D02*
X2679D01*
X1809D02*
X2244D01*
Y6396D02*
Y7087D01*
X1809D02*
X2244D01*
X2679D01*
X3543Y5904D02*
Y6161D01*
X3809Y4488D02*
X4057D01*
X3809D02*
Y4883D01*
X3561Y4488D02*
X3809D01*
X3620Y886D02*
X3898D01*
X4175D01*
X3898D02*
Y1143D01*
X1211Y1772D02*
X1458D01*
X1211Y1376D02*
Y1772D01*
X963D02*
X1211D01*
D30*
X15039Y15512D02*
X15315Y15236D01*
X10984Y15512D02*
X15039D01*
X10787Y15315D02*
X10984Y15512D01*
X9567Y13425D02*
X10236Y12756D01*
X15512Y5000D02*
Y5591D01*
X14931D02*
X15512D01*
X14882Y5640D02*
X14931Y5591D01*
X10315Y13937D02*
X10456Y13796D01*
X9252Y13937D02*
X10315D01*
X15298Y8714D02*
Y12186D01*
X14961Y8376D02*
X15298Y8714D01*
X14961Y8022D02*
Y8376D01*
X9803Y394D02*
X15197D01*
X8819Y1378D02*
X9803Y394D01*
X14012Y2008D02*
X14795D01*
X13504Y1500D02*
X14012Y2008D01*
X13504Y433D02*
Y1500D01*
X8504Y1378D02*
X8819D01*
X14795Y2008D02*
X15512Y2724D01*
Y4291D01*
Y5000D01*
X11260Y13071D02*
X11654Y13465D01*
X12362D01*
X15335Y14468D02*
X15512Y14291D01*
Y5640D02*
Y14291D01*
X14961Y12524D02*
X15298Y12186D01*
X8898Y14291D02*
X9252Y13937D01*
X8898Y14291D02*
Y14646D01*
X14331Y14468D02*
X15335D01*
X15315Y14488D02*
Y15236D01*
X10787Y15079D02*
Y15315D01*
X10813Y8833D02*
X11417Y8228D01*
X15118Y5000D02*
X15512D01*
X11319Y8209D02*
X11339Y8228D01*
X11417D01*
X10089Y8833D02*
X10813D01*
X13691Y9833D02*
X14380D01*
X14689Y9524D01*
X14961D01*
X741Y1303D02*
X1067D01*
X433Y995D02*
X741Y1303D01*
X433Y472D02*
Y995D01*
X1067Y1303D02*
X1211Y1447D01*
Y1654D01*
X3898Y886D02*
X4508D01*
X4606Y984D01*
X14724Y4291D02*
X15512D01*
X2441Y7165D02*
X3465D01*
X3583Y6201D02*
Y7047D01*
X3465Y7165D02*
X3583Y7047D01*
X6427Y7992D02*
X7165D01*
X14229Y12621D02*
X14863D01*
X13780Y13071D02*
X14229Y12621D01*
X10456Y13166D02*
Y13796D01*
Y13166D02*
X10551Y13071D01*
X11260D01*
X12362Y13425D02*
Y14134D01*
Y13425D02*
X12717Y13071D01*
X13780D01*
D31*
X14863Y12621D02*
X14961Y12524D01*
X4764Y15197D02*
X5709D01*
X4511Y14196D02*
X4766Y14451D01*
Y14567D01*
X3673Y14196D02*
X4511D01*
X3266Y13739D02*
X3279Y13726D01*
X3571Y14094D02*
X3661D01*
X3571D02*
X3673Y14196D01*
X2785Y14537D02*
X3266Y14057D01*
Y12835D02*
Y13739D01*
Y14057D01*
X2441Y14537D02*
X2785D01*
X4409Y13763D02*
X4911D01*
X4921Y13774D02*
Y14016D01*
X5276Y14370D01*
X5709D01*
Y14409D02*
X6496D01*
X6498Y13620D02*
Y14291D01*
Y13620D02*
X6654Y13465D01*
Y13425D02*
Y13465D01*
X3279Y13726D02*
X4409D01*
X3809Y4488D02*
X3819Y4498D01*
X7087Y9024D02*
Y9524D01*
X7087Y9024D02*
X7087Y9024D01*
X6427Y8365D02*
X7087Y9024D01*
X3543Y6161D02*
X3583Y6201D01*
X6427Y6969D02*
Y7992D01*
Y8365D01*
X1024Y6220D02*
X1890Y7087D01*
X2244D01*
X14961Y9023D02*
Y9523D01*
D32*
X12913Y9331D02*
X13689D01*
X13691Y9333D01*
X12756Y9173D02*
X12913Y9331D01*
X8258Y3199D02*
Y6093D01*
Y3199D02*
X8504Y2953D01*
X8799Y4539D02*
X8890Y4449D01*
X8799Y4539D02*
Y4744D01*
X8258Y6093D02*
X8465Y6299D01*
X8890Y4449D02*
X11456D01*
X11673Y4666D02*
Y5072D01*
X11456Y4449D02*
X11673Y4666D01*
X11831Y5964D02*
X12028Y5767D01*
X11614Y6614D02*
X11831Y6398D01*
Y5964D02*
Y6398D01*
X12028Y5427D02*
Y5767D01*
X10974Y7333D02*
X11693Y6614D01*
X11673Y5072D02*
X12028Y5427D01*
X11614Y6614D02*
X11693D01*
X10089Y7333D02*
X10974D01*
X8465Y6299D02*
X8661D01*
X8799Y4744D02*
X8799Y4744D01*
X8661Y6299D02*
X8799Y6161D01*
Y5965D02*
Y6161D01*
X10709Y4488D02*
Y5197D01*
X10573Y5333D02*
X10709Y5197D01*
X10089Y5333D02*
X10573D01*
X10089Y7833D02*
Y8333D01*
Y7333D02*
Y7833D01*
X13691Y11833D02*
X14431D01*
X14622Y12024D01*
X14961D01*
X3543Y6161D02*
X3937Y5768D01*
X3819Y4921D02*
X3937Y5039D01*
X3819Y4498D02*
Y4921D01*
X3937Y5039D02*
Y5768D01*
D33*
X14961Y9523D02*
D03*
Y9023D02*
D03*
X14961Y11524D02*
D03*
Y12024D02*
D03*
Y10024D02*
D03*
Y11024D02*
D03*
Y10524D02*
D03*
X787Y13810D02*
D03*
X787Y11311D02*
D03*
Y11811D02*
D03*
Y10811D02*
D03*
Y13311D02*
D03*
Y12311D02*
D03*
Y12811D02*
D03*
X7087Y12024D02*
D03*
Y10024D02*
D03*
Y10524D02*
D03*
Y9524D02*
D03*
Y11024D02*
D03*
Y11524D02*
D03*
X7087Y9024D02*
D03*
X8661Y10811D02*
D03*
Y12311D02*
D03*
Y12811D02*
D03*
X8661Y13812D02*
D03*
Y13312D02*
D03*
X8661Y11811D02*
D03*
Y11311D02*
D03*
D34*
X14961Y12524D02*
D03*
X787Y10311D02*
D03*
X7087Y12524D02*
D03*
X8661Y10311D02*
D03*
D35*
X2244Y13386D02*
D03*
Y11811D02*
D03*
Y10236D02*
D03*
Y8661D02*
D03*
Y5512D02*
D03*
Y7087D02*
D03*
Y3937D02*
D03*
Y2362D02*
D03*
X5630Y13386D02*
D03*
Y11811D02*
D03*
Y10236D02*
D03*
Y8661D02*
D03*
Y7087D02*
D03*
Y5512D02*
D03*
Y3937D02*
D03*
Y2362D02*
D03*
D36*
X14446Y13110D02*
D03*
X14252Y15118D02*
D03*
X15157Y13346D02*
D03*
X10236Y12756D02*
D03*
X9528Y13425D02*
D03*
X11496Y11693D02*
D03*
X10906Y9843D02*
D03*
X12756Y9173D02*
D03*
X12677Y10315D02*
D03*
X12795Y7992D02*
D03*
X11614Y5630D02*
D03*
X12835Y4646D02*
D03*
X11614Y6614D02*
D03*
X12480Y6417D02*
D03*
X15315Y15236D02*
D03*
X11319Y8209D02*
D03*
X12244Y8189D02*
D03*
X11772Y7756D02*
D03*
X12835Y7087D02*
D03*
Y6063D02*
D03*
X11575Y3110D02*
D03*
X8504Y2795D02*
D03*
X9803Y4843D02*
D03*
X8701Y8386D02*
D03*
X15197Y394D02*
D03*
X13819Y12283D02*
D03*
X8701Y9213D02*
D03*
X906Y906D02*
D03*
X433Y472D02*
D03*
X4508Y886D02*
D03*
X12283Y472D02*
D03*
X12717Y906D02*
D03*
X13185Y4134D02*
D03*
X12677D02*
D03*
X1220Y3386D02*
D03*
X1024Y6870D02*
D03*
X12283Y906D02*
D03*
X1024Y6220D02*
D03*
X11496Y10827D02*
D03*
X3661Y14094D02*
D03*
X4409Y13763D02*
D03*
X4921Y13774D02*
D03*
X6654Y13425D02*
D03*
X4528Y2480D02*
D03*
X6378Y4724D02*
D03*
X7165Y7992D02*
D03*
X1024Y5630D02*
D03*
Y7441D02*
D03*
X6444Y9284D02*
D03*
D37*
X13839Y2756D02*
D03*
X10098D02*
D03*
D38*
X9193Y5965D02*
D03*
X8996D02*
D03*
X8799D02*
D03*
X9193Y4744D02*
D03*
X8799D02*
D03*
X8602D02*
D03*
X8996D02*
D03*
X8602Y5965D02*
D03*
D39*
X4409Y8163D02*
D03*
Y6876D02*
D03*
D40*
X6510Y1102D02*
D03*
X5222D02*
D03*
D41*
X10000Y14764D02*
D03*
X8898D02*
D03*
X13465Y14291D02*
D03*
X12362D02*
D03*
D42*
X13691Y11333D02*
D03*
Y10833D02*
D03*
Y11833D02*
D03*
Y10333D02*
D03*
Y9833D02*
D03*
Y9333D02*
D03*
Y8833D02*
D03*
Y8333D02*
D03*
Y7333D02*
D03*
Y6833D02*
D03*
Y5833D02*
D03*
Y5333D02*
D03*
Y6333D02*
D03*
Y7833D02*
D03*
X10089Y11833D02*
D03*
Y10833D02*
D03*
Y10333D02*
D03*
Y11333D02*
D03*
Y9333D02*
D03*
Y8833D02*
D03*
Y9833D02*
D03*
Y7833D02*
D03*
Y7333D02*
D03*
Y8333D02*
D03*
Y5833D02*
D03*
Y5333D02*
D03*
Y6833D02*
D03*
Y6333D02*
D03*
D43*
X5709Y15157D02*
D03*
Y14370D02*
D03*
M02*
