M48
;Layer_Color=9474304
;FILE_FORMAT=2:4
INCH,LZ
;TYPE=PLATED
T1F00S00C0.0200
%
T01
X000433Y000472
X000906Y000906
X004508Y000886
X012283Y000906
X012717
X012283Y000472
X015197Y000394
X013185Y004134
X012677
X012835Y004646
Y006063
X01248Y006417
X012835Y007087
X012795Y007992
X012244Y008189
X011772Y007756
X011319Y008209
X011614Y006614
Y00563
X011575Y00311
X008504Y002795
X009803Y004843
X006378Y004724
X007165Y007992
X007087Y009024
X007087Y009524
Y010024
Y010524
Y011024
Y011524
Y012024
Y012524
X006654Y013425
X004921Y013774
X004409Y013763
X003661Y014094
X008661Y013812
Y013312
X008661Y012811
Y012311
Y011811
Y011311
Y010811
Y010311
X008701Y009213
Y008386
X006444Y009284
X010906Y009843
X011496Y010827
Y011693
X010236Y012756
X009528Y013425
X014446Y01311
X015157Y013346
X014961Y012524
Y012024
Y011524
Y011024
Y010524
Y010024
X014961Y009523
Y009023
X012756Y009173
X012677Y010315
X013819Y012283
X014252Y015118
X015315Y015236
X004528Y00248
X00122Y003386
X001024Y00563
Y00622
Y00687
Y007441
X000787Y010311
Y010811
Y011311
Y011811
Y012311
Y012811
Y013311
X000787Y01381
M30
