%FSLAX24Y24*%
%MOIN*%
G70*
G01*
G75*
G04 Layer_Color=16776960*
%ADD10C,0.0079*%
%ADD11R,0.0236X0.0886*%
%ADD12R,0.0299X0.0945*%
%ADD13R,0.0315X0.0354*%
%ADD14R,0.0886X0.0236*%
%ADD15R,0.0846X0.0335*%
%ADD16C,0.0335*%
%ADD17R,0.0335X0.0846*%
%ADD18R,0.0315X0.0630*%
%ADD19R,0.0394X0.0276*%
%ADD20R,0.0236X0.0197*%
%ADD21R,0.0276X0.0394*%
%ADD22R,0.0354X0.0315*%
%ADD23R,0.0906X0.0906*%
%ADD24R,0.0492X0.0433*%
%ADD25R,0.0354X0.0315*%
%ADD26R,0.0591X0.0295*%
%ADD27R,0.0295X0.0591*%
%ADD28C,0.0276*%
%ADD29C,0.0100*%
%ADD30C,0.0118*%
%ADD31C,0.0138*%
%ADD32C,0.0098*%
%ADD33C,0.0380*%
%ADD34R,0.0380X0.0380*%
%ADD35O,0.0669X0.1181*%
%ADD36C,0.0380*%
%ADD37R,0.2165X0.0827*%
%ADD38R,0.0118X0.0295*%
%ADD39R,0.0480X0.0358*%
%ADD40R,0.0358X0.0480*%
%ADD41R,0.0630X0.1063*%
%ADD42R,0.0906X0.0236*%
%ADD43R,0.0630X0.0315*%
%ADD44C,0.0236*%
%ADD45C,0.0394*%
%ADD46C,0.0039*%
%ADD47C,0.0063*%
%ADD48R,0.0246X0.0433*%
%ADD49R,0.0316X0.0966*%
%ADD50R,0.0379X0.1025*%
%ADD51R,0.0395X0.0434*%
%ADD52R,0.0966X0.0316*%
%ADD53R,0.0926X0.0415*%
%ADD54C,0.0415*%
%ADD55R,0.0415X0.0926*%
%ADD56R,0.0395X0.0710*%
%ADD57R,0.0474X0.0356*%
%ADD58R,0.0316X0.0277*%
%ADD59R,0.0356X0.0474*%
%ADD60R,0.0434X0.0395*%
%ADD61R,0.0986X0.0986*%
%ADD62R,0.0572X0.0513*%
%ADD63R,0.0434X0.0395*%
%ADD64R,0.0671X0.0375*%
%ADD65R,0.0375X0.0671*%
%ADD66C,0.0827*%
%ADD67C,0.0460*%
%ADD68R,0.0460X0.0460*%
%ADD69O,0.0749X0.1261*%
%ADD70R,0.2245X0.0907*%
%ADD71R,0.0150X0.0327*%
%ADD72R,0.0560X0.0438*%
%ADD73R,0.0438X0.0560*%
%ADD74R,0.0710X0.1143*%
%ADD75R,0.0986X0.0316*%
%ADD76R,0.0710X0.0395*%
%ADD77C,0.0150*%
%ADD78C,0.0050*%
%ADD79C,0.0030*%
G36*
X14957Y11335D02*
X14953D01*
X14951Y11334D01*
X14948D01*
X14945Y11334D01*
X14937Y11332D01*
X14928Y11331D01*
X14920Y11328D01*
X14912Y11325D01*
X14909Y11323D01*
X14906Y11321D01*
X14906Y11320D01*
X14904Y11318D01*
X14902Y11316D01*
X14900Y11312D01*
X14897Y11307D01*
X14895Y11301D01*
X14893Y11295D01*
X14893Y11287D01*
Y11286D01*
Y11284D01*
X14893Y11281D01*
X14894Y11277D01*
X14895Y11273D01*
X14896Y11268D01*
X14898Y11264D01*
X14900Y11259D01*
X14901Y11259D01*
X14902Y11257D01*
X14903Y11256D01*
X14906Y11253D01*
X14908Y11250D01*
X14911Y11248D01*
X14915Y11245D01*
X14920Y11243D01*
X14920D01*
X14922Y11242D01*
X14925Y11242D01*
X14929Y11241D01*
X14935Y11240D01*
X14942Y11239D01*
X14950Y11238D01*
X15181D01*
Y11196D01*
X14956D01*
X14952Y11196D01*
X14948D01*
X14940Y11197D01*
X14929Y11198D01*
X14919Y11200D01*
X14909Y11202D01*
X14900Y11206D01*
X14899Y11206D01*
X14897Y11208D01*
X14893Y11210D01*
X14888Y11213D01*
X14882Y11217D01*
X14877Y11223D01*
X14871Y11230D01*
X14866Y11237D01*
X14866Y11238D01*
X14865Y11241D01*
X14863Y11245D01*
X14861Y11251D01*
X14859Y11258D01*
X14857Y11267D01*
X14856Y11277D01*
X14855Y11287D01*
Y11287D01*
Y11289D01*
Y11291D01*
X14856Y11294D01*
X14856Y11297D01*
X14857Y11301D01*
X14858Y11311D01*
X14861Y11321D01*
X14866Y11332D01*
X14868Y11337D01*
X14871Y11342D01*
X14875Y11347D01*
X14879Y11351D01*
X14880D01*
X14880Y11352D01*
X14882Y11353D01*
X14884Y11355D01*
X14886Y11357D01*
X14889Y11358D01*
X14893Y11360D01*
X14897Y11362D01*
X14902Y11364D01*
X14907Y11366D01*
X14913Y11368D01*
X14920Y11370D01*
X14927Y11371D01*
X14935Y11372D01*
X14943Y11373D01*
X14951D01*
X14957Y11335D01*
D02*
G37*
G36*
X11623Y8688D02*
X11646Y8685D01*
X11656Y8683D01*
X11666Y8681D01*
X11675Y8678D01*
X11683Y8676D01*
X11689Y8673D01*
X11696Y8670D01*
X11702Y8668D01*
X11706Y8667D01*
X11709Y8664D01*
X11712Y8663D01*
X11713Y8662D01*
X11714D01*
X11729Y8650D01*
X11743Y8639D01*
X11754Y8627D01*
X11762Y8615D01*
X11769Y8604D01*
X11773Y8597D01*
X11775Y8594D01*
X11775Y8591D01*
X11776Y8590D01*
Y8589D01*
X11782Y8571D01*
X11786Y8551D01*
X11789Y8531D01*
X11792Y8512D01*
X11792Y8503D01*
X11793Y8494D01*
Y8488D01*
X11794Y8481D01*
Y8475D01*
Y8471D01*
Y8469D01*
Y8468D01*
Y8177D01*
X11727D01*
Y8468D01*
Y8485D01*
X11726Y8501D01*
X11724Y8515D01*
X11723Y8528D01*
X11720Y8541D01*
X11717Y8551D01*
X11714Y8560D01*
X11712Y8568D01*
X11709Y8575D01*
X11706Y8581D01*
X11703Y8586D01*
X11700Y8590D01*
X11699Y8593D01*
X11697Y8595D01*
X11696Y8596D01*
Y8597D01*
X11689Y8603D01*
X11682Y8607D01*
X11666Y8616D01*
X11649Y8621D01*
X11631Y8626D01*
X11616Y8628D01*
X11609Y8629D01*
X11603D01*
X11597Y8630D01*
X11590D01*
X11575Y8629D01*
X11561Y8627D01*
X11549Y8624D01*
X11538Y8621D01*
X11530Y8619D01*
X11524Y8616D01*
X11520Y8614D01*
X11518Y8614D01*
X11507Y8607D01*
X11499Y8599D01*
X11491Y8590D01*
X11486Y8583D01*
X11481Y8576D01*
X11478Y8571D01*
X11477Y8567D01*
X11476Y8565D01*
X11474Y8559D01*
X11472Y8552D01*
X11469Y8537D01*
X11468Y8521D01*
X11466Y8505D01*
X11465Y8491D01*
X11464Y8484D01*
Y8479D01*
Y8475D01*
Y8471D01*
Y8469D01*
Y8468D01*
Y8177D01*
X11398D01*
Y8468D01*
Y8483D01*
X11398Y8497D01*
X11399Y8510D01*
X11401Y8522D01*
X11402Y8533D01*
X11404Y8544D01*
X11405Y8553D01*
X11408Y8561D01*
X11409Y8569D01*
X11411Y8576D01*
X11412Y8582D01*
X11414Y8587D01*
X11415Y8590D01*
X11416Y8593D01*
X11417Y8594D01*
Y8595D01*
X11425Y8611D01*
X11435Y8626D01*
X11445Y8637D01*
X11456Y8647D01*
X11465Y8656D01*
X11474Y8661D01*
X11477Y8663D01*
X11478Y8664D01*
X11480Y8666D01*
X11481D01*
X11498Y8673D01*
X11518Y8680D01*
X11537Y8683D01*
X11556Y8686D01*
X11564Y8687D01*
X11572Y8688D01*
X11579Y8689D01*
X11585D01*
X11590Y8690D01*
X11597D01*
X11623Y8688D01*
D02*
G37*
G36*
X887Y11686D02*
X882D01*
X879Y11687D01*
X875Y11687D01*
X870Y11688D01*
X865Y11689D01*
X861Y11691D01*
X860D01*
X860Y11691D01*
X857Y11692D01*
X853Y11694D01*
X847Y11697D01*
X841Y11701D01*
X833Y11706D01*
X826Y11710D01*
X818Y11717D01*
X818D01*
X817Y11718D01*
X814Y11720D01*
X810Y11724D01*
X804Y11730D01*
X797Y11737D01*
X789Y11746D01*
X780Y11757D01*
X769Y11768D01*
X769Y11769D01*
X767Y11771D01*
X765Y11773D01*
X762Y11777D01*
X759Y11781D01*
X754Y11786D01*
X745Y11797D01*
X734Y11808D01*
X722Y11820D01*
X717Y11826D01*
X712Y11831D01*
X706Y11835D01*
X701Y11839D01*
X701D01*
X701Y11840D01*
X699Y11841D01*
X697Y11842D01*
X692Y11845D01*
X686Y11848D01*
X679Y11852D01*
X671Y11855D01*
X662Y11857D01*
X654Y11858D01*
X653D01*
X650Y11857D01*
X645Y11857D01*
X640Y11856D01*
X634Y11853D01*
X627Y11850D01*
X620Y11847D01*
X614Y11841D01*
X614Y11840D01*
X612Y11838D01*
X609Y11834D01*
X606Y11829D01*
X603Y11823D01*
X600Y11815D01*
X599Y11807D01*
X598Y11797D01*
Y11796D01*
Y11795D01*
Y11794D01*
X599Y11792D01*
X599Y11787D01*
X600Y11781D01*
X602Y11773D01*
X605Y11766D01*
X610Y11758D01*
X616Y11751D01*
X617Y11751D01*
X619Y11749D01*
X622Y11746D01*
X628Y11743D01*
X635Y11740D01*
X642Y11737D01*
X652Y11735D01*
X662Y11734D01*
X658Y11694D01*
X656D01*
X654Y11694D01*
X651Y11695D01*
X647Y11696D01*
X642Y11696D01*
X633Y11699D01*
X621Y11703D01*
X610Y11708D01*
X599Y11716D01*
X594Y11720D01*
X589Y11725D01*
X589Y11725D01*
X588Y11726D01*
X587Y11727D01*
X585Y11729D01*
X584Y11732D01*
X581Y11736D01*
X579Y11740D01*
X577Y11744D01*
X575Y11749D01*
X573Y11754D01*
X571Y11761D01*
X569Y11767D01*
X566Y11782D01*
X566Y11789D01*
X565Y11798D01*
Y11798D01*
Y11800D01*
Y11802D01*
X566Y11806D01*
X566Y11809D01*
X567Y11814D01*
X567Y11819D01*
X569Y11824D01*
X572Y11836D01*
X576Y11848D01*
X579Y11854D01*
X582Y11860D01*
X587Y11866D01*
X591Y11871D01*
X592Y11871D01*
X592Y11872D01*
X594Y11873D01*
X596Y11875D01*
X599Y11877D01*
X601Y11880D01*
X609Y11885D01*
X618Y11889D01*
X629Y11894D01*
X641Y11897D01*
X648Y11898D01*
X655Y11898D01*
X658D01*
X662Y11898D01*
X667Y11897D01*
X673Y11896D01*
X679Y11895D01*
X686Y11893D01*
X693Y11890D01*
X694Y11889D01*
X696Y11889D01*
X700Y11887D01*
X704Y11884D01*
X710Y11880D01*
X717Y11876D01*
X724Y11870D01*
X732Y11864D01*
X733Y11863D01*
X736Y11860D01*
X740Y11856D01*
X743Y11853D01*
X746Y11849D01*
X750Y11846D01*
X755Y11841D01*
X759Y11836D01*
X764Y11830D01*
X770Y11825D01*
X776Y11818D01*
X782Y11811D01*
X788Y11803D01*
X789Y11803D01*
X790Y11802D01*
X791Y11800D01*
X793Y11797D01*
X798Y11791D01*
X804Y11784D01*
X811Y11777D01*
X818Y11769D01*
X824Y11763D01*
X826Y11760D01*
X829Y11758D01*
X829Y11757D01*
X831Y11756D01*
X833Y11754D01*
X836Y11752D01*
X842Y11746D01*
X850Y11741D01*
Y11899D01*
X887D01*
Y11686D01*
D02*
G37*
G36*
X14947Y11101D02*
X14946D01*
X14945Y11101D01*
X14943Y11100D01*
X14937Y11099D01*
X14930Y11097D01*
X14923Y11094D01*
X14916Y11091D01*
X14908Y11086D01*
X14902Y11080D01*
X14902Y11079D01*
X14900Y11077D01*
X14898Y11074D01*
X14895Y11069D01*
X14892Y11063D01*
X14890Y11056D01*
X14888Y11049D01*
X14887Y11040D01*
Y11040D01*
Y11039D01*
Y11037D01*
X14888Y11035D01*
X14888Y11030D01*
X14890Y11023D01*
X14893Y11016D01*
X14896Y11008D01*
X14902Y11000D01*
X14905Y10996D01*
X14908Y10992D01*
X14909D01*
X14909Y10991D01*
X14912Y10989D01*
X14917Y10986D01*
X14924Y10982D01*
X14932Y10979D01*
X14942Y10975D01*
X14953Y10973D01*
X14966Y10972D01*
X14969D01*
X14971Y10973D01*
X14974D01*
X14977Y10973D01*
X14985Y10975D01*
X14993Y10977D01*
X15002Y10980D01*
X15011Y10985D01*
X15019Y10992D01*
X15020Y10992D01*
X15022Y10995D01*
X15025Y10999D01*
X15029Y11005D01*
X15032Y11012D01*
X15035Y11020D01*
X15037Y11030D01*
X15038Y11041D01*
Y11042D01*
Y11044D01*
X15038Y11048D01*
X15037Y11053D01*
X15036Y11058D01*
X15034Y11064D01*
X15032Y11070D01*
X15029Y11075D01*
X15029Y11076D01*
X15028Y11078D01*
X15026Y11081D01*
X15023Y11084D01*
X15020Y11088D01*
X15016Y11092D01*
X15011Y11095D01*
X15007Y11099D01*
X15012Y11136D01*
X15176Y11105D01*
Y10946D01*
X15139D01*
Y11073D01*
X15052Y11091D01*
X15053Y11091D01*
X15053Y11090D01*
X15054Y11088D01*
X15056Y11086D01*
X15057Y11083D01*
X15059Y11080D01*
X15063Y11073D01*
X15067Y11064D01*
X15069Y11053D01*
X15072Y11042D01*
X15073Y11031D01*
Y11030D01*
Y11029D01*
Y11027D01*
X15072Y11024D01*
X15072Y11020D01*
X15071Y11016D01*
X15070Y11011D01*
X15069Y11006D01*
X15066Y10995D01*
X15064Y10989D01*
X15061Y10983D01*
X15057Y10977D01*
X15053Y10971D01*
X15049Y10965D01*
X15044Y10960D01*
X15043Y10959D01*
X15042Y10958D01*
X15041Y10957D01*
X15038Y10955D01*
X15035Y10953D01*
X15032Y10951D01*
X15028Y10948D01*
X15024Y10945D01*
X15018Y10942D01*
X15013Y10940D01*
X15007Y10937D01*
X15000Y10935D01*
X14993Y10933D01*
X14986Y10932D01*
X14977Y10931D01*
X14969Y10931D01*
X14965D01*
X14962Y10931D01*
X14958Y10931D01*
X14953Y10932D01*
X14948Y10932D01*
X14943Y10933D01*
X14931Y10937D01*
X14919Y10941D01*
X14912Y10944D01*
X14906Y10948D01*
X14900Y10951D01*
X14894Y10956D01*
X14893Y10956D01*
X14892Y10957D01*
X14890Y10959D01*
X14888Y10962D01*
X14885Y10965D01*
X14882Y10969D01*
X14878Y10973D01*
X14875Y10978D01*
X14871Y10984D01*
X14867Y10990D01*
X14864Y10997D01*
X14861Y11005D01*
X14859Y11013D01*
X14857Y11021D01*
X14856Y11031D01*
X14855Y11040D01*
Y11041D01*
Y11042D01*
Y11045D01*
X14856Y11048D01*
X14856Y11051D01*
X14857Y11055D01*
X14857Y11060D01*
X14858Y11066D01*
X14861Y11077D01*
X14866Y11089D01*
X14868Y11094D01*
X14872Y11100D01*
X14875Y11106D01*
X14880Y11112D01*
X14880Y11112D01*
X14881Y11113D01*
X14882Y11114D01*
X14884Y11116D01*
X14886Y11118D01*
X14889Y11120D01*
X14893Y11123D01*
X14897Y11126D01*
X14906Y11131D01*
X14917Y11136D01*
X14930Y11140D01*
X14937Y11142D01*
X14945Y11143D01*
X14947Y11101D01*
D02*
G37*
G36*
X14582Y14094D02*
X14598Y14092D01*
X14613Y14089D01*
X14619Y14087D01*
X14625Y14085D01*
X14631Y14083D01*
X14636Y14081D01*
X14640Y14080D01*
X14643Y14078D01*
X14646Y14077D01*
X14648Y14076D01*
X14650Y14075D01*
X14650D01*
X14664Y14068D01*
X14676Y14059D01*
X14686Y14050D01*
X14694Y14041D01*
X14700Y14033D01*
X14703Y14030D01*
X14705Y14027D01*
X14707Y14025D01*
X14708Y14023D01*
X14709Y14022D01*
X14709Y14021D01*
X14716Y14008D01*
X14721Y13994D01*
X14725Y13981D01*
X14727Y13969D01*
X14728Y13963D01*
X14729Y13958D01*
X14729Y13954D01*
Y13950D01*
X14730Y13947D01*
Y13945D01*
Y13943D01*
Y13943D01*
X14729Y13927D01*
X14727Y13912D01*
X14723Y13899D01*
X14722Y13893D01*
X14720Y13887D01*
X14718Y13882D01*
X14717Y13878D01*
X14715Y13874D01*
X14713Y13871D01*
X14712Y13868D01*
X14711Y13866D01*
X14710Y13865D01*
Y13864D01*
X14720Y13851D01*
X14727Y13839D01*
X14734Y13827D01*
X14740Y13817D01*
X14741Y13812D01*
X14743Y13808D01*
X14745Y13804D01*
X14746Y13801D01*
X14747Y13799D01*
X14748Y13797D01*
X14749Y13796D01*
Y13795D01*
X14720Y13782D01*
X14716Y13792D01*
X14711Y13802D01*
X14706Y13811D01*
X14701Y13819D01*
X14697Y13827D01*
X14695Y13829D01*
X14694Y13832D01*
X14692Y13834D01*
X14691Y13836D01*
X14690Y13837D01*
Y13837D01*
X14681Y13829D01*
X14672Y13821D01*
X14662Y13815D01*
X14654Y13810D01*
X14647Y13806D01*
X14643Y13804D01*
X14641Y13803D01*
X14639Y13802D01*
X14637Y13801D01*
X14636Y13801D01*
X14636D01*
X14623Y13797D01*
X14611Y13794D01*
X14599Y13791D01*
X14588Y13790D01*
X14583Y13789D01*
X14578Y13789D01*
X14575D01*
X14571Y13789D01*
X14564D01*
X14547Y13789D01*
X14531Y13791D01*
X14517Y13794D01*
X14510Y13796D01*
X14504Y13798D01*
X14498Y13800D01*
X14493Y13802D01*
X14489Y13803D01*
X14486Y13805D01*
X14483Y13806D01*
X14480Y13807D01*
X14479Y13808D01*
X14479D01*
X14465Y13815D01*
X14454Y13824D01*
X14443Y13833D01*
X14435Y13842D01*
X14429Y13850D01*
X14426Y13853D01*
X14424Y13856D01*
X14422Y13858D01*
X14421Y13860D01*
X14420Y13861D01*
Y13862D01*
X14416Y13869D01*
X14413Y13875D01*
X14408Y13889D01*
X14404Y13903D01*
X14401Y13915D01*
X14400Y13921D01*
X14399Y13926D01*
X14399Y13931D01*
Y13934D01*
X14398Y13937D01*
Y13940D01*
Y13941D01*
Y13942D01*
X14399Y13957D01*
X14402Y13972D01*
X14405Y13986D01*
X14407Y13992D01*
X14409Y13997D01*
X14411Y14003D01*
X14413Y14007D01*
X14414Y14011D01*
X14416Y14014D01*
X14417Y14017D01*
X14418Y14019D01*
X14418Y14020D01*
X14419Y14021D01*
X14427Y14033D01*
X14437Y14044D01*
X14447Y14053D01*
X14456Y14061D01*
X14465Y14068D01*
X14469Y14070D01*
X14472Y14072D01*
X14475Y14073D01*
X14476Y14074D01*
X14478Y14075D01*
X14478D01*
X14493Y14082D01*
X14508Y14087D01*
X14522Y14090D01*
X14536Y14092D01*
X14542Y14093D01*
X14547Y14094D01*
X14552Y14094D01*
X14557D01*
X14559Y14094D01*
X14564D01*
X14582Y14094D01*
D02*
G37*
G36*
X11046Y14260D02*
X11060Y14259D01*
X11073Y14258D01*
X11085Y14256D01*
X11096Y14253D01*
X11105Y14251D01*
X11114Y14248D01*
X11122Y14245D01*
X11129Y14243D01*
X11135Y14240D01*
X11140Y14237D01*
X11144Y14235D01*
X11146Y14233D01*
X11148Y14232D01*
X11150Y14231D01*
X11150Y14230D01*
X11157Y14224D01*
X11162Y14218D01*
X11167Y14211D01*
X11171Y14204D01*
X11175Y14197D01*
X11178Y14191D01*
X11180Y14184D01*
X11182Y14178D01*
X11184Y14172D01*
X11185Y14167D01*
X11185Y14162D01*
X11186Y14158D01*
Y14154D01*
X11186Y14151D01*
Y14150D01*
Y14150D01*
X11186Y14139D01*
X11185Y14130D01*
X11182Y14121D01*
X11180Y14113D01*
X11177Y14107D01*
X11175Y14102D01*
X11173Y14099D01*
X11173Y14098D01*
X11167Y14090D01*
X11161Y14083D01*
X11154Y14077D01*
X11148Y14071D01*
X11142Y14068D01*
X11138Y14065D01*
X11136Y14064D01*
X11134Y14063D01*
X11134Y14062D01*
X11133D01*
X11124Y14058D01*
X11114Y14054D01*
X11104Y14052D01*
X11096Y14050D01*
X11088Y14049D01*
X11085D01*
X11082Y14049D01*
X11077D01*
X11069Y14049D01*
X11061Y14050D01*
X11053Y14051D01*
X11046Y14053D01*
X11040Y14055D01*
X11033Y14058D01*
X11028Y14060D01*
X11022Y14063D01*
X11018Y14066D01*
X11014Y14068D01*
X11011Y14070D01*
X11008Y14072D01*
X11005Y14074D01*
X11004Y14076D01*
X11003Y14076D01*
X11002Y14077D01*
X10997Y14082D01*
X10993Y14088D01*
X10989Y14093D01*
X10985Y14099D01*
X10982Y14105D01*
X10981Y14110D01*
X10977Y14121D01*
X10975Y14130D01*
X10974Y14134D01*
X10974Y14137D01*
X10973Y14140D01*
Y14142D01*
Y14144D01*
Y14144D01*
X10974Y14152D01*
X10975Y14160D01*
X10977Y14168D01*
X10979Y14174D01*
X10981Y14179D01*
X10982Y14184D01*
X10983Y14186D01*
X10984Y14187D01*
X10988Y14194D01*
X10993Y14201D01*
X10999Y14207D01*
X11004Y14212D01*
X11009Y14216D01*
X11013Y14219D01*
X11015Y14221D01*
X11016Y14222D01*
X11007D01*
X10999Y14221D01*
X10991Y14221D01*
X10984Y14220D01*
X10978Y14219D01*
X10971Y14218D01*
X10966Y14217D01*
X10961Y14216D01*
X10957Y14215D01*
X10953Y14214D01*
X10949Y14213D01*
X10947Y14212D01*
X10945Y14212D01*
X10943Y14212D01*
X10942Y14211D01*
X10942D01*
X10933Y14207D01*
X10924Y14202D01*
X10918Y14197D01*
X10912Y14192D01*
X10908Y14188D01*
X10904Y14185D01*
X10902Y14183D01*
X10902Y14182D01*
X10899Y14176D01*
X10896Y14171D01*
X10894Y14165D01*
X10893Y14159D01*
X10892Y14155D01*
X10891Y14151D01*
Y14149D01*
Y14148D01*
X10892Y14140D01*
X10894Y14132D01*
X10897Y14125D01*
X10900Y14119D01*
X10903Y14115D01*
X10905Y14111D01*
X10907Y14109D01*
X10908Y14109D01*
X10913Y14105D01*
X10918Y14102D01*
X10929Y14097D01*
X10934Y14096D01*
X10938Y14094D01*
X10941Y14093D01*
X10941D01*
X10939Y14054D01*
X10925Y14057D01*
X10914Y14061D01*
X10904Y14066D01*
X10896Y14071D01*
X10889Y14076D01*
X10884Y14080D01*
X10881Y14083D01*
X10880Y14083D01*
Y14084D01*
X10877Y14089D01*
X10873Y14093D01*
X10868Y14104D01*
X10864Y14114D01*
X10861Y14124D01*
X10860Y14132D01*
X10860Y14136D01*
Y14139D01*
X10859Y14142D01*
Y14144D01*
Y14145D01*
Y14146D01*
X10860Y14155D01*
X10860Y14164D01*
X10862Y14172D01*
X10865Y14180D01*
X10868Y14187D01*
X10871Y14193D01*
X10874Y14200D01*
X10878Y14205D01*
X10881Y14210D01*
X10884Y14214D01*
X10887Y14218D01*
X10890Y14221D01*
X10893Y14224D01*
X10895Y14225D01*
X10896Y14226D01*
X10896Y14227D01*
X10904Y14232D01*
X10914Y14238D01*
X10924Y14242D01*
X10935Y14246D01*
X10946Y14250D01*
X10957Y14253D01*
X10968Y14255D01*
X10980Y14256D01*
X10990Y14258D01*
X11000Y14259D01*
X11008Y14260D01*
X11016Y14260D01*
X11022Y14261D01*
X11031D01*
X11046Y14260D01*
D02*
G37*
G36*
X12113Y8174D02*
X12073D01*
X12066Y8187D01*
X12057Y8199D01*
X12048Y8210D01*
X12039Y8221D01*
X12030Y8230D01*
X12024Y8236D01*
X12019Y8241D01*
X12018Y8242D01*
X12017Y8243D01*
X12003Y8255D01*
X11987Y8266D01*
X11972Y8276D01*
X11958Y8285D01*
X11946Y8292D01*
X11941Y8294D01*
X11936Y8296D01*
X11933Y8299D01*
X11930Y8300D01*
X11928Y8301D01*
X11928D01*
Y8362D01*
X11938Y8357D01*
X11950Y8352D01*
X11961Y8347D01*
X11971Y8342D01*
X11979Y8337D01*
X11986Y8333D01*
X11991Y8330D01*
X11991Y8329D01*
X11992D01*
X12005Y8322D01*
X12017Y8313D01*
X12027Y8306D01*
X12035Y8299D01*
X12042Y8294D01*
X12047Y8290D01*
X12050Y8287D01*
X12051Y8286D01*
Y8681D01*
X12113D01*
Y8174D01*
D02*
G37*
G36*
X14445Y13587D02*
X14459Y13599D01*
X14473Y13609D01*
X14487Y13619D01*
X14500Y13627D01*
X14507Y13631D01*
X14512Y13634D01*
X14517Y13637D01*
X14521Y13640D01*
X14525Y13642D01*
X14527Y13643D01*
X14529Y13644D01*
X14530Y13645D01*
X14548Y13654D01*
X14567Y13662D01*
X14584Y13669D01*
X14593Y13672D01*
X14600Y13675D01*
X14607Y13677D01*
X14614Y13679D01*
X14619Y13681D01*
X14624Y13683D01*
X14628Y13684D01*
X14631Y13685D01*
X14633Y13685D01*
X14633D01*
X14653Y13690D01*
X14661Y13692D01*
X14670Y13693D01*
X14678Y13695D01*
X14685Y13696D01*
X14693Y13697D01*
X14699Y13698D01*
X14704Y13698D01*
X14710Y13699D01*
X14714Y13699D01*
X14718D01*
X14721Y13700D01*
X14724D01*
Y13659D01*
X14707Y13658D01*
X14690Y13656D01*
X14676Y13653D01*
X14669Y13652D01*
X14662Y13651D01*
X14657Y13649D01*
X14652Y13648D01*
X14647Y13647D01*
X14643Y13647D01*
X14640Y13646D01*
X14639Y13645D01*
X14637Y13645D01*
X14637D01*
X14615Y13638D01*
X14595Y13630D01*
X14585Y13627D01*
X14576Y13623D01*
X14567Y13619D01*
X14559Y13615D01*
X14552Y13612D01*
X14545Y13608D01*
X14539Y13606D01*
X14535Y13603D01*
X14531Y13601D01*
X14528Y13600D01*
X14526Y13599D01*
X14525Y13598D01*
X14516Y13592D01*
X14506Y13587D01*
X14497Y13581D01*
X14489Y13576D01*
X14481Y13571D01*
X14474Y13565D01*
X14467Y13561D01*
X14461Y13556D01*
X14456Y13552D01*
X14452Y13548D01*
X14448Y13545D01*
X14444Y13543D01*
X14442Y13540D01*
X14440Y13539D01*
X14439Y13538D01*
X14438Y13537D01*
X14408D01*
Y13745D01*
X14445D01*
Y13587D01*
D02*
G37*
G36*
X796Y11638D02*
X800D01*
X808Y11638D01*
X819Y11636D01*
X829Y11635D01*
X839Y11632D01*
X848Y11629D01*
X849Y11628D01*
X851Y11627D01*
X855Y11624D01*
X860Y11622D01*
X866Y11617D01*
X871Y11612D01*
X877Y11605D01*
X882Y11598D01*
X882Y11597D01*
X883Y11594D01*
X885Y11589D01*
X887Y11584D01*
X889Y11576D01*
X891Y11568D01*
X892Y11558D01*
X893Y11548D01*
Y11547D01*
Y11546D01*
Y11544D01*
X892Y11541D01*
X892Y11538D01*
X891Y11533D01*
X890Y11524D01*
X887Y11514D01*
X883Y11503D01*
X880Y11498D01*
X877Y11493D01*
X873Y11488D01*
X869Y11483D01*
X868D01*
X868Y11482D01*
X866Y11482D01*
X864Y11480D01*
X862Y11478D01*
X859Y11477D01*
X855Y11474D01*
X851Y11472D01*
X846Y11470D01*
X841Y11468D01*
X835Y11466D01*
X828Y11465D01*
X821Y11463D01*
X813Y11462D01*
X805Y11462D01*
X797D01*
X791Y11500D01*
X795D01*
X797Y11501D01*
X800D01*
X803Y11501D01*
X811Y11502D01*
X820Y11504D01*
X828Y11506D01*
X836Y11510D01*
X839Y11512D01*
X842Y11514D01*
X843Y11514D01*
X844Y11516D01*
X846Y11519D01*
X848Y11523D01*
X851Y11527D01*
X853Y11533D01*
X855Y11540D01*
X855Y11548D01*
Y11548D01*
Y11551D01*
X855Y11554D01*
X854Y11557D01*
X853Y11562D01*
X852Y11566D01*
X850Y11571D01*
X848Y11575D01*
X847Y11576D01*
X846Y11577D01*
X845Y11579D01*
X843Y11582D01*
X840Y11584D01*
X837Y11587D01*
X833Y11589D01*
X828Y11591D01*
X828D01*
X826Y11592D01*
X823Y11593D01*
X819Y11594D01*
X813Y11595D01*
X806Y11595D01*
X798Y11596D01*
X567D01*
Y11639D01*
X792D01*
X796Y11638D01*
D02*
G37*
G36*
X6898Y3312D02*
X6896D01*
X6895Y3311D01*
X6893Y3311D01*
X6888Y3309D01*
X6881Y3307D01*
X6873Y3305D01*
X6866Y3301D01*
X6859Y3297D01*
X6852Y3291D01*
X6852Y3290D01*
X6850Y3288D01*
X6848Y3285D01*
X6845Y3280D01*
X6843Y3274D01*
X6840Y3267D01*
X6838Y3259D01*
X6838Y3251D01*
Y3250D01*
Y3249D01*
Y3248D01*
X6838Y3246D01*
X6839Y3241D01*
X6840Y3234D01*
X6843Y3226D01*
X6847Y3218D01*
X6852Y3210D01*
X6855Y3206D01*
X6859Y3203D01*
X6859D01*
X6860Y3202D01*
X6863Y3200D01*
X6868Y3196D01*
X6874Y3193D01*
X6882Y3189D01*
X6892Y3186D01*
X6903Y3184D01*
X6916Y3183D01*
X6919D01*
X6921Y3184D01*
X6924D01*
X6928Y3184D01*
X6935Y3185D01*
X6944Y3187D01*
X6953Y3191D01*
X6961Y3196D01*
X6969Y3202D01*
X6970Y3203D01*
X6972Y3205D01*
X6975Y3209D01*
X6979Y3215D01*
X6982Y3222D01*
X6986Y3231D01*
X6988Y3241D01*
X6989Y3251D01*
Y3252D01*
Y3255D01*
X6988Y3258D01*
X6988Y3263D01*
X6986Y3268D01*
X6985Y3274D01*
X6982Y3280D01*
X6979Y3286D01*
X6979Y3286D01*
X6978Y3288D01*
X6976Y3291D01*
X6974Y3295D01*
X6970Y3298D01*
X6966Y3302D01*
X6962Y3306D01*
X6957Y3309D01*
X6962Y3347D01*
X7127Y3315D01*
Y3156D01*
X7089D01*
Y3284D01*
X7003Y3302D01*
X7003Y3301D01*
X7004Y3300D01*
X7005Y3299D01*
X7006Y3297D01*
X7008Y3294D01*
X7009Y3291D01*
X7013Y3283D01*
X7017Y3274D01*
X7020Y3264D01*
X7022Y3253D01*
X7023Y3241D01*
Y3241D01*
Y3239D01*
Y3237D01*
X7023Y3234D01*
X7022Y3230D01*
X7022Y3226D01*
X7021Y3222D01*
X7020Y3217D01*
X7016Y3205D01*
X7014Y3200D01*
X7011Y3194D01*
X7008Y3187D01*
X7004Y3182D01*
X6999Y3176D01*
X6994Y3170D01*
X6994Y3170D01*
X6993Y3169D01*
X6991Y3167D01*
X6989Y3166D01*
X6986Y3164D01*
X6982Y3161D01*
X6978Y3159D01*
X6974Y3156D01*
X6969Y3153D01*
X6963Y3150D01*
X6957Y3148D01*
X6951Y3145D01*
X6943Y3144D01*
X6936Y3143D01*
X6928Y3142D01*
X6919Y3141D01*
X6915D01*
X6912Y3142D01*
X6908Y3142D01*
X6904Y3143D01*
X6899Y3143D01*
X6894Y3144D01*
X6882Y3147D01*
X6870Y3152D01*
X6863Y3155D01*
X6856Y3158D01*
X6850Y3162D01*
X6844Y3166D01*
X6844Y3167D01*
X6843Y3168D01*
X6841Y3170D01*
X6838Y3172D01*
X6835Y3175D01*
X6832Y3179D01*
X6829Y3184D01*
X6825Y3189D01*
X6821Y3194D01*
X6818Y3201D01*
X6814Y3208D01*
X6812Y3215D01*
X6809Y3224D01*
X6807Y3232D01*
X6806Y3241D01*
X6806Y3251D01*
Y3251D01*
Y3253D01*
Y3255D01*
X6806Y3258D01*
X6807Y3262D01*
X6807Y3266D01*
X6808Y3271D01*
X6809Y3276D01*
X6812Y3287D01*
X6816Y3299D01*
X6819Y3305D01*
X6822Y3311D01*
X6826Y3317D01*
X6830Y3322D01*
X6831Y3323D01*
X6831Y3323D01*
X6833Y3325D01*
X6834Y3326D01*
X6837Y3328D01*
X6840Y3331D01*
X6843Y3333D01*
X6847Y3336D01*
X6856Y3342D01*
X6868Y3347D01*
X6880Y3351D01*
X6888Y3352D01*
X6895Y3353D01*
X6898Y3312D01*
D02*
G37*
G36*
X6979Y3700D02*
X6983D01*
X6988Y3700D01*
X6994Y3699D01*
X6999Y3698D01*
X7013Y3696D01*
X7027Y3693D01*
X7042Y3688D01*
X7057Y3682D01*
X7057D01*
X7059Y3681D01*
X7061Y3680D01*
X7063Y3678D01*
X7067Y3676D01*
X7071Y3674D01*
X7079Y3668D01*
X7089Y3660D01*
X7098Y3651D01*
X7108Y3640D01*
X7117Y3627D01*
X7117Y3627D01*
X7117Y3626D01*
X7118Y3624D01*
X7120Y3621D01*
X7121Y3617D01*
X7123Y3613D01*
X7125Y3609D01*
X7127Y3604D01*
X7129Y3598D01*
X7131Y3592D01*
X7134Y3579D01*
X7136Y3564D01*
X7137Y3548D01*
Y3548D01*
Y3546D01*
Y3544D01*
X7137Y3541D01*
Y3537D01*
X7136Y3532D01*
X7135Y3527D01*
X7135Y3521D01*
X7132Y3509D01*
X7128Y3495D01*
X7123Y3482D01*
X7119Y3475D01*
X7116Y3468D01*
Y3468D01*
X7115Y3467D01*
X7114Y3465D01*
X7112Y3462D01*
X7110Y3459D01*
X7107Y3456D01*
X7100Y3448D01*
X7092Y3439D01*
X7082Y3430D01*
X7070Y3422D01*
X7056Y3414D01*
X7056D01*
X7055Y3413D01*
X7053Y3412D01*
X7050Y3411D01*
X7046Y3409D01*
X7042Y3408D01*
X7037Y3406D01*
X7032Y3404D01*
X7026Y3403D01*
X7019Y3401D01*
X7005Y3398D01*
X6989Y3396D01*
X6971Y3395D01*
X6964D01*
X6961Y3395D01*
X6957D01*
X6953Y3396D01*
X6947Y3396D01*
X6936Y3398D01*
X6924Y3400D01*
X6912Y3403D01*
X6900Y3407D01*
X6899D01*
X6898Y3408D01*
X6897Y3408D01*
X6894Y3409D01*
X6892Y3410D01*
X6889Y3412D01*
X6881Y3416D01*
X6873Y3421D01*
X6864Y3428D01*
X6854Y3435D01*
X6845Y3444D01*
Y3443D01*
X6844Y3442D01*
X6843Y3441D01*
X6842Y3439D01*
X6840Y3436D01*
X6838Y3433D01*
X6834Y3426D01*
X6829Y3417D01*
X6824Y3408D01*
X6819Y3398D01*
X6815Y3388D01*
X6787Y3402D01*
Y3402D01*
X6787Y3403D01*
X6788Y3405D01*
X6789Y3408D01*
X6790Y3410D01*
X6792Y3414D01*
X6794Y3418D01*
X6796Y3423D01*
X6801Y3433D01*
X6808Y3445D01*
X6816Y3458D01*
X6825Y3470D01*
Y3471D01*
X6824Y3472D01*
X6823Y3474D01*
X6822Y3477D01*
X6821Y3480D01*
X6819Y3484D01*
X6817Y3489D01*
X6815Y3493D01*
X6813Y3499D01*
X6812Y3505D01*
X6809Y3519D01*
X6807Y3533D01*
X6806Y3549D01*
Y3550D01*
Y3551D01*
Y3553D01*
X6806Y3556D01*
Y3560D01*
X6807Y3565D01*
X6808Y3570D01*
X6808Y3575D01*
X6811Y3587D01*
X6814Y3600D01*
X6819Y3614D01*
X6826Y3628D01*
X6827Y3628D01*
X6827Y3629D01*
X6829Y3631D01*
X6830Y3633D01*
X6832Y3636D01*
X6835Y3640D01*
X6841Y3648D01*
X6850Y3656D01*
X6860Y3665D01*
X6872Y3674D01*
X6885Y3682D01*
X6886D01*
X6887Y3683D01*
X6889Y3684D01*
X6892Y3685D01*
X6895Y3686D01*
X6900Y3688D01*
X6905Y3690D01*
X6910Y3691D01*
X6916Y3693D01*
X6923Y3695D01*
X6937Y3698D01*
X6954Y3700D01*
X6971Y3701D01*
X6976D01*
X6979Y3700D01*
D02*
G37*
G36*
X4212Y8142D02*
X4214Y8140D01*
X4216Y8135D01*
X4219Y8130D01*
X4223Y8123D01*
X4226Y8115D01*
X4237Y8097D01*
X4249Y8076D01*
X4264Y8053D01*
X4282Y8030D01*
X4300Y8008D01*
X4301Y8007D01*
X4302Y8006D01*
X4309Y7999D01*
X4320Y7988D01*
X4332Y7976D01*
X4349Y7962D01*
X4366Y7948D01*
X4384Y7935D01*
X4403Y7925D01*
Y7864D01*
X3642D01*
Y7957D01*
X4234D01*
X4233Y7959D01*
X4229Y7963D01*
X4223Y7971D01*
X4215Y7982D01*
X4204Y7994D01*
X4194Y8009D01*
X4181Y8027D01*
X4170Y8046D01*
Y8047D01*
X4169Y8048D01*
X4164Y8055D01*
X4158Y8066D01*
X4151Y8078D01*
X4143Y8093D01*
X4136Y8110D01*
X4128Y8127D01*
X4121Y8143D01*
X4212D01*
Y8142D01*
D02*
G37*
G36*
X3869Y8668D02*
X3861D01*
X3855Y8666D01*
X3848D01*
X3840Y8665D01*
X3822Y8662D01*
X3801Y8658D01*
X3781Y8653D01*
X3764Y8645D01*
X3756Y8640D01*
X3749Y8635D01*
X3748Y8634D01*
X3744Y8630D01*
X3739Y8624D01*
X3734Y8615D01*
X3728Y8603D01*
X3722Y8589D01*
X3719Y8573D01*
X3718Y8555D01*
Y8553D01*
Y8548D01*
X3719Y8541D01*
X3720Y8533D01*
X3722Y8522D01*
X3725Y8511D01*
X3729Y8500D01*
X3735Y8490D01*
X3736Y8489D01*
X3739Y8485D01*
X3742Y8481D01*
X3748Y8475D01*
X3754Y8468D01*
X3762Y8462D01*
X3771Y8457D01*
X3781Y8452D01*
X3782D01*
X3787Y8450D01*
X3794Y8449D01*
X3804Y8446D01*
X3818Y8444D01*
X3834Y8443D01*
X3854Y8440D01*
X4399D01*
Y8340D01*
X3867D01*
X3859Y8341D01*
X3849D01*
X3829Y8342D01*
X3804Y8346D01*
X3780Y8349D01*
X3756Y8355D01*
X3735Y8363D01*
X3733Y8364D01*
X3727Y8368D01*
X3718Y8374D01*
X3706Y8381D01*
X3692Y8391D01*
X3680Y8404D01*
X3667Y8420D01*
X3656Y8437D01*
X3654Y8439D01*
X3651Y8446D01*
X3647Y8457D01*
X3643Y8470D01*
X3637Y8488D01*
X3634Y8507D01*
X3630Y8530D01*
X3629Y8555D01*
Y8556D01*
Y8559D01*
Y8564D01*
X3630Y8571D01*
X3631Y8579D01*
X3633Y8589D01*
X3636Y8611D01*
X3643Y8635D01*
X3653Y8661D01*
X3659Y8673D01*
X3667Y8685D01*
X3675Y8696D01*
X3686Y8707D01*
X3687D01*
X3688Y8709D01*
X3691Y8711D01*
X3696Y8715D01*
X3703Y8719D01*
X3710Y8723D01*
X3719Y8729D01*
X3728Y8733D01*
X3740Y8738D01*
X3752Y8743D01*
X3766Y8747D01*
X3782Y8751D01*
X3799Y8754D01*
X3817Y8756D01*
X3835Y8758D01*
X3856D01*
X3869Y8668D01*
D02*
G37*
G36*
X7077Y11103D02*
X7076D01*
X7075Y11102D01*
X7073D01*
X7072Y11101D01*
X7066Y11100D01*
X7058Y11097D01*
X7051Y11094D01*
X7042Y11091D01*
X7035Y11086D01*
X7029Y11080D01*
X7028Y11079D01*
X7026Y11077D01*
X7024Y11074D01*
X7021Y11069D01*
X7019Y11064D01*
X7016Y11057D01*
X7014Y11049D01*
X7014Y11041D01*
Y11040D01*
Y11039D01*
Y11038D01*
X7014Y11036D01*
X7015Y11031D01*
X7016Y11025D01*
X7019Y11017D01*
X7022Y11009D01*
X7027Y11001D01*
X7033Y10994D01*
X7034Y10993D01*
X7036Y10991D01*
X7040Y10988D01*
X7046Y10984D01*
X7053Y10981D01*
X7061Y10978D01*
X7071Y10976D01*
X7081Y10975D01*
X7083D01*
X7085Y10975D01*
X7090Y10976D01*
X7096Y10977D01*
X7103Y10979D01*
X7111Y10983D01*
X7118Y10987D01*
X7125Y10993D01*
X7126Y10994D01*
X7128Y10996D01*
X7131Y11000D01*
X7134Y11005D01*
X7137Y11012D01*
X7140Y11019D01*
X7142Y11028D01*
X7143Y11037D01*
Y11038D01*
Y11039D01*
Y11042D01*
X7142Y11045D01*
X7142Y11049D01*
X7141Y11054D01*
X7140Y11059D01*
X7139Y11065D01*
X7174Y11061D01*
Y11060D01*
Y11058D01*
X7173Y11056D01*
Y11054D01*
Y11054D01*
Y11053D01*
Y11052D01*
Y11050D01*
X7174Y11046D01*
X7174Y11039D01*
X7176Y11033D01*
X7178Y11025D01*
X7181Y11017D01*
X7186Y11010D01*
X7186Y11009D01*
X7188Y11006D01*
X7192Y11003D01*
X7196Y10999D01*
X7201Y10995D01*
X7208Y10992D01*
X7216Y10990D01*
X7226Y10989D01*
X7230D01*
X7234Y10990D01*
X7239Y10991D01*
X7244Y10992D01*
X7250Y10995D01*
X7256Y10999D01*
X7262Y11004D01*
X7262Y11004D01*
X7264Y11006D01*
X7267Y11010D01*
X7269Y11014D01*
X7272Y11019D01*
X7274Y11026D01*
X7276Y11033D01*
X7276Y11041D01*
Y11042D01*
Y11042D01*
Y11045D01*
X7276Y11050D01*
X7275Y11054D01*
X7273Y11061D01*
X7270Y11067D01*
X7267Y11073D01*
X7262Y11080D01*
X7261Y11080D01*
X7259Y11082D01*
X7256Y11085D01*
X7251Y11088D01*
X7245Y11091D01*
X7238Y11094D01*
X7229Y11097D01*
X7219Y11099D01*
X7226Y11138D01*
X7226D01*
X7228Y11138D01*
X7230Y11137D01*
X7232Y11137D01*
X7235Y11136D01*
X7239Y11135D01*
X7248Y11132D01*
X7258Y11128D01*
X7268Y11122D01*
X7278Y11115D01*
X7287Y11106D01*
X7287Y11106D01*
X7288Y11105D01*
X7289Y11104D01*
X7290Y11101D01*
X7292Y11099D01*
X7294Y11096D01*
X7298Y11089D01*
X7302Y11079D01*
X7305Y11068D01*
X7308Y11056D01*
X7309Y11049D01*
Y11042D01*
Y11042D01*
Y11041D01*
Y11040D01*
Y11038D01*
X7308Y11033D01*
X7307Y11027D01*
X7306Y11019D01*
X7304Y11011D01*
X7301Y11003D01*
X7297Y10994D01*
Y10994D01*
X7296Y10993D01*
X7295Y10991D01*
X7293Y10987D01*
X7289Y10982D01*
X7285Y10976D01*
X7279Y10971D01*
X7273Y10965D01*
X7266Y10960D01*
X7265Y10960D01*
X7263Y10958D01*
X7259Y10956D01*
X7254Y10954D01*
X7248Y10952D01*
X7241Y10951D01*
X7234Y10949D01*
X7225Y10949D01*
X7222D01*
X7218Y10949D01*
X7213Y10950D01*
X7207Y10951D01*
X7201Y10953D01*
X7194Y10956D01*
X7188Y10960D01*
X7187Y10960D01*
X7185Y10962D01*
X7182Y10965D01*
X7178Y10968D01*
X7174Y10973D01*
X7169Y10978D01*
X7164Y10985D01*
X7160Y10993D01*
Y10992D01*
X7160Y10992D01*
Y10990D01*
X7159Y10988D01*
X7157Y10983D01*
X7154Y10977D01*
X7151Y10970D01*
X7146Y10963D01*
X7140Y10955D01*
X7133Y10949D01*
X7132Y10949D01*
X7129Y10947D01*
X7125Y10944D01*
X7119Y10941D01*
X7112Y10938D01*
X7103Y10935D01*
X7093Y10933D01*
X7081Y10933D01*
X7077D01*
X7074Y10933D01*
X7071Y10934D01*
X7067Y10934D01*
X7062Y10935D01*
X7057Y10937D01*
X7046Y10940D01*
X7039Y10943D01*
X7033Y10946D01*
X7028Y10950D01*
X7022Y10953D01*
X7016Y10958D01*
X7010Y10964D01*
X7010Y10964D01*
X7009Y10965D01*
X7008Y10967D01*
X7006Y10969D01*
X7003Y10972D01*
X7001Y10976D01*
X6998Y10980D01*
X6996Y10985D01*
X6993Y10990D01*
X6991Y10996D01*
X6988Y11002D01*
X6986Y11009D01*
X6984Y11016D01*
X6983Y11024D01*
X6982Y11033D01*
X6981Y11041D01*
Y11041D01*
Y11043D01*
Y11045D01*
X6982Y11048D01*
X6982Y11052D01*
X6983Y11055D01*
X6983Y11060D01*
X6984Y11065D01*
X6987Y11076D01*
X6992Y11088D01*
X6994Y11094D01*
X6998Y11099D01*
X7002Y11105D01*
X7006Y11111D01*
X7007Y11111D01*
X7007Y11112D01*
X7009Y11113D01*
X7011Y11115D01*
X7013Y11117D01*
X7016Y11119D01*
X7020Y11122D01*
X7024Y11125D01*
X7033Y11131D01*
X7045Y11135D01*
X7057Y11140D01*
X7064Y11141D01*
X7072Y11142D01*
X7077Y11103D01*
D02*
G37*
G36*
X7083Y11335D02*
X7079D01*
X7077Y11334D01*
X7074D01*
X7071Y11334D01*
X7063Y11332D01*
X7054Y11331D01*
X7046Y11328D01*
X7038Y11325D01*
X7035Y11323D01*
X7032Y11321D01*
X7032Y11320D01*
X7030Y11318D01*
X7028Y11316D01*
X7026Y11312D01*
X7023Y11307D01*
X7021Y11301D01*
X7019Y11295D01*
X7019Y11287D01*
Y11286D01*
Y11284D01*
X7019Y11281D01*
X7020Y11277D01*
X7021Y11273D01*
X7022Y11268D01*
X7024Y11264D01*
X7026Y11259D01*
X7027Y11259D01*
X7028Y11257D01*
X7029Y11256D01*
X7032Y11253D01*
X7034Y11250D01*
X7037Y11248D01*
X7041Y11245D01*
X7046Y11243D01*
X7046D01*
X7048Y11242D01*
X7051Y11242D01*
X7055Y11241D01*
X7061Y11240D01*
X7068Y11239D01*
X7076Y11238D01*
X7307D01*
Y11196D01*
X7082D01*
X7078Y11196D01*
X7074D01*
X7066Y11197D01*
X7055Y11198D01*
X7045Y11200D01*
X7035Y11202D01*
X7026Y11206D01*
X7025Y11206D01*
X7023Y11208D01*
X7019Y11210D01*
X7014Y11213D01*
X7008Y11217D01*
X7003Y11223D01*
X6997Y11230D01*
X6992Y11237D01*
X6992Y11238D01*
X6991Y11241D01*
X6989Y11245D01*
X6987Y11251D01*
X6985Y11258D01*
X6983Y11267D01*
X6982Y11277D01*
X6981Y11287D01*
Y11287D01*
Y11289D01*
Y11291D01*
X6982Y11294D01*
X6982Y11297D01*
X6983Y11301D01*
X6984Y11311D01*
X6987Y11321D01*
X6991Y11332D01*
X6994Y11337D01*
X6997Y11342D01*
X7001Y11347D01*
X7005Y11351D01*
X7006D01*
X7006Y11352D01*
X7008Y11353D01*
X7010Y11355D01*
X7012Y11357D01*
X7015Y11358D01*
X7019Y11360D01*
X7023Y11362D01*
X7028Y11364D01*
X7033Y11366D01*
X7039Y11368D01*
X7046Y11370D01*
X7053Y11371D01*
X7061Y11372D01*
X7069Y11373D01*
X7077D01*
X7083Y11335D01*
D02*
G37*
G36*
X8670Y11638D02*
X8674D01*
X8682Y11638D01*
X8693Y11636D01*
X8703Y11635D01*
X8713Y11632D01*
X8722Y11629D01*
X8723Y11628D01*
X8725Y11627D01*
X8729Y11624D01*
X8734Y11622D01*
X8740Y11617D01*
X8745Y11612D01*
X8751Y11605D01*
X8756Y11598D01*
X8756Y11597D01*
X8758Y11594D01*
X8759Y11589D01*
X8761Y11584D01*
X8763Y11576D01*
X8765Y11568D01*
X8766Y11558D01*
X8767Y11548D01*
Y11547D01*
Y11546D01*
Y11544D01*
X8766Y11541D01*
X8766Y11538D01*
X8765Y11533D01*
X8764Y11524D01*
X8761Y11514D01*
X8757Y11503D01*
X8754Y11498D01*
X8751Y11493D01*
X8747Y11488D01*
X8743Y11483D01*
X8742D01*
X8742Y11482D01*
X8740Y11482D01*
X8738Y11480D01*
X8736Y11478D01*
X8733Y11477D01*
X8729Y11474D01*
X8725Y11472D01*
X8720Y11470D01*
X8715Y11468D01*
X8709Y11466D01*
X8702Y11465D01*
X8695Y11463D01*
X8687Y11462D01*
X8679Y11462D01*
X8671D01*
X8665Y11500D01*
X8669D01*
X8671Y11501D01*
X8674D01*
X8677Y11501D01*
X8685Y11502D01*
X8694Y11504D01*
X8702Y11506D01*
X8710Y11510D01*
X8713Y11512D01*
X8716Y11514D01*
X8717Y11514D01*
X8718Y11516D01*
X8720Y11519D01*
X8722Y11523D01*
X8725Y11527D01*
X8727Y11533D01*
X8729Y11540D01*
X8729Y11548D01*
Y11548D01*
Y11551D01*
X8729Y11554D01*
X8728Y11557D01*
X8727Y11562D01*
X8726Y11566D01*
X8724Y11571D01*
X8722Y11575D01*
X8721Y11576D01*
X8720Y11577D01*
X8719Y11579D01*
X8717Y11582D01*
X8714Y11584D01*
X8711Y11587D01*
X8707Y11589D01*
X8702Y11591D01*
X8702D01*
X8700Y11592D01*
X8697Y11593D01*
X8693Y11594D01*
X8687Y11595D01*
X8680Y11595D01*
X8672Y11596D01*
X8441D01*
Y11639D01*
X8666D01*
X8670Y11638D01*
D02*
G37*
G36*
X8685Y11857D02*
X8761D01*
Y11818D01*
X8685D01*
Y11679D01*
X8649D01*
X8441Y11825D01*
Y11857D01*
X8649D01*
Y11901D01*
X8685D01*
Y11857D01*
D02*
G37*
G36*
X3543Y8343D02*
X3506D01*
Y8501D01*
X3498Y8496D01*
X3492Y8490D01*
X3489Y8488D01*
X3487Y8486D01*
X3485Y8485D01*
X3485Y8484D01*
X3482Y8482D01*
X3480Y8479D01*
X3474Y8473D01*
X3467Y8465D01*
X3460Y8458D01*
X3454Y8451D01*
X3449Y8445D01*
X3447Y8442D01*
X3446Y8440D01*
X3445Y8439D01*
X3444Y8439D01*
X3437Y8431D01*
X3432Y8424D01*
X3426Y8417D01*
X3420Y8412D01*
X3415Y8406D01*
X3411Y8401D01*
X3406Y8396D01*
X3402Y8393D01*
X3399Y8389D01*
X3396Y8386D01*
X3392Y8382D01*
X3389Y8379D01*
X3388Y8378D01*
X3380Y8372D01*
X3373Y8366D01*
X3366Y8362D01*
X3360Y8358D01*
X3355Y8355D01*
X3352Y8354D01*
X3350Y8353D01*
X3349Y8352D01*
X3342Y8349D01*
X3335Y8347D01*
X3329Y8346D01*
X3323Y8345D01*
X3318Y8344D01*
X3314Y8344D01*
X3311D01*
X3304Y8344D01*
X3297Y8345D01*
X3285Y8348D01*
X3274Y8353D01*
X3265Y8357D01*
X3257Y8362D01*
X3254Y8365D01*
X3251Y8367D01*
X3250Y8369D01*
X3248Y8370D01*
X3248Y8371D01*
X3247Y8371D01*
X3243Y8376D01*
X3238Y8382D01*
X3235Y8388D01*
X3232Y8394D01*
X3228Y8406D01*
X3225Y8418D01*
X3223Y8423D01*
X3223Y8428D01*
X3222Y8433D01*
X3222Y8436D01*
X3221Y8440D01*
Y8442D01*
Y8444D01*
Y8444D01*
X3222Y8453D01*
X3222Y8460D01*
X3225Y8475D01*
X3227Y8481D01*
X3229Y8488D01*
X3231Y8493D01*
X3233Y8498D01*
X3235Y8502D01*
X3237Y8506D01*
X3240Y8510D01*
X3241Y8513D01*
X3243Y8515D01*
X3244Y8516D01*
X3245Y8517D01*
X3245Y8517D01*
X3250Y8522D01*
X3255Y8526D01*
X3266Y8534D01*
X3277Y8539D01*
X3289Y8543D01*
X3298Y8546D01*
X3303Y8546D01*
X3307Y8547D01*
X3310Y8548D01*
X3312Y8548D01*
X3314D01*
X3318Y8508D01*
X3308Y8507D01*
X3298Y8505D01*
X3291Y8502D01*
X3284Y8499D01*
X3278Y8496D01*
X3274Y8493D01*
X3272Y8491D01*
X3271Y8491D01*
X3266Y8484D01*
X3261Y8476D01*
X3258Y8469D01*
X3256Y8461D01*
X3255Y8455D01*
X3254Y8450D01*
X3254Y8448D01*
Y8447D01*
Y8446D01*
Y8445D01*
X3254Y8436D01*
X3256Y8427D01*
X3259Y8419D01*
X3262Y8413D01*
X3265Y8408D01*
X3268Y8404D01*
X3270Y8402D01*
X3270Y8401D01*
X3276Y8395D01*
X3283Y8392D01*
X3290Y8389D01*
X3296Y8386D01*
X3301Y8385D01*
X3306Y8385D01*
X3309Y8384D01*
X3310D01*
X3318Y8385D01*
X3327Y8387D01*
X3334Y8390D01*
X3342Y8394D01*
X3348Y8397D01*
X3353Y8400D01*
X3355Y8401D01*
X3356Y8402D01*
X3357Y8403D01*
X3357D01*
X3362Y8407D01*
X3368Y8411D01*
X3373Y8416D01*
X3378Y8422D01*
X3390Y8434D01*
X3401Y8445D01*
X3410Y8456D01*
X3414Y8461D01*
X3418Y8465D01*
X3421Y8469D01*
X3423Y8471D01*
X3425Y8473D01*
X3425Y8474D01*
X3435Y8485D01*
X3445Y8496D01*
X3453Y8505D01*
X3460Y8512D01*
X3466Y8518D01*
X3470Y8522D01*
X3473Y8524D01*
X3474Y8525D01*
X3474D01*
X3482Y8532D01*
X3489Y8537D01*
X3496Y8541D01*
X3503Y8545D01*
X3509Y8548D01*
X3513Y8550D01*
X3515Y8551D01*
X3516Y8551D01*
X3516D01*
X3521Y8553D01*
X3526Y8554D01*
X3531Y8555D01*
X3535Y8555D01*
X3538Y8556D01*
X3543D01*
Y8343D01*
D02*
G37*
G36*
X3401Y8897D02*
X3417Y8895D01*
X3432Y8892D01*
X3438Y8890D01*
X3444Y8888D01*
X3450Y8886D01*
X3454Y8884D01*
X3459Y8883D01*
X3462Y8882D01*
X3465Y8881D01*
X3467Y8880D01*
X3469Y8879D01*
X3469D01*
X3483Y8871D01*
X3495Y8862D01*
X3505Y8853D01*
X3513Y8844D01*
X3519Y8837D01*
X3522Y8833D01*
X3524Y8830D01*
X3526Y8828D01*
X3527Y8826D01*
X3528Y8825D01*
X3528Y8824D01*
X3535Y8811D01*
X3540Y8797D01*
X3544Y8784D01*
X3546Y8772D01*
X3547Y8766D01*
X3548Y8761D01*
X3548Y8757D01*
Y8753D01*
X3549Y8750D01*
Y8748D01*
Y8746D01*
Y8746D01*
X3548Y8730D01*
X3546Y8716D01*
X3542Y8702D01*
X3541Y8696D01*
X3539Y8690D01*
X3537Y8685D01*
X3535Y8681D01*
X3534Y8677D01*
X3532Y8674D01*
X3531Y8671D01*
X3530Y8669D01*
X3529Y8668D01*
Y8667D01*
X3538Y8655D01*
X3546Y8642D01*
X3553Y8630D01*
X3558Y8620D01*
X3560Y8615D01*
X3562Y8611D01*
X3564Y8607D01*
X3565Y8604D01*
X3566Y8602D01*
X3567Y8600D01*
X3568Y8599D01*
Y8598D01*
X3539Y8585D01*
X3535Y8595D01*
X3530Y8605D01*
X3525Y8614D01*
X3520Y8622D01*
X3516Y8630D01*
X3514Y8633D01*
X3513Y8636D01*
X3511Y8638D01*
X3510Y8639D01*
X3509Y8640D01*
Y8640D01*
X3500Y8632D01*
X3491Y8624D01*
X3481Y8618D01*
X3473Y8613D01*
X3466Y8609D01*
X3462Y8607D01*
X3460Y8606D01*
X3457Y8605D01*
X3456Y8604D01*
X3455Y8604D01*
X3454D01*
X3442Y8600D01*
X3430Y8597D01*
X3418Y8595D01*
X3407Y8593D01*
X3402Y8593D01*
X3397Y8592D01*
X3393D01*
X3390Y8592D01*
X3383D01*
X3366Y8593D01*
X3350Y8595D01*
X3335Y8598D01*
X3329Y8599D01*
X3323Y8601D01*
X3317Y8603D01*
X3312Y8605D01*
X3308Y8606D01*
X3305Y8608D01*
X3302Y8609D01*
X3299Y8610D01*
X3298Y8611D01*
X3298D01*
X3284Y8619D01*
X3272Y8627D01*
X3262Y8636D01*
X3254Y8645D01*
X3248Y8653D01*
X3245Y8656D01*
X3243Y8659D01*
X3241Y8661D01*
X3240Y8663D01*
X3239Y8664D01*
Y8665D01*
X3235Y8672D01*
X3231Y8679D01*
X3227Y8692D01*
X3223Y8706D01*
X3220Y8718D01*
X3219Y8724D01*
X3218Y8729D01*
X3218Y8734D01*
Y8738D01*
X3217Y8741D01*
Y8743D01*
Y8744D01*
Y8745D01*
X3218Y8761D01*
X3221Y8776D01*
X3224Y8789D01*
X3226Y8795D01*
X3228Y8801D01*
X3230Y8806D01*
X3231Y8810D01*
X3233Y8814D01*
X3234Y8818D01*
X3236Y8821D01*
X3237Y8822D01*
X3237Y8823D01*
X3238Y8824D01*
X3246Y8837D01*
X3256Y8847D01*
X3266Y8857D01*
X3275Y8864D01*
X3284Y8871D01*
X3288Y8873D01*
X3291Y8875D01*
X3293Y8877D01*
X3295Y8878D01*
X3297Y8879D01*
X3297D01*
X3312Y8885D01*
X3327Y8890D01*
X3341Y8893D01*
X3355Y8895D01*
X3361Y8896D01*
X3366Y8897D01*
X3371Y8897D01*
X3375D01*
X3378Y8898D01*
X3383D01*
X3401Y8897D01*
D02*
G37*
G36*
X3512Y1562D02*
X3517Y1553D01*
X3522Y1543D01*
X3527Y1535D01*
X3531Y1528D01*
X3533Y1525D01*
X3535Y1522D01*
X3536Y1520D01*
X3537Y1518D01*
X3538Y1518D01*
Y1517D01*
X3547Y1526D01*
X3557Y1533D01*
X3566Y1539D01*
X3574Y1544D01*
X3582Y1548D01*
X3585Y1550D01*
X3587Y1551D01*
X3590Y1552D01*
X3591Y1553D01*
X3592Y1554D01*
X3593D01*
X3605Y1558D01*
X3617Y1560D01*
X3629Y1563D01*
X3640Y1564D01*
X3645Y1565D01*
X3650Y1565D01*
X3654D01*
X3657Y1566D01*
X3664D01*
X3682Y1565D01*
X3698Y1563D01*
X3712Y1560D01*
X3719Y1558D01*
X3725Y1557D01*
X3730Y1555D01*
X3735Y1553D01*
X3739Y1551D01*
X3743Y1550D01*
X3746Y1549D01*
X3748Y1548D01*
X3749Y1547D01*
X3749D01*
X3763Y1539D01*
X3775Y1531D01*
X3785Y1521D01*
X3793Y1513D01*
X3800Y1505D01*
X3803Y1501D01*
X3805Y1498D01*
X3807Y1496D01*
X3807Y1494D01*
X3808Y1493D01*
Y1493D01*
X3812Y1486D01*
X3816Y1479D01*
X3821Y1465D01*
X3825Y1452D01*
X3827Y1439D01*
X3828Y1434D01*
X3829Y1429D01*
X3829Y1424D01*
Y1420D01*
X3830Y1417D01*
Y1415D01*
Y1413D01*
Y1413D01*
X3829Y1397D01*
X3827Y1382D01*
X3824Y1369D01*
X3822Y1362D01*
X3820Y1357D01*
X3818Y1352D01*
X3816Y1347D01*
X3814Y1343D01*
X3813Y1340D01*
X3811Y1337D01*
X3810Y1335D01*
X3810Y1334D01*
X3809Y1334D01*
X3801Y1321D01*
X3791Y1310D01*
X3782Y1301D01*
X3772Y1293D01*
X3764Y1287D01*
X3760Y1284D01*
X3756Y1282D01*
X3754Y1281D01*
X3752Y1280D01*
X3750Y1279D01*
X3750D01*
X3735Y1273D01*
X3720Y1268D01*
X3706Y1265D01*
X3692Y1262D01*
X3686Y1261D01*
X3681Y1261D01*
X3676Y1260D01*
X3672D01*
X3669Y1260D01*
X3664D01*
X3646Y1261D01*
X3630Y1263D01*
X3616Y1266D01*
X3609Y1268D01*
X3603Y1270D01*
X3598Y1271D01*
X3593Y1273D01*
X3588Y1274D01*
X3585Y1276D01*
X3582Y1277D01*
X3580Y1278D01*
X3579Y1279D01*
X3578D01*
X3564Y1287D01*
X3553Y1295D01*
X3542Y1304D01*
X3534Y1313D01*
X3528Y1321D01*
X3525Y1324D01*
X3523Y1327D01*
X3522Y1330D01*
X3520Y1332D01*
X3520Y1333D01*
X3519Y1333D01*
X3512Y1347D01*
X3507Y1360D01*
X3503Y1374D01*
X3501Y1386D01*
X3501Y1391D01*
X3500Y1396D01*
X3499Y1400D01*
Y1404D01*
X3499Y1407D01*
Y1410D01*
Y1411D01*
Y1412D01*
X3500Y1427D01*
X3501Y1442D01*
X3505Y1456D01*
X3506Y1461D01*
X3508Y1467D01*
X3510Y1472D01*
X3512Y1477D01*
X3514Y1480D01*
X3515Y1484D01*
X3516Y1487D01*
X3517Y1489D01*
X3518Y1490D01*
Y1490D01*
X3509Y1503D01*
X3501Y1516D01*
X3494Y1527D01*
X3489Y1538D01*
X3487Y1542D01*
X3485Y1546D01*
X3483Y1550D01*
X3482Y1553D01*
X3481Y1556D01*
X3480Y1558D01*
X3480Y1558D01*
Y1559D01*
X3508Y1572D01*
X3512Y1562D01*
D02*
G37*
G36*
X3610Y1817D02*
X3620Y1815D01*
X3629Y1812D01*
X3636Y1809D01*
X3642Y1806D01*
X3646Y1803D01*
X3649Y1802D01*
X3650Y1801D01*
X3658Y1795D01*
X3664Y1787D01*
X3668Y1780D01*
X3672Y1773D01*
X3675Y1767D01*
X3676Y1762D01*
X3677Y1760D01*
Y1759D01*
X3678Y1758D01*
Y1757D01*
X3682Y1765D01*
X3686Y1772D01*
X3691Y1777D01*
X3695Y1782D01*
X3699Y1785D01*
X3702Y1788D01*
X3704Y1790D01*
X3705Y1790D01*
X3711Y1794D01*
X3718Y1797D01*
X3725Y1799D01*
X3730Y1800D01*
X3735Y1801D01*
X3739Y1802D01*
X3743D01*
X3751Y1801D01*
X3758Y1800D01*
X3765Y1798D01*
X3771Y1796D01*
X3776Y1794D01*
X3780Y1792D01*
X3783Y1790D01*
X3784Y1790D01*
X3790Y1785D01*
X3797Y1780D01*
X3802Y1774D01*
X3807Y1768D01*
X3810Y1763D01*
X3812Y1760D01*
X3814Y1757D01*
X3814Y1756D01*
Y1756D01*
X3818Y1747D01*
X3821Y1739D01*
X3823Y1731D01*
X3825Y1723D01*
X3826Y1717D01*
X3826Y1712D01*
Y1710D01*
Y1709D01*
Y1708D01*
Y1708D01*
Y1701D01*
X3825Y1694D01*
X3823Y1682D01*
X3819Y1671D01*
X3815Y1661D01*
X3811Y1654D01*
X3809Y1651D01*
X3807Y1649D01*
X3806Y1646D01*
X3805Y1645D01*
X3805Y1644D01*
X3804Y1644D01*
X3795Y1635D01*
X3786Y1628D01*
X3775Y1622D01*
X3765Y1619D01*
X3757Y1615D01*
X3753Y1614D01*
X3749Y1613D01*
X3747Y1613D01*
X3745Y1612D01*
X3744Y1612D01*
X3743D01*
X3736Y1651D01*
X3746Y1653D01*
X3755Y1656D01*
X3763Y1659D01*
X3768Y1662D01*
X3773Y1665D01*
X3777Y1668D01*
X3779Y1670D01*
X3779Y1670D01*
X3784Y1677D01*
X3787Y1683D01*
X3790Y1689D01*
X3792Y1696D01*
X3793Y1701D01*
X3794Y1705D01*
Y1708D01*
Y1708D01*
Y1709D01*
X3793Y1717D01*
X3791Y1724D01*
X3789Y1731D01*
X3786Y1736D01*
X3784Y1741D01*
X3782Y1744D01*
X3780Y1746D01*
X3779Y1746D01*
X3774Y1751D01*
X3767Y1755D01*
X3762Y1758D01*
X3756Y1759D01*
X3751Y1760D01*
X3747Y1761D01*
X3744D01*
X3734Y1760D01*
X3725Y1758D01*
X3719Y1755D01*
X3713Y1751D01*
X3709Y1747D01*
X3705Y1744D01*
X3704Y1742D01*
X3703Y1741D01*
X3699Y1733D01*
X3696Y1725D01*
X3693Y1718D01*
X3692Y1711D01*
X3691Y1704D01*
X3690Y1700D01*
Y1698D01*
Y1697D01*
Y1696D01*
Y1696D01*
Y1694D01*
X3691Y1692D01*
Y1690D01*
Y1689D01*
X3656Y1685D01*
X3658Y1691D01*
X3659Y1696D01*
X3659Y1701D01*
X3660Y1705D01*
X3660Y1708D01*
Y1711D01*
Y1712D01*
Y1713D01*
X3659Y1722D01*
X3657Y1731D01*
X3655Y1739D01*
X3651Y1745D01*
X3648Y1750D01*
X3645Y1754D01*
X3644Y1756D01*
X3643Y1757D01*
X3636Y1763D01*
X3628Y1767D01*
X3621Y1771D01*
X3614Y1773D01*
X3607Y1774D01*
X3603Y1775D01*
X3601Y1775D01*
X3598D01*
X3588Y1774D01*
X3579Y1772D01*
X3570Y1769D01*
X3563Y1766D01*
X3558Y1762D01*
X3554Y1759D01*
X3551Y1757D01*
X3550Y1756D01*
X3544Y1749D01*
X3539Y1741D01*
X3536Y1733D01*
X3534Y1725D01*
X3532Y1719D01*
X3532Y1714D01*
X3531Y1712D01*
Y1711D01*
Y1710D01*
Y1709D01*
X3532Y1701D01*
X3534Y1693D01*
X3536Y1686D01*
X3539Y1681D01*
X3542Y1676D01*
X3543Y1673D01*
X3545Y1671D01*
X3546Y1670D01*
X3552Y1664D01*
X3560Y1660D01*
X3568Y1656D01*
X3576Y1653D01*
X3583Y1650D01*
X3589Y1649D01*
X3591Y1648D01*
X3593D01*
X3594Y1647D01*
X3594D01*
X3589Y1608D01*
X3582Y1609D01*
X3575Y1610D01*
X3562Y1615D01*
X3551Y1620D01*
X3541Y1625D01*
X3537Y1628D01*
X3534Y1631D01*
X3531Y1633D01*
X3528Y1635D01*
X3526Y1637D01*
X3524Y1639D01*
X3524Y1639D01*
X3523Y1640D01*
X3519Y1645D01*
X3515Y1651D01*
X3512Y1656D01*
X3509Y1662D01*
X3504Y1674D01*
X3501Y1685D01*
X3501Y1690D01*
X3500Y1695D01*
X3500Y1699D01*
X3499Y1702D01*
X3499Y1705D01*
Y1707D01*
Y1709D01*
Y1709D01*
X3499Y1718D01*
X3500Y1726D01*
X3501Y1734D01*
X3503Y1741D01*
X3505Y1748D01*
X3508Y1754D01*
X3510Y1760D01*
X3513Y1765D01*
X3516Y1770D01*
X3518Y1774D01*
X3521Y1778D01*
X3523Y1781D01*
X3525Y1783D01*
X3526Y1785D01*
X3527Y1786D01*
X3527Y1786D01*
X3533Y1792D01*
X3539Y1797D01*
X3545Y1801D01*
X3551Y1804D01*
X3557Y1807D01*
X3563Y1810D01*
X3574Y1813D01*
X3579Y1815D01*
X3584Y1816D01*
X3588Y1816D01*
X3592Y1817D01*
X3595Y1817D01*
X3599D01*
X3610Y1817D01*
D02*
G37*
G36*
X11845Y2922D02*
X11968Y2756D01*
X11918D01*
X11837Y2867D01*
X11835Y2870D01*
X11832Y2873D01*
X11827Y2880D01*
X11825Y2884D01*
X11823Y2887D01*
X11822Y2889D01*
X11821Y2890D01*
X11816Y2882D01*
X11812Y2876D01*
X11810Y2874D01*
X11809Y2872D01*
X11808Y2871D01*
X11808Y2870D01*
X11727Y2756D01*
X11675D01*
X11795Y2924D01*
X11684Y3077D01*
X11730D01*
X11794Y2991D01*
X11800Y2984D01*
X11805Y2977D01*
X11809Y2971D01*
X11812Y2966D01*
X11815Y2961D01*
X11818Y2958D01*
X11819Y2956D01*
X11820Y2955D01*
X11823Y2961D01*
X11826Y2967D01*
X11831Y2974D01*
X11835Y2980D01*
X11839Y2985D01*
X11842Y2990D01*
X11844Y2993D01*
X11845Y2994D01*
Y2994D01*
X11904Y3077D01*
X11954D01*
X11845Y2922D01*
D02*
G37*
G36*
X11535Y3070D02*
X11541Y3062D01*
X11546Y3055D01*
X11552Y3048D01*
X11558Y3043D01*
X11562Y3038D01*
X11565Y3036D01*
X11565Y3035D01*
X11566Y3035D01*
X11575Y3027D01*
X11585Y3019D01*
X11595Y3013D01*
X11603Y3008D01*
X11611Y3003D01*
X11615Y3002D01*
X11618Y3000D01*
X11620Y2999D01*
X11622Y2998D01*
X11623Y2997D01*
X11623D01*
Y2959D01*
X11616Y2962D01*
X11609Y2965D01*
X11602Y2968D01*
X11596Y2972D01*
X11590Y2975D01*
X11586Y2977D01*
X11583Y2979D01*
X11582Y2979D01*
X11582D01*
X11574Y2984D01*
X11566Y2990D01*
X11560Y2994D01*
X11555Y2998D01*
X11550Y3002D01*
X11547Y3004D01*
X11545Y3006D01*
X11544Y3007D01*
Y2756D01*
X11505D01*
Y3078D01*
X11531D01*
X11535Y3070D01*
D02*
G37*
G36*
X3731Y5403D02*
X3728Y5396D01*
X3725Y5389D01*
X3721Y5382D01*
X3718Y5377D01*
X3716Y5373D01*
X3714Y5370D01*
X3713Y5369D01*
Y5369D01*
X3709Y5360D01*
X3703Y5353D01*
X3699Y5347D01*
X3694Y5341D01*
X3691Y5337D01*
X3689Y5334D01*
X3687Y5332D01*
X3686Y5331D01*
X3937D01*
Y5292D01*
X3615D01*
Y5317D01*
X3623Y5322D01*
X3631Y5327D01*
X3638Y5333D01*
X3645Y5339D01*
X3650Y5344D01*
X3654Y5349D01*
X3657Y5352D01*
X3658Y5352D01*
X3658Y5353D01*
X3666Y5362D01*
X3673Y5372D01*
X3680Y5381D01*
X3685Y5390D01*
X3690Y5398D01*
X3691Y5401D01*
X3693Y5404D01*
X3694Y5406D01*
X3695Y5408D01*
X3695Y5409D01*
Y5410D01*
X3734D01*
X3731Y5403D01*
D02*
G37*
G36*
X3795Y5786D02*
X3811Y5784D01*
X3825Y5782D01*
X3832Y5780D01*
X3838Y5778D01*
X3843Y5776D01*
X3848Y5774D01*
X3853Y5773D01*
X3856Y5771D01*
X3859Y5770D01*
X3861Y5769D01*
X3862Y5768D01*
X3863D01*
X3877Y5761D01*
X3888Y5752D01*
X3898Y5743D01*
X3907Y5734D01*
X3913Y5726D01*
X3916Y5723D01*
X3918Y5720D01*
X3919Y5718D01*
X3921Y5716D01*
X3921Y5715D01*
X3922Y5714D01*
X3929Y5701D01*
X3934Y5687D01*
X3938Y5674D01*
X3940Y5662D01*
X3940Y5656D01*
X3941Y5651D01*
X3942Y5647D01*
Y5643D01*
X3942Y5640D01*
Y5638D01*
Y5636D01*
Y5636D01*
X3941Y5620D01*
X3939Y5605D01*
X3936Y5592D01*
X3935Y5586D01*
X3933Y5580D01*
X3931Y5575D01*
X3929Y5571D01*
X3927Y5567D01*
X3926Y5563D01*
X3925Y5560D01*
X3924Y5559D01*
X3923Y5558D01*
Y5557D01*
X3932Y5544D01*
X3940Y5532D01*
X3947Y5520D01*
X3952Y5510D01*
X3954Y5505D01*
X3956Y5501D01*
X3958Y5497D01*
X3959Y5494D01*
X3960Y5492D01*
X3961Y5490D01*
X3961Y5489D01*
Y5488D01*
X3933Y5475D01*
X3929Y5485D01*
X3924Y5495D01*
X3919Y5504D01*
X3914Y5512D01*
X3910Y5519D01*
X3908Y5522D01*
X3906Y5525D01*
X3905Y5527D01*
X3904Y5529D01*
X3903Y5530D01*
Y5530D01*
X3894Y5521D01*
X3884Y5514D01*
X3875Y5508D01*
X3867Y5503D01*
X3859Y5499D01*
X3856Y5497D01*
X3854Y5496D01*
X3851Y5495D01*
X3850Y5494D01*
X3849Y5494D01*
X3848D01*
X3836Y5490D01*
X3824Y5487D01*
X3812Y5484D01*
X3801Y5483D01*
X3795Y5482D01*
X3791Y5482D01*
X3787D01*
X3784Y5481D01*
X3777D01*
X3759Y5482D01*
X3743Y5484D01*
X3729Y5487D01*
X3722Y5489D01*
X3716Y5491D01*
X3711Y5493D01*
X3706Y5495D01*
X3702Y5496D01*
X3698Y5498D01*
X3695Y5499D01*
X3693Y5499D01*
X3692Y5500D01*
X3692D01*
X3678Y5508D01*
X3666Y5517D01*
X3656Y5526D01*
X3648Y5535D01*
X3641Y5542D01*
X3638Y5546D01*
X3636Y5549D01*
X3634Y5551D01*
X3633Y5553D01*
X3632Y5554D01*
Y5555D01*
X3629Y5561D01*
X3625Y5568D01*
X3620Y5582D01*
X3616Y5596D01*
X3613Y5608D01*
X3613Y5614D01*
X3612Y5619D01*
X3612Y5623D01*
Y5627D01*
X3611Y5630D01*
Y5633D01*
Y5634D01*
Y5635D01*
X3612Y5650D01*
X3614Y5665D01*
X3617Y5679D01*
X3619Y5685D01*
X3621Y5690D01*
X3623Y5696D01*
X3625Y5700D01*
X3627Y5704D01*
X3628Y5707D01*
X3630Y5710D01*
X3631Y5712D01*
X3631Y5713D01*
X3632Y5714D01*
X3640Y5726D01*
X3650Y5737D01*
X3659Y5746D01*
X3669Y5754D01*
X3677Y5761D01*
X3681Y5763D01*
X3685Y5765D01*
X3687Y5766D01*
X3689Y5767D01*
X3691Y5768D01*
X3691D01*
X3706Y5775D01*
X3721Y5780D01*
X3735Y5783D01*
X3749Y5785D01*
X3754Y5786D01*
X3760Y5786D01*
X3765Y5787D01*
X3769D01*
X3772Y5787D01*
X3777D01*
X3795Y5786D01*
D02*
G37*
G36*
X6924Y5828D02*
X7131D01*
Y5796D01*
X6924Y5649D01*
X6888D01*
Y5788D01*
X6811D01*
Y5828D01*
X6888D01*
Y5871D01*
X6924D01*
Y5828D01*
D02*
G37*
G36*
X6819Y5618D02*
X6824Y5608D01*
X6829Y5598D01*
X6834Y5590D01*
X6838Y5583D01*
X6840Y5580D01*
X6842Y5577D01*
X6843Y5575D01*
X6844Y5574D01*
X6845Y5573D01*
Y5572D01*
X6854Y5581D01*
X6864Y5588D01*
X6873Y5595D01*
X6881Y5599D01*
X6889Y5603D01*
X6892Y5605D01*
X6894Y5606D01*
X6897Y5607D01*
X6898Y5608D01*
X6899Y5609D01*
X6900D01*
X6912Y5613D01*
X6924Y5616D01*
X6936Y5618D01*
X6947Y5619D01*
X6953Y5620D01*
X6957Y5620D01*
X6961D01*
X6964Y5621D01*
X6971D01*
X6989Y5620D01*
X7005Y5618D01*
X7019Y5615D01*
X7026Y5613D01*
X7032Y5612D01*
X7037Y5610D01*
X7042Y5608D01*
X7046Y5606D01*
X7050Y5605D01*
X7053Y5604D01*
X7055Y5603D01*
X7056Y5602D01*
X7056D01*
X7070Y5594D01*
X7082Y5586D01*
X7092Y5577D01*
X7100Y5568D01*
X7107Y5560D01*
X7110Y5557D01*
X7112Y5554D01*
X7114Y5551D01*
X7115Y5549D01*
X7116Y5548D01*
Y5548D01*
X7119Y5541D01*
X7123Y5534D01*
X7128Y5520D01*
X7132Y5507D01*
X7135Y5495D01*
X7135Y5489D01*
X7136Y5484D01*
X7137Y5479D01*
Y5475D01*
X7137Y5472D01*
Y5470D01*
Y5468D01*
Y5468D01*
X7136Y5452D01*
X7134Y5437D01*
X7131Y5424D01*
X7129Y5417D01*
X7127Y5412D01*
X7125Y5407D01*
X7123Y5402D01*
X7121Y5398D01*
X7120Y5395D01*
X7118Y5392D01*
X7117Y5390D01*
X7117Y5389D01*
X7117Y5389D01*
X7108Y5376D01*
X7098Y5365D01*
X7089Y5356D01*
X7079Y5348D01*
X7071Y5342D01*
X7067Y5339D01*
X7063Y5337D01*
X7061Y5336D01*
X7059Y5335D01*
X7057Y5334D01*
X7057D01*
X7042Y5328D01*
X7027Y5323D01*
X7013Y5320D01*
X6999Y5317D01*
X6994Y5316D01*
X6988Y5316D01*
X6983Y5315D01*
X6979D01*
X6976Y5315D01*
X6971D01*
X6954Y5316D01*
X6937Y5318D01*
X6923Y5321D01*
X6916Y5323D01*
X6910Y5325D01*
X6905Y5326D01*
X6900Y5328D01*
X6895Y5330D01*
X6892Y5331D01*
X6889Y5332D01*
X6887Y5333D01*
X6886Y5334D01*
X6885D01*
X6872Y5342D01*
X6860Y5351D01*
X6850Y5359D01*
X6841Y5368D01*
X6835Y5376D01*
X6832Y5379D01*
X6830Y5382D01*
X6829Y5385D01*
X6827Y5387D01*
X6827Y5388D01*
X6826Y5388D01*
X6819Y5402D01*
X6814Y5415D01*
X6811Y5429D01*
X6808Y5441D01*
X6808Y5446D01*
X6807Y5451D01*
X6806Y5456D01*
Y5459D01*
X6806Y5462D01*
Y5465D01*
Y5466D01*
Y5467D01*
X6807Y5482D01*
X6809Y5497D01*
X6812Y5511D01*
X6813Y5516D01*
X6815Y5522D01*
X6817Y5527D01*
X6819Y5532D01*
X6821Y5536D01*
X6822Y5539D01*
X6823Y5542D01*
X6824Y5544D01*
X6825Y5545D01*
Y5545D01*
X6816Y5558D01*
X6808Y5571D01*
X6801Y5582D01*
X6796Y5593D01*
X6794Y5598D01*
X6792Y5601D01*
X6790Y5605D01*
X6789Y5608D01*
X6788Y5611D01*
X6787Y5613D01*
X6787Y5614D01*
Y5614D01*
X6815Y5627D01*
X6819Y5618D01*
D02*
G37*
G36*
X11039Y14605D02*
X11055Y14603D01*
X11069Y14600D01*
X11076Y14598D01*
X11082Y14597D01*
X11087Y14595D01*
X11092Y14593D01*
X11097Y14592D01*
X11100Y14590D01*
X11103Y14589D01*
X11105Y14588D01*
X11106Y14587D01*
X11107D01*
X11121Y14579D01*
X11132Y14571D01*
X11143Y14562D01*
X11151Y14553D01*
X11157Y14545D01*
X11160Y14542D01*
X11162Y14539D01*
X11164Y14537D01*
X11165Y14535D01*
X11165Y14534D01*
X11166Y14533D01*
X11173Y14519D01*
X11178Y14506D01*
X11182Y14493D01*
X11184Y14480D01*
X11185Y14475D01*
X11185Y14470D01*
X11186Y14466D01*
Y14462D01*
X11186Y14459D01*
Y14456D01*
Y14455D01*
Y14455D01*
X11185Y14439D01*
X11184Y14424D01*
X11180Y14411D01*
X11179Y14405D01*
X11177Y14399D01*
X11175Y14394D01*
X11173Y14390D01*
X11171Y14386D01*
X11170Y14382D01*
X11169Y14379D01*
X11168Y14377D01*
X11167Y14376D01*
Y14376D01*
X11176Y14363D01*
X11184Y14351D01*
X11191Y14339D01*
X11196Y14329D01*
X11198Y14324D01*
X11200Y14320D01*
X11202Y14316D01*
X11203Y14313D01*
X11204Y14311D01*
X11205Y14309D01*
X11206Y14308D01*
Y14307D01*
X11177Y14294D01*
X11173Y14304D01*
X11168Y14313D01*
X11163Y14323D01*
X11158Y14331D01*
X11154Y14338D01*
X11152Y14341D01*
X11150Y14344D01*
X11149Y14346D01*
X11148Y14348D01*
X11147Y14349D01*
Y14349D01*
X11138Y14340D01*
X11128Y14333D01*
X11119Y14327D01*
X11111Y14322D01*
X11104Y14318D01*
X11100Y14316D01*
X11098Y14315D01*
X11095Y14314D01*
X11094Y14313D01*
X11093Y14313D01*
X11092D01*
X11080Y14309D01*
X11068Y14306D01*
X11056Y14303D01*
X11045Y14302D01*
X11040Y14301D01*
X11035Y14301D01*
X11031D01*
X11028Y14300D01*
X11021D01*
X11003Y14301D01*
X10987Y14303D01*
X10973Y14306D01*
X10966Y14308D01*
X10961Y14310D01*
X10955Y14312D01*
X10950Y14313D01*
X10946Y14315D01*
X10942Y14316D01*
X10940Y14317D01*
X10937Y14318D01*
X10936Y14319D01*
X10936D01*
X10922Y14327D01*
X10910Y14335D01*
X10900Y14345D01*
X10892Y14354D01*
X10885Y14361D01*
X10882Y14365D01*
X10880Y14368D01*
X10879Y14370D01*
X10878Y14372D01*
X10877Y14373D01*
Y14374D01*
X10873Y14380D01*
X10869Y14387D01*
X10864Y14401D01*
X10860Y14415D01*
X10858Y14427D01*
X10857Y14433D01*
X10856Y14437D01*
X10856Y14442D01*
Y14446D01*
X10855Y14449D01*
Y14452D01*
Y14453D01*
Y14454D01*
X10856Y14469D01*
X10859Y14484D01*
X10861Y14497D01*
X10863Y14504D01*
X10865Y14509D01*
X10867Y14515D01*
X10869Y14519D01*
X10871Y14523D01*
X10872Y14526D01*
X10874Y14529D01*
X10875Y14531D01*
X10875Y14532D01*
X10876Y14533D01*
X10884Y14545D01*
X10894Y14556D01*
X10903Y14565D01*
X10913Y14573D01*
X10921Y14579D01*
X10925Y14582D01*
X10929Y14584D01*
X10931Y14585D01*
X10933Y14586D01*
X10935Y14587D01*
X10935D01*
X10950Y14594D01*
X10965Y14598D01*
X10979Y14601D01*
X10993Y14604D01*
X10999Y14605D01*
X11004Y14605D01*
X11009Y14606D01*
X11013D01*
X11016Y14606D01*
X11021D01*
X11039Y14605D01*
D02*
G37*
%LPC*%
G36*
X6971Y3657D02*
X6965D01*
X6961Y3656D01*
X6955Y3656D01*
X6950Y3655D01*
X6943Y3654D01*
X6935Y3653D01*
X6920Y3650D01*
X6912Y3647D01*
X6904Y3644D01*
X6896Y3640D01*
X6889Y3636D01*
X6881Y3631D01*
X6875Y3626D01*
X6874Y3626D01*
X6873Y3625D01*
X6872Y3623D01*
X6870Y3621D01*
X6867Y3617D01*
X6865Y3614D01*
X6861Y3610D01*
X6858Y3605D01*
X6855Y3599D01*
X6852Y3593D01*
X6850Y3587D01*
X6847Y3580D01*
X6845Y3572D01*
X6843Y3565D01*
X6842Y3556D01*
X6842Y3548D01*
Y3547D01*
Y3547D01*
Y3544D01*
X6842Y3539D01*
X6843Y3534D01*
X6844Y3528D01*
X6845Y3520D01*
X6847Y3512D01*
X6850Y3505D01*
X6851Y3506D01*
X6852Y3509D01*
X6854Y3512D01*
X6857Y3518D01*
X6860Y3524D01*
X6863Y3531D01*
X6866Y3538D01*
X6869Y3547D01*
X6899Y3536D01*
Y3536D01*
X6899Y3535D01*
X6898Y3533D01*
X6897Y3530D01*
X6896Y3527D01*
X6895Y3524D01*
X6892Y3515D01*
X6887Y3506D01*
X6882Y3495D01*
X6876Y3486D01*
X6869Y3476D01*
X6869Y3476D01*
X6870Y3475D01*
X6872Y3473D01*
X6875Y3470D01*
X6879Y3468D01*
X6883Y3465D01*
X6888Y3461D01*
X6894Y3457D01*
X6901Y3454D01*
X6909Y3450D01*
X6917Y3448D01*
X6926Y3445D01*
X6936Y3442D01*
X6947Y3440D01*
X6959Y3439D01*
X6971Y3439D01*
X6977D01*
X6981Y3439D01*
X6985D01*
X6994Y3440D01*
X7005Y3442D01*
X7016Y3444D01*
X7028Y3448D01*
X7039Y3452D01*
X7039D01*
X7040Y3452D01*
X7042Y3453D01*
X7044Y3454D01*
X7049Y3457D01*
X7056Y3462D01*
X7063Y3467D01*
X7071Y3474D01*
X7078Y3482D01*
X7084Y3490D01*
Y3491D01*
X7085Y3491D01*
X7086Y3493D01*
X7087Y3495D01*
X7089Y3500D01*
X7093Y3507D01*
X7096Y3515D01*
X7098Y3525D01*
X7100Y3536D01*
X7100Y3548D01*
Y3548D01*
Y3550D01*
Y3552D01*
X7100Y3555D01*
X7099Y3559D01*
X7098Y3564D01*
X7097Y3570D01*
X7096Y3575D01*
X7093Y3588D01*
X7090Y3594D01*
X7087Y3601D01*
X7083Y3607D01*
X7078Y3614D01*
X7074Y3620D01*
X7068Y3626D01*
X7067Y3627D01*
X7066Y3628D01*
X7064Y3629D01*
X7062Y3631D01*
X7058Y3633D01*
X7054Y3636D01*
X7049Y3639D01*
X7044Y3641D01*
X7037Y3644D01*
X7030Y3647D01*
X7022Y3650D01*
X7014Y3652D01*
X7004Y3654D01*
X6994Y3655D01*
X6983Y3656D01*
X6971Y3657D01*
D02*
G37*
G36*
X14570Y14051D02*
X14564D01*
X14553Y14050D01*
X14542Y14049D01*
X14532Y14048D01*
X14522Y14046D01*
X14514Y14043D01*
X14505Y14041D01*
X14498Y14038D01*
X14492Y14035D01*
X14486Y14033D01*
X14481Y14030D01*
X14477Y14027D01*
X14474Y14025D01*
X14471Y14023D01*
X14469Y14021D01*
X14468Y14020D01*
X14468Y14020D01*
X14462Y14014D01*
X14457Y14008D01*
X14453Y14001D01*
X14449Y13994D01*
X14446Y13988D01*
X14443Y13981D01*
X14439Y13969D01*
X14438Y13963D01*
X14437Y13958D01*
X14436Y13953D01*
X14436Y13949D01*
X14435Y13946D01*
Y13943D01*
Y13942D01*
Y13941D01*
X14436Y13930D01*
X14437Y13919D01*
X14440Y13909D01*
X14443Y13901D01*
X14446Y13894D01*
X14449Y13889D01*
X14450Y13887D01*
X14451Y13885D01*
X14451Y13885D01*
Y13884D01*
X14457Y13875D01*
X14465Y13868D01*
X14473Y13861D01*
X14480Y13855D01*
X14486Y13851D01*
X14492Y13848D01*
X14494Y13847D01*
X14495Y13846D01*
X14496Y13846D01*
X14497D01*
X14508Y13841D01*
X14519Y13838D01*
X14531Y13836D01*
X14541Y13834D01*
X14551Y13833D01*
X14555D01*
X14558Y13832D01*
X14564D01*
X14577Y13833D01*
X14588Y13834D01*
X14599Y13836D01*
X14609Y13838D01*
X14619Y13841D01*
X14627Y13844D01*
X14635Y13848D01*
X14641Y13851D01*
X14647Y13855D01*
X14652Y13858D01*
X14657Y13861D01*
X14660Y13864D01*
X14663Y13867D01*
X14665Y13869D01*
X14666Y13870D01*
X14667Y13870D01*
X14660Y13879D01*
X14653Y13889D01*
X14648Y13899D01*
X14644Y13909D01*
X14640Y13917D01*
X14639Y13921D01*
X14638Y13924D01*
X14637Y13927D01*
X14637Y13929D01*
X14636Y13930D01*
Y13930D01*
X14667Y13940D01*
X14669Y13932D01*
X14672Y13925D01*
X14675Y13917D01*
X14678Y13911D01*
X14681Y13906D01*
X14683Y13902D01*
X14685Y13900D01*
X14685Y13899D01*
X14688Y13906D01*
X14690Y13914D01*
X14692Y13921D01*
X14693Y13928D01*
X14693Y13933D01*
X14694Y13937D01*
Y13940D01*
Y13941D01*
Y13941D01*
X14693Y13950D01*
X14692Y13958D01*
X14691Y13966D01*
X14688Y13973D01*
X14686Y13981D01*
X14683Y13987D01*
X14680Y13993D01*
X14677Y13998D01*
X14674Y14003D01*
X14671Y14008D01*
X14668Y14011D01*
X14666Y14014D01*
X14663Y14017D01*
X14662Y14018D01*
X14661Y14019D01*
X14660Y14020D01*
X14654Y14025D01*
X14647Y14030D01*
X14640Y14034D01*
X14631Y14037D01*
X14623Y14040D01*
X14616Y14043D01*
X14600Y14047D01*
X14593Y14048D01*
X14586Y14049D01*
X14580Y14050D01*
X14575Y14050D01*
X14570Y14051D01*
D02*
G37*
G36*
X11081Y14215D02*
X11078D01*
X11066Y14214D01*
X11057Y14212D01*
X11048Y14210D01*
X11041Y14206D01*
X11035Y14203D01*
X11031Y14200D01*
X11028Y14198D01*
X11027Y14197D01*
X11021Y14190D01*
X11016Y14182D01*
X11013Y14174D01*
X11010Y14168D01*
X11009Y14161D01*
X11008Y14156D01*
X11008Y14154D01*
Y14153D01*
Y14152D01*
Y14152D01*
X11009Y14142D01*
X11011Y14133D01*
X11014Y14126D01*
X11018Y14119D01*
X11021Y14114D01*
X11024Y14110D01*
X11026Y14108D01*
X11027Y14107D01*
X11035Y14101D01*
X11043Y14097D01*
X11052Y14094D01*
X11061Y14091D01*
X11068Y14090D01*
X11071Y14090D01*
X11074D01*
X11076Y14090D01*
X11080D01*
X11092Y14090D01*
X11103Y14092D01*
X11112Y14095D01*
X11120Y14098D01*
X11126Y14102D01*
X11130Y14105D01*
X11133Y14107D01*
X11134Y14108D01*
X11141Y14114D01*
X11146Y14122D01*
X11149Y14129D01*
X11152Y14135D01*
X11153Y14142D01*
X11154Y14146D01*
X11154Y14148D01*
Y14150D01*
Y14150D01*
Y14151D01*
X11154Y14157D01*
X11153Y14163D01*
X11151Y14169D01*
X11149Y14173D01*
X11148Y14177D01*
X11146Y14180D01*
X11145Y14183D01*
X11145Y14183D01*
X11141Y14189D01*
X11136Y14193D01*
X11132Y14197D01*
X11127Y14201D01*
X11123Y14204D01*
X11120Y14206D01*
X11118Y14207D01*
X11117Y14207D01*
X11109Y14210D01*
X11103Y14212D01*
X11096Y14213D01*
X11090Y14214D01*
X11085Y14215D01*
X11081Y14215D01*
D02*
G37*
G36*
X3783Y5743D02*
X3777D01*
X3765Y5743D01*
X3754Y5742D01*
X3744Y5741D01*
X3734Y5739D01*
X3726Y5736D01*
X3718Y5734D01*
X3711Y5731D01*
X3704Y5728D01*
X3699Y5725D01*
X3694Y5723D01*
X3690Y5720D01*
X3686Y5718D01*
X3684Y5716D01*
X3682Y5714D01*
X3681Y5713D01*
X3680Y5713D01*
X3674Y5707D01*
X3670Y5701D01*
X3665Y5694D01*
X3661Y5687D01*
X3658Y5681D01*
X3655Y5674D01*
X3652Y5662D01*
X3651Y5656D01*
X3650Y5651D01*
X3649Y5646D01*
X3648Y5642D01*
X3648Y5639D01*
Y5636D01*
Y5635D01*
Y5634D01*
X3648Y5622D01*
X3650Y5612D01*
X3652Y5602D01*
X3655Y5594D01*
X3659Y5587D01*
X3661Y5581D01*
X3662Y5580D01*
X3663Y5578D01*
X3664Y5578D01*
Y5577D01*
X3670Y5568D01*
X3677Y5560D01*
X3685Y5554D01*
X3693Y5548D01*
X3699Y5544D01*
X3704Y5541D01*
X3706Y5540D01*
X3708Y5539D01*
X3709Y5539D01*
X3709D01*
X3720Y5534D01*
X3732Y5531D01*
X3743Y5529D01*
X3754Y5527D01*
X3763Y5526D01*
X3767D01*
X3771Y5525D01*
X3777D01*
X3789Y5526D01*
X3801Y5527D01*
X3812Y5529D01*
X3822Y5531D01*
X3831Y5534D01*
X3839Y5537D01*
X3847Y5540D01*
X3854Y5544D01*
X3860Y5548D01*
X3865Y5551D01*
X3869Y5554D01*
X3873Y5557D01*
X3876Y5560D01*
X3878Y5561D01*
X3879Y5562D01*
X3879Y5563D01*
X3872Y5572D01*
X3866Y5582D01*
X3861Y5592D01*
X3856Y5601D01*
X3853Y5610D01*
X3852Y5614D01*
X3851Y5617D01*
X3850Y5620D01*
X3849Y5621D01*
X3849Y5622D01*
Y5623D01*
X3879Y5633D01*
X3882Y5625D01*
X3885Y5618D01*
X3888Y5610D01*
X3891Y5604D01*
X3894Y5599D01*
X3896Y5595D01*
X3897Y5593D01*
X3898Y5592D01*
X3901Y5599D01*
X3903Y5607D01*
X3904Y5614D01*
X3905Y5621D01*
X3906Y5626D01*
X3906Y5630D01*
Y5633D01*
Y5634D01*
Y5634D01*
X3906Y5643D01*
X3905Y5651D01*
X3903Y5659D01*
X3901Y5666D01*
X3898Y5674D01*
X3896Y5680D01*
X3893Y5686D01*
X3890Y5691D01*
X3887Y5696D01*
X3883Y5701D01*
X3881Y5704D01*
X3878Y5707D01*
X3876Y5710D01*
X3875Y5711D01*
X3874Y5712D01*
X3873Y5713D01*
X3867Y5718D01*
X3859Y5723D01*
X3852Y5727D01*
X3844Y5730D01*
X3836Y5733D01*
X3828Y5736D01*
X3813Y5740D01*
X3805Y5741D01*
X3798Y5742D01*
X3793Y5743D01*
X3787Y5743D01*
X3783Y5743D01*
D02*
G37*
G36*
X11027Y14562D02*
X11021D01*
X11009Y14562D01*
X10999Y14561D01*
X10988Y14559D01*
X10979Y14557D01*
X10970Y14555D01*
X10962Y14553D01*
X10955Y14550D01*
X10948Y14547D01*
X10943Y14544D01*
X10938Y14541D01*
X10934Y14539D01*
X10930Y14537D01*
X10928Y14535D01*
X10926Y14533D01*
X10925Y14532D01*
X10924Y14532D01*
X10919Y14526D01*
X10914Y14519D01*
X10909Y14513D01*
X10905Y14506D01*
X10902Y14499D01*
X10900Y14493D01*
X10896Y14480D01*
X10895Y14475D01*
X10894Y14470D01*
X10893Y14465D01*
X10892Y14461D01*
X10892Y14457D01*
Y14455D01*
Y14454D01*
Y14453D01*
X10892Y14441D01*
X10894Y14431D01*
X10897Y14421D01*
X10900Y14413D01*
X10903Y14406D01*
X10905Y14400D01*
X10906Y14398D01*
X10907Y14397D01*
X10908Y14396D01*
Y14396D01*
X10914Y14387D01*
X10921Y14379D01*
X10929Y14373D01*
X10937Y14367D01*
X10943Y14363D01*
X10948Y14360D01*
X10950Y14359D01*
X10952Y14358D01*
X10953Y14357D01*
X10953D01*
X10964Y14353D01*
X10976Y14350D01*
X10987Y14348D01*
X10998Y14346D01*
X11007Y14345D01*
X11011D01*
X11015Y14344D01*
X11021D01*
X11033Y14345D01*
X11045Y14346D01*
X11056Y14348D01*
X11066Y14350D01*
X11075Y14353D01*
X11084Y14356D01*
X11091Y14359D01*
X11098Y14363D01*
X11104Y14367D01*
X11109Y14370D01*
X11113Y14373D01*
X11117Y14376D01*
X11120Y14378D01*
X11122Y14380D01*
X11123Y14381D01*
X11124Y14382D01*
X11116Y14391D01*
X11110Y14401D01*
X11105Y14411D01*
X11101Y14420D01*
X11097Y14429D01*
X11096Y14433D01*
X11095Y14435D01*
X11094Y14438D01*
X11093Y14440D01*
X11093Y14441D01*
Y14442D01*
X11124Y14452D01*
X11126Y14444D01*
X11129Y14436D01*
X11132Y14429D01*
X11135Y14423D01*
X11138Y14418D01*
X11140Y14414D01*
X11142Y14412D01*
X11142Y14411D01*
X11145Y14418D01*
X11147Y14426D01*
X11148Y14433D01*
X11149Y14439D01*
X11150Y14445D01*
X11150Y14449D01*
Y14452D01*
Y14453D01*
Y14453D01*
X11150Y14462D01*
X11149Y14470D01*
X11147Y14478D01*
X11145Y14485D01*
X11143Y14493D01*
X11140Y14499D01*
X11137Y14505D01*
X11134Y14510D01*
X11131Y14515D01*
X11127Y14519D01*
X11125Y14523D01*
X11123Y14526D01*
X11120Y14529D01*
X11119Y14530D01*
X11118Y14531D01*
X11117Y14532D01*
X11111Y14537D01*
X11104Y14542D01*
X11096Y14546D01*
X11088Y14549D01*
X11080Y14552D01*
X11072Y14555D01*
X11057Y14558D01*
X11049Y14560D01*
X11043Y14561D01*
X11037Y14561D01*
X11031Y14562D01*
X11027Y14562D01*
D02*
G37*
G36*
X3670Y1522D02*
X3664D01*
X3652Y1521D01*
X3640Y1520D01*
X3629Y1518D01*
X3619Y1516D01*
X3610Y1513D01*
X3602Y1510D01*
X3594Y1507D01*
X3587Y1503D01*
X3581Y1499D01*
X3576Y1496D01*
X3572Y1493D01*
X3568Y1490D01*
X3565Y1488D01*
X3563Y1486D01*
X3562Y1485D01*
X3562Y1484D01*
X3569Y1475D01*
X3575Y1465D01*
X3580Y1455D01*
X3584Y1446D01*
X3588Y1437D01*
X3589Y1434D01*
X3590Y1431D01*
X3591Y1428D01*
X3592Y1426D01*
X3592Y1425D01*
Y1424D01*
X3562Y1414D01*
X3559Y1422D01*
X3556Y1430D01*
X3553Y1437D01*
X3550Y1443D01*
X3547Y1448D01*
X3545Y1452D01*
X3543Y1455D01*
X3543Y1456D01*
X3540Y1448D01*
X3538Y1440D01*
X3537Y1433D01*
X3536Y1427D01*
X3535Y1421D01*
X3535Y1417D01*
Y1414D01*
Y1414D01*
Y1413D01*
X3535Y1404D01*
X3536Y1396D01*
X3538Y1388D01*
X3540Y1381D01*
X3542Y1374D01*
X3545Y1367D01*
X3548Y1361D01*
X3551Y1356D01*
X3554Y1351D01*
X3558Y1347D01*
X3560Y1343D01*
X3562Y1340D01*
X3565Y1337D01*
X3566Y1336D01*
X3567Y1335D01*
X3568Y1335D01*
X3574Y1329D01*
X3582Y1324D01*
X3589Y1320D01*
X3597Y1317D01*
X3605Y1314D01*
X3613Y1311D01*
X3628Y1308D01*
X3636Y1306D01*
X3643Y1305D01*
X3648Y1305D01*
X3654Y1304D01*
X3658Y1304D01*
X3664D01*
X3676Y1304D01*
X3686Y1305D01*
X3697Y1307D01*
X3706Y1309D01*
X3715Y1311D01*
X3723Y1314D01*
X3730Y1316D01*
X3737Y1319D01*
X3742Y1322D01*
X3747Y1325D01*
X3751Y1327D01*
X3755Y1330D01*
X3757Y1332D01*
X3759Y1333D01*
X3760Y1334D01*
X3761Y1335D01*
X3766Y1340D01*
X3771Y1347D01*
X3776Y1354D01*
X3780Y1360D01*
X3783Y1367D01*
X3786Y1373D01*
X3789Y1386D01*
X3790Y1391D01*
X3791Y1396D01*
X3792Y1401D01*
X3793Y1405D01*
X3793Y1409D01*
Y1411D01*
Y1413D01*
Y1413D01*
X3793Y1425D01*
X3791Y1436D01*
X3788Y1445D01*
X3786Y1454D01*
X3782Y1460D01*
X3780Y1466D01*
X3779Y1468D01*
X3778Y1469D01*
X3777Y1470D01*
Y1470D01*
X3771Y1479D01*
X3764Y1487D01*
X3756Y1494D01*
X3748Y1499D01*
X3742Y1503D01*
X3737Y1506D01*
X3735Y1507D01*
X3733Y1508D01*
X3732Y1509D01*
X3732D01*
X3721Y1513D01*
X3709Y1517D01*
X3698Y1518D01*
X3687Y1520D01*
X3678Y1521D01*
X3674D01*
X3670Y1522D01*
D02*
G37*
G36*
X7067Y5788D02*
X6924D01*
Y5688D01*
X7067Y5788D01*
D02*
G37*
G36*
X6977Y5577D02*
X6971D01*
X6959Y5577D01*
X6947Y5576D01*
X6936Y5574D01*
X6926Y5571D01*
X6917Y5568D01*
X6909Y5565D01*
X6901Y5562D01*
X6894Y5558D01*
X6888Y5555D01*
X6883Y5551D01*
X6879Y5548D01*
X6875Y5545D01*
X6872Y5543D01*
X6870Y5541D01*
X6869Y5540D01*
X6869Y5539D01*
X6876Y5530D01*
X6882Y5520D01*
X6887Y5510D01*
X6892Y5501D01*
X6895Y5492D01*
X6896Y5489D01*
X6897Y5486D01*
X6898Y5483D01*
X6899Y5481D01*
X6899Y5480D01*
Y5479D01*
X6869Y5469D01*
X6866Y5477D01*
X6863Y5485D01*
X6860Y5492D01*
X6857Y5498D01*
X6854Y5503D01*
X6852Y5507D01*
X6851Y5510D01*
X6850Y5511D01*
X6847Y5503D01*
X6845Y5496D01*
X6844Y5488D01*
X6843Y5482D01*
X6842Y5476D01*
X6842Y5472D01*
Y5469D01*
Y5469D01*
Y5468D01*
X6842Y5459D01*
X6843Y5451D01*
X6845Y5443D01*
X6847Y5436D01*
X6850Y5429D01*
X6852Y5422D01*
X6855Y5416D01*
X6858Y5411D01*
X6861Y5406D01*
X6865Y5402D01*
X6867Y5398D01*
X6870Y5395D01*
X6872Y5393D01*
X6873Y5391D01*
X6874Y5390D01*
X6875Y5390D01*
X6881Y5384D01*
X6889Y5379D01*
X6896Y5375D01*
X6904Y5372D01*
X6912Y5369D01*
X6920Y5366D01*
X6935Y5363D01*
X6943Y5361D01*
X6950Y5360D01*
X6955Y5360D01*
X6961Y5359D01*
X6965Y5359D01*
X6971D01*
X6983Y5359D01*
X6994Y5360D01*
X7004Y5362D01*
X7014Y5364D01*
X7022Y5366D01*
X7030Y5369D01*
X7037Y5372D01*
X7044Y5375D01*
X7049Y5377D01*
X7054Y5380D01*
X7058Y5382D01*
X7062Y5385D01*
X7064Y5387D01*
X7066Y5388D01*
X7067Y5389D01*
X7068Y5390D01*
X7074Y5395D01*
X7078Y5402D01*
X7083Y5409D01*
X7087Y5415D01*
X7090Y5422D01*
X7093Y5428D01*
X7096Y5441D01*
X7097Y5446D01*
X7098Y5452D01*
X7099Y5456D01*
X7100Y5460D01*
X7100Y5464D01*
Y5466D01*
Y5468D01*
Y5468D01*
X7100Y5480D01*
X7098Y5491D01*
X7096Y5500D01*
X7093Y5509D01*
X7089Y5516D01*
X7087Y5521D01*
X7086Y5523D01*
X7085Y5524D01*
X7084Y5525D01*
Y5525D01*
X7078Y5534D01*
X7071Y5542D01*
X7063Y5549D01*
X7056Y5554D01*
X7049Y5558D01*
X7044Y5561D01*
X7042Y5562D01*
X7040Y5563D01*
X7039Y5564D01*
X7039D01*
X7028Y5568D01*
X7016Y5572D01*
X7005Y5574D01*
X6994Y5576D01*
X6985Y5577D01*
X6981D01*
X6977Y5577D01*
D02*
G37*
G36*
X3389Y8854D02*
X3383D01*
X3372Y8853D01*
X3361Y8852D01*
X3351Y8851D01*
X3341Y8849D01*
X3332Y8846D01*
X3324Y8844D01*
X3317Y8841D01*
X3311Y8838D01*
X3305Y8836D01*
X3300Y8833D01*
X3296Y8830D01*
X3292Y8828D01*
X3290Y8826D01*
X3288Y8824D01*
X3287Y8823D01*
X3287Y8823D01*
X3281Y8817D01*
X3276Y8811D01*
X3271Y8804D01*
X3268Y8798D01*
X3265Y8791D01*
X3262Y8784D01*
X3258Y8772D01*
X3257Y8766D01*
X3256Y8761D01*
X3255Y8756D01*
X3254Y8752D01*
X3254Y8749D01*
Y8746D01*
Y8745D01*
Y8744D01*
X3254Y8733D01*
X3256Y8722D01*
X3259Y8712D01*
X3262Y8704D01*
X3265Y8697D01*
X3268Y8692D01*
X3269Y8690D01*
X3270Y8688D01*
X3270Y8688D01*
Y8687D01*
X3276Y8679D01*
X3284Y8671D01*
X3291Y8664D01*
X3299Y8659D01*
X3305Y8654D01*
X3311Y8651D01*
X3312Y8650D01*
X3314Y8649D01*
X3315Y8649D01*
X3315D01*
X3327Y8644D01*
X3338Y8641D01*
X3350Y8639D01*
X3360Y8637D01*
X3370Y8636D01*
X3373D01*
X3377Y8636D01*
X3383D01*
X3395Y8636D01*
X3407Y8637D01*
X3418Y8639D01*
X3428Y8641D01*
X3437Y8644D01*
X3446Y8647D01*
X3454Y8651D01*
X3460Y8654D01*
X3466Y8658D01*
X3471Y8661D01*
X3475Y8664D01*
X3479Y8667D01*
X3482Y8670D01*
X3484Y8672D01*
X3485Y8673D01*
X3486Y8673D01*
X3478Y8682D01*
X3472Y8692D01*
X3467Y8702D01*
X3463Y8712D01*
X3459Y8720D01*
X3458Y8724D01*
X3457Y8727D01*
X3456Y8730D01*
X3455Y8732D01*
X3455Y8733D01*
Y8733D01*
X3486Y8743D01*
X3488Y8735D01*
X3491Y8728D01*
X3494Y8720D01*
X3497Y8715D01*
X3500Y8709D01*
X3502Y8705D01*
X3504Y8703D01*
X3504Y8702D01*
X3507Y8709D01*
X3509Y8717D01*
X3511Y8724D01*
X3512Y8731D01*
X3512Y8736D01*
X3513Y8741D01*
Y8743D01*
Y8744D01*
Y8744D01*
X3512Y8753D01*
X3511Y8761D01*
X3510Y8769D01*
X3507Y8777D01*
X3505Y8784D01*
X3502Y8790D01*
X3499Y8796D01*
X3496Y8802D01*
X3493Y8806D01*
X3490Y8811D01*
X3487Y8814D01*
X3485Y8818D01*
X3482Y8820D01*
X3481Y8822D01*
X3480Y8822D01*
X3479Y8823D01*
X3473Y8828D01*
X3466Y8833D01*
X3458Y8837D01*
X3450Y8841D01*
X3442Y8843D01*
X3434Y8846D01*
X3419Y8850D01*
X3412Y8851D01*
X3405Y8852D01*
X3399Y8853D01*
X3393Y8853D01*
X3389Y8854D01*
D02*
G37*
G36*
X8649Y11818D02*
X8505D01*
X8649Y11717D01*
Y11818D01*
D02*
G37*
%LPD*%
D46*
X15748Y-20D02*
G03*
X15768Y0I0J20D01*
G01*
Y15748D02*
G03*
X15748Y15768I-20J0D01*
G01*
X0D02*
G03*
X-20Y15748I0J-20D01*
G01*
Y0D02*
G03*
X0Y-20I20J0D01*
G01*
X15748D01*
X15768Y0D02*
Y15748D01*
X0Y15768D02*
X15748D01*
X-20Y0D02*
Y15748D01*
D79*
X9847Y5550D02*
Y5371D01*
X9835Y5336D01*
X9811Y5312D01*
X9775Y5300D01*
X9752D01*
X9716Y5312D01*
X9692Y5336D01*
X9680Y5371D01*
Y5550D01*
X9468Y5514D02*
X9480Y5538D01*
X9516Y5550D01*
X9540D01*
X9575Y5538D01*
X9599Y5502D01*
X9611Y5443D01*
Y5383D01*
X9599Y5336D01*
X9575Y5312D01*
X9540Y5300D01*
X9528D01*
X9492Y5312D01*
X9468Y5336D01*
X9456Y5371D01*
Y5383D01*
X9468Y5419D01*
X9492Y5443D01*
X9528Y5455D01*
X9540D01*
X9575Y5443D01*
X9599Y5419D01*
X9611Y5383D01*
X4160Y7520D02*
X4409D01*
X4160D02*
Y7436D01*
X4171Y7401D01*
X4195Y7377D01*
X4219Y7365D01*
X4255Y7353D01*
X4314D01*
X4350Y7365D01*
X4374Y7377D01*
X4398Y7401D01*
X4409Y7436D01*
Y7520D01*
X4219Y7285D02*
X4207D01*
X4183Y7273D01*
X4171Y7261D01*
X4160Y7238D01*
Y7190D01*
X4171Y7166D01*
X4183Y7154D01*
X4207Y7142D01*
X4231D01*
X4255Y7154D01*
X4290Y7178D01*
X4409Y7297D01*
Y7130D01*
X5866Y1352D02*
Y1102D01*
Y1352D02*
X5783D01*
X5747Y1340D01*
X5723Y1317D01*
X5711Y1293D01*
X5700Y1257D01*
Y1198D01*
X5711Y1162D01*
X5723Y1138D01*
X5747Y1114D01*
X5783Y1102D01*
X5866D01*
X5620Y1352D02*
X5489D01*
X5560Y1257D01*
X5525D01*
X5501Y1245D01*
X5489Y1233D01*
X5477Y1198D01*
Y1174D01*
X5489Y1138D01*
X5513Y1114D01*
X5548Y1102D01*
X5584D01*
X5620Y1114D01*
X5632Y1126D01*
X5644Y1150D01*
X3091Y13687D02*
Y13866D01*
X3102Y13901D01*
X3126Y13925D01*
X3162Y13937D01*
X3186D01*
X3221Y13925D01*
X3245Y13901D01*
X3257Y13866D01*
Y13687D01*
X3445D02*
X3326Y13854D01*
X3505D01*
X3445Y13687D02*
Y13937D01*
X4823Y5616D02*
Y5795D01*
X4811Y5830D01*
X4787Y5854D01*
X4751Y5866D01*
X4728D01*
X4692Y5854D01*
X4668Y5830D01*
X4656Y5795D01*
Y5616D01*
X4421D02*
X4540Y5866D01*
X4587Y5616D02*
X4421D01*
X12782Y8602D02*
X12960D01*
X12996Y8614D01*
X13020Y8638D01*
X13032Y8674D01*
Y8698D01*
X13020Y8733D01*
X12996Y8757D01*
X12960Y8769D01*
X12782D01*
X12841Y8850D02*
X12829D01*
X12805Y8862D01*
X12793Y8874D01*
X12782Y8898D01*
Y8945D01*
X12793Y8969D01*
X12805Y8981D01*
X12829Y8993D01*
X12853D01*
X12877Y8981D01*
X12912Y8957D01*
X13032Y8838D01*
Y9005D01*
X11859Y4543D02*
X11680D01*
X11645Y4531D01*
X11621Y4507D01*
X11609Y4471D01*
Y4447D01*
X11621Y4412D01*
X11645Y4388D01*
X11680Y4376D01*
X11859D01*
Y4164D02*
Y4283D01*
X11752Y4295D01*
X11764Y4283D01*
X11776Y4247D01*
Y4212D01*
X11764Y4176D01*
X11740Y4152D01*
X11704Y4140D01*
X11680D01*
X11645Y4152D01*
X11621Y4176D01*
X11609Y4212D01*
Y4247D01*
X11621Y4283D01*
X11633Y4295D01*
X11657Y4307D01*
X3136Y10315D02*
X3386D01*
X3136D02*
Y10398D01*
X3148Y10434D01*
X3172Y10458D01*
X3195Y10470D01*
X3231Y10482D01*
X3291D01*
X3326Y10470D01*
X3350Y10458D01*
X3374Y10434D01*
X3386Y10398D01*
Y10315D01*
X3183Y10538D02*
X3172Y10561D01*
X3136Y10597D01*
X3386D01*
X4862Y13648D02*
Y13826D01*
X4850Y13862D01*
X4827Y13886D01*
X4791Y13898D01*
X4767D01*
X4731Y13886D01*
X4707Y13862D01*
X4696Y13826D01*
Y13648D01*
X4603D02*
X4472D01*
X4543Y13743D01*
X4508D01*
X4484Y13755D01*
X4472Y13767D01*
X4460Y13802D01*
Y13826D01*
X4472Y13862D01*
X4496Y13886D01*
X4531Y13898D01*
X4567D01*
X4603Y13886D01*
X4615Y13874D01*
X4627Y13850D01*
M02*
