%FSLAX24Y24*%
%MOIN*%
G70*
G01*
G75*
G04 Layer_Physical_Order=1*
G04 Layer_Color=255*
%ADD10C,0.0098*%
%ADD11R,0.0299X0.0945*%
%ADD12R,0.0315X0.0354*%
%ADD13R,0.0354X0.0315*%
%ADD14R,0.0276X0.0394*%
%ADD15R,0.0236X0.0886*%
%ADD16R,0.0591X0.0295*%
%ADD17R,0.0295X0.0591*%
%ADD18R,0.0354X0.0315*%
%ADD19R,0.0492X0.0433*%
%ADD20R,0.0906X0.0906*%
%ADD21R,0.0197X0.0236*%
%ADD22R,0.0236X0.0197*%
%ADD23R,0.0394X0.0276*%
%ADD24R,0.0315X0.0630*%
%ADD25R,0.0846X0.0335*%
%ADD26C,0.0335*%
%ADD27R,0.0335X0.0846*%
%ADD28R,0.0886X0.0236*%
%ADD29C,0.0276*%
%ADD30C,0.0118*%
%ADD31C,0.0138*%
%ADD32C,0.0079*%
%ADD33C,0.0197*%
%ADD34O,0.0472X0.0394*%
%ADD35R,0.0472X0.0394*%
%ADD36O,0.0669X0.1181*%
%ADD37C,0.0380*%
D10*
X15364Y10524D02*
G03*
X15351Y10621I-364J0D01*
G01*
X15265Y10274D02*
G03*
X15364Y10524I-265J250D01*
G01*
Y10024D02*
G03*
X15265Y10274I-364J0D01*
G01*
X15108Y13582D02*
G03*
X15049Y13569I49J-354D01*
G01*
D02*
G03*
X15009Y13553I108J-340D01*
G01*
D02*
G03*
X14960Y12930I149J-325D01*
G01*
D02*
G03*
X14979Y12888I197J62D01*
G01*
X14960Y12930D02*
G03*
X14979Y12888I197J62D01*
G01*
X15252Y9760D02*
G03*
X15364Y10024I-252J263D01*
G01*
X15346Y9523D02*
G03*
X15252Y9760I-346J0D01*
G01*
X15346Y9023D02*
G03*
X15239Y9273I-346J0D01*
G01*
D02*
G03*
X15346Y9523I-239J250D01*
G01*
X15000Y8677D02*
G03*
X15346Y9023I0J346D01*
G01*
X14881Y8679D02*
G03*
X14921Y8677I41J344D01*
G01*
X15010Y8465D02*
G03*
X14949Y8611I-207J0D01*
G01*
X15010Y8465D02*
G03*
X14949Y8611I-207J0D01*
G01*
X14568Y14951D02*
G03*
X14609Y15118I-316J167D01*
G01*
X14449Y14820D02*
G03*
X14557Y14932I-197J298D01*
G01*
X14398Y14736D02*
G03*
X14449Y14820I-146J146D01*
G01*
X14398Y14736D02*
G03*
X14449Y14820I-146J146D01*
G01*
X14609Y15118D02*
G03*
X13973Y14895I-357J0D01*
G01*
X13789Y15315D02*
G03*
X13747Y15551I-679J0D01*
G01*
X13594Y14516D02*
G03*
X13533Y14370I146J-146D01*
G01*
X13594Y14516D02*
G03*
X13533Y14370I146J-146D01*
G01*
X14583Y12159D02*
G03*
X14559Y11991I338J-136D01*
G01*
X14375Y11807D02*
G03*
X14311Y11654I153J-153D01*
G01*
X14374Y11807D02*
G03*
X14311Y11654I153J-153D01*
G01*
X13886Y13082D02*
G03*
X13947Y13228I-146J146D01*
G01*
X13886Y13082D02*
G03*
X13947Y13228I-146J146D01*
G01*
X14026Y11992D02*
G03*
X14176Y12283I-207J291D01*
G01*
D02*
G03*
X13593Y12560I-357J0D01*
G01*
X13657Y5752D02*
G03*
X13720Y5906I-153J153D01*
G01*
X13657Y5752D02*
G03*
X13720Y5906I-153J153D01*
G01*
X13334Y5519D02*
G03*
X13487Y5582I0J217D01*
G01*
X13334Y5519D02*
G03*
X13487Y5582I0J217D01*
G01*
X13583Y5356D02*
G03*
X13433Y5319I0J-317D01*
G01*
X13415Y4257D02*
G03*
X13583Y4213I167J290D01*
G01*
Y2913D02*
G03*
X13415Y2869I0J-335D01*
G01*
X13336Y876D02*
G03*
X13370Y844I247J226D01*
G01*
X13433Y331D02*
G03*
X13583Y294I149J279D01*
G01*
X13110Y14636D02*
G03*
X13789Y15315I0J679D01*
G01*
X13240Y13020D02*
G03*
X13179Y12874I146J-146D01*
G01*
X13240Y13020D02*
G03*
X13179Y12874I146J-146D01*
G01*
X12837Y13467D02*
G03*
X12677Y13533I-160J-160D01*
G01*
X12838Y13467D02*
G03*
X12677Y13533I-160J-160D01*
G01*
X13000Y13297D02*
G03*
X12971Y13334I-189J-124D01*
G01*
X13000Y13297D02*
G03*
X12971Y13333I-189J-124D01*
G01*
X12692Y10273D02*
G03*
X12894Y10320I25J356D01*
G01*
Y9503D02*
G03*
X12599Y9494I-138J-330D01*
G01*
X12226Y6668D02*
G03*
X12123Y6412I254J-251D01*
G01*
X11968Y6566D02*
G03*
X11971Y6614I-354J48D01*
G01*
X12340Y5582D02*
G03*
X12493Y5519I153J153D01*
G01*
X12340Y5582D02*
G03*
X12493Y5519I153J153D01*
G01*
X11966Y5570D02*
G03*
X11971Y5630I-352J60D01*
G01*
X11908Y8310D02*
G03*
X11901Y8089I336J-121D01*
G01*
X11801Y7179D02*
G03*
X11862Y7033I207J0D01*
G01*
X11801Y7179D02*
G03*
X11862Y7033I207J0D01*
G01*
X11901Y8089D02*
G03*
X11801Y7400I-129J-333D01*
G01*
X11971Y6614D02*
G03*
X11662Y6260I-357J0D01*
G01*
X11971Y5630D02*
G03*
X11674Y5278I-357J0D01*
G01*
X11258Y8371D02*
G03*
X11405Y8310I146J146D01*
G01*
X11142Y8520D02*
G03*
X11192Y8437I197J63D01*
G01*
X11258Y8371D02*
G03*
X11405Y8310I146J146D01*
G01*
X11142Y8520D02*
G03*
X11192Y8437I197J63D01*
G01*
X9617Y8099D02*
G03*
X9575Y8170I-326J-146D01*
G01*
X9649Y7954D02*
G03*
X9617Y8099I-357J-2D01*
G01*
X9379Y7606D02*
G03*
X9595Y7764I-88J346D01*
G01*
X9469Y7431D02*
G03*
X9408Y7577I-207J0D01*
G01*
X9469Y7431D02*
G03*
X9408Y7577I-207J0D01*
G01*
X10145Y6746D02*
G03*
X10276Y6649I258J213D01*
G01*
X9595Y6959D02*
G03*
X9614Y6850I317J0D01*
G01*
X9991Y6652D02*
G03*
X10145Y6746I-79J306D01*
G01*
X10020Y6516D02*
G03*
X9991Y6652I-335J0D01*
G01*
X9912Y6270D02*
G03*
X10020Y6516I-227J246D01*
G01*
X10004Y6125D02*
G03*
X9912Y6270I-319J-101D01*
G01*
X10246Y5797D02*
G03*
X10186Y5943I-207J0D01*
G01*
X10246Y5797D02*
G03*
X10186Y5943I-207J0D01*
G01*
X9833Y5199D02*
G03*
X9757Y5197I-30J-356D01*
G01*
X9685D02*
G03*
X9833Y5231I0J335D01*
G01*
X13433Y5319D02*
G03*
X13370Y4805I149J-279D01*
G01*
X13192Y4646D02*
G03*
X12612Y4925I-357J0D01*
G01*
X12452Y4499D02*
G03*
X12537Y4448I146J146D01*
G01*
X12452Y4500D02*
G03*
X12537Y4448I146J146D01*
G01*
D02*
G03*
X13192Y4646I298J197D01*
G01*
X13370Y4805D02*
G03*
X13415Y4257I213J-258D01*
G01*
Y2869D02*
G03*
X13305Y2766I167J-290D01*
G01*
X13186Y943D02*
G03*
X13336Y876I160J160D01*
G01*
X12372Y1850D02*
G03*
X12438Y1690I226J0D01*
G01*
X12372Y1850D02*
G03*
X12439Y1690I226J0D01*
G01*
X13370Y844D02*
G03*
X13433Y331I213J-234D01*
G01*
X13186Y942D02*
G03*
X13336Y876I160J160D01*
G01*
X11320Y3360D02*
G03*
X11610Y2755I255J-250D01*
G01*
X10276Y4498D02*
G03*
X10342Y4338I226J0D01*
G01*
X10276Y4498D02*
G03*
X10342Y4338I226J0D01*
G01*
X10186Y4815D02*
G03*
X10246Y4961I-146J146D01*
G01*
X10186Y4814D02*
G03*
X10246Y4961I-146J146D01*
G01*
X9757Y5197D02*
G03*
X10156Y4785I46J-354D01*
G01*
X9469Y4636D02*
G03*
X9408Y4782I-207J0D01*
G01*
X9469Y4636D02*
G03*
X9408Y4782I-207J0D01*
G01*
X9852Y3361D02*
G03*
X9685Y3406I-167J-290D01*
G01*
X10020Y3071D02*
G03*
X9852Y3361I-335J0D01*
G01*
X9898Y2813D02*
G03*
X10020Y3071I-213J258D01*
G01*
X10002Y2579D02*
G03*
X9898Y2813I-317J0D01*
G01*
X9954Y2411D02*
G03*
X10002Y2579I-269J167D01*
G01*
X7677Y11805D02*
G03*
X7640Y11853I-197J-112D01*
G01*
X7677Y11805D02*
G03*
X7640Y11853I-197J-112D01*
G01*
X7490Y12024D02*
G03*
X7464Y12159I-364J0D01*
G01*
X6747Y9817D02*
G03*
X6795Y9761I300J207D01*
G01*
D02*
G03*
X6808Y9274I252J-237D01*
G01*
X7640Y8659D02*
G03*
X7677Y8707I-160J160D01*
G01*
X7640Y8658D02*
G03*
X7677Y8707I-160J160D01*
G01*
X6808Y9274D02*
G03*
X7021Y8679I240J-250D01*
G01*
X6612Y8271D02*
G03*
X6545Y8110I160J-160D01*
G01*
X6612Y8270D02*
G03*
X6545Y8110I160J-160D01*
G01*
X5315Y14389D02*
G03*
X5148Y14459I-167J-167D01*
G01*
X6132Y13642D02*
G03*
X5565Y14139I-502J0D01*
G01*
X5315Y14389D02*
G03*
X5148Y14459I-167J-167D01*
G01*
X5177Y13859D02*
G03*
X5128Y13642I453J-217D01*
G01*
Y13130D02*
G03*
X5265Y12785I502J0D01*
G01*
X5247Y10817D02*
G03*
X5128Y10492I383J-325D01*
G01*
Y9980D02*
G03*
X6105Y9817I502J0D01*
G01*
X5197Y12785D02*
G03*
X5036Y12719I0J-226D01*
G01*
X5197Y12785D02*
G03*
X5037Y12719I0J-226D01*
G01*
X4718Y13848D02*
G03*
X4690Y13986I-357J0D01*
G01*
X4400Y13493D02*
G03*
X4718Y13848I-39J355D01*
G01*
X6132Y8917D02*
G03*
X5128Y8917I-502J0D01*
G01*
X6029Y8100D02*
G03*
X6132Y8406I-399J305D01*
G01*
X5115Y7714D02*
G03*
X5234Y7651I160J160D01*
G01*
X5116Y7714D02*
G03*
X5234Y7651I160J160D01*
G01*
X5128Y8406D02*
G03*
X5133Y8337I502J0D01*
G01*
X5062Y8408D02*
G03*
X4902Y8474I-160J-160D01*
G01*
X5062Y8408D02*
G03*
X4902Y8474I-160J-160D01*
G01*
X5234Y7651D02*
G03*
X5128Y7343I396J-309D01*
G01*
X6132D02*
G03*
X6029Y7648I-502J0D01*
G01*
X4634Y9224D02*
G03*
X4695Y9370I-146J146D01*
G01*
X4634Y9224D02*
G03*
X4695Y9370I-146J146D01*
G01*
X6918Y5484D02*
G03*
X6978Y5630I-146J146D01*
G01*
X6918Y5484D02*
G03*
X6978Y5630I-146J146D01*
G01*
X6997Y4381D02*
G03*
X6957Y4437I-186J-90D01*
G01*
X6730Y4664D02*
G03*
X6735Y4724I-352J60D01*
G01*
X6997Y4381D02*
G03*
X6957Y4437I-186J-90D01*
G01*
X6735Y4724D02*
G03*
X6496Y5062I-357J0D01*
G01*
X6635Y3376D02*
G03*
X6665Y3338I176J108D01*
G01*
X6635Y3376D02*
G03*
X6665Y3338I176J108D01*
G01*
X6822Y3181D02*
G03*
X6860Y3151I146J146D01*
G01*
X6822Y3181D02*
G03*
X6860Y3151I146J146D01*
G01*
X7265Y197D02*
G03*
X7608Y787I-335J591D01*
G01*
X6563Y1862D02*
G03*
X6624Y2008I-146J146D01*
G01*
X6564Y1862D02*
G03*
X6624Y2008I-146J146D01*
G01*
X7608Y787D02*
G03*
X6594Y197I-679J0D01*
G01*
X5128Y6831D02*
G03*
X6132Y6831I502J0D01*
G01*
Y5768D02*
G03*
X5128Y5768I-502J0D01*
G01*
Y5256D02*
G03*
X5863Y4811I502J0D01*
G01*
Y4637D02*
G03*
X5128Y4193I-233J-444D01*
G01*
X5294Y3308D02*
G03*
X6073Y3445I336J373D01*
G01*
X6132Y2618D02*
G03*
X5128Y2618I-502J0D01*
G01*
Y2106D02*
G03*
X5284Y1742I502J0D01*
G01*
X6121Y2004D02*
G03*
X6132Y2106I-491J102D01*
G01*
X5945Y1329D02*
G03*
X6091Y1389I0J207D01*
G01*
X5945Y1329D02*
G03*
X6091Y1389I0J207D01*
G01*
X4381Y2981D02*
G03*
X4321Y2835I146J-146D01*
G01*
X4381Y2981D02*
G03*
X4321Y2835I146J-146D01*
G01*
X4885Y2480D02*
G03*
X4747Y2762I-357J0D01*
G01*
X4321Y2772D02*
G03*
X4885Y2480I207J-291D01*
G01*
X1742Y9980D02*
G03*
X2549Y9582I502J0D01*
G01*
Y9293D02*
G03*
X1762Y8956I-305J-376D01*
G01*
X1723Y10857D02*
G03*
X1842Y10792I167J167D01*
G01*
X1723Y10857D02*
G03*
X1842Y10792I167J167D01*
G01*
Y10792D02*
G03*
X1742Y10492I402J-300D01*
G01*
X3937Y8612D02*
G03*
X4083Y8673I0J207D01*
G01*
X3937Y8612D02*
G03*
X4083Y8673I0J207D01*
G01*
X3878Y8474D02*
G03*
X3652Y8248I0J-226D01*
G01*
X3878Y8474D02*
G03*
X3652Y8248I0J-226D01*
G01*
X3384Y8100D02*
G03*
X3224Y8034I0J-226D01*
G01*
X3384Y8100D02*
G03*
X3223Y8034I0J-226D01*
G01*
X2988Y7798D02*
G03*
X2921Y7638I160J-160D01*
G01*
X2988Y7798D02*
G03*
X2921Y7638I160J-160D01*
G01*
X2728Y8642D02*
G03*
X2835Y8612I107J177D01*
G01*
X2728Y8642D02*
G03*
X2835Y8612I107J177D01*
G01*
X1762Y8367D02*
G03*
X2728Y8406I482J39D01*
G01*
Y7343D02*
G03*
X1762Y7382I-484J0D01*
G01*
X1732Y14488D02*
G03*
X1565Y14419I0J-236D01*
G01*
X1732Y14488D02*
G03*
X1565Y14419I0J-236D01*
G01*
X1447Y14301D02*
G03*
X1378Y14134I167J-167D01*
G01*
X1447Y14301D02*
G03*
X1378Y14134I167J-167D01*
G01*
X1189Y15360D02*
G03*
X1037Y15551I-599J-320D01*
G01*
X197Y14486D02*
G03*
X1189Y14719I394J553D01*
G01*
X1191Y13810D02*
G03*
X827Y14175I-364J0D01*
G01*
X1092Y13561D02*
G03*
X1191Y13810I-265J250D01*
G01*
X748Y14175D02*
G03*
X483Y13561I0J-364D01*
G01*
X1191Y13311D02*
G03*
X1092Y13561I-364J0D01*
G01*
X1092Y13061D02*
G03*
X1191Y13311I-265J250D01*
G01*
Y12811D02*
G03*
X1092Y13061I-364J0D01*
G01*
X483Y13561D02*
G03*
X385Y13343I265J-250D01*
G01*
X1191Y12311D02*
G03*
X1092Y12561I-364J0D01*
G01*
Y12061D02*
G03*
X1191Y12311I-265J250D01*
G01*
X1092Y12561D02*
G03*
X1191Y12811I-265J250D01*
G01*
X1378Y11299D02*
G03*
X1447Y11132I236J0D01*
G01*
X1378Y11299D02*
G03*
X1447Y11132I236J0D01*
G01*
X1191Y11811D02*
G03*
X1092Y12061I-364J0D01*
G01*
Y11561D02*
G03*
X1191Y11811I-265J250D01*
G01*
X1165Y10675D02*
G03*
X1191Y10811I-338J136D01*
G01*
Y11311D02*
G03*
X1092Y11561I-364J0D01*
G01*
Y11061D02*
G03*
X1191Y11311I-265J250D01*
G01*
Y10811D02*
G03*
X1092Y11061I-364J0D01*
G01*
X1762Y9563D02*
G03*
X1695Y9723I-226J0D01*
G01*
X1762Y9563D02*
G03*
X1696Y9723I-226J0D01*
G01*
X2988Y3661D02*
G03*
X3148Y3594I160J160D01*
G01*
X2987Y3661D02*
G03*
X3148Y3594I160J160D01*
G01*
X1762Y6792D02*
G03*
X2728Y6831I482J39D01*
G01*
X2746Y5768D02*
G03*
X1762Y5907I-502J0D01*
G01*
X2640Y4947D02*
G03*
X2746Y5256I-396J309D01*
G01*
X2759Y4884D02*
G03*
X2640Y4947I-160J-160D01*
G01*
X2758Y4884D02*
G03*
X2640Y4947I-160J-160D01*
G01*
X1742Y3681D02*
G03*
X2746Y3681I502J0D01*
G01*
X2590Y1742D02*
G03*
X2746Y2106I-345J364D01*
G01*
Y2618D02*
G03*
X1742Y2618I-502J0D01*
G01*
X1769Y4564D02*
G03*
X1855Y4510I160J160D01*
G01*
Y4510D02*
G03*
X1742Y4193I389J-318D01*
G01*
X1769Y4565D02*
G03*
X1855Y4510I160J160D01*
G01*
X1309Y5118D02*
G03*
X1375Y4958I226J0D01*
G01*
X1309Y5118D02*
G03*
X1376Y4958I226J0D01*
G01*
X1427Y3094D02*
G03*
X1578Y3386I-207J291D01*
G01*
D02*
G03*
X1014Y3094I-357J0D01*
G01*
Y2008D02*
G03*
X1074Y1862I207J0D01*
G01*
X1014Y2008D02*
G03*
X1074Y1862I207J0D01*
G01*
X1742Y2106D02*
G03*
X1899Y1742I502J0D01*
G01*
X1547Y1389D02*
G03*
X1693Y1329I146J146D01*
G01*
X1547Y1389D02*
G03*
X1693Y1329I146J146D01*
G01*
X1263Y906D02*
G03*
X950Y1260I-357J0D01*
G01*
X563Y1007D02*
G03*
X1263Y906I343J-101D01*
G01*
X15426Y15551D02*
X15551Y15426D01*
X15370Y15551D02*
X15551Y15370D01*
X15482Y15551D02*
X15551Y15482D01*
X15259Y15551D02*
X15551Y15259D01*
X15315Y15551D02*
X15551Y15315D01*
X15148Y15551D02*
X15551Y15148D01*
X15092Y15551D02*
X15551Y15092D01*
X15203Y15551D02*
X15551Y15203D01*
X15118Y14951D02*
X15551Y15384D01*
X15062Y14951D02*
X15551Y15440D01*
X15434Y14933D02*
X15551Y15050D01*
X15489Y14933D02*
X15551Y14994D01*
X15378Y14933D02*
X15551Y15106D01*
X15504Y14917D02*
X15551Y14869D01*
X15504Y14891D02*
X15551Y14939D01*
X15211Y14933D02*
X15551Y15273D01*
X15155Y14933D02*
X15551Y15329D01*
X15322Y14933D02*
X15551Y15161D01*
X15267Y14933D02*
X15551Y15217D01*
X15504Y14861D02*
X15551Y14814D01*
X15504Y14780D02*
X15551Y14827D01*
X15504Y14835D02*
X15551Y14883D01*
Y14478D02*
Y15551D01*
X15504Y14750D02*
X15551Y14702D01*
X15432Y14933D02*
X15504Y14861D01*
Y14806D02*
X15551Y14758D01*
X15128Y14933D02*
X15504D01*
Y14724D02*
X15551Y14772D01*
X15504Y14694D02*
X15551Y14647D01*
X15504Y14613D02*
X15551Y14660D01*
X15504Y14668D02*
X15551Y14716D01*
X15504Y14501D02*
X15551Y14549D01*
X15504Y14639D02*
X15551Y14591D01*
X15504Y14557D02*
X15551Y14605D01*
X15504Y14527D02*
X15551Y14480D01*
X15504Y14583D02*
X15551Y14535D01*
X15515Y10786D02*
X15551Y10749D01*
X15487Y10758D02*
X15551Y10694D01*
X15504Y14478D02*
X15551D01*
X15431Y10702D02*
X15551Y10582D01*
X15459Y10730D02*
X15551Y10638D01*
X15351Y10619D02*
X15551Y10819D01*
X15361Y10573D02*
X15551Y10763D01*
X15351Y10621D02*
X15551Y10822D01*
X15364Y10520D02*
X15551Y10707D01*
X15403Y10674D02*
X15551Y10526D01*
X15358Y10459D02*
X15551Y10652D01*
X15353Y10613D02*
X15551Y10415D01*
X15376Y10646D02*
X15551Y10471D01*
X15363Y10492D02*
X15551Y10304D01*
X15363Y10547D02*
X15551Y10359D01*
X15326Y10362D02*
X15551Y10137D01*
X15334Y10379D02*
X15551Y10596D01*
X15306Y10326D02*
X15551Y10081D01*
X15352Y10118D02*
X15551Y10318D01*
X15504Y14478D02*
Y14933D01*
X15299Y10232D02*
X15551Y10485D01*
X15274Y10263D02*
X15551Y10540D01*
X15049Y14437D02*
X15108D01*
X15055Y14419D02*
X15108Y14366D01*
X15049Y14381D02*
X15087Y14419D01*
X15080Y13577D02*
X15108Y13605D01*
Y13582D02*
Y14419D01*
X15343Y10401D02*
X15551Y10192D01*
X15338Y10160D02*
X15551Y10373D01*
X15355Y10444D02*
X15551Y10248D01*
X15364Y10019D02*
X15551Y10206D01*
X15361Y10072D02*
X15551Y10262D01*
X15283Y10294D02*
X15551Y10025D01*
X15320Y10198D02*
X15551Y10429D01*
X15316Y10205D02*
X15551Y9970D01*
X14981Y15551D02*
X15551Y14981D01*
X15036Y15551D02*
X15551Y15036D01*
X14951Y14951D02*
X15551Y15551D01*
X14925D02*
X15551Y14925D01*
X14895Y14951D02*
X15495Y15551D01*
X14869D02*
X15488Y14933D01*
X13747Y15551D02*
X15551D01*
X14839Y14951D02*
X15440Y15551D01*
X14814D02*
X15432Y14933D01*
X14647Y15551D02*
X15265Y14933D01*
X14784Y14951D02*
X15384Y15551D01*
X15006Y14951D02*
X15551Y15496D01*
X14728Y14951D02*
X15328Y15551D01*
X14758D02*
X15376Y14933D01*
X14702Y15551D02*
X15321Y14933D01*
X14672Y14951D02*
X15273Y15551D01*
X14574Y14964D02*
X15161Y15551D01*
X14617Y14951D02*
X15217Y15551D01*
X14591D02*
X15209Y14933D01*
X14606Y15163D02*
X14994Y15551D01*
X14609Y15110D02*
X15050Y15551D01*
X14597Y15210D02*
X14939Y15551D01*
X14568Y14951D02*
X15128D01*
X14602Y15048D02*
X15106Y15551D01*
X14368D02*
X14969Y14951D01*
X14480Y15551D02*
X15080Y14951D01*
X14553Y15311D02*
X14913Y14951D01*
X14535Y15551D02*
X15154Y14933D01*
X14424Y15551D02*
X15024Y14951D01*
X15049Y14325D02*
X15108Y14385D01*
X15049Y14369D02*
X15108Y14310D01*
X15049Y14419D02*
X15108D01*
X15049Y14258D02*
X15108Y14199D01*
X15049Y14270D02*
X15108Y14329D01*
X15049Y14313D02*
X15108Y14254D01*
X15010Y14419D02*
X15049D01*
Y14158D02*
X15108Y14217D01*
X15049Y14214D02*
X15108Y14273D01*
X15049Y14035D02*
X15108Y13976D01*
X15049Y13936D02*
X15108Y13995D01*
X15049Y13991D02*
X15108Y14050D01*
X15049Y13880D02*
X15108Y13939D01*
X15049Y13979D02*
X15108Y13920D01*
X15049Y14103D02*
X15108Y14162D01*
X15049Y14146D02*
X15108Y14087D01*
X15049Y14202D02*
X15108Y14143D01*
X15049Y14091D02*
X15108Y14032D01*
X15049Y14047D02*
X15108Y14106D01*
X15049Y13824D02*
X15108Y13883D01*
X15049Y13868D02*
X15108Y13809D01*
X15049Y13924D02*
X15108Y13865D01*
X15049Y13812D02*
X15108Y13753D01*
X15049Y13769D02*
X15108Y13828D01*
X15049Y13757D02*
X15108Y13698D01*
X15049Y13713D02*
X15108Y13772D01*
X15049Y13657D02*
X15108Y13716D01*
X15049Y13602D02*
X15108Y13661D01*
X15049Y13645D02*
X15108Y13586D01*
X15049Y13701D02*
X15108Y13642D01*
X15049Y13569D02*
Y14419D01*
X15001Y13553D02*
X15049Y13602D01*
X14419Y13553D02*
X15009D01*
X13947Y13912D02*
X14972Y12888D01*
X13947Y13857D02*
X14916Y12888D01*
X14919Y13553D02*
X14952Y13520D01*
X14863Y13553D02*
X14920Y13496D01*
X14892Y12888D02*
X14945Y12941D01*
X14836Y12888D02*
X14915Y12966D01*
X14807Y13553D02*
X14892Y13468D01*
X14557Y12888D02*
X14979D01*
X13989Y12597D02*
X14945Y13553D01*
X15340Y9457D02*
X15551Y9246D01*
X15328Y9413D02*
X15551Y9190D01*
X15346Y9507D02*
X15551Y9302D01*
X15337Y9101D02*
X15551Y9315D01*
X15324Y9144D02*
X15551Y9371D01*
X15286Y9217D02*
X15551Y9482D01*
X15307Y9183D02*
X15551Y9427D01*
X15287Y9329D02*
X15551Y9594D01*
X15292Y9338D02*
X15551Y9079D01*
X15312Y9374D02*
X15551Y9135D01*
X15345Y8998D02*
X15551Y9204D01*
X15344Y9064D02*
X15551Y8856D01*
X15345Y9053D02*
X15551Y9260D01*
X15340Y8956D02*
X15551Y8745D01*
X15346Y9006D02*
X15551Y8800D01*
X15334Y8931D02*
X15551Y9148D01*
X15269Y9305D02*
X15551Y9023D01*
X15285Y8826D02*
X15551Y9093D01*
X15327Y9136D02*
X15551Y8912D01*
X15353Y10112D02*
X15551Y9914D01*
X15363Y10046D02*
X15551Y9858D01*
X15358Y9957D02*
X15551Y10150D01*
X15355Y9943D02*
X15551Y9747D01*
X15363Y9991D02*
X15551Y9803D01*
X15286Y9718D02*
X15551Y9983D01*
X15343Y9900D02*
X15551Y9691D01*
X15333Y9877D02*
X15551Y10095D01*
X15324Y9645D02*
X15551Y9872D01*
X15307Y9683D02*
X15551Y9928D01*
X15345Y9554D02*
X15551Y9761D01*
X15345Y9499D02*
X15551Y9705D01*
X15337Y9602D02*
X15551Y9816D01*
X15344Y9565D02*
X15551Y9357D01*
X15334Y9432D02*
X15551Y9649D01*
X15306Y9826D02*
X15551Y9580D01*
X15326Y9861D02*
X15551Y9636D01*
X15327Y9637D02*
X15551Y9413D01*
X15282Y9793D02*
X15551Y9524D01*
X15312Y8873D02*
X15551Y8633D01*
X15292Y8837D02*
X15551Y8578D01*
X15328Y8912D02*
X15551Y8689D01*
X15266Y8417D02*
X15551Y8703D01*
X15269Y8805D02*
X15551Y8522D01*
X15266Y8306D02*
X15551Y8591D01*
X15266Y8250D02*
X15551Y8536D01*
X15266Y8362D02*
X15551Y8647D01*
X15266Y8139D02*
X15551Y8424D01*
X15266Y8195D02*
X15551Y8480D01*
X15266Y7972D02*
X15551Y8257D01*
X15266Y8251D02*
X15551Y7965D01*
X15266Y8306D02*
X15551Y8021D01*
X15266Y7749D02*
X15551Y8035D01*
X15266Y8084D02*
X15551Y7798D01*
X15266Y8083D02*
X15551Y8369D01*
X15266Y8418D02*
X15551Y8132D01*
X15266Y8028D02*
X15551Y8313D01*
X15266Y8362D02*
X15551Y8077D01*
X15266Y7415D02*
X15551Y7701D01*
X15266Y7694D02*
X15551Y7408D01*
X15266Y7527D02*
X15551Y7812D01*
X15266Y7360D02*
X15551Y7645D01*
X15266Y7360D02*
X15551Y7645D01*
X15266Y8028D02*
X15551Y7743D01*
X15266Y7917D02*
X15551Y7631D01*
X15266Y7825D02*
Y8455D01*
Y7861D02*
X15551Y7576D01*
X15266Y7582D02*
X15551Y7868D01*
X15266Y7193D02*
X15551Y7478D01*
X15266Y7471D02*
X15551Y7186D01*
X15266Y7527D02*
X15551Y7241D01*
X15266Y7416D02*
X15551Y7130D01*
X15266Y7137D02*
X15551Y7422D01*
X15266Y7304D02*
X15551Y7589D01*
X15266Y7638D02*
X15551Y7353D01*
X15266Y7248D02*
X15551Y7534D01*
X15266Y7583D02*
X15551Y7297D01*
X15262Y9750D02*
X15551Y10039D01*
X15262Y9249D02*
X15551Y9538D01*
X15256Y9764D02*
X15551Y9469D01*
X15243Y9276D02*
X15551Y8967D01*
X15008Y8494D02*
X15551Y9037D01*
X15192Y8455D02*
X15551Y8814D01*
X15247Y8455D02*
X15551Y8759D01*
X15242Y8776D02*
X15551Y8466D01*
X15179Y8727D02*
X15551Y8355D01*
X15212Y8750D02*
X15551Y8411D01*
X15080Y8455D02*
X15551Y8926D01*
X15025Y8455D02*
X15551Y8981D01*
X15143Y8708D02*
X15551Y8299D01*
X15136Y8455D02*
X15551Y8870D01*
X14978Y8575D02*
X15092Y8689D01*
X14954Y8606D02*
X15025Y8678D01*
X15007Y8677D02*
X15229Y8455D01*
X14996Y8538D02*
X15197Y8738D01*
X14894Y8678D02*
X15117Y8455D01*
X14881Y8679D02*
X14949Y8611D01*
X14951Y8677D02*
X15173Y8455D01*
X15010D02*
X15266D01*
X15004Y8512D02*
X15062Y8455D01*
X15173D02*
X15266Y8362D01*
X15229Y8455D02*
X15266Y8418D01*
X14921Y8677D02*
X15000D01*
X14926Y8634D02*
X14968Y8677D01*
X15266Y8195D02*
X15551Y7910D01*
X15266Y7861D02*
X15551Y8146D01*
X15266Y7916D02*
X15551Y8202D01*
X15266Y7972D02*
X15551Y7687D01*
X15266Y8139D02*
X15551Y7854D01*
X15057Y8682D02*
X15551Y8188D01*
X15227Y7766D02*
X15551Y8090D01*
X15102Y8692D02*
X15551Y8244D01*
X15266Y7638D02*
X15551Y7923D01*
X15266Y7694D02*
X15551Y7979D01*
X15266Y7471D02*
X15551Y7756D01*
X15266Y7750D02*
X15551Y7464D01*
X15246Y7825D02*
X15551Y7520D01*
X15266Y7360D02*
X15551Y7074D01*
X15266Y7136D02*
Y7766D01*
X14341D02*
X15266D01*
X15174Y7825D02*
X15266Y7916D01*
X15209Y7136D02*
X15266Y7193D01*
X15194Y7766D02*
X15266Y7694D01*
X15230Y7825D02*
X15266Y7861D01*
X15191Y7825D02*
X15250Y7766D01*
X15171D02*
X15230Y7825D01*
X15135D02*
X15194Y7766D01*
X15115D02*
X15174Y7825D01*
X14948Y7766D02*
X15007Y7825D01*
X14341D02*
X15266D01*
X14912D02*
X14971Y7766D01*
X15079Y7825D02*
X15138Y7766D01*
X15060D02*
X15119Y7825D01*
X15024D02*
X15083Y7766D01*
X15069Y7136D02*
X15266D01*
X15004Y7766D02*
X15063Y7825D01*
X15069Y7051D02*
X15153Y7136D01*
X15069Y7107D02*
X15098Y7136D01*
X14856Y7825D02*
X14916Y7766D01*
X14837D02*
X14896Y7825D01*
X14968D02*
X15027Y7766D01*
X14892D02*
X14952Y7825D01*
X14583Y15252D02*
X14883Y15551D01*
X14608Y15144D02*
X14802Y14951D01*
X14608Y15089D02*
X14746Y14951D01*
X14597Y15211D02*
X14857Y14951D01*
X14492Y15383D02*
X14660Y15551D01*
X14520Y15355D02*
X14716Y15551D01*
X14461Y15408D02*
X14605Y15551D01*
X14566Y15289D02*
X14827Y15551D01*
X14544Y15324D02*
X14772Y15551D01*
X14601Y15040D02*
X14690Y14951D01*
X14588Y14997D02*
X14635Y14951D01*
X14557Y14891D02*
X14617Y14951D01*
X14471Y14836D02*
X14557Y14750D01*
X14528Y14891D02*
X14557Y14861D01*
X14445Y14807D02*
X14557Y14694D01*
X14373Y14711D02*
X14557Y14527D01*
X14401Y14739D02*
X14557Y14583D01*
X14348Y15462D02*
X14438Y15551D01*
X14390Y15448D02*
X14493Y15551D01*
X14303Y15472D02*
X14382Y15551D01*
X14427Y15429D02*
X14549Y15551D01*
X14313D02*
X14445Y15419D01*
X14250Y15475D02*
X14326Y15551D01*
X14257D02*
X14345Y15463D01*
X14090Y15551D02*
X14174Y15467D01*
X14034Y15551D02*
X14131Y15454D01*
X13979Y15551D02*
X14092Y15438D01*
X14501Y14862D02*
X14557Y14806D01*
X14426Y14770D02*
X14557Y14639D01*
Y14724D02*
Y14932D01*
X14201Y15551D02*
X14278Y15474D01*
X14146Y15551D02*
X14223Y15474D01*
X14189Y15470D02*
X14271Y15551D01*
X14109Y15446D02*
X14215Y15551D01*
X14423Y14478D02*
X14557Y14613D01*
X14478Y14478D02*
X14557Y14557D01*
X14345Y14683D02*
X14550Y14478D01*
X14557D02*
Y14724D01*
X14534Y14478D02*
X14557Y14501D01*
X13947Y14281D02*
X14557Y14891D01*
X13947Y14225D02*
X14557Y14836D01*
X14318Y14655D02*
X14495Y14478D01*
X13947Y14114D02*
X14557Y14724D01*
X13947Y14170D02*
X14557Y14780D01*
X14640Y13553D02*
X14828Y13366D01*
X14696Y13553D02*
X14846Y13403D01*
X14557Y14478D02*
X14596D01*
X14529Y13553D02*
X14804Y13278D01*
X14473Y13553D02*
X14800Y13226D01*
X14419Y14478D02*
X14557D01*
X14419Y14419D02*
X14478Y14478D01*
X13951Y12615D02*
X14889Y13553D01*
X14419Y13607D02*
X14473Y13553D01*
X14290Y14627D02*
X14439Y14478D01*
X14262Y14600D02*
X14419Y14442D01*
X14234Y14572D02*
X14419Y14387D01*
Y13553D02*
Y14478D01*
X14206Y14544D02*
X14419Y14331D01*
X14178Y14516D02*
X14419Y14275D01*
X14151Y14488D02*
X14419Y14220D01*
X13947Y14284D02*
X14398Y14736D01*
X14095Y14433D02*
X14419Y14108D01*
X14123Y14460D02*
X14419Y14164D01*
X14039Y14377D02*
X14419Y13997D01*
X14011Y14349D02*
X14419Y13941D01*
X14067Y14405D02*
X14419Y14053D01*
X13956Y14293D02*
X14419Y13830D01*
X13984Y14321D02*
X14419Y13885D01*
X13947Y14080D02*
X14419Y13607D01*
X13947Y13613D02*
X14419Y14085D01*
X13947Y13501D02*
X14419Y13974D01*
X13947Y13557D02*
X14419Y14030D01*
X13867Y15551D02*
X14025Y15394D01*
X13923Y15551D02*
X14057Y15417D01*
X13811Y15551D02*
X13996Y15367D01*
X13789Y15292D02*
X14048Y15551D01*
X13789Y15348D02*
X13992Y15551D01*
X13756D02*
X13970Y15337D01*
X13768Y15483D02*
X13947Y15304D01*
X13784Y15399D02*
X13936Y15551D01*
X13772Y15165D02*
X14159Y15551D01*
X13784Y15232D02*
X14103Y15551D01*
X13782Y15413D02*
X13928Y15268D01*
X13769Y15149D02*
X13913Y15004D01*
X13788Y15352D02*
X13912Y15228D01*
X13756Y15105D02*
X13970Y14892D01*
X13741Y15064D02*
X13942Y14864D01*
X13750Y15086D02*
X13924Y15261D01*
X13594Y14516D02*
X13973Y14895D01*
X13725Y15026D02*
X13914Y14836D01*
X13776Y15447D02*
X13881Y15551D01*
X13789Y15295D02*
X13901Y15184D01*
X13766Y15492D02*
X13825Y15551D01*
X13779Y15194D02*
X13897Y15076D01*
X13786Y15243D02*
X13895Y15134D01*
X13703Y14984D02*
X13900Y15181D01*
X13706Y14989D02*
X13886Y14808D01*
X13685Y14954D02*
X13858Y14781D01*
X13663Y14920D02*
X13830Y14753D01*
X13639Y14889D02*
X13803Y14725D01*
X13613Y14859D02*
X13775Y14697D01*
X13586Y14830D02*
X13747Y14669D01*
X13557Y14803D02*
X13719Y14641D01*
X13526Y14778D02*
X13691Y14613D01*
X13494Y14755D02*
X13663Y14586D01*
X13460Y14733D02*
X13636Y14558D01*
X13425Y14713D02*
X13608Y14530D01*
X13387Y14695D02*
X13581Y14501D01*
X13947Y13968D02*
X14830Y13085D01*
X13947Y13801D02*
X14860Y12888D01*
X13947Y14024D02*
X14806Y13165D01*
X13947Y13745D02*
X14805Y12888D01*
X13947Y13690D02*
X14749Y12888D01*
X13947Y14058D02*
X14557Y14669D01*
X13947Y14247D02*
X14419Y13774D01*
X13947Y13724D02*
X14419Y14197D01*
X13947Y13669D02*
X14419Y14141D01*
X13947Y14191D02*
X14419Y13718D01*
X13947Y13634D02*
X14693Y12888D01*
X13810Y12641D02*
X14722Y13553D01*
X13947Y13578D02*
X14637Y12888D01*
X13910Y12629D02*
X14834Y13553D01*
X13863Y12638D02*
X14778Y13553D01*
X13747Y12633D02*
X14667Y13553D01*
X13593Y12702D02*
X14444Y13553D01*
X13663Y12605D02*
X14611Y13553D01*
X13593Y12590D02*
X14555Y13553D01*
X13947Y13947D02*
X14419Y14419D01*
X13947Y13891D02*
X14419Y14364D01*
X13947Y14003D02*
X14419Y14475D01*
X13947Y13836D02*
X14419Y14308D01*
X13947Y13228D02*
Y14284D01*
X13348Y14679D02*
X13558Y14468D01*
X13306Y14665D02*
X13542Y14429D01*
X13533Y13314D02*
Y14370D01*
X13947Y14135D02*
X14419Y13663D01*
X13947Y13446D02*
X14419Y13918D01*
X13947Y13780D02*
X14419Y14252D01*
X13947Y13334D02*
X14419Y13807D01*
X13947Y13390D02*
X14419Y13863D01*
X13947Y13223D02*
X14419Y13696D01*
X13947Y13279D02*
X14419Y13751D01*
X13593Y12757D02*
X14419Y13584D01*
X13933Y13153D02*
X14419Y13640D01*
X14752Y13553D02*
X14868Y13437D01*
X14781Y12888D02*
X14887Y12994D01*
X14725Y12888D02*
X14863Y13026D01*
X14669Y12888D02*
X14842Y13060D01*
X14614Y12888D02*
X14825Y13099D01*
X14585Y13553D02*
X14813Y13324D01*
X14558Y12888D02*
X14811Y13141D01*
X14557Y12831D02*
X14614Y12888D01*
X14557Y12159D02*
Y12888D01*
X14163Y12381D02*
X14557Y12775D01*
X14282Y11832D02*
X14570Y12120D01*
X14375Y11807D02*
X14559Y11991D01*
X14282Y11776D02*
X14558Y12053D01*
X14282Y11720D02*
X14558Y11997D01*
X14147Y12143D02*
X14557Y12553D01*
X14171Y12222D02*
X14557Y12608D01*
X14202Y11919D02*
X14557Y12274D01*
X14258Y11919D02*
X14557Y12219D01*
X14176Y12283D02*
X14557Y12664D01*
X14176Y12291D02*
X14518Y11950D01*
X14173Y12238D02*
X14490Y11922D01*
X14282Y11887D02*
X14557Y12163D01*
X14214Y11919D02*
X14282Y11852D01*
X14148Y12422D02*
X14557Y12831D01*
X14172Y12335D02*
X14557Y12720D01*
X14169Y12354D02*
X14545Y11978D01*
X14164Y12192D02*
X14462Y11894D01*
X14150Y12150D02*
X14434Y11866D01*
X14282Y11908D02*
X14378Y11811D01*
X14282Y11852D02*
X14352Y11781D01*
X14282Y11796D02*
X14332Y11746D01*
X14282Y11740D02*
X14317Y11705D01*
X14282Y11665D02*
X14316Y11699D01*
X14282Y11685D02*
X14311Y11655D01*
X14282Y11609D02*
X14311Y11639D01*
X14725Y7766D02*
X14784Y7825D01*
X14745D02*
X14804Y7766D01*
X14689Y7825D02*
X14749Y7766D01*
X14801Y7825D02*
X14860Y7766D01*
X14781D02*
X14840Y7825D01*
X14578D02*
X14637Y7766D01*
X14614D02*
X14673Y7825D01*
X14558Y7766D02*
X14617Y7825D01*
X14670Y7766D02*
X14729Y7825D01*
X14634D02*
X14693Y7766D01*
X14467Y7825D02*
X14526Y7766D01*
X14503D02*
X14562Y7825D01*
X14447Y7766D02*
X14506Y7825D01*
X14543Y7136D02*
X14616Y7063D01*
X14522Y7825D02*
X14581Y7766D01*
X14411Y7825D02*
X14470Y7766D01*
X14391D02*
X14450Y7825D01*
X14341Y7136D02*
X14616D01*
X14341Y7227D02*
X14432Y7136D01*
X14311Y11476D02*
Y11654D01*
X14282Y11553D02*
X14311Y11583D01*
X14282Y11629D02*
X14311Y11600D01*
X14373Y7863D02*
X14411Y7825D01*
X14341Y7826D02*
X14377Y7863D01*
X14282Y11498D02*
X14311Y11527D01*
X14282Y11518D02*
X14311Y11488D01*
X14282Y11573D02*
X14311Y11544D01*
X14262Y7863D02*
X14359Y7766D01*
X14282Y11476D02*
Y11919D01*
X14341Y7863D02*
X14401D01*
X14355Y7825D02*
X14414Y7766D01*
X14341Y7825D02*
Y7863D01*
Y7715D02*
X14391Y7766D01*
X14341Y7171D02*
X14376Y7136D01*
X14206Y7863D02*
X14341Y7728D01*
X14318Y7863D02*
X14341Y7840D01*
Y7136D02*
Y7766D01*
X14151Y7863D02*
X14341Y7673D01*
X13947Y13523D02*
X14582Y12888D01*
X14024Y12576D02*
X14840Y13393D01*
X13947Y13411D02*
X14557Y12801D01*
X14055Y12552D02*
X14809Y13305D01*
X14083Y12524D02*
X14800Y13242D01*
X13947Y13356D02*
X14557Y12745D01*
X13947Y13300D02*
X14557Y12690D01*
X13947Y13467D02*
X14557Y12857D01*
X13944Y13192D02*
X14557Y12578D01*
X13947Y13244D02*
X14557Y12634D01*
X14108Y12493D02*
X14802Y13188D01*
X13931Y13149D02*
X14557Y12523D01*
X13858Y13054D02*
X14557Y12356D01*
X14141Y12437D02*
X14557Y12022D01*
X14146Y11919D02*
X14557Y12330D01*
X13775Y12971D02*
X14557Y12189D01*
X13831Y13027D02*
X14557Y12300D01*
X13747Y12943D02*
X14570Y12120D01*
X13719Y12915D02*
X14561Y12074D01*
X13911Y13113D02*
X14557Y12467D01*
X13886Y13082D02*
X14557Y12411D01*
X14130Y12460D02*
X14557Y12887D01*
X13593Y12646D02*
X14500Y13553D01*
X13664Y12859D02*
X13889Y12634D01*
X13593Y12788D02*
X13886Y13082D01*
X13803Y12999D02*
X14557Y12244D01*
X13691Y12887D02*
X13973Y12606D01*
X13636Y12832D02*
X13827Y12641D01*
X13608Y12804D02*
X13774Y12638D01*
X13593Y12560D02*
Y12788D01*
X14026Y11966D02*
X14557Y12497D01*
X13593Y12764D02*
X13727Y12629D01*
X13593Y12708D02*
X13685Y12615D01*
X13593Y12652D02*
X13648Y12597D01*
X14035Y11919D02*
X14557Y12441D01*
X14091Y11919D02*
X14557Y12386D01*
X14111Y12078D02*
X14270Y11919D01*
X14132Y12112D02*
X14406Y11838D01*
X14095Y7863D02*
X14341Y7617D01*
X13868Y7863D02*
X14341D01*
X13984D02*
X14341Y7506D01*
X14026Y11919D02*
X14282D01*
X13872Y7863D02*
X14341Y7394D01*
X13928Y7863D02*
X14341Y7450D01*
X13835Y7844D02*
X14341Y7339D01*
X13779Y7844D02*
X14341Y7283D01*
X14039Y7863D02*
X14341Y7561D01*
X13720Y7095D02*
X14341Y7715D01*
X13723Y7844D02*
X14341Y7227D01*
X13720Y7206D02*
X14341Y7826D01*
X13720Y7262D02*
X14321Y7863D01*
X13720Y7151D02*
X14395Y7825D01*
X13720Y7792D02*
X14341Y7171D01*
X14087Y12047D02*
X14214Y11919D01*
X14059Y12019D02*
X14158Y11919D01*
X14026D02*
Y11992D01*
X14028Y11994D02*
X14103Y11919D01*
X13720Y7485D02*
X14098Y7863D01*
X14026Y11941D02*
X14047Y11919D01*
X13720Y7373D02*
X14210Y7863D01*
X13720Y7429D02*
X14154Y7863D01*
X13720Y7652D02*
X13931Y7863D01*
X13720Y7596D02*
X13987Y7863D01*
X13788D02*
X13868D01*
X13720Y7318D02*
X14266Y7863D01*
X13720Y7540D02*
X14043Y7863D01*
X13720Y7844D02*
X13868D01*
X13720Y7819D02*
X13746Y7844D01*
X13720Y7707D02*
X13858Y7844D01*
X13720Y7763D02*
X13802Y7844D01*
X15266Y7248D02*
X15551Y6963D01*
X15266Y7193D02*
X15551Y6907D01*
X15266Y7304D02*
X15551Y7019D01*
X15248Y5393D02*
X15551Y5696D01*
X15266Y7137D02*
X15551Y6852D01*
X15156Y7136D02*
X15551Y6740D01*
X15208Y5464D02*
X15551Y5808D01*
X15211Y7136D02*
X15551Y6796D01*
X15248Y5448D02*
X15551Y5752D01*
X15152Y5464D02*
X15551Y5863D01*
X15248Y5114D02*
X15551Y5418D01*
X15248Y5374D02*
X15551Y5070D01*
X15248Y5429D02*
X15551Y5126D01*
X15248Y5318D02*
X15551Y5014D01*
X15248Y5059D02*
X15551Y5362D01*
X15248Y5281D02*
X15551Y5585D01*
X15248Y5337D02*
X15551Y5641D01*
X15248Y5170D02*
X15551Y5474D01*
X15248Y5226D02*
X15551Y5529D01*
X15248Y5003D02*
X15551Y5306D01*
X15248Y5262D02*
X15551Y4959D01*
X15248Y4931D02*
Y5464D01*
X15266Y4854D02*
X15551Y5139D01*
X15266Y4910D02*
X15551Y5195D01*
X15248Y4947D02*
X15551Y5251D01*
X15248Y5207D02*
X15551Y4903D01*
X15213Y5464D02*
X15248Y5429D01*
Y5095D02*
X15551Y4792D01*
X15248Y5151D02*
X15551Y4847D01*
X15266Y4743D02*
X15551Y5028D01*
X15266Y4687D02*
X15551Y4972D01*
X15266Y4798D02*
X15551Y5084D01*
X15266Y4576D02*
X15551Y4861D01*
X15266Y4910D02*
X15551Y4625D01*
X15248Y5039D02*
X15551Y4736D01*
X15248Y4851D02*
Y4931D01*
X15266Y4631D02*
X15551Y4917D01*
X15248Y4984D02*
X15551Y4680D01*
X15266Y4687D02*
X15551Y4402D01*
X15266Y4353D02*
X15551Y4638D01*
X15266Y4409D02*
X15551Y4694D01*
X15266Y4297D02*
X15551Y4583D01*
X15266Y4632D02*
X15551Y4346D01*
X15266Y4520D02*
X15551Y4805D01*
X15266Y4799D02*
X15551Y4513D01*
X15266Y4854D02*
X15551Y4569D01*
X15266Y4743D02*
X15551Y4458D01*
X15266Y4464D02*
X15551Y4750D01*
X15266Y4520D02*
X15551Y4235D01*
X15266Y4465D02*
X15551Y4179D01*
X15266Y4576D02*
X15551Y4291D01*
X15266Y4298D02*
X15551Y4012D01*
X15266Y4409D02*
X15551Y4123D01*
X15266Y4353D02*
X15551Y4068D01*
X15148Y4123D02*
X15551Y4527D01*
X15148Y4082D02*
X15551Y3678D01*
X15148Y4068D02*
X15551Y4471D01*
X15266Y4281D02*
Y4931D01*
X15226Y4281D02*
X15551Y3956D01*
X15194Y4281D02*
X15266Y4353D01*
X15551Y197D02*
Y10822D01*
X15170Y4281D02*
X15551Y3901D01*
X15148Y4012D02*
X15551Y4416D01*
X15148Y3956D02*
X15551Y4360D01*
X15148Y4281D02*
X15266D01*
X15148Y3845D02*
X15551Y4249D01*
X15148Y3901D02*
X15551Y4304D01*
X15148Y4026D02*
X15551Y3622D01*
X15148Y3622D02*
X15551Y4026D01*
X15148Y3678D02*
X15551Y4082D01*
X15148Y3567D02*
X15551Y3970D01*
X15148Y3970D02*
X15551Y3567D01*
X15148Y3789D02*
X15551Y4193D01*
X15148Y4193D02*
X15551Y3789D01*
X15148Y3734D02*
X15551Y4137D01*
X15148Y4137D02*
X15551Y3734D01*
X15108Y6812D02*
X15551Y7255D01*
X15108Y6757D02*
X15551Y7200D01*
X15108Y6868D02*
X15551Y7311D01*
X15108Y6645D02*
X15551Y7088D01*
X15108Y6701D02*
X15551Y7144D01*
X15100Y7136D02*
X15551Y6685D01*
X15069Y7111D02*
X15551Y6629D01*
X15084Y6900D02*
X15551Y7367D01*
X15069Y7056D02*
X15551Y6573D01*
X15108Y6590D02*
X15551Y7033D01*
X15108Y6478D02*
X15551Y6921D01*
X15108Y6423D02*
X15551Y6865D01*
X15108Y6534D02*
X15551Y6977D01*
X15108Y6515D02*
X15551Y6072D01*
X15108Y6849D02*
X15551Y6406D01*
X15069Y6944D02*
X15551Y6462D01*
X15069Y7000D02*
X15551Y6518D01*
X15090Y6070D02*
X15551Y6531D01*
X15108Y6367D02*
X15551Y6810D01*
X15108Y6794D02*
X15551Y6351D01*
X15108Y6738D02*
X15551Y6295D01*
X15108Y6329D02*
Y6900D01*
X15090Y6237D02*
X15551Y6698D01*
X15108Y6682D02*
X15551Y6239D01*
X15069Y6996D02*
X15209Y7136D01*
X15069Y6940D02*
X15265Y7136D01*
X15069Y6900D02*
Y7136D01*
X15090Y6293D02*
X15551Y6754D01*
X15069Y6900D02*
X15108D01*
X15090Y6182D02*
X15551Y6643D01*
X15108Y6571D02*
X15551Y6128D01*
X15108Y6626D02*
X15551Y6184D01*
X15108Y6404D02*
X15551Y5961D01*
X15108Y6459D02*
X15551Y6017D01*
X15090Y6126D02*
X15551Y6587D01*
X15090Y5959D02*
X15551Y6420D01*
X15090Y6015D02*
X15551Y6476D01*
X15090Y6311D02*
X15551Y5850D01*
X15090Y6255D02*
X15551Y5794D01*
X15108Y6348D02*
X15551Y5905D01*
X15090Y6144D02*
X15551Y5682D01*
X15090Y6199D02*
X15551Y5738D01*
X14707Y5464D02*
X15551Y6309D01*
X14762Y5464D02*
X15551Y6253D01*
X14651Y5464D02*
X15551Y6364D01*
X14874Y5464D02*
X15551Y6142D01*
X14818Y5464D02*
X15551Y6197D01*
X15090Y6032D02*
X15551Y5571D01*
X15090Y5976D02*
X15551Y5515D01*
X15090Y6088D02*
X15551Y5627D01*
X14946Y5953D02*
X15551Y5348D01*
X15041Y5464D02*
X15551Y5975D01*
X14891Y5953D02*
X15551Y5293D01*
X14929Y5464D02*
X15551Y6086D01*
X14779Y5953D02*
X15551Y5181D01*
X14835Y5953D02*
X15551Y5237D01*
X15090Y5953D02*
Y6329D01*
X14985Y5464D02*
X15551Y6030D01*
X15029Y5953D02*
X15090Y6015D01*
X15002Y5953D02*
X15551Y5404D01*
X15058Y5953D02*
X15551Y5460D01*
X14668Y5953D02*
X15157Y5464D01*
X14724Y5953D02*
X15213Y5464D01*
X14595D02*
X15084Y5953D01*
X13720Y6789D02*
X15046Y5464D01*
X14431Y5356D02*
X15029Y5953D01*
X15096Y5464D02*
X15551Y5919D01*
X15148Y4179D02*
X15250Y4281D01*
X15148Y4235D02*
X15194Y4281D01*
X15148Y4249D02*
X15551Y3845D01*
X15148Y1860D02*
Y4281D01*
X14595Y5464D02*
X15248D01*
X14595Y5953D02*
X15090D01*
X14612D02*
X15101Y5464D01*
X15148Y3079D02*
X15551Y2676D01*
X15148Y2676D02*
X15551Y3079D01*
X15148Y2731D02*
X15551Y3135D01*
X15148Y2620D02*
X15551Y3024D01*
X15148Y3024D02*
X15551Y2620D01*
X15148Y2843D02*
X15551Y3246D01*
X15148Y3191D02*
X15551Y2787D01*
X15148Y3246D02*
X15551Y2843D01*
X15148Y3135D02*
X15551Y2732D01*
X15148Y2787D02*
X15551Y3191D01*
X15148Y2690D02*
X15551Y2286D01*
X15148Y2286D02*
X15551Y2690D01*
X15148Y2342D02*
X15551Y2745D01*
X15223Y1860D02*
X15551Y2189D01*
X15167Y1860D02*
X15551Y2244D01*
X15148Y2801D02*
X15551Y2397D01*
X15148Y2912D02*
X15551Y2509D01*
X15148Y2745D02*
X15551Y2342D01*
X15148Y2397D02*
X15551Y2801D01*
X15266Y1792D02*
X15551Y2077D01*
X15266Y1736D02*
X15551Y2021D01*
X15266Y1847D02*
X15551Y2133D01*
X15266Y1625D02*
X15551Y1910D01*
X15266Y1680D02*
X15551Y1966D01*
X15266Y1569D02*
X15551Y1854D01*
X15266Y1848D02*
X15551Y1562D01*
X15198Y1860D02*
X15266Y1792D01*
X15551Y1507D01*
X15266Y1513D02*
X15551Y1799D01*
X15266Y1625D02*
X15551Y1340D01*
X15266Y1291D02*
X15551Y1576D01*
X15266Y1346D02*
X15551Y1632D01*
X15266Y1235D02*
X15551Y1520D01*
X15266Y1569D02*
X15551Y1284D01*
X15266Y1736D02*
X15551Y1451D01*
X15266Y1458D02*
X15551Y1743D01*
X15266Y1681D02*
X15551Y1395D01*
X15266Y1402D02*
X15551Y1687D01*
X15266Y1458D02*
X15551Y1173D01*
X15266Y1402D02*
X15551Y1117D01*
X15266Y1514D02*
X15551Y1228D01*
X15266Y1291D02*
X15551Y1006D01*
X15266Y1347D02*
X15551Y1061D01*
X15248Y1105D02*
X15551Y1409D01*
X15248Y1050D02*
X15551Y1353D01*
X15248Y1161D02*
X15551Y1465D01*
X15248Y938D02*
X15551Y1242D01*
X15248Y994D02*
X15551Y1298D01*
X15248Y1198D02*
X15551Y894D01*
X15248Y883D02*
X15551Y1186D01*
X15266Y1235D02*
X15551Y950D01*
X15397Y197D02*
X15551Y351D01*
X15248Y1142D02*
X15551Y838D01*
X15248Y1086D02*
X15551Y783D01*
X15248Y827D02*
X15551Y1131D01*
X15248Y1031D02*
X15551Y727D01*
X15248Y771D02*
X15551Y1075D01*
X15266Y1211D02*
Y1860D01*
X15248Y716D02*
X15551Y1019D01*
X15248Y1211D02*
Y1291D01*
Y975D02*
X15551Y671D01*
X15248Y678D02*
Y1211D01*
Y919D02*
X15551Y616D01*
X15248Y864D02*
X15551Y560D01*
X15209Y678D02*
X15248Y716D01*
Y752D02*
X15551Y449D01*
X15248Y808D02*
X15551Y504D01*
X15286Y197D02*
X15551Y463D01*
X15341Y197D02*
X15551Y407D01*
X15248Y697D02*
X15551Y393D01*
X15508Y197D02*
X15551Y240D01*
X15453Y197D02*
X15551Y295D01*
X15155Y678D02*
X15551Y282D01*
X15211Y678D02*
X15551Y337D01*
X15174Y197D02*
X15551Y574D01*
X15230Y197D02*
X15551Y518D01*
X15148Y2564D02*
X15551Y2968D01*
X15148Y2509D02*
X15551Y2912D01*
X15148Y2968D02*
X15551Y2565D01*
X15148Y2453D02*
X15551Y2857D01*
X15148Y2857D02*
X15551Y2453D01*
X15148Y3358D02*
X15551Y2954D01*
X15148Y2954D02*
X15551Y3358D01*
X15148Y3010D02*
X15551Y3413D01*
X15148Y2899D02*
X15551Y3302D01*
X15148Y3302D02*
X15551Y2899D01*
X15148Y2119D02*
X15551Y2523D01*
X15148Y2467D02*
X15551Y2063D01*
X15148Y2523D02*
X15551Y2119D01*
X15148Y2411D02*
X15551Y2008D01*
X15148Y2063D02*
X15551Y2467D01*
X15148Y2230D02*
X15551Y2634D01*
X15148Y2634D02*
X15551Y2230D01*
X15148Y2175D02*
X15551Y2578D01*
X15148Y2578D02*
X15551Y2175D01*
X15148Y3748D02*
X15551Y3344D01*
X15148Y3344D02*
X15551Y3747D01*
X15148Y3400D02*
X15551Y3803D01*
X15148Y3288D02*
X15551Y3692D01*
X15148Y3692D02*
X15551Y3288D01*
X15148Y3511D02*
X15551Y3915D01*
X15148Y3859D02*
X15551Y3455D01*
X15148Y3915D02*
X15551Y3511D01*
X15148Y3803D02*
X15551Y3400D01*
X15148Y3455D02*
X15551Y3859D01*
X15148Y3121D02*
X15551Y3525D01*
X15148Y3469D02*
X15551Y3066D01*
X15148Y3525D02*
X15551Y3121D01*
X15148Y3413D02*
X15551Y3010D01*
X15148Y3066D02*
X15551Y3469D01*
X15148Y3233D02*
X15551Y3636D01*
X15148Y3636D02*
X15551Y3233D01*
X15148Y3177D02*
X15551Y3580D01*
X15148Y3581D02*
X15551Y3177D01*
X15148Y2189D02*
X15551Y1785D01*
X15148Y2133D02*
X15551Y1729D01*
X15148Y2244D02*
X15551Y1841D01*
X15148Y2022D02*
X15551Y1618D01*
X15148Y2077D02*
X15551Y1674D01*
X15148Y2356D02*
X15551Y1952D01*
X15148Y1952D02*
X15551Y2356D01*
X15148Y2008D02*
X15551Y2411D01*
X15148Y1896D02*
X15551Y2300D01*
X15148Y2300D02*
X15551Y1896D01*
X15063Y197D02*
X15551Y685D01*
X15118Y197D02*
X15551Y630D01*
X15100Y678D02*
X15551Y226D01*
X15007Y197D02*
X15551Y741D01*
X15044Y678D02*
X15525Y197D01*
X14840D02*
X15551Y908D01*
X14784Y197D02*
X15551Y964D01*
X14951Y197D02*
X15551Y797D01*
X14896Y197D02*
X15551Y852D01*
X15148Y1966D02*
X15253Y1860D01*
X15148D02*
X15266D01*
X15148Y1910D02*
X15198Y1860D01*
X14988Y678D02*
X15469Y197D01*
X14933Y678D02*
X15413Y197D01*
X14595Y678D02*
X15248D01*
X14877D02*
X15358Y197D01*
X14766Y678D02*
X15246Y197D01*
X14673D02*
X15154Y678D01*
X14710D02*
X15191Y197D01*
X14654Y678D02*
X15135Y197D01*
X14821Y678D02*
X15302Y197D01*
X14729D02*
X15209Y678D01*
X14562Y197D02*
X15042Y678D01*
X14578Y642D02*
X15024Y197D01*
X14617D02*
X15098Y678D01*
X14599D02*
X15079Y197D01*
X14432Y7136D02*
X14616Y6952D01*
Y6900D02*
Y7136D01*
X14488D02*
X14616Y7007D01*
X14577Y6900D02*
X14616D01*
X14583D02*
X14616Y6933D01*
X13720Y6678D02*
X14934Y5464D01*
X13720Y6567D02*
X14823Y5464D01*
X13720Y6093D02*
X14616Y6988D01*
X13720Y6734D02*
X14990Y5464D01*
X13720Y6622D02*
X14879Y5464D01*
X14595Y6026D02*
X14668Y5953D01*
X14376Y5356D02*
X14973Y5953D01*
X14595Y5408D02*
X14651Y5464D01*
X14209Y5356D02*
X14806Y5953D01*
X13720Y6511D02*
X14767Y5464D01*
X14320Y5356D02*
X14917Y5953D01*
X14264Y5356D02*
X14862Y5953D01*
X13720Y6872D02*
X14341Y7492D01*
X14376Y7136D02*
X14612Y6900D01*
X13720Y6816D02*
X14341Y7437D01*
X13720Y7458D02*
X14577Y6601D01*
X13720Y7513D02*
X14577Y6657D01*
X13720Y7402D02*
X14577Y6546D01*
X13720Y7346D02*
X14577Y6490D01*
X13720Y6761D02*
X14341Y7381D01*
X13720Y6956D02*
X14595Y6082D01*
X13720Y7012D02*
X14595Y6138D01*
X13720Y6037D02*
X14577Y6893D01*
X14595Y5953D02*
Y6329D01*
X14577D02*
Y6900D01*
X14543Y5356D02*
X14595Y5408D01*
X14487Y5356D02*
X14595Y5464D01*
X13720Y6901D02*
X14595Y6026D01*
X13720Y5981D02*
X14577Y6838D01*
X13720Y6845D02*
X14595Y5971D01*
X13720Y5926D02*
X14577Y6782D01*
X14669Y4281D02*
X14695Y4256D01*
Y1860D02*
Y4281D01*
X14614D02*
X14695Y4200D01*
X14153Y5356D02*
X14750Y5953D01*
X14596Y4281D02*
X14695D01*
X14596Y4243D02*
X14695Y4145D01*
X14404Y4213D02*
X14695Y3922D01*
X14460Y4213D02*
X14695Y3978D01*
X14237Y4213D02*
X14695Y3755D01*
X14181Y4213D02*
X14695Y3699D01*
X14349Y4213D02*
X14695Y3866D01*
X14070Y4213D02*
X14695Y3588D01*
X14126Y4213D02*
X14695Y3644D01*
X13959Y4213D02*
X14695Y3476D01*
X14014Y4213D02*
X14695Y3532D01*
X13792Y4213D02*
X14695Y3309D01*
X13847Y4213D02*
X14695Y3365D01*
X14042Y5356D02*
X14639Y5953D01*
X14097Y5356D02*
X14695Y5953D01*
X14541Y5356D02*
X14578Y5319D01*
X14595Y4931D02*
Y5464D01*
X14578Y4931D02*
Y5356D01*
X13819D02*
X14595Y6132D01*
X13875Y5356D02*
X14595Y6076D01*
X13763Y5356D02*
X14595Y6188D01*
X13986Y5356D02*
X14595Y5965D01*
X13930Y5356D02*
X14595Y6021D01*
X14595Y4882D02*
Y4931D01*
X14596Y4240D02*
X14638Y4281D01*
X14578Y4882D02*
Y4931D01*
X14569Y4213D02*
X14596Y4240D01*
Y4213D02*
Y4281D01*
X14293Y4213D02*
X14695Y3811D01*
X14513Y4213D02*
X14582Y4281D01*
X13720Y7179D02*
X14595Y6305D01*
X13720Y6260D02*
X14597Y7136D01*
X13720Y7235D02*
X14577Y6378D01*
X13720Y6204D02*
X14616Y7100D01*
X13720Y7123D02*
X14595Y6249D01*
X13720Y7680D02*
X14577Y6824D01*
X13720Y7625D02*
X14577Y6768D01*
X13720Y7736D02*
X14577Y6880D01*
X13720Y7290D02*
X14577Y6434D01*
X13720Y7569D02*
X14577Y6713D01*
X13720Y6148D02*
X14616Y7044D01*
X13720Y6455D02*
X14712Y5464D01*
X13720Y7068D02*
X14595Y6193D01*
X13720Y6400D02*
X14656Y5464D01*
X13720Y6177D02*
X14541Y5356D01*
X13720Y6344D02*
X14600Y5464D01*
X13717Y5866D02*
X14577Y6726D01*
X13720Y6233D02*
X14595Y5358D01*
X13720Y6288D02*
X14595Y5414D01*
X13720Y6594D02*
X14341Y7214D01*
X13720Y6538D02*
X14341Y7158D01*
X13720Y6649D02*
X14341Y7269D01*
X13720Y6371D02*
X14485Y7136D01*
X13720Y6427D02*
X14430Y7136D01*
X13720Y6983D02*
X14341Y7604D01*
X13720Y6928D02*
X14341Y7548D01*
X13720Y7039D02*
X14341Y7659D01*
X13720Y6705D02*
X14341Y7325D01*
X13720Y5906D02*
Y7844D01*
Y6482D02*
X14374Y7136D01*
X13720Y6315D02*
X14541Y7136D01*
X13720Y6121D02*
X14486Y5356D01*
X13720Y5899D02*
X14263Y5356D01*
X13487Y5582D02*
X13657Y5752D01*
X13708Y5356D02*
X14595Y6243D01*
X13720Y5954D02*
X14319Y5356D01*
X13713Y5850D02*
X14207Y5356D01*
X13720Y6066D02*
X14430Y5356D01*
X13720Y6010D02*
X14374Y5356D01*
X13541D02*
X14577Y6392D01*
X13596Y5356D02*
X14577Y6336D01*
X13485Y5356D02*
X14577Y6448D01*
X13652Y5356D02*
X14595Y6299D01*
X13698Y5810D02*
X14152Y5356D01*
X13677Y5775D02*
X14096Y5356D01*
X13650Y5746D02*
X14040Y5356D01*
X13623Y5718D02*
X13985Y5356D01*
X13625Y4213D02*
X14695Y3142D01*
X13680Y4213D02*
X14695Y3198D01*
X13583Y5356D02*
X14578D01*
X13595Y5690D02*
X13929Y5356D01*
X13458Y4213D02*
X14695Y2975D01*
X13583Y4213D02*
X14596D01*
X13567Y5662D02*
X13873Y5356D01*
X13539Y5634D02*
X13818Y5356D01*
X13511Y5607D02*
X13762Y5356D01*
X13483Y5579D02*
X13706Y5356D01*
X13460Y5331D02*
X13485Y5356D01*
X13452Y5554D02*
X13651Y5356D01*
X13416Y5535D02*
X13595Y5356D01*
X13321Y5519D02*
X13484Y5356D01*
X13373Y5522D02*
X13539Y5356D01*
X13433D02*
X13583D01*
X13433Y5350D02*
X13455Y5329D01*
X13433Y5319D02*
Y5356D01*
X13415Y4255D02*
X13458Y4213D01*
X13415D02*
X13583D01*
X13415D02*
Y4257D01*
X14596Y2848D02*
X14695Y2947D01*
X14596Y2907D02*
X14695Y2808D01*
X14596Y2904D02*
X14695Y3003D01*
X14596Y2851D02*
X14695Y2753D01*
X14596Y2793D02*
X14695Y2891D01*
X14516Y4213D02*
X14695Y4033D01*
X14439Y2913D02*
X14695Y3170D01*
X14571Y4213D02*
X14695Y4089D01*
X14494Y2913D02*
X14695Y3114D01*
X14550Y2913D02*
X14695Y3058D01*
X14596Y2684D02*
X14695Y2586D01*
X14596Y2570D02*
X14695Y2668D01*
X14596Y2626D02*
X14695Y2724D01*
X14596Y2514D02*
X14695Y2613D01*
X14596Y2628D02*
X14695Y2530D01*
X14596Y2795D02*
X14695Y2697D01*
X14596Y2737D02*
X14695Y2836D01*
X14596Y2740D02*
X14695Y2641D01*
X14596Y2681D02*
X14695Y2780D01*
X14596Y2461D02*
X14695Y2363D01*
X14596Y2347D02*
X14695Y2446D01*
X14596Y2403D02*
X14695Y2501D01*
X14596Y2244D02*
Y2421D01*
Y2244D02*
Y2421D01*
Y2573D02*
X14695Y2474D01*
X14596Y2459D02*
X14695Y2557D01*
X14534Y2913D02*
X14596Y2851D01*
Y2517D02*
X14695Y2419D01*
X14596Y2421D02*
Y2913D01*
Y2180D02*
X14695Y2279D01*
X14596Y2239D02*
X14695Y2140D01*
X14596Y2294D02*
X14695Y2196D01*
X14596Y2183D02*
X14695Y2085D01*
X14596Y2125D02*
X14695Y2223D01*
X14596Y2292D02*
X14695Y2390D01*
X14596Y2406D02*
X14695Y2307D01*
X14596Y2236D02*
X14695Y2334D01*
X14596Y2350D02*
X14695Y2252D01*
X14596Y2072D02*
X14695Y1973D01*
X14610Y1860D02*
X14695Y1945D01*
X14596Y2127D02*
X14695Y2029D01*
X14666Y1860D02*
X14695Y1889D01*
X14596Y1960D02*
X14695Y1862D01*
X14596Y1860D02*
X14695D01*
X14596Y2069D02*
X14695Y2167D01*
X14578Y325D02*
X14931Y678D01*
X14578Y381D02*
X14875Y678D01*
X14578Y586D02*
X14968Y197D01*
X14578Y531D02*
X14912Y197D01*
X14578Y475D02*
X14857Y197D01*
X14578Y419D02*
X14801Y197D01*
X14578Y364D02*
X14745Y197D01*
X14578Y492D02*
X14764Y678D01*
X14578Y548D02*
X14708Y678D01*
X14506Y197D02*
X14987Y678D01*
X14578Y436D02*
X14820Y678D01*
X14596Y2013D02*
X14695Y2112D01*
X14596Y1958D02*
X14695Y2056D01*
X14596Y1929D02*
Y2244D01*
Y1902D02*
X14695Y2000D01*
X14596Y2016D02*
X14695Y1918D01*
X14596Y1860D02*
Y1929D01*
Y1905D02*
X14641Y1860D01*
X14596D02*
Y1929D01*
X14595Y678D02*
Y768D01*
X14578Y294D02*
Y768D01*
X14595Y737D02*
X14654Y678D01*
X14578Y603D02*
X14653Y678D01*
X14547Y294D02*
X14578Y325D01*
Y308D02*
X14690Y197D01*
X14537Y294D02*
X14634Y197D01*
X14492Y294D02*
X14578Y381D01*
X14481Y294D02*
X14578Y197D01*
X14450D02*
X14547Y294D01*
X14426D02*
X14523Y197D01*
X13736Y4213D02*
X14695Y3254D01*
X13882Y2913D02*
X14695Y3726D01*
X13903Y4213D02*
X14695Y3421D01*
X13826Y2913D02*
X14695Y3782D01*
X13771Y2913D02*
X14695Y3838D01*
X13513Y4213D02*
X14695Y3031D01*
X13715Y2913D02*
X14695Y3893D01*
X13569Y4213D02*
X14695Y3087D01*
X13604Y2913D02*
X14695Y4005D01*
X13659Y2913D02*
X14695Y3949D01*
X14216Y2913D02*
X14695Y3392D01*
X14272Y2913D02*
X14695Y3337D01*
X14160Y2913D02*
X14695Y3448D01*
X14383Y2913D02*
X14695Y3225D01*
X14327Y2913D02*
X14695Y3281D01*
X13993Y2913D02*
X14695Y3615D01*
X13938Y2913D02*
X14695Y3671D01*
X14105Y2913D02*
X14695Y3504D01*
X14049Y2913D02*
X14695Y3559D01*
X13492Y2913D02*
X14695Y4116D01*
X13548Y2913D02*
X14695Y4060D01*
X13436Y2913D02*
X14695Y4172D01*
X13583Y2913D02*
X14596D01*
X13421D02*
X13449Y2885D01*
X13415Y2913D02*
X13583D01*
X13415Y2869D02*
Y2913D01*
X13434Y294D02*
X13459Y319D01*
X13583Y294D02*
X14578D01*
X13450Y323D02*
X13479Y294D01*
X13433D02*
Y331D01*
Y294D02*
X13583D01*
X14061Y197D02*
X14157Y294D01*
X14092D02*
X14188Y197D01*
X14036Y294D02*
X14133Y197D01*
X14147Y294D02*
X14244Y197D01*
X14116D02*
X14213Y294D01*
X13925D02*
X14021Y197D01*
X13949D02*
X14046Y294D01*
X13894Y197D02*
X13990Y294D01*
X14005Y197D02*
X14102Y294D01*
X13980D02*
X14077Y197D01*
X14314Y294D02*
X14411Y197D01*
X14339D02*
X14436Y294D01*
X14283Y197D02*
X14380Y294D01*
X14395Y197D02*
X14492Y294D01*
X14370D02*
X14467Y197D01*
X14203Y294D02*
X14300Y197D01*
X14172D02*
X14269Y294D01*
X14259D02*
X14355Y197D01*
X14228D02*
X14325Y294D01*
X13535D02*
X13632Y197D01*
X13560D02*
X13656Y294D01*
X13504Y197D02*
X13601Y294D01*
X13615Y197D02*
X13712Y294D01*
X13591D02*
X13687Y197D01*
X13392D02*
X13489Y294D01*
X13337Y197D02*
X13434Y294D01*
X13479D02*
X13576Y197D01*
X13448D02*
X13545Y294D01*
X13782Y197D02*
X13879Y294D01*
X13813D02*
X13910Y197D01*
X13758Y294D02*
X13854Y197D01*
X13869Y294D02*
X13966Y197D01*
X13838D02*
X13935Y294D01*
X13671Y197D02*
X13768Y294D01*
X13646D02*
X13743Y197D01*
X13727D02*
X13823Y294D01*
X13702D02*
X13799Y197D01*
X13110Y14335D02*
X13895Y15120D01*
X13262Y14653D02*
X13534Y14381D01*
X13215Y14644D02*
X13533Y14326D01*
X13110Y14279D02*
X13898Y15068D01*
X13166Y14638D02*
X13533Y14270D01*
X13110Y14223D02*
X13908Y15022D01*
X13110Y14168D02*
X13922Y14980D01*
X13110Y14056D02*
X13962Y14909D01*
X13110Y14112D02*
X13941Y14943D01*
X13110Y14582D02*
X13533Y14159D01*
X13110Y14527D02*
X13533Y14103D01*
X13112Y14636D02*
X13533Y14215D01*
X13110Y14001D02*
X13544Y14435D01*
X13110Y14471D02*
X13533Y14047D01*
X13110Y14360D02*
X13533Y13936D01*
X13110Y13945D02*
X13533Y14369D01*
X13110Y14304D02*
X13533Y13880D01*
X13110Y13889D02*
X13533Y14313D01*
X13110Y13859D02*
X13533Y13435D01*
X13110Y13803D02*
X13533Y13379D01*
X13110Y13914D02*
X13533Y13491D01*
X13128Y13295D02*
X13533Y13701D01*
X13110Y13747D02*
X13533Y13324D01*
X13110Y14248D02*
X13533Y13825D01*
X13110Y14193D02*
X13533Y13769D01*
X13110Y13834D02*
X13533Y14257D01*
X13110Y13970D02*
X13533Y13546D01*
X13110Y13667D02*
X13533Y14090D01*
X13128Y13184D02*
X13533Y13589D01*
X13128Y13128D02*
X13533Y13534D01*
X13128Y13239D02*
X13533Y13645D01*
X13128Y13284D02*
X13316Y13096D01*
X13128Y13228D02*
X13288Y13068D01*
X13110Y13692D02*
X13510Y13291D01*
X13110Y13636D02*
X13483Y13263D01*
X13128Y13072D02*
X13533Y13478D01*
X13110Y13580D02*
X13455Y13235D01*
X13128Y13017D02*
X13533Y13422D01*
X13240Y13020D02*
X13533Y13314D01*
X13128Y13172D02*
X13260Y13040D01*
X13128Y12961D02*
X13533Y13366D01*
X13128Y13117D02*
X13232Y13012D01*
X13128Y13061D02*
X13209Y12980D01*
X13128Y12905D02*
X13220Y12997D01*
X13128Y13005D02*
X13191Y12943D01*
X13128Y12738D02*
X13179Y12789D01*
X13128Y12783D02*
X13179Y12731D01*
X13128Y12838D02*
X13179Y12787D01*
X13128Y12727D02*
X13179Y12676D01*
X13128Y12683D02*
X13179Y12734D01*
X13128Y12850D02*
X13181Y12903D01*
X13128Y12950D02*
X13180Y12897D01*
X13128Y12794D02*
X13179Y12845D01*
X13128Y12894D02*
X13179Y12843D01*
X13128Y12671D02*
X13179Y12620D01*
X13128Y12571D02*
X13179Y12622D01*
X13128Y12627D02*
X13179Y12678D01*
Y12251D02*
Y12874D01*
X13128Y12200D02*
Y13297D01*
Y12516D02*
X13179Y12567D01*
X13128Y12560D02*
X13179Y12509D01*
X13128Y12616D02*
X13179Y12564D01*
X13128Y12504D02*
X13179Y12453D01*
X13128Y12460D02*
X13179Y12511D01*
X13128Y12293D02*
X13179Y12344D01*
X13128Y12337D02*
X13179Y12286D01*
X13128Y12282D02*
X13169Y12241D01*
X13128Y12200D02*
X13179Y12251D01*
X13128Y12237D02*
X13179Y12288D01*
X13128Y12449D02*
X13179Y12397D01*
X13128Y12404D02*
X13179Y12455D01*
X13128Y12393D02*
X13179Y12342D01*
X13128Y12349D02*
X13179Y12400D01*
X13110Y13778D02*
X13533Y14202D01*
X13110Y13722D02*
X13533Y14146D01*
X13110Y14415D02*
X13533Y13992D01*
X13110Y14137D02*
X13533Y13713D01*
X13110Y13571D02*
Y14636D01*
Y14502D02*
X13261Y14653D01*
X13110Y14558D02*
X13193Y14641D01*
X13110Y14613D02*
X13133Y14636D01*
X13110Y14390D02*
X13441Y14722D01*
X13110Y14446D02*
X13339Y14676D01*
X13110Y13611D02*
X13533Y14035D01*
X13110Y14026D02*
X13533Y13602D01*
X13110Y14081D02*
X13533Y13658D01*
X13074Y13297D02*
X13533Y13756D01*
X13070Y13571D02*
X13110Y13611D01*
X12957Y13347D02*
X13533Y13923D01*
X12929Y13375D02*
X13533Y13979D01*
X12985Y13319D02*
X13533Y13868D01*
X12840Y13571D02*
X13114Y13297D01*
X12817Y13485D02*
X12903Y13571D01*
X12846Y13458D02*
X12959Y13571D01*
X12902Y13403D02*
X13070Y13571D01*
X12874Y13431D02*
X13014Y13571D01*
X12628D02*
X13110D01*
X12643Y13533D02*
X12680Y13571D01*
X12783Y13507D02*
X12847Y13571D01*
X12729D02*
X12810Y13491D01*
X12744Y13523D02*
X12792Y13571D01*
X12697Y13533D02*
X12736Y13571D01*
X12838Y13467D02*
X12971Y13334D01*
X12628Y13561D02*
X12656Y13533D01*
X12494Y13553D02*
X12628D01*
X12673Y13571D02*
X12714Y13530D01*
X12482Y13533D02*
X12677D01*
X13019Y13297D02*
X13533Y13812D01*
X13000Y13297D02*
X13128D01*
X13059D02*
X13128Y13228D01*
X13063Y13571D02*
X13427Y13207D01*
X13007Y13571D02*
X13399Y13180D01*
X12785Y13571D02*
X13059Y13297D01*
X12952Y13571D02*
X13371Y13152D01*
X12896Y13571D02*
X13343Y13124D01*
X12834Y10293D02*
X12894Y10233D01*
X12791Y10280D02*
X12894Y10177D01*
X12689Y10271D02*
X12894Y10066D01*
X12742Y10274D02*
X12894Y10122D01*
X12521Y9737D02*
X12894Y10110D01*
X12661Y10243D02*
X12894Y10010D01*
X12521Y9682D02*
X12894Y10054D01*
X12539Y10086D02*
X12894Y9732D01*
X12539Y10034D02*
X12785Y10279D01*
X12633Y10215D02*
X12894Y9955D01*
X12550Y10131D02*
X12692Y10273D01*
X12894Y9503D02*
Y10320D01*
X12605Y10187D02*
X12894Y9899D01*
X12521Y9960D02*
X12867Y10306D01*
X12521Y9904D02*
X12894Y10277D01*
X12539Y10090D02*
X12722Y10273D01*
X12521Y9793D02*
X12894Y10166D01*
X12521Y9849D02*
X12894Y10221D01*
X12578Y10159D02*
X12894Y9843D01*
X12550Y10131D02*
X12894Y9788D01*
X12539Y9992D02*
Y10122D01*
X12522Y9992D02*
X12894Y9621D01*
X12539Y10031D02*
X12894Y9676D01*
X12521Y9626D02*
X12894Y9998D01*
X12521Y9992D02*
Y10045D01*
Y9570D02*
X12894Y9943D01*
X12521Y9563D02*
Y9992D01*
X12700Y9526D02*
X12894Y9720D01*
X12760Y9530D02*
X12894Y9664D01*
X12539Y9533D02*
X12894Y9887D01*
X12556Y9494D02*
X12894Y9831D01*
X12623Y9505D02*
X12894Y9776D01*
X12521Y9937D02*
X12894Y9565D01*
X12521Y9770D02*
X12761Y9530D01*
X12521Y9715D02*
X12709Y9527D01*
X12521Y9882D02*
X12894Y9509D01*
X12521Y9826D02*
X12823Y9524D01*
X12857Y9516D02*
X12894Y9553D01*
X12811Y9526D02*
X12894Y9609D01*
X12539Y9529D02*
X12575Y9494D01*
X12539D02*
Y9563D01*
X12521Y9659D02*
X12662Y9518D01*
X12521Y9510D02*
Y9563D01*
Y9603D02*
X12621Y9504D01*
X12539Y9494D02*
X12599D01*
X11971Y6626D02*
X12120Y6775D01*
X11968Y6568D02*
X12148Y6747D01*
X11966Y6677D02*
X12092Y6803D01*
X11995Y6539D02*
X12175Y6719D01*
X11957Y6716D02*
X12142Y6531D01*
X11940Y6762D02*
X12036Y6858D01*
X11920Y6798D02*
X12008Y6886D01*
X11901Y6827D02*
X12158Y6571D01*
X11955Y6721D02*
X12064Y6830D01*
X12023Y6511D02*
X12203Y6691D01*
X12051Y6483D02*
X12183Y6615D01*
X12079Y6456D02*
X12136Y6513D01*
X11971Y6590D02*
X12124Y6438D01*
X11970Y6647D02*
X12130Y6487D01*
X11968Y6566D02*
X12123Y6412D01*
X11906Y5837D02*
X11995Y5927D01*
X12443Y5093D02*
X12868Y5519D01*
X12820D02*
X13268Y5071D01*
X12415Y5121D02*
X12812Y5519D01*
X12499Y5038D02*
X12979Y5519D01*
X12471Y5066D02*
X12924Y5519D01*
X12304Y5233D02*
X12590Y5519D01*
X12332Y5205D02*
X12645Y5519D01*
X12276Y5261D02*
X12534Y5519D01*
X12387Y5149D02*
X12757Y5519D01*
X12359Y5177D02*
X12701Y5519D01*
X13209D02*
X13418Y5310D01*
X13265Y5519D02*
X13433Y5350D01*
X13154Y5519D02*
X13385Y5287D01*
X13098Y5519D02*
X13356Y5261D01*
X13042Y5519D02*
X13330Y5231D01*
X12493Y5519D02*
X13334D01*
X12987D02*
X13308Y5197D01*
X12931Y5519D02*
X13290Y5160D01*
X12875Y5519D02*
X13276Y5118D01*
X11997Y5539D02*
X12190Y5732D01*
X12025Y5511D02*
X12218Y5704D01*
X11971Y5624D02*
X12135Y5787D01*
X12081Y5455D02*
X12274Y5648D01*
X12053Y5483D02*
X12246Y5676D01*
X11945Y5765D02*
X12051Y5871D01*
X11959Y5723D02*
X12079Y5843D01*
X11927Y5802D02*
X12023Y5899D01*
X11970Y5567D02*
X12163Y5760D01*
X11968Y5677D02*
X12107Y5815D01*
X12192Y5344D02*
X12392Y5544D01*
X12248Y5288D02*
X12479Y5519D01*
X12220Y5316D02*
X12432Y5528D01*
X12109Y5428D02*
X12302Y5620D01*
X12165Y5372D02*
X12358Y5566D01*
X12137Y5400D02*
X12330Y5593D01*
X11810Y8310D02*
X11889Y8231D01*
X11866Y8310D02*
X11898Y8278D01*
X11754Y8310D02*
X11887Y8177D01*
X11730Y8111D02*
X11898Y8279D01*
X11699Y8310D02*
X11895Y8114D01*
X11405Y8310D02*
X11908D01*
X11643D02*
X11848Y8105D01*
X11658Y8095D02*
X11873Y8310D01*
X11142Y7634D02*
X11818Y8310D01*
X11788Y8113D02*
X11888Y8213D01*
X11837Y8107D02*
X11888Y8158D01*
X11695Y6962D02*
X11822Y7089D01*
X11142Y7809D02*
X11804Y7147D01*
X11142Y7753D02*
X11852Y7044D01*
X11647Y6970D02*
X11807Y7130D01*
X11532Y8310D02*
X11731Y8111D01*
X11587Y8310D02*
X11784Y8113D01*
X11476Y8310D02*
X11684Y8102D01*
X11420Y8310D02*
X11642Y8089D01*
X11360Y8315D02*
X11604Y8071D01*
X11142Y7801D02*
X11651Y8310D01*
X11142Y7745D02*
X11706Y8310D01*
X11142Y7857D02*
X11595Y8310D01*
X11142Y7865D02*
X11801Y7205D01*
X11142Y7690D02*
X11762Y8310D01*
X11637Y7425D02*
X11801Y7261D01*
X11715Y7403D02*
X11801Y7317D01*
X11775Y7399D02*
X11801Y7372D01*
X11592Y6971D02*
X11801Y7180D01*
Y7179D02*
Y7400D01*
X11142Y7419D02*
X11590Y6971D01*
X11142Y7022D02*
X11577Y7457D01*
X11142Y7475D02*
X11647Y6970D01*
X11142Y6966D02*
X11612Y7436D01*
X11812Y6912D02*
X11897Y6997D01*
X11843Y6888D02*
X11925Y6970D01*
X11776Y6932D02*
X11869Y7025D01*
X11862Y7033D02*
X12226Y6668D01*
X11872Y6861D02*
X11953Y6942D01*
X11142Y7698D02*
X12200Y6639D01*
X11738Y6949D02*
X11843Y7055D01*
X11142Y7586D02*
X11827Y6901D01*
X11142Y7642D02*
X12177Y6607D01*
X11898Y6831D02*
X11981Y6914D01*
X11822Y5920D02*
X11912Y6010D01*
X11788Y5942D02*
X11884Y6038D01*
X11881Y5868D02*
X11968Y5954D01*
X11853Y5896D02*
X11940Y5982D01*
X11751Y5960D02*
X11856Y6066D01*
X11709Y5974D02*
X11828Y6094D01*
X11662Y6260D02*
X12340Y5582D01*
X11430Y6921D02*
X11801Y7291D01*
X11526Y6960D02*
X11801Y7236D01*
X11142Y6910D02*
X11651Y7420D01*
X11142Y6799D02*
X11743Y7400D01*
X11142Y6855D02*
X11694Y7407D01*
X11142Y6743D02*
X11798Y7400D01*
X11142Y6688D02*
X11801Y7347D01*
X11142Y7531D02*
X11716Y6957D01*
X11142Y6529D02*
X11692Y5979D01*
X11142Y6473D02*
X11628Y5987D01*
X11611Y5987D02*
X11773Y6149D01*
X11663Y5984D02*
X11801Y6122D01*
X11549Y5981D02*
X11745Y6177D01*
X11390Y6336D02*
X11779Y5947D01*
X11468Y5956D02*
X11717Y6205D01*
X11142Y5797D02*
X11602Y6257D01*
X11142Y6417D02*
X11574Y5985D01*
X11142Y5685D02*
X11689Y6233D01*
X11142Y5741D02*
X11661Y6260D01*
X11193Y8436D02*
X11258Y8371D01*
X11142Y8477D02*
X11569Y8050D01*
X11142Y8358D02*
X11206Y8423D01*
X11142Y8414D02*
X11179Y8451D01*
X11142Y8422D02*
X11538Y8026D01*
X11142Y8302D02*
X11234Y8395D01*
X11142Y8191D02*
X11293Y8342D01*
X11142Y8135D02*
X11330Y8324D01*
X11142Y8247D02*
X11262Y8367D01*
X11142Y8366D02*
X11509Y7998D01*
X11142Y8080D02*
X11374Y8312D01*
X11142Y8024D02*
X11428Y8310D01*
X10146Y8081D02*
X10207Y8020D01*
X10069Y7972D02*
X10207D01*
Y8081D01*
X10108Y8770D02*
X10162D01*
X10108Y8752D02*
X10180D01*
X10088D02*
X10134Y8798D01*
X10032Y8752D02*
X10106Y8826D01*
X9976Y8752D02*
X10078Y8853D01*
X9754Y8752D02*
X9967Y8965D01*
X9809Y8752D02*
X9995Y8937D01*
X9698Y8752D02*
X9939Y8993D01*
X9921Y8752D02*
X10050Y8881D01*
X9865Y8752D02*
X10023Y8909D01*
X10108Y8081D02*
X10207D01*
X10144Y7972D02*
X10207Y8035D01*
X10108Y8099D02*
X10189D01*
X10073D02*
X10199Y7972D01*
X10088D02*
X10196Y8081D01*
X10017Y8099D02*
X10143Y7972D01*
X9961Y8099D02*
X10088Y7972D01*
X11142Y7920D02*
X11441Y7622D01*
X11142Y7578D02*
X11433Y7870D01*
X11142Y8143D02*
X11429Y7856D01*
X11142Y7356D02*
X11432Y7646D01*
X11142Y7411D02*
X11420Y7690D01*
X11142Y8310D02*
X11484Y7968D01*
X11142Y7968D02*
X11484Y8310D01*
X11142Y8255D02*
X11462Y7934D01*
X11142Y7912D02*
X11539Y8310D01*
X11142Y8199D02*
X11443Y7897D01*
X11142Y7077D02*
X11545Y7480D01*
X11142Y7364D02*
X11541Y6964D01*
X11142Y7308D02*
X11498Y6952D01*
X11142Y7252D02*
X11458Y6936D01*
X11142Y7197D02*
X11423Y6916D01*
X11142Y7244D02*
X11467Y7569D01*
X11142Y7300D02*
X11447Y7606D01*
X11142Y7133D02*
X11516Y7507D01*
X11142Y7189D02*
X11490Y7537D01*
X9850Y8099D02*
X9994Y7954D01*
X9903D02*
X10047Y8099D01*
X9847Y7954D02*
X9992Y8099D01*
X9959Y7954D02*
X10103Y8099D01*
X9906D02*
X10050Y7954D01*
X9736D02*
X9880Y8099D01*
X9738D02*
X9883Y7954D01*
X9683Y8099D02*
X9827Y7954D01*
X9794Y8099D02*
X9939Y7954D01*
X9792D02*
X9936Y8099D01*
X11142Y8088D02*
X11419Y7811D01*
X11142Y7976D02*
X11419Y7699D01*
X11142Y8032D02*
X11414Y7759D01*
X11142Y7523D02*
X11417Y7798D01*
X11142Y7085D02*
X11361Y6866D01*
X11142Y7467D02*
X11415Y7740D01*
X10014Y7954D02*
X10141Y8081D01*
X11142Y7141D02*
X11390Y6893D01*
X9587Y9345D02*
X10162Y8770D01*
X9587Y9309D02*
X10125Y8770D01*
X9587Y8974D02*
X9772Y9160D01*
X9587Y9253D02*
X10088Y8752D01*
X9587Y9197D02*
X10032Y8752D01*
X9587Y8863D02*
X9828Y9104D01*
X9587Y8807D02*
X9856Y9076D01*
X9587Y8919D02*
X9800Y9132D01*
X9587Y9142D02*
X9977Y8752D01*
X9587Y9086D02*
X9921Y8752D01*
X9642D02*
X9911Y9021D01*
X9617Y8099D02*
X10108D01*
X9649Y7954D02*
X10069D01*
X9627Y8099D02*
X9772Y7954D01*
X9587Y8752D02*
X10108D01*
X9587Y8974D02*
X9810Y8752D01*
X9587D02*
X9883Y9048D01*
X9587Y9030D02*
X9865Y8752D01*
X9587Y9197D02*
X9661Y9271D01*
X9587Y9141D02*
X9689Y9243D01*
X9587Y9253D02*
X9633Y9299D01*
X9587Y9086D02*
X9716Y9215D01*
X9587Y8917D02*
Y9345D01*
Y9030D02*
X9744Y9188D01*
X9587Y8919D02*
X9754Y8752D01*
X9587Y8917D02*
Y9173D01*
Y8863D02*
X9698Y8752D01*
X9587D02*
Y8917D01*
X9629Y8070D02*
X9658Y8099D01*
X9641Y8026D02*
X9713Y8099D01*
X9587Y8807D02*
X9643Y8752D01*
X9648Y7977D02*
X9769Y8099D01*
X9640Y8030D02*
X9716Y7954D01*
X9568Y8178D02*
Y8524D01*
X9575Y8170D02*
Y8524D01*
X9680Y7954D02*
X9825Y8099D01*
X9562Y7719D02*
X9595Y7686D01*
X9504Y7665D02*
X9595Y7574D01*
X9534Y7691D02*
X9595Y7630D01*
X9436Y7543D02*
X9595Y7702D01*
X9470Y7643D02*
X9595Y7519D01*
X9433Y7625D02*
X9595Y7463D01*
X9455Y7506D02*
X9595Y7646D01*
X9469Y7408D02*
X9595Y7535D01*
X9469Y7353D02*
X9595Y7479D01*
X9469Y7144D02*
X9595Y7017D01*
X9469Y7297D02*
X9595Y7423D01*
X9392Y7610D02*
X9595Y7407D01*
X9466Y7462D02*
X9595Y7591D01*
X9469Y7019D02*
X9595Y7145D01*
X9461Y7485D02*
X9595Y7352D01*
X9469Y7367D02*
X9595Y7240D01*
X9469Y7186D02*
X9595Y7312D01*
X9469Y7422D02*
X9595Y7296D01*
Y6959D02*
Y7764D01*
X9469Y6850D02*
Y7431D01*
X9411Y7574D02*
X9500Y7663D01*
X9379Y7606D02*
X9408Y7577D01*
X9469Y7241D02*
X9595Y7368D01*
X9469Y6963D02*
X9595Y7089D01*
X9469Y7088D02*
X9595Y6962D01*
X9469Y7200D02*
X9595Y7073D01*
X9469Y7033D02*
X9595Y6906D01*
X9469Y6907D02*
X9595Y7034D01*
X9469Y7130D02*
X9595Y7256D01*
X9469Y7311D02*
X9595Y7185D01*
X9469Y7074D02*
X9595Y7201D01*
X9469Y7255D02*
X9595Y7129D01*
X11142Y6131D02*
X11367Y6356D01*
X11142Y6075D02*
X11397Y6330D01*
X11142Y6186D02*
X11340Y6385D01*
X11142Y6362D02*
X11527Y5976D01*
X11142Y6019D02*
X11430Y6308D01*
X11142Y7030D02*
X11335Y6837D01*
X11142Y6974D02*
X11312Y6804D01*
X11142Y6632D02*
X11308Y6798D01*
X11142Y6584D02*
X11336Y6390D01*
X11142Y6242D02*
X11316Y6417D01*
X11142Y6250D02*
X11446Y5945D01*
X11142Y6194D02*
X11412Y5924D01*
X11142Y6139D02*
X11380Y5900D01*
X11142Y6083D02*
X11352Y5873D01*
X11142Y6027D02*
X11327Y5842D01*
X11142Y6306D02*
X11485Y5963D01*
X11142Y5964D02*
X11467Y6289D01*
X11142Y5852D02*
X11552Y6262D01*
X11142Y5908D02*
X11507Y6273D01*
X11142Y6696D02*
X11259Y6579D01*
X11142Y6640D02*
X11273Y6509D01*
X11142Y6521D02*
X11258Y6636D01*
X11142Y6409D02*
X11266Y6534D01*
X11142Y6465D02*
X11258Y6581D01*
X11142Y6918D02*
X11292Y6768D01*
X11142Y6863D02*
X11276Y6729D01*
X11142Y6807D02*
X11264Y6685D01*
X11142Y6576D02*
X11268Y6702D01*
X11142Y6751D02*
X11258Y6635D01*
X11142Y6298D02*
X11296Y6452D01*
X11142Y5972D02*
X11305Y5809D01*
X11142Y6353D02*
X11279Y6491D01*
X11142Y5916D02*
X11286Y5772D01*
X11142Y5860D02*
X11271Y5731D01*
X10246Y5736D02*
X10276Y5766D01*
X10246Y5792D02*
X10276Y5821D01*
X11142Y5805D02*
X11261Y5685D01*
X10246Y5754D02*
X10276Y5724D01*
X11142Y5630D02*
X11288Y5776D01*
X11142Y5574D02*
X11263Y5695D01*
X11142Y5749D02*
X11257Y5634D01*
X11142Y5638D02*
X11283Y5497D01*
X11142Y5693D02*
X11261Y5574D01*
X10246Y5625D02*
X10276Y5654D01*
X10246Y5643D02*
X10276Y5613D01*
X10246Y5698D02*
X10276Y5669D01*
X11142Y5463D02*
X11260Y5581D01*
X11142Y5518D02*
X11257Y5633D01*
X11142Y5351D02*
X11284Y5494D01*
X11142Y5296D02*
X11302Y5456D01*
X11142Y5407D02*
X11270Y5535D01*
X11142Y5073D02*
X11407Y5339D01*
X11142Y5240D02*
X11324Y5422D01*
X10246Y5531D02*
X10276Y5502D01*
X10246Y5513D02*
X10276Y5543D01*
X11142Y5129D02*
X11376Y5363D01*
X11142Y5184D02*
X11349Y5391D01*
X10246Y5420D02*
X10276Y5390D01*
X10246Y5346D02*
X10276Y5376D01*
X10246Y5402D02*
X10276Y5432D01*
X10246Y5291D02*
X10276Y5320D01*
X10246Y5364D02*
X10276Y5335D01*
X10246Y5569D02*
X10276Y5599D01*
X10246Y5587D02*
X10276Y5557D01*
X10246Y5681D02*
X10276Y5710D01*
X10246Y5475D02*
X10276Y5446D01*
X10246Y5458D02*
X10276Y5487D01*
X10246Y5124D02*
X10276Y5153D01*
X10246Y5141D02*
X10276Y5112D01*
X10246Y5197D02*
X10276Y5168D01*
X10246Y5086D02*
X10276Y5056D01*
X10246Y5068D02*
X10276Y5098D01*
X10246Y5235D02*
X10276Y5265D01*
X10246Y5308D02*
X10276Y5279D01*
X10246Y5179D02*
X10276Y5209D01*
X10246Y5253D02*
X10276Y5223D01*
X10189Y6702D02*
X10276Y6615D01*
X10117Y6718D02*
X10276Y6560D01*
X10050Y6674D02*
X10276Y6448D01*
X10085Y6694D02*
X10276Y6504D01*
X10008Y6605D02*
X10276Y6337D01*
X10019Y6538D02*
X10276Y6281D01*
X10010Y6658D02*
X10276Y6392D01*
X9954Y6223D02*
X10276Y6545D01*
X9928Y6254D02*
X10276Y6601D01*
X10041Y6088D02*
X10276Y6323D01*
X10069Y6060D02*
X10276Y6267D01*
X10018Y6483D02*
X10276Y6225D01*
X10125Y6004D02*
X10276Y6155D01*
X10097Y6032D02*
X10276Y6211D01*
X9994Y6152D02*
X10276Y6434D01*
X10010Y6435D02*
X10276Y6170D01*
X9979Y6355D02*
X10276Y6058D01*
X9996Y6393D02*
X10276Y6114D01*
X9595Y6850D02*
Y6959D01*
X10016Y6564D02*
X10170Y6719D01*
X9469Y6977D02*
X9595Y6850D01*
X9523Y6850D02*
X9595Y6922D01*
X9469Y6852D02*
X9595Y6978D01*
X9469Y6850D02*
X9595D01*
X9469Y6921D02*
X9539Y6850D01*
X10006Y6610D02*
X10103Y6707D01*
X10020Y6512D02*
X10200Y6693D01*
X10013Y6116D02*
X10276Y6378D01*
X10013Y6450D02*
X10234Y6670D01*
X9984Y6365D02*
X10271Y6652D01*
X9976Y6190D02*
X10276Y6490D01*
X10206Y5919D02*
X10276Y5988D01*
X10227Y5884D02*
X10276Y5933D01*
X10180Y5949D02*
X10276Y6044D01*
X9932Y6290D02*
X10276Y5947D01*
X10152Y5977D02*
X10276Y6100D01*
X9957Y6321D02*
X10276Y6003D01*
X9973Y6194D02*
X10276Y5891D01*
X10004Y6125D02*
X10185Y5943D01*
X10227Y5885D02*
X10276Y5836D01*
X10246Y5810D02*
X10276Y5780D01*
X10241Y5843D02*
X10276Y5877D01*
X9833Y5199D02*
Y5231D01*
X9685Y5197D02*
X9757D01*
X8993D02*
X9685D01*
X9634D02*
X9661Y5170D01*
X8071Y5176D02*
X8250Y5355D01*
X9016Y5174D02*
X9039Y5197D01*
X8071Y5231D02*
X8222Y5383D01*
X8071Y5064D02*
X8306Y5299D01*
X8071Y5120D02*
X8278Y5327D01*
X8071Y5398D02*
X8139Y5466D01*
X8071Y5454D02*
X8111Y5494D01*
X8071Y5287D02*
X8195Y5411D01*
X8071Y5343D02*
X8167Y5439D01*
X9523Y5197D02*
X9590Y5129D01*
X9578Y5197D02*
X9624Y5151D01*
X9467Y5197D02*
X9560Y5104D01*
X9411Y5197D02*
X9532Y5076D01*
X9355Y5197D02*
X9508Y5044D01*
X9072Y5118D02*
X9150Y5197D01*
X9044Y5146D02*
X9094Y5197D01*
X9127Y5063D02*
X9261Y5197D01*
X9099Y5091D02*
X9206Y5197D01*
X12903Y4996D02*
X14577Y6671D01*
X12947Y4985D02*
X14577Y6615D01*
X12903Y4996D02*
X14577Y6671D01*
X13023Y4949D02*
X14577Y6504D01*
X12987Y4969D02*
X14577Y6559D01*
X12853Y5002D02*
X13373Y5522D01*
X12653Y5519D02*
X13368Y4804D01*
X12597Y5519D02*
X13339Y4777D01*
X12541Y5519D02*
X13314Y4746D01*
X12486Y5519D02*
X13292Y4713D01*
X13184Y4721D02*
X13322Y4859D01*
X13172Y4764D02*
X13301Y4894D01*
X13191Y4672D02*
X13347Y4828D01*
X13191Y4616D02*
X13299Y4724D01*
X12796Y5001D02*
X13314Y5519D01*
X12708D02*
X13280Y4947D01*
X13055Y4927D02*
X13291Y5162D01*
X13155Y4804D02*
X13285Y4933D01*
X12764Y5519D02*
X13267Y5016D01*
X13085Y4900D02*
X13269Y5085D01*
X12725Y4986D02*
X13258Y5519D01*
X13112Y4871D02*
X13266Y5026D01*
X12526Y5010D02*
X13035Y5519D01*
X12554Y4982D02*
X13091Y5519D01*
X12416Y5533D02*
X12974Y4975D01*
X12610Y4926D02*
X13202Y5519D01*
X12582Y4954D02*
X13147Y5519D01*
X13187Y4706D02*
X13259Y4634D01*
X13178Y4548D02*
X13258Y4628D01*
X13192Y4645D02*
X13250Y4587D01*
X13178Y4548D02*
X13257Y4469D01*
X13188Y4594D02*
X13248Y4533D01*
X13164Y4785D02*
X13273Y4675D01*
X13135Y4839D02*
X13272Y4976D01*
X13145Y4469D02*
X14695Y2920D01*
X13098Y4405D02*
X14590Y2913D01*
X13039Y4353D02*
X14478Y2913D01*
X13124Y4435D02*
X14695Y2864D01*
X13070Y4377D02*
X14534Y2913D01*
X12925Y4300D02*
X14311Y2913D01*
X12762Y4296D02*
X14144Y2913D01*
X12677Y4325D02*
X14089Y2913D01*
X13005Y4331D02*
X14423Y2913D01*
X12967Y4314D02*
X14367Y2913D01*
X13095Y2906D02*
X14402Y4213D01*
X13179Y2822D02*
X14569Y4213D01*
X13067Y2934D02*
X14346Y4213D01*
X13234Y2767D02*
X14695Y4227D01*
X13206Y2795D02*
X14693Y4281D01*
X12956Y3045D02*
X14123Y4213D01*
X12928Y3073D02*
X14068Y4213D01*
X12878Y4291D02*
X14256Y2913D01*
X12825Y4289D02*
X14200Y2913D01*
X13129Y4444D02*
X13248Y4563D01*
X13164Y4507D02*
X13297Y4374D01*
X12483Y3518D02*
X13313Y4349D01*
X12371Y3630D02*
X13250Y4509D01*
X12399Y3602D02*
X13259Y4462D01*
X12343Y3658D02*
X13037Y4351D01*
X12455Y3546D02*
X13291Y4383D01*
X12427Y3574D02*
X13273Y4420D01*
X12733Y3268D02*
X13678Y4213D01*
X12761Y3240D02*
X13733Y4213D01*
X12594Y3407D02*
X13415Y4229D01*
X12872Y3129D02*
X13956Y4213D01*
X12844Y3157D02*
X13901Y4213D01*
X12510Y3491D02*
X13338Y4319D01*
X12315Y3685D02*
X12932Y4302D01*
X12566Y3435D02*
X13399Y4268D01*
X12538Y3463D02*
X13367Y4291D01*
X11931Y5795D02*
X12737Y4989D01*
X11963Y5707D02*
X12696Y4975D01*
X11971Y5643D02*
X12658Y4956D01*
X11969Y5590D02*
X12624Y4935D01*
X11966Y5570D02*
X12612Y4925D01*
X11579Y6259D02*
X12834Y5003D01*
X11635Y6258D02*
X12895Y4998D01*
X11509Y6273D02*
X12782Y4999D01*
X11674Y5278D02*
X12452Y4500D01*
X11647Y4354D02*
X12123Y4829D01*
X11814Y4187D02*
X12290Y4662D01*
X11842Y4159D02*
X12318Y4634D01*
X11787Y4214D02*
X12262Y4690D01*
X11898Y4103D02*
X12373Y4578D01*
X11870Y4131D02*
X12345Y4606D01*
X11703Y4298D02*
X12178Y4773D01*
X11675Y4326D02*
X12151Y4801D01*
X11759Y4242D02*
X12234Y4718D01*
X11731Y4270D02*
X12206Y4746D01*
X11285Y4716D02*
X11761Y5191D01*
X11313Y4688D02*
X11789Y5163D01*
X11258Y4743D02*
X11733Y5219D01*
X11369Y4632D02*
X11844Y5107D01*
X11341Y4660D02*
X11817Y5135D01*
X11146Y4855D02*
X11567Y5276D01*
X11174Y4827D02*
X11620Y5273D01*
X11142Y4906D02*
X11521Y5285D01*
X11230Y4771D02*
X11705Y5247D01*
X11202Y4799D02*
X11677Y5274D01*
X11536Y4465D02*
X12011Y4940D01*
X11564Y4437D02*
X12039Y4913D01*
X11508Y4493D02*
X11984Y4968D01*
X11620Y4381D02*
X12095Y4857D01*
X11592Y4409D02*
X12067Y4885D01*
X11425Y4576D02*
X11900Y5052D01*
X11397Y4604D02*
X11872Y5080D01*
X11480Y4521D02*
X11956Y4996D01*
X11452Y4548D02*
X11928Y5024D01*
X11481Y5298D02*
X13866Y2913D01*
X11558Y5277D02*
X13922Y2913D01*
X11142Y5471D02*
X13699Y2913D01*
X11669Y5277D02*
X14033Y2913D01*
X11618Y5273D02*
X13977Y2913D01*
X11142Y5415D02*
X13643Y2913D01*
X11142Y5359D02*
X13588Y2913D01*
X11142Y5304D02*
X13532Y2913D01*
X11142Y5582D02*
X13810Y2913D01*
X11142Y5526D02*
X13755Y2913D01*
X11142Y5025D02*
X13349Y2818D01*
X11142Y4970D02*
X13322Y2789D01*
X12288Y3713D02*
X12864Y4290D01*
X11142Y4914D02*
X13290Y2766D01*
X11142Y4859D02*
X13235Y2766D01*
X11142Y5248D02*
X13476Y2913D01*
X11142Y5192D02*
X13421Y2913D01*
X11142Y5137D02*
X13412Y2866D01*
X11142Y5081D02*
X13379Y2844D01*
X11954Y4047D02*
X12429Y4523D01*
X11954Y4047D02*
X12429Y4523D01*
X11926Y4075D02*
X12401Y4551D01*
X12009Y3992D02*
X12488Y4471D01*
X11981Y4020D02*
X12457Y4495D01*
X9468Y4638D02*
X11696Y2411D01*
X9469Y4527D02*
X11584Y2411D01*
X9469Y4471D02*
X11528Y2411D01*
X9636Y4527D02*
X11751Y2411D01*
X9469Y4583D02*
X11640Y2411D01*
X12176Y3825D02*
X12677Y4325D01*
X12204Y3797D02*
X12716Y4309D01*
X12148Y3853D02*
X12641Y4345D01*
X12260Y3741D02*
X12808Y4289D01*
X12232Y3769D02*
X12759Y4296D01*
X12065Y3936D02*
X12554Y4425D01*
X12037Y3964D02*
X12526Y4452D01*
X12121Y3880D02*
X12609Y4369D01*
X12093Y3908D02*
X12580Y4395D01*
X13011Y2989D02*
X14235Y4213D01*
X13039Y2962D02*
X14290Y4213D01*
X12984Y3017D02*
X14179Y4213D01*
X13151Y2850D02*
X14513Y4213D01*
X13123Y2878D02*
X14457Y4213D01*
X12705Y3296D02*
X13622Y4213D01*
X12789Y3212D02*
X13789Y4213D01*
X12677Y3324D02*
X13566Y4213D01*
X12900Y3101D02*
X14012Y4213D01*
X12817Y3184D02*
X13845Y4213D01*
X12650Y3351D02*
X13511Y4213D01*
X13289Y2766D02*
X13415Y2892D01*
X13235Y2766D02*
X13305D01*
X12622Y3379D02*
X13455Y4213D01*
X12439Y1690D02*
X13186Y943D01*
X11821Y2133D02*
X12026Y2338D01*
X11821Y2077D02*
X12054Y2311D01*
X11821Y2189D02*
X11999Y2366D01*
X11821Y2342D02*
X12384Y1779D01*
X11821Y1855D02*
X12166Y2199D01*
X11821Y2356D02*
X11915Y2450D01*
X11821Y2300D02*
X11943Y2422D01*
X11821Y2411D02*
X11887Y2478D01*
X11821Y2397D02*
X12372Y1846D01*
X11821Y2244D02*
X11971Y2394D01*
X11821Y1632D02*
X12277Y2088D01*
X12372Y1850D02*
Y1993D01*
X11821Y1688D02*
X12249Y2116D01*
X11821Y1520D02*
X12333Y2032D01*
X11821Y1576D02*
X12305Y2060D01*
X11821Y1409D02*
X12372Y1960D01*
X11821Y1465D02*
X12360Y2004D01*
X11821Y1298D02*
X12372Y1849D01*
X11821Y1353D02*
X12372Y1905D01*
X13275Y888D02*
X13344Y818D01*
X12669Y197D02*
X13342Y870D01*
X12613Y197D02*
X13297Y881D01*
X11821Y2286D02*
X13320Y787D01*
X11821Y2175D02*
X13283Y712D01*
X11821Y2119D02*
X13272Y668D01*
X11821Y1896D02*
X13520Y197D01*
X11821Y1952D02*
X13295Y478D01*
X13114Y197D02*
X13333Y416D01*
X13170Y197D02*
X13359Y386D01*
X13058Y197D02*
X13310Y449D01*
X13281Y197D02*
X13422Y338D01*
X13225Y197D02*
X13389Y360D01*
X12724Y197D02*
X13336Y808D01*
X12780Y197D02*
X13278Y694D01*
X13003Y197D02*
X13292Y486D01*
X12947Y197D02*
X13277Y527D01*
X12001Y197D02*
X12966Y1163D01*
X12056Y197D02*
X12994Y1135D01*
X11945Y197D02*
X12938Y1190D01*
X12168Y197D02*
X13050Y1079D01*
X12112Y197D02*
X13022Y1107D01*
X11821Y2063D02*
X13266Y618D01*
X11821Y2008D02*
X13270Y558D01*
X11889Y197D02*
X12910Y1218D01*
X11833Y197D02*
X12883Y1246D01*
X11821Y197D02*
Y2411D01*
X12502Y197D02*
X13220Y915D01*
X12557Y197D02*
X13256Y895D01*
X12446Y197D02*
X13189Y940D01*
X12891Y197D02*
X13268Y574D01*
X12836Y197D02*
X13267Y628D01*
X12279Y197D02*
X13105Y1023D01*
X12223Y197D02*
X13078Y1051D01*
X12390Y197D02*
X13161Y968D01*
X12335Y197D02*
X13133Y995D01*
X11821Y1743D02*
X12221Y2144D01*
X11821Y1242D02*
X12378Y1799D01*
X11821Y1799D02*
X12193Y2171D01*
X11821Y2230D02*
X13300Y752D01*
X11821Y1075D02*
X12437Y1691D01*
X11516Y2758D02*
X12372Y1902D01*
X11577Y2753D02*
X12372Y1958D01*
X11610Y2755D02*
X12372Y1993D01*
X11821Y1131D02*
X12412Y1722D01*
X11821Y1186D02*
X12392Y1758D01*
X11821Y741D02*
X12604Y1524D01*
X11821Y685D02*
X12632Y1497D01*
X11821Y797D02*
X12576Y1552D01*
X11821Y574D02*
X12688Y1441D01*
X11821Y630D02*
X12660Y1469D01*
X11821Y964D02*
X12493Y1636D01*
X11821Y1019D02*
X12465Y1664D01*
X11821Y852D02*
X12549Y1580D01*
X11821Y908D02*
X12521Y1608D01*
X11438Y2780D02*
X11807Y2411D01*
X11431D02*
X11692Y2673D01*
X11376Y2411D02*
X11665Y2700D01*
X11543Y2411D02*
X11748Y2617D01*
X11487Y2411D02*
X11720Y2645D01*
X11320Y2411D02*
X11637Y2728D01*
X11264Y2411D02*
X11607Y2754D01*
X11208Y2411D02*
X11551Y2754D01*
X11153Y2411D02*
X11502Y2760D01*
X11765Y2411D02*
X11859Y2506D01*
X11821Y2022D02*
X12082Y2283D01*
X11751Y2411D02*
X11821Y2342D01*
Y1910D02*
X12138Y2227D01*
X11821Y1966D02*
X12110Y2255D01*
X9954Y2411D02*
X11821D01*
X11598D02*
X11776Y2589D01*
X11710Y2411D02*
X11832Y2533D01*
X11654Y2411D02*
X11804Y2561D01*
X11821Y1451D02*
X13075Y197D01*
X11821Y1395D02*
X13019Y197D01*
X11821Y463D02*
X12743Y1385D01*
X11821Y1562D02*
X13186Y197D01*
X11821Y1507D02*
X13131Y197D01*
X11821Y1841D02*
X13465Y197D01*
X11821Y1785D02*
X13409Y197D01*
X11821Y1729D02*
X13353Y197D01*
X11821Y1674D02*
X13298Y197D01*
X11821Y1618D02*
X13242Y197D01*
X11821Y240D02*
X12855Y1274D01*
X11821Y197D02*
X15551D01*
X11821Y1173D02*
X12797Y197D01*
X11821Y1284D02*
X12908Y197D01*
X11821Y1228D02*
X12852Y197D01*
X11821Y351D02*
X12799Y1330D01*
X11821Y407D02*
X12771Y1357D01*
X11821Y1340D02*
X12964Y197D01*
X11821Y296D02*
X12827Y1302D01*
X11821Y950D02*
X12574Y197D01*
X11821Y894D02*
X12518Y197D01*
X11821Y838D02*
X12462Y197D01*
X11821Y783D02*
X12407Y197D01*
X11821Y727D02*
X12351Y197D01*
X11821Y1117D02*
X12741Y197D01*
X11821Y518D02*
X12716Y1413D01*
X11821Y1061D02*
X12685Y197D01*
X11821Y1005D02*
X12629Y197D01*
X11821Y449D02*
X12073Y197D01*
X11821Y393D02*
X12017Y197D01*
X11821Y337D02*
X11961Y197D01*
X11821Y282D02*
X11906Y197D01*
X11821Y226D02*
X11850Y197D01*
X11821Y671D02*
X12295Y197D01*
X11821Y616D02*
X12240Y197D01*
X11821Y560D02*
X12184Y197D01*
X11821Y504D02*
X12128Y197D01*
X11142Y5017D02*
X11442Y5317D01*
X10246Y5012D02*
X10276Y5042D01*
X10246Y5030D02*
X10276Y5001D01*
X11142Y4962D02*
X11479Y5299D01*
X11142Y4859D02*
Y8520D01*
X10246Y4974D02*
X10276Y4945D01*
X10242Y4922D02*
X10276Y4889D01*
X10246Y4957D02*
X10276Y4986D01*
X10230Y4880D02*
X10276Y4834D01*
X10233Y4888D02*
X10276Y4931D01*
X10184Y4813D02*
X10276Y4722D01*
X10157Y4786D02*
X10276Y4667D01*
X10210Y4844D02*
X10276Y4778D01*
X10146Y4741D02*
X10276Y4611D01*
X10147Y4747D02*
X10276Y4875D01*
X10090Y4629D02*
X10285Y4435D01*
X10131Y4700D02*
X10276Y4555D01*
X10246Y4961D02*
Y5797D01*
X10276Y4498D02*
Y6649D01*
X10156Y4785D02*
X10185Y4814D01*
X9378Y4812D02*
X9448Y4883D01*
X10100Y4643D02*
X10276Y4819D01*
X9406Y4784D02*
X9446Y4825D01*
X9469Y4569D02*
X9522Y4622D01*
X9469Y4513D02*
X9548Y4593D01*
X9469Y4625D02*
X9499Y4655D01*
X10112Y4663D02*
X10276Y4499D01*
X9469Y4346D02*
X9645Y4522D01*
X9456Y4707D02*
X9488Y4675D01*
X9469Y4402D02*
X9609Y4543D01*
X9469Y4458D02*
X9577Y4566D01*
X10065Y4599D02*
X11312Y3352D01*
X10036Y4572D02*
X11287Y3321D01*
X10005Y4548D02*
X11265Y3288D01*
X9970Y4527D02*
X11246Y3250D01*
X9932Y4509D02*
X11232Y3209D01*
X9889Y4496D02*
X11222Y3164D01*
X9788Y4486D02*
X11222Y3052D01*
X9842Y4487D02*
X11218Y3112D01*
X9469Y4416D02*
X11473Y2411D01*
X9724Y4494D02*
X11245Y2974D01*
X9641Y3406D02*
X10458Y4222D01*
X9697Y3406D02*
X10486Y4194D01*
X9586Y3406D02*
X10430Y4250D01*
X10342Y4338D02*
X11320Y3360D01*
X9753Y3406D02*
X10514Y4166D01*
X9469Y4249D02*
X11306Y2411D01*
X9469Y4193D02*
X11250Y2411D01*
X9469Y4360D02*
X11417Y2411D01*
X9469Y4304D02*
X11361Y2411D01*
X9469Y4068D02*
X9899Y4498D01*
X9469Y4235D02*
X9727Y4493D01*
X9469Y4291D02*
X9684Y4506D01*
X9469Y3734D02*
X10276Y4541D01*
X9469Y4012D02*
X10002Y4546D01*
X9469Y3901D02*
X10276Y4708D01*
X9469Y3845D02*
X10276Y4652D01*
X9469Y3956D02*
X10276Y4764D01*
X9469Y3789D02*
X10276Y4596D01*
X9469Y3406D02*
Y4636D01*
Y3511D02*
X10320Y4363D01*
X9469Y3455D02*
X10347Y4333D01*
X9469Y3567D02*
X10299Y4397D01*
X9530Y3406D02*
X10402Y4278D01*
X9474Y3406D02*
X10374Y4306D01*
X9469Y4123D02*
X9831Y4486D01*
X9469Y4179D02*
X9776Y4486D01*
X9469Y3622D02*
X10284Y4438D01*
X9469Y3678D02*
X10276Y4485D01*
X9239Y4951D02*
X9484Y5197D01*
X9300D02*
X9487Y5009D01*
X9244Y5197D02*
X9470Y4971D01*
X9322Y4868D02*
X9651Y5197D01*
X9294Y4896D02*
X9595Y5197D01*
X8071Y5424D02*
X9055Y4439D01*
X9188Y5197D02*
X9456Y4929D01*
X8071Y5368D02*
X9055Y4384D01*
X8071Y5201D02*
X9055Y4217D01*
X8071Y5312D02*
X9055Y4328D01*
X9183Y5007D02*
X9373Y5197D01*
X9211Y4979D02*
X9428Y5197D01*
X9155Y5035D02*
X9317Y5197D01*
X9266Y4924D02*
X9540Y5197D01*
X9350Y4840D02*
X9464Y4954D01*
X9133Y5197D02*
X9448Y4882D01*
X9077Y5197D02*
X9446Y4828D01*
X9021Y5197D02*
X9455Y4764D01*
X8993Y5197D02*
X9408Y4782D01*
X8071Y4842D02*
X8417Y5188D01*
X8071Y4786D02*
X8445Y5160D01*
X8071Y4897D02*
X8389Y5216D01*
X8071Y4675D02*
X8501Y5105D01*
X8071Y4730D02*
X8473Y5132D01*
X8071Y5534D02*
X9055Y4550D01*
X8071Y4953D02*
X8362Y5244D01*
X8071Y5009D02*
X8334Y5272D01*
X8071Y5257D02*
X9055Y4272D01*
X8071Y5479D02*
X9055Y4495D01*
X8071Y4340D02*
X8668Y4937D01*
X8071Y4285D02*
X8696Y4910D01*
X8071Y4396D02*
X8640Y4965D01*
X8071Y4173D02*
X8751Y4854D01*
X8071Y4229D02*
X8724Y4882D01*
X8071Y4563D02*
X8556Y5049D01*
X8071Y4619D02*
X8529Y5077D01*
X8071Y4452D02*
X8612Y4993D01*
X8071Y4508D02*
X8584Y5021D01*
X8071Y4811D02*
X9055Y3827D01*
X8071Y4755D02*
X9055Y3771D01*
X8071Y4867D02*
X9055Y3883D01*
X8071Y4644D02*
X9055Y3660D01*
X8071Y4700D02*
X9055Y3716D01*
X8071Y5090D02*
X9055Y4105D01*
X8071Y5034D02*
X9055Y4050D01*
X8071Y5145D02*
X9055Y4161D01*
X8071Y4922D02*
X9055Y3938D01*
X8071Y4978D02*
X9055Y3994D01*
X8071Y3561D02*
X9055Y4545D01*
X8071Y4533D02*
X9055Y3549D01*
X8071Y4588D02*
X9055Y3604D01*
Y3406D02*
Y4550D01*
X8071Y3505D02*
X9055Y4490D01*
X8071Y3338D02*
X9055Y4323D01*
X8071Y3394D02*
X9055Y4378D01*
X8071Y3227D02*
X9055Y4211D01*
X8071Y3283D02*
X9055Y4267D01*
X8071Y3839D02*
X8918Y4687D01*
X8071Y3784D02*
X8946Y4659D01*
X8071Y3895D02*
X8891Y4715D01*
X8071Y3672D02*
X9002Y4603D01*
X8071Y3728D02*
X8974Y4631D01*
X8071Y4062D02*
X8807Y4798D01*
X8071Y4006D02*
X8835Y4770D01*
X8071Y4118D02*
X8779Y4826D01*
X8071Y3951D02*
X8863Y4743D01*
X8071Y2411D02*
Y5534D01*
Y4366D02*
X9031Y3406D01*
X8071Y4310D02*
X8975Y3406D01*
X8071Y4254D02*
X8920Y3406D01*
X8071Y3171D02*
X9055Y4156D01*
X8071Y4199D02*
X8864Y3406D01*
X8071Y4477D02*
X9055Y3493D01*
X8071Y3617D02*
X9030Y4576D01*
X8071Y4421D02*
X9055Y3437D01*
X8071Y3450D02*
X9055Y4434D01*
X10008Y3159D02*
X10764Y3916D01*
X10017Y3113D02*
X10792Y3888D01*
X9993Y3201D02*
X10736Y3944D01*
X10011Y2996D02*
X10848Y3832D01*
X10020Y3060D02*
X10820Y3860D01*
X9975Y3238D02*
X10708Y3971D01*
X9975Y2904D02*
X10875Y3804D01*
X9953Y3272D02*
X10681Y3999D01*
X9944Y2761D02*
X10931Y3749D01*
X9919Y2792D02*
X10903Y3777D01*
X9999Y2538D02*
X11070Y3610D01*
X10318Y2411D02*
X11293Y3387D01*
X10001Y2596D02*
X11042Y3637D01*
X10151Y2411D02*
X11210Y3470D01*
X10095Y2411D02*
X11182Y3498D01*
X9982Y2688D02*
X10987Y3693D01*
X9965Y2727D02*
X10959Y3721D01*
X9980Y2463D02*
X11098Y3582D01*
X9995Y2645D02*
X11015Y3665D01*
X9852Y3394D02*
X10569Y4111D01*
X9866Y3352D02*
X10597Y4083D01*
X9808Y3406D02*
X10541Y4138D01*
X9927Y3302D02*
X10653Y4027D01*
X9899Y3329D02*
X10625Y4055D01*
X9469Y3748D02*
X9811Y3406D01*
X9469Y3692D02*
X9755Y3406D01*
X9469Y3469D02*
X9532Y3406D01*
X9469Y3525D02*
X9588Y3406D01*
X9852Y3361D02*
Y3406D01*
X9831Y3372D02*
X9852Y3394D01*
X9685Y3406D02*
X9852D01*
X9469D02*
X9685D01*
X9811D02*
X9852Y3364D01*
X10373Y2411D02*
X11298Y3336D01*
X10429Y2411D02*
X11234Y3216D01*
X10485Y2411D02*
X11219Y3146D01*
X10596Y2411D02*
X11225Y3040D01*
X10540Y2411D02*
X11218Y3089D01*
X9469Y4137D02*
X11194Y2411D01*
X10206D02*
X11237Y3442D01*
X10039Y2411D02*
X11154Y3526D01*
X10318Y2411D02*
X11293Y3387D01*
X10262Y2411D02*
X11265Y3415D01*
X10930Y2411D02*
X11351Y2832D01*
X10986Y2411D02*
X11383Y2809D01*
X10874Y2411D02*
X11321Y2858D01*
X11097Y2411D02*
X11458Y2773D01*
X11041Y2411D02*
X11419Y2789D01*
X10707Y2411D02*
X11252Y2956D01*
X10652Y2411D02*
X11236Y2996D01*
X10819Y2411D02*
X11295Y2888D01*
X10763Y2411D02*
X11272Y2920D01*
X10010Y3150D02*
X10749Y2411D01*
X10008Y2985D02*
X10582Y2411D01*
X9994Y2943D02*
X10526Y2411D01*
X10019Y3085D02*
X10693Y2411D01*
X10017Y3032D02*
X10638Y2411D01*
X9469Y4026D02*
X11083Y2411D01*
X9469Y3915D02*
X10972Y2411D01*
X9970Y3246D02*
X10805Y2411D01*
X9984D02*
X11126Y3554D01*
X9976Y2906D02*
X10471Y2411D01*
X9988Y2672D02*
X10248Y2411D01*
X9992Y2501D02*
X10081Y2411D01*
X9978Y2459D02*
X10025Y2411D01*
X10001Y2603D02*
X10192Y2411D01*
X10000Y2548D02*
X10137Y2411D01*
X9929Y2842D02*
X10359Y2411D01*
X9900Y2815D02*
X10304Y2411D01*
X9954Y2872D02*
X10415Y2411D01*
X8071Y2949D02*
X9055Y3933D01*
X8695Y3406D02*
X9055Y3766D01*
X8751Y3406D02*
X9055Y3710D01*
X8071Y2837D02*
X9055Y3821D01*
X8071Y2893D02*
X9055Y3877D01*
X8071Y4143D02*
X8808Y3406D01*
X8071Y3116D02*
X9055Y4100D01*
X8071Y4087D02*
X8753Y3406D01*
X8071Y3004D02*
X9055Y3988D01*
X8071Y3060D02*
X9055Y4044D01*
X8973Y3406D02*
X9055Y3487D01*
X9029Y3406D02*
X9055Y3432D01*
X8918Y3406D02*
X9055Y3543D01*
X9469Y3636D02*
X9699Y3406D01*
X9469Y3581D02*
X9644Y3406D01*
X8862D02*
X9055Y3599D01*
X8806Y3406D02*
X9055Y3654D01*
X8671Y3406D02*
X9055D01*
X8671Y3326D02*
X8751Y3406D01*
X8071Y3698D02*
X8671Y3097D01*
X8071Y3642D02*
X8671Y3042D01*
X8071Y3753D02*
X8671Y3153D01*
X8071Y3531D02*
X8671Y2930D01*
X8071Y3586D02*
X8671Y2986D01*
X8071Y4032D02*
X8697Y3406D01*
X8071Y3976D02*
X8671Y3376D01*
X8071Y3920D02*
X8671Y3320D01*
X8071Y3809D02*
X8671Y3209D01*
X8071Y3865D02*
X8671Y3264D01*
X8071Y3475D02*
X8671Y2874D01*
Y3382D02*
X8695Y3406D01*
X8071Y3419D02*
X8671Y2819D01*
Y2736D02*
Y3406D01*
X8071Y2782D02*
X8671Y3382D01*
X8071Y2726D02*
X8671Y3326D01*
X8071Y3364D02*
X8671Y2763D01*
X8071Y3308D02*
X8689Y2689D01*
X8071Y2670D02*
X8671Y3271D01*
X9469Y4082D02*
X11139Y2411D01*
X9469Y3970D02*
X11027Y2411D01*
X8071Y3252D02*
X8689Y2634D01*
X9469Y3859D02*
X10916Y2411D01*
X9469Y3803D02*
X10860Y2411D01*
X8071Y3141D02*
X8689Y2522D01*
X8071Y3085D02*
X8689Y2467D01*
X8071Y3196D02*
X8689Y2578D01*
X8071Y3029D02*
X8689Y2411D01*
X8071Y2447D02*
X8671Y3048D01*
X8689Y2411D02*
Y2736D01*
X8647Y2411D02*
X8689Y2453D01*
X8592Y2411D02*
X8689Y2509D01*
X8536Y2411D02*
X8689Y2565D01*
X8369Y2411D02*
X8689Y2732D01*
X8071Y2411D02*
X8689D01*
X8480D02*
X8689Y2621D01*
X8425Y2411D02*
X8689Y2676D01*
X8071Y2503D02*
X8671Y3104D01*
X8091Y2411D02*
X8671Y2992D01*
X8071Y2559D02*
X8671Y3159D01*
X8202Y2411D02*
X8671Y2881D01*
X8146Y2411D02*
X8671Y2936D01*
X8071Y2614D02*
X8671Y3215D01*
X8071Y2862D02*
X8522Y2411D01*
X8071Y2974D02*
X8633Y2411D01*
X8071Y2918D02*
X8578Y2411D01*
X8071Y2807D02*
X8466Y2411D01*
X8071Y2751D02*
X8411Y2411D01*
X8071Y2695D02*
X8355Y2411D01*
X8313D02*
X8671Y2769D01*
X8258Y2411D02*
X8671Y2825D01*
X8071Y2640D02*
X8299Y2411D01*
X8071Y2584D02*
X8243Y2411D01*
X8071Y2528D02*
X8188Y2411D01*
X8071Y2473D02*
X8132Y2411D01*
X7242Y15551D02*
X7677Y15116D01*
X7186Y15551D02*
X7677Y15060D01*
X7464Y15551D02*
X7677Y15338D01*
X7409Y15551D02*
X7677Y15283D01*
X6852Y15551D02*
X7677Y14726D01*
X6796Y15551D02*
X7677Y14670D01*
X6907Y15551D02*
X7677Y14781D01*
X6629Y15551D02*
X7677Y14503D01*
X6573Y15551D02*
X7677Y14447D01*
X6740Y15551D02*
X7677Y14614D01*
X6685Y15551D02*
X7677Y14559D01*
X6462Y15551D02*
X7677Y14336D01*
X6406Y15551D02*
X7677Y14280D01*
X6518Y15551D02*
X7677Y14392D01*
X7520Y15551D02*
X7677Y15394D01*
X7353Y15551D02*
X7677Y15227D01*
X7631Y15551D02*
X7677Y15505D01*
X7576Y15551D02*
X7677Y15450D01*
X7130Y15551D02*
X7677Y15004D01*
X7074Y15551D02*
X7677Y14949D01*
X7297Y15551D02*
X7677Y15171D01*
X6963Y15551D02*
X7677Y14837D01*
X6418Y13267D02*
X7677Y14526D01*
X7019Y15551D02*
X7677Y14893D01*
X6474Y13211D02*
X7677Y14414D01*
X6502Y13183D02*
X7677Y14359D01*
X6446Y13239D02*
X7677Y14470D01*
X6752Y12933D02*
X7677Y13857D01*
X6780Y12905D02*
X7677Y13802D01*
X6697Y12988D02*
X7677Y13969D01*
X6724Y12960D02*
X7677Y13913D01*
X6875Y12888D02*
X7677Y13690D01*
X6930Y12888D02*
X7677Y13635D01*
X6819Y12888D02*
X7677Y13746D01*
X6557Y13127D02*
X7677Y14247D01*
X6585Y13100D02*
X7677Y14191D01*
X6530Y13155D02*
X7677Y14303D01*
X6641Y13044D02*
X7677Y14080D01*
X6669Y13016D02*
X7677Y14024D01*
X6613Y13072D02*
X7677Y14136D01*
X7264Y12888D02*
X7677Y13301D01*
X7376Y12888D02*
X7677Y13189D01*
X7431Y12888D02*
X7677Y13134D01*
X7487Y12888D02*
X7677Y13078D01*
X7320Y12888D02*
X7677Y13245D01*
X7490Y12835D02*
X7677Y13022D01*
X7455Y12888D02*
X7490Y12853D01*
X6986Y12888D02*
X7677Y13579D01*
X7042Y12888D02*
X7677Y13523D01*
X6797Y12888D02*
X7490D01*
X7153D02*
X7677Y13412D01*
X7209Y12888D02*
X7677Y13356D01*
X7097Y12888D02*
X7677Y13468D01*
X7490Y12501D02*
X7677Y12688D01*
X7490Y12686D02*
X7677Y12499D01*
X7490Y12557D02*
X7677Y12744D01*
X7490Y12741D02*
X7677Y12554D01*
X7490Y12630D02*
X7677Y12443D01*
X7490Y12390D02*
X7677Y12577D01*
X7490Y12445D02*
X7677Y12633D01*
X7490Y12724D02*
X7677Y12911D01*
X7490Y12668D02*
X7677Y12855D01*
X7490Y12780D02*
X7677Y12967D01*
X7490Y12613D02*
X7677Y12800D01*
X7490Y12797D02*
X7677Y12610D01*
X7490Y12853D02*
X7677Y12666D01*
X7490Y12519D02*
X7677Y12332D01*
X7490Y12278D02*
X7677Y12465D01*
X7490Y12574D02*
X7677Y12387D01*
X7490Y12334D02*
X7677Y12521D01*
X7490Y12463D02*
X7677Y12276D01*
X7490Y12407D02*
X7677Y12220D01*
X7490Y12167D02*
X7677Y12354D01*
X7490Y12223D02*
X7677Y12410D01*
X7481Y12103D02*
X7677Y12298D01*
X7490Y12296D02*
X7677Y12109D01*
X7490Y12352D02*
X7677Y12165D01*
X7492Y12002D02*
X7677Y12187D01*
X7520Y11974D02*
X7677Y12131D01*
X7490Y12159D02*
Y12888D01*
Y12240D02*
X7677Y12053D01*
Y11805D02*
Y15551D01*
X7575Y11918D02*
X7677Y12020D01*
X7547Y11946D02*
X7677Y12076D01*
X7399Y12888D02*
X7490Y12797D01*
X7489Y12054D02*
X7677Y12243D01*
X7467Y12152D02*
X7677Y11942D01*
X7486Y12077D02*
X7677Y11886D01*
X7490Y12185D02*
X7677Y11998D01*
X7603Y11890D02*
X7677Y11964D01*
X7631Y11862D02*
X7677Y11909D01*
X7490Y12018D02*
X7677Y11831D01*
X7490Y12004D02*
X7640Y11853D01*
X6740Y9817D02*
X6775Y9782D01*
X6628Y9817D02*
X6748Y9697D01*
X6684Y9817D02*
X6770Y9731D01*
X6573Y9817D02*
X6729Y9660D01*
X6461Y9817D02*
X6705Y9574D01*
X6517Y9817D02*
X6715Y9619D01*
X6406Y9817D02*
X6701Y9522D01*
X6239Y15551D02*
X7677Y14113D01*
X6184Y15551D02*
X7677Y14058D01*
X6351Y15551D02*
X7677Y14225D01*
X6295Y15551D02*
X7677Y14169D01*
X6072Y15551D02*
X7677Y13946D01*
X6017Y15551D02*
X7677Y13891D01*
X6128Y15551D02*
X7677Y14002D01*
X5850Y15551D02*
X7677Y13724D01*
X5794Y15551D02*
X7677Y13668D01*
X5961Y15551D02*
X7677Y13835D01*
X5905Y15551D02*
X7677Y13779D01*
X5627Y15551D02*
X7677Y13501D01*
X5571Y15551D02*
X7677Y13445D01*
X5738Y15551D02*
X7677Y13612D01*
X6168Y13517D02*
X7677Y15027D01*
X6196Y13489D02*
X7677Y14971D01*
X6132Y13648D02*
X7677Y15194D01*
X6140Y13545D02*
X7677Y15082D01*
X6251Y13434D02*
X7677Y14860D01*
X6279Y13406D02*
X7677Y14804D01*
X6223Y13462D02*
X7677Y14915D01*
X6076Y13871D02*
X7677Y15472D01*
X6094Y13833D02*
X7677Y15416D01*
X6056Y13907D02*
X7677Y15528D01*
X6120Y13748D02*
X7677Y15305D01*
X6128Y13701D02*
X7677Y15249D01*
X6109Y13792D02*
X7677Y15361D01*
X5921Y14050D02*
X7422Y15551D01*
X5953Y14026D02*
X7478Y15551D01*
X5852Y14092D02*
X7311Y15551D01*
X5888Y14072D02*
X7367Y15551D01*
X6009Y13971D02*
X7589Y15551D01*
X6034Y13940D02*
X7645Y15551D01*
X5982Y14000D02*
X7534Y15551D01*
X5678Y14141D02*
X7088Y15551D01*
X5727Y14134D02*
X7144Y15551D01*
X5625Y14144D02*
X7032Y15551D01*
X5813Y14109D02*
X7255Y15551D01*
X5683D02*
X7677Y13557D01*
X5772Y14123D02*
X7199Y15551D01*
X5481Y14223D02*
X6810Y15551D01*
X5509Y14195D02*
X6865Y15551D01*
X5426Y14278D02*
X6698Y15551D01*
X5454Y14251D02*
X6754Y15551D01*
X5565Y14139D02*
X6977Y15551D01*
X6132Y13593D02*
X7677Y15138D01*
X5537Y14167D02*
X6921Y15551D01*
X5284Y14415D02*
X6420Y15551D01*
X5314Y14390D02*
X6476Y15551D01*
X5249Y14436D02*
X6364Y15551D01*
X5370Y14334D02*
X6587Y15551D01*
X5398Y14306D02*
X6643Y15551D01*
X5342Y14362D02*
X6531Y15551D01*
X5404D02*
X7677Y13278D01*
X5348Y15551D02*
X7677Y13222D01*
X5515Y15551D02*
X7677Y13390D01*
X5460Y15551D02*
X7677Y13334D01*
X5237Y15551D02*
X7677Y13111D01*
X5181Y15551D02*
X7677Y13055D01*
X5293Y15551D02*
X7677Y13167D01*
X5070Y15551D02*
X7677Y12944D01*
X5014Y15551D02*
X7677Y12888D01*
X5126Y15551D02*
X7677Y13000D01*
X4903Y15551D02*
X7677Y12777D01*
X4972Y15426D02*
X7677Y12721D01*
X4959Y15551D02*
X7677Y12833D01*
X6363Y13322D02*
X7677Y14637D01*
X6390Y13295D02*
X7677Y14581D01*
X6307Y13378D02*
X7677Y14748D01*
X6335Y13350D02*
X7677Y14693D01*
X4972Y15259D02*
X7344Y12888D01*
X6070Y13883D02*
X7065Y12888D01*
X6110Y13787D02*
X7010Y12888D01*
X4972Y15148D02*
X7232Y12888D01*
X4972Y15092D02*
X7177Y12888D01*
X4972Y15036D02*
X7121Y12888D01*
X4972Y15370D02*
X7455Y12888D01*
X4972Y15315D02*
X7399Y12888D01*
X4972Y15203D02*
X7288Y12888D01*
X6132Y13654D02*
X6898Y12888D01*
X6132Y13599D02*
X6843Y12888D01*
X6132Y13553D02*
X6797Y12888D01*
X6350Y9817D02*
X6707Y9460D01*
X6183Y9817D02*
X6769Y9231D01*
X6239Y9817D02*
X6795Y9261D01*
X6294Y9817D02*
X6733Y9378D01*
X6126Y13715D02*
X6954Y12888D01*
X6105Y9817D02*
X6747D01*
X5926Y9323D02*
X6421Y9817D01*
X6013Y9242D02*
X6588Y9817D01*
X6127D02*
X6747Y9197D01*
X5986Y9271D02*
X6532Y9817D01*
X6079Y9141D02*
X6750Y9813D01*
X6096Y9793D02*
X6729Y9160D01*
X6059Y9177D02*
X6699Y9817D01*
X6078Y9755D02*
X6714Y9119D01*
X6096Y9103D02*
X6775Y9782D01*
X6111Y9062D02*
X6750Y9701D01*
X6058Y9719D02*
X6705Y9073D01*
X5893Y9345D02*
X6365Y9817D01*
X5957Y9298D02*
X6476Y9817D01*
X5857Y9365D02*
X6309Y9817D01*
X6036Y9685D02*
X6701Y9020D01*
X6012Y9654D02*
X6707Y8958D01*
X6037Y9211D02*
X6643Y9817D01*
X7630Y8648D02*
X7677Y8601D01*
X7602Y8621D02*
X7677Y8546D01*
X7546Y8565D02*
X7677Y8434D01*
X7519Y8537D02*
X7677Y8378D01*
X7574Y8593D02*
X7677Y8490D01*
X6998Y8000D02*
X7677Y8679D01*
X6998Y7945D02*
X7677Y8624D01*
X7491Y8509D02*
X7677Y8323D01*
X7463Y8481D02*
X7677Y8267D01*
X6998Y7833D02*
X7677Y8512D01*
X6998Y7778D02*
X7677Y8457D01*
X6998Y7889D02*
X7677Y8568D01*
X7379Y8398D02*
X7677Y8100D01*
X7352Y8370D02*
X7677Y8044D01*
X7435Y8454D02*
X7677Y8211D01*
X7407Y8426D02*
X7677Y8156D01*
X7296Y8314D02*
X7677Y7933D01*
X7268Y8286D02*
X7677Y7877D01*
X7324Y8342D02*
X7677Y7989D01*
X7134Y7746D02*
X7677Y8290D01*
X7212Y8231D02*
X7677Y7766D01*
X7240Y8259D02*
X7677Y7822D01*
X7129Y8147D02*
X7677Y7599D01*
X7234Y7568D02*
X7677Y8011D01*
X7189Y7746D02*
X7677Y8234D01*
X7185Y8203D02*
X7677Y7710D01*
X7234Y7680D02*
X7677Y8123D01*
X7078Y7746D02*
X7677Y8345D01*
X7234Y7735D02*
X7677Y8178D01*
X7101Y8119D02*
X7677Y7543D01*
X7234Y7624D02*
X7677Y8067D01*
X7157Y8175D02*
X7677Y7655D01*
X6981Y8685D02*
X7004Y8662D01*
X6998Y8016D02*
X7640Y8658D01*
X6898Y8712D02*
X6976Y8634D01*
X7073Y8092D02*
X7677Y7488D01*
X7045Y8064D02*
X7677Y7432D01*
X7022Y7746D02*
X7677Y8401D01*
X7234Y7513D02*
X7677Y7956D01*
X7140Y7746D02*
X7234Y7652D01*
X6998Y7874D02*
Y8016D01*
X7196Y7746D02*
X7234Y7708D01*
X7018Y8036D02*
X7677Y7376D01*
X7234Y7401D02*
X7677Y7844D01*
X7234Y7457D02*
X7677Y7900D01*
X6998Y7888D02*
X7140Y7746D01*
X6998Y7833D02*
X7085Y7746D01*
X6998D02*
Y7874D01*
Y7944D02*
X7196Y7746D01*
X6998D02*
X7234D01*
X6998Y7777D02*
X7029Y7746D01*
X7234Y7708D02*
X7677Y7265D01*
X7234Y7234D02*
X7677Y7677D01*
X7234Y7346D02*
X7677Y7789D01*
X7234Y7290D02*
X7677Y7733D01*
X7234Y7652D02*
X7677Y7209D01*
X7234Y7541D02*
X7677Y7098D01*
X7234Y7234D02*
X7677Y7677D01*
X7234Y7179D02*
X7677Y7621D01*
X7234Y7596D02*
X7677Y7154D01*
X6998Y8000D02*
X7677Y7321D01*
X7224Y7057D02*
X7677Y7510D01*
X7234Y7485D02*
X7677Y7042D01*
X7234Y7123D02*
X7677Y7566D01*
X7234Y6984D02*
X7677Y6541D01*
X7234Y6510D02*
X7677Y6953D01*
X7234Y6622D02*
X7677Y7065D01*
X7234Y6566D02*
X7677Y7009D01*
X7234Y6455D02*
X7677Y6898D01*
X7234Y6873D02*
X7677Y6430D01*
X7234Y6928D02*
X7677Y6485D01*
X7234Y7429D02*
X7677Y6987D01*
X7234Y6956D02*
X7677Y7399D01*
X7234Y7012D02*
X7677Y7454D01*
X7234Y6900D02*
X7677Y7343D01*
X7234Y7318D02*
X7677Y6875D01*
X7234Y7374D02*
X7677Y6931D01*
X7234Y7262D02*
X7677Y6820D01*
X7234Y6789D02*
X7677Y7232D01*
X7234Y7116D02*
Y7746D01*
Y6845D02*
X7677Y7287D01*
X7234Y6733D02*
X7677Y7176D01*
X7234Y6677D02*
X7677Y7120D01*
X7234Y7207D02*
X7677Y6764D01*
X7172Y7116D02*
X7234Y7179D01*
X7001Y7057D02*
X7060Y7116D01*
X6890Y7057D02*
X6949Y7116D01*
X7234Y7151D02*
X7677Y6708D01*
X7214Y7116D02*
X7677Y6652D01*
X6991Y7116D02*
X7050Y7057D01*
X7168D02*
X7228Y7116D01*
X7161Y7057D02*
X7234Y6984D01*
X7113Y7057D02*
X7172Y7116D01*
X7158D02*
X7217Y7057D01*
X7234Y6427D02*
Y7057D01*
Y7040D02*
X7677Y6597D01*
X7151Y6427D02*
X7234Y6510D01*
X6946Y7057D02*
X7005Y7116D01*
X7046D02*
X7106Y7057D01*
X6935Y7116D02*
X6994Y7057D01*
X7057D02*
X7116Y7116D01*
X7102D02*
X7161Y7057D01*
X7057D02*
X7116Y7116D01*
X6132Y8693D02*
X6764Y9325D01*
X5985Y9625D02*
X6735Y8875D01*
X6132Y8749D02*
X6743Y9359D01*
X6132Y8637D02*
X6788Y9294D01*
X6132Y8582D02*
X6748Y9197D01*
X5956Y9599D02*
X6948Y8607D01*
X5925Y9574D02*
X6920Y8579D01*
X5891Y9552D02*
X6892Y8551D01*
X5856Y9532D02*
X6864Y8523D01*
X5817Y9515D02*
X6837Y8495D01*
X5776Y9500D02*
X6809Y8467D01*
X6612Y8271D02*
X7021Y8679D01*
X6319Y8100D02*
X6921Y8702D01*
X6374Y8100D02*
X6963Y8689D01*
X6207Y8100D02*
X6848Y8741D01*
X6263Y8100D02*
X6883Y8720D01*
X6152Y8100D02*
X6817Y8766D01*
X6079Y9141D02*
X6781Y8440D01*
X6114Y9051D02*
X6753Y8412D01*
X6118Y8290D02*
X6725Y8897D01*
X6040Y8100D02*
X6765Y8825D01*
X6096Y8100D02*
X6789Y8794D01*
X6091Y8207D02*
X6743Y8859D01*
X6132Y8860D02*
X6712Y9440D01*
X6132Y8804D02*
X6725Y9398D01*
X6132Y8916D02*
X6703Y9487D01*
X6132Y8526D02*
X6711Y9105D01*
X6132Y8470D02*
X6701Y9040D01*
X6132Y8415D02*
X6703Y8986D01*
X6132Y8866D02*
X6670Y8328D01*
X6122Y9017D02*
X6711Y9607D01*
X6128Y8981D02*
X6725Y8384D01*
X6129Y8969D02*
X6702Y9541D01*
X6130Y8357D02*
X6712Y8939D01*
X6132Y8922D02*
X6697Y8356D01*
X6132Y8810D02*
X6642Y8300D01*
X6132Y8755D02*
X6614Y8273D01*
X6132Y8643D02*
X6567Y8208D01*
X6132Y8587D02*
X6552Y8167D01*
X6132Y8532D02*
X6545Y8118D01*
X6486Y8100D02*
X6553Y8167D01*
X6132Y8699D02*
X6588Y8243D01*
X6132Y8476D02*
X6508Y8100D01*
X6132Y8420D02*
X6452Y8100D01*
X6130Y8366D02*
X6396Y8100D01*
X6029D02*
X6545D01*
X6124Y8317D02*
X6341Y8100D01*
X6768Y7116D02*
X6827Y7057D01*
X6779D02*
X6838Y7116D01*
X6712D02*
X6771Y7057D01*
X6723D02*
X6782Y7116D01*
X6834Y7057D02*
X6893Y7116D01*
X6879D02*
X6938Y7057D01*
X6824Y7116D02*
X6883Y7057D01*
X6430Y8100D02*
X7010Y8680D01*
X6309Y7116D02*
X7234D01*
X6657D02*
X6716Y7057D01*
X6612D02*
X6671Y7116D01*
X6667Y7057D02*
X6726Y7116D01*
X6601D02*
X6660Y7057D01*
X6445D02*
X6504Y7116D01*
X6490D02*
X6549Y7057D01*
X6389D02*
X6448Y7116D01*
X6434D02*
X6493Y7057D01*
X6545Y7116D02*
X6604Y7057D01*
X6556D02*
X6615Y7116D01*
X6500Y7057D02*
X6559Y7116D01*
X6378D02*
X6437Y7057D01*
X6309D02*
X7234D01*
X6333D02*
X6392Y7116D01*
X6309Y6517D02*
X6399Y6427D01*
X6309D02*
X6565D01*
X6309Y6977D02*
X6389Y7057D01*
X6132Y7190D02*
X6309Y7367D01*
X6131Y7363D02*
X6309Y7185D01*
X6237Y7648D02*
X6309Y7575D01*
X6132Y7245D02*
X6309Y7423D01*
X6132Y7134D02*
X6309Y7311D01*
X6132Y7251D02*
X6326Y7057D01*
X6132Y7196D02*
X6309Y7018D01*
X6070Y7648D02*
X6309Y7408D01*
X6128Y7408D02*
X6309Y7590D01*
X6029Y7648D02*
X6309D01*
X6107Y7499D02*
X6309Y7297D01*
X6125Y7425D02*
X6309Y7241D01*
X6060Y7602D02*
X6309Y7352D01*
Y7185D02*
X6378Y7116D01*
X6323D02*
X6382Y7057D01*
X6132Y6967D02*
X6309Y7144D01*
Y7033D02*
X6333Y7057D01*
X6132Y7140D02*
X6309Y6963D01*
X6132Y6911D02*
X6337Y7116D01*
X6309Y6427D02*
Y7057D01*
X6131Y6799D02*
X6309Y6977D01*
X6132Y6973D02*
X6309Y6796D01*
X6132Y7029D02*
X6309Y6851D01*
X6117Y6709D02*
X6309Y6517D01*
X6104Y6666D02*
X6309Y6462D01*
X6126Y6756D02*
X6309Y6573D01*
X4972Y14605D02*
X5919Y15551D01*
X4972Y14493D02*
X6030Y15551D01*
X4972Y14827D02*
X5696Y15551D01*
X4972Y14772D02*
X5752Y15551D01*
X5049Y14459D02*
X6142Y15551D01*
X5208Y14451D02*
X6309Y15551D01*
X4993Y14459D02*
X6086Y15551D01*
X4972Y15050D02*
X5473Y15551D01*
X4972Y14994D02*
X5529Y15551D01*
X4972Y15162D02*
X5362Y15551D01*
X4972Y15106D02*
X5418Y15551D01*
X4972Y14660D02*
X5863Y15551D01*
X4972Y14549D02*
X5975Y15551D01*
X4972Y14716D02*
X5808Y15551D01*
X5105Y14459D02*
X6197Y15551D01*
X5160Y14458D02*
X6253Y15551D01*
X4972Y14939D02*
X5585Y15551D01*
X6132Y13553D02*
Y13642D01*
X5315Y14389D02*
X5565Y14139D01*
X4972Y14883D02*
X5641Y15551D01*
X4972Y14814D02*
X5643Y14144D01*
X4972Y14758D02*
X5588Y14142D01*
X4972Y14981D02*
X5871Y14082D01*
X4972Y14925D02*
X5775Y14122D01*
X4972Y14869D02*
X5703Y14138D01*
X4972Y15329D02*
X5195Y15551D01*
X4972Y15273D02*
X5251Y15551D01*
X4972Y15440D02*
X5084Y15551D01*
X4972Y15384D02*
X5139Y15551D01*
X4972Y15217D02*
X5306Y15551D01*
X4972Y14702D02*
X5231Y14443D01*
X4972Y14459D02*
Y15453D01*
X4930D02*
X5028Y15551D01*
X4946Y15453D02*
X4972Y15426D01*
X4874Y15453D02*
X4972Y15551D01*
X4972Y14647D02*
X5161Y14458D01*
X4972Y14591D02*
X5105Y14459D01*
X4890Y15453D02*
X4972Y15370D01*
X5050Y13986D02*
X5177Y13859D01*
X4972Y14535D02*
X5049Y14459D01*
X4972D02*
X5148D01*
X5020Y13986D02*
X5168Y13838D01*
X4965Y13986D02*
X5153Y13798D01*
X4853Y13986D02*
X5132Y13707D01*
X4909Y13986D02*
X5141Y13754D01*
X4924Y13387D02*
X5128Y13591D01*
X4869Y13387D02*
X5128Y13647D01*
X4954Y13362D02*
X5128Y13535D01*
X4895Y13387D02*
X4954Y13328D01*
Y13106D02*
X5220Y12840D01*
X5213Y12785D02*
X5241Y12813D01*
X4954Y13217D02*
X5137Y13034D01*
X4954Y13161D02*
X5159Y12957D01*
X4954Y13050D02*
X5219Y12785D01*
X5153Y12781D02*
X5217Y12845D01*
X4954Y12805D02*
X5146Y12997D01*
X4954Y12994D02*
X5165Y12783D01*
X4954Y12861D02*
X5136Y13042D01*
X4954Y12694D02*
X5176Y12915D01*
X4954Y12638D02*
X5195Y12879D01*
X4954Y12749D02*
X5160Y12955D01*
X5197Y12785D02*
X5265D01*
X5204Y10817D02*
X5247D01*
X5193Y10807D02*
X5219Y10781D01*
X5166Y10779D02*
X5197Y10747D01*
X5138Y10751D02*
X5178Y10711D01*
X5110Y10723D02*
X5161Y10672D01*
X5082Y10695D02*
X5147Y10630D01*
X5054Y10667D02*
X5137Y10585D01*
X5026Y10640D02*
X5130Y10536D01*
X4954Y13384D02*
X5128Y13211D01*
X4954Y13195D02*
X5128Y13368D01*
X4954Y13306D02*
X5128Y13480D01*
X4954Y13250D02*
X5128Y13424D01*
Y13130D02*
Y13642D01*
X4954Y13328D02*
X5128Y13155D01*
X4954Y12637D02*
Y13387D01*
Y13139D02*
X5128Y13313D01*
X4954Y13273D02*
X5129Y13098D01*
X4954Y13083D02*
X5128Y13257D01*
X4954Y12972D02*
X5128Y13146D01*
X4954Y12916D02*
X5129Y13091D01*
X4954Y13028D02*
X5128Y13201D01*
X4954Y12939D02*
X5121Y12772D01*
X4954Y12883D02*
X5083Y12755D01*
X4954Y12772D02*
X5022Y12704D01*
X4954Y12637D02*
X5036Y12719D01*
X4971Y10584D02*
X5128Y10427D01*
Y9980D02*
Y10492D01*
X4999Y10612D02*
X5128Y10482D01*
X4954Y12827D02*
X5050Y12731D01*
X4943Y10556D02*
X5128Y10371D01*
X4954Y12716D02*
X4994Y12676D01*
X4887Y10500D02*
X5128Y10260D01*
X4859Y10473D02*
X5128Y10204D01*
X4915Y10528D02*
X5128Y10315D01*
X4818Y15453D02*
X4917Y15551D01*
X4847D02*
X4946Y15453D01*
X4763D02*
X4861Y15551D01*
X4792D02*
X4890Y15453D01*
X4707D02*
X4805Y15551D01*
X4736D02*
X4834Y15453D01*
X4596D02*
X4694Y15551D01*
X4472Y15453D02*
X4972D01*
X4569Y15551D02*
X4667Y15453D01*
X4651D02*
X4750Y15551D01*
X4680D02*
X4779Y15453D01*
X4625Y15551D02*
X4723Y15453D01*
X4712Y13788D02*
X4911Y13986D01*
X4798D02*
X5128Y13656D01*
X4714Y13901D02*
X4799Y13986D01*
X4718Y13849D02*
X4855Y13986D01*
X4713Y13904D02*
X5128Y13489D01*
X4717Y13844D02*
X5128Y13433D01*
X4742Y13986D02*
X5128Y13600D01*
X4689Y13709D02*
X4966Y13986D01*
X4690D02*
X5050D01*
X4704Y13946D02*
X4744Y13986D01*
X4441Y13406D02*
X5022Y13986D01*
X4692Y13980D02*
X5128Y13545D01*
X4429Y15453D02*
X4527Y15551D01*
X4458D02*
X4556Y15453D01*
X4373D02*
X4471Y15551D01*
X4402D02*
X4500Y15453D01*
X4513Y15551D02*
X4612Y15453D01*
X4540D02*
X4638Y15551D01*
X4484Y15453D02*
X4583Y15551D01*
X4094Y15453D02*
X4193Y15551D01*
X4124D02*
X4222Y15453D01*
X4068Y15551D02*
X4166Y15453D01*
X4317D02*
X4416Y15551D01*
X4346D02*
X4445Y15453D01*
X4291Y15551D02*
X4389Y15453D01*
X4402D02*
X4472D01*
X4400Y13419D02*
X4500Y13519D01*
X4261Y15453D02*
X4360Y15551D01*
X4402Y15453D02*
X4472D01*
X4400Y13438D02*
X4432Y13406D01*
X4400D02*
X4472D01*
X4400D02*
Y13493D01*
X4039Y15453D02*
X4137Y15551D01*
X4150Y15453D02*
X4249Y15551D01*
X4012D02*
X4111Y15453D01*
X4206D02*
X4304Y15551D01*
X4235D02*
X4333Y15453D01*
X4179Y15551D02*
X4278Y15453D01*
X4702Y13387D02*
X5175Y13861D01*
X4757Y13387D02*
X5146Y13776D01*
X4713Y13792D02*
X5128Y13378D01*
X4813Y13387D02*
X5132Y13707D01*
X4703Y13747D02*
X5128Y13322D01*
X4695Y10151D02*
X5139Y10595D01*
X4831Y10445D02*
X5128Y10148D01*
X4646Y13387D02*
X5147Y13889D01*
X4695Y10308D02*
X5204Y10817D01*
X4688Y13706D02*
X5128Y13266D01*
X4695Y10263D02*
X5238Y10806D01*
X4695Y10207D02*
X5162Y10674D01*
X4695Y10096D02*
X5129Y10530D01*
X4695Y10303D02*
X5144Y9854D01*
X4695Y10247D02*
X5176Y9766D01*
X4695Y9929D02*
X5128Y10362D01*
X4720Y10333D02*
X5131Y9922D01*
X4695Y10192D02*
X5488Y9399D01*
X4695Y10136D02*
X5446Y9384D01*
X4695Y9762D02*
X5128Y10195D01*
X4695Y9539D02*
X5128Y9972D01*
X4695Y9483D02*
X5132Y9920D01*
X4695Y9595D02*
X5128Y10028D01*
X4695Y10080D02*
X5408Y9367D01*
X4695Y10025D02*
X5372Y9348D01*
X4695Y9969D02*
X5338Y9326D01*
X4535Y13387D02*
X5092Y13944D01*
X4590Y13387D02*
X5119Y13917D01*
X4594Y13578D02*
X4784Y13387D01*
X4562Y13554D02*
X4728Y13387D01*
X4669Y13669D02*
X4951Y13387D01*
X4647Y13636D02*
X4895Y13387D01*
X4622Y13605D02*
X4840Y13387D01*
X4447Y13502D02*
X4561Y13387D01*
X4472D02*
X4954D01*
X4400Y13493D02*
X4506Y13387D01*
X4479D02*
X5064Y13972D01*
X4527Y13533D02*
X4673Y13387D01*
X4489Y13515D02*
X4617Y13387D01*
X4695Y9984D02*
X5128Y10417D01*
X4776Y10389D02*
X5128Y10037D01*
X4695Y10040D02*
X5128Y10473D01*
X4804Y10417D02*
X5128Y10093D01*
X4695Y9706D02*
X5128Y10139D01*
X4695Y9650D02*
X5128Y10083D01*
X4748Y10361D02*
X5128Y9981D01*
X4420Y13387D02*
X4472D01*
X4695Y9873D02*
X5128Y10306D01*
X4695Y9817D02*
X5128Y10250D01*
X4695Y9370D02*
Y10308D01*
X6077Y9751D02*
X6142Y9817D01*
X5734Y9408D02*
X5859Y9534D01*
X5686Y9416D02*
X5767Y9497D01*
X5684Y9481D02*
X5764Y9401D01*
X5778Y9397D02*
X6198Y9817D01*
X5819Y9382D02*
X6254Y9817D01*
X5732Y9489D02*
X5854Y9367D01*
X5633Y9419D02*
X5697Y9483D01*
X5574Y9416D02*
X5637Y9478D01*
X5503Y9495D02*
X5581Y9417D01*
X5572Y9482D02*
X5634Y9419D01*
X5631Y9478D02*
X5694Y9415D01*
X5506Y9404D02*
X5583Y9481D01*
X6114Y8272D02*
X6285Y8100D01*
X6181Y7648D02*
X6309Y7519D01*
X6132Y8406D02*
Y8917D01*
X6100Y8230D02*
X6229Y8100D01*
X6125Y7648D02*
X6309Y7464D01*
X6119Y7455D02*
X6309Y7645D01*
X6107Y7499D02*
X6256Y7648D01*
X6083Y8190D02*
X6174Y8100D01*
X6064Y8154D02*
X6118Y8100D01*
X6074Y7577D02*
X6144Y7648D01*
X6092Y7539D02*
X6200Y7648D01*
X6053Y7612D02*
X6089Y7648D01*
X5416Y9526D02*
X5532Y9410D01*
X5420Y9373D02*
X5534Y9488D01*
X4855Y8474D02*
X5128Y8747D01*
X4911Y8474D02*
X5128Y8691D01*
Y8406D02*
Y8917D01*
X5000Y8452D02*
X5128Y8580D01*
X4959Y8467D02*
X5128Y8636D01*
X4695Y9857D02*
X5278Y9275D01*
X4695Y9690D02*
X5203Y9182D01*
X4695Y9428D02*
X5140Y9872D01*
X4695Y9635D02*
X5183Y9146D01*
X4800Y8474D02*
X5128Y8803D01*
X4744Y8474D02*
X5128Y8858D01*
X5092Y8377D02*
X5128Y8413D01*
X5062Y8408D02*
X5133Y8337D01*
X5035Y8431D02*
X5128Y8524D01*
X5065Y8405D02*
X5128Y8469D01*
X4808Y8022D02*
X5115Y7714D01*
X4749Y8022D02*
X5189Y7582D01*
X4805Y8022D02*
X5210Y7617D01*
X4749Y7421D02*
X5078Y7751D01*
X6309Y7116D02*
Y7648D01*
X6132Y7307D02*
X6309Y7130D01*
X6132Y7357D02*
X6309Y7534D01*
X6132Y7301D02*
X6309Y7478D01*
X6132Y7078D02*
X6309Y7256D01*
X6132Y7023D02*
X6309Y7200D01*
X6132Y6831D02*
Y7343D01*
X4933Y7383D02*
X5208Y7658D01*
X4916Y7421D02*
X5169Y7674D01*
X4933Y7327D02*
X5190Y7584D01*
X4933Y7272D02*
X5149Y7488D01*
X6123Y6735D02*
X6309Y6922D01*
X6132Y6917D02*
X6309Y6740D01*
X6132Y7084D02*
X6309Y6907D01*
X6132Y6856D02*
X6309Y7033D01*
X6101Y6658D02*
X6309Y6866D01*
X6131Y6806D02*
X6309Y6629D01*
X6132Y6861D02*
X6309Y6684D01*
X4933Y6891D02*
X5155Y6670D01*
X4933Y6835D02*
X5205Y6563D01*
X4933Y6947D02*
X5135Y6744D01*
X6040Y6541D02*
X6309Y6810D01*
X4933Y6436D02*
X5158Y6661D01*
X4933Y6492D02*
X5144Y6703D01*
X4933Y7216D02*
X5133Y7416D01*
X4933Y7160D02*
X5128Y7355D01*
X4933Y7392D02*
X5128Y7197D01*
X4933Y7336D02*
X5128Y7142D01*
Y6831D02*
Y7343D01*
X4933Y7225D02*
X5128Y7030D01*
X4933Y7049D02*
X5128Y7244D01*
X4804Y7421D02*
X5106Y7723D01*
X4860Y7421D02*
X5135Y7696D01*
X4904Y7421D02*
X4933Y7392D01*
Y7105D02*
X5128Y7299D01*
X4933Y7281D02*
X5128Y7086D01*
X4848Y7421D02*
X4933Y7336D01*
Y6826D02*
X5128Y7021D01*
X4933Y7002D02*
X5129Y6807D01*
X4933Y6770D02*
X5128Y6965D01*
X4933Y6715D02*
X5128Y6910D01*
X4933Y6603D02*
X5129Y6799D01*
X4933Y6548D02*
X5135Y6749D01*
X4933Y6659D02*
X5128Y6854D01*
X4933Y7169D02*
X5128Y6975D01*
X4933Y6937D02*
X5128Y7132D01*
X4933Y6993D02*
X5128Y7188D01*
X4933Y6882D02*
X5128Y7077D01*
X4933Y7058D02*
X5128Y6863D01*
X4933Y7114D02*
X5128Y6919D01*
X4695Y9913D02*
X5307Y9301D01*
X4695Y9802D02*
X5251Y9246D01*
X4695Y9372D02*
X5151Y9828D01*
X4685Y9306D02*
X5166Y9788D01*
X4695Y9746D02*
X5226Y9215D01*
X4354Y8474D02*
X5409Y9529D01*
X4695Y9579D02*
X5166Y9108D01*
X4076Y8474D02*
X5252Y9650D01*
X4132Y8474D02*
X5279Y9622D01*
X4020Y8474D02*
X5227Y9681D01*
X4243Y8474D02*
X5339Y9571D01*
X4299Y8474D02*
X5373Y9549D01*
X4187Y8474D02*
X5308Y9595D01*
X4695Y9523D02*
X5151Y9067D01*
X4695Y9468D02*
X5139Y9023D01*
X4695Y9412D02*
X5131Y8976D01*
X4694Y9357D02*
X5128Y8923D01*
X4577Y8474D02*
X5143Y9041D01*
X4633Y8474D02*
X5131Y8973D01*
X4688Y8474D02*
X5128Y8914D01*
X4466Y8474D02*
X5490Y9498D01*
X4521Y8474D02*
X5174Y9127D01*
X4564Y9153D02*
X5128Y8589D01*
X4410Y8474D02*
X5448Y9512D01*
X4452Y9042D02*
X5130Y8365D01*
X4480Y9070D02*
X5128Y8422D01*
X4686Y9310D02*
X5128Y8868D01*
X4669Y9271D02*
X5128Y8812D01*
X4619Y9209D02*
X5128Y8701D01*
X4592Y9181D02*
X5128Y8645D01*
X4647Y9237D02*
X5128Y8756D01*
X4536Y9126D02*
X5128Y8534D01*
X4508Y9098D02*
X5128Y8478D01*
X4083Y8673D02*
X4634Y9224D01*
X4425Y9014D02*
X4978Y8461D01*
X4397Y8986D02*
X4909Y8474D01*
X4369Y8959D02*
X4853Y8474D01*
X4285Y8875D02*
X4686Y8474D01*
X4258Y8847D02*
X4630Y8474D01*
X4230Y8819D02*
X4575Y8474D01*
X4202Y8791D02*
X4519Y8474D01*
X4341Y8931D02*
X4797Y8474D01*
X4677Y8022D02*
X4808D01*
X4313Y8903D02*
X4742Y8474D01*
X4091Y8680D02*
X4296Y8474D01*
X4061Y8654D02*
X4241Y8474D01*
X4027Y8633D02*
X4185Y8474D01*
X4174Y8764D02*
X4463Y8474D01*
X4146Y8736D02*
X4408Y8474D01*
X4118Y8708D02*
X4352Y8474D01*
X4677Y7850D02*
X4828Y8002D01*
X4677Y7795D02*
X4856Y7974D01*
X4677Y7962D02*
X4737Y8022D01*
X4677Y7906D02*
X4792Y8022D01*
X4693D02*
X5170Y7545D01*
X4677Y7983D02*
X5155Y7505D01*
X4677Y7528D02*
Y8022D01*
Y7683D02*
X4911Y7918D01*
X4677Y7628D02*
X4939Y7890D01*
X4677Y7739D02*
X4884Y7946D01*
X4677Y7927D02*
X5142Y7461D01*
X4677Y7871D02*
X5133Y7415D01*
X4677Y7572D02*
X4967Y7862D01*
X4693Y7421D02*
X5051Y7779D01*
X4677Y7648D02*
X4904Y7421D01*
X4677Y7593D02*
X4848Y7421D01*
X4677Y7537D02*
X4793Y7421D01*
X4677Y7815D02*
X5128Y7364D01*
X4677Y7760D02*
X5128Y7309D01*
X4677Y7704D02*
X5128Y7253D01*
X4575Y7528D02*
X4681Y7421D01*
X4433D02*
X4933D01*
X4183Y7528D02*
X4677D01*
X4582Y7421D02*
X4995Y7835D01*
X4637Y7421D02*
X5023Y7807D01*
X4630Y7528D02*
X4737Y7421D01*
X4633Y7528D02*
X4677Y7572D01*
X4526Y7421D02*
X4633Y7528D01*
X4470Y7421D02*
X4577Y7528D01*
X4519D02*
X4626Y7421D01*
X4415D02*
X4521Y7528D01*
X4463D02*
X4570Y7421D01*
X4408Y7528D02*
X4514Y7421D01*
X4359D02*
X4466Y7528D01*
X4303Y7421D02*
X4410Y7528D01*
X4352D02*
X4459Y7421D01*
X4296Y7528D02*
X4403Y7421D01*
X4192D02*
X4299Y7528D01*
X4241D02*
X4347Y7421D01*
X4185Y7528D02*
X4292Y7421D01*
X4147Y7510D02*
X4236Y7421D01*
X4362D02*
X4433D01*
X4362D02*
X4433D01*
X4248D02*
X4354Y7528D01*
X4103D02*
X4183D01*
X4136Y7421D02*
X4243Y7528D01*
X4092Y7510D02*
X4180Y7421D01*
X4036Y7510D02*
X4124Y7421D01*
X4081D02*
X4169Y7510D01*
X4025Y7421D02*
X4113Y7510D01*
X7234Y6706D02*
X7677Y6263D01*
X7234Y6650D02*
X7677Y6207D01*
X7234Y6817D02*
X7677Y6374D01*
X7234Y6761D02*
X7677Y6318D01*
X7234Y6539D02*
X7677Y6096D01*
X7234Y6427D02*
X7677Y5984D01*
X7234Y6594D02*
X7677Y6151D01*
X6978Y5865D02*
X7677Y6564D01*
X7123Y6427D02*
X7677Y5873D01*
X7234Y6483D02*
X7677Y6040D01*
X7179Y6427D02*
X7677Y5929D01*
X6978Y5809D02*
X7677Y6508D01*
X6978Y5753D02*
X7677Y6452D01*
X7067Y6427D02*
X7677Y5817D01*
X6978Y6349D02*
X7677Y5650D01*
X7277Y4381D02*
X7677Y4782D01*
X7012Y6427D02*
X7677Y5762D01*
X6978Y5698D02*
X7677Y6397D01*
X7054Y4381D02*
X7677Y5005D01*
X7531Y4357D02*
X7677Y4504D01*
X7110Y4381D02*
X7677Y4949D01*
X6978Y5642D02*
X7677Y6341D01*
X6978Y6293D02*
X7677Y5595D01*
X6978Y6405D02*
X7677Y5706D01*
X6978Y6126D02*
X7677Y5428D01*
X6978Y6015D02*
X7677Y5316D01*
X6978Y6238D02*
X7677Y5539D01*
X7207Y6427D02*
X7234Y6455D01*
X6978Y6427D02*
X7234D01*
X6978Y6255D02*
X7151Y6427D01*
X6978Y6199D02*
X7207Y6427D01*
X6998Y4381D02*
X7677Y5060D01*
X7165Y4381D02*
X7677Y4893D01*
X6978Y5630D02*
Y6427D01*
Y6310D02*
X7095Y6427D01*
X6978Y5848D02*
X7677Y5149D01*
X6978Y6366D02*
X7040Y6427D01*
X6978Y5737D02*
X7677Y5038D01*
X6978Y5681D02*
X7677Y4982D01*
X6978Y5792D02*
X7677Y5093D01*
X7531Y4246D02*
X7677Y4392D01*
X7531Y4349D02*
X7677Y4203D01*
X7499Y4381D02*
X7677Y4559D01*
X7531Y4302D02*
X7677Y4448D01*
X7531Y4293D02*
X7677Y4147D01*
X7531Y4135D02*
X7677Y4281D01*
X7531Y4190D02*
X7677Y4336D01*
X7221Y4381D02*
X7677Y4838D01*
X7332Y4381D02*
X7677Y4726D01*
X6997Y4381D02*
X7531D01*
X7388D02*
X7677Y4671D01*
X7444Y4381D02*
X7677Y4615D01*
X7498Y4381D02*
X7531Y4349D01*
Y4182D02*
X7677Y4036D01*
X7531Y4023D02*
X7677Y4169D01*
X7531Y4237D02*
X7677Y4091D01*
X7531Y4079D02*
X7677Y4225D01*
Y197D02*
Y8707D01*
X7531Y3968D02*
X7677Y4114D01*
X7531Y4126D02*
X7677Y3980D01*
X7531Y3912D02*
X7677Y4058D01*
X7531Y4015D02*
X7677Y3869D01*
X7531Y4070D02*
X7677Y3924D01*
X7531Y3959D02*
X7677Y3813D01*
X7531Y3801D02*
X7677Y3947D01*
X7531Y3856D02*
X7677Y4002D01*
X7531Y3792D02*
X7677Y3646D01*
X7549Y3596D02*
X7677Y3724D01*
X7531Y3903D02*
X7677Y3757D01*
X7549Y3652D02*
X7677Y3780D01*
X7549Y3540D02*
X7677Y3668D01*
X7549Y3485D02*
X7677Y3613D01*
X7549Y3002D02*
Y3652D01*
X7438D02*
X7677Y3891D01*
X7493Y3652D02*
X7677Y3835D01*
X7531Y3848D02*
X7677Y3702D01*
X7499Y3768D02*
X7677Y3590D01*
X7444Y3768D02*
X7677Y3535D01*
X7504Y3652D02*
X7549Y3607D01*
X7531Y3768D02*
Y4381D01*
X7499Y3768D02*
X7531Y3801D01*
X7382Y3652D02*
X7499Y3768D01*
X7388D02*
X7504Y3652D01*
X7326D02*
X7443Y3768D01*
X7332D02*
X7449Y3652D01*
X7277Y3768D02*
X7393Y3652D01*
X7271D02*
X7387Y3768D01*
X7018D02*
X7531D01*
X7221D02*
X7337Y3652D01*
X7104D02*
X7220Y3768D01*
X7110D02*
X7226Y3652D01*
X7048D02*
X7164Y3768D01*
X7054D02*
X7170Y3652D01*
X7165Y3768D02*
X7282Y3652D01*
X7215D02*
X7332Y3768D01*
X7159Y3652D02*
X7276Y3768D01*
X7018Y3733D02*
X7053Y3768D01*
X7018Y3677D02*
X7109Y3768D01*
X7018Y3652D02*
Y3768D01*
Y3749D02*
X7115Y3652D01*
X7018D02*
X7549D01*
X7018Y3693D02*
X7059Y3652D01*
X6978Y6143D02*
X7677Y6842D01*
X6978Y6087D02*
X7677Y6786D01*
X6511Y6427D02*
X6565Y6373D01*
X6455Y6427D02*
X6565Y6317D01*
X6978Y5976D02*
X7677Y6675D01*
X6978Y5920D02*
X7677Y6619D01*
X6978Y6032D02*
X7677Y6731D01*
X6049Y6555D02*
X6565Y6039D01*
X6026Y6522D02*
X6565Y5983D01*
X6088Y6626D02*
X6565Y6150D01*
X6070Y6589D02*
X6565Y6094D01*
X5973Y6464D02*
X6565Y5872D01*
X5943Y6438D02*
X6565Y5816D01*
X6000Y6492D02*
X6565Y5927D01*
X6972Y5580D02*
X7677Y6285D01*
X6344Y6427D02*
X6565Y6206D01*
X6399Y6427D02*
X6565Y6261D01*
X6978Y6182D02*
X7677Y5483D01*
X6978Y6071D02*
X7677Y5372D01*
X6116Y5893D02*
X6565Y6342D01*
X6126Y5847D02*
X6565Y6287D01*
X6103Y5936D02*
X6565Y6398D01*
X5911Y6415D02*
X6565Y5760D01*
X6132Y5297D02*
X6565Y5730D01*
X6131Y5797D02*
X6565Y6231D01*
X6068Y6012D02*
X6483Y6427D01*
X6087Y5976D02*
X6539Y6427D01*
X6309Y6462D02*
X6344Y6427D01*
X6047Y6047D02*
X6427Y6427D01*
X6565Y5716D02*
Y6427D01*
X6132Y5686D02*
X6565Y6120D01*
X6132Y5742D02*
X6565Y6175D01*
X6024Y6079D02*
X6371Y6427D01*
X6047Y6047D02*
X6427Y6427D01*
X5998Y6109D02*
X6316Y6427D01*
X5876Y6393D02*
X6559Y5710D01*
X5839Y6375D02*
X6532Y5682D01*
X5800Y6358D02*
X6504Y5654D01*
X6132Y5631D02*
X6565Y6064D01*
X6132Y5575D02*
X6565Y6008D01*
X6132Y5519D02*
X6565Y5953D01*
X6132Y5692D02*
X6337Y5487D01*
X6132Y5408D02*
X6565Y5841D01*
X6132Y5282D02*
X6565Y5716D01*
X6132Y5464D02*
X6565Y5897D01*
X6024Y6078D02*
X6476Y5627D01*
X6098Y5949D02*
X6448Y5599D01*
X6121Y5870D02*
X6420Y5571D01*
X6131Y5805D02*
X6392Y5543D01*
X6132Y5352D02*
X6565Y5785D01*
X6132Y5748D02*
X6365Y5515D01*
X6686Y4905D02*
X7677Y5895D01*
X6705Y4868D02*
X7677Y5840D01*
X6978Y5959D02*
X7677Y5261D01*
X6978Y5904D02*
X7677Y5205D01*
X6731Y4782D02*
X7677Y5728D01*
X6735Y4731D02*
X7677Y5673D01*
X6720Y4827D02*
X7677Y5784D01*
X6544Y5041D02*
X7677Y6174D01*
X6579Y5020D02*
X7677Y6118D01*
X6506Y5058D02*
X7677Y6230D01*
X6639Y4969D02*
X7677Y6007D01*
X6664Y4938D02*
X7677Y5951D01*
X6610Y4996D02*
X7677Y6062D01*
X6956Y5536D02*
X7677Y4815D01*
X6934Y5502D02*
X7677Y4759D01*
X6978Y5625D02*
X7677Y4926D01*
X6971Y5577D02*
X7677Y4871D01*
X6880Y5446D02*
X7677Y4648D01*
X6950Y4445D02*
X7677Y5172D01*
X6907Y5473D02*
X7677Y4704D01*
X6755Y4639D02*
X7677Y5561D01*
X6783Y4612D02*
X7677Y5506D01*
X6731Y4671D02*
X7677Y5617D01*
X6811Y4584D02*
X7677Y5450D01*
X6713Y5279D02*
X7677Y4314D01*
X6852Y5418D02*
X7677Y4592D01*
X6867Y4528D02*
X7677Y5339D01*
X6894Y4500D02*
X7677Y5283D01*
X6839Y4556D02*
X7677Y5394D01*
X6824Y5390D02*
X7677Y4537D01*
X6768Y5334D02*
X7677Y4425D01*
X6922Y4472D02*
X7677Y5227D01*
X6796Y5362D02*
X7677Y4481D01*
X6657Y5223D02*
X7498Y4381D01*
X6629Y5195D02*
X7443Y4381D01*
X6496Y5062D02*
X6918Y5484D01*
X6740Y5306D02*
X7677Y4370D01*
X6685Y5251D02*
X7677Y4258D01*
X6601Y5167D02*
X7387Y4381D01*
X6976Y4415D02*
X7677Y5116D01*
X6730Y4664D02*
X6957Y4438D01*
X6734Y4756D02*
X7109Y4381D01*
X6734Y4700D02*
X7053Y4381D01*
X6667Y4934D02*
X7220Y4381D01*
X6518Y5084D02*
X6588Y5013D01*
X6573Y5139D02*
X7331Y4381D01*
X6546Y5112D02*
X7276Y4381D01*
X6721Y4825D02*
X7164Y4381D01*
X7549Y3206D02*
X7677Y3334D01*
X7549Y3328D02*
X7677Y3200D01*
X7549Y3262D02*
X7677Y3390D01*
X7549Y3384D02*
X7677Y3256D01*
X7549Y3273D02*
X7677Y3145D01*
X7549Y3095D02*
X7677Y3223D01*
X7549Y3151D02*
X7677Y3279D01*
X7549Y3551D02*
X7677Y3423D01*
X7549Y3373D02*
X7677Y3501D01*
X7549Y3607D02*
X7677Y3479D01*
X7549Y3429D02*
X7677Y3557D01*
X7549Y3318D02*
X7677Y3446D01*
X7549Y3440D02*
X7677Y3312D01*
X7549Y3495D02*
X7677Y3367D01*
X7549Y3161D02*
X7677Y3033D01*
X7549Y3106D02*
X7677Y2978D01*
X7549Y3217D02*
X7677Y3089D01*
X7549Y3039D02*
X7677Y3167D01*
X7542Y3002D02*
X7677Y2866D01*
X7486Y3002D02*
X7677Y2811D01*
X7549Y3050D02*
X7677Y2922D01*
X6873Y3002D02*
X7677Y2198D01*
X6923Y1467D02*
X7677Y2221D01*
X7430Y3002D02*
X7677Y2755D01*
X6799Y1454D02*
X7677Y2332D01*
X7027Y1459D02*
X7677Y2109D01*
X6864Y1463D02*
X7677Y2276D01*
X7456Y3002D02*
X7549Y3095D01*
X7375Y3002D02*
X7677Y2699D01*
X6860Y3002D02*
Y3151D01*
X7512Y3002D02*
X7549Y3039D01*
X7152Y3002D02*
X7677Y2477D01*
X6929Y3002D02*
X7677Y2254D01*
X7263Y3002D02*
X7677Y2588D01*
X6665Y3338D02*
X6822Y3181D01*
X6860Y3071D02*
X6929Y3002D01*
X7096D02*
X7677Y2421D01*
X7074Y1451D02*
X7677Y2054D01*
X7319Y3002D02*
X7677Y2644D01*
X7207Y3002D02*
X7677Y2532D01*
X7161Y1426D02*
X7677Y1942D01*
X7200Y1410D02*
X7677Y1887D01*
X7119Y1440D02*
X7677Y1998D01*
X7040Y3002D02*
X7677Y2365D01*
X6985Y3002D02*
X7677Y2310D01*
X6860Y3002D02*
X7549D01*
X6632Y1398D02*
X7677Y2443D01*
X6724Y1435D02*
X7677Y2388D01*
X6977Y1465D02*
X7677Y2165D01*
X7478Y1187D02*
X7677Y1386D01*
X7501Y1154D02*
X7677Y1330D01*
X7428Y1248D02*
X7677Y1497D01*
X7454Y1218D02*
X7677Y1441D01*
X7541Y1082D02*
X7677Y1219D01*
X7558Y1044D02*
X7677Y1163D01*
X7522Y1119D02*
X7677Y1274D01*
X7274Y1372D02*
X7677Y1775D01*
X7308Y1351D02*
X7677Y1720D01*
X7238Y1392D02*
X7677Y1831D01*
X7372Y1303D02*
X7677Y1608D01*
X7401Y1276D02*
X7677Y1553D01*
X7341Y1328D02*
X7677Y1664D01*
X7602Y882D02*
X7677Y806D01*
X7608Y759D02*
X7677Y829D01*
X7604Y867D02*
X7677Y940D01*
X7608Y815D02*
X7677Y884D01*
X7602Y698D02*
X7677Y773D01*
X7608Y764D02*
X7677Y695D01*
X7607Y820D02*
X7677Y751D01*
X7508Y1142D02*
X7677Y973D01*
X7586Y960D02*
X7677Y1051D01*
X7573Y1003D02*
X7677Y1107D01*
X7596Y915D02*
X7677Y996D01*
X7588Y951D02*
X7677Y862D01*
X7563Y1032D02*
X7677Y918D01*
X7597Y664D02*
X7677Y584D01*
X7565Y550D02*
X7677Y662D01*
X7590Y630D02*
X7677Y717D01*
X7604Y712D02*
X7677Y639D01*
X7574Y575D02*
X7677Y472D01*
X7559Y534D02*
X7677Y417D01*
X7587Y618D02*
X7677Y528D01*
X7542Y496D02*
X7677Y361D01*
X7523Y459D02*
X7677Y305D01*
X7515Y444D02*
X7677Y606D01*
X7324Y197D02*
X7677Y550D01*
X7379Y197D02*
X7677Y495D01*
X7491Y197D02*
X7677Y383D01*
X7602Y197D02*
X7677Y272D01*
X7503Y424D02*
X7677Y250D01*
X7546Y197D02*
X7677Y328D01*
X7435Y197D02*
X7677Y439D01*
X7480Y391D02*
X7674Y197D01*
X7456Y359D02*
X7619Y197D01*
X7343Y249D02*
X7396Y197D01*
X7265D02*
X7677D01*
X7311Y226D02*
X7340Y197D01*
X7430Y329D02*
X7563Y197D01*
X7403Y301D02*
X7507Y197D01*
X7374Y274D02*
X7451Y197D01*
X6624Y3196D02*
X7677Y2143D01*
X6624Y3140D02*
X7677Y2087D01*
X6624Y2392D02*
X7233Y3002D01*
X6624Y2170D02*
X7456Y3002D01*
X6624Y3084D02*
X7677Y2031D01*
X6624Y3029D02*
X7677Y1976D01*
X6624Y2058D02*
X7677Y3112D01*
X6624Y2448D02*
X7178Y3002D01*
X6624Y2337D02*
X7289Y3002D01*
X6624Y2504D02*
X7122Y3002D01*
X6624Y2003D02*
X7677Y3056D01*
X6624Y2114D02*
X7512Y3002D01*
X6624Y2225D02*
X7401Y3002D01*
X6624Y2973D02*
X7677Y1920D01*
X6624Y2917D02*
X7677Y1864D01*
X6624Y2560D02*
X7066Y3002D01*
X6624Y2281D02*
X7345Y3002D01*
X6624Y2806D02*
X7677Y1753D01*
X6624Y2583D02*
X7677Y1530D01*
X6624Y2862D02*
X7677Y1808D01*
X6624Y2750D02*
X7677Y1697D01*
X6624Y2695D02*
X7677Y1641D01*
X6610Y1933D02*
X7677Y3000D01*
X6624Y2639D02*
X7677Y1586D01*
X6624Y2528D02*
X7677Y1474D01*
X6609Y1930D02*
X7093Y1447D01*
X6624Y3251D02*
X6860Y3015D01*
X6624Y3061D02*
X6783Y3220D01*
X6624Y3172D02*
X6727Y3275D01*
X6624Y3116D02*
X6755Y3248D01*
X6624Y2949D02*
X6840Y3165D01*
X6624Y2894D02*
X6860Y3130D01*
X6624Y3005D02*
X6811Y3192D01*
X6624Y3283D02*
X6672Y3331D01*
X6624Y3228D02*
X6700Y3303D01*
X6624Y3339D02*
X6645Y3360D01*
X6624Y3363D02*
X6860Y3127D01*
X6624Y3307D02*
X6860Y3071D01*
X6624Y2008D02*
Y3376D01*
Y2727D02*
X6899Y3002D01*
X6624Y2671D02*
X6955Y3002D01*
X6624Y2838D02*
X6860Y3074D01*
X6624Y2782D02*
X6860Y3018D01*
X6624Y2615D02*
X7011Y3002D01*
X6590Y1894D02*
X7024Y1460D01*
X6565Y1863D02*
X6962Y1466D01*
X6537Y1835D02*
X6906Y1466D01*
X6509Y1807D02*
X6854Y1462D01*
X6481Y1779D02*
X6806Y1455D01*
X6453Y1752D02*
X6760Y1445D01*
X6624Y2361D02*
X7677Y1307D01*
X6624Y2305D02*
X7677Y1252D01*
X6624Y2472D02*
X7677Y1419D01*
X6624Y2416D02*
X7677Y1363D01*
X5264Y197D02*
X7677Y2610D01*
X5375Y197D02*
X7677Y2499D01*
X5319Y197D02*
X7677Y2555D01*
X4985Y197D02*
X7677Y2889D01*
X5041Y197D02*
X7677Y2833D01*
X4929Y197D02*
X7677Y2945D01*
X5152Y197D02*
X7677Y2722D01*
X5208Y197D02*
X7677Y2666D01*
X5097Y197D02*
X7677Y2777D01*
X6624Y2249D02*
X7677Y1196D01*
X6624Y2026D02*
X7284Y1366D01*
X6621Y1974D02*
X7174Y1421D01*
X6426Y1724D02*
X6717Y1433D01*
X6624Y2138D02*
X7677Y1085D01*
X6624Y2082D02*
X7677Y1029D01*
X6624Y2194D02*
X7677Y1140D01*
X6398Y1696D02*
X6676Y1418D01*
X6370Y1668D02*
X6637Y1401D01*
X6091Y1389D02*
X6563Y1862D01*
X6342Y1640D02*
X6601Y1382D01*
X6314Y1612D02*
X6566Y1361D01*
X6286Y1585D02*
X6532Y1339D01*
X6259Y1557D02*
X6501Y1314D01*
X6231Y1529D02*
X6471Y1289D01*
X6203Y1501D02*
X6443Y1261D01*
X6175Y1473D02*
X6416Y1232D01*
X6147Y1445D02*
X6391Y1202D01*
X6119Y1418D02*
X6368Y1169D01*
X6092Y1390D02*
X6346Y1135D01*
X6061Y1365D02*
X6326Y1100D01*
X5484Y1329D02*
X6314Y499D01*
X5317Y1329D02*
X6449Y197D01*
X5373Y1329D02*
X6505Y197D01*
X5429Y1329D02*
X6424Y334D01*
X6321Y197D02*
X6440Y316D01*
X6377Y197D02*
X6469Y288D01*
X6210Y197D02*
X6389Y376D01*
X6266Y197D02*
X6414Y345D01*
X6475Y282D02*
X6561Y197D01*
X6488D02*
X6530Y238D01*
X6433Y197D02*
X6498Y262D01*
X5206Y1329D02*
X6338Y197D01*
X5262Y1329D02*
X6394Y197D01*
X5431D02*
X6319Y1085D01*
X6099Y197D02*
X6344Y442D01*
X6154Y197D02*
X6366Y408D01*
X6043Y197D02*
X6324Y478D01*
X5873Y6207D02*
X6309Y6643D01*
X5908Y6186D02*
X6309Y6587D01*
X5796Y6241D02*
X6309Y6754D01*
X5836Y6226D02*
X6309Y6699D01*
X5940Y6163D02*
X6309Y6532D01*
X5970Y6137D02*
X6309Y6476D01*
X5757Y6345D02*
X5940Y6162D01*
X5657Y6269D02*
X5725Y6338D01*
X5469Y6355D02*
X5559Y6265D01*
X5544Y6336D02*
X5610Y6269D01*
X5753Y6254D02*
X5920Y6421D01*
X5711Y6335D02*
X5811Y6236D01*
X5707Y6264D02*
X5803Y6359D01*
X6132Y5637D02*
X6309Y5460D01*
X6132Y5581D02*
X6281Y5432D01*
X6132Y5525D02*
X6253Y5404D01*
X6132Y5470D02*
X6225Y5376D01*
X6132Y5414D02*
X6198Y5348D01*
X6132Y5358D02*
X6170Y5320D01*
X6132Y5282D02*
Y5768D01*
X5601Y6269D02*
X5662Y6330D01*
X5606Y6329D02*
X5667Y6268D01*
X5537Y6261D02*
X5606Y6329D01*
X5661Y6330D02*
X5732Y6259D01*
X5461Y6240D02*
X5555Y6334D01*
X4933Y6214D02*
X5237Y6518D01*
X5363Y6406D02*
X5513Y6256D01*
X4933Y6325D02*
X5193Y6584D01*
X4933Y6269D02*
X5214Y6550D01*
X4933Y6557D02*
X5324Y6166D01*
X4933Y6501D02*
X5294Y6141D01*
X4933Y6446D02*
X5266Y6113D01*
X4933Y6780D02*
X5469Y6243D01*
X4933Y6724D02*
X5429Y6228D01*
X4933Y6381D02*
X5174Y6621D01*
X4933Y6668D02*
X5392Y6210D01*
X4933Y6613D02*
X5357Y6189D01*
X4933Y6201D02*
Y7421D01*
Y6390D02*
X5240Y6083D01*
X5348Y6183D02*
X5508Y6344D01*
X4933Y6334D02*
X5216Y6051D01*
X4933Y6279D02*
X5194Y6017D01*
X4933Y6223D02*
X5175Y5981D01*
X4915Y5305D02*
X5128Y5518D01*
Y5256D02*
Y5768D01*
X4915Y5193D02*
X5128Y5406D01*
X4915Y5138D02*
X5128Y5351D01*
X4915Y5249D02*
X5128Y5462D01*
X4915Y5350D02*
X5147Y5118D01*
X4915Y5026D02*
X5128Y5240D01*
X4915Y5082D02*
X5128Y5295D01*
X5811Y4788D02*
X5863Y4736D01*
X5400Y4810D02*
X5526Y4684D01*
X5693Y4691D02*
X5779Y4776D01*
X5863Y4637D02*
Y4811D01*
X5740Y4683D02*
X5863Y4805D01*
X4915Y5127D02*
X5402Y4640D01*
X4915Y5239D02*
X5481Y4672D01*
X4915Y5183D02*
X5440Y4658D01*
X4915Y5072D02*
X5367Y4620D01*
X4915Y4358D02*
X5378Y4822D01*
X4915Y4302D02*
X5415Y4802D01*
X4915Y5016D02*
X5333Y4598D01*
X5770Y4774D02*
X5863Y4680D01*
X5676Y4756D02*
X5753Y4680D01*
X5641Y4695D02*
X5706Y4760D01*
X5623Y4754D02*
X5685Y4692D01*
X5784Y4671D02*
X5863Y4750D01*
X5825Y4656D02*
X5863Y4694D01*
X5725Y4763D02*
X5838Y4650D01*
X5562Y4759D02*
X5626Y4695D01*
X5584Y4693D02*
X5645Y4754D01*
X5492Y4773D02*
X5573Y4692D01*
X5517Y4682D02*
X5591Y4755D01*
X5435Y4655D02*
X5541Y4762D01*
X4915Y4692D02*
X5207Y4985D01*
X4915Y4637D02*
X5230Y4952D01*
X4915Y4804D02*
X5169Y5057D01*
X4915Y4748D02*
X5187Y5020D01*
X4915Y4960D02*
X5302Y4573D01*
X4915Y4905D02*
X5273Y4546D01*
X4915Y4581D02*
X5256Y4922D01*
X4915Y5295D02*
X5184Y5026D01*
X4915Y4915D02*
X5141Y5141D01*
X4915Y4971D02*
X5133Y5188D01*
X4915Y4915D02*
X5141Y5141D01*
X4915Y4859D02*
X5153Y5098D01*
X4915Y4172D02*
Y5356D01*
Y4525D02*
X5283Y4893D01*
X4915Y4738D02*
X5200Y4452D01*
X4915Y4682D02*
X5181Y4417D01*
X4915Y4626D02*
X5163Y4378D01*
X4915Y4571D02*
X5149Y4337D01*
X4915Y4515D02*
X5138Y4292D01*
X5128Y3727D02*
Y4193D01*
X4915Y4459D02*
X5131Y4244D01*
X4915Y4404D02*
X5128Y4191D01*
X4915Y4348D02*
X5128Y4135D01*
X4915Y4237D02*
X5128Y4024D01*
X4915Y4181D02*
X5128Y3968D01*
X4915Y4292D02*
X5128Y4079D01*
X4844Y6201D02*
X5145Y5899D01*
X4900Y6201D02*
X5159Y5941D01*
X4343Y6201D02*
X5128Y5416D01*
X4788Y6201D02*
X5135Y5854D01*
X4409Y5356D02*
X5426Y6372D01*
X4465Y5356D02*
X5466Y6356D01*
X4354Y5356D02*
X5388Y6391D01*
X4242Y5356D02*
X5321Y6435D01*
X4298Y5356D02*
X5354Y6412D01*
X4287Y6201D02*
X5128Y5360D01*
X4131Y5356D02*
X5263Y6488D01*
X4187Y5356D02*
X5291Y6460D01*
X4176Y6201D02*
X5128Y5249D01*
X4915Y4849D02*
X5247Y4517D01*
X4915Y4793D02*
X5222Y4486D01*
X4743Y5356D02*
X5128Y5740D01*
X4799Y5356D02*
X5128Y5685D01*
X4915Y4414D02*
X5344Y4843D01*
X4915Y4247D02*
X5454Y4786D01*
X4915Y4470D02*
X5312Y4867D01*
X4733Y6201D02*
X5129Y5804D01*
X4632Y5356D02*
X5137Y5860D01*
X4688Y5356D02*
X5129Y5797D01*
X4521Y5356D02*
X5215Y6050D01*
X4576Y5356D02*
X5157Y5937D01*
X4120Y6201D02*
X5133Y5188D01*
X4677Y6201D02*
X5128Y5750D01*
X4621Y6201D02*
X5128Y5694D01*
X4865Y6201D02*
X4933Y6269D01*
X4433Y6201D02*
X4933D01*
X4510D02*
X5128Y5583D01*
X4454Y6201D02*
X5128Y5527D01*
X4565Y6201D02*
X5128Y5638D01*
X4075Y5356D02*
X4920Y6201D01*
X4398D02*
X5128Y5471D01*
X4362Y6201D02*
X4433D01*
X4020Y5356D02*
X4865Y6201D01*
X4064D02*
X4909Y5356D01*
X4009Y6201D02*
X4854Y5356D01*
X4855D02*
X5128Y5629D01*
X4910Y5356D02*
X5128Y5573D01*
X4415Y5356D02*
X4915D01*
X4854D02*
X4915Y5295D01*
X4362Y6201D02*
X4433D01*
X4380Y5356D02*
X4415D01*
X4380D02*
X4415D01*
X4231Y6201D02*
X5128Y5304D01*
X4915Y4191D02*
X5496Y4772D01*
X4869Y4172D02*
X5128Y3912D01*
X4840Y4172D02*
X4915Y4247D01*
X4813Y4172D02*
X5128Y3857D01*
X4702Y4172D02*
X5128Y3745D01*
X4757Y4172D02*
X5128Y3801D01*
X4646Y4172D02*
X5109Y3708D01*
X4488Y3709D02*
X5167Y4388D01*
X4488Y3653D02*
X5141Y4306D01*
X4590Y4172D02*
X5081Y3681D01*
X4488Y3597D02*
X5130Y4239D01*
X4488Y3542D02*
X5128Y4181D01*
X4535Y4172D02*
X5053Y3653D01*
X4488Y4162D02*
X5026Y3625D01*
X4488Y4107D02*
X4998Y3597D01*
X4488Y3820D02*
X4840Y4172D01*
X4488Y3764D02*
X4895Y4172D01*
X4488Y3486D02*
X5128Y4126D01*
X4488Y4051D02*
X4970Y3569D01*
X4488Y3828D02*
X4859Y3458D01*
X4415Y4172D02*
X4915D01*
X4488Y3995D02*
X4942Y3541D01*
X4488Y3940D02*
X4914Y3514D01*
X4488Y3884D02*
X4886Y3486D01*
X4381Y2981D02*
X5128Y3727D01*
X4488Y3773D02*
X4831Y3430D01*
X4488Y3987D02*
X4673Y4172D01*
X4488Y3931D02*
X4728Y4172D01*
X4488Y4098D02*
X4561Y4172D01*
X4488Y4043D02*
X4617Y4172D01*
X4488Y3876D02*
X4784Y4172D01*
X4488Y3717D02*
X4803Y3402D01*
X4488Y3473D02*
Y4165D01*
X4380Y4172D02*
X4415D01*
X4430Y4165D02*
X4488Y4107D01*
X4380Y4172D02*
X4415D01*
X4488Y3661D02*
X4775Y3374D01*
X4488Y3606D02*
X4747Y3347D01*
X4488Y3550D02*
X4719Y3319D01*
X4419Y3473D02*
X4488Y3542D01*
Y3494D02*
X4691Y3291D01*
X4454Y3473D02*
X4664Y3263D01*
X4398Y3473D02*
X4636Y3235D01*
X4287Y3473D02*
X4580Y3180D01*
X4343Y3473D02*
X4608Y3207D01*
X4231Y3473D02*
X4552Y3152D01*
X4120Y3473D02*
X4497Y3096D01*
X4175Y3473D02*
X4524Y3124D01*
X4064Y3473D02*
X4469Y3068D01*
X6039Y3391D02*
X6211Y3219D01*
X6110Y3376D02*
X6211Y3275D01*
X6073Y3376D02*
X6211D01*
X6165D02*
X6211Y3331D01*
X5989Y3330D02*
X6211Y3108D01*
X5960Y3303D02*
X6211Y3052D01*
X6015Y3359D02*
X6211Y3164D01*
X5929Y3278D02*
X6211Y2997D01*
X5953Y3002D02*
X6211Y3260D01*
X5888Y3049D02*
X6211Y3371D01*
X5922Y3027D02*
X6211Y3315D01*
X5861Y3235D02*
X6211Y2885D01*
X5823Y3218D02*
X6211Y2830D01*
X5896Y3256D02*
X6211Y2941D01*
X6121Y2724D02*
X6211Y2814D01*
X6128Y2676D02*
X6211Y2759D01*
X6094Y2809D02*
X6211Y2926D01*
X6109Y2768D02*
X6211Y2870D01*
X6132Y2624D02*
X6211Y2703D01*
X6127Y2691D02*
X6211Y2607D01*
X6111Y2763D02*
X6211Y2663D01*
X6009Y2947D02*
X6211Y3148D01*
X6034Y2916D02*
X6211Y3093D01*
X5982Y2976D02*
X6211Y3204D01*
X5782Y3203D02*
X6211Y2774D01*
X6071Y2858D02*
X6211Y2718D01*
X6077Y2847D02*
X6211Y2981D01*
X6073Y3376D02*
Y3445D01*
Y3413D02*
X6110Y3376D01*
X5727Y3111D02*
X5844Y3227D01*
X5679Y3118D02*
X5757Y3195D01*
X5814Y3085D02*
X6104Y3376D01*
X5852Y3068D02*
X6160Y3376D01*
X5772Y3100D02*
X6073Y3400D01*
X5430Y3221D02*
X5539Y3112D01*
X5290Y3305D02*
X5494Y3101D01*
X5262Y3277D02*
X5452Y3087D01*
X5234Y3249D02*
X5413Y3071D01*
X5207Y3221D02*
X5376Y3051D01*
X5626Y3120D02*
X5688Y3183D01*
X5638Y3179D02*
X5703Y3115D01*
X5580Y3182D02*
X5642Y3120D01*
X5566Y3116D02*
X5629Y3179D01*
X5738Y3191D02*
X5870Y3059D01*
X6056Y2883D02*
X6211Y3037D01*
X5690Y3183D02*
X5774Y3099D01*
X5513Y3193D02*
X5588Y3118D01*
X5496Y3102D02*
X5576Y3182D01*
X5406Y3067D02*
X5528Y3190D01*
X5179Y3193D02*
X5342Y3030D01*
X5151Y3166D02*
X5311Y3006D01*
X6132Y2179D02*
X6211Y2257D01*
X6132Y2240D02*
X6211Y2161D01*
X6132Y2401D02*
X6211Y2480D01*
X6132Y2463D02*
X6211Y2384D01*
X6025Y1345D02*
X6308Y1062D01*
X5982Y1332D02*
X6292Y1022D01*
X6132Y2123D02*
X6211Y2202D01*
X5874Y1329D02*
X6267Y936D01*
X5930Y1329D02*
X6278Y981D01*
X5818Y1329D02*
X6258Y890D01*
X5540Y1329D02*
X6280Y589D01*
X5150Y1329D02*
X6282Y197D01*
X5596Y1329D02*
X6261Y663D01*
X5932Y197D02*
X6291Y556D01*
X5987Y197D02*
X6307Y516D01*
X5763Y1329D02*
X6252Y840D01*
X5876Y197D02*
X6277Y598D01*
X5765Y197D02*
X6257Y689D01*
X5820Y197D02*
X6266Y642D01*
X5709Y197D02*
X6252Y740D01*
X5651Y1329D02*
X6253Y728D01*
X5653Y197D02*
X6250Y794D01*
X5707Y1329D02*
X6250Y786D01*
X5486Y197D02*
X6282Y992D01*
X5542Y197D02*
X6263Y917D01*
X5598Y197D02*
X6253Y852D01*
X6132Y2574D02*
X6211Y2496D01*
X6132Y2457D02*
X6211Y2536D01*
X6132Y2569D02*
X6211Y2647D01*
X6132Y2513D02*
X6211Y2592D01*
Y2093D02*
Y3376D01*
X6132Y2407D02*
X6211Y2329D01*
X6132Y2106D02*
Y2618D01*
Y2519D02*
X6211Y2440D01*
X6132Y2346D02*
X6211Y2425D01*
X6132Y2630D02*
X6211Y2551D01*
X6132Y2290D02*
X6211Y2369D01*
X6132Y2352D02*
X6211Y2273D01*
X5128Y2106D02*
Y2618D01*
X6132Y2234D02*
X6211Y2313D01*
X6132Y2296D02*
X6211Y2217D01*
X6132Y2185D02*
X6211Y2106D01*
X6132Y2129D02*
X6189Y2072D01*
X6130Y2066D02*
X6211Y2146D01*
X6121Y2004D02*
X6211Y2093D01*
X6131Y2074D02*
X6161Y2044D01*
X5194Y1742D02*
X5241Y1789D01*
X5138Y1742D02*
X5217Y1821D01*
X5123Y3138D02*
X5281Y2979D01*
X5095Y3110D02*
X5254Y2951D01*
X5067Y3082D02*
X5229Y2920D01*
X5039Y3054D02*
X5206Y2887D01*
X4869Y2586D02*
X5484Y3201D01*
X5012Y3026D02*
X5186Y2852D01*
X4984Y2999D02*
X5168Y2814D01*
X4758Y2753D02*
X5304Y3299D01*
X4787Y2726D02*
X5335Y3275D01*
X4747Y2762D02*
X5294Y3308D01*
X4835Y2663D02*
X5404Y3233D01*
X4854Y2626D02*
X5443Y3215D01*
X4812Y2696D02*
X5368Y3253D01*
X4956Y2971D02*
X5153Y2774D01*
X4880Y2541D02*
X5181Y2842D01*
X4928Y2943D02*
X5141Y2730D01*
X4900Y2915D02*
X5132Y2683D01*
X5027Y1742D02*
X5176Y1891D01*
X5083Y1742D02*
X5195Y1855D01*
X4885Y2491D02*
X5146Y2752D01*
X4819Y2273D02*
X5159Y1933D01*
X4794Y2242D02*
X5222Y1814D01*
X4840Y2307D02*
X5137Y2010D01*
X4766Y2214D02*
X5238Y1742D01*
X4735Y2189D02*
X5182Y1742D01*
X4860D02*
X5136Y2018D01*
X4872Y2887D02*
X5128Y2632D01*
X4845Y2859D02*
X5128Y2576D01*
X4817Y2832D02*
X5128Y2520D01*
X4789Y2804D02*
X5128Y2465D01*
X4882Y2432D02*
X5132Y2682D01*
X4863Y2358D02*
X5128Y2622D01*
X4853Y2629D02*
X5128Y2353D01*
X4321Y2772D02*
Y2835D01*
X4761Y2776D02*
X5128Y2409D01*
X4882Y2433D02*
X5128Y2186D01*
X4872Y2386D02*
X5128Y2131D01*
X4879Y2547D02*
X5128Y2298D01*
X4885Y2485D02*
X5128Y2242D01*
X4858Y2345D02*
X5129Y2074D01*
X4804Y1742D02*
X5129Y2067D01*
X4749Y1742D02*
X5128Y2121D01*
X4081Y1742D02*
X4467Y2128D01*
X4192Y1742D02*
X4576Y2126D01*
X4025Y1742D02*
X4422Y2139D01*
X4303Y1742D02*
X5128Y2567D01*
X4526Y1742D02*
X5128Y2344D01*
X4248Y1742D02*
X4650Y2145D01*
X4874Y197D02*
X6020Y1343D01*
X4928Y1329D02*
X6060Y197D01*
X4818D02*
X5950Y1329D01*
X4872Y1329D02*
X6004Y197D01*
X5039Y1329D02*
X6171Y197D01*
X5095Y1329D02*
X6227Y197D01*
X4983Y1329D02*
X6115Y197D01*
X4705Y1329D02*
X5837Y197D01*
X4707D02*
X5839Y1329D01*
X4651Y197D02*
X5783Y1329D01*
X4762Y197D02*
X5894Y1329D01*
X4816D02*
X5948Y197D01*
X4761Y1329D02*
X5893Y197D01*
X4538Y1329D02*
X5670Y197D01*
X4540D02*
X5672Y1329D01*
X4482D02*
X5614Y197D01*
X4484D02*
X5616Y1329D01*
X4595Y197D02*
X5727Y1329D01*
X4649D02*
X5781Y197D01*
X4594Y1329D02*
X5725Y197D01*
X4317D02*
X5449Y1329D01*
X4371D02*
X5503Y197D01*
X4315Y1329D02*
X5447Y197D01*
X4427Y1329D02*
X5558Y197D01*
X4428D02*
X5560Y1329D01*
X4373Y197D02*
X5505Y1329D01*
X4582Y1742D02*
X5128Y2288D01*
X4637Y1742D02*
X5128Y2233D01*
X4622Y2136D02*
X5015Y1742D01*
X4576Y2126D02*
X4960Y1742D01*
X4693D02*
X5128Y2177D01*
X4701Y2168D02*
X5127Y1742D01*
X4663Y2150D02*
X5071Y1742D01*
X4359D02*
X5128Y2511D01*
X4380Y2155D02*
X4793Y1742D01*
X4136D02*
X4517Y2123D01*
X4415Y1742D02*
X5128Y2455D01*
X4470Y1742D02*
X5128Y2400D01*
X4461Y2129D02*
X4848Y1742D01*
X4971D02*
X5160Y1930D01*
X4261Y197D02*
X5393Y1329D01*
X4523Y2123D02*
X4904Y1742D01*
X4916D02*
X5146Y1972D01*
X4206Y197D02*
X5338Y1329D01*
X4260D02*
X5391Y197D01*
X4204Y1329D02*
X5336Y197D01*
X4039D02*
X5171Y1329D01*
X4092D02*
X5224Y197D01*
X4037Y1329D02*
X5169Y197D01*
X4148Y1329D02*
X5280Y197D01*
X4150D02*
X5282Y1329D01*
X4094Y197D02*
X5226Y1329D01*
X3760Y15453D02*
X3859Y15551D01*
X3789D02*
X3888Y15453D01*
X3705D02*
X3803Y15551D01*
X3734D02*
X3832Y15453D01*
X3845Y15551D02*
X3944Y15453D01*
X3927D02*
X4026Y15551D01*
X3816Y15453D02*
X3914Y15551D01*
X3511D02*
X3610Y15453D01*
X3593D02*
X3692Y15551D01*
X3315Y15453D02*
X3413Y15551D01*
X3482Y15453D02*
X3580Y15551D01*
X3649Y15453D02*
X3747Y15551D01*
X3678D02*
X3777Y15453D01*
X3622Y15551D02*
X3721Y15453D01*
X3400Y15551D02*
X3498Y15453D01*
X3426D02*
X3525Y15551D01*
X3402Y15453D02*
X3472D01*
X3402D02*
X3472D01*
X3902D01*
X3972D01*
X3455Y15551D02*
X3554Y15453D01*
X3259D02*
X3358Y15551D01*
X2902Y15453D02*
X3402D01*
X3233Y15551D02*
X3331Y15453D01*
X3344Y15551D02*
X3442Y15453D01*
X3371D02*
X3469Y15551D01*
X3288D02*
X3387Y15453D01*
X2455Y15483D02*
X2523Y15551D01*
X2509D02*
X2577Y15483D01*
X2399D02*
X2467Y15551D01*
X2453D02*
X2521Y15483D01*
X2566D02*
X2634Y15551D01*
X2608Y15470D02*
X2690Y15551D01*
X2510Y15483D02*
X2578Y15551D01*
X2286D02*
X2354Y15483D01*
X2288D02*
X2355Y15551D01*
X2232Y15483D02*
X2300Y15551D01*
X2343Y15483D02*
X2411Y15551D01*
X2398D02*
X2465Y15483D01*
X2342Y15551D02*
X2410Y15483D01*
X3092Y15453D02*
X3191Y15551D01*
X3121D02*
X3220Y15453D01*
X3037D02*
X3135Y15551D01*
X3066D02*
X3164Y15453D01*
X3177Y15551D02*
X3275Y15453D01*
X3204D02*
X3302Y15551D01*
X3148Y15453D02*
X3246Y15551D01*
X2899D02*
X2997Y15453D01*
X2925D02*
X3024Y15551D01*
X2843D02*
X2941Y15453D01*
X2981D02*
X3079Y15551D01*
X3010D02*
X3108Y15453D01*
X2954Y15551D02*
X3053Y15453D01*
X3957Y15551D02*
X4055Y15453D01*
X3983D02*
X4082Y15551D01*
X3872Y15453D02*
X3970Y15551D01*
X3901D02*
X3999Y15453D01*
X3538D02*
X3636Y15551D01*
X3567D02*
X3665Y15453D01*
X2787Y15551D02*
X2902Y15437D01*
X2676Y15551D02*
X2902Y15326D01*
X2620Y15551D02*
X2902Y15270D01*
X2732Y15551D02*
X2902Y15381D01*
X2608Y15247D02*
X2912Y15551D01*
X2608Y15192D02*
X2968Y15551D01*
X2565D02*
X2902Y15214D01*
X3902Y15453D02*
X3972D01*
X4402D01*
X2902Y15429D02*
X2925Y15453D01*
X2902Y15373D02*
X2981Y15453D01*
X3909Y8474D02*
X5184Y9750D01*
X3964Y8474D02*
X5204Y9714D01*
X2902Y15157D02*
Y15453D01*
X2630Y15157D02*
X2902Y15429D01*
X2608Y15157D02*
X2902D01*
X2608Y15452D02*
X2902Y15158D01*
X2741Y15157D02*
X2902Y15318D01*
X2797Y15157D02*
X2902Y15262D01*
X2686Y15157D02*
X2902Y15373D01*
X2608Y15359D02*
X2801Y15551D01*
X2608Y15303D02*
X2857Y15551D01*
X2608Y15414D02*
X2745Y15551D01*
X2608Y15157D02*
Y15483D01*
Y15396D02*
X2847Y15157D01*
X2853D02*
X2902Y15206D01*
X2608Y15285D02*
X2736Y15157D01*
X2521Y15483D02*
X2608Y15396D01*
Y15340D02*
X2791Y15157D01*
X2577Y15483D02*
X2608Y15452D01*
Y15229D02*
X2680Y15157D01*
X2369Y9385D02*
X2549Y9565D01*
Y9293D02*
Y9582D01*
X2424Y9512D02*
X2549Y9386D01*
X2412Y9371D02*
X2549Y9509D01*
X2499Y9548D02*
X2549Y9498D01*
X2463Y9528D02*
X2549Y9442D01*
X2382Y9498D02*
X2549Y9331D01*
X2487Y9336D02*
X2549Y9398D01*
X2451Y9355D02*
X2549Y9453D01*
X2324Y9395D02*
X2453Y9524D01*
X2273Y9400D02*
X2367Y9494D01*
X2234Y9478D02*
X2317Y9396D01*
X2337Y9487D02*
X2490Y9334D01*
X2288Y9480D02*
X2390Y9379D01*
X2065Y15483D02*
X2133Y15551D01*
X2119D02*
X2187Y15483D01*
X2009D02*
X2077Y15551D01*
X2063D02*
X2131Y15483D01*
X2176D02*
X2244Y15551D01*
X2230D02*
X2298Y15483D01*
X2175Y15551D02*
X2243Y15483D01*
X2008Y15551D02*
X2076Y15483D01*
X1037Y15551D02*
X7677D01*
X1896D02*
X1964Y15483D01*
X1952Y15551D02*
X2020Y15483D01*
X1803Y15388D02*
X1966Y15551D01*
X1803Y15333D02*
X2021Y15551D01*
X1729D02*
X1959Y15322D01*
X2121Y15483D02*
X2188Y15551D01*
X1959Y15483D02*
X2608D01*
X1841Y15551D02*
X1959Y15433D01*
Y15433D02*
X2009Y15483D01*
X1803Y15422D02*
X1959Y15266D01*
X1803Y14831D02*
X1959Y14987D01*
X1803Y15277D02*
X1959Y15433D01*
X1803Y15221D02*
X1959Y15377D01*
X1803Y15366D02*
X1959Y15211D01*
X1785Y15551D02*
X1959Y15378D01*
X1803Y14553D02*
X1959Y14709D01*
X1803Y14698D02*
X1959Y14542D01*
X1803Y15165D02*
X1959Y15321D01*
X1803Y15110D02*
X1959Y15266D01*
X1803Y15255D02*
X1959Y15099D01*
X1803Y15444D02*
X1910Y15551D01*
X1803Y15311D02*
X1959Y15155D01*
X1803Y15144D02*
X1959Y14988D01*
X1803Y14943D02*
X1959Y15099D01*
X1803Y15054D02*
X1959Y15210D01*
X1768Y15465D02*
X1854Y15551D01*
X1189Y15465D02*
X1803D01*
X1713D02*
X1799Y15551D01*
X1803Y15199D02*
X1959Y15044D01*
X1803Y14998D02*
X1959Y15154D01*
X1760Y15465D02*
X1803Y15422D01*
Y15032D02*
X1959Y14876D01*
X1803Y14977D02*
X1959Y14821D01*
X1803Y15088D02*
X1959Y14932D01*
X1803Y14887D02*
X1959Y15043D01*
X1803Y14921D02*
X1959Y14765D01*
X1803Y14720D02*
X1959Y14876D01*
X1803Y14776D02*
X1959Y14932D01*
X1803Y14664D02*
X1959Y14820D01*
X1803Y14810D02*
X1959Y14654D01*
X1803Y14865D02*
X1959Y14709D01*
X1803Y14609D02*
X1959Y14765D01*
X1803Y14754D02*
X1959Y14598D01*
X1731Y14537D02*
X1803Y14609D01*
X1959Y14598D02*
X2038Y14519D01*
X1959D02*
X2047D01*
X1959Y14542D02*
X1982Y14519D01*
X2013Y14488D01*
X1961D02*
X1991Y14519D01*
X2016Y14488D02*
X2047Y14519D01*
X1849Y14488D02*
X1959Y14598D01*
X1191Y10299D02*
X2108Y9382D01*
X1732Y14488D02*
X2028D01*
X1191Y10243D02*
X2067Y9368D01*
X1753Y9626D02*
X2028Y9350D01*
X1762Y9561D02*
X1992Y9331D01*
X2174Y9483D02*
X2256Y9401D01*
X2218Y9400D02*
X2299Y9481D01*
X2103Y9499D02*
X2202Y9399D01*
X2155Y9393D02*
X2240Y9478D01*
X2009Y9537D02*
X2153Y9393D01*
X2078Y9372D02*
X2188Y9482D01*
X1958Y9308D02*
X2140Y9489D01*
X1762Y9334D02*
X1981Y9553D01*
X1762Y9278D02*
X2016Y9533D01*
X1762Y9506D02*
X1959Y9308D01*
X1762Y9167D02*
X2096Y9501D01*
X1762Y9223D02*
X2055Y9515D01*
X1959Y14519D02*
Y15483D01*
X1905Y14488D02*
X1959Y14542D01*
X1803Y14537D02*
Y15465D01*
Y14587D02*
X1902Y14488D01*
X1794D02*
X1959Y14653D01*
X1803Y14643D02*
X1957Y14488D01*
X1797Y14537D02*
X1846Y14488D01*
X1189Y14537D02*
X1803D01*
X1742D02*
X1790Y14488D01*
X1188Y11360D02*
X1808Y10740D01*
X1199Y10219D02*
X1790Y10810D01*
X1762Y9501D02*
X1888Y9627D01*
X1762Y9445D02*
X1916Y9600D01*
X1797Y10806D02*
X1829Y10775D01*
X1762Y9557D02*
X1861Y9656D01*
X1762Y9390D02*
X1947Y9575D01*
X1762Y9450D02*
X1928Y9284D01*
X1762Y9394D02*
X1899Y9257D01*
X1227Y10191D02*
X1831Y10795D01*
X1191Y10355D02*
X1801Y9745D01*
X1744Y9650D02*
X1814Y9721D01*
X1757Y9608D02*
X1837Y9687D01*
X1725Y9687D02*
X1795Y9757D01*
X3986Y8618D02*
X4129Y8474D01*
X3936Y8612D02*
X4074Y8474D01*
X3852Y8473D02*
X4001Y8622D01*
X3880Y8612D02*
X4018Y8474D01*
X3824Y8612D02*
X3962Y8474D01*
X3770Y8447D02*
X3935Y8612D01*
X2835D02*
X3937D01*
X3713D02*
X3852Y8473D01*
X3769Y8612D02*
X3907Y8474D01*
X3435Y8612D02*
X3683Y8364D01*
X3367Y8100D02*
X3880Y8612D01*
X3379D02*
X3665Y8326D01*
X3878Y8474D02*
X4902D01*
X3602Y8612D02*
X3768Y8446D01*
X3657Y8612D02*
X3807Y8463D01*
X3617Y8238D02*
X3653Y8274D01*
X3573Y8238D02*
X3652D01*
X3490Y8612D02*
X3707Y8396D01*
X3546Y8612D02*
X3735Y8423D01*
X3323Y8612D02*
X3654Y8281D01*
X3293Y8081D02*
X3824Y8612D01*
X3423Y8100D02*
X3679Y8356D01*
X3268Y8612D02*
X3642Y8238D01*
X3156Y8612D02*
X3573Y8196D01*
X3212Y8612D02*
X3586Y8238D01*
X3045Y8612D02*
X3557Y8100D01*
X3101Y8612D02*
X3573Y8140D01*
X2934Y8612D02*
X3445Y8100D01*
X2989Y8612D02*
X3501Y8100D01*
X2878Y8612D02*
X3390Y8100D01*
X2822Y8613D02*
X3339Y8096D01*
X2728Y8518D02*
X2822Y8613D01*
X2728Y8574D02*
X2775Y8621D01*
X2747Y8632D02*
X3296Y8083D01*
X2728Y8595D02*
X3260Y8063D01*
X2728Y8539D02*
X3229Y8039D01*
X3573Y8194D02*
X3617Y8238D01*
X3535Y8100D02*
X3573Y8138D01*
Y8100D02*
Y8238D01*
X3479Y8100D02*
X3573Y8194D01*
X3384Y8100D02*
X3573D01*
X3478Y7648D02*
X3573D01*
X2728Y8484D02*
X3201Y8011D01*
X2728Y8428D02*
X3173Y7983D01*
X2988Y7798D02*
X3223Y8034D01*
X3869Y7510D02*
X3957Y7421D01*
X3914D02*
X4002Y7510D01*
X3813D02*
X3902Y7421D01*
X3858D02*
X3946Y7510D01*
X3969Y7421D02*
X4058Y7510D01*
X3980D02*
X4069Y7421D01*
X3925Y7510D02*
X4013Y7421D01*
X3465Y7635D02*
X3573Y7527D01*
Y7583D02*
X3646Y7510D01*
X3573D02*
Y7648D01*
X3802Y7421D02*
X3891Y7510D01*
X3573D02*
X4183D01*
X3437Y7607D02*
X3623Y7421D01*
X3747D02*
X3835Y7510D01*
X3758D02*
X3846Y7421D01*
X3691D02*
X3779Y7510D01*
X3702D02*
X3790Y7421D01*
X3862D02*
X3933D01*
X4362D01*
X3862D02*
X3933D01*
X3579D02*
X3668Y7510D01*
X3433Y7421D02*
X3862D01*
X3524D02*
X3612Y7510D01*
X3635Y7421D02*
X3724Y7510D01*
X3646D02*
X3735Y7421D01*
X3590Y7510D02*
X3679Y7421D01*
X3508Y7648D02*
X3573Y7583D01*
X3412Y7421D02*
X3573Y7582D01*
X3374Y7544D02*
X3478Y7648D01*
X3468Y7421D02*
X3573Y7526D01*
X3409Y7579D02*
X3568Y7421D01*
X3382Y7552D02*
X3512Y7421D01*
X3374Y7448D02*
X3401Y7421D01*
X3374Y7494D02*
X3527Y7648D01*
X3374Y7439D02*
X3573Y7637D01*
X3374Y7504D02*
X3456Y7421D01*
X2921D02*
Y7638D01*
X3374Y7421D02*
Y7544D01*
X2728Y7294D02*
X2921Y7487D01*
X3374Y7421D02*
X3433D01*
X3374D02*
X3433D01*
X2862Y7372D02*
X2911Y7421D01*
X2862D02*
X2921D01*
X2728Y7238D02*
X2862Y7372D01*
X2728Y7182D02*
X2862Y7316D01*
X2728Y6831D02*
Y7343D01*
Y7127D02*
X2862Y7261D01*
X2728Y7259D02*
X2862Y7125D01*
X2728Y7314D02*
X2862Y7180D01*
X2728Y7203D02*
X2862Y7069D01*
X2728Y7015D02*
X2862Y7149D01*
X2728Y7071D02*
X2862Y7205D01*
X2728Y8463D02*
X2877Y8612D01*
X2728Y8406D02*
Y8642D01*
X2711Y8279D02*
X3044Y8612D01*
X2677Y8189D02*
X3100Y8612D01*
X2725Y8348D02*
X2989Y8612D01*
X2357Y7813D02*
X3156Y8612D01*
X2521Y9314D02*
X2549Y9342D01*
X2440Y7785D02*
X3267Y8612D01*
X2477Y7767D02*
X3323Y8612D01*
X2400Y7801D02*
X3211Y8612D01*
X2727Y8373D02*
X3145Y7955D01*
X2721Y8324D02*
X3117Y7927D01*
X2728Y8407D02*
X2933Y8612D01*
X2711Y8278D02*
X3089Y7900D01*
X2697Y8236D02*
X3061Y7872D01*
X2681Y8197D02*
X3034Y7844D01*
X2661Y8161D02*
X3006Y7816D01*
X2310Y7822D02*
X2461Y7973D01*
X2258Y7826D02*
X2371Y7939D01*
X2640Y8127D02*
X2978Y7788D01*
X2286Y7923D02*
X2414Y7796D01*
X2232Y7922D02*
X2336Y7818D01*
X1762Y9339D02*
X1873Y9228D01*
X1762Y9283D02*
X1849Y9196D01*
X1762Y9227D02*
X1827Y9162D01*
X1762Y9171D02*
X1807Y9126D01*
X1762Y9111D02*
X1854Y9203D01*
X1762Y9116D02*
X1791Y9087D01*
X1762Y8225D02*
X1828Y8159D01*
X1762Y8165D02*
X1803Y8206D01*
X1762Y9056D02*
X1790Y9083D01*
X1762Y8169D02*
X2121Y7810D01*
X1762Y8053D02*
X1843Y8135D01*
X1762Y8109D02*
X1822Y8169D01*
X2171Y7927D02*
X2273Y7826D01*
X2201Y7824D02*
X2302Y7925D01*
X1762Y7942D02*
X1893Y8073D01*
X2098Y7944D02*
X2217Y7826D01*
X2052Y7786D02*
X2190Y7925D01*
X2135Y7814D02*
X2243Y7922D01*
X1998Y7989D02*
X2167Y7820D01*
X1762Y7886D02*
X1921Y8045D01*
X1762Y7831D02*
X1951Y8020D01*
X1762Y7998D02*
X1867Y8103D01*
X1762Y8114D02*
X2078Y7797D01*
X1762Y8058D02*
X2039Y7781D01*
X1762Y7775D02*
X1984Y7997D01*
X2602Y7668D02*
X3546Y8612D01*
X2627Y7638D02*
X3601Y8612D01*
X2615Y8095D02*
X2955Y7756D01*
X2589Y8066D02*
X2936Y7719D01*
X2671Y7571D02*
X3713Y8612D01*
X2689Y7533D02*
X3768Y8612D01*
X2650Y7606D02*
X3657Y8612D01*
X2544Y7722D02*
X3434Y8612D01*
X2574Y7696D02*
X3490Y8612D01*
X2512Y7746D02*
X3378Y8612D01*
X2560Y8039D02*
X2924Y7675D01*
X2529Y8014D02*
X2921Y7622D01*
X2496Y7992D02*
X2921Y7567D01*
X2728Y7349D02*
X2921Y7543D01*
X2728Y7147D02*
X2862Y7013D01*
X2728Y6959D02*
X2862Y7094D01*
X2728Y7092D02*
X2862Y6958D01*
X2728Y7036D02*
X2862Y6902D01*
X2728Y6869D02*
X2862Y6735D01*
X2728Y6904D02*
X2862Y7038D01*
X2460Y7972D02*
X2921Y7511D01*
X2704Y7492D02*
X2940Y7729D01*
X2421Y7955D02*
X2921Y7455D01*
X2716Y7449D02*
X2922Y7655D01*
X2724Y7401D02*
X2921Y7598D01*
X2380Y7941D02*
X2900Y7421D01*
X1762Y7719D02*
X2019Y7977D01*
X2335Y7930D02*
X2539Y7726D01*
X1762Y8002D02*
X2002Y7762D01*
X1762Y7947D02*
X1968Y7740D01*
X1762Y7608D02*
X2098Y7944D01*
X1762Y7664D02*
X2057Y7959D01*
X1762Y7891D02*
X1937Y7716D01*
X1762Y7835D02*
X1907Y7690D01*
X1762Y7780D02*
X1880Y7661D01*
X1762Y7552D02*
X2142Y7933D01*
X1762Y7724D02*
X1855Y7630D01*
X2727Y7371D02*
X2862Y7236D01*
X2728Y6848D02*
X2862Y6982D01*
X2697Y7512D02*
X2862Y7347D01*
X2719Y7435D02*
X2862Y7292D01*
X2726Y6791D02*
X2862Y6927D01*
X2728Y6925D02*
X2862Y6790D01*
X2728Y6980D02*
X2862Y6846D01*
X1762Y7668D02*
X1833Y7597D01*
X1762Y7612D02*
X1813Y7562D01*
X1762Y7557D02*
X1795Y7523D01*
X2628Y7638D02*
X2862Y7403D01*
X1762Y7497D02*
X1800Y7535D01*
X1601Y15465D02*
X1687Y15551D01*
X1618D02*
X1704Y15465D01*
X1546D02*
X1632Y15551D01*
X1562D02*
X1648Y15465D01*
X1674Y15551D02*
X1760Y15465D01*
X1738Y14488D02*
X1787Y14537D01*
X1657Y15465D02*
X1743Y15551D01*
X1490Y15465D02*
X1576Y15551D01*
X1507D02*
X1593Y15465D01*
X1434D02*
X1520Y15551D01*
X1451D02*
X1537Y15465D01*
X1675Y14481D02*
X1731Y14537D01*
X1686D02*
X1735Y14488D01*
X1575Y14537D02*
X1641Y14470D01*
X1630Y14537D02*
X1684Y14483D01*
X1519Y14537D02*
X1605Y14451D01*
X1407Y14537D02*
X1545Y14399D01*
X1463Y14537D02*
X1573Y14427D01*
X1352Y14537D02*
X1517Y14371D01*
X1138Y14000D02*
X1675Y14537D01*
X1447Y14301D02*
X1565Y14419D01*
X1296Y14537D02*
X1490Y14343D01*
X1284Y15551D02*
X1370Y15465D01*
X1323D02*
X1409Y15551D01*
X1228D02*
X1314Y15465D01*
X1267D02*
X1353Y15551D01*
X1379Y15465D02*
X1465Y15551D01*
X1395D02*
X1481Y15465D01*
X1340Y15551D02*
X1426Y15465D01*
X1173Y15551D02*
X1259Y15465D01*
X1212D02*
X1298Y15551D01*
X1117D02*
X1203Y15465D01*
X1135Y15445D02*
X1242Y15551D01*
X1189Y15387D02*
X1267Y15465D01*
X1189Y15443D02*
X1212Y15465D01*
X1189Y14588D02*
X1240Y14537D01*
X1462Y14316D01*
X1189Y15360D02*
Y15465D01*
Y14537D02*
Y14719D01*
X1190Y13829D02*
X1378Y14017D01*
X1161Y14672D02*
X1189Y14644D01*
X1139Y14639D02*
X1189Y14588D01*
X1158Y15412D02*
X1189Y15443D01*
X1157Y13963D02*
X1385Y14191D01*
X1173Y13923D02*
X1378Y14128D01*
X1184Y13879D02*
X1378Y14073D01*
X1189Y12770D02*
X1378Y12959D01*
X1187Y12864D02*
X1378Y12673D01*
X1185Y12877D02*
X1378Y13070D01*
X1191Y12827D02*
X1378Y13015D01*
Y11299D02*
Y14134D01*
X1186Y12754D02*
X1378Y12562D01*
X1191Y12805D02*
X1378Y12618D01*
X1121Y13097D02*
X1378Y12840D01*
X1168Y12939D02*
X1378Y12729D01*
X1143Y13131D02*
X1378Y12896D01*
X1117Y12531D02*
X1378Y12792D01*
X1139Y12498D02*
X1378Y12736D01*
X1173Y12698D02*
X1378Y12903D01*
X1185Y12376D02*
X1378Y12569D01*
X1191Y12326D02*
X1378Y12514D01*
X1176Y12708D02*
X1378Y12506D01*
X1174Y12421D02*
X1378Y12625D01*
X1187Y12363D02*
X1378Y12172D01*
X1191Y12304D02*
X1378Y12117D01*
X1188Y12268D02*
X1378Y12458D01*
X1161Y12667D02*
X1378Y12451D01*
X1143Y12630D02*
X1378Y12395D01*
X1159Y12461D02*
X1378Y12681D01*
X1168Y12438D02*
X1378Y12228D01*
X1173Y12197D02*
X1378Y12402D01*
X1121Y12596D02*
X1378Y12339D01*
X1187Y13867D02*
X1378Y13676D01*
X1191Y13807D02*
X1378Y13620D01*
X1189Y13772D02*
X1378Y13961D01*
X1174Y13702D02*
X1378Y13906D01*
X1177Y13710D02*
X1378Y13508D01*
X1173Y13423D02*
X1378Y13627D01*
X1187Y13755D02*
X1378Y13564D01*
X1139Y13499D02*
X1378Y13738D01*
X1158Y13463D02*
X1378Y13683D01*
X1166Y13943D02*
X1378Y13731D01*
X1144Y13631D02*
X1378Y13397D01*
X1122Y13597D02*
X1378Y13341D01*
X1162Y13669D02*
X1378Y13453D01*
X1189Y13271D02*
X1378Y13460D01*
X1187Y13366D02*
X1378Y13174D01*
X1185Y13378D02*
X1378Y13571D01*
X1191Y13328D02*
X1378Y13516D01*
X1187Y13254D02*
X1378Y13063D01*
X1176Y13209D02*
X1378Y13007D01*
X1191Y13306D02*
X1378Y13119D01*
X1174Y13200D02*
X1378Y13404D01*
X1139Y12998D02*
X1378Y13237D01*
X1167Y13441D02*
X1378Y13230D01*
X1162Y13168D02*
X1378Y12952D01*
X1174Y12922D02*
X1378Y13126D01*
X1158Y12962D02*
X1378Y13182D01*
X1061Y15551D02*
X1189Y15423D01*
X1085Y15505D02*
X1131Y15551D01*
X1111Y15476D02*
X1186Y15551D01*
X1114Y14607D02*
X1434Y14287D01*
X1088Y14577D02*
X1411Y14255D01*
X1061Y14549D02*
X1393Y14217D01*
X812Y14175D02*
X1189Y14552D01*
X756Y14175D02*
X1189Y14608D01*
X994Y14134D02*
X1397Y14537D01*
X1029Y14113D02*
X1453Y14537D01*
X697Y14171D02*
X1189Y14663D01*
X1061Y14089D02*
X1508Y14537D01*
X1032Y14523D02*
X1381Y14173D01*
X955Y14151D02*
X1341Y14537D01*
X1001Y14498D02*
X1378Y14121D01*
X1090Y14063D02*
X1564Y14537D01*
X1115Y14033D02*
X1620Y14537D01*
X968Y14475D02*
X1378Y14065D01*
X865Y14172D02*
X1230Y14537D01*
X913Y14164D02*
X1285Y14537D01*
X734Y14375D02*
X960Y14149D01*
X898Y14434D02*
X1378Y13954D01*
X860Y14416D02*
X1378Y13898D01*
X934Y14454D02*
X1378Y14010D01*
X457Y14373D02*
X666Y14165D01*
X686Y14367D02*
X883Y14170D01*
X197Y14395D02*
X252Y14450D01*
X197Y14339D02*
X289Y14431D01*
X622Y14152D02*
X911Y14440D01*
X382Y14393D02*
X623Y14152D01*
X288Y14431D02*
X584Y14135D01*
X197Y14228D02*
X367Y14398D01*
X197Y14172D02*
X410Y14385D01*
X197Y14283D02*
X327Y14413D01*
X197Y14467D02*
X549Y14115D01*
X197Y14411D02*
X517Y14091D01*
X197Y14116D02*
X454Y14374D01*
X636Y14362D02*
X823Y14175D01*
X748D02*
X827D01*
X523Y14364D02*
X714Y14173D01*
X582Y14360D02*
X768Y14175D01*
X197Y13894D02*
X668Y14365D01*
X197Y14005D02*
X553Y14361D01*
X197Y14133D02*
X403Y13927D01*
X197Y14061D02*
X502Y14366D01*
X197Y14356D02*
X488Y14065D01*
X197Y14300D02*
X462Y14035D01*
X197Y13949D02*
X608Y14360D01*
X197Y14244D02*
X439Y14002D01*
X197Y14188D02*
X419Y13966D01*
X820Y14400D02*
X1378Y13843D01*
X778Y14387D02*
X1378Y13787D01*
X1112Y13584D02*
X1378Y13850D01*
X1116Y13532D02*
X1378Y13794D01*
X1097Y13566D02*
X1378Y13286D01*
X197Y13782D02*
X812Y14397D01*
X197Y13838D02*
X735Y14376D01*
X197Y13799D02*
X461Y13535D01*
X197Y13281D02*
X480Y13564D01*
X197Y13337D02*
X455Y13595D01*
X1117Y13032D02*
X1378Y13293D01*
X1096Y13066D02*
X1378Y12785D01*
X1103Y13074D02*
X1378Y13349D01*
X1096Y12566D02*
X1378Y12284D01*
X1092Y12061D02*
X1378Y12347D01*
X1095Y12564D02*
X1378Y12848D01*
X197Y13854D02*
X450Y13602D01*
X197Y13560D02*
X389Y13751D01*
X197Y13671D02*
X388Y13862D01*
X197Y13615D02*
X384Y13802D01*
X197Y13743D02*
X438Y13502D01*
X197Y13687D02*
X418Y13466D01*
X197Y13504D02*
X399Y13706D01*
X197Y14077D02*
X391Y13883D01*
X197Y13966D02*
X385Y13777D01*
X197Y14021D02*
X385Y13834D01*
X197Y13727D02*
X406Y13936D01*
X197Y13910D02*
X398Y13709D01*
X197Y13155D02*
Y14486D01*
Y13226D02*
X405Y13434D01*
X197Y13409D02*
X324Y13282D01*
X197Y13353D02*
X296Y13254D01*
X197Y13298D02*
X268Y13226D01*
X197Y13170D02*
X387Y13360D01*
X197Y13155D02*
X385Y13343D01*
X197Y13242D02*
X240Y13198D01*
X197Y13448D02*
X414Y13665D01*
X197Y13393D02*
X433Y13628D01*
X197Y13632D02*
X402Y13426D01*
X197Y13576D02*
X391Y13382D01*
X197Y13520D02*
X380Y13338D01*
X197Y13465D02*
X352Y13310D01*
X1188Y11767D02*
X1378Y11957D01*
X1172Y11695D02*
X1378Y11901D01*
X1186Y12253D02*
X1378Y12061D01*
X1191Y11825D02*
X1378Y12012D01*
X1191Y11803D02*
X1378Y11615D01*
X1170Y11434D02*
X1397Y11207D01*
X1187Y11862D02*
X1378Y11671D01*
X1120Y12096D02*
X1378Y11838D01*
X1095Y12065D02*
X1378Y11782D01*
X1140Y11997D02*
X1378Y12235D01*
X1159Y11960D02*
X1378Y12179D01*
X1093Y11560D02*
X1378Y11845D01*
X1095Y11564D02*
X1379Y11281D01*
X1169Y11936D02*
X1378Y11727D01*
X1447Y11132D02*
X1723Y10857D01*
X1191Y10823D02*
X1474Y11106D01*
X1191Y11301D02*
X1789Y10703D01*
X1186Y11251D02*
X1772Y10664D01*
X1188Y10765D02*
X1501Y11078D01*
X1141Y10996D02*
X1385Y11240D01*
X1160Y10959D02*
X1400Y11199D01*
X1118Y11029D02*
X1378Y11289D01*
X1186Y10874D02*
X1446Y11134D01*
X1171Y10692D02*
X1529Y11050D01*
X1175Y10918D02*
X1420Y11164D01*
X1174Y11920D02*
X1378Y12124D01*
X1185Y11875D02*
X1378Y12068D01*
X1176Y12207D02*
X1378Y12005D01*
X1161Y12166D02*
X1378Y11949D01*
X1176Y11706D02*
X1378Y11504D01*
X1159Y11460D02*
X1378Y11678D01*
X1186Y11752D02*
X1378Y11560D01*
X1117Y12030D02*
X1378Y12291D01*
X1142Y12129D02*
X1378Y11894D01*
X1118Y11530D02*
X1378Y11790D01*
X1140Y11496D02*
X1378Y11734D01*
X1185Y11374D02*
X1378Y11567D01*
X1191Y11324D02*
X1378Y11511D01*
X1161Y11666D02*
X1378Y11448D01*
X1174Y11419D02*
X1378Y11623D01*
X1188Y11266D02*
X1378Y11456D01*
X1171Y11193D02*
X1378Y11400D01*
X1142Y11629D02*
X1378Y11393D01*
X1120Y11595D02*
X1378Y11337D01*
X1093Y11059D02*
X1378Y11344D01*
X1175Y11206D02*
X1759Y10622D01*
X1255Y10164D02*
X1784Y10692D01*
X1191Y10266D02*
X1754Y10830D01*
X1186Y10750D02*
X1742Y10193D01*
X1283Y10136D02*
X1756Y10609D01*
X1311Y10108D02*
X1745Y10542D01*
X1191Y10633D02*
X1742Y10082D01*
X1160Y11165D02*
X1749Y10576D01*
X1142Y11128D02*
X1743Y10526D01*
X1120Y11094D02*
X1742Y10472D01*
X1170Y10932D02*
X1742Y10360D01*
X1175Y10705D02*
X1742Y10138D01*
X1094Y11064D02*
X1742Y10416D01*
X1673Y9746D02*
X1763Y9836D01*
X1700Y9718D02*
X1778Y9795D01*
X1762Y8956D02*
Y9563D01*
Y8220D02*
X1787Y8246D01*
X1762Y7382D02*
Y8367D01*
X1191Y10522D02*
X1742Y9971D01*
X1191Y10466D02*
X1747Y9910D01*
X1339Y10080D02*
X1742Y10484D01*
X1191Y10410D02*
X1762Y9839D01*
X1645Y9774D02*
X1752Y9881D01*
X1617Y9802D02*
X1745Y9929D01*
X1191Y10489D02*
X1641Y10939D01*
X1191Y10433D02*
X1668Y10911D01*
X1191Y10601D02*
X1585Y10994D01*
X1191Y10545D02*
X1613Y10967D01*
X1742Y9980D02*
Y10492D01*
X1366Y10052D02*
X1742Y10428D01*
X1191Y10378D02*
X1696Y10883D01*
X1188Y10859D02*
X1742Y10305D01*
X1191Y10322D02*
X1724Y10855D01*
X1191Y10656D02*
X1557Y11022D01*
X1191Y10800D02*
X1742Y10249D01*
X1191Y10578D02*
X1742Y10026D01*
X1191Y10228D02*
Y10675D01*
X1478Y9941D02*
X1742Y10205D01*
X1506Y9913D02*
X1742Y10150D01*
X1422Y9996D02*
X1742Y10317D01*
X1450Y9969D02*
X1742Y10261D01*
X1561Y9857D02*
X1742Y10038D01*
X1589Y9829D02*
X1742Y9982D01*
X1533Y9885D02*
X1742Y10094D01*
X1394Y10024D02*
X1742Y10372D01*
X1191Y10228D02*
X1695Y9723D01*
X831Y9947D02*
X1309Y9469D01*
X764Y9947D02*
X1309Y9402D01*
X708Y9947D02*
X1309Y9346D01*
X819Y9947D02*
X1309Y9457D01*
X541Y9947D02*
X1309Y9179D01*
X541Y9891D02*
X1309Y9123D01*
X652Y9947D02*
X1309Y9290D01*
X597Y9947D02*
X1309Y9234D01*
X541Y9779D02*
X1309Y9012D01*
X541Y9724D02*
X1309Y8956D01*
X541Y9835D02*
X1309Y9067D01*
X541Y9612D02*
X1309Y8845D01*
X541Y9557D02*
X1309Y8789D01*
X541Y9668D02*
X1309Y8900D01*
X541Y9445D02*
X1309Y8678D01*
X541Y8670D02*
X1309Y9438D01*
X541Y9501D02*
X1309Y8733D01*
X541Y8336D02*
X1309Y9104D01*
X541Y9056D02*
X1309Y8288D01*
X541Y8392D02*
X1309Y9160D01*
X541Y9111D02*
X1309Y8344D01*
X541Y9000D02*
X1309Y8232D01*
X541Y8225D02*
X1309Y8993D01*
X541Y8281D02*
X1309Y9048D01*
X541Y8615D02*
X1309Y9382D01*
X541Y9278D02*
X1309Y8511D01*
X541Y9390D02*
X1309Y8622D01*
X541Y8448D02*
X1309Y9215D01*
X541Y9167D02*
X1309Y8399D01*
X541Y8503D02*
X1309Y9271D01*
X541Y9506D02*
X907Y9871D01*
X541Y9450D02*
X935Y9843D01*
X541Y9617D02*
X851Y9927D01*
X541Y9561D02*
X879Y9899D01*
X541Y9338D02*
X991Y9788D01*
X541Y9283D02*
X1018Y9760D01*
X541Y9394D02*
X963Y9816D01*
X541Y9840D02*
X649Y9947D01*
X541D02*
X831D01*
X541Y9895D02*
X593Y9947D01*
X541Y9728D02*
X760Y9947D01*
X541Y9673D02*
X816Y9947D01*
X541Y9784D02*
X704Y9947D01*
X541Y8782D02*
X1269Y9509D01*
X541Y8726D02*
X1297Y9481D01*
X541Y8893D02*
X1213Y9565D01*
X541Y8837D02*
X1241Y9537D01*
X541Y8559D02*
X1309Y9327D01*
X541Y9223D02*
X1309Y8455D01*
X541Y9334D02*
X1309Y8566D01*
X541Y9171D02*
X1074Y9704D01*
X541Y9116D02*
X1102Y9676D01*
X541Y9227D02*
X1046Y9732D01*
X541Y9004D02*
X1158Y9621D01*
X541Y8949D02*
X1185Y9593D01*
X541Y9060D02*
X1130Y9649D01*
X541Y7998D02*
X1309Y7230D01*
X541Y7223D02*
X1309Y7990D01*
X541Y8053D02*
X1309Y7286D01*
X541Y7278D02*
X1309Y8046D01*
X541Y7167D02*
X1309Y7935D01*
X541Y7886D02*
X1309Y7119D01*
X541Y7942D02*
X1309Y7174D01*
X541Y7445D02*
X1309Y8213D01*
X541Y8165D02*
X1309Y7397D01*
X541Y8221D02*
X1309Y7453D01*
X541Y8109D02*
X1309Y7341D01*
X541Y7334D02*
X1309Y8102D01*
X541Y7390D02*
X1309Y8157D01*
X541Y6889D02*
X1309Y7656D01*
X541Y7608D02*
X1309Y6840D01*
X541Y6944D02*
X1309Y7712D01*
X541Y7664D02*
X1309Y6896D01*
X541Y7552D02*
X1309Y6785D01*
X541Y6777D02*
X1309Y7545D01*
X541Y6833D02*
X1309Y7601D01*
X541Y7831D02*
X1309Y7063D01*
X541Y7056D02*
X1309Y7823D01*
X541Y7111D02*
X1309Y7879D01*
X541Y7000D02*
X1309Y7768D01*
X541Y7719D02*
X1309Y6952D01*
X541Y7775D02*
X1309Y7007D01*
X541Y8722D02*
X1309Y7954D01*
X541Y7947D02*
X1309Y8714D01*
X541Y8777D02*
X1309Y8010D01*
X541Y8002D02*
X1309Y8770D01*
X541Y7891D02*
X1309Y8659D01*
X541Y8610D02*
X1309Y7843D01*
X541Y8666D02*
X1309Y7898D01*
X541Y8169D02*
X1309Y8937D01*
X541Y8889D02*
X1309Y8121D01*
X541Y8944D02*
X1309Y8177D01*
X541Y8833D02*
X1309Y8065D01*
X541Y8058D02*
X1309Y8826D01*
X541Y8114D02*
X1309Y8881D01*
X541Y7612D02*
X1309Y8380D01*
X541Y8332D02*
X1309Y7564D01*
X541Y7668D02*
X1309Y8436D01*
X541Y8388D02*
X1309Y7620D01*
X541Y8276D02*
X1309Y7508D01*
X541Y7501D02*
X1309Y8269D01*
X541Y7557D02*
X1309Y8324D01*
X541Y8555D02*
X1309Y7787D01*
X541Y7779D02*
X1309Y8547D01*
X541Y7835D02*
X1309Y8603D01*
X541Y7724D02*
X1309Y8492D01*
X541Y8443D02*
X1309Y7675D01*
X541Y8499D02*
X1309Y7731D01*
X3871Y5374D02*
X4697Y6201D01*
X3926Y5374D02*
X4753Y6201D01*
X3933D02*
X4362D01*
X3759Y5374D02*
X4586Y6201D01*
X3815Y5374D02*
X4642Y6201D01*
X3842D02*
X4687Y5356D01*
X3786Y6201D02*
X4631Y5356D01*
X3648Y5374D02*
X4475Y6201D01*
X3704Y5374D02*
X4530Y6201D01*
X3425Y5374D02*
X4252Y6201D01*
X3592Y5374D02*
X4419Y6201D01*
X3537Y5374D02*
X4363Y6201D01*
X3563D02*
X4408Y5356D01*
X3481Y5374D02*
X4308Y6201D01*
X3314Y5374D02*
X4141Y6201D01*
X3433Y5374D02*
X3933D01*
X3862Y6201D02*
X3933D01*
X3862D02*
X3933D01*
X3341D02*
X4185Y5356D01*
X3370Y5374D02*
X4196Y6201D01*
X3880Y5356D02*
X3933D01*
X3091Y5374D02*
X3918Y6201D01*
X3147Y5374D02*
X3974Y6201D01*
X3062D02*
X3889Y5374D01*
X3258D02*
X4085Y6201D01*
X3285D02*
X4130Y5356D01*
X3203Y5374D02*
X4029Y6201D01*
X3006D02*
X3833Y5374D01*
X3433Y6201D02*
X3862D01*
X2951D02*
X3778Y5374D01*
X2980D02*
X3807Y6201D01*
X2895D02*
X3722Y5374D01*
X2924D02*
X3751Y6201D01*
X2869Y5374D02*
X3695Y6201D01*
X2862Y6289D02*
X2951Y6201D01*
X2862Y6234D02*
X2895Y6201D01*
X2862D02*
Y7421D01*
X2746Y5419D02*
X3528Y6201D01*
X2746Y5363D02*
X3584Y6201D01*
X2746Y5474D02*
X3473Y6201D01*
X3362D02*
X3433D01*
X3362D02*
X3433D01*
X2862D02*
X3362D01*
Y5374D02*
X3433D01*
X3036D02*
X3862Y6201D01*
X3362Y5374D02*
X3433D01*
X2862D02*
X3362D01*
X2746Y5697D02*
X3250Y6201D01*
X2746Y5641D02*
X3306Y6201D01*
X2746Y5753D02*
X3194Y6201D01*
X2746Y5586D02*
X3361Y6201D01*
X2746Y5530D02*
X3417Y6201D01*
X2746Y5515D02*
X2887Y5374D01*
X3953Y6201D02*
X4798Y5356D01*
X3964D02*
X4809Y6201D01*
X3730D02*
X4575Y5356D01*
X3933D02*
X4380D01*
X3897Y6201D02*
X4742Y5356D01*
X3994Y4165D02*
X4488D01*
X3994Y4172D02*
X4380D01*
X3396Y6201D02*
X4241Y5356D01*
X3452Y6201D02*
X4297Y5356D01*
X3229Y6201D02*
X4074Y5356D01*
X3619Y6201D02*
X4464Y5356D01*
X3675Y6201D02*
X4520Y5356D01*
X3508Y6201D02*
X4352Y5356D01*
X3219Y3594D02*
X4197Y2616D01*
X4008Y3473D02*
X4441Y3040D01*
X3103Y3599D02*
X4174Y2528D01*
X3163Y3594D02*
X4183Y2575D01*
X3078Y1742D02*
X5128Y3792D01*
X3134Y1742D02*
X5128Y3736D01*
X3023Y1742D02*
X5128Y3847D01*
X2800Y1742D02*
X5128Y4070D01*
X2746Y3844D02*
X4176Y2414D01*
X2746Y2189D02*
X4030Y3473D01*
X2911Y1742D02*
X5128Y3959D01*
X2967Y1742D02*
X5128Y3903D01*
X2856Y1742D02*
X5128Y4014D01*
X3118Y6201D02*
X3963Y5356D01*
X3174Y6201D02*
X4018Y5356D01*
X2862Y5312D02*
X2924Y5374D01*
X2764Y4879D02*
X2862Y4978D01*
Y4781D02*
Y5374D01*
X2819Y4824D02*
X2862Y4867D01*
X2791Y4852D02*
X2862Y4922D01*
X2746Y5307D02*
X3640Y6201D01*
X2746Y5459D02*
X2862Y5343D01*
X2746Y5403D02*
X2862Y5287D01*
X2746Y5292D02*
X2862Y5176D01*
X2759Y4884D02*
X2862Y4781D01*
X2746Y5348D02*
X2862Y5232D01*
X3933Y4172D02*
X3994D01*
X3933Y4165D02*
X3994D01*
X3330Y3594D02*
X3384Y3540D01*
X3274Y3594D02*
X3384Y3485D01*
Y3540D02*
X3470Y3455D01*
X3384Y3485D02*
X3414Y3455D01*
X3384D02*
Y3594D01*
X2746Y3748D02*
X2823Y3825D01*
X2746Y3693D02*
X2851Y3797D01*
X2746Y3860D02*
X2767Y3881D01*
X3148Y3594D02*
X3384D01*
X2690Y6643D02*
X2862Y6815D01*
X2723Y6763D02*
X2862Y6623D01*
X2716Y6725D02*
X2862Y6871D01*
X2728Y6814D02*
X2862Y6679D01*
X2701Y6673D02*
X2862Y6512D01*
X2686Y6633D02*
X2862Y6456D01*
X2714Y6716D02*
X2862Y6568D01*
X2359Y6256D02*
X2862Y6760D01*
X2622Y6529D02*
X2862Y6289D01*
X2667Y6596D02*
X2862Y6401D01*
X2646Y6561D02*
X2862Y6345D01*
X2597Y6499D02*
X2862Y6234D01*
X2569Y6472D02*
X3666Y5374D01*
X2402Y6244D02*
X2862Y6704D01*
X2738Y5856D02*
X3083Y6201D01*
X2745Y5807D02*
X3138Y6201D01*
X2728Y5902D02*
X3027Y6201D01*
X2746Y5626D02*
X2998Y5374D01*
X2738Y5857D02*
X3221Y5374D01*
X2746Y5682D02*
X3054Y5374D01*
X2746Y5570D02*
X2942Y5374D01*
X2714Y5944D02*
X2971Y6201D01*
X2718Y5932D02*
X3276Y5374D01*
X2698Y5983D02*
X2916Y6201D01*
X2432Y6385D02*
X3444Y5374D01*
X2392Y6370D02*
X3388Y5374D01*
X2665Y6041D02*
X3332Y5374D01*
X2480Y6211D02*
X2862Y6593D01*
X2515Y6190D02*
X2862Y6537D01*
X2443Y6229D02*
X2862Y6648D01*
X2312Y6265D02*
X2431Y6385D01*
X2579Y6142D02*
X2862Y6426D01*
X2607Y6115D02*
X2862Y6370D01*
X2548Y6167D02*
X2862Y6481D01*
X2121Y6363D02*
X2215Y6269D01*
X1762Y6610D02*
X2118Y6254D01*
X2032Y6396D02*
X2164Y6263D01*
X1762Y6049D02*
X2086Y6373D01*
X2348Y6358D02*
X2517Y6189D01*
X2300Y6350D02*
X2408Y6242D01*
X2261Y6269D02*
X2350Y6359D01*
X2248Y6347D02*
X2333Y6262D01*
X2657Y6053D02*
X2862Y6259D01*
X2679Y6019D02*
X2862Y6203D01*
X2633Y6085D02*
X2862Y6314D01*
X2189Y6350D02*
X2270Y6269D01*
X2204Y6268D02*
X2284Y6349D01*
X2138Y6258D02*
X2227Y6347D01*
X2058Y6234D02*
X2176Y6352D01*
X1917Y6148D02*
X2129Y6361D01*
X2745Y5794D02*
X3165Y5374D01*
X2746Y3900D02*
X4170Y2476D01*
X2746Y5737D02*
X3109Y5374D01*
X2746Y3902D02*
X2987Y3661D01*
X2746Y3733D02*
X4737Y1742D01*
X2746Y3677D02*
X4681Y1742D01*
X2746Y3789D02*
X4202Y2332D01*
X2538Y6446D02*
X3611Y5374D01*
X2505Y6423D02*
X3555Y5374D01*
X2470Y6403D02*
X3499Y5374D01*
X2459Y3072D02*
X3021Y3633D01*
X2743Y3625D02*
X4626Y1742D01*
X2420Y3088D02*
X2990Y3658D01*
X2705Y2817D02*
X3384Y3496D01*
X2709Y3492D02*
X4459Y1742D01*
X2667Y2889D02*
X3372Y3594D01*
X2687Y2854D02*
X3384Y3551D01*
X2735Y3577D02*
X4570Y1742D01*
X2724Y3533D02*
X4514Y1742D01*
X2744D02*
X4475Y3473D01*
X2530Y3031D02*
X3099Y3600D01*
X2562Y3007D02*
X3149Y3594D01*
X2496Y3052D02*
X3057Y3614D01*
X2618Y2953D02*
X3260Y3594D01*
X2644Y2922D02*
X3316Y3594D01*
X2591Y2981D02*
X3205Y3594D01*
X2742Y5192D02*
X2862Y5312D01*
X2728Y5122D02*
X2862Y5256D01*
X2746Y5256D02*
Y5768D01*
X2746Y5252D02*
X2862Y5368D01*
X2741Y5186D02*
X2862Y5064D01*
X2732Y5139D02*
X2862Y5009D01*
X2746Y5237D02*
X2862Y5120D01*
X2693Y5032D02*
X2862Y5201D01*
X2720Y5096D02*
X2862Y4953D01*
X2700Y4927D02*
X2862Y5089D01*
X2704Y5055D02*
X2862Y4897D01*
X2660Y4942D02*
X2862Y5145D01*
X2734Y4906D02*
X2862Y5034D01*
X2686Y5018D02*
X2862Y4842D01*
X2746Y3681D02*
Y3902D01*
Y3804D02*
X2795Y3853D01*
X2733Y3568D02*
X2907Y3742D01*
X2707Y3486D02*
X2934Y3714D01*
X2744Y3635D02*
X2879Y3770D01*
X2665Y4983D02*
X2862Y4786D01*
X2378Y3102D02*
X2962Y3686D01*
X541Y4657D02*
X2100Y3099D01*
X3994Y3473D02*
X4488D01*
X3971Y3455D02*
X4413Y3013D01*
X3860Y3455D02*
X4359Y2955D01*
X3915Y3455D02*
X4385Y2985D01*
X3748Y3455D02*
X4325Y2878D01*
X3804Y3455D02*
X4339Y2919D01*
X3693Y3455D02*
X4321Y2826D01*
X3581Y3455D02*
X4289Y2747D01*
X3637Y3455D02*
X4320Y2771D01*
X3470Y3455D02*
X4237Y2688D01*
X3525Y3455D02*
X4261Y2719D01*
X3414Y3455D02*
X4215Y2654D01*
X3190Y1742D02*
X4325Y2878D01*
X2737Y2014D02*
X4197Y3473D01*
X3747Y1742D02*
X4254Y2250D01*
X3802Y1742D02*
X4281Y2221D01*
X3635Y1742D02*
X4210Y2317D01*
X3691Y1742D02*
X4231Y2282D01*
X3914Y1742D02*
X4345Y2173D01*
X3969Y1742D02*
X4381Y2154D01*
X3858Y1742D02*
X4312Y2196D01*
X3245Y1742D02*
X4321Y2818D01*
X3301Y1742D02*
X4218Y2659D01*
X3357Y1742D02*
X4181Y2566D01*
X3524Y1742D02*
X4180Y2398D01*
X3580Y1742D02*
X4193Y2355D01*
X3468Y1742D02*
X4172Y2446D01*
X3914Y3473D02*
X3994D01*
X3384Y3455D02*
X3994D01*
X2746Y2579D02*
X3622Y3455D01*
X2746Y2523D02*
X3677Y3455D01*
X2746Y2134D02*
X4085Y3473D01*
X2746Y2412D02*
X3789Y3455D01*
X2746Y2468D02*
X3733Y3455D01*
X2746Y2634D02*
X3566Y3455D01*
X2746Y2356D02*
X3844Y3455D01*
X2741Y2686D02*
X3510Y3455D01*
X2745Y2077D02*
X4141Y3473D01*
X2746Y2245D02*
X3956Y3455D01*
X2746Y2301D02*
X3900Y3455D01*
X2746Y2508D02*
X3512Y1742D01*
X3412D02*
X4171Y2501D01*
X2746Y2106D02*
Y2618D01*
Y2118D02*
X3122Y1742D01*
X2746Y2564D02*
X3568Y1742D01*
X2746Y2452D02*
X3456Y1742D01*
X2746Y2230D02*
X3234Y1742D01*
X2733Y2733D02*
X3455Y3455D01*
X2746Y2619D02*
X3623Y1742D01*
X2733Y2733D02*
X3455Y3455D01*
X2746Y2341D02*
X3345Y1742D01*
X2746Y2285D02*
X3289Y1742D01*
X2746Y2174D02*
X3178Y1742D01*
X3536Y1329D02*
X4668Y197D01*
X3538D02*
X4669Y1329D01*
X3480D02*
X4612Y197D01*
X3482D02*
X4614Y1329D01*
X3593Y197D02*
X4725Y1329D01*
X3647D02*
X4779Y197D01*
X3591Y1329D02*
X4723Y197D01*
X3315D02*
X4447Y1329D01*
X3369D02*
X4501Y197D01*
X3313Y1329D02*
X4445Y197D01*
X3424Y1329D02*
X4556Y197D01*
X3426D02*
X4558Y1329D01*
X3370Y197D02*
X4502Y1329D01*
X3872Y197D02*
X5003Y1329D01*
X3925D02*
X5057Y197D01*
X3816D02*
X4948Y1329D01*
X3870D02*
X5002Y197D01*
X3981Y1329D02*
X5113Y197D01*
X3983D02*
X5115Y1329D01*
X3927Y197D02*
X5059Y1329D01*
X3703D02*
X4835Y197D01*
X3705D02*
X4836Y1329D01*
X3649Y197D02*
X4781Y1329D01*
X3760Y197D02*
X4892Y1329D01*
X3814D02*
X4946Y197D01*
X3758Y1329D02*
X4890Y197D01*
X3090Y1329D02*
X4222Y197D01*
X3092D02*
X4224Y1329D01*
X3035D02*
X4166Y197D01*
X3036D02*
X4168Y1329D01*
X3257D02*
X4389Y197D01*
X3259D02*
X4391Y1329D01*
X3146D02*
X4278Y197D01*
X2729Y2748D02*
X3735Y1742D01*
X2738Y2015D02*
X3011Y1742D01*
X2727Y1970D02*
X2955Y1742D01*
X2742Y2679D02*
X3679Y1742D01*
X2746Y2397D02*
X3401Y1742D01*
X2744Y2064D02*
X3067Y1742D01*
X2979Y1329D02*
X4111Y197D01*
X2981D02*
X4113Y1329D01*
X2923D02*
X4055Y197D01*
X2925D02*
X4057Y1329D01*
X3202D02*
X4334Y197D01*
X3203D02*
X4335Y1329D01*
X3148Y197D02*
X4280Y1329D01*
X2758Y197D02*
X3890Y1329D01*
X2812D02*
X3944Y197D01*
X2756Y1329D02*
X3888Y197D01*
X2868Y1329D02*
X3999Y197D01*
X2869D02*
X4001Y1329D01*
X2814Y197D02*
X3946Y1329D01*
X2689Y1742D02*
X4419Y3473D01*
X2692Y3454D02*
X4403Y1742D01*
X2717Y1937D02*
X4252Y3473D01*
X2659Y1824D02*
X4308Y3473D01*
X2633Y1742D02*
X4364Y3473D01*
X2672Y3418D02*
X4347Y1742D01*
X2649Y3385D02*
X4292Y1742D01*
X2537Y3274D02*
X4069Y1742D01*
X2504Y3252D02*
X4013Y1742D01*
X2468Y3232D02*
X3957Y1742D01*
X2624Y3354D02*
X4236Y1742D01*
X2598Y3325D02*
X4180Y1742D01*
X2569Y3298D02*
X4125Y1742D01*
X2590D02*
X5284D01*
X2702Y197D02*
X3834Y1329D01*
X2696Y2837D02*
X3790Y1742D01*
X2701Y1329D02*
X3832Y197D01*
X2645Y1329D02*
X3777Y197D01*
X2647D02*
X3779Y1329D01*
X2591Y197D02*
X3723Y1329D01*
X2429Y3215D02*
X3902Y1742D01*
X1693Y1329D02*
X5945D01*
X2388Y3200D02*
X3846Y1742D01*
X2589Y1329D02*
X3721Y197D01*
X197D02*
X6594D01*
X2368D02*
X3500Y1329D01*
X2333Y3112D02*
X2439Y3219D01*
X2283Y3119D02*
X2357Y3192D01*
X2183Y3183D02*
X2245Y3120D01*
X2229Y3120D02*
X2290Y3181D01*
X2721Y2776D02*
X3399Y3455D01*
X2343Y3189D02*
X2463Y3070D01*
X2295Y3182D02*
X2374Y3103D01*
X2113Y3196D02*
X2192Y3117D01*
X2168Y3114D02*
X2233Y3179D01*
X2024Y3230D02*
X2144Y3110D01*
X1997Y3055D02*
X2134Y3191D01*
X2095Y3098D02*
X2181Y3183D01*
X1427Y2541D02*
X2090Y3203D01*
X2713Y1928D02*
X2900Y1742D01*
X2697Y1889D02*
X2844Y1742D01*
X2677Y1853D02*
X2788Y1742D01*
X2656Y1819D02*
X2733Y1742D01*
X2366Y1329D02*
X3498Y197D01*
X2632Y1787D02*
X2677Y1742D01*
X2311Y1329D02*
X3443Y197D01*
X2242Y3179D02*
X2305Y3116D01*
X2257Y197D02*
X3389Y1329D01*
X2313Y197D02*
X3444Y1329D01*
X2255D02*
X3387Y197D01*
X1921Y1329D02*
X3053Y197D01*
X1923D02*
X3055Y1329D01*
X1865D02*
X2997Y197D01*
X1867D02*
X2999Y1329D01*
X1979Y197D02*
X3110Y1329D01*
X2032D02*
X3164Y197D01*
X1977Y1329D02*
X3109Y197D01*
X1700D02*
X2832Y1329D01*
X1754D02*
X2886Y197D01*
X1698Y1329D02*
X2830Y197D01*
X1810Y1329D02*
X2942Y197D01*
X1812D02*
X2943Y1329D01*
X1756Y197D02*
X2888Y1329D01*
X2424Y197D02*
X3556Y1329D01*
X2478D02*
X3610Y197D01*
X2201D02*
X3333Y1329D01*
X2422D02*
X3554Y197D01*
X2533Y1329D02*
X3665Y197D01*
X2535D02*
X3667Y1329D01*
X2480Y197D02*
X3612Y1329D01*
X2088D02*
X3220Y197D01*
X2090D02*
X3222Y1329D01*
X2034Y197D02*
X3166Y1329D01*
X2146Y197D02*
X3277Y1329D01*
X2199D02*
X3331Y197D01*
X2144Y1329D02*
X3276Y197D01*
X541Y2040D02*
X2385Y197D01*
X541Y1985D02*
X2329Y197D01*
X541Y1929D02*
X2273Y197D01*
X541Y1873D02*
X2218Y197D01*
X1634Y1337D02*
X2775Y197D01*
X1644D02*
X2776Y1329D01*
X541Y1818D02*
X2162Y197D01*
X541Y2374D02*
X2719Y197D01*
X541Y2319D02*
X2663Y197D01*
X541Y2263D02*
X2607Y197D01*
X541Y2207D02*
X2552Y197D01*
X541Y2152D02*
X2496Y197D01*
X541Y2096D02*
X2440Y197D01*
X1366D02*
X2498Y1329D01*
X1422Y197D02*
X2554Y1329D01*
X1255Y197D02*
X2387Y1329D01*
X1310Y197D02*
X2442Y1329D01*
X1533Y197D02*
X2665Y1329D01*
X1589Y197D02*
X2721Y1329D01*
X1477Y197D02*
X2609Y1329D01*
X1032Y197D02*
X2164Y1329D01*
X1088Y197D02*
X2220Y1329D01*
X976Y197D02*
X2108Y1329D01*
X1143Y197D02*
X2275Y1329D01*
X1199Y197D02*
X2331Y1329D01*
X1209Y1095D02*
X2106Y197D01*
X1762Y6383D02*
X1885Y6506D01*
X1762Y6327D02*
X1913Y6478D01*
X1762Y6494D02*
X1837Y6569D01*
X1762Y6439D02*
X1860Y6537D01*
X1762Y6555D02*
X2076Y6241D01*
X1762Y6499D02*
X2036Y6225D01*
X1762Y6272D02*
X1942Y6452D01*
X1762Y6666D02*
X1809Y6619D01*
X1762Y6606D02*
X1798Y6642D01*
X541Y7497D02*
X1309Y6729D01*
X1762Y6661D02*
X1783Y6683D01*
X1762Y5907D02*
Y6792D01*
Y6550D02*
X1816Y6605D01*
X541Y7107D02*
X1309Y6339D01*
X1762Y6276D02*
X1902Y6136D01*
X1762Y6221D02*
X1875Y6108D01*
X1762Y6165D02*
X1849Y6078D01*
X1762Y6109D02*
X1826Y6045D01*
X1762Y5993D02*
X1864Y6095D01*
X1762Y6054D02*
X1805Y6011D01*
X1762Y5998D02*
X1786Y5973D01*
X1762Y6443D02*
X1999Y6206D01*
X1762Y6216D02*
X1975Y6429D01*
X1762Y6388D02*
X1965Y6185D01*
X1762Y6160D02*
X2009Y6408D01*
X1762Y6105D02*
X2046Y6389D01*
X1762Y6332D02*
X1932Y6161D01*
X541Y7051D02*
X1309Y6284D01*
X541Y6276D02*
X1309Y7044D01*
X541Y6388D02*
X1309Y7155D01*
X541Y6332D02*
X1309Y7100D01*
X541Y6220D02*
X1309Y6988D01*
X541Y6940D02*
X1309Y6172D01*
X541Y6996D02*
X1309Y6228D01*
X541Y7441D02*
X1309Y6673D01*
X541Y6499D02*
X1309Y7267D01*
X541Y6722D02*
X1309Y7489D01*
X541Y6443D02*
X1309Y7211D01*
X541Y7163D02*
X1309Y6395D01*
X541Y7218D02*
X1309Y6451D01*
X541Y5608D02*
X1309Y6376D01*
X541Y6328D02*
X1309Y5560D01*
X541Y5664D02*
X1309Y6431D01*
X541Y6383D02*
X1309Y5615D01*
X541Y6272D02*
X1309Y5504D01*
X541Y5497D02*
X1309Y6264D01*
X541Y5552D02*
X1309Y6320D01*
X541Y6884D02*
X1309Y6117D01*
X541Y6109D02*
X1309Y6877D01*
X541Y6165D02*
X1309Y6933D01*
X541Y6053D02*
X1309Y6821D01*
X541Y6439D02*
X1309Y5671D01*
X541Y6829D02*
X1309Y6061D01*
X1376Y4958D02*
X1769Y4565D01*
X1577Y3414D02*
X1751Y3588D01*
X1538Y3549D02*
X2020Y3067D01*
X1569Y3462D02*
X1744Y3637D01*
X1180Y3741D02*
X1758Y4320D01*
X1237Y3743D02*
X1745Y4251D01*
X1287Y3737D02*
X1742Y4192D01*
X1108Y3725D02*
X1790Y4407D01*
X1331Y3725D02*
X1742Y4136D01*
X1371Y3710D02*
X1742Y4081D01*
X1519Y3189D02*
X1792Y3463D01*
X1570Y3462D02*
X1984Y3047D01*
X1577Y3358D02*
X1761Y3543D01*
X1565Y3291D02*
X1775Y3501D01*
X1578Y3398D02*
X1951Y3025D01*
X1575Y3345D02*
X1919Y3001D01*
X1567Y3298D02*
X1890Y2974D01*
X1427Y2986D02*
X1833Y3392D01*
X1427Y2930D02*
X1858Y3361D01*
X1427Y3042D02*
X1812Y3426D01*
X1427Y2819D02*
X1912Y3304D01*
X1427Y2763D02*
X1943Y3279D01*
X1427Y2875D02*
X1884Y3332D01*
X541Y6160D02*
X1309Y5393D01*
X541Y5385D02*
X1309Y6153D01*
X541Y6216D02*
X1309Y5448D01*
X541Y5441D02*
X1309Y6209D01*
Y5118D02*
Y9469D01*
X541Y6105D02*
X1309Y5337D01*
X541Y1669D02*
Y9947D01*
Y6049D02*
X1309Y5281D01*
X541Y5274D02*
X1309Y6042D01*
X541Y5330D02*
X1309Y6097D01*
X541Y5218D02*
X1309Y5986D01*
X541Y5938D02*
X1309Y5170D01*
X541Y5993D02*
X1309Y5226D01*
X1470Y3641D02*
X1742Y3914D01*
X1497Y3612D02*
X1742Y3858D01*
Y3681D02*
Y4193D01*
X1440Y3667D02*
X1742Y3969D01*
X1540Y3545D02*
X1742Y3747D01*
X1557Y3506D02*
X1742Y3691D01*
X1520Y3580D02*
X1742Y3802D01*
X541Y5163D02*
X1309Y5930D01*
X1407Y3690D02*
X1742Y4025D01*
X541Y5771D02*
X1832Y4480D01*
X541Y5715D02*
X1811Y4446D01*
X541Y5882D02*
X1309Y5114D01*
X541Y5826D02*
X1320Y5047D01*
X541Y5659D02*
X1791Y4409D01*
X541Y5604D02*
X1775Y4370D01*
X541Y5548D02*
X1761Y4329D01*
X541Y6662D02*
X1309Y5894D01*
X541Y5886D02*
X1309Y6654D01*
X541Y5942D02*
X1309Y6710D01*
X541Y6550D02*
X1309Y5782D01*
X541Y5775D02*
X1309Y6543D01*
X541Y5831D02*
X1309Y6598D01*
X541Y4216D02*
X1336Y5011D01*
X541Y4160D02*
X1358Y4977D01*
X541Y4327D02*
X1310Y5096D01*
X541Y4272D02*
X1320Y5050D01*
X541Y4049D02*
X1413Y4921D01*
X541Y3993D02*
X1441Y4893D01*
X541Y4105D02*
X1385Y4948D01*
X541Y5492D02*
X1750Y4283D01*
X541Y5437D02*
X1744Y4234D01*
X541Y5381D02*
X1742Y4180D01*
X541Y5270D02*
X1742Y4069D01*
X541Y5214D02*
X1742Y4013D01*
X541Y5325D02*
X1742Y4125D01*
X541Y6717D02*
X1309Y5950D01*
X541Y6606D02*
X1309Y5838D01*
X541Y6773D02*
X1309Y6005D01*
X541Y5998D02*
X1309Y6765D01*
X541Y5719D02*
X1309Y6487D01*
X541Y5107D02*
X1309Y5875D01*
X541Y6495D02*
X1309Y5727D01*
X541Y7385D02*
X1309Y6618D01*
X541Y6610D02*
X1309Y7378D01*
X541Y6666D02*
X1309Y7434D01*
X541Y6555D02*
X1309Y7322D01*
X541Y7274D02*
X1309Y6506D01*
X541Y7330D02*
X1309Y6562D01*
X541Y4606D02*
X1309Y5374D01*
X541Y4550D02*
X1309Y5318D01*
X541Y4717D02*
X1309Y5485D01*
X541Y4662D02*
X1309Y5429D01*
X541Y4439D02*
X1309Y5207D01*
X541Y4383D02*
X1309Y5151D01*
X541Y4494D02*
X1309Y5262D01*
X541Y4996D02*
X1309Y5763D01*
X541Y4940D02*
X1309Y5708D01*
X541Y5051D02*
X1309Y5819D01*
X541Y4829D02*
X1309Y5596D01*
X541Y4773D02*
X1309Y5541D01*
X541Y4884D02*
X1309Y5652D01*
X541Y3826D02*
X1524Y4809D01*
X541Y3771D02*
X1552Y4781D01*
X541Y3938D02*
X1469Y4865D01*
X541Y3882D02*
X1496Y4837D01*
X541Y4824D02*
X1746Y3620D01*
X541Y4769D02*
X1759Y3550D01*
X541Y3715D02*
X1580Y4754D01*
X541Y5103D02*
X1742Y3902D01*
X541Y5047D02*
X1742Y3846D01*
X541Y5158D02*
X1742Y3957D01*
X541Y4936D02*
X1742Y3735D01*
X541Y4880D02*
X1742Y3679D01*
X541Y4991D02*
X1742Y3790D01*
X541Y3381D02*
X1747Y4586D01*
X541Y3325D02*
X1775Y4559D01*
X541Y4546D02*
X1383Y3704D01*
X541Y4490D02*
X1297Y3735D01*
X541Y4601D02*
X2058Y3084D01*
X541Y3214D02*
X1843Y4515D01*
X541Y3270D02*
X1806Y4534D01*
X541Y3604D02*
X1636Y4698D01*
X541Y3548D02*
X1663Y4670D01*
X541Y3659D02*
X1608Y4726D01*
X541Y4713D02*
X1793Y3461D01*
X541Y3437D02*
X1719Y4614D01*
X541Y3492D02*
X1691Y4642D01*
X541Y4100D02*
X986Y3656D01*
X541Y4045D02*
X958Y3628D01*
X541Y3989D02*
X933Y3598D01*
X541Y3933D02*
X911Y3564D01*
X541Y3878D02*
X892Y3527D01*
X541Y3822D02*
X877Y3486D01*
X541Y3766D02*
X867Y3440D01*
X541Y4434D02*
X1233Y3743D01*
X541Y4379D02*
X1179Y3741D01*
X541Y4323D02*
X1132Y3732D01*
X541Y4267D02*
X1090Y3719D01*
X541Y4212D02*
X1052Y3701D01*
X541Y4156D02*
X1018Y3680D01*
X541Y3432D02*
X1014Y2960D01*
X541Y2991D02*
X869Y3319D01*
X541Y3103D02*
X866Y3427D01*
X541Y3047D02*
X864Y3369D01*
X541Y3377D02*
X1014Y2904D01*
X541Y3321D02*
X1014Y2848D01*
X541Y2935D02*
X881Y3275D01*
X541Y3655D02*
X868Y3328D01*
X541Y3599D02*
X890Y3251D01*
X541Y3711D02*
X863Y3389D01*
X541Y3544D02*
X1014Y3071D01*
X541Y3488D02*
X1014Y3015D01*
X541Y3158D02*
X881Y3498D01*
X1553Y3256D02*
X1863Y2945D01*
X1536Y3217D02*
X1839Y2914D01*
X1515Y3183D02*
X1816Y2881D01*
X1490Y3152D02*
X1796Y2845D01*
X1427Y2652D02*
X2011Y3236D01*
X1463Y3123D02*
X1779Y2807D01*
X1432Y3098D02*
X1764Y2766D01*
X1427Y2708D02*
X1976Y3257D01*
X1427Y2596D02*
X2049Y3218D01*
X1427Y3048D02*
X1753Y2722D01*
X1427Y2992D02*
X1745Y2674D01*
X1427Y2485D02*
X1807Y2865D01*
X1427Y2429D02*
X1765Y2767D01*
X1427Y2374D02*
X1748Y2695D01*
X1705Y1816D02*
X1787Y1899D01*
X1732Y1788D02*
X1806Y1862D01*
X1649Y1872D02*
X1758Y1981D01*
X1677Y1844D02*
X1771Y1938D01*
X1760Y1760D02*
X1827Y1827D01*
X1853Y1742D02*
X1876Y1765D01*
X1760Y1760D02*
X1827Y1827D01*
X1427Y2324D02*
X1754Y1997D01*
X1427Y2268D02*
X1780Y1915D01*
X1427Y2379D02*
X1744Y2063D01*
X1427Y2101D02*
X1786Y1742D01*
X1427Y2093D02*
X1779Y1742D01*
X1621Y1900D02*
X1748Y2027D01*
X1427Y2936D02*
X1742Y2621D01*
X1427Y2880D02*
X1742Y2566D01*
X1427Y2825D02*
X1742Y2510D01*
X1427Y2769D02*
X1742Y2454D01*
X1427Y2713D02*
X1742Y2398D01*
Y2106D02*
Y2618D01*
X1427Y2093D02*
Y3094D01*
Y2658D02*
X1742Y2343D01*
X1427Y2318D02*
X1742Y2633D01*
X1427Y2602D02*
X1742Y2287D01*
X1427Y2262D02*
X1742Y2577D01*
X1427Y2546D02*
X1742Y2231D01*
X1014Y2008D02*
Y3094D01*
X1482Y2039D02*
X1742Y2299D01*
X1510Y2011D02*
X1742Y2243D01*
X1427Y2151D02*
X1742Y2466D01*
X1454Y2067D02*
X1742Y2355D01*
X1565Y1955D02*
X1742Y2132D01*
X1593Y1927D02*
X1743Y2077D01*
X1538Y1983D02*
X1742Y2188D01*
X1427Y2491D02*
X1742Y2176D01*
X1427Y2435D02*
X1742Y2120D01*
X1427Y2207D02*
X1742Y2522D01*
X1427Y2095D02*
X1742Y2410D01*
X1779Y1742D02*
X1899D01*
X1427Y2212D02*
X1897Y1742D01*
X1798D02*
X1850Y1795D01*
X1427Y2157D02*
X1842Y1742D01*
X1244Y1021D02*
X1583Y1360D01*
X1256Y977D02*
X1620Y1342D01*
X1227Y1060D02*
X1552Y1385D01*
X809Y197D02*
X1941Y1329D01*
X865Y197D02*
X1997Y1329D01*
X1262Y928D02*
X1665Y1331D01*
X1262Y930D02*
X1995Y197D01*
X1261Y875D02*
X1939Y197D01*
X1261Y871D02*
X1718Y1329D01*
X1247Y802D02*
X1774Y1329D01*
X1251Y997D02*
X2051Y197D01*
X1254Y827D02*
X1884Y197D01*
X1241Y784D02*
X1828Y197D01*
X1188Y687D02*
X1830Y1329D01*
X1225Y745D02*
X1772Y197D01*
X1204Y709D02*
X1717Y197D01*
X921D02*
X2053Y1329D01*
X1180Y677D02*
X1661Y197D01*
X1154Y648D02*
X1605Y197D01*
X1074Y1862D02*
X1547Y1389D01*
X1021Y1244D02*
X1357Y1579D01*
X938Y1272D02*
X1301Y1635D01*
X977Y1256D02*
X1329Y1607D01*
X1096Y1208D02*
X1412Y1524D01*
X1129Y1184D02*
X1440Y1496D01*
X1060Y1227D02*
X1384Y1552D01*
X799Y1411D02*
X1162Y1774D01*
X827Y1383D02*
X1190Y1746D01*
X771Y1439D02*
X1134Y1802D01*
X882Y1328D02*
X1245Y1691D01*
X910Y1300D02*
X1273Y1663D01*
X854Y1356D02*
X1217Y1719D01*
X1184Y1129D02*
X1496Y1440D01*
X1208Y1096D02*
X1524Y1412D01*
X1158Y1158D02*
X1468Y1468D01*
X1158Y1158D02*
X1468Y1468D01*
X1124Y623D02*
X1550Y197D01*
X1091Y600D02*
X1494Y197D01*
X1054Y581D02*
X1438Y197D01*
X1014Y565D02*
X1383Y197D01*
X970Y554D02*
X1327Y197D01*
X861Y551D02*
X1216Y197D01*
X920Y549D02*
X1271Y197D01*
X789Y568D02*
X1160Y197D01*
X541Y2931D02*
X1014Y2459D01*
X541Y2434D02*
X1014Y2907D01*
X541Y2987D02*
X1014Y2514D01*
X541Y2490D02*
X1014Y2963D01*
X541Y2379D02*
X1014Y2851D01*
X541Y2820D02*
X1014Y2347D01*
X541Y2875D02*
X1014Y2403D01*
X541Y3210D02*
X1014Y2737D01*
X541Y3154D02*
X1014Y2681D01*
X541Y3265D02*
X1014Y2793D01*
X541Y2601D02*
X1014Y3074D01*
X541Y3043D02*
X1014Y2570D01*
X541Y3098D02*
X1014Y2626D01*
X632Y1578D02*
X1018Y1965D01*
X660Y1550D02*
X1032Y1923D01*
X541Y2267D02*
X1014Y2740D01*
X541Y2708D02*
X1014Y2236D01*
X715Y1495D02*
X1078Y1858D01*
X743Y1467D02*
X1106Y1830D01*
X687Y1523D02*
X1052Y1888D01*
X541Y2764D02*
X1014Y2292D01*
X541Y2212D02*
X1014Y2684D01*
X541Y2323D02*
X1014Y2795D01*
X541Y2430D02*
X1022Y1949D01*
X541Y1762D02*
X1095Y1209D01*
X541Y2653D02*
X1014Y2180D01*
X541Y2100D02*
X1014Y2573D01*
X541Y2541D02*
X1014Y2069D01*
X541Y2156D02*
X1014Y2628D01*
X541Y2597D02*
X1014Y2125D01*
X541Y2486D02*
X1014Y2013D01*
X541Y1989D02*
X1014Y2461D01*
X541Y2045D02*
X1014Y2517D01*
X541Y2824D02*
X916Y3199D01*
X541Y2768D02*
X939Y3166D01*
X541Y2880D02*
X897Y3235D01*
X541Y2657D02*
X994Y3110D01*
X541Y2546D02*
X1014Y3018D01*
X541Y2713D02*
X965Y3136D01*
X541Y1766D02*
X1014Y2239D01*
X541Y1711D02*
X1014Y2183D01*
X541Y1933D02*
X1014Y2406D01*
X541Y1822D02*
X1014Y2294D01*
X576Y1634D02*
X1014Y2072D01*
X604Y1606D02*
X1014Y2016D01*
X548Y1662D02*
X1014Y2127D01*
X541Y1878D02*
X1014Y2350D01*
X541Y1669D02*
X950Y1260D01*
X197Y1310D02*
X228Y1342D01*
X541Y1706D02*
X997Y1251D01*
X197Y1199D02*
X284Y1286D01*
X197Y1255D02*
X256Y1314D01*
X754Y197D02*
X1886Y1329D01*
X197Y993D02*
X993Y197D01*
X197Y937D02*
X937Y197D01*
X197Y1104D02*
X1104Y197D01*
X197Y1049D02*
X1049Y197D01*
X197Y881D02*
X881Y197D01*
X197Y308D02*
X603Y715D01*
X197Y253D02*
X627Y682D01*
X197Y364D02*
X584Y751D01*
X197Y826D02*
X826Y197D01*
X197Y770D02*
X770Y197D01*
X197Y714D02*
X714Y197D01*
X475D02*
X834Y555D01*
X531Y197D02*
X883Y549D01*
X364Y197D02*
X751Y584D01*
X420Y197D02*
X790Y567D01*
X698Y197D02*
X1124Y623D01*
X642Y197D02*
X1009Y564D01*
X587Y197D02*
X940Y550D01*
X197Y659D02*
X659Y197D01*
X197D02*
X653Y653D01*
X197Y603D02*
X603Y197D01*
X253D02*
X682Y627D01*
X308Y197D02*
X715Y603D01*
X197Y197D02*
X653Y653D01*
X197Y921D02*
X423Y1147D01*
X197Y865D02*
X451Y1119D01*
X197Y1032D02*
X367Y1202D01*
X197Y976D02*
X395Y1175D01*
X197Y1216D02*
X551Y861D01*
X197Y1160D02*
X568Y789D01*
X197Y809D02*
X479Y1091D01*
X197Y1373D02*
X563Y1007D01*
X197Y1088D02*
X339Y1230D01*
X197Y1143D02*
X312Y1258D01*
X197Y1327D02*
X554Y970D01*
X197Y1271D02*
X549Y920D01*
X197Y197D02*
Y1373D01*
Y420D02*
X567Y790D01*
X197Y547D02*
X547Y197D01*
X197Y492D02*
X492Y197D01*
X197Y436D02*
X436Y197D01*
X197Y380D02*
X380Y197D01*
X197Y325D02*
X325Y197D01*
X197Y269D02*
X269Y197D01*
X197Y698D02*
X534Y1035D01*
X197Y642D02*
X562Y1008D01*
X197Y754D02*
X506Y1063D01*
X197Y587D02*
X550Y940D01*
X197Y475D02*
X555Y834D01*
X197Y531D02*
X549Y883D01*
X12756Y9173D02*
X13110D01*
Y8701D02*
Y9173D01*
Y8701D02*
X13504Y8307D01*
X13110Y9173D02*
Y11230D01*
X13504Y5906D02*
Y8307D01*
X13140Y11260D02*
X14409D01*
X11772Y9278D02*
X11825Y9331D01*
X11614Y6614D02*
X12493Y5735D01*
X13334D02*
X13504Y5906D01*
X12493Y5735D02*
X13334D01*
X11929Y9278D02*
X12652D01*
X12756Y9173D01*
X11825Y9331D02*
X11929D01*
X14409Y11260D02*
X14528Y11378D01*
Y11654D01*
X14898Y12024D01*
X14961D01*
D11*
X12311Y14193D02*
D03*
Y12657D02*
D03*
X12811Y14193D02*
D03*
Y12657D02*
D03*
X11811Y14193D02*
D03*
Y12657D02*
D03*
X11311Y14193D02*
D03*
Y12657D02*
D03*
X10811Y14193D02*
D03*
Y12657D02*
D03*
D12*
X9055Y14646D02*
D03*
X9449D02*
D03*
X9882Y8425D02*
D03*
X10433D02*
D03*
X13543Y8189D02*
D03*
X14094D02*
D03*
D13*
X9242Y8455D02*
D03*
Y8848D02*
D03*
X9242Y9242D02*
D03*
X14921Y984D02*
D03*
Y1535D02*
D03*
X14921Y4606D02*
D03*
Y5157D02*
D03*
D14*
X3878Y7874D02*
D03*
X4390D02*
D03*
X3689Y3819D02*
D03*
X4201D02*
D03*
D15*
X3187Y14843D02*
D03*
Y12795D02*
D03*
X3687D02*
D03*
X4187D02*
D03*
X4687D02*
D03*
X3687Y14843D02*
D03*
X4187D02*
D03*
X4687D02*
D03*
X3148Y6811D02*
D03*
Y4764D02*
D03*
X3648D02*
D03*
X4148D02*
D03*
X4648D02*
D03*
X3648Y6811D02*
D03*
X4148D02*
D03*
X4648D02*
D03*
D16*
X10551Y10404D02*
D03*
Y11093D02*
D03*
X13819Y10915D02*
D03*
Y11604D02*
D03*
X14803Y7451D02*
D03*
Y8140D02*
D03*
X6772Y6742D02*
D03*
Y7431D02*
D03*
D17*
X14734Y14016D02*
D03*
X15423D02*
D03*
D18*
X6417Y3701D02*
D03*
X7205Y3327D02*
D03*
Y4075D02*
D03*
D19*
X12077Y11319D02*
D03*
X13002D02*
D03*
D20*
X3386Y9469D02*
D03*
Y11171D02*
D03*
D21*
X14843Y6614D02*
D03*
Y6220D02*
D03*
D22*
Y14685D02*
D03*
X15236D02*
D03*
D23*
X4685Y11516D02*
D03*
Y12028D02*
D03*
D24*
X1496Y15001D02*
D03*
X2283D02*
D03*
D25*
X9262Y2579D02*
D03*
Y3071D02*
D03*
Y5531D02*
D03*
Y6024D02*
D03*
Y6516D02*
D03*
X14006Y1102D02*
D03*
Y610D02*
D03*
Y1594D02*
D03*
Y4547D02*
D03*
Y2087D02*
D03*
Y2579D02*
D03*
Y5039D02*
D03*
D26*
X9685Y3071D02*
D03*
Y2579D02*
D03*
Y5531D02*
D03*
Y6024D02*
D03*
Y6516D02*
D03*
X9911Y6959D02*
D03*
X13583Y610D02*
D03*
Y1102D02*
D03*
Y1594D02*
D03*
Y2087D02*
D03*
Y2579D02*
D03*
Y4547D02*
D03*
X10404Y6959D02*
D03*
X13583Y5039D02*
D03*
D27*
X9911Y7382D02*
D03*
X10404D02*
D03*
D28*
X11929Y8778D02*
D03*
Y9278D02*
D03*
Y9778D02*
D03*
Y10278D02*
D03*
X13976Y8778D02*
D03*
Y9778D02*
D03*
Y9278D02*
D03*
Y10278D02*
D03*
D29*
X8465Y669D02*
D03*
X13150Y15315D02*
D03*
X6929Y787D02*
D03*
X591Y15039D02*
D03*
D30*
X15236Y14685D02*
Y14883D01*
Y14685D02*
X15454D01*
X14961Y9023D02*
X15297D01*
X14961Y9523D02*
X15297D01*
X14961Y8726D02*
Y9023D01*
X14094Y7912D02*
Y8189D01*
X14843Y6220D02*
X15041D01*
X14921Y5157D02*
X15198D01*
X14921Y984D02*
X15198D01*
X14843Y6002D02*
Y6220D01*
X14644D02*
X14843D01*
X14921Y5157D02*
Y5415D01*
X14644Y5157D02*
X14921D01*
X14006Y5039D02*
X14529D01*
X14006D02*
Y5307D01*
X13583Y5039D02*
Y5307D01*
X13315Y5039D02*
X13583D01*
X14921Y727D02*
Y984D01*
X14006Y343D02*
Y610D01*
X13583Y343D02*
Y610D01*
X14006D02*
X14529D01*
X13315D02*
X13583D01*
X12811Y13620D02*
Y14193D01*
X13061D01*
X11929Y9778D02*
X12472D01*
X9882Y8148D02*
Y8425D01*
Y8702D01*
X9911Y7382D02*
Y7905D01*
X9624Y8425D02*
X9882D01*
X9242Y8455D02*
X9519D01*
X9644Y7382D02*
X9911D01*
X9644Y6959D02*
X9911D01*
X9685Y2579D02*
X9952D01*
X8739D02*
X9262D01*
X14006Y5118D02*
X14921D01*
X6750Y9524D02*
X7087D01*
X6750Y9024D02*
X7087D01*
X4687Y12795D02*
Y13338D01*
Y12795D02*
X4905D01*
X4390Y7874D02*
X4628D01*
X4390Y7577D02*
Y7874D01*
X7205Y4075D02*
Y4332D01*
Y4075D02*
X7482D01*
X7205Y3817D02*
Y4075D01*
X4648Y4764D02*
Y5307D01*
Y4764D02*
X4866D01*
X4648Y4221D02*
Y4764D01*
X4148D02*
Y5307D01*
Y4221D02*
Y4764D01*
X4201Y3819D02*
Y4116D01*
Y3819D02*
X4439D01*
X4201Y3522D02*
Y3819D01*
X2244Y8661D02*
Y9352D01*
Y8661D02*
X2679D01*
X2244Y7971D02*
Y8661D01*
Y7087D02*
Y7777D01*
Y7087D02*
X2679D01*
X1496Y15001D02*
Y15416D01*
Y15001D02*
X1754D01*
X1496Y14586D02*
Y15001D01*
X2244Y6396D02*
Y7087D01*
X11171Y8179D02*
X11220Y8228D01*
X11171Y4931D02*
Y8179D01*
Y4931D02*
X12047Y4055D01*
X10256Y2559D02*
Y6524D01*
X14115Y7815D02*
X15315D01*
X14094Y7835D02*
X14115Y7815D01*
X10502Y4498D02*
Y7195D01*
X10404Y6900D02*
Y6959D01*
X9911Y6860D02*
X10246Y6526D01*
X10502Y4498D02*
X11575Y3425D01*
X15315Y5138D02*
Y6220D01*
X14921Y5138D02*
X15315D01*
X13110Y11230D02*
X13140Y11260D01*
X14843Y6614D02*
Y7411D01*
X5079Y11575D02*
Y12441D01*
X5197Y12559D01*
X6260D01*
X787Y10311D02*
X1535Y9563D01*
Y5118D02*
Y9563D01*
Y5118D02*
X1929Y4724D01*
X4125Y12126D02*
X4291Y11960D01*
Y11654D02*
Y11960D01*
Y11654D02*
X4429Y11516D01*
X5020D02*
X5079Y11575D01*
X3819Y12126D02*
X4125D01*
X3687Y12258D02*
X3819Y12126D01*
X783Y1590D02*
Y2677D01*
X3687Y12258D02*
Y12795D01*
X4902Y8248D02*
X5276Y7874D01*
X3878Y8248D02*
X4902D01*
X3878Y7874D02*
Y8248D01*
X4390Y7874D02*
X4724D01*
X3384D02*
X3878D01*
X6378Y7087D02*
X7628D01*
X6260Y6969D02*
X6378Y7087D01*
X6260Y6457D02*
Y6969D01*
X6102Y6299D02*
X6260Y6457D01*
X5079Y6299D02*
X6102D01*
X5079Y5787D02*
Y6299D01*
Y6299D02*
Y7520D01*
Y4764D02*
Y5787D01*
X2244Y6732D02*
X3189Y5787D01*
X5079D01*
X7205Y4075D02*
Y5630D01*
X5079Y6299D02*
X5079Y6299D01*
X4724Y7874D02*
X5079Y7520D01*
X5276Y7874D02*
X6772D01*
Y8110D01*
Y7431D02*
Y7874D01*
X3148Y6811D02*
Y7638D01*
X3384Y7874D01*
X6260Y12559D02*
X6795Y12024D01*
X6654Y13425D02*
X6929D01*
X7087Y12024D02*
X7150D01*
X4429Y11516D02*
X5020D01*
X6795Y12024D02*
X7087D01*
X4648Y4764D02*
X5079D01*
Y4173D02*
Y4764D01*
X1929Y4724D02*
X2598D01*
X3689Y3819D02*
Y4722D01*
X3148Y3821D02*
X3687D01*
X2795Y4173D02*
X3148Y3821D01*
X2598Y4724D02*
X2795Y4528D01*
Y4173D02*
Y4528D01*
X4724Y3819D02*
X5079Y4173D01*
X4201Y3819D02*
X4724D01*
X9882Y7717D02*
Y8425D01*
X673Y13311D02*
X787D01*
X315Y12953D02*
X673Y13311D01*
X315Y1575D02*
Y12953D01*
Y1575D02*
X945Y945D01*
X14006Y4626D02*
X14921D01*
Y1535D02*
Y4626D01*
X14006Y1535D02*
X14921D01*
X12165Y630D02*
X13524D01*
X11880Y915D02*
X12165Y630D01*
X13504Y5039D02*
X13583Y5118D01*
X13346Y5039D02*
X13504D01*
X13268Y4961D02*
X13346Y5039D01*
X9911Y6860D02*
Y7037D01*
X9685Y2657D02*
X9783Y2559D01*
X1303Y984D02*
Y1070D01*
Y741D02*
Y984D01*
X4606D01*
X433Y472D02*
X468Y508D01*
X783Y1590D02*
X1303Y1070D01*
X468Y508D02*
X1070D01*
X1303Y741D01*
X13110Y4055D02*
X13268Y4213D01*
X12047Y4055D02*
X13110D01*
X13268Y4213D02*
Y4961D01*
X9243Y2639D02*
X9262Y2657D01*
X13524Y630D02*
X13583Y689D01*
X14006D02*
X14065Y630D01*
X14921D01*
X15043Y9524D02*
X15315Y9252D01*
Y6220D02*
Y9252D01*
X9469Y14705D02*
X9646Y14882D01*
X10669D01*
X10811Y14740D01*
Y14193D02*
Y14740D01*
X9055Y13898D02*
X9469Y14311D01*
Y14646D01*
X12811Y12657D02*
Y13173D01*
X10433Y7677D02*
Y8819D01*
X11575Y3110D02*
Y3425D01*
X9783Y2559D02*
X11797D01*
X11880Y2476D01*
Y915D02*
Y2476D01*
X13346Y1102D02*
X13583D01*
X12598Y1850D02*
X13346Y1102D01*
X11575Y3110D02*
X12598Y2087D01*
Y1850D02*
Y2087D01*
X8661Y10311D02*
X9055D01*
Y10197D02*
Y10311D01*
Y13425D01*
Y13898D01*
Y10197D02*
X10433Y8819D01*
X9055Y13425D02*
X9528D01*
X10236Y12756D02*
Y13110D01*
X10433Y13307D01*
X12677D01*
X12811Y13173D01*
X13819Y15000D02*
Y15322D01*
X14002Y15505D01*
X15046D01*
X15315Y15236D01*
X15197Y14724D02*
X15236Y14764D01*
X13431Y14612D02*
X13819Y15000D01*
X13335Y14193D02*
X13431Y14289D01*
Y14612D01*
X6772Y8110D02*
X7480Y8819D01*
Y11693D01*
X7150Y12024D02*
X7480Y11693D01*
X7677Y7992D02*
Y12677D01*
X6929Y13425D02*
X7677Y12677D01*
X7205Y5630D02*
X7677Y6102D01*
Y7992D01*
X7165D02*
X7677D01*
X9045Y9724D02*
X9065D01*
X9242Y9547D01*
Y9242D02*
Y9547D01*
D31*
X14006Y5039D02*
Y5118D01*
X14094Y7835D02*
Y8189D01*
X5148Y14222D02*
X5630Y13740D01*
X4203Y14222D02*
X5148D01*
X3720Y13740D02*
X4203Y14222D01*
X4163Y12819D02*
X4187Y12795D01*
X4163Y12819D02*
Y13612D01*
X4360Y13809D01*
X3150Y13740D02*
X3720D01*
X4687Y12795D02*
Y13540D01*
X4848Y13701D01*
X12756Y9961D02*
Y10000D01*
X12533Y9778D02*
X12756Y10000D01*
X11929Y9778D02*
X12533D01*
X11220Y8228D02*
X11319D01*
X15315Y6220D02*
X15315Y6220D01*
X14843Y6220D02*
X15315D01*
X5630Y13386D02*
Y13740D01*
X14961Y9023D02*
Y9523D01*
X3337Y11024D02*
X3425Y10935D01*
X1890Y11024D02*
X3337D01*
X1614Y11299D02*
X1890Y11024D01*
X3937Y11850D02*
X4055Y11732D01*
Y9508D02*
Y11732D01*
X3268Y11850D02*
X3937D01*
X2795Y12323D02*
X3268Y11850D01*
X3780Y9232D02*
X4055Y9508D01*
X783Y2677D02*
Y4996D01*
X1024Y5236D02*
Y5630D01*
X783Y4996D02*
X1024Y5236D01*
X5965Y13386D02*
X6827Y12524D01*
X5630Y13386D02*
X5965D01*
X6827Y12524D02*
X7087D01*
X2244Y6732D02*
Y7087D01*
X7012Y9449D02*
X7087Y9524D01*
X7087Y9024D02*
X7087Y9024D01*
Y9524D01*
X2795Y13386D02*
X3150Y13740D01*
X2244Y7087D02*
Y8661D01*
X6654Y13425D02*
Y14370D01*
X2795Y12323D02*
Y13386D01*
X2283Y14921D02*
X3187D01*
Y14136D02*
Y14843D01*
X3228Y14094D02*
X3661D01*
X3187Y14136D02*
X3228Y14094D01*
X2283Y14409D02*
Y14921D01*
X2126Y14252D02*
X2283Y14409D01*
X1732Y14252D02*
X2126D01*
X4687Y12069D02*
Y12795D01*
X4646Y12028D02*
X4687Y12069D01*
X1614Y11299D02*
Y14134D01*
X1496Y14921D02*
Y15276D01*
X14921Y630D02*
X15039Y512D01*
X14921Y630D02*
Y984D01*
X1614Y14134D02*
X1732Y14252D01*
X1496Y15276D02*
X1693Y15472D01*
X5551D01*
X6654Y14370D01*
X15236Y15157D02*
X15315Y15236D01*
X15236Y14685D02*
Y14764D01*
Y15157D01*
X12811Y14193D02*
X13335D01*
X9242Y8455D02*
X9272Y8425D01*
X9882D01*
X8386Y2913D02*
Y3228D01*
X8720Y2579D02*
X9262D01*
X8386Y2913D02*
X8720Y2579D01*
D32*
X9528Y10327D02*
X10935Y8920D01*
Y4774D02*
Y8920D01*
Y4774D02*
X13150Y2559D01*
X9291Y10276D02*
X10748Y8819D01*
Y4606D02*
Y8819D01*
Y4606D02*
X13228Y2126D01*
X8248Y8760D02*
X8386Y8898D01*
X8248Y6004D02*
Y8760D01*
Y6004D02*
X8642Y5610D01*
X12701Y11929D02*
X13150D01*
X12464Y11693D02*
X12701Y11929D01*
X11614Y11693D02*
X12464D01*
X12687D02*
X13750D01*
X12549Y11555D02*
X12687Y11693D01*
X12549Y11043D02*
Y11555D01*
X12451Y10945D02*
X12549Y11043D01*
X11811Y10945D02*
X12451D01*
X12717Y10591D02*
Y10630D01*
X12404Y10278D02*
X12717Y10591D01*
X11929Y10278D02*
X12404D01*
X11339Y10669D02*
X11496Y10827D01*
X11339Y8583D02*
Y10669D01*
Y8583D02*
X11405Y8517D01*
X12679Y8778D02*
X13189Y8268D01*
Y7441D02*
Y8268D01*
X12835Y7087D02*
X13189Y7441D01*
X14803Y7451D02*
X14843Y7411D01*
X8583Y8110D02*
Y8346D01*
Y8110D02*
X9262Y7431D01*
X6417Y3701D02*
Y4134D01*
X6070Y4481D02*
X6417Y4134D01*
X6070Y4481D02*
Y4928D01*
X6772Y5630D02*
Y6742D01*
X6070Y4928D02*
X6772Y5630D01*
X4488Y9370D02*
Y10394D01*
X3937Y8819D02*
X4488Y9370D01*
X2835Y8819D02*
X3937D01*
X4488Y10394D02*
X5118Y11024D01*
X2244Y10236D02*
X2756Y9724D01*
Y8898D02*
Y9724D01*
Y8898D02*
X2835Y8819D01*
X6378Y4724D02*
X6811Y4291D01*
Y3484D02*
Y4291D01*
Y3484D02*
X6969Y3327D01*
X7205D01*
X6417Y2008D02*
Y3701D01*
X6024Y11024D02*
X6524Y10524D01*
X5118Y11024D02*
X6024D01*
X6524Y10524D02*
X7087D01*
X4528Y2480D02*
Y2835D01*
X5630Y3937D01*
X1693Y1535D02*
X5945D01*
X6417Y2008D01*
X5630Y11811D02*
X6063D01*
X6850Y11024D01*
X7087D01*
X5784Y10024D02*
X7087D01*
X5630Y10178D02*
X5784Y10024D01*
X14606Y9291D02*
Y9669D01*
Y8661D02*
Y9291D01*
X13976Y9278D02*
X14593D01*
X14606Y9291D01*
Y8661D02*
X14803Y8465D01*
X11024Y10512D02*
Y10827D01*
X10748Y10315D02*
X10837Y10404D01*
X10915D01*
X10551D02*
X10837D01*
X10915D02*
X11024Y10512D01*
X10748Y10079D02*
Y10315D01*
X11332Y11135D02*
X11624D01*
X11024Y10827D02*
X11332Y11135D01*
X11804Y10952D02*
X11811Y10945D01*
X11804Y10952D02*
Y10954D01*
X11624Y11135D02*
X11804Y10954D01*
X3648Y4764D02*
X3689Y4722D01*
X1220Y2008D02*
Y3386D01*
Y2008D02*
X1693Y1535D01*
X13484Y2559D02*
X13583Y2657D01*
X13150Y2559D02*
X13484D01*
X13543Y2126D02*
X13583Y2165D01*
X13228Y2126D02*
X13543D01*
X9813Y6024D02*
X10039Y5797D01*
Y4961D02*
Y5797D01*
X9921Y4843D02*
X10039Y4961D01*
X9685Y6024D02*
X9813D01*
X13150Y11929D02*
X13386Y12165D01*
X9262Y3150D02*
Y4636D01*
X13819Y10278D02*
Y10837D01*
X13898Y10915D01*
X13819Y11624D02*
Y12283D01*
X13750Y11693D02*
X13819Y11624D01*
X8642Y5610D02*
X9262D01*
X14006Y1535D02*
Y1673D01*
X9262Y6654D02*
Y7431D01*
X12835Y6063D02*
Y6575D01*
X12480Y6417D02*
Y6706D01*
X12008Y7179D02*
Y7520D01*
X11772Y7756D02*
X12008Y7520D01*
Y7179D02*
X12480Y6706D01*
X12244Y7165D02*
X12835Y6575D01*
X12244Y7165D02*
Y8189D01*
X11772Y8778D02*
X12679D01*
X12598Y4646D02*
X12835D01*
X11614Y5630D02*
X12598Y4646D01*
X14215Y9778D02*
X14384D01*
X14606Y10000D01*
Y10169D01*
X14961Y10524D01*
X14606Y9669D02*
X14961Y10024D01*
X12795Y7992D02*
Y8073D01*
X11405Y8517D02*
X12352D01*
X12795Y8073D01*
X14803Y8140D02*
Y8465D01*
X10906Y9843D02*
Y9921D01*
X10748Y10079D02*
X10906Y9921D01*
X10551Y11093D02*
X10699D01*
X10906Y11299D01*
X11978D01*
X13386Y12165D02*
Y12874D01*
X9035Y14390D02*
Y14646D01*
X8858Y14213D02*
X9035Y14390D01*
X8504Y14213D02*
X8858D01*
X9469Y14646D02*
Y14705D01*
X12311Y12075D02*
Y12657D01*
Y13650D02*
Y14193D01*
X12244Y12008D02*
X12311Y12075D01*
X9035Y14646D02*
Y14980D01*
X11311Y14193D02*
Y14791D01*
X9806Y12008D02*
X12244D01*
X9528Y10327D02*
Y11729D01*
X9806Y12008D01*
X10404Y6959D02*
Y7382D01*
X13543Y1142D02*
X13583Y1181D01*
X9035Y14980D02*
X9213Y15157D01*
X10945D01*
X11311Y14791D01*
X9291Y10276D02*
Y12598D01*
X10236Y13543D01*
X12205D01*
X12311Y13650D01*
X14252Y14882D02*
Y15157D01*
X14764Y14724D02*
X14803Y14594D01*
X14695Y14134D02*
X14803Y14242D01*
Y14594D01*
X15157Y12992D02*
Y13346D01*
X13386Y12874D02*
X13740Y13228D01*
Y14370D01*
X14252Y14882D01*
X14961Y11524D02*
X15028D01*
X15384Y14134D02*
X15512Y14006D01*
X14961Y10524D02*
X15512Y11075D01*
Y14006D01*
X15028Y11524D02*
X15354Y11850D01*
Y12795D01*
X15157Y12992D02*
X15354Y12795D01*
X8583Y11811D02*
X8661D01*
X8346Y9803D02*
X8583D01*
X8268Y9882D02*
X8346Y9803D01*
X8268Y9882D02*
Y11496D01*
X8583Y11811D01*
X8078Y5820D02*
Y13786D01*
Y5820D02*
X9262Y4636D01*
X8078Y13786D02*
X8504Y14213D01*
X9006Y8848D02*
X9242D01*
X8917Y8760D02*
X9006Y8848D01*
X8917Y8100D02*
Y8760D01*
Y8100D02*
X9065Y7953D01*
X9291D01*
D33*
X3687Y14843D02*
X4187D01*
X3187Y12795D02*
X3687D01*
X4148Y4764D02*
X4648D01*
X14006Y1181D02*
Y1535D01*
X3148Y4764D02*
X3648D01*
Y6811D02*
X4148D01*
D34*
X7087Y9024D02*
D03*
X7087Y12024D02*
D03*
Y11524D02*
D03*
Y11024D02*
D03*
Y10524D02*
D03*
Y10024D02*
D03*
Y9524D02*
D03*
X787Y13810D02*
D03*
X787Y10811D02*
D03*
Y11311D02*
D03*
Y11811D02*
D03*
Y12311D02*
D03*
Y12811D02*
D03*
Y13311D02*
D03*
X14961Y9023D02*
D03*
Y9523D02*
D03*
X14961Y12024D02*
D03*
Y11524D02*
D03*
Y11024D02*
D03*
Y10524D02*
D03*
Y10024D02*
D03*
X8661Y13812D02*
D03*
Y13312D02*
D03*
X8661Y10811D02*
D03*
Y11311D02*
D03*
Y11811D02*
D03*
Y12311D02*
D03*
Y12811D02*
D03*
D35*
X7087Y12524D02*
D03*
X787Y10311D02*
D03*
X14961Y12524D02*
D03*
X8661Y10311D02*
D03*
D36*
X5630Y2362D02*
D03*
Y3937D02*
D03*
Y5512D02*
D03*
Y7087D02*
D03*
Y8661D02*
D03*
Y10236D02*
D03*
Y11811D02*
D03*
Y13386D02*
D03*
X2244Y2362D02*
D03*
Y3937D02*
D03*
Y7087D02*
D03*
Y5512D02*
D03*
Y8661D02*
D03*
Y10236D02*
D03*
Y11811D02*
D03*
Y13386D02*
D03*
D37*
X12667Y4144D02*
D03*
X13169Y4134D02*
D03*
X4911Y13839D02*
D03*
X4360Y13848D02*
D03*
X15157Y13228D02*
D03*
X12756Y9961D02*
D03*
X12717Y10630D02*
D03*
X12756Y9173D02*
D03*
X8583Y8543D02*
D03*
X6444Y9284D02*
D03*
X1024Y7441D02*
D03*
Y5630D02*
D03*
X7165Y7992D02*
D03*
X6378Y4724D02*
D03*
X4528Y2480D02*
D03*
X6654Y13425D02*
D03*
X3553Y14104D02*
D03*
X11496Y10827D02*
D03*
X1024Y6220D02*
D03*
X12283Y906D02*
D03*
X1024Y6870D02*
D03*
X1220Y3386D02*
D03*
X12717Y906D02*
D03*
X12283Y472D02*
D03*
X4508Y886D02*
D03*
X433Y472D02*
D03*
X906Y906D02*
D03*
X13819Y12283D02*
D03*
X15197Y394D02*
D03*
X9803Y4843D02*
D03*
X11575Y3110D02*
D03*
X12835Y6063D02*
D03*
Y7087D02*
D03*
X11772Y7756D02*
D03*
X12244Y8189D02*
D03*
X11319Y8209D02*
D03*
X15315Y15236D02*
D03*
X12480Y6417D02*
D03*
X11614Y6614D02*
D03*
X12835Y4646D02*
D03*
X11614Y5630D02*
D03*
X12795Y7992D02*
D03*
X10906Y9843D02*
D03*
X11496Y11693D02*
D03*
X9528Y13425D02*
D03*
X10236Y12756D02*
D03*
X14252Y15118D02*
D03*
X8386Y9016D02*
D03*
X8583Y9803D02*
D03*
X9045Y9724D02*
D03*
X9291Y7953D02*
D03*
X8386Y3228D02*
D03*
M02*
