M48
;Layer_Color=9474304
;FILE_FORMAT=2:4
INCH,LZ
;TYPE=PLATED
T3F00S00C0.0394
%
G90
G05
T03
G00X002244Y002618
M15
G01Y002106
M16
G00X002244Y004193
M15
G01Y003681
M16
G00X002244Y005768
M15
G01Y005256
M16
G00X002244Y007343
M15
G01Y006831
M16
G00X002244Y008917
M15
G01Y008406
M16
G00X002244Y010492
M15
G01Y00998
M16
G00X002244Y012067
M15
G01Y011555
M16
G00X002244Y013642
M15
G01Y01313
M16
G00X00563Y013642
M15
G01Y01313
M16
G00X00563Y012067
M15
G01Y011555
M16
G00X00563Y010492
M15
G01Y00998
M16
G00X00563Y008917
M15
G01Y008406
M16
G00X00563Y007343
M15
G01Y006831
M16
G00X00563Y005768
M15
G01Y005256
M16
G00X00563Y004193
M15
G01Y003681
M16
G00X00563Y002618
M15
G01Y002106
M16
M17
M30
