%FSLAX24Y24*%
%MOIN*%
G70*
G01*
G75*
G04 Layer_Color=16776960*
%ADD10R,0.0118X0.0295*%
%ADD11R,0.0236X0.0886*%
%ADD12R,0.0591X0.0295*%
%ADD13R,0.0295X0.0591*%
%ADD14R,0.0354X0.0315*%
%ADD15R,0.0315X0.0354*%
%ADD16R,0.0433X0.0492*%
%ADD17R,0.0492X0.0433*%
%ADD18R,0.0480X0.0358*%
%ADD19R,0.0358X0.0480*%
%ADD20R,0.0906X0.0906*%
%ADD21R,0.0354X0.0315*%
%ADD22R,0.0197X0.0236*%
%ADD23R,0.0236X0.0197*%
%ADD24R,0.0827X0.0315*%
%ADD25R,0.0984X0.0315*%
%ADD26R,0.0315X0.0354*%
%ADD27R,0.0886X0.0236*%
%ADD28C,0.0335*%
%ADD29R,0.0846X0.0335*%
%ADD30R,0.0335X0.0846*%
%ADD31C,0.0197*%
%ADD32C,0.0118*%
%ADD33C,0.0157*%
%ADD34C,0.0177*%
%ADD35C,0.0138*%
%ADD36C,0.0591*%
%ADD37R,0.0591X0.0591*%
%ADD38O,0.0669X0.1181*%
%ADD39C,0.0500*%
%ADD40C,0.0394*%
%ADD41R,0.0630X0.1063*%
%ADD42R,0.2165X0.0827*%
%ADD43R,0.0906X0.0236*%
%ADD44C,0.0100*%
%ADD45C,0.0098*%
%ADD46C,0.0236*%
%ADD47C,0.0394*%
%ADD48C,0.0039*%
%ADD49C,0.0079*%
%ADD50C,0.0150*%
%ADD51C,0.0050*%
%ADD52C,0.0070*%
%ADD53C,0.0069*%
%ADD54R,0.0198X0.0375*%
%ADD55R,0.0316X0.0966*%
%ADD56R,0.0671X0.0375*%
%ADD57R,0.0375X0.0671*%
%ADD58R,0.0434X0.0395*%
%ADD59R,0.0395X0.0434*%
%ADD60R,0.0513X0.0572*%
%ADD61R,0.0572X0.0513*%
%ADD62R,0.0560X0.0438*%
%ADD63R,0.0438X0.0560*%
%ADD64R,0.0986X0.0986*%
%ADD65R,0.0434X0.0395*%
%ADD66R,0.0277X0.0316*%
%ADD67R,0.0316X0.0277*%
%ADD68R,0.0907X0.0395*%
%ADD69R,0.1064X0.0395*%
%ADD70R,0.0395X0.0434*%
%ADD71R,0.0966X0.0316*%
%ADD72C,0.0415*%
%ADD73R,0.0926X0.0415*%
%ADD74R,0.0415X0.0926*%
%ADD75C,0.0671*%
%ADD76R,0.0671X0.0671*%
%ADD77O,0.0749X0.1261*%
%ADD78C,0.0580*%
%ADD79R,0.0710X0.1143*%
%ADD80R,0.2245X0.0907*%
%ADD81R,0.0986X0.0316*%
%ADD82C,0.0474*%
G36*
X16201Y11622D02*
Y11615D01*
X16200Y11608D01*
X16200Y11601D01*
X16199Y11595D01*
X16198Y11590D01*
X16198Y11584D01*
X16197Y11580D01*
X16196Y11576D01*
X16195Y11572D01*
X16194Y11568D01*
X16193Y11565D01*
X16193Y11563D01*
X16192Y11561D01*
X16192Y11560D01*
X16191Y11559D01*
Y11559D01*
X16187Y11551D01*
X16182Y11543D01*
X16177Y11538D01*
X16172Y11533D01*
X16167Y11528D01*
X16163Y11526D01*
X16161Y11525D01*
X16160Y11524D01*
X16160Y11523D01*
X16159D01*
X16150Y11520D01*
X16141Y11517D01*
X16131Y11515D01*
X16122Y11513D01*
X16117Y11513D01*
X16114Y11512D01*
X16110Y11512D01*
X16107D01*
X16105Y11512D01*
X16101D01*
X16088Y11512D01*
X16077Y11514D01*
X16071Y11515D01*
X16067Y11516D01*
X16062Y11517D01*
X16058Y11518D01*
X16055Y11520D01*
X16051Y11521D01*
X16049Y11522D01*
X16047Y11523D01*
X16045Y11524D01*
X16044Y11525D01*
X16043Y11525D01*
X16043D01*
X16035Y11531D01*
X16028Y11537D01*
X16023Y11543D01*
X16018Y11549D01*
X16015Y11554D01*
X16013Y11558D01*
X16012Y11560D01*
X16012Y11561D01*
X16011Y11561D01*
Y11562D01*
X16008Y11571D01*
X16006Y11581D01*
X16005Y11591D01*
X16004Y11600D01*
X16003Y11605D01*
X16003Y11609D01*
Y11613D01*
X16003Y11616D01*
Y11619D01*
Y11621D01*
Y11622D01*
Y11622D01*
Y11768D01*
X16036D01*
Y11622D01*
Y11614D01*
X16037Y11606D01*
X16038Y11599D01*
X16038Y11592D01*
X16040Y11586D01*
X16041Y11581D01*
X16043Y11576D01*
X16044Y11572D01*
X16045Y11569D01*
X16047Y11566D01*
X16048Y11563D01*
X16049Y11561D01*
X16050Y11560D01*
X16051Y11559D01*
X16052Y11558D01*
Y11558D01*
X16055Y11555D01*
X16059Y11553D01*
X16067Y11548D01*
X16075Y11546D01*
X16084Y11543D01*
X16092Y11542D01*
X16095Y11542D01*
X16098D01*
X16101Y11541D01*
X16104D01*
X16112Y11542D01*
X16119Y11543D01*
X16125Y11544D01*
X16131Y11546D01*
X16135Y11547D01*
X16138Y11548D01*
X16140Y11549D01*
X16141Y11550D01*
X16146Y11553D01*
X16150Y11557D01*
X16154Y11561D01*
X16157Y11565D01*
X16159Y11568D01*
X16160Y11571D01*
X16161Y11573D01*
X16162Y11574D01*
X16163Y11577D01*
X16164Y11580D01*
X16165Y11588D01*
X16166Y11596D01*
X16167Y11604D01*
X16167Y11611D01*
X16167Y11614D01*
Y11617D01*
Y11619D01*
Y11621D01*
Y11622D01*
Y11622D01*
Y11768D01*
X16201D01*
Y11622D01*
D02*
G37*
G36*
X4345Y6771D02*
X4348D01*
X4352Y6771D01*
X4356Y6770D01*
X4361Y6770D01*
X4372Y6768D01*
X4383Y6766D01*
X4395Y6762D01*
X4406Y6757D01*
X4407D01*
X4408Y6756D01*
X4409Y6755D01*
X4411Y6754D01*
X4414Y6752D01*
X4417Y6751D01*
X4423Y6746D01*
X4431Y6739D01*
X4439Y6732D01*
X4446Y6724D01*
X4453Y6714D01*
X4453Y6713D01*
X4454Y6713D01*
X4455Y6711D01*
X4456Y6709D01*
X4457Y6706D01*
X4458Y6703D01*
X4460Y6699D01*
X4461Y6695D01*
X4463Y6691D01*
X4464Y6686D01*
X4466Y6676D01*
X4468Y6664D01*
X4469Y6651D01*
Y6651D01*
Y6650D01*
Y6648D01*
X4469Y6646D01*
Y6643D01*
X4468Y6639D01*
X4468Y6635D01*
X4467Y6630D01*
X4465Y6621D01*
X4462Y6610D01*
X4458Y6599D01*
X4455Y6594D01*
X4452Y6588D01*
Y6588D01*
X4451Y6587D01*
X4451Y6586D01*
X4449Y6584D01*
X4448Y6582D01*
X4445Y6579D01*
X4440Y6573D01*
X4434Y6566D01*
X4426Y6559D01*
X4417Y6552D01*
X4406Y6546D01*
X4405D01*
X4405Y6545D01*
X4403Y6544D01*
X4400Y6544D01*
X4398Y6542D01*
X4395Y6541D01*
X4391Y6540D01*
X4386Y6538D01*
X4382Y6537D01*
X4376Y6535D01*
X4365Y6533D01*
X4352Y6532D01*
X4339Y6531D01*
X4333D01*
X4330Y6531D01*
X4327D01*
X4324Y6532D01*
X4320Y6532D01*
X4311Y6533D01*
X4302Y6535D01*
X4292Y6537D01*
X4282Y6540D01*
X4282D01*
X4281Y6541D01*
X4280Y6542D01*
X4278Y6542D01*
X4276Y6543D01*
X4274Y6545D01*
X4268Y6548D01*
X4261Y6552D01*
X4254Y6557D01*
X4247Y6562D01*
X4239Y6569D01*
Y6569D01*
X4239Y6568D01*
X4238Y6567D01*
X4237Y6565D01*
X4236Y6563D01*
X4234Y6561D01*
X4231Y6555D01*
X4227Y6549D01*
X4223Y6541D01*
X4219Y6534D01*
X4216Y6526D01*
X4193Y6536D01*
Y6537D01*
X4194Y6537D01*
X4195Y6539D01*
X4195Y6541D01*
X4196Y6543D01*
X4198Y6546D01*
X4199Y6549D01*
X4201Y6553D01*
X4205Y6561D01*
X4210Y6570D01*
X4216Y6580D01*
X4224Y6590D01*
Y6591D01*
X4223Y6592D01*
X4222Y6593D01*
X4221Y6595D01*
X4220Y6598D01*
X4219Y6601D01*
X4218Y6605D01*
X4216Y6608D01*
X4215Y6613D01*
X4213Y6618D01*
X4211Y6628D01*
X4209Y6640D01*
X4208Y6652D01*
Y6653D01*
Y6654D01*
Y6656D01*
X4209Y6658D01*
Y6661D01*
X4209Y6665D01*
X4210Y6668D01*
X4210Y6673D01*
X4212Y6682D01*
X4215Y6693D01*
X4219Y6703D01*
X4225Y6714D01*
X4225Y6714D01*
X4225Y6715D01*
X4226Y6717D01*
X4228Y6719D01*
X4229Y6721D01*
X4231Y6724D01*
X4236Y6730D01*
X4243Y6737D01*
X4251Y6744D01*
X4260Y6751D01*
X4271Y6757D01*
X4271D01*
X4272Y6757D01*
X4274Y6758D01*
X4276Y6759D01*
X4279Y6760D01*
X4282Y6761D01*
X4286Y6763D01*
X4291Y6764D01*
X4296Y6766D01*
X4301Y6767D01*
X4312Y6769D01*
X4325Y6771D01*
X4339Y6772D01*
X4342D01*
X4345Y6771D01*
D02*
G37*
G36*
X4220Y6502D02*
X4223Y6502D01*
X4226Y6501D01*
X4230Y6500D01*
X4234Y6499D01*
X4234D01*
X4234Y6499D01*
X4237Y6498D01*
X4240Y6496D01*
X4244Y6494D01*
X4249Y6491D01*
X4255Y6487D01*
X4261Y6484D01*
X4267Y6479D01*
X4268D01*
X4268Y6478D01*
X4270Y6476D01*
X4274Y6473D01*
X4278Y6468D01*
X4284Y6463D01*
X4290Y6456D01*
X4297Y6447D01*
X4306Y6438D01*
X4306Y6438D01*
X4307Y6436D01*
X4309Y6434D01*
X4311Y6431D01*
X4314Y6428D01*
X4317Y6424D01*
X4325Y6416D01*
X4334Y6406D01*
X4342Y6397D01*
X4347Y6393D01*
X4351Y6389D01*
X4355Y6385D01*
X4359Y6382D01*
X4359D01*
X4360Y6382D01*
X4361Y6381D01*
X4362Y6380D01*
X4366Y6378D01*
X4371Y6375D01*
X4377Y6372D01*
X4383Y6370D01*
X4390Y6368D01*
X4397Y6368D01*
X4397D01*
X4400Y6368D01*
X4403Y6368D01*
X4407Y6369D01*
X4412Y6371D01*
X4417Y6373D01*
X4423Y6377D01*
X4428Y6381D01*
X4428Y6382D01*
X4430Y6383D01*
X4431Y6387D01*
X4434Y6390D01*
X4436Y6395D01*
X4438Y6401D01*
X4440Y6408D01*
X4440Y6416D01*
Y6416D01*
Y6417D01*
Y6418D01*
X4440Y6420D01*
X4440Y6423D01*
X4439Y6428D01*
X4437Y6434D01*
X4435Y6440D01*
X4431Y6446D01*
X4426Y6451D01*
X4426Y6452D01*
X4424Y6453D01*
X4421Y6456D01*
X4417Y6458D01*
X4412Y6461D01*
X4405Y6463D01*
X4398Y6464D01*
X4390Y6465D01*
X4393Y6497D01*
X4395D01*
X4397Y6496D01*
X4399Y6496D01*
X4402Y6495D01*
X4405Y6495D01*
X4413Y6492D01*
X4422Y6489D01*
X4431Y6485D01*
X4440Y6479D01*
X4443Y6476D01*
X4447Y6473D01*
X4448Y6472D01*
X4448Y6471D01*
X4449Y6470D01*
X4450Y6469D01*
X4451Y6466D01*
X4453Y6464D01*
X4455Y6461D01*
X4457Y6457D01*
X4458Y6453D01*
X4460Y6449D01*
X4462Y6444D01*
X4463Y6439D01*
X4465Y6428D01*
X4466Y6421D01*
X4466Y6415D01*
Y6415D01*
Y6413D01*
Y6411D01*
X4466Y6409D01*
X4465Y6406D01*
X4465Y6402D01*
X4464Y6398D01*
X4463Y6394D01*
X4461Y6385D01*
X4458Y6375D01*
X4455Y6370D01*
X4453Y6366D01*
X4449Y6362D01*
X4446Y6357D01*
X4445Y6357D01*
X4445Y6357D01*
X4444Y6355D01*
X4442Y6354D01*
X4440Y6352D01*
X4438Y6350D01*
X4432Y6347D01*
X4425Y6343D01*
X4416Y6339D01*
X4407Y6337D01*
X4401Y6336D01*
X4396Y6336D01*
X4393D01*
X4390Y6336D01*
X4386Y6337D01*
X4382Y6337D01*
X4377Y6338D01*
X4371Y6340D01*
X4366Y6342D01*
X4365Y6343D01*
X4363Y6343D01*
X4360Y6345D01*
X4357Y6347D01*
X4352Y6350D01*
X4347Y6353D01*
X4341Y6358D01*
X4335Y6363D01*
X4334Y6364D01*
X4332Y6366D01*
X4329Y6369D01*
X4326Y6372D01*
X4324Y6374D01*
X4320Y6377D01*
X4317Y6381D01*
X4314Y6385D01*
X4309Y6389D01*
X4305Y6394D01*
X4301Y6399D01*
X4296Y6405D01*
X4291Y6411D01*
X4290Y6411D01*
X4289Y6412D01*
X4288Y6413D01*
X4287Y6415D01*
X4283Y6420D01*
X4278Y6426D01*
X4272Y6431D01*
X4267Y6438D01*
X4263Y6443D01*
X4261Y6444D01*
X4259Y6446D01*
X4258Y6447D01*
X4257Y6448D01*
X4256Y6449D01*
X4253Y6451D01*
X4248Y6455D01*
X4242Y6459D01*
Y6335D01*
X4213D01*
Y6502D01*
X4217D01*
X4220Y6502D01*
D02*
G37*
G36*
X15867Y11763D02*
X15871Y11757D01*
X15876Y11751D01*
X15880Y11746D01*
X15884Y11742D01*
X15888Y11738D01*
X15890Y11736D01*
X15891Y11735D01*
X15891Y11735D01*
X15898Y11729D01*
X15906Y11723D01*
X15914Y11718D01*
X15920Y11714D01*
X15927Y11710D01*
X15929Y11709D01*
X15932Y11708D01*
X15933Y11707D01*
X15935Y11706D01*
X15935Y11706D01*
X15936D01*
Y11675D01*
X15930Y11678D01*
X15925Y11680D01*
X15919Y11683D01*
X15914Y11685D01*
X15910Y11688D01*
X15907Y11690D01*
X15904Y11691D01*
X15904Y11692D01*
X15904D01*
X15897Y11695D01*
X15891Y11700D01*
X15886Y11703D01*
X15882Y11707D01*
X15879Y11709D01*
X15876Y11711D01*
X15874Y11713D01*
X15874Y11713D01*
Y11516D01*
X15843D01*
Y11769D01*
X15863D01*
X15867Y11763D01*
D02*
G37*
G36*
X16753Y6115D02*
X16850Y5984D01*
X16810D01*
X16747Y6071D01*
X16745Y6074D01*
X16743Y6076D01*
X16739Y6082D01*
X16737Y6085D01*
X16736Y6088D01*
X16735Y6089D01*
X16734Y6089D01*
X16731Y6084D01*
X16728Y6079D01*
X16726Y6077D01*
X16725Y6075D01*
X16724Y6074D01*
X16724Y6074D01*
X16660Y5984D01*
X16619D01*
X16714Y6116D01*
X16626Y6237D01*
X16663D01*
X16713Y6169D01*
X16718Y6164D01*
X16721Y6159D01*
X16725Y6154D01*
X16728Y6149D01*
X16730Y6146D01*
X16732Y6143D01*
X16733Y6142D01*
X16733Y6141D01*
X16736Y6146D01*
X16739Y6150D01*
X16742Y6156D01*
X16746Y6161D01*
X16748Y6165D01*
X16751Y6168D01*
X16752Y6171D01*
X16753Y6171D01*
Y6172D01*
X16799Y6237D01*
X16839D01*
X16753Y6115D01*
D02*
G37*
G36*
X13084Y2992D02*
X13054D01*
Y3116D01*
X13044Y3107D01*
X13032Y3099D01*
X13021Y3091D01*
X13011Y3084D01*
X13006Y3081D01*
X13002Y3079D01*
X12998Y3076D01*
X12994Y3074D01*
X12992Y3073D01*
X12990Y3072D01*
X12988Y3071D01*
X12988Y3071D01*
X12973Y3063D01*
X12959Y3057D01*
X12945Y3051D01*
X12938Y3049D01*
X12933Y3047D01*
X12927Y3045D01*
X12922Y3043D01*
X12918Y3042D01*
X12914Y3041D01*
X12911Y3040D01*
X12908Y3039D01*
X12907Y3039D01*
X12906D01*
X12891Y3035D01*
X12884Y3033D01*
X12877Y3032D01*
X12871Y3031D01*
X12865Y3030D01*
X12860Y3029D01*
X12855Y3029D01*
X12850Y3028D01*
X12846Y3028D01*
X12843Y3028D01*
X12840D01*
X12838Y3027D01*
X12835D01*
Y3059D01*
X12848Y3060D01*
X12862Y3062D01*
X12873Y3064D01*
X12878Y3065D01*
X12883Y3066D01*
X12888Y3067D01*
X12892Y3068D01*
X12895Y3068D01*
X12898Y3069D01*
X12901Y3070D01*
X12902Y3070D01*
X12903Y3071D01*
X12904D01*
X12921Y3076D01*
X12936Y3082D01*
X12944Y3085D01*
X12951Y3088D01*
X12958Y3091D01*
X12964Y3094D01*
X12970Y3096D01*
X12976Y3099D01*
X12980Y3101D01*
X12984Y3103D01*
X12987Y3105D01*
X12989Y3106D01*
X12991Y3107D01*
X12991Y3107D01*
X12999Y3112D01*
X13007Y3116D01*
X13014Y3121D01*
X13020Y3125D01*
X13026Y3129D01*
X13032Y3133D01*
X13037Y3137D01*
X13042Y3140D01*
X13045Y3143D01*
X13049Y3146D01*
X13052Y3149D01*
X13055Y3151D01*
X13057Y3153D01*
X13059Y3154D01*
X13059Y3155D01*
X13060Y3155D01*
X13084D01*
Y2992D01*
D02*
G37*
G36*
X12841Y2955D02*
X12845Y2947D01*
X12849Y2940D01*
X12853Y2933D01*
X12856Y2927D01*
X12858Y2925D01*
X12859Y2923D01*
X12860Y2921D01*
X12861Y2920D01*
X12862Y2919D01*
Y2919D01*
X12869Y2926D01*
X12876Y2932D01*
X12883Y2937D01*
X12890Y2940D01*
X12896Y2943D01*
X12898Y2945D01*
X12900Y2946D01*
X12902Y2947D01*
X12903Y2947D01*
X12904Y2948D01*
X12905D01*
X12914Y2951D01*
X12924Y2953D01*
X12933Y2955D01*
X12942Y2956D01*
X12946Y2957D01*
X12949Y2957D01*
X12953D01*
X12955Y2957D01*
X12961D01*
X12974Y2957D01*
X12987Y2955D01*
X12998Y2953D01*
X13004Y2951D01*
X13008Y2950D01*
X13013Y2948D01*
X13017Y2947D01*
X13020Y2946D01*
X13022Y2945D01*
X13025Y2944D01*
X13027Y2943D01*
X13027Y2942D01*
X13028D01*
X13039Y2936D01*
X13048Y2930D01*
X13056Y2922D01*
X13062Y2915D01*
X13067Y2909D01*
X13070Y2907D01*
X13071Y2904D01*
X13073Y2902D01*
X13073Y2901D01*
X13074Y2900D01*
Y2900D01*
X13077Y2894D01*
X13080Y2889D01*
X13084Y2878D01*
X13087Y2867D01*
X13089Y2858D01*
X13090Y2853D01*
X13090Y2849D01*
X13091Y2846D01*
Y2842D01*
X13091Y2840D01*
Y2838D01*
Y2837D01*
Y2837D01*
X13090Y2824D01*
X13088Y2813D01*
X13086Y2802D01*
X13085Y2797D01*
X13083Y2793D01*
X13082Y2789D01*
X13080Y2785D01*
X13079Y2782D01*
X13078Y2780D01*
X13077Y2777D01*
X13076Y2776D01*
X13075Y2775D01*
X13075Y2775D01*
X13068Y2765D01*
X13061Y2756D01*
X13053Y2749D01*
X13045Y2743D01*
X13039Y2738D01*
X13036Y2736D01*
X13033Y2734D01*
X13031Y2733D01*
X13030Y2732D01*
X13029Y2732D01*
X13028D01*
X13017Y2727D01*
X13005Y2723D01*
X12994Y2720D01*
X12983Y2718D01*
X12978Y2718D01*
X12974Y2717D01*
X12970Y2717D01*
X12967D01*
X12964Y2717D01*
X12961D01*
X12947Y2717D01*
X12934Y2719D01*
X12923Y2721D01*
X12918Y2723D01*
X12913Y2724D01*
X12908Y2725D01*
X12905Y2727D01*
X12901Y2728D01*
X12898Y2729D01*
X12896Y2730D01*
X12895Y2731D01*
X12893Y2732D01*
X12893D01*
X12882Y2738D01*
X12873Y2745D01*
X12865Y2751D01*
X12858Y2758D01*
X12853Y2765D01*
X12851Y2767D01*
X12850Y2770D01*
X12848Y2771D01*
X12847Y2773D01*
X12847Y2774D01*
X12847Y2774D01*
X12841Y2785D01*
X12837Y2796D01*
X12834Y2806D01*
X12832Y2816D01*
X12832Y2820D01*
X12831Y2824D01*
X12831Y2827D01*
Y2830D01*
X12830Y2833D01*
Y2834D01*
Y2836D01*
Y2836D01*
X12831Y2848D01*
X12833Y2860D01*
X12835Y2871D01*
X12837Y2875D01*
X12838Y2880D01*
X12840Y2884D01*
X12841Y2887D01*
X12842Y2890D01*
X12843Y2893D01*
X12844Y2895D01*
X12845Y2897D01*
X12846Y2897D01*
Y2898D01*
X12838Y2908D01*
X12832Y2918D01*
X12827Y2927D01*
X12823Y2935D01*
X12821Y2939D01*
X12820Y2942D01*
X12818Y2945D01*
X12817Y2947D01*
X12817Y2949D01*
X12816Y2951D01*
X12815Y2952D01*
Y2952D01*
X12838Y2962D01*
X12841Y2955D01*
D02*
G37*
G36*
X7870Y9370D02*
X7839D01*
Y9567D01*
X7839Y9567D01*
X7837Y9566D01*
X7835Y9564D01*
X7831Y9561D01*
X7827Y9557D01*
X7822Y9554D01*
X7816Y9550D01*
X7810Y9546D01*
X7809D01*
X7809Y9546D01*
X7807Y9544D01*
X7803Y9542D01*
X7799Y9540D01*
X7794Y9537D01*
X7789Y9535D01*
X7783Y9532D01*
X7778Y9530D01*
Y9560D01*
X7778D01*
X7779Y9561D01*
X7780Y9561D01*
X7782Y9562D01*
X7784Y9564D01*
X7787Y9565D01*
X7793Y9568D01*
X7800Y9572D01*
X7807Y9577D01*
X7815Y9583D01*
X7822Y9589D01*
X7823Y9590D01*
X7823Y9590D01*
X7826Y9592D01*
X7829Y9596D01*
X7833Y9600D01*
X7838Y9605D01*
X7842Y9611D01*
X7847Y9617D01*
X7850Y9624D01*
X7870D01*
Y9370D01*
D02*
G37*
G36*
X8347Y5892D02*
X8349Y5891D01*
X8352Y5890D01*
X8355Y5889D01*
X8360Y5887D01*
X8364Y5885D01*
X8368Y5883D01*
X8379Y5878D01*
X8389Y5871D01*
X8399Y5864D01*
X8404Y5859D01*
X8408Y5854D01*
X8408Y5854D01*
X8409Y5853D01*
X8410Y5851D01*
X8411Y5849D01*
X8413Y5846D01*
X8415Y5843D01*
X8417Y5840D01*
X8419Y5836D01*
X8421Y5831D01*
X8423Y5826D01*
X8424Y5820D01*
X8426Y5814D01*
X8429Y5802D01*
X8429Y5795D01*
X8429Y5788D01*
Y5787D01*
Y5786D01*
Y5784D01*
X8429Y5781D01*
Y5777D01*
X8429Y5773D01*
X8428Y5769D01*
X8428Y5764D01*
X8425Y5753D01*
X8423Y5742D01*
X8418Y5731D01*
X8416Y5726D01*
X8413Y5721D01*
X8413Y5721D01*
X8412Y5720D01*
X8411Y5719D01*
X8410Y5717D01*
X8406Y5712D01*
X8401Y5707D01*
X8394Y5700D01*
X8386Y5694D01*
X8376Y5688D01*
X8365Y5682D01*
X8365D01*
X8363Y5682D01*
X8362Y5681D01*
X8360Y5680D01*
X8356Y5679D01*
X8353Y5678D01*
X8349Y5677D01*
X8345Y5676D01*
X8340Y5675D01*
X8335Y5674D01*
X8323Y5671D01*
X8311Y5670D01*
X8297Y5669D01*
X8293D01*
X8291Y5670D01*
X8287D01*
X8283Y5670D01*
X8279Y5670D01*
X8274Y5671D01*
X8263Y5673D01*
X8252Y5675D01*
X8240Y5679D01*
X8229Y5684D01*
X8228D01*
X8227Y5685D01*
X8226Y5686D01*
X8224Y5687D01*
X8221Y5688D01*
X8219Y5690D01*
X8212Y5695D01*
X8205Y5701D01*
X8197Y5708D01*
X8190Y5717D01*
X8184Y5727D01*
Y5727D01*
X8183Y5728D01*
X8183Y5730D01*
X8182Y5732D01*
X8181Y5734D01*
X8179Y5737D01*
X8178Y5741D01*
X8176Y5745D01*
X8175Y5749D01*
X8174Y5754D01*
X8171Y5764D01*
X8169Y5776D01*
X8169Y5788D01*
Y5788D01*
Y5789D01*
Y5792D01*
X8169Y5794D01*
X8169Y5798D01*
X8170Y5801D01*
X8170Y5806D01*
X8171Y5810D01*
X8173Y5820D01*
X8177Y5831D01*
X8179Y5836D01*
X8182Y5842D01*
X8185Y5847D01*
X8188Y5852D01*
X8189Y5852D01*
X8189Y5853D01*
X8190Y5854D01*
X8192Y5856D01*
X8194Y5858D01*
X8196Y5861D01*
X8199Y5863D01*
X8202Y5866D01*
X8206Y5869D01*
X8210Y5872D01*
X8214Y5875D01*
X8219Y5878D01*
X8224Y5880D01*
X8230Y5883D01*
X8242Y5888D01*
X8250Y5855D01*
X8250D01*
X8249Y5854D01*
X8247Y5854D01*
X8245Y5853D01*
X8243Y5852D01*
X8240Y5851D01*
X8235Y5848D01*
X8228Y5845D01*
X8221Y5840D01*
X8215Y5835D01*
X8210Y5829D01*
X8209Y5828D01*
X8208Y5826D01*
X8206Y5823D01*
X8203Y5818D01*
X8201Y5812D01*
X8199Y5804D01*
X8197Y5796D01*
X8197Y5787D01*
Y5787D01*
Y5786D01*
Y5784D01*
X8197Y5783D01*
Y5780D01*
X8198Y5777D01*
X8199Y5770D01*
X8201Y5763D01*
X8203Y5755D01*
X8207Y5746D01*
X8211Y5739D01*
Y5738D01*
X8212Y5738D01*
X8214Y5736D01*
X8217Y5732D01*
X8221Y5728D01*
X8227Y5724D01*
X8233Y5719D01*
X8240Y5715D01*
X8249Y5712D01*
X8249D01*
X8250Y5711D01*
X8251Y5711D01*
X8253Y5710D01*
X8255Y5710D01*
X8258Y5709D01*
X8264Y5708D01*
X8271Y5706D01*
X8279Y5705D01*
X8288Y5704D01*
X8297Y5704D01*
X8303D01*
X8305Y5704D01*
X8309D01*
X8312Y5705D01*
X8316Y5705D01*
X8325Y5706D01*
X8335Y5708D01*
X8344Y5710D01*
X8353Y5713D01*
X8354D01*
X8355Y5713D01*
X8356Y5714D01*
X8357Y5715D01*
X8362Y5717D01*
X8367Y5720D01*
X8373Y5724D01*
X8379Y5729D01*
X8384Y5735D01*
X8389Y5742D01*
Y5742D01*
X8390Y5743D01*
X8391Y5744D01*
X8391Y5745D01*
X8393Y5750D01*
X8395Y5755D01*
X8397Y5761D01*
X8399Y5768D01*
X8401Y5776D01*
X8401Y5785D01*
Y5785D01*
Y5786D01*
Y5788D01*
X8401Y5789D01*
Y5792D01*
X8400Y5795D01*
X8399Y5801D01*
X8397Y5809D01*
X8394Y5817D01*
X8390Y5824D01*
X8385Y5832D01*
X8384Y5832D01*
X8384Y5833D01*
X8382Y5835D01*
X8378Y5839D01*
X8373Y5843D01*
X8366Y5847D01*
X8358Y5852D01*
X8348Y5856D01*
X8337Y5859D01*
X8345Y5892D01*
X8346D01*
X8347Y5892D01*
D02*
G37*
G36*
X8205Y4724D02*
X8209D01*
X8213Y4724D01*
X8217Y4723D01*
X8222Y4722D01*
X8233Y4721D01*
X8244Y4718D01*
X8256Y4714D01*
X8267Y4709D01*
X8268D01*
X8269Y4709D01*
X8270Y4708D01*
X8272Y4707D01*
X8275Y4705D01*
X8277Y4703D01*
X8284Y4698D01*
X8291Y4693D01*
X8299Y4685D01*
X8306Y4676D01*
X8312Y4667D01*
Y4666D01*
X8313Y4666D01*
X8314Y4664D01*
X8314Y4662D01*
X8315Y4660D01*
X8317Y4656D01*
X8318Y4653D01*
X8320Y4649D01*
X8321Y4645D01*
X8322Y4640D01*
X8325Y4630D01*
X8327Y4618D01*
X8327Y4606D01*
Y4605D01*
Y4604D01*
Y4602D01*
X8327Y4599D01*
X8327Y4596D01*
X8326Y4592D01*
X8326Y4588D01*
X8325Y4583D01*
X8323Y4573D01*
X8319Y4563D01*
X8317Y4557D01*
X8314Y4552D01*
X8311Y4547D01*
X8308Y4542D01*
X8307Y4542D01*
X8307Y4541D01*
X8306Y4540D01*
X8304Y4538D01*
X8302Y4536D01*
X8300Y4533D01*
X8297Y4530D01*
X8294Y4528D01*
X8290Y4525D01*
X8286Y4522D01*
X8282Y4519D01*
X8277Y4516D01*
X8272Y4513D01*
X8266Y4511D01*
X8254Y4506D01*
X8246Y4539D01*
X8246D01*
X8247Y4539D01*
X8249Y4540D01*
X8251Y4540D01*
X8253Y4542D01*
X8256Y4543D01*
X8261Y4545D01*
X8268Y4549D01*
X8275Y4554D01*
X8281Y4559D01*
X8286Y4565D01*
X8287Y4565D01*
X8288Y4568D01*
X8290Y4571D01*
X8293Y4576D01*
X8295Y4582D01*
X8297Y4589D01*
X8299Y4597D01*
X8299Y4607D01*
Y4607D01*
Y4608D01*
Y4609D01*
X8299Y4611D01*
Y4614D01*
X8298Y4617D01*
X8297Y4623D01*
X8296Y4631D01*
X8293Y4639D01*
X8289Y4647D01*
X8285Y4655D01*
Y4655D01*
X8284Y4656D01*
X8282Y4658D01*
X8279Y4661D01*
X8275Y4666D01*
X8269Y4670D01*
X8263Y4674D01*
X8256Y4679D01*
X8247Y4682D01*
X8247D01*
X8246Y4683D01*
X8245Y4683D01*
X8243Y4683D01*
X8241Y4684D01*
X8238Y4684D01*
X8232Y4686D01*
X8225Y4688D01*
X8217Y4689D01*
X8208Y4689D01*
X8199Y4690D01*
X8193D01*
X8191Y4689D01*
X8187D01*
X8184Y4689D01*
X8180Y4689D01*
X8171Y4688D01*
X8161Y4686D01*
X8152Y4684D01*
X8143Y4681D01*
X8142D01*
X8142Y4680D01*
X8140Y4679D01*
X8139Y4679D01*
X8134Y4677D01*
X8129Y4674D01*
X8123Y4669D01*
X8117Y4665D01*
X8112Y4659D01*
X8107Y4652D01*
Y4651D01*
X8106Y4651D01*
X8105Y4650D01*
X8105Y4648D01*
X8103Y4644D01*
X8101Y4639D01*
X8099Y4633D01*
X8097Y4625D01*
X8095Y4617D01*
X8095Y4609D01*
Y4608D01*
Y4608D01*
Y4606D01*
X8095Y4604D01*
Y4602D01*
X8096Y4599D01*
X8097Y4592D01*
X8099Y4585D01*
X8102Y4577D01*
X8106Y4569D01*
X8111Y4562D01*
X8112Y4561D01*
X8112Y4561D01*
X8114Y4559D01*
X8118Y4555D01*
X8123Y4551D01*
X8130Y4547D01*
X8138Y4542D01*
X8148Y4538D01*
X8159Y4535D01*
X8151Y4502D01*
X8150D01*
X8149Y4502D01*
X8147Y4503D01*
X8144Y4504D01*
X8141Y4505D01*
X8137Y4507D01*
X8132Y4508D01*
X8128Y4511D01*
X8117Y4516D01*
X8107Y4522D01*
X8097Y4530D01*
X8092Y4535D01*
X8088Y4540D01*
X8088Y4540D01*
X8087Y4541D01*
X8086Y4542D01*
X8085Y4545D01*
X8083Y4547D01*
X8081Y4550D01*
X8079Y4554D01*
X8077Y4558D01*
X8075Y4563D01*
X8074Y4568D01*
X8072Y4573D01*
X8070Y4579D01*
X8067Y4592D01*
X8067Y4599D01*
X8067Y4606D01*
Y4607D01*
Y4608D01*
Y4610D01*
X8067Y4613D01*
Y4617D01*
X8067Y4620D01*
X8068Y4625D01*
X8069Y4630D01*
X8071Y4640D01*
X8074Y4651D01*
X8078Y4662D01*
X8080Y4668D01*
X8083Y4673D01*
X8084Y4673D01*
X8084Y4674D01*
X8085Y4675D01*
X8086Y4677D01*
X8090Y4681D01*
X8095Y4687D01*
X8102Y4693D01*
X8110Y4699D01*
X8120Y4706D01*
X8131Y4711D01*
X8132D01*
X8133Y4712D01*
X8134Y4712D01*
X8137Y4713D01*
X8140Y4714D01*
X8143Y4716D01*
X8147Y4717D01*
X8152Y4718D01*
X8156Y4719D01*
X8161Y4720D01*
X8173Y4722D01*
X8185Y4724D01*
X8199Y4724D01*
X8203D01*
X8205Y4724D01*
D02*
G37*
G36*
X8139Y4441D02*
X8138D01*
X8137Y4440D01*
X8135Y4440D01*
X8131Y4439D01*
X8126Y4437D01*
X8120Y4435D01*
X8114Y4432D01*
X8109Y4429D01*
X8104Y4424D01*
X8103Y4423D01*
X8102Y4422D01*
X8100Y4419D01*
X8098Y4415D01*
X8096Y4411D01*
X8094Y4405D01*
X8092Y4399D01*
X8092Y4393D01*
Y4392D01*
Y4391D01*
Y4390D01*
X8092Y4389D01*
X8093Y4385D01*
X8094Y4379D01*
X8096Y4373D01*
X8099Y4367D01*
X8103Y4361D01*
X8105Y4358D01*
X8109Y4355D01*
X8109D01*
X8109Y4354D01*
X8112Y4352D01*
X8115Y4350D01*
X8120Y4347D01*
X8127Y4344D01*
X8135Y4342D01*
X8143Y4340D01*
X8153Y4339D01*
X8156D01*
X8158Y4340D01*
X8160D01*
X8163Y4340D01*
X8169Y4341D01*
X8175Y4343D01*
X8182Y4345D01*
X8189Y4349D01*
X8195Y4354D01*
X8196Y4355D01*
X8198Y4357D01*
X8200Y4360D01*
X8203Y4365D01*
X8206Y4370D01*
X8208Y4377D01*
X8210Y4385D01*
X8211Y4393D01*
Y4394D01*
Y4396D01*
X8210Y4398D01*
X8210Y4402D01*
X8209Y4406D01*
X8208Y4411D01*
X8206Y4416D01*
X8203Y4420D01*
X8203Y4421D01*
X8202Y4422D01*
X8201Y4424D01*
X8199Y4427D01*
X8196Y4430D01*
X8193Y4433D01*
X8190Y4436D01*
X8186Y4439D01*
X8190Y4468D01*
X8319Y4443D01*
Y4318D01*
X8290D01*
Y4419D01*
X8222Y4433D01*
X8222Y4432D01*
X8223Y4431D01*
X8223Y4430D01*
X8224Y4429D01*
X8226Y4426D01*
X8227Y4424D01*
X8230Y4418D01*
X8233Y4411D01*
X8235Y4403D01*
X8237Y4394D01*
X8238Y4385D01*
Y4385D01*
Y4383D01*
Y4382D01*
X8238Y4380D01*
X8237Y4377D01*
X8237Y4373D01*
X8236Y4370D01*
X8235Y4366D01*
X8232Y4357D01*
X8231Y4352D01*
X8228Y4348D01*
X8226Y4343D01*
X8223Y4338D01*
X8219Y4333D01*
X8215Y4329D01*
X8214Y4329D01*
X8214Y4328D01*
X8213Y4327D01*
X8211Y4326D01*
X8208Y4324D01*
X8206Y4322D01*
X8203Y4320D01*
X8199Y4318D01*
X8195Y4315D01*
X8191Y4314D01*
X8186Y4312D01*
X8181Y4310D01*
X8175Y4309D01*
X8169Y4307D01*
X8163Y4307D01*
X8156Y4306D01*
X8153D01*
X8150Y4307D01*
X8147Y4307D01*
X8144Y4307D01*
X8140Y4308D01*
X8136Y4309D01*
X8127Y4311D01*
X8117Y4315D01*
X8112Y4317D01*
X8107Y4320D01*
X8102Y4323D01*
X8097Y4326D01*
X8097Y4327D01*
X8096Y4327D01*
X8094Y4329D01*
X8092Y4331D01*
X8090Y4333D01*
X8087Y4336D01*
X8085Y4340D01*
X8082Y4344D01*
X8079Y4348D01*
X8076Y4353D01*
X8074Y4359D01*
X8071Y4365D01*
X8069Y4371D01*
X8068Y4378D01*
X8067Y4385D01*
X8067Y4393D01*
Y4393D01*
Y4394D01*
Y4396D01*
X8067Y4398D01*
X8067Y4401D01*
X8068Y4405D01*
X8068Y4408D01*
X8069Y4413D01*
X8071Y4421D01*
X8075Y4431D01*
X8077Y4435D01*
X8080Y4440D01*
X8082Y4444D01*
X8086Y4449D01*
X8086Y4449D01*
X8087Y4449D01*
X8088Y4451D01*
X8089Y4452D01*
X8091Y4454D01*
X8094Y4456D01*
X8096Y4458D01*
X8099Y4460D01*
X8107Y4464D01*
X8115Y4468D01*
X8125Y4471D01*
X8131Y4473D01*
X8137Y4473D01*
X8139Y4441D01*
D02*
G37*
G36*
X8201Y6085D02*
X8201Y6084D01*
X8203Y6083D01*
X8205Y6081D01*
X8207Y6079D01*
X8211Y6077D01*
X8214Y6074D01*
X8218Y6071D01*
X8223Y6067D01*
X8228Y6063D01*
X8234Y6059D01*
X8240Y6055D01*
X8246Y6051D01*
X8253Y6046D01*
X8261Y6042D01*
X8269Y6038D01*
X8269Y6037D01*
X8270Y6036D01*
X8273Y6035D01*
X8276Y6034D01*
X8280Y6032D01*
X8284Y6029D01*
X8290Y6027D01*
X8295Y6024D01*
X8302Y6021D01*
X8308Y6018D01*
X8316Y6015D01*
X8323Y6012D01*
X8339Y6006D01*
X8356Y6001D01*
X8356D01*
X8358Y6001D01*
X8359Y6000D01*
X8361Y6000D01*
X8365Y5999D01*
X8368Y5998D01*
X8372Y5997D01*
X8376Y5996D01*
X8381Y5995D01*
X8387Y5994D01*
X8398Y5992D01*
X8411Y5991D01*
X8425Y5990D01*
Y5958D01*
X8422D01*
X8420Y5958D01*
X8417D01*
X8414Y5958D01*
X8409Y5959D01*
X8405Y5959D01*
X8400Y5960D01*
X8394Y5961D01*
X8389Y5962D01*
X8383Y5963D01*
X8376Y5964D01*
X8369Y5965D01*
X8353Y5969D01*
X8353D01*
X8351Y5970D01*
X8349Y5970D01*
X8346Y5971D01*
X8342Y5972D01*
X8338Y5974D01*
X8333Y5975D01*
X8327Y5977D01*
X8322Y5980D01*
X8315Y5982D01*
X8301Y5987D01*
X8287Y5994D01*
X8272Y6001D01*
X8272Y6001D01*
X8270Y6002D01*
X8268Y6003D01*
X8265Y6005D01*
X8262Y6007D01*
X8258Y6009D01*
X8254Y6012D01*
X8249Y6015D01*
X8239Y6021D01*
X8227Y6029D01*
X8216Y6037D01*
X8206Y6046D01*
Y5922D01*
X8176D01*
Y6086D01*
X8200D01*
X8201Y6085D01*
D02*
G37*
G36*
X7606Y9626D02*
X7609D01*
X7613Y9626D01*
X7617Y9625D01*
X7622Y9625D01*
X7631Y9622D01*
X7642Y9619D01*
X7653Y9615D01*
X7658Y9613D01*
X7663Y9610D01*
X7664D01*
X7665Y9609D01*
X7666Y9608D01*
X7668Y9607D01*
X7670Y9605D01*
X7673Y9603D01*
X7679Y9598D01*
X7686Y9591D01*
X7693Y9583D01*
X7700Y9574D01*
X7706Y9563D01*
Y9563D01*
X7707Y9562D01*
X7708Y9560D01*
X7708Y9558D01*
X7710Y9555D01*
X7711Y9552D01*
X7712Y9548D01*
X7714Y9544D01*
X7715Y9539D01*
X7716Y9534D01*
X7719Y9523D01*
X7720Y9510D01*
X7721Y9496D01*
Y9496D01*
Y9494D01*
Y9493D01*
Y9491D01*
X7721Y9488D01*
Y9485D01*
X7720Y9481D01*
X7720Y9477D01*
X7719Y9469D01*
X7717Y9459D01*
X7715Y9450D01*
X7711Y9440D01*
Y9440D01*
X7711Y9439D01*
X7710Y9438D01*
X7710Y9436D01*
X7709Y9434D01*
X7707Y9431D01*
X7704Y9425D01*
X7700Y9419D01*
X7695Y9412D01*
X7690Y9404D01*
X7683Y9397D01*
X7683D01*
X7684Y9396D01*
X7685Y9395D01*
X7687Y9394D01*
X7689Y9393D01*
X7691Y9392D01*
X7697Y9388D01*
X7703Y9384D01*
X7711Y9380D01*
X7718Y9377D01*
X7726Y9374D01*
X7716Y9351D01*
X7715D01*
X7715Y9351D01*
X7713Y9352D01*
X7711Y9353D01*
X7709Y9354D01*
X7706Y9355D01*
X7703Y9357D01*
X7699Y9358D01*
X7691Y9362D01*
X7682Y9368D01*
X7672Y9374D01*
X7662Y9381D01*
X7661D01*
X7660Y9380D01*
X7659Y9380D01*
X7657Y9379D01*
X7654Y9378D01*
X7651Y9376D01*
X7647Y9375D01*
X7644Y9374D01*
X7639Y9372D01*
X7634Y9371D01*
X7624Y9368D01*
X7612Y9367D01*
X7600Y9366D01*
X7596D01*
X7594Y9366D01*
X7591D01*
X7587Y9367D01*
X7584Y9367D01*
X7579Y9368D01*
X7570Y9370D01*
X7559Y9373D01*
X7549Y9377D01*
X7538Y9382D01*
X7538Y9382D01*
X7537Y9383D01*
X7535Y9384D01*
X7533Y9385D01*
X7531Y9387D01*
X7528Y9389D01*
X7522Y9394D01*
X7515Y9400D01*
X7508Y9408D01*
X7501Y9418D01*
X7495Y9428D01*
Y9429D01*
X7495Y9430D01*
X7494Y9432D01*
X7493Y9434D01*
X7492Y9437D01*
X7491Y9440D01*
X7489Y9444D01*
X7488Y9448D01*
X7486Y9453D01*
X7485Y9458D01*
X7483Y9470D01*
X7481Y9482D01*
X7480Y9496D01*
Y9496D01*
Y9498D01*
Y9500D01*
X7481Y9502D01*
Y9506D01*
X7481Y9509D01*
X7481Y9514D01*
X7482Y9518D01*
X7484Y9529D01*
X7486Y9540D01*
X7490Y9552D01*
X7495Y9564D01*
Y9564D01*
X7496Y9565D01*
X7497Y9567D01*
X7498Y9569D01*
X7500Y9571D01*
X7501Y9574D01*
X7506Y9581D01*
X7513Y9589D01*
X7520Y9596D01*
X7528Y9604D01*
X7538Y9610D01*
X7539Y9611D01*
X7539Y9611D01*
X7541Y9612D01*
X7543Y9613D01*
X7546Y9614D01*
X7549Y9615D01*
X7553Y9617D01*
X7557Y9619D01*
X7561Y9620D01*
X7566Y9622D01*
X7576Y9624D01*
X7588Y9626D01*
X7601Y9627D01*
X7604D01*
X7606Y9626D01*
D02*
G37*
G36*
X4823Y7374D02*
X4625D01*
X4626Y7373D01*
X4627Y7372D01*
X4629Y7369D01*
X4632Y7365D01*
X4635Y7361D01*
X4639Y7356D01*
X4643Y7351D01*
X4647Y7344D01*
Y7344D01*
X4647Y7343D01*
X4649Y7341D01*
X4651Y7337D01*
X4653Y7333D01*
X4656Y7328D01*
X4658Y7323D01*
X4661Y7317D01*
X4663Y7312D01*
X4633D01*
Y7312D01*
X4632Y7313D01*
X4632Y7314D01*
X4630Y7316D01*
X4629Y7318D01*
X4628Y7321D01*
X4625Y7327D01*
X4620Y7334D01*
X4615Y7342D01*
X4610Y7349D01*
X4604Y7357D01*
X4603Y7357D01*
X4603Y7357D01*
X4600Y7360D01*
X4597Y7363D01*
X4593Y7367D01*
X4587Y7372D01*
X4582Y7377D01*
X4576Y7381D01*
X4569Y7384D01*
Y7405D01*
X4823D01*
Y7374D01*
D02*
G37*
G36*
X4751Y7246D02*
X4754D01*
X4761Y7245D01*
X4769Y7244D01*
X4777Y7243D01*
X4785Y7241D01*
X4792Y7238D01*
X4793Y7238D01*
X4794Y7237D01*
X4797Y7235D01*
X4801Y7233D01*
X4806Y7229D01*
X4810Y7225D01*
X4814Y7220D01*
X4818Y7214D01*
X4819Y7213D01*
X4820Y7211D01*
X4821Y7207D01*
X4822Y7203D01*
X4824Y7197D01*
X4826Y7190D01*
X4827Y7183D01*
X4827Y7175D01*
Y7174D01*
Y7173D01*
Y7172D01*
X4827Y7169D01*
X4826Y7167D01*
X4826Y7163D01*
X4825Y7156D01*
X4822Y7148D01*
X4819Y7139D01*
X4817Y7135D01*
X4814Y7131D01*
X4812Y7127D01*
X4808Y7124D01*
X4808D01*
X4807Y7123D01*
X4806Y7122D01*
X4805Y7121D01*
X4802Y7120D01*
X4800Y7119D01*
X4797Y7117D01*
X4794Y7115D01*
X4790Y7114D01*
X4786Y7112D01*
X4781Y7111D01*
X4776Y7109D01*
X4771Y7108D01*
X4764Y7107D01*
X4758Y7107D01*
X4751D01*
X4747Y7137D01*
X4750D01*
X4752Y7137D01*
X4754D01*
X4757Y7138D01*
X4763Y7139D01*
X4770Y7140D01*
X4776Y7142D01*
X4782Y7145D01*
X4785Y7146D01*
X4787Y7148D01*
X4788Y7148D01*
X4789Y7150D01*
X4791Y7152D01*
X4792Y7155D01*
X4794Y7159D01*
X4796Y7163D01*
X4797Y7169D01*
X4797Y7175D01*
Y7175D01*
Y7177D01*
X4797Y7179D01*
X4797Y7182D01*
X4796Y7185D01*
X4795Y7189D01*
X4794Y7193D01*
X4792Y7196D01*
X4791Y7197D01*
X4791Y7198D01*
X4789Y7199D01*
X4788Y7201D01*
X4786Y7203D01*
X4783Y7205D01*
X4780Y7207D01*
X4776Y7209D01*
X4776D01*
X4774Y7210D01*
X4772Y7210D01*
X4769Y7211D01*
X4764Y7212D01*
X4759Y7212D01*
X4752Y7213D01*
X4571D01*
Y7246D01*
X4748D01*
X4751Y7246D01*
D02*
G37*
G36*
X3871Y8829D02*
Y8800D01*
X3761D01*
Y8740D01*
X3730D01*
Y8800D01*
X3696D01*
Y8829D01*
X3730D01*
Y8992D01*
X3756D01*
X3871Y8829D01*
D02*
G37*
G36*
X4026Y8996D02*
X4038Y8994D01*
X4048Y8992D01*
X4053Y8990D01*
X4057Y8989D01*
X4062Y8987D01*
X4065Y8986D01*
X4068Y8984D01*
X4071Y8983D01*
X4073Y8982D01*
X4075Y8981D01*
X4075Y8981D01*
X4076Y8981D01*
X4086Y8974D01*
X4094Y8966D01*
X4102Y8959D01*
X4108Y8951D01*
X4113Y8944D01*
X4115Y8941D01*
X4116Y8939D01*
X4117Y8937D01*
X4118Y8935D01*
X4119Y8934D01*
Y8934D01*
X4124Y8922D01*
X4128Y8910D01*
X4130Y8899D01*
X4132Y8888D01*
X4133Y8884D01*
X4133Y8880D01*
X4133Y8876D01*
Y8872D01*
X4134Y8870D01*
Y8868D01*
Y8866D01*
Y8866D01*
X4133Y8852D01*
X4132Y8840D01*
X4129Y8828D01*
X4128Y8823D01*
X4126Y8818D01*
X4125Y8814D01*
X4123Y8810D01*
X4122Y8807D01*
X4121Y8804D01*
X4120Y8802D01*
X4120Y8800D01*
X4119Y8799D01*
Y8799D01*
X4113Y8788D01*
X4106Y8779D01*
X4099Y8770D01*
X4092Y8764D01*
X4086Y8759D01*
X4083Y8757D01*
X4081Y8755D01*
X4079Y8754D01*
X4077Y8753D01*
X4077Y8752D01*
X4076Y8752D01*
X4066Y8747D01*
X4055Y8743D01*
X4044Y8740D01*
X4035Y8738D01*
X4031Y8737D01*
X4027Y8737D01*
X4023Y8736D01*
X4020D01*
X4018Y8736D01*
X4014D01*
X4002Y8737D01*
X3991Y8738D01*
X3980Y8741D01*
X3975Y8742D01*
X3971Y8744D01*
X3967Y8745D01*
X3963Y8746D01*
X3960Y8748D01*
X3958Y8749D01*
X3955Y8750D01*
X3954Y8751D01*
X3953Y8751D01*
X3953D01*
X3943Y8744D01*
X3933Y8738D01*
X3923Y8732D01*
X3915Y8728D01*
X3912Y8727D01*
X3908Y8725D01*
X3905Y8724D01*
X3903Y8723D01*
X3901Y8722D01*
X3900Y8721D01*
X3899Y8721D01*
X3898D01*
X3888Y8744D01*
X3896Y8747D01*
X3903Y8751D01*
X3911Y8754D01*
X3917Y8758D01*
X3923Y8762D01*
X3925Y8763D01*
X3928Y8764D01*
X3929Y8766D01*
X3930Y8766D01*
X3931Y8767D01*
X3931D01*
X3925Y8774D01*
X3919Y8782D01*
X3914Y8789D01*
X3910Y8795D01*
X3907Y8801D01*
X3905Y8804D01*
X3905Y8806D01*
X3904Y8808D01*
X3903Y8809D01*
X3903Y8810D01*
Y8810D01*
X3900Y8820D01*
X3897Y8829D01*
X3895Y8839D01*
X3894Y8847D01*
X3894Y8852D01*
X3893Y8855D01*
Y8858D01*
X3893Y8861D01*
Y8863D01*
Y8865D01*
Y8866D01*
Y8866D01*
X3894Y8880D01*
X3895Y8893D01*
X3898Y8904D01*
X3899Y8909D01*
X3900Y8914D01*
X3902Y8918D01*
X3903Y8922D01*
X3905Y8925D01*
X3906Y8928D01*
X3907Y8930D01*
X3907Y8932D01*
X3908Y8933D01*
Y8933D01*
X3914Y8944D01*
X3921Y8953D01*
X3928Y8961D01*
X3935Y8968D01*
X3941Y8973D01*
X3944Y8975D01*
X3946Y8977D01*
X3948Y8978D01*
X3950Y8979D01*
X3950Y8980D01*
X3951D01*
X3956Y8983D01*
X3961Y8986D01*
X3972Y8989D01*
X3983Y8992D01*
X3993Y8995D01*
X3997Y8995D01*
X4001Y8996D01*
X4005Y8996D01*
X4008D01*
X4010Y8997D01*
X4014D01*
X4026Y8996D01*
D02*
G37*
G36*
X12802Y1262D02*
X12806Y1254D01*
X12809Y1247D01*
X12813Y1240D01*
X12817Y1234D01*
X12818Y1232D01*
X12819Y1230D01*
X12821Y1228D01*
X12821Y1227D01*
X12822Y1226D01*
Y1226D01*
X12829Y1233D01*
X12837Y1239D01*
X12844Y1244D01*
X12851Y1247D01*
X12856Y1251D01*
X12859Y1252D01*
X12861Y1253D01*
X12863Y1254D01*
X12864Y1254D01*
X12865Y1255D01*
X12865D01*
X12875Y1258D01*
X12884Y1260D01*
X12894Y1262D01*
X12902Y1263D01*
X12907Y1264D01*
X12910Y1264D01*
X12913D01*
X12916Y1264D01*
X12921D01*
X12935Y1264D01*
X12948Y1262D01*
X12959Y1260D01*
X12964Y1258D01*
X12969Y1257D01*
X12973Y1256D01*
X12977Y1254D01*
X12980Y1253D01*
X12983Y1252D01*
X12985Y1251D01*
X12987Y1250D01*
X12988Y1249D01*
X12988D01*
X12999Y1243D01*
X13008Y1237D01*
X13016Y1229D01*
X13023Y1223D01*
X13028Y1216D01*
X13030Y1214D01*
X13032Y1211D01*
X13033Y1209D01*
X13034Y1208D01*
X13035Y1207D01*
Y1207D01*
X13038Y1201D01*
X13041Y1196D01*
X13044Y1185D01*
X13048Y1175D01*
X13050Y1165D01*
X13050Y1160D01*
X13051Y1156D01*
X13051Y1153D01*
Y1150D01*
X13052Y1147D01*
Y1145D01*
Y1144D01*
Y1144D01*
X13051Y1132D01*
X13049Y1120D01*
X13047Y1109D01*
X13045Y1104D01*
X13044Y1100D01*
X13042Y1096D01*
X13041Y1092D01*
X13039Y1089D01*
X13038Y1087D01*
X13037Y1084D01*
X13036Y1083D01*
X13036Y1082D01*
X13036Y1082D01*
X13029Y1072D01*
X13021Y1063D01*
X13014Y1056D01*
X13006Y1050D01*
X13000Y1045D01*
X12996Y1043D01*
X12994Y1041D01*
X12992Y1040D01*
X12990Y1039D01*
X12989Y1039D01*
X12989D01*
X12977Y1034D01*
X12965Y1030D01*
X12954Y1027D01*
X12944Y1026D01*
X12939Y1025D01*
X12935Y1024D01*
X12931Y1024D01*
X12927D01*
X12925Y1024D01*
X12921D01*
X12907Y1024D01*
X12895Y1026D01*
X12883Y1028D01*
X12878Y1030D01*
X12873Y1031D01*
X12869Y1032D01*
X12865Y1034D01*
X12862Y1035D01*
X12859Y1036D01*
X12857Y1037D01*
X12855Y1038D01*
X12854Y1039D01*
X12854D01*
X12843Y1045D01*
X12834Y1052D01*
X12826Y1059D01*
X12819Y1065D01*
X12814Y1072D01*
X12812Y1074D01*
X12810Y1077D01*
X12809Y1079D01*
X12808Y1080D01*
X12808Y1081D01*
X12807Y1081D01*
X12802Y1092D01*
X12798Y1103D01*
X12795Y1113D01*
X12793Y1123D01*
X12793Y1127D01*
X12792Y1131D01*
X12791Y1134D01*
Y1137D01*
X12791Y1140D01*
Y1142D01*
Y1143D01*
Y1143D01*
X12792Y1155D01*
X12793Y1167D01*
X12796Y1178D01*
X12797Y1182D01*
X12799Y1187D01*
X12800Y1191D01*
X12801Y1194D01*
X12803Y1197D01*
X12804Y1200D01*
X12805Y1202D01*
X12806Y1204D01*
X12806Y1204D01*
Y1205D01*
X12799Y1215D01*
X12793Y1225D01*
X12788Y1234D01*
X12783Y1242D01*
X12782Y1246D01*
X12780Y1249D01*
X12779Y1252D01*
X12778Y1254D01*
X12777Y1256D01*
X12776Y1258D01*
X12776Y1259D01*
Y1259D01*
X12799Y1269D01*
X12802Y1262D01*
D02*
G37*
G36*
X4113Y4647D02*
X4119Y4646D01*
X4129Y4643D01*
X4138Y4639D01*
X4145Y4634D01*
X4148Y4632D01*
X4151Y4630D01*
X4153Y4628D01*
X4155Y4627D01*
X4156Y4625D01*
X4157Y4624D01*
X4158Y4624D01*
X4158Y4623D01*
X4162Y4619D01*
X4164Y4614D01*
X4167Y4610D01*
X4169Y4605D01*
X4173Y4596D01*
X4175Y4587D01*
X4176Y4583D01*
X4176Y4579D01*
X4177Y4576D01*
X4177Y4573D01*
X4177Y4571D01*
Y4569D01*
Y4568D01*
Y4567D01*
X4177Y4560D01*
X4176Y4552D01*
X4175Y4546D01*
X4173Y4539D01*
X4171Y4533D01*
X4168Y4528D01*
X4165Y4523D01*
X4162Y4518D01*
X4159Y4514D01*
X4157Y4511D01*
X4154Y4508D01*
X4152Y4505D01*
X4150Y4503D01*
X4148Y4502D01*
X4148Y4501D01*
X4147Y4501D01*
X4143Y4497D01*
X4138Y4494D01*
X4133Y4492D01*
X4127Y4489D01*
X4118Y4486D01*
X4108Y4483D01*
X4104Y4482D01*
X4100Y4482D01*
X4097Y4482D01*
X4094Y4481D01*
X4091Y4481D01*
X4088D01*
X4081Y4481D01*
X4075Y4482D01*
X4069Y4483D01*
X4063Y4484D01*
X4058Y4486D01*
X4053Y4488D01*
X4049Y4490D01*
X4045Y4492D01*
X4042Y4495D01*
X4038Y4497D01*
X4036Y4498D01*
X4033Y4500D01*
X4032Y4502D01*
X4030Y4503D01*
X4030Y4503D01*
X4029Y4504D01*
X4025Y4508D01*
X4022Y4513D01*
X4018Y4517D01*
X4016Y4522D01*
X4013Y4527D01*
X4012Y4532D01*
X4009Y4540D01*
X4008Y4544D01*
X4007Y4548D01*
X4007Y4551D01*
X4007Y4554D01*
X4006Y4556D01*
Y4558D01*
Y4559D01*
Y4560D01*
X4007Y4569D01*
X4009Y4578D01*
X4011Y4586D01*
X4014Y4593D01*
X4017Y4599D01*
X4018Y4601D01*
X4020Y4603D01*
X4021Y4605D01*
X4022Y4606D01*
X4022Y4607D01*
X4022Y4607D01*
X3954Y4593D01*
Y4493D01*
X3925D01*
Y4618D01*
X4054Y4642D01*
X4058Y4613D01*
X4055Y4611D01*
X4051Y4608D01*
X4048Y4604D01*
X4045Y4602D01*
X4043Y4599D01*
X4042Y4597D01*
X4041Y4595D01*
X4041Y4595D01*
X4038Y4590D01*
X4037Y4586D01*
X4035Y4581D01*
X4034Y4577D01*
X4034Y4573D01*
X4033Y4570D01*
Y4568D01*
Y4568D01*
X4034Y4559D01*
X4036Y4551D01*
X4038Y4545D01*
X4041Y4539D01*
X4044Y4535D01*
X4047Y4532D01*
X4048Y4530D01*
X4049Y4529D01*
X4055Y4524D01*
X4062Y4520D01*
X4069Y4517D01*
X4075Y4516D01*
X4081Y4515D01*
X4084Y4514D01*
X4086D01*
X4088Y4514D01*
X4091D01*
X4101Y4515D01*
X4109Y4516D01*
X4117Y4519D01*
X4124Y4522D01*
X4129Y4524D01*
X4133Y4527D01*
X4135Y4528D01*
X4135Y4529D01*
X4136D01*
X4139Y4532D01*
X4141Y4535D01*
X4145Y4541D01*
X4148Y4548D01*
X4150Y4554D01*
X4151Y4559D01*
X4152Y4563D01*
X4152Y4565D01*
Y4566D01*
Y4567D01*
Y4567D01*
X4152Y4574D01*
X4150Y4580D01*
X4148Y4585D01*
X4146Y4590D01*
X4144Y4594D01*
X4143Y4596D01*
X4141Y4598D01*
X4141Y4599D01*
X4136Y4603D01*
X4130Y4607D01*
X4124Y4610D01*
X4118Y4612D01*
X4113Y4613D01*
X4109Y4614D01*
X4107Y4615D01*
X4106Y4615D01*
X4105D01*
X4107Y4648D01*
X4113Y4647D01*
D02*
G37*
G36*
X4061Y4920D02*
X4074Y4919D01*
X4085Y4917D01*
X4090Y4915D01*
X4095Y4914D01*
X4099Y4912D01*
X4103Y4911D01*
X4107Y4910D01*
X4109Y4909D01*
X4112Y4908D01*
X4113Y4907D01*
X4114Y4906D01*
X4115D01*
X4126Y4900D01*
X4135Y4893D01*
X4143Y4886D01*
X4149Y4879D01*
X4154Y4873D01*
X4157Y4871D01*
X4158Y4868D01*
X4159Y4866D01*
X4161Y4865D01*
X4161Y4864D01*
X4161Y4864D01*
X4167Y4853D01*
X4171Y4842D01*
X4174Y4832D01*
X4176Y4822D01*
X4176Y4818D01*
X4177Y4814D01*
X4177Y4811D01*
Y4808D01*
X4177Y4805D01*
Y4803D01*
Y4802D01*
Y4802D01*
X4177Y4790D01*
X4175Y4778D01*
X4172Y4767D01*
X4171Y4763D01*
X4170Y4758D01*
X4168Y4754D01*
X4167Y4751D01*
X4166Y4748D01*
X4164Y4745D01*
X4164Y4743D01*
X4163Y4741D01*
X4162Y4740D01*
Y4740D01*
X4169Y4730D01*
X4176Y4720D01*
X4181Y4711D01*
X4185Y4703D01*
X4187Y4699D01*
X4188Y4696D01*
X4190Y4693D01*
X4191Y4690D01*
X4191Y4689D01*
X4192Y4687D01*
X4192Y4686D01*
Y4686D01*
X4170Y4676D01*
X4167Y4683D01*
X4163Y4691D01*
X4159Y4698D01*
X4155Y4705D01*
X4152Y4710D01*
X4150Y4713D01*
X4149Y4715D01*
X4148Y4717D01*
X4147Y4718D01*
X4146Y4719D01*
Y4719D01*
X4139Y4712D01*
X4132Y4706D01*
X4124Y4701D01*
X4118Y4697D01*
X4112Y4694D01*
X4109Y4693D01*
X4108Y4692D01*
X4106Y4691D01*
X4104Y4690D01*
X4104Y4690D01*
X4103D01*
X4094Y4687D01*
X4084Y4685D01*
X4075Y4683D01*
X4066Y4682D01*
X4062Y4681D01*
X4058Y4681D01*
X4055D01*
X4053Y4680D01*
X4047D01*
X4033Y4681D01*
X4021Y4683D01*
X4010Y4685D01*
X4004Y4687D01*
X4000Y4688D01*
X3995Y4689D01*
X3991Y4691D01*
X3988Y4692D01*
X3985Y4693D01*
X3983Y4694D01*
X3981Y4695D01*
X3980Y4695D01*
X3980D01*
X3969Y4702D01*
X3960Y4708D01*
X3952Y4715D01*
X3946Y4722D01*
X3941Y4728D01*
X3938Y4731D01*
X3937Y4733D01*
X3935Y4735D01*
X3934Y4737D01*
X3934Y4738D01*
Y4738D01*
X3931Y4743D01*
X3928Y4749D01*
X3924Y4760D01*
X3921Y4770D01*
X3919Y4780D01*
X3918Y4785D01*
X3917Y4788D01*
X3917Y4792D01*
Y4795D01*
X3917Y4798D01*
Y4800D01*
Y4801D01*
Y4801D01*
X3917Y4813D01*
X3919Y4825D01*
X3922Y4836D01*
X3923Y4841D01*
X3925Y4845D01*
X3926Y4849D01*
X3928Y4853D01*
X3929Y4856D01*
X3930Y4858D01*
X3931Y4861D01*
X3932Y4862D01*
X3932Y4863D01*
X3933Y4863D01*
X3939Y4873D01*
X3947Y4882D01*
X3955Y4889D01*
X3962Y4895D01*
X3969Y4900D01*
X3972Y4902D01*
X3975Y4904D01*
X3977Y4905D01*
X3978Y4906D01*
X3979Y4906D01*
X3980D01*
X3991Y4911D01*
X4003Y4915D01*
X4014Y4917D01*
X4025Y4919D01*
X4030Y4920D01*
X4034Y4920D01*
X4038Y4921D01*
X4041D01*
X4043Y4921D01*
X4047D01*
X4061Y4920D01*
D02*
G37*
G36*
X12884Y1462D02*
X12890Y1461D01*
X12896Y1460D01*
X12902Y1459D01*
X12907Y1457D01*
X12912Y1455D01*
X12916Y1453D01*
X12920Y1451D01*
X12924Y1449D01*
X12927Y1447D01*
X12929Y1445D01*
X12932Y1444D01*
X12934Y1442D01*
X12935Y1441D01*
X12935Y1441D01*
X12936Y1440D01*
X12940Y1436D01*
X12944Y1432D01*
X12947Y1427D01*
X12949Y1423D01*
X12952Y1418D01*
X12953Y1414D01*
X12956Y1406D01*
X12958Y1398D01*
X12958Y1395D01*
X12958Y1393D01*
X12959Y1390D01*
Y1389D01*
Y1388D01*
Y1387D01*
X12958Y1381D01*
X12958Y1375D01*
X12956Y1369D01*
X12955Y1364D01*
X12953Y1360D01*
X12952Y1356D01*
X12951Y1354D01*
X12950Y1353D01*
X12947Y1348D01*
X12943Y1342D01*
X12939Y1338D01*
X12935Y1334D01*
X12931Y1330D01*
X12928Y1328D01*
X12926Y1327D01*
X12925Y1326D01*
X12932D01*
X12939Y1327D01*
X12945Y1327D01*
X12950Y1327D01*
X12955Y1328D01*
X12960Y1329D01*
X12965Y1330D01*
X12968Y1330D01*
X12972Y1331D01*
X12975Y1332D01*
X12978Y1333D01*
X12980Y1334D01*
X12981Y1334D01*
X12983Y1334D01*
X12983Y1335D01*
X12983D01*
X12991Y1338D01*
X12997Y1342D01*
X13003Y1346D01*
X13007Y1350D01*
X13010Y1353D01*
X13013Y1355D01*
X13015Y1357D01*
X13015Y1358D01*
X13018Y1362D01*
X13020Y1367D01*
X13021Y1371D01*
X13022Y1375D01*
X13023Y1379D01*
X13023Y1382D01*
Y1383D01*
Y1384D01*
X13023Y1391D01*
X13021Y1397D01*
X13019Y1402D01*
X13017Y1407D01*
X13014Y1410D01*
X13012Y1413D01*
X13011Y1415D01*
X13010Y1415D01*
X13006Y1418D01*
X13003Y1420D01*
X12994Y1424D01*
X12990Y1425D01*
X12987Y1426D01*
X12985Y1427D01*
X12984D01*
X12986Y1458D01*
X12996Y1456D01*
X13006Y1453D01*
X13013Y1449D01*
X13020Y1445D01*
X13025Y1441D01*
X13029Y1438D01*
X13031Y1436D01*
X13032Y1435D01*
Y1435D01*
X13035Y1431D01*
X13038Y1427D01*
X13041Y1419D01*
X13044Y1411D01*
X13047Y1403D01*
X13048Y1396D01*
X13048Y1393D01*
Y1391D01*
X13049Y1389D01*
Y1387D01*
Y1387D01*
Y1386D01*
X13048Y1379D01*
X13048Y1372D01*
X13046Y1365D01*
X13044Y1359D01*
X13042Y1353D01*
X13039Y1348D01*
X13037Y1343D01*
X13034Y1339D01*
X13031Y1335D01*
X13029Y1332D01*
X13026Y1329D01*
X13024Y1327D01*
X13022Y1325D01*
X13021Y1324D01*
X13020Y1323D01*
X13020Y1322D01*
X13013Y1318D01*
X13005Y1314D01*
X12998Y1310D01*
X12989Y1307D01*
X12980Y1304D01*
X12972Y1302D01*
X12963Y1300D01*
X12954Y1299D01*
X12946Y1298D01*
X12938Y1297D01*
X12931Y1296D01*
X12925Y1296D01*
X12920Y1295D01*
X12913D01*
X12901Y1296D01*
X12891Y1297D01*
X12880Y1298D01*
X12871Y1299D01*
X12862Y1301D01*
X12855Y1303D01*
X12848Y1305D01*
X12842Y1308D01*
X12836Y1310D01*
X12832Y1312D01*
X12828Y1314D01*
X12825Y1316D01*
X12823Y1317D01*
X12821Y1319D01*
X12820Y1319D01*
X12819Y1320D01*
X12814Y1324D01*
X12810Y1329D01*
X12806Y1335D01*
X12803Y1340D01*
X12800Y1345D01*
X12798Y1350D01*
X12796Y1356D01*
X12795Y1361D01*
X12793Y1365D01*
X12793Y1370D01*
X12792Y1373D01*
X12791Y1377D01*
Y1379D01*
X12791Y1382D01*
Y1383D01*
Y1383D01*
X12791Y1391D01*
X12793Y1399D01*
X12795Y1406D01*
X12796Y1412D01*
X12798Y1416D01*
X12800Y1420D01*
X12801Y1423D01*
X12802Y1423D01*
X12806Y1430D01*
X12811Y1435D01*
X12816Y1440D01*
X12821Y1444D01*
X12826Y1448D01*
X12829Y1450D01*
X12831Y1451D01*
X12832Y1451D01*
X12833Y1452D01*
X12833D01*
X12841Y1455D01*
X12848Y1458D01*
X12856Y1459D01*
X12862Y1461D01*
X12869Y1462D01*
X12871D01*
X12873Y1462D01*
X12877D01*
X12884Y1462D01*
D02*
G37*
G36*
X16509Y6232D02*
X16514Y6225D01*
X16518Y6220D01*
X16523Y6214D01*
X16527Y6210D01*
X16531Y6207D01*
X16533Y6204D01*
X16533Y6204D01*
X16534Y6204D01*
X16541Y6197D01*
X16549Y6192D01*
X16556Y6187D01*
X16563Y6182D01*
X16569Y6179D01*
X16572Y6178D01*
X16574Y6177D01*
X16576Y6175D01*
X16577Y6175D01*
X16578Y6174D01*
X16579D01*
Y6144D01*
X16573Y6146D01*
X16567Y6149D01*
X16562Y6151D01*
X16557Y6154D01*
X16553Y6156D01*
X16549Y6158D01*
X16547Y6160D01*
X16547Y6160D01*
X16546D01*
X16540Y6164D01*
X16534Y6168D01*
X16529Y6172D01*
X16525Y6175D01*
X16521Y6178D01*
X16519Y6180D01*
X16517Y6181D01*
X16517Y6182D01*
Y5984D01*
X16486D01*
Y6238D01*
X16506D01*
X16509Y6232D01*
D02*
G37*
G36*
X1935Y8862D02*
X1942Y8861D01*
X1948Y8861D01*
X1953Y8859D01*
X1959Y8857D01*
X1964Y8855D01*
X1968Y8853D01*
X1973Y8851D01*
X1976Y8849D01*
X1980Y8847D01*
X1983Y8845D01*
X1985Y8843D01*
X1987Y8842D01*
X1988Y8841D01*
X1989Y8840D01*
X1989Y8840D01*
X1993Y8835D01*
X1997Y8831D01*
X2000Y8826D01*
X2003Y8821D01*
X2006Y8817D01*
X2008Y8812D01*
X2010Y8803D01*
X2011Y8799D01*
X2012Y8795D01*
X2013Y8792D01*
X2013Y8789D01*
X2013Y8787D01*
Y8785D01*
Y8784D01*
Y8784D01*
X2013Y8775D01*
X2011Y8767D01*
X2009Y8760D01*
X2007Y8754D01*
X2005Y8750D01*
X2003Y8746D01*
X2001Y8744D01*
X2001Y8743D01*
X1996Y8737D01*
X1990Y8733D01*
X1984Y8729D01*
X1979Y8726D01*
X1974Y8724D01*
X1970Y8723D01*
X1968Y8722D01*
X1967D01*
X1966Y8722D01*
X1966D01*
X1972Y8718D01*
X1978Y8715D01*
X1982Y8711D01*
X1986Y8708D01*
X1988Y8705D01*
X1991Y8702D01*
X1992Y8701D01*
X1992Y8700D01*
X1995Y8695D01*
X1997Y8690D01*
X1999Y8685D01*
X2000Y8680D01*
X2001Y8676D01*
X2001Y8673D01*
Y8671D01*
Y8670D01*
X2001Y8664D01*
X2000Y8658D01*
X1998Y8653D01*
X1996Y8648D01*
X1995Y8644D01*
X1993Y8641D01*
X1992Y8639D01*
X1992Y8638D01*
X1988Y8633D01*
X1984Y8628D01*
X1979Y8624D01*
X1975Y8620D01*
X1971Y8618D01*
X1968Y8616D01*
X1966Y8614D01*
X1965Y8614D01*
X1965D01*
X1958Y8611D01*
X1952Y8609D01*
X1945Y8607D01*
X1940Y8606D01*
X1935Y8605D01*
X1931Y8605D01*
X1922D01*
X1917Y8606D01*
X1907Y8608D01*
X1898Y8610D01*
X1891Y8613D01*
X1885Y8617D01*
X1883Y8618D01*
X1881Y8619D01*
X1879Y8621D01*
X1878Y8621D01*
X1877Y8622D01*
X1877Y8622D01*
X1870Y8629D01*
X1865Y8637D01*
X1860Y8645D01*
X1857Y8652D01*
X1854Y8659D01*
X1854Y8662D01*
X1853Y8665D01*
X1852Y8667D01*
X1852Y8669D01*
X1852Y8670D01*
Y8670D01*
X1883Y8675D01*
X1884Y8667D01*
X1887Y8661D01*
X1889Y8655D01*
X1892Y8650D01*
X1894Y8646D01*
X1896Y8644D01*
X1897Y8642D01*
X1898Y8642D01*
X1903Y8638D01*
X1908Y8635D01*
X1913Y8633D01*
X1918Y8632D01*
X1922Y8631D01*
X1925Y8630D01*
X1928D01*
X1935Y8631D01*
X1940Y8632D01*
X1945Y8634D01*
X1950Y8636D01*
X1953Y8638D01*
X1956Y8640D01*
X1957Y8641D01*
X1958Y8642D01*
X1961Y8646D01*
X1964Y8651D01*
X1966Y8656D01*
X1968Y8660D01*
X1968Y8664D01*
X1969Y8667D01*
Y8669D01*
Y8669D01*
Y8670D01*
X1968Y8677D01*
X1966Y8684D01*
X1964Y8689D01*
X1961Y8694D01*
X1958Y8697D01*
X1956Y8700D01*
X1954Y8701D01*
X1953Y8702D01*
X1947Y8705D01*
X1941Y8707D01*
X1935Y8709D01*
X1930Y8710D01*
X1925Y8711D01*
X1921Y8712D01*
X1916D01*
X1915Y8711D01*
X1913D01*
X1909Y8738D01*
X1914Y8737D01*
X1918Y8737D01*
X1922Y8736D01*
X1925Y8736D01*
X1928Y8735D01*
X1931D01*
X1939Y8736D01*
X1945Y8738D01*
X1952Y8740D01*
X1956Y8742D01*
X1961Y8745D01*
X1964Y8747D01*
X1965Y8748D01*
X1966Y8749D01*
X1971Y8755D01*
X1974Y8760D01*
X1977Y8766D01*
X1978Y8772D01*
X1980Y8777D01*
X1980Y8781D01*
X1980Y8782D01*
Y8783D01*
Y8784D01*
Y8784D01*
X1980Y8792D01*
X1978Y8800D01*
X1976Y8806D01*
X1973Y8811D01*
X1970Y8816D01*
X1968Y8819D01*
X1966Y8821D01*
X1965Y8822D01*
X1960Y8827D01*
X1953Y8831D01*
X1947Y8833D01*
X1941Y8835D01*
X1936Y8836D01*
X1932Y8836D01*
X1931Y8837D01*
X1928D01*
X1922Y8836D01*
X1916Y8835D01*
X1910Y8833D01*
X1906Y8831D01*
X1902Y8829D01*
X1900Y8827D01*
X1898Y8826D01*
X1897Y8825D01*
X1893Y8820D01*
X1889Y8814D01*
X1886Y8808D01*
X1884Y8802D01*
X1882Y8796D01*
X1881Y8791D01*
X1880Y8790D01*
Y8788D01*
X1880Y8788D01*
Y8787D01*
X1849Y8791D01*
X1849Y8797D01*
X1851Y8803D01*
X1854Y8813D01*
X1858Y8821D01*
X1862Y8829D01*
X1864Y8832D01*
X1867Y8835D01*
X1869Y8837D01*
X1870Y8839D01*
X1872Y8841D01*
X1873Y8842D01*
X1873Y8843D01*
X1874Y8843D01*
X1878Y8846D01*
X1882Y8849D01*
X1887Y8852D01*
X1891Y8854D01*
X1900Y8858D01*
X1909Y8860D01*
X1913Y8861D01*
X1917Y8861D01*
X1920Y8862D01*
X1923Y8862D01*
X1925Y8862D01*
X1928D01*
X1935Y8862D01*
D02*
G37*
G36*
X1821Y8855D02*
X1813Y8852D01*
X1805Y8848D01*
X1798Y8844D01*
X1791Y8840D01*
X1786Y8837D01*
X1783Y8835D01*
X1781Y8834D01*
X1779Y8833D01*
X1778Y8832D01*
X1778Y8831D01*
X1777D01*
X1784Y8824D01*
X1790Y8817D01*
X1795Y8809D01*
X1799Y8803D01*
X1802Y8797D01*
X1803Y8795D01*
X1804Y8793D01*
X1805Y8791D01*
X1806Y8790D01*
X1806Y8789D01*
Y8788D01*
X1809Y8779D01*
X1811Y8769D01*
X1813Y8760D01*
X1814Y8751D01*
X1815Y8747D01*
X1815Y8743D01*
Y8740D01*
X1816Y8738D01*
Y8735D01*
Y8734D01*
Y8733D01*
Y8732D01*
X1815Y8718D01*
X1813Y8706D01*
X1811Y8695D01*
X1809Y8689D01*
X1808Y8685D01*
X1807Y8680D01*
X1805Y8676D01*
X1804Y8673D01*
X1803Y8670D01*
X1802Y8668D01*
X1801Y8666D01*
X1801Y8666D01*
Y8665D01*
X1794Y8654D01*
X1788Y8645D01*
X1781Y8637D01*
X1774Y8631D01*
X1768Y8626D01*
X1765Y8623D01*
X1763Y8622D01*
X1761Y8620D01*
X1759Y8619D01*
X1758Y8619D01*
X1758D01*
X1753Y8616D01*
X1747Y8613D01*
X1736Y8609D01*
X1726Y8606D01*
X1716Y8604D01*
X1712Y8603D01*
X1708Y8603D01*
X1704Y8602D01*
X1701D01*
X1698Y8602D01*
X1695D01*
X1683Y8603D01*
X1671Y8604D01*
X1660Y8607D01*
X1655Y8608D01*
X1651Y8610D01*
X1647Y8611D01*
X1644Y8613D01*
X1640Y8614D01*
X1638Y8615D01*
X1635Y8616D01*
X1634Y8617D01*
X1633Y8618D01*
X1633Y8618D01*
X1623Y8624D01*
X1614Y8632D01*
X1607Y8640D01*
X1601Y8647D01*
X1596Y8654D01*
X1594Y8657D01*
X1592Y8660D01*
X1591Y8662D01*
X1591Y8663D01*
X1590Y8664D01*
Y8665D01*
X1585Y8676D01*
X1581Y8688D01*
X1579Y8699D01*
X1577Y8710D01*
X1576Y8715D01*
X1576Y8719D01*
X1575Y8723D01*
Y8726D01*
X1575Y8728D01*
Y8731D01*
Y8732D01*
Y8732D01*
X1576Y8746D01*
X1577Y8759D01*
X1579Y8770D01*
X1581Y8775D01*
X1582Y8780D01*
X1584Y8785D01*
X1585Y8788D01*
X1586Y8792D01*
X1587Y8795D01*
X1588Y8797D01*
X1589Y8798D01*
X1590Y8800D01*
Y8800D01*
X1596Y8811D01*
X1603Y8820D01*
X1610Y8828D01*
X1617Y8834D01*
X1623Y8839D01*
X1625Y8842D01*
X1628Y8843D01*
X1630Y8844D01*
X1631Y8846D01*
X1632Y8846D01*
X1632Y8846D01*
X1643Y8852D01*
X1654Y8856D01*
X1664Y8859D01*
X1674Y8861D01*
X1678Y8861D01*
X1682Y8862D01*
X1685Y8862D01*
X1688D01*
X1691Y8862D01*
X1694D01*
X1707Y8862D01*
X1718Y8860D01*
X1729Y8857D01*
X1733Y8856D01*
X1738Y8855D01*
X1742Y8853D01*
X1745Y8852D01*
X1748Y8851D01*
X1751Y8849D01*
X1753Y8849D01*
X1755Y8848D01*
X1756Y8847D01*
X1756D01*
X1766Y8854D01*
X1776Y8861D01*
X1785Y8866D01*
X1793Y8870D01*
X1797Y8872D01*
X1800Y8873D01*
X1803Y8875D01*
X1806Y8876D01*
X1808Y8876D01*
X1809Y8877D01*
X1810Y8877D01*
X1810D01*
X1821Y8855D01*
D02*
G37*
%LPC*%
G36*
X12878Y1430D02*
X12875D01*
X12866Y1430D01*
X12857Y1428D01*
X12849Y1426D01*
X12843Y1423D01*
X12839Y1421D01*
X12835Y1418D01*
X12833Y1417D01*
X12832Y1416D01*
X12827Y1411D01*
X12823Y1405D01*
X12820Y1399D01*
X12818Y1394D01*
X12817Y1389D01*
X12817Y1386D01*
X12816Y1384D01*
Y1383D01*
Y1383D01*
Y1382D01*
X12817Y1377D01*
X12818Y1373D01*
X12819Y1368D01*
X12820Y1364D01*
X12821Y1361D01*
X12823Y1359D01*
X12823Y1357D01*
X12824Y1357D01*
X12827Y1352D01*
X12831Y1348D01*
X12834Y1345D01*
X12838Y1343D01*
X12841Y1340D01*
X12844Y1339D01*
X12845Y1338D01*
X12846Y1338D01*
X12852Y1335D01*
X12857Y1334D01*
X12862Y1333D01*
X12867Y1332D01*
X12871Y1332D01*
X12874Y1331D01*
X12877D01*
X12886Y1332D01*
X12893Y1334D01*
X12900Y1336D01*
X12906Y1338D01*
X12910Y1341D01*
X12914Y1343D01*
X12915Y1345D01*
X12916Y1346D01*
X12921Y1352D01*
X12925Y1357D01*
X12928Y1363D01*
X12930Y1369D01*
X12931Y1374D01*
X12931Y1378D01*
X12932Y1379D01*
Y1380D01*
Y1381D01*
Y1381D01*
X12931Y1389D01*
X12929Y1396D01*
X12927Y1402D01*
X12924Y1407D01*
X12921Y1411D01*
X12919Y1414D01*
X12917Y1416D01*
X12916Y1416D01*
X12910Y1421D01*
X12904Y1425D01*
X12897Y1427D01*
X12890Y1429D01*
X12884Y1430D01*
X12882Y1430D01*
X12879D01*
X12878Y1430D01*
D02*
G37*
G36*
X12926Y1230D02*
X12921D01*
X12912Y1229D01*
X12902Y1229D01*
X12894Y1227D01*
X12886Y1225D01*
X12879Y1223D01*
X12872Y1221D01*
X12866Y1218D01*
X12861Y1215D01*
X12856Y1212D01*
X12852Y1209D01*
X12849Y1207D01*
X12846Y1205D01*
X12843Y1203D01*
X12842Y1201D01*
X12841Y1201D01*
X12841Y1200D01*
X12846Y1193D01*
X12851Y1185D01*
X12855Y1177D01*
X12859Y1170D01*
X12861Y1163D01*
X12862Y1160D01*
X12863Y1158D01*
X12864Y1156D01*
X12864Y1154D01*
X12865Y1153D01*
Y1153D01*
X12841Y1145D01*
X12839Y1151D01*
X12836Y1157D01*
X12834Y1163D01*
X12832Y1168D01*
X12829Y1172D01*
X12828Y1175D01*
X12826Y1177D01*
X12826Y1178D01*
X12824Y1172D01*
X12822Y1166D01*
X12821Y1160D01*
X12820Y1155D01*
X12820Y1151D01*
X12819Y1147D01*
Y1145D01*
Y1145D01*
Y1144D01*
X12820Y1137D01*
X12821Y1131D01*
X12822Y1125D01*
X12824Y1119D01*
X12826Y1113D01*
X12828Y1108D01*
X12830Y1103D01*
X12833Y1099D01*
X12835Y1095D01*
X12838Y1092D01*
X12839Y1089D01*
X12841Y1087D01*
X12843Y1085D01*
X12844Y1084D01*
X12845Y1083D01*
X12846Y1082D01*
X12851Y1078D01*
X12856Y1074D01*
X12862Y1071D01*
X12869Y1069D01*
X12875Y1066D01*
X12881Y1064D01*
X12893Y1061D01*
X12899Y1060D01*
X12904Y1059D01*
X12909Y1059D01*
X12913Y1059D01*
X12917Y1058D01*
X12921D01*
X12930Y1059D01*
X12939Y1059D01*
X12947Y1060D01*
X12955Y1062D01*
X12961Y1064D01*
X12968Y1066D01*
X12973Y1068D01*
X12978Y1070D01*
X12983Y1072D01*
X12987Y1075D01*
X12990Y1077D01*
X12993Y1079D01*
X12995Y1080D01*
X12996Y1081D01*
X12997Y1082D01*
X12997Y1082D01*
X13002Y1087D01*
X13006Y1092D01*
X13009Y1097D01*
X13012Y1102D01*
X13015Y1108D01*
X13017Y1113D01*
X13020Y1123D01*
X13021Y1127D01*
X13021Y1131D01*
X13022Y1135D01*
X13023Y1138D01*
X13023Y1141D01*
Y1143D01*
Y1144D01*
Y1144D01*
X13023Y1153D01*
X13021Y1162D01*
X13019Y1170D01*
X13017Y1176D01*
X13014Y1181D01*
X13012Y1186D01*
X13011Y1187D01*
X13011Y1188D01*
X13010Y1189D01*
Y1189D01*
X13005Y1196D01*
X13000Y1202D01*
X12993Y1208D01*
X12988Y1212D01*
X12983Y1215D01*
X12978Y1218D01*
X12977Y1218D01*
X12976Y1219D01*
X12975Y1219D01*
X12975D01*
X12966Y1223D01*
X12957Y1226D01*
X12948Y1227D01*
X12939Y1229D01*
X12932Y1229D01*
X12929D01*
X12926Y1230D01*
D02*
G37*
G36*
X4052Y4887D02*
X4047D01*
X4038Y4886D01*
X4030Y4886D01*
X4022Y4884D01*
X4014Y4883D01*
X4007Y4881D01*
X4001Y4879D01*
X3995Y4877D01*
X3990Y4874D01*
X3986Y4872D01*
X3982Y4870D01*
X3979Y4868D01*
X3976Y4866D01*
X3974Y4865D01*
X3972Y4864D01*
X3972Y4863D01*
X3971Y4863D01*
X3967Y4858D01*
X3963Y4853D01*
X3959Y4848D01*
X3956Y4843D01*
X3954Y4837D01*
X3952Y4832D01*
X3949Y4822D01*
X3948Y4818D01*
X3947Y4814D01*
X3946Y4810D01*
X3946Y4807D01*
X3946Y4804D01*
Y4802D01*
Y4801D01*
Y4801D01*
X3946Y4791D01*
X3947Y4783D01*
X3949Y4775D01*
X3952Y4769D01*
X3954Y4763D01*
X3956Y4759D01*
X3957Y4758D01*
X3958Y4757D01*
X3958Y4756D01*
Y4756D01*
X3963Y4749D01*
X3969Y4743D01*
X3975Y4737D01*
X3981Y4733D01*
X3986Y4730D01*
X3990Y4727D01*
X3992Y4727D01*
X3993Y4726D01*
X3994Y4725D01*
X3994D01*
X4003Y4722D01*
X4012Y4719D01*
X4021Y4718D01*
X4029Y4716D01*
X4037Y4715D01*
X4040D01*
X4042Y4715D01*
X4047D01*
X4057Y4715D01*
X4066Y4716D01*
X4075Y4718D01*
X4083Y4720D01*
X4090Y4722D01*
X4096Y4724D01*
X4103Y4727D01*
X4108Y4730D01*
X4113Y4733D01*
X4116Y4735D01*
X4120Y4738D01*
X4123Y4740D01*
X4125Y4742D01*
X4127Y4743D01*
X4128Y4744D01*
X4128Y4745D01*
X4122Y4752D01*
X4117Y4760D01*
X4113Y4768D01*
X4110Y4775D01*
X4107Y4782D01*
X4106Y4785D01*
X4105Y4787D01*
X4104Y4789D01*
X4104Y4791D01*
X4104Y4791D01*
Y4792D01*
X4128Y4800D01*
X4130Y4793D01*
X4132Y4788D01*
X4134Y4782D01*
X4137Y4777D01*
X4139Y4773D01*
X4141Y4770D01*
X4142Y4768D01*
X4143Y4767D01*
X4145Y4773D01*
X4146Y4779D01*
X4148Y4785D01*
X4148Y4790D01*
X4149Y4794D01*
X4149Y4798D01*
Y4800D01*
Y4800D01*
Y4801D01*
X4149Y4808D01*
X4148Y4814D01*
X4147Y4820D01*
X4145Y4826D01*
X4143Y4832D01*
X4141Y4837D01*
X4138Y4841D01*
X4136Y4846D01*
X4134Y4849D01*
X4131Y4853D01*
X4129Y4856D01*
X4127Y4858D01*
X4125Y4860D01*
X4124Y4861D01*
X4123Y4862D01*
X4123Y4863D01*
X4118Y4867D01*
X4112Y4871D01*
X4106Y4874D01*
X4100Y4876D01*
X4094Y4879D01*
X4088Y4881D01*
X4075Y4884D01*
X4070Y4885D01*
X4064Y4886D01*
X4060Y4886D01*
X4055Y4886D01*
X4052Y4887D01*
D02*
G37*
G36*
X4339Y6737D02*
X4334D01*
X4330Y6737D01*
X4326Y6736D01*
X4322Y6736D01*
X4316Y6735D01*
X4311Y6734D01*
X4298Y6731D01*
X4292Y6729D01*
X4286Y6727D01*
X4279Y6724D01*
X4274Y6721D01*
X4268Y6717D01*
X4263Y6713D01*
X4263Y6713D01*
X4262Y6712D01*
X4261Y6711D01*
X4259Y6709D01*
X4257Y6706D01*
X4255Y6703D01*
X4252Y6700D01*
X4250Y6696D01*
X4248Y6692D01*
X4245Y6687D01*
X4243Y6682D01*
X4241Y6676D01*
X4239Y6671D01*
X4238Y6665D01*
X4237Y6658D01*
X4237Y6651D01*
Y6651D01*
Y6650D01*
Y6648D01*
X4237Y6645D01*
X4238Y6640D01*
X4238Y6635D01*
X4239Y6630D01*
X4241Y6623D01*
X4243Y6618D01*
X4244Y6618D01*
X4245Y6620D01*
X4247Y6623D01*
X4249Y6628D01*
X4251Y6632D01*
X4254Y6638D01*
X4256Y6644D01*
X4258Y6650D01*
X4282Y6642D01*
Y6642D01*
X4282Y6641D01*
X4281Y6640D01*
X4281Y6637D01*
X4280Y6635D01*
X4279Y6632D01*
X4276Y6625D01*
X4272Y6618D01*
X4269Y6610D01*
X4264Y6602D01*
X4258Y6595D01*
X4258Y6595D01*
X4259Y6594D01*
X4261Y6592D01*
X4263Y6590D01*
X4266Y6588D01*
X4269Y6586D01*
X4273Y6583D01*
X4278Y6580D01*
X4283Y6577D01*
X4289Y6575D01*
X4296Y6572D01*
X4303Y6570D01*
X4311Y6568D01*
X4320Y6567D01*
X4329Y6566D01*
X4339Y6565D01*
X4344D01*
X4346Y6566D01*
X4349D01*
X4357Y6567D01*
X4365Y6568D01*
X4374Y6570D01*
X4383Y6572D01*
X4392Y6576D01*
X4392D01*
X4393Y6576D01*
X4394Y6577D01*
X4396Y6578D01*
X4400Y6580D01*
X4405Y6583D01*
X4411Y6588D01*
X4417Y6593D01*
X4423Y6599D01*
X4428Y6606D01*
Y6607D01*
X4428Y6607D01*
X4429Y6608D01*
X4430Y6610D01*
X4431Y6614D01*
X4434Y6619D01*
X4436Y6626D01*
X4438Y6633D01*
X4440Y6642D01*
X4440Y6651D01*
Y6651D01*
Y6653D01*
Y6655D01*
X4440Y6657D01*
X4440Y6660D01*
X4439Y6664D01*
X4438Y6668D01*
X4437Y6673D01*
X4434Y6683D01*
X4432Y6688D01*
X4430Y6693D01*
X4426Y6698D01*
X4423Y6703D01*
X4419Y6708D01*
X4415Y6713D01*
X4414Y6713D01*
X4413Y6714D01*
X4412Y6715D01*
X4410Y6717D01*
X4407Y6719D01*
X4404Y6721D01*
X4400Y6723D01*
X4396Y6725D01*
X4390Y6727D01*
X4385Y6729D01*
X4378Y6731D01*
X4372Y6733D01*
X4364Y6735D01*
X4356Y6736D01*
X4348Y6737D01*
X4339Y6737D01*
D02*
G37*
G36*
X12966Y2923D02*
X12961D01*
X12951Y2922D01*
X12942Y2922D01*
X12933Y2920D01*
X12925Y2918D01*
X12918Y2916D01*
X12911Y2914D01*
X12905Y2911D01*
X12900Y2908D01*
X12895Y2905D01*
X12891Y2902D01*
X12888Y2900D01*
X12885Y2898D01*
X12883Y2896D01*
X12881Y2894D01*
X12880Y2894D01*
X12880Y2893D01*
X12886Y2886D01*
X12891Y2878D01*
X12895Y2870D01*
X12898Y2863D01*
X12901Y2856D01*
X12902Y2853D01*
X12903Y2851D01*
X12903Y2849D01*
X12904Y2847D01*
X12904Y2846D01*
Y2846D01*
X12880Y2838D01*
X12878Y2844D01*
X12876Y2850D01*
X12873Y2856D01*
X12871Y2861D01*
X12869Y2865D01*
X12867Y2868D01*
X12866Y2870D01*
X12865Y2871D01*
X12863Y2865D01*
X12862Y2859D01*
X12860Y2853D01*
X12860Y2848D01*
X12859Y2844D01*
X12859Y2840D01*
Y2838D01*
Y2837D01*
Y2837D01*
X12859Y2830D01*
X12860Y2824D01*
X12861Y2818D01*
X12863Y2812D01*
X12865Y2806D01*
X12867Y2801D01*
X12870Y2796D01*
X12872Y2792D01*
X12874Y2788D01*
X12877Y2785D01*
X12879Y2782D01*
X12881Y2780D01*
X12883Y2778D01*
X12884Y2776D01*
X12885Y2776D01*
X12885Y2775D01*
X12890Y2771D01*
X12896Y2767D01*
X12901Y2764D01*
X12908Y2761D01*
X12914Y2759D01*
X12920Y2757D01*
X12933Y2754D01*
X12938Y2753D01*
X12944Y2752D01*
X12948Y2752D01*
X12953Y2751D01*
X12956Y2751D01*
X12961D01*
X12970Y2751D01*
X12978Y2752D01*
X12986Y2753D01*
X12994Y2755D01*
X13001Y2757D01*
X13007Y2759D01*
X13012Y2761D01*
X13018Y2763D01*
X13022Y2765D01*
X13026Y2768D01*
X13029Y2770D01*
X13032Y2771D01*
X13034Y2773D01*
X13035Y2774D01*
X13036Y2775D01*
X13037Y2775D01*
X13041Y2780D01*
X13045Y2785D01*
X13049Y2790D01*
X13052Y2795D01*
X13054Y2801D01*
X13056Y2806D01*
X13059Y2816D01*
X13060Y2820D01*
X13061Y2824D01*
X13062Y2828D01*
X13062Y2831D01*
X13062Y2834D01*
Y2836D01*
Y2837D01*
Y2837D01*
X13062Y2846D01*
X13060Y2855D01*
X13059Y2862D01*
X13056Y2869D01*
X13054Y2874D01*
X13052Y2879D01*
X13051Y2880D01*
X13050Y2881D01*
X13050Y2882D01*
Y2882D01*
X13045Y2889D01*
X13039Y2895D01*
X13033Y2900D01*
X13027Y2905D01*
X13022Y2908D01*
X13018Y2910D01*
X13016Y2911D01*
X13015Y2912D01*
X13014Y2912D01*
X13014D01*
X13005Y2916D01*
X12996Y2919D01*
X12987Y2920D01*
X12979Y2922D01*
X12971Y2922D01*
X12968D01*
X12966Y2923D01*
D02*
G37*
G36*
X1698Y8834D02*
X1695D01*
X1688Y8834D01*
X1682Y8833D01*
X1676Y8832D01*
X1670Y8830D01*
X1664Y8828D01*
X1659Y8826D01*
X1655Y8823D01*
X1650Y8821D01*
X1647Y8819D01*
X1643Y8816D01*
X1640Y8814D01*
X1638Y8812D01*
X1636Y8810D01*
X1635Y8809D01*
X1634Y8808D01*
X1634Y8808D01*
X1629Y8803D01*
X1625Y8797D01*
X1622Y8791D01*
X1620Y8785D01*
X1617Y8779D01*
X1615Y8773D01*
X1612Y8760D01*
X1611Y8755D01*
X1611Y8749D01*
X1610Y8745D01*
X1610Y8740D01*
X1609Y8737D01*
Y8735D01*
Y8733D01*
Y8732D01*
X1610Y8723D01*
X1611Y8715D01*
X1612Y8707D01*
X1613Y8699D01*
X1615Y8692D01*
X1617Y8686D01*
X1619Y8680D01*
X1622Y8675D01*
X1624Y8671D01*
X1626Y8667D01*
X1628Y8664D01*
X1630Y8661D01*
X1631Y8659D01*
X1632Y8657D01*
X1633Y8657D01*
X1634Y8656D01*
X1638Y8652D01*
X1643Y8648D01*
X1649Y8644D01*
X1654Y8641D01*
X1659Y8639D01*
X1664Y8637D01*
X1674Y8634D01*
X1678Y8633D01*
X1682Y8632D01*
X1686Y8631D01*
X1689Y8631D01*
X1692Y8631D01*
X1695D01*
X1705Y8631D01*
X1713Y8632D01*
X1721Y8634D01*
X1727Y8637D01*
X1733Y8639D01*
X1737Y8641D01*
X1738Y8642D01*
X1740Y8643D01*
X1740Y8643D01*
X1740D01*
X1747Y8648D01*
X1753Y8654D01*
X1759Y8660D01*
X1763Y8666D01*
X1766Y8671D01*
X1769Y8675D01*
X1769Y8677D01*
X1770Y8678D01*
X1771Y8679D01*
Y8679D01*
X1774Y8688D01*
X1777Y8697D01*
X1778Y8706D01*
X1780Y8714D01*
X1781Y8722D01*
Y8725D01*
X1781Y8727D01*
Y8729D01*
Y8731D01*
Y8732D01*
Y8732D01*
X1781Y8742D01*
X1780Y8751D01*
X1778Y8760D01*
X1776Y8768D01*
X1774Y8775D01*
X1772Y8781D01*
X1769Y8788D01*
X1766Y8793D01*
X1763Y8798D01*
X1761Y8801D01*
X1758Y8805D01*
X1756Y8808D01*
X1754Y8810D01*
X1753Y8812D01*
X1752Y8813D01*
X1751Y8813D01*
X1744Y8807D01*
X1736Y8802D01*
X1728Y8798D01*
X1721Y8795D01*
X1714Y8792D01*
X1712Y8791D01*
X1709Y8790D01*
X1707Y8790D01*
X1705Y8789D01*
X1705Y8789D01*
X1704D01*
X1696Y8813D01*
X1703Y8815D01*
X1708Y8817D01*
X1714Y8819D01*
X1719Y8822D01*
X1723Y8824D01*
X1726Y8826D01*
X1728Y8827D01*
X1729Y8828D01*
X1723Y8830D01*
X1717Y8831D01*
X1711Y8833D01*
X1706Y8833D01*
X1702Y8834D01*
X1698Y8834D01*
D02*
G37*
G36*
X3761Y8942D02*
Y8829D01*
X3840D01*
X3761Y8942D01*
D02*
G37*
G36*
X7601Y9598D02*
X7597D01*
X7595Y9597D01*
X7592Y9597D01*
X7588Y9596D01*
X7584Y9595D01*
X7579Y9595D01*
X7569Y9592D01*
X7564Y9589D01*
X7559Y9587D01*
X7554Y9584D01*
X7549Y9581D01*
X7544Y9577D01*
X7539Y9572D01*
X7539Y9572D01*
X7538Y9571D01*
X7537Y9569D01*
X7535Y9567D01*
X7533Y9565D01*
X7531Y9561D01*
X7529Y9557D01*
X7527Y9553D01*
X7525Y9548D01*
X7523Y9542D01*
X7521Y9536D01*
X7519Y9529D01*
X7517Y9522D01*
X7516Y9514D01*
X7515Y9505D01*
X7515Y9496D01*
Y9496D01*
Y9494D01*
Y9491D01*
X7515Y9488D01*
X7516Y9484D01*
X7516Y9479D01*
X7517Y9474D01*
X7518Y9468D01*
X7521Y9456D01*
X7523Y9450D01*
X7525Y9443D01*
X7528Y9437D01*
X7531Y9431D01*
X7535Y9425D01*
X7539Y9420D01*
X7539Y9420D01*
X7540Y9419D01*
X7541Y9418D01*
X7543Y9416D01*
X7546Y9414D01*
X7549Y9412D01*
X7552Y9410D01*
X7556Y9407D01*
X7560Y9405D01*
X7565Y9403D01*
X7570Y9400D01*
X7576Y9398D01*
X7581Y9397D01*
X7587Y9395D01*
X7594Y9395D01*
X7601Y9394D01*
X7604D01*
X7607Y9395D01*
X7612Y9395D01*
X7617Y9396D01*
X7622Y9397D01*
X7629Y9398D01*
X7634Y9401D01*
X7634Y9401D01*
X7632Y9402D01*
X7629Y9404D01*
X7624Y9407D01*
X7620Y9409D01*
X7614Y9411D01*
X7608Y9413D01*
X7602Y9415D01*
X7610Y9440D01*
X7610D01*
X7611Y9439D01*
X7612Y9439D01*
X7615Y9438D01*
X7617Y9437D01*
X7620Y9436D01*
X7627Y9433D01*
X7634Y9430D01*
X7642Y9426D01*
X7650Y9421D01*
X7657Y9415D01*
X7657Y9416D01*
X7658Y9417D01*
X7660Y9418D01*
X7662Y9420D01*
X7664Y9423D01*
X7666Y9427D01*
X7669Y9431D01*
X7672Y9436D01*
X7675Y9441D01*
X7677Y9447D01*
X7680Y9453D01*
X7682Y9461D01*
X7684Y9469D01*
X7685Y9477D01*
X7686Y9486D01*
X7687Y9496D01*
Y9496D01*
Y9498D01*
Y9499D01*
Y9501D01*
X7686Y9504D01*
Y9507D01*
X7685Y9514D01*
X7684Y9523D01*
X7682Y9531D01*
X7680Y9541D01*
X7676Y9549D01*
Y9550D01*
X7676Y9551D01*
X7675Y9552D01*
X7674Y9553D01*
X7672Y9557D01*
X7668Y9562D01*
X7664Y9568D01*
X7659Y9574D01*
X7653Y9580D01*
X7646Y9585D01*
X7645D01*
X7645Y9585D01*
X7644Y9586D01*
X7642Y9587D01*
X7638Y9589D01*
X7633Y9592D01*
X7626Y9594D01*
X7619Y9596D01*
X7610Y9597D01*
X7601Y9598D01*
D02*
G37*
G36*
X4017Y8968D02*
X4013D01*
X4004Y8967D01*
X3996Y8966D01*
X3988Y8964D01*
X3981Y8962D01*
X3976Y8959D01*
X3972Y8957D01*
X3970Y8956D01*
X3969Y8956D01*
X3969Y8955D01*
X3968D01*
X3961Y8950D01*
X3955Y8944D01*
X3950Y8938D01*
X3946Y8933D01*
X3942Y8928D01*
X3940Y8923D01*
X3939Y8922D01*
X3938Y8921D01*
X3938Y8920D01*
Y8919D01*
X3935Y8911D01*
X3932Y8901D01*
X3930Y8893D01*
X3929Y8884D01*
X3928Y8877D01*
Y8874D01*
X3928Y8871D01*
Y8869D01*
Y8868D01*
Y8866D01*
Y8866D01*
X3928Y8857D01*
X3929Y8847D01*
X3930Y8839D01*
X3932Y8831D01*
X3935Y8823D01*
X3937Y8817D01*
X3940Y8811D01*
X3942Y8806D01*
X3945Y8801D01*
X3948Y8797D01*
X3950Y8794D01*
X3953Y8790D01*
X3955Y8788D01*
X3956Y8787D01*
X3957Y8786D01*
X3957Y8785D01*
X3965Y8791D01*
X3972Y8796D01*
X3980Y8800D01*
X3988Y8804D01*
X3994Y8806D01*
X3997Y8807D01*
X3999Y8808D01*
X4002Y8809D01*
X4003Y8809D01*
X4004Y8810D01*
X4004D01*
X4013Y8785D01*
X4006Y8784D01*
X4000Y8781D01*
X3994Y8779D01*
X3990Y8777D01*
X3986Y8774D01*
X3983Y8772D01*
X3981Y8771D01*
X3980Y8771D01*
X3986Y8769D01*
X3992Y8767D01*
X3998Y8766D01*
X4003Y8765D01*
X4007Y8765D01*
X4010Y8764D01*
X4013D01*
X4020Y8765D01*
X4027Y8766D01*
X4033Y8767D01*
X4039Y8769D01*
X4044Y8770D01*
X4049Y8773D01*
X4054Y8775D01*
X4058Y8777D01*
X4062Y8780D01*
X4066Y8782D01*
X4068Y8784D01*
X4071Y8786D01*
X4073Y8788D01*
X4074Y8789D01*
X4075Y8790D01*
X4075Y8790D01*
X4079Y8795D01*
X4083Y8801D01*
X4086Y8807D01*
X4089Y8813D01*
X4091Y8820D01*
X4094Y8826D01*
X4096Y8838D01*
X4097Y8844D01*
X4098Y8849D01*
X4099Y8854D01*
X4099Y8858D01*
X4099Y8862D01*
Y8864D01*
Y8866D01*
Y8866D01*
X4099Y8875D01*
X4098Y8884D01*
X4097Y8892D01*
X4095Y8900D01*
X4094Y8906D01*
X4092Y8913D01*
X4089Y8918D01*
X4087Y8923D01*
X4085Y8928D01*
X4083Y8931D01*
X4081Y8935D01*
X4079Y8938D01*
X4077Y8939D01*
X4076Y8941D01*
X4075Y8942D01*
X4075Y8942D01*
X4071Y8947D01*
X4066Y8951D01*
X4060Y8954D01*
X4055Y8957D01*
X4050Y8959D01*
X4045Y8962D01*
X4035Y8965D01*
X4031Y8966D01*
X4026Y8966D01*
X4022Y8967D01*
X4019Y8967D01*
X4017Y8968D01*
D02*
G37*
%LPD*%
D48*
X0Y0D02*
X20433D01*
Y15866D01*
X0D02*
X20433D01*
X0Y0D02*
Y15866D01*
D53*
X413Y13701D02*
Y13982D01*
X432Y14038D01*
X470Y14076D01*
X526Y14094D01*
X563D01*
X620Y14076D01*
X657Y14038D01*
X676Y13982D01*
Y13701D01*
X1047D02*
X859Y14094D01*
X785Y13701D02*
X1047D01*
X4134Y11575D02*
X3740D01*
X4134D02*
Y11706D01*
X4115Y11762D01*
X4078Y11800D01*
X4040Y11818D01*
X3984Y11837D01*
X3890D01*
X3834Y11818D01*
X3796Y11800D01*
X3759Y11762D01*
X3740Y11706D01*
Y11575D01*
X4134Y11963D02*
Y12169D01*
X3984Y12057D01*
Y12113D01*
X3965Y12150D01*
X3946Y12169D01*
X3890Y12188D01*
X3853D01*
X3796Y12169D01*
X3759Y12131D01*
X3740Y12075D01*
Y12019D01*
X3759Y11963D01*
X3778Y11944D01*
X3815Y11925D01*
X19099Y6865D02*
Y7147D01*
X19080Y7203D01*
X19043Y7240D01*
X18986Y7259D01*
X18949D01*
X18893Y7240D01*
X18855Y7203D01*
X18836Y7147D01*
Y6865D01*
X18503Y6922D02*
X18522Y6884D01*
X18578Y6865D01*
X18615D01*
X18671Y6884D01*
X18709Y6940D01*
X18728Y7034D01*
Y7128D01*
X18709Y7203D01*
X18671Y7240D01*
X18615Y7259D01*
X18596D01*
X18540Y7240D01*
X18503Y7203D01*
X18484Y7147D01*
Y7128D01*
X18503Y7072D01*
X18540Y7034D01*
X18596Y7015D01*
X18615D01*
X18671Y7034D01*
X18709Y7072D01*
X18728Y7128D01*
X2146Y9843D02*
Y10124D01*
X2127Y10180D01*
X2089Y10217D01*
X2033Y10236D01*
X1996D01*
X1939Y10217D01*
X1902Y10180D01*
X1883Y10124D01*
Y9843D01*
X1587D02*
X1775Y10105D01*
X1493D01*
X1587Y9843D02*
Y10236D01*
X7756Y1535D02*
X7362D01*
X7756D02*
Y1404D01*
X7737Y1348D01*
X7700Y1311D01*
X7662Y1292D01*
X7606Y1273D01*
X7512D01*
X7456Y1292D01*
X7418Y1311D01*
X7381Y1348D01*
X7362Y1404D01*
Y1535D01*
X7756Y997D02*
X7493Y1185D01*
Y904D01*
X7756Y997D02*
X7362D01*
X4724Y8504D02*
Y8110D01*
Y8504D02*
X4856D01*
X4912Y8485D01*
X4949Y8448D01*
X4968Y8410D01*
X4987Y8354D01*
Y8260D01*
X4968Y8204D01*
X4949Y8166D01*
X4912Y8129D01*
X4856Y8110D01*
X4724D01*
X5094Y8410D02*
Y8429D01*
X5112Y8466D01*
X5131Y8485D01*
X5169Y8504D01*
X5244D01*
X5281Y8485D01*
X5300Y8466D01*
X5319Y8429D01*
Y8391D01*
X5300Y8354D01*
X5262Y8298D01*
X5075Y8110D01*
X5337D01*
X3858Y1496D02*
Y1102D01*
Y1496D02*
X3989D01*
X4046Y1477D01*
X4083Y1440D01*
X4102Y1402D01*
X4121Y1346D01*
Y1252D01*
X4102Y1196D01*
X4083Y1159D01*
X4046Y1121D01*
X3989Y1102D01*
X3858D01*
X4209Y1421D02*
X4246Y1440D01*
X4302Y1496D01*
Y1102D01*
X13464Y6949D02*
X13183D01*
X13127Y6930D01*
X13090Y6893D01*
X13071Y6836D01*
Y6799D01*
X13090Y6743D01*
X13127Y6705D01*
X13183Y6686D01*
X13464D01*
X13371Y6559D02*
X13390D01*
X13427Y6540D01*
X13446Y6521D01*
X13464Y6484D01*
Y6409D01*
X13446Y6372D01*
X13427Y6353D01*
X13390Y6334D01*
X13352D01*
X13315Y6353D01*
X13258Y6390D01*
X13071Y6578D01*
Y6315D01*
X15084Y11127D02*
X15365D01*
X15421Y11146D01*
X15459Y11183D01*
X15478Y11239D01*
Y11277D01*
X15459Y11333D01*
X15421Y11370D01*
X15365Y11389D01*
X15084D01*
Y11723D02*
Y11535D01*
X15253Y11517D01*
X15234Y11535D01*
X15215Y11592D01*
Y11648D01*
X15234Y11704D01*
X15271Y11742D01*
X15328Y11760D01*
X15365D01*
X15421Y11742D01*
X15459Y11704D01*
X15478Y11648D01*
Y11592D01*
X15459Y11535D01*
X15440Y11517D01*
X15403Y11498D01*
M02*
