%FSLAX24Y24*%
%MOIN*%
G70*
G01*
G75*
G04 Layer_Color=128*
%ADD10R,0.0118X0.0295*%
%ADD11R,0.0236X0.0886*%
%ADD12R,0.0591X0.0295*%
%ADD13R,0.0295X0.0591*%
%ADD14R,0.0354X0.0315*%
%ADD15R,0.0315X0.0354*%
%ADD16R,0.0433X0.0492*%
%ADD17R,0.0492X0.0433*%
%ADD18R,0.0480X0.0358*%
%ADD19R,0.0358X0.0480*%
%ADD20R,0.0906X0.0906*%
%ADD21R,0.0354X0.0315*%
%ADD22R,0.0197X0.0236*%
%ADD23R,0.0236X0.0197*%
%ADD24R,0.0827X0.0315*%
%ADD25R,0.0984X0.0315*%
%ADD26R,0.0315X0.0354*%
%ADD27R,0.0886X0.0236*%
%ADD28C,0.0335*%
%ADD29R,0.0846X0.0335*%
%ADD30R,0.0335X0.0846*%
%ADD31C,0.0197*%
%ADD32C,0.0118*%
%ADD33C,0.0157*%
%ADD34C,0.0177*%
%ADD35C,0.0138*%
%ADD36C,0.0591*%
%ADD37R,0.0591X0.0591*%
%ADD38O,0.0669X0.1181*%
%ADD39C,0.0500*%
%ADD40C,0.0394*%
%ADD41R,0.0630X0.1063*%
%ADD42R,0.2165X0.0827*%
%ADD43R,0.0906X0.0236*%
%ADD44C,0.0100*%
%ADD45C,0.0098*%
%ADD46C,0.0236*%
%ADD47C,0.0394*%
%ADD48C,0.0039*%
%ADD49C,0.0079*%
%ADD50C,0.0150*%
%ADD51C,0.0050*%
%ADD52C,0.0070*%
%ADD53C,0.0069*%
%ADD54R,0.0198X0.0375*%
%ADD55R,0.0316X0.0966*%
%ADD56R,0.0671X0.0375*%
%ADD57R,0.0375X0.0671*%
%ADD58R,0.0434X0.0395*%
%ADD59R,0.0395X0.0434*%
%ADD60R,0.0513X0.0572*%
%ADD61R,0.0572X0.0513*%
%ADD62R,0.0560X0.0438*%
%ADD63R,0.0438X0.0560*%
%ADD64R,0.0986X0.0986*%
%ADD65R,0.0434X0.0395*%
%ADD66R,0.0277X0.0316*%
%ADD67R,0.0316X0.0277*%
%ADD68R,0.0907X0.0395*%
%ADD69R,0.1064X0.0395*%
%ADD70R,0.0395X0.0434*%
%ADD71R,0.0966X0.0316*%
%ADD72C,0.0415*%
%ADD73R,0.0926X0.0415*%
%ADD74R,0.0415X0.0926*%
%ADD75C,0.0671*%
%ADD76R,0.0671X0.0671*%
%ADD77O,0.0749X0.1261*%
%ADD78C,0.0580*%
%ADD79R,0.0710X0.1143*%
%ADD80R,0.2245X0.0907*%
%ADD81R,0.0986X0.0316*%
%ADD82C,0.0474*%
D11*
X2089Y12992D02*
D03*
X1589D02*
D03*
X1089D02*
D03*
X589D02*
D03*
X2089Y15039D02*
D03*
X1589D02*
D03*
X1089D02*
D03*
X589D02*
D03*
D12*
X5512Y14656D02*
D03*
Y15344D02*
D03*
X3740Y14656D02*
D03*
Y15344D02*
D03*
X12756Y14911D02*
D03*
Y14222D02*
D03*
X13189Y3947D02*
D03*
Y4636D02*
D03*
X5157Y2608D02*
D03*
Y3297D02*
D03*
X1220Y10659D02*
D03*
Y9970D02*
D03*
X5433Y11959D02*
D03*
Y11270D02*
D03*
X12362Y3947D02*
D03*
Y4636D02*
D03*
D13*
X11348Y14724D02*
D03*
X12037D02*
D03*
X4518Y1102D02*
D03*
X3829D02*
D03*
X3179D02*
D03*
X2490D02*
D03*
X4222Y13386D02*
D03*
X4911D02*
D03*
X4400Y6772D02*
D03*
X3711D02*
D03*
X4951Y10157D02*
D03*
X4262D02*
D03*
X7372Y10354D02*
D03*
X8061D02*
D03*
X7982Y8622D02*
D03*
X7293D02*
D03*
D14*
X13189Y1398D02*
D03*
Y650D02*
D03*
X12402Y1024D02*
D03*
X3780Y4547D02*
D03*
Y5295D02*
D03*
X4567Y4921D02*
D03*
X13228Y3091D02*
D03*
Y2343D02*
D03*
X12441Y2717D02*
D03*
D15*
X3760Y9134D02*
D03*
X4508D02*
D03*
X4134Y8346D02*
D03*
X1949Y8465D02*
D03*
X1201D02*
D03*
X1575Y9252D02*
D03*
D18*
X3740Y12219D02*
D03*
Y10931D02*
D03*
D21*
X6929Y14764D02*
D03*
Y14213D02*
D03*
D26*
X4882Y14685D02*
D03*
X4331D02*
D03*
X15000Y4724D02*
D03*
X15551D02*
D03*
X18021Y7717D02*
D03*
X17469D02*
D03*
X11929Y15315D02*
D03*
X11378D02*
D03*
D41*
X12205Y13189D02*
D03*
X11102D02*
D03*
X12205Y11929D02*
D03*
X11102D02*
D03*
D42*
X14980Y5984D02*
D03*
X18720D02*
D03*
D43*
X17510Y14864D02*
D03*
Y14364D02*
D03*
Y13864D02*
D03*
Y13364D02*
D03*
Y12864D02*
D03*
Y12364D02*
D03*
Y11864D02*
D03*
Y11364D02*
D03*
Y10864D02*
D03*
Y10364D02*
D03*
Y9864D02*
D03*
Y9364D02*
D03*
Y8864D02*
D03*
Y8364D02*
D03*
X13907Y14864D02*
D03*
Y14364D02*
D03*
Y13864D02*
D03*
Y13364D02*
D03*
Y12864D02*
D03*
Y12364D02*
D03*
Y11864D02*
D03*
Y11364D02*
D03*
Y10864D02*
D03*
Y10364D02*
D03*
Y9864D02*
D03*
Y9364D02*
D03*
Y8864D02*
D03*
Y8364D02*
D03*
M02*
