M48
;Layer_Color=9474304
;FILE_FORMAT=2:4
INCH,LZ
;TYPE=PLATED
T1F00S00C0.0197
T2F00S00C0.0236
T3F00S00C0.0276
T4F00S00C0.0280
T5F00S00C0.0354
%
T01
X018386Y007126
X011348Y014724
T02
X005472Y00874
T03
X015669Y002244
X016693Y002677
X017638Y003937
Y004921
X018701Y005039
X019331Y005197
X019488Y00622
X019134Y004173
X019567Y003701
X017047Y007047
X016378Y00689
X016614Y00752
X016181Y010984
X016811Y011378
X01622Y012205
X015984Y013583
X01626Y014685
X017402Y015157
X018937Y010591
X014843Y010984
X014567Y010354
X015Y007362
X015Y006063
X014528Y005197
X014764Y003898
X014488Y002874
X014961Y002362
X01378Y001575
X012795Y00185
X009055Y003346
X007441Y005551
X003937Y003307
X007283Y011339
X011299Y010827
X011496Y009528
X010709Y008819
X014843Y014724
X015236Y015197
T04
X015669Y012559
X015433Y014606
X014921Y009291
X014094Y007323
X007244Y013543
X007638Y014134
T05
X019528Y007961
Y008961
Y009961
Y010961
Y011961
Y012961
Y013961
Y014961
X018543Y015315
Y014315
Y013315
Y012315
Y011315
X009055Y010961
Y009961
Y008961
Y007961
X01126Y008024
Y007024
Y006024
Y005024
Y004024
Y003024
Y002024
Y001024
X009154Y001161
X008553Y001642
Y000642
X000787Y001024
Y002024
Y003024
Y004024
Y005024
Y006024
Y007024
Y008024
X009055Y011961
Y012961
Y013961
Y014961
M30
