M48
;Layer_Color=9474304
;FILE_FORMAT=2:4
INCH,LZ
;TYPE=PLATED
T6F00S00C0.0394
%
G90
G05
T06
G00X002835Y002224
M15
G01Y002736
M16
G00X002835Y003799
M15
G01Y004311
M16
G00X002835Y005374
M15
G01Y005886
M16
G00X002835Y006949
M15
G01Y007461
M16
G00X002835Y008524
M15
G01Y009035
M16
G00X002835Y010098
M15
G01Y01061
M16
G00X002835Y011673
M15
G01Y012185
M16
G00X002835Y013248
M15
G01Y01376
M16
G00X00622Y013248
M15
G01Y01376
M16
G00X00622Y011673
M15
G01Y012185
M16
G00X00622Y010098
M15
G01Y01061
M16
G00X00622Y008524
M15
G01Y009035
M16
G00X00622Y006949
M15
G01Y007461
M16
G00X00622Y005374
M15
G01Y005886
M16
G00X00622Y003799
M15
G01Y004311
M16
G00X00622Y002224
M15
G01Y002736
M16
M17
M30
