%FSLAX24Y24*%
%MOIN*%
G70*
G01*
G75*
G04 Layer_Color=16711935*
%ADD10R,0.0118X0.0295*%
%ADD11R,0.0236X0.0886*%
%ADD12R,0.0591X0.0295*%
%ADD13R,0.0295X0.0591*%
%ADD14R,0.0354X0.0315*%
%ADD15R,0.0315X0.0354*%
%ADD16R,0.0433X0.0492*%
%ADD17R,0.0492X0.0433*%
%ADD18R,0.0480X0.0358*%
%ADD19R,0.0358X0.0480*%
%ADD20R,0.0906X0.0906*%
%ADD21R,0.0354X0.0315*%
%ADD22R,0.0197X0.0236*%
%ADD23R,0.0236X0.0197*%
%ADD24R,0.0827X0.0315*%
%ADD25R,0.0984X0.0315*%
%ADD26R,0.0315X0.0354*%
%ADD27R,0.0886X0.0236*%
%ADD28C,0.0335*%
%ADD29R,0.0846X0.0335*%
%ADD30R,0.0335X0.0846*%
%ADD31C,0.0197*%
%ADD32C,0.0118*%
%ADD33C,0.0157*%
%ADD34C,0.0177*%
%ADD35C,0.0138*%
%ADD36C,0.0591*%
%ADD37R,0.0591X0.0591*%
%ADD38O,0.0669X0.1181*%
%ADD39C,0.0500*%
%ADD40C,0.0394*%
%ADD41R,0.0630X0.1063*%
%ADD42R,0.2165X0.0827*%
%ADD43R,0.0906X0.0236*%
%ADD44C,0.0100*%
%ADD45C,0.0098*%
%ADD46C,0.0236*%
%ADD47C,0.0394*%
%ADD48C,0.0039*%
%ADD49C,0.0079*%
%ADD50C,0.0150*%
%ADD51C,0.0050*%
%ADD52C,0.0070*%
%ADD53C,0.0069*%
%ADD54R,0.0198X0.0375*%
%ADD55R,0.0316X0.0966*%
%ADD56R,0.0671X0.0375*%
%ADD57R,0.0375X0.0671*%
%ADD58R,0.0434X0.0395*%
%ADD59R,0.0395X0.0434*%
%ADD60R,0.0513X0.0572*%
%ADD61R,0.0572X0.0513*%
%ADD62R,0.0560X0.0438*%
%ADD63R,0.0438X0.0560*%
%ADD64R,0.0986X0.0986*%
%ADD65R,0.0434X0.0395*%
%ADD66R,0.0277X0.0316*%
%ADD67R,0.0316X0.0277*%
%ADD68R,0.0907X0.0395*%
%ADD69R,0.1064X0.0395*%
%ADD70R,0.0395X0.0434*%
%ADD71R,0.0966X0.0316*%
%ADD72C,0.0415*%
%ADD73R,0.0926X0.0415*%
%ADD74R,0.0415X0.0926*%
%ADD75C,0.0671*%
%ADD76R,0.0671X0.0671*%
%ADD77O,0.0749X0.1261*%
%ADD78C,0.0580*%
%ADD79R,0.0710X0.1143*%
%ADD80R,0.2245X0.0907*%
%ADD81R,0.0986X0.0316*%
%ADD82C,0.0474*%
%ADD83C,0.0059*%
G36*
X7717Y1004D02*
X7008D01*
Y1235D01*
X7717D01*
Y1004D01*
D02*
G37*
G36*
X5256Y7756D02*
X5024D01*
Y8465D01*
X5256D01*
Y7756D01*
D02*
G37*
G36*
X4094Y11875D02*
X3386D01*
Y12106D01*
X4094D01*
Y11875D01*
D02*
G37*
D44*
X17175Y8287D02*
X17825D01*
X13081Y15413D02*
X17825D01*
Y13091D02*
Y15413D01*
Y8287D02*
Y13091D01*
X13081Y8287D02*
Y9154D01*
Y8287D02*
X17175D01*
X13081Y9154D02*
Y15413D01*
D48*
X7992Y362D02*
G03*
X7992Y1921I591J780D01*
G01*
X2165Y13583D02*
G03*
X2165Y13583I-197J0D01*
G01*
X17026Y14799D02*
G03*
X17026Y14799I-197J0D01*
G01*
X787Y9724D02*
G03*
X787Y9724I-197J0D01*
G01*
X13780Y5394D02*
G03*
X13780Y5394I-197J0D01*
G01*
X7992Y362D02*
Y1921D01*
X6742Y14833D02*
X7116D01*
X6742Y14144D02*
X7116D01*
X6742D02*
Y14833D01*
X7116Y14144D02*
Y14833D01*
X4951Y14498D02*
Y14872D01*
X4262Y14498D02*
Y14872D01*
X4951D01*
X4262Y14498D02*
X4951D01*
X5758Y14606D02*
Y15394D01*
X5266Y14606D02*
X5758D01*
X5266Y15394D02*
X5758D01*
X5266Y14606D02*
Y15394D01*
X3986Y14606D02*
Y15394D01*
X3494Y14606D02*
X3986D01*
X3494Y15394D02*
X3986D01*
X3494Y14606D02*
Y15394D01*
X354Y13228D02*
X2323D01*
X354Y14803D02*
X2323D01*
Y13228D02*
Y14803D01*
X354Y13228D02*
Y14803D01*
X11299Y14478D02*
X12087D01*
X11299D02*
Y14970D01*
X12087Y14478D02*
Y14970D01*
X11299D02*
X12087D01*
X12510Y14173D02*
Y14961D01*
X13002D01*
X12510Y14173D02*
X13002D01*
Y14961D01*
X3780Y1348D02*
X4567D01*
Y856D02*
Y1348D01*
X3780Y856D02*
Y1348D01*
Y856D02*
X4567D01*
X2441Y1348D02*
X3228D01*
Y856D02*
Y1348D01*
X2441Y856D02*
Y1348D01*
Y856D02*
X3228D01*
X13435Y3898D02*
Y4685D01*
X12943Y3898D02*
X13435D01*
X12943Y4685D02*
X13435D01*
X12943Y3898D02*
Y4685D01*
X4173Y13140D02*
X4961D01*
X4173D02*
Y13632D01*
X4961Y13140D02*
Y13632D01*
X4173D02*
X4961D01*
X5404Y2559D02*
Y3346D01*
X4911Y2559D02*
X5404D01*
X4911Y3346D02*
X5404D01*
X4911Y2559D02*
Y3346D01*
X3661Y7018D02*
X4449D01*
Y6526D02*
Y7018D01*
X3661Y6526D02*
Y7018D01*
Y6526D02*
X4449D01*
X974Y9921D02*
Y10709D01*
X1467D01*
X974Y9921D02*
X1467D01*
Y10709D01*
X4213Y10404D02*
X5000D01*
Y9911D02*
Y10404D01*
X4213Y9911D02*
Y10404D01*
Y9911D02*
X5000D01*
X7323Y10108D02*
X8110D01*
X7323D02*
Y10600D01*
X8110Y10108D02*
Y10600D01*
X7323D02*
X8110D01*
X7244Y8868D02*
X8031D01*
Y8376D02*
Y8868D01*
X7244Y8376D02*
Y8868D01*
Y8376D02*
X8031D01*
X5187Y11220D02*
Y12008D01*
X5679D01*
X5187Y11220D02*
X5679D01*
Y12008D01*
X13071Y425D02*
Y1622D01*
X12520Y425D02*
Y1622D01*
X13071D01*
X12520Y425D02*
X13071D01*
X3898Y4323D02*
Y5520D01*
X4449Y4323D02*
Y5520D01*
X3898Y4323D02*
X4449D01*
X3898Y5520D02*
X4449D01*
X3535Y9016D02*
X4732D01*
X3535Y8465D02*
X4732D01*
X3535D02*
Y9016D01*
X4732Y8465D02*
Y9016D01*
X976Y8583D02*
X2173D01*
X976Y9134D02*
X2173D01*
Y8583D02*
Y9134D01*
X976Y8583D02*
Y9134D01*
X14931Y4537D02*
Y4911D01*
X15620Y4537D02*
Y4911D01*
X14931Y4537D02*
X15620D01*
X14931Y4911D02*
X15620D01*
X18089Y7530D02*
Y7904D01*
X17400Y7530D02*
Y7904D01*
X18089D01*
X17400Y7530D02*
X18089D01*
X11998Y15128D02*
Y15502D01*
X11309Y15128D02*
Y15502D01*
X11998D01*
X11309Y15128D02*
X11998D01*
X12608Y3898D02*
Y4685D01*
X12116Y3898D02*
X12608D01*
X12116Y4685D02*
X12608D01*
X12116Y3898D02*
Y4685D01*
X13110Y2118D02*
Y3315D01*
X12559Y2118D02*
Y3315D01*
X13110D01*
X12559Y2118D02*
X13110D01*
X17203Y8055D02*
Y15173D01*
X14215Y8055D02*
Y15173D01*
X17203D01*
X14215Y8055D02*
X17203D01*
X17735Y7677D02*
X18562D01*
Y6732D02*
Y7677D01*
X17735Y6732D02*
X18562D01*
X17735D02*
Y7677D01*
X236Y9370D02*
X2205D01*
X236Y10945D02*
X2205D01*
X236Y9370D02*
Y10945D01*
X2205Y9370D02*
Y10945D01*
X16663Y5591D02*
Y6378D01*
X16171D02*
X16663D01*
X16171Y5591D02*
X16663D01*
X16171D02*
Y6378D01*
X10827Y14065D02*
X11614D01*
X10827Y13573D02*
Y14065D01*
X11614Y13573D02*
Y14065D01*
X10827Y13573D02*
X11614D01*
X10984Y12096D02*
X11772D01*
X10984Y11604D02*
Y12096D01*
X11772Y11604D02*
Y12096D01*
X10984Y11604D02*
X11772D01*
X15423Y5620D02*
Y6407D01*
Y5620D02*
X15915D01*
X15423Y6407D02*
X15915D01*
Y5620D02*
Y6407D01*
X12205Y4734D02*
X12992D01*
X12205Y4242D02*
Y4734D01*
X12992Y4242D02*
Y4734D01*
X12205Y4242D02*
X12992D01*
X12254Y8386D02*
Y9173D01*
X11762D02*
X12254D01*
X11762Y8386D02*
X12254D01*
X11762D02*
Y9173D01*
X3740Y5167D02*
X4528D01*
X3740Y4675D02*
Y5167D01*
X4528Y4675D02*
Y5167D01*
X3740Y4675D02*
X4528D01*
X5069Y6260D02*
Y7047D01*
Y6260D02*
X5561D01*
X5069Y7047D02*
X5561D01*
Y6260D02*
Y7047D01*
X7126Y10344D02*
X7913D01*
Y10837D01*
X7126Y10344D02*
Y10837D01*
X7913D01*
X2215Y7087D02*
Y7874D01*
X1722D02*
X2215D01*
X1722Y7087D02*
X2215D01*
X1722D02*
Y7874D01*
X4488Y9163D02*
X5276D01*
Y9656D01*
X4488Y9163D02*
Y9656D01*
X5276D01*
X4488Y10738D02*
X5276D01*
Y11230D01*
X4488Y10738D02*
Y11230D01*
X5276D01*
X4488Y12805D02*
X5276D01*
X4488Y12313D02*
Y12805D01*
X5276Y12313D02*
Y12805D01*
X4488Y12313D02*
X5276D01*
X4488Y6173D02*
Y7370D01*
X3937Y6173D02*
Y7370D01*
Y6173D02*
X4488D01*
X3937Y7370D02*
X4488D01*
X6882Y9646D02*
X8079D01*
X6882Y9094D02*
X8079D01*
Y9646D01*
X6882Y9094D02*
Y9646D01*
X16171Y4134D02*
Y4921D01*
Y4134D02*
X16663D01*
X16171Y4921D02*
X16663D01*
Y4134D02*
Y4921D01*
X10906Y13435D02*
X11693D01*
X10906Y12943D02*
Y13435D01*
X11693Y12943D02*
Y13435D01*
X10906Y12943D02*
X11693D01*
X10906Y12766D02*
X11693D01*
X10906Y12274D02*
Y12766D01*
X11693Y12274D02*
Y12766D01*
X10906Y12274D02*
X11693D01*
X1506Y6604D02*
X1880D01*
X1506Y5915D02*
X1880D01*
Y6604D01*
X1506Y5915D02*
Y6604D01*
X5128Y2549D02*
X5502D01*
X5128Y1860D02*
X5502D01*
Y2549D01*
X5128Y1860D02*
Y2549D01*
X13711Y4596D02*
X14085D01*
X13711Y3907D02*
X14085D01*
Y4596D01*
X13711Y3907D02*
Y4596D01*
X12087Y10689D02*
X12323D01*
X12087Y11122D02*
X12323D01*
X12087Y10689D02*
Y11122D01*
X12323Y10689D02*
Y11122D01*
X17953Y5571D02*
X18189D01*
X17953Y6004D02*
X18189D01*
X17953Y5571D02*
Y6004D01*
X18189Y5571D02*
Y6004D01*
X18356Y6211D02*
X18730D01*
X18356Y5522D02*
X18730D01*
Y6211D01*
X18356Y5522D02*
Y6211D01*
X11890Y14705D02*
X12126D01*
X11890Y15138D02*
X12126D01*
X11890Y14705D02*
Y15138D01*
X12126Y14705D02*
Y15138D01*
X12146Y3504D02*
Y3740D01*
X12579Y3504D02*
Y3740D01*
X12146D02*
X12579D01*
X12146Y3504D02*
X12579D01*
X11890Y10295D02*
X12126D01*
X11890Y9862D02*
X12126D01*
Y10295D01*
X11890Y9862D02*
Y10295D01*
X5679Y797D02*
X6053D01*
X5679Y1486D02*
X6053D01*
X5679Y797D02*
Y1486D01*
X6053Y797D02*
Y1486D01*
X14931Y3041D02*
Y3415D01*
X15620Y3041D02*
Y3415D01*
X14931D02*
X15620D01*
X14931Y3041D02*
X15620D01*
X13937Y5039D02*
Y7008D01*
X12362Y5039D02*
Y7008D01*
Y5039D02*
X13937D01*
X12362Y7008D02*
X13937D01*
D49*
X14606Y6929D02*
X19094D01*
X14606Y5039D02*
X19094D01*
X14606D02*
Y6929D01*
X19094Y5039D02*
Y6929D01*
X2972Y551D02*
X4744D01*
X2972D02*
Y1654D01*
X4744D01*
X4744Y1299D02*
Y1653D01*
Y552D02*
Y906D01*
X4173Y551D02*
Y1654D01*
D51*
X15591Y6772D02*
G03*
X15591Y5197I0J-787D01*
G01*
X15571Y6939D02*
G03*
X15571Y5030I0J-955D01*
G01*
X18130Y5197D02*
G03*
X18130Y6772I0J787D01*
G01*
Y5030D02*
G03*
X18130Y6939I0J955D01*
G01*
X3386Y11043D02*
Y12106D01*
X4094D01*
Y11043D02*
Y12106D01*
X3386Y11043D02*
X4094D01*
X15591Y6772D02*
X18130D01*
X15591Y5197D02*
X18130D01*
X6378Y13169D02*
Y13839D01*
X6063D02*
X6378D01*
X6063Y13169D02*
Y13839D01*
Y13169D02*
X6378D01*
X2677D02*
X2992D01*
X2677D02*
Y13839D01*
X2992D01*
Y13169D02*
Y13839D01*
X6063Y11594D02*
X6378D01*
X6063D02*
Y12264D01*
X6378D01*
Y11594D02*
Y12264D01*
X2677Y11594D02*
X2992D01*
X2677D02*
Y12264D01*
X2992D01*
Y11594D02*
Y12264D01*
X2677Y10020D02*
X2992D01*
X2677D02*
Y10689D01*
X2992D01*
Y10020D02*
Y10689D01*
X6063Y10020D02*
X6378D01*
X6063D02*
Y10689D01*
X6378D01*
Y10020D02*
Y10689D01*
X6063Y8445D02*
X6378D01*
X6063D02*
Y9114D01*
X6378D01*
Y8445D02*
Y9114D01*
X2677Y8445D02*
X2992D01*
X2677D02*
Y9114D01*
X2992D01*
Y8445D02*
Y9114D01*
X2677Y6870D02*
X2992D01*
X2677D02*
Y7539D01*
X2992D01*
Y6870D02*
Y7539D01*
X6063Y6870D02*
X6378D01*
X6063D02*
Y7539D01*
X6378D01*
Y6870D02*
Y7539D01*
X6063Y5295D02*
X6378D01*
X6063D02*
Y5965D01*
X6378D01*
Y5295D02*
Y5965D01*
X2677Y5295D02*
X2992D01*
X2677D02*
Y5965D01*
X2992D01*
Y5295D02*
Y5965D01*
X2677Y3720D02*
X2992D01*
X2677D02*
Y4390D01*
X2992D01*
Y3720D02*
Y4390D01*
X6063Y3720D02*
X6378D01*
X6063D02*
Y4390D01*
X6378D01*
Y3720D02*
Y4390D01*
X6063Y2146D02*
X6378D01*
X6063D02*
Y2815D01*
X6378D01*
Y2146D02*
Y2815D01*
X2677Y2146D02*
X2992D01*
X2677D02*
Y2815D01*
X2992D01*
Y2146D02*
Y2815D01*
X7008Y1004D02*
Y2067D01*
Y1004D02*
X7717D01*
Y2067D01*
X7008D02*
X7717D01*
X4193Y7756D02*
X5256D01*
Y8465D01*
X4193D02*
X5256D01*
X4193Y7756D02*
Y8465D01*
D52*
X7530Y6703D02*
Y6998D01*
X8819Y6673D02*
Y6969D01*
X8661Y6821D02*
X8957D01*
X9114Y3396D02*
Y3691D01*
X7431Y3396D02*
Y3691D01*
X7283Y3543D02*
X7579D01*
D83*
X4744Y1299D02*
G03*
X4744Y906I0J-197D01*
G01*
X2756Y768D02*
Y1437D01*
X2972D01*
X2756Y768D02*
X2972D01*
X4744Y1437D02*
X4961D01*
X4744Y768D02*
X4961D01*
Y1437D01*
X4744Y906D02*
Y1299D01*
M02*
