M48
;Layer_Color=9474304
;FILE_FORMAT=2:4
INCH,LZ
;TYPE=PLATED
T1F00S00C0.0200
T2F00S00C0.0276
%
T01
X000433Y000472
X000906Y000906
X004508Y000886
X012283Y000906
X012717
X012283Y000472
X015197Y000394
X013169Y004134
X012667Y004144
X012835Y004646
Y006063
X01248Y006417
X012835Y007087
X012795Y007992
X012244Y008189
X011772Y007756
X011319Y008209
X011614Y006614
Y00563
X011575Y00311
X008504Y002795
X009803Y004843
X006378Y004724
X007165Y007992
X008583Y008543
X008386Y009016
X008583Y009803
X009045Y009724
X010906Y009843
X011496Y010827
Y011693
X012717Y01063
X012756Y009961
Y009173
X013819Y012283
X015157Y013228
X015315Y015236
X014252Y015118
X010236Y012756
X009528Y013425
X006654
X004911Y013839
X00436Y013848
X003553Y014104
X006444Y009284
X009291Y007953
X004528Y00248
X00122Y003386
X001024Y00563
Y00622
Y00687
Y007441
T02
X007087Y009024
X007087Y009524
Y010024
Y010524
Y011024
Y011524
Y012024
Y012524
X008661Y012311
Y011811
Y011311
Y010811
Y010311
Y012811
X008661Y013312
Y013812
X014961Y012524
Y012024
Y011524
Y011024
Y010524
Y010024
X014961Y009523
Y009023
X000787Y010311
Y010811
Y011311
Y011811
Y012311
Y012811
Y013311
X000787Y01381
M30
