%FSLAX24Y24*%
%MOIN*%
G70*
G01*
G75*
G04 Layer_Color=32896*
%ADD10C,0.0098*%
%ADD11C,0.0276*%
%ADD12R,0.0236X0.0886*%
%ADD13R,0.0299X0.0945*%
%ADD14R,0.0315X0.0354*%
%ADD15R,0.0886X0.0236*%
%ADD16R,0.0846X0.0335*%
%ADD17C,0.0335*%
%ADD18R,0.0335X0.0846*%
%ADD19R,0.0315X0.0630*%
%ADD20R,0.0394X0.0276*%
%ADD21R,0.0236X0.0197*%
%ADD22R,0.0197X0.0236*%
%ADD23R,0.0276X0.0394*%
%ADD24R,0.0354X0.0315*%
%ADD25R,0.0906X0.0906*%
%ADD26R,0.0492X0.0433*%
%ADD27R,0.0354X0.0315*%
%ADD28R,0.0591X0.0295*%
%ADD29R,0.0295X0.0591*%
%ADD30C,0.0079*%
%ADD31C,0.0118*%
%ADD32C,0.0138*%
%ADD33C,0.0197*%
%ADD34O,0.0472X0.0394*%
%ADD35R,0.0472X0.0394*%
%ADD36O,0.0669X0.1181*%
%ADD37C,0.0380*%
%ADD38R,0.2165X0.0827*%
%ADD39R,0.0118X0.0295*%
%ADD40R,0.0480X0.0358*%
%ADD41R,0.0358X0.0480*%
%ADD42R,0.0630X0.1063*%
%ADD43R,0.0906X0.0236*%
%ADD44R,0.0630X0.0315*%
%ADD45C,0.0236*%
%ADD46C,0.0100*%
%ADD47C,0.0394*%
%ADD48C,0.0039*%
%ADD49C,0.0061*%
%ADD50R,0.0246X0.0433*%
%ADD51R,0.0433X0.0246*%
%ADD52C,0.0827*%
%ADD53R,0.0316X0.0966*%
%ADD54R,0.0379X0.1025*%
%ADD55R,0.0395X0.0434*%
%ADD56R,0.0966X0.0316*%
%ADD57R,0.0926X0.0415*%
%ADD58C,0.0415*%
%ADD59R,0.0415X0.0926*%
%ADD60R,0.0395X0.0710*%
%ADD61R,0.0474X0.0356*%
%ADD62R,0.0316X0.0277*%
%ADD63R,0.0277X0.0316*%
%ADD64R,0.0356X0.0474*%
%ADD65R,0.0434X0.0395*%
%ADD66R,0.0986X0.0986*%
%ADD67R,0.0572X0.0513*%
%ADD68R,0.0434X0.0395*%
%ADD69R,0.0671X0.0375*%
%ADD70R,0.0375X0.0671*%
%ADD71O,0.0552X0.0474*%
%ADD72R,0.0552X0.0474*%
%ADD73O,0.0749X0.1261*%
%ADD74R,0.2245X0.0907*%
%ADD75R,0.0150X0.0327*%
%ADD76R,0.0560X0.0438*%
%ADD77R,0.0438X0.0560*%
%ADD78R,0.0710X0.1143*%
%ADD79R,0.0986X0.0316*%
%ADD80R,0.0710X0.0395*%
%ADD81C,0.0150*%
%ADD82C,0.0050*%
D10*
X3593Y5039D02*
G03*
X3593Y5039I-49J0D01*
G01*
X3199Y8150D02*
G03*
X3199Y8150I-49J0D01*
G01*
X3947Y2008D02*
G03*
X3947Y2008I-49J0D01*
G01*
X7254Y6063D02*
G03*
X7254Y6063I-49J0D01*
G01*
X10837Y13858D02*
G03*
X10837Y13858I-49J0D01*
G01*
X14380Y13346D02*
G03*
X14380Y13346I-49J0D01*
G01*
X10138Y4998D02*
G03*
X10138Y4998I-49J0D01*
G01*
X5150Y12835D02*
G03*
X5150Y12835I-49J0D01*
G01*
D30*
X197Y2283D02*
Y4055D01*
Y2283D02*
X276Y2205D01*
X1181Y13189D02*
Y14055D01*
X1292Y14166D01*
X6299Y12976D02*
Y13701D01*
X6378Y13780D01*
X6142Y11614D02*
Y13858D01*
X6024Y13976D02*
X6142Y13858D01*
X14331Y3287D02*
Y3819D01*
Y1693D02*
Y2234D01*
X9606Y3819D02*
X14331D01*
X9606Y3287D02*
Y3819D01*
Y1693D02*
X14331D01*
X9606D02*
Y2205D01*
X4213Y6102D02*
Y6378D01*
X3937D02*
X4213D01*
Y5197D02*
Y5472D01*
X3937Y5197D02*
X4213D01*
X3819Y9213D02*
Y9488D01*
X3543D02*
X3819D01*
Y8307D02*
Y8583D01*
X3543Y8307D02*
X3819D01*
X3228Y1850D02*
X3504D01*
X3228Y1575D02*
Y1850D01*
Y669D02*
X3504D01*
X3228D02*
Y945D01*
X6535Y5906D02*
X6811D01*
X6535Y5630D02*
Y5906D01*
Y4724D02*
X6811D01*
X6535D02*
Y5000D01*
X11457Y14921D02*
Y15197D01*
X11181D02*
X11457D01*
Y14016D02*
Y14291D01*
X11181Y14016D02*
X11457D01*
X15000Y14409D02*
Y14685D01*
X14724D02*
X15000D01*
Y13504D02*
Y13780D01*
X14724Y13504D02*
X15000D01*
X9331Y14272D02*
X9567D01*
X9331Y15256D02*
X9567D01*
X12795Y13799D02*
X13032D01*
X12795Y14783D02*
X13032D01*
X10699Y12146D02*
X13081D01*
Y5020D02*
Y12146D01*
X10699Y5020D02*
Y12146D01*
Y5020D02*
X13081D01*
X5000Y13346D02*
Y14370D01*
X3031Y13346D02*
X5000D01*
X3031Y14370D02*
X5000D01*
X3031Y13346D02*
Y14370D01*
D45*
X11211Y5413D02*
G03*
X11211Y5413I-118J0D01*
G01*
X4724Y13740D02*
G03*
X4724Y13740I-118J0D01*
G01*
D46*
X8609Y5617D02*
G03*
X8609Y5617I-2J0D01*
G01*
X8369Y5987D02*
G03*
X8369Y5987I-72J0D01*
G01*
X7639Y13986D02*
Y14606D01*
X3967Y6573D02*
X3970Y6570D01*
X4916Y1502D02*
X4920Y1506D01*
X5394Y15512D02*
X6014D01*
D48*
X9306Y5000D02*
Y5709D01*
X8483D02*
X9306D01*
X8483Y5000D02*
Y5709D01*
Y5000D02*
X9305D01*
D49*
X12126Y4370D02*
X11864Y3976D01*
Y4370D02*
X12126Y3976D01*
X11732D02*
X11601D01*
X11667D01*
Y4370D01*
X11732Y4304D01*
X9173Y6653D02*
Y6325D01*
X9108Y6260D01*
X8976D01*
X8911Y6325D01*
Y6653D01*
X8517D02*
X8648Y6588D01*
X8780Y6457D01*
Y6325D01*
X8714Y6260D01*
X8583D01*
X8517Y6325D01*
Y6391D01*
X8583Y6457D01*
X8780D01*
X14029Y4934D02*
X14095Y5000D01*
X14226D01*
X14291Y4934D01*
Y4672D01*
X14226Y4606D01*
X14095D01*
X14029Y4672D01*
X13635Y4606D02*
X13898D01*
X13635Y4869D01*
Y4934D01*
X13701Y5000D01*
X13832D01*
X13898Y4934D01*
X15485Y4143D02*
X15551Y4078D01*
Y3947D01*
X15485Y3881D01*
X15223D01*
X15157Y3947D01*
Y4078D01*
X15223Y4143D01*
X15485Y4275D02*
X15551Y4340D01*
Y4471D01*
X15485Y4537D01*
X15420D01*
X15354Y4471D01*
Y4406D01*
Y4471D01*
X15289Y4537D01*
X15223D01*
X15157Y4471D01*
Y4340D01*
X15223Y4275D01*
X9186Y1562D02*
X9252Y1496D01*
Y1365D01*
X9186Y1299D01*
X8924D01*
X8858Y1365D01*
Y1496D01*
X8924Y1562D01*
X8858Y1890D02*
X9252D01*
X9055Y1693D01*
Y1955D01*
X6667Y12152D02*
X6732Y12087D01*
Y11955D01*
X6667Y11890D01*
X6404D01*
X6339Y11955D01*
Y12087D01*
X6404Y12152D01*
X6339Y12283D02*
Y12415D01*
Y12349D01*
X6732D01*
X6667Y12283D01*
Y12611D02*
X6732Y12677D01*
Y12808D01*
X6667Y12874D01*
X6404D01*
X6339Y12808D01*
Y12677D01*
X6404Y12611D01*
X6667D01*
X4724Y8661D02*
X4331D01*
Y8858D01*
X4396Y8924D01*
X4659D01*
X4724Y8858D01*
Y8661D01*
X4331Y9317D02*
Y9055D01*
X4593Y9317D01*
X4659D01*
X4724Y9252D01*
Y9121D01*
X4659Y9055D01*
X6614Y590D02*
Y197D01*
X6417D01*
X6352Y262D01*
Y525D01*
X6417Y590D01*
X6614D01*
X6221Y525D02*
X6155Y590D01*
X6024D01*
X5958Y525D01*
Y459D01*
X6024Y394D01*
X6089D01*
X6024D01*
X5958Y328D01*
Y262D01*
X6024Y197D01*
X6155D01*
X6221Y262D01*
X4751Y5853D02*
X5013D01*
X5079Y5787D01*
Y5656D01*
X5013Y5591D01*
X4751D01*
X4685Y5656D01*
Y5787D01*
X4816Y5722D02*
X4685Y5853D01*
Y5787D02*
X4751Y5853D01*
X4685Y5984D02*
Y6115D01*
Y6050D01*
X5079D01*
X5013Y5984D01*
X2920Y9914D02*
X3182D01*
X3248Y9849D01*
Y9717D01*
X3182Y9652D01*
X2920D01*
X2854Y9717D01*
Y9849D01*
X2986Y9783D02*
X2854Y9914D01*
Y9849D02*
X2920Y9914D01*
X2854Y10308D02*
Y10045D01*
X3117Y10308D01*
X3182D01*
X3248Y10242D01*
Y10111D01*
X3182Y10045D01*
X3753Y144D02*
Y407D01*
X3819Y472D01*
X3950D01*
X4016Y407D01*
Y144D01*
X3950Y79D01*
X3819D01*
X3885Y210D02*
X3753Y79D01*
X3819D02*
X3753Y144D01*
X3622Y407D02*
X3557Y472D01*
X3425D01*
X3360Y407D01*
Y341D01*
X3425Y276D01*
X3491D01*
X3425D01*
X3360Y210D01*
Y144D01*
X3425Y79D01*
X3557D01*
X3622Y144D01*
X6745Y6129D02*
Y6391D01*
X6811Y6457D01*
X6942D01*
X7008Y6391D01*
Y6129D01*
X6942Y6063D01*
X6811D01*
X6877Y6194D02*
X6745Y6063D01*
X6811D02*
X6745Y6129D01*
X6418Y6063D02*
Y6457D01*
X6614Y6260D01*
X6352D01*
X11680Y15223D02*
X11942D01*
X12008Y15157D01*
Y15026D01*
X11942Y14961D01*
X11680D01*
X11614Y15026D01*
Y15157D01*
X11745Y15092D02*
X11614Y15223D01*
Y15157D02*
X11680Y15223D01*
X12008Y15617D02*
X11942Y15485D01*
X11811Y15354D01*
X11680D01*
X11614Y15420D01*
Y15551D01*
X11680Y15617D01*
X11745D01*
X11811Y15551D01*
Y15354D01*
X14672Y15144D02*
X14934D01*
X15000Y15079D01*
Y14947D01*
X14934Y14882D01*
X14672D01*
X14606Y14947D01*
Y15079D01*
X14737Y15013D02*
X14606Y15144D01*
Y15079D02*
X14672Y15144D01*
X15000Y15275D02*
Y15538D01*
X14934D01*
X14672Y15275D01*
X14606D01*
X4334Y2869D02*
X4727D01*
Y3066D01*
X4662Y3131D01*
X4531D01*
X4465Y3066D01*
Y2869D01*
Y3000D02*
X4334Y3131D01*
Y3263D02*
Y3394D01*
Y3328D01*
X4727D01*
X4662Y3263D01*
X1110Y12440D02*
X1504D01*
Y12637D01*
X1438Y12702D01*
X1307D01*
X1241Y12637D01*
Y12440D01*
Y12571D02*
X1110Y12702D01*
Y13096D02*
Y12834D01*
X1372Y13096D01*
X1438D01*
X1504Y13030D01*
Y12899D01*
X1438Y12834D01*
X6969Y13032D02*
X7362D01*
Y13228D01*
X7296Y13294D01*
X7165D01*
X7100Y13228D01*
Y13032D01*
Y13163D02*
X6969Y13294D01*
X7296Y13425D02*
X7362Y13491D01*
Y13622D01*
X7296Y13687D01*
X7231D01*
X7165Y13622D01*
Y13556D01*
Y13622D01*
X7100Y13687D01*
X7034D01*
X6969Y13622D01*
Y13491D01*
X7034Y13425D01*
X1388Y13414D02*
X1781D01*
Y13611D01*
X1716Y13677D01*
X1585D01*
X1519Y13611D01*
Y13414D01*
Y13545D02*
X1388Y13677D01*
Y14005D02*
X1781D01*
X1585Y13808D01*
Y14070D01*
X2820Y5827D02*
X3214D01*
Y6024D01*
X3148Y6089D01*
X3017D01*
X2951Y6024D01*
Y5827D01*
Y5958D02*
X2820Y6089D01*
X3214Y6483D02*
X3148Y6352D01*
X3017Y6220D01*
X2886D01*
X2820Y6286D01*
Y6417D01*
X2886Y6483D01*
X2951D01*
X3017Y6417D01*
Y6220D01*
X4670Y9882D02*
X5064D01*
Y10079D01*
X4998Y10144D01*
X4867D01*
X4802Y10079D01*
Y9882D01*
Y10013D02*
X4670Y10144D01*
X5064Y10275D02*
Y10538D01*
X4998D01*
X4736Y10275D01*
X4670D01*
X3780Y10906D02*
X4173D01*
Y11102D01*
X4108Y11168D01*
X3976D01*
X3911Y11102D01*
Y10906D01*
Y11037D02*
X3780Y11168D01*
X4108Y11299D02*
X4173Y11365D01*
Y11496D01*
X4108Y11561D01*
X4042D01*
X3976Y11496D01*
X3911Y11561D01*
X3845D01*
X3780Y11496D01*
Y11365D01*
X3845Y11299D01*
X3911D01*
X3976Y11365D01*
X4042Y11299D01*
X4108D01*
X3976Y11365D02*
Y11496D01*
X4331Y3583D02*
X4724D01*
Y3779D01*
X4659Y3845D01*
X4527D01*
X4462Y3779D01*
Y3583D01*
Y3714D02*
X4331Y3845D01*
X4396Y3976D02*
X4331Y4042D01*
Y4173D01*
X4396Y4239D01*
X4659D01*
X4724Y4173D01*
Y4042D01*
X4659Y3976D01*
X4593D01*
X4527Y4042D01*
Y4239D01*
X5118Y4528D02*
Y4921D01*
X4921D01*
X4856Y4856D01*
Y4724D01*
X4921Y4659D01*
X5118D01*
X4987D02*
X4856Y4528D01*
X4725D02*
X4593D01*
X4659D01*
Y4921D01*
X4725Y4856D01*
X4397D02*
X4331Y4921D01*
X4200D01*
X4134Y4856D01*
Y4593D01*
X4200Y4528D01*
X4331D01*
X4397Y4593D01*
Y4856D01*
X7205Y3051D02*
Y3445D01*
X7008D01*
X6942Y3379D01*
Y3248D01*
X7008Y3182D01*
X7205D01*
X7074D02*
X6942Y3051D01*
X6811D02*
X6680D01*
X6746D01*
Y3445D01*
X6811Y3379D01*
X6483Y3051D02*
X6352D01*
X6418D01*
Y3445D01*
X6483Y3379D01*
X7283Y2402D02*
Y2795D01*
X7087D01*
X7021Y2730D01*
Y2598D01*
X7087Y2533D01*
X7283D01*
X7152D02*
X7021Y2402D01*
X6890D02*
X6759D01*
X6824D01*
Y2795D01*
X6890Y2730D01*
X6300Y2402D02*
X6562D01*
X6300Y2664D01*
Y2730D01*
X6365Y2795D01*
X6496D01*
X6562Y2730D01*
X6339Y7480D02*
X6732D01*
Y7677D01*
X6667Y7743D01*
X6535D01*
X6470Y7677D01*
Y7480D01*
Y7612D02*
X6339Y7743D01*
Y7874D02*
Y8005D01*
Y7939D01*
X6732D01*
X6667Y7874D01*
Y8202D02*
X6732Y8267D01*
Y8399D01*
X6667Y8464D01*
X6601D01*
X6535Y8399D01*
Y8333D01*
Y8399D01*
X6470Y8464D01*
X6404D01*
X6339Y8399D01*
Y8267D01*
X6404Y8202D01*
X2520Y118D02*
Y512D01*
X2323D01*
X2257Y446D01*
Y315D01*
X2323Y249D01*
X2520D01*
X2388D02*
X2257Y118D01*
X2126D02*
X1995D01*
X2061D01*
Y512D01*
X2126Y446D01*
X1536Y512D02*
X1798D01*
Y315D01*
X1667Y380D01*
X1601D01*
X1536Y315D01*
Y184D01*
X1601Y118D01*
X1733D01*
X1798Y184D01*
X12402Y13189D02*
Y13583D01*
X12205D01*
X12139Y13517D01*
Y13386D01*
X12205Y13320D01*
X12402D01*
X12270D02*
X12139Y13189D01*
X12008D02*
X11877D01*
X11942D01*
Y13583D01*
X12008Y13517D01*
X11418Y13583D02*
X11549Y13517D01*
X11680Y13386D01*
Y13255D01*
X11614Y13189D01*
X11483D01*
X11418Y13255D01*
Y13320D01*
X11483Y13386D01*
X11680D01*
X8031Y14331D02*
X8425D01*
Y14527D01*
X8359Y14593D01*
X8228D01*
X8163Y14527D01*
Y14331D01*
Y14462D02*
X8031Y14593D01*
Y14724D02*
Y14855D01*
Y14790D01*
X8425D01*
X8359Y14724D01*
X8425Y15052D02*
Y15315D01*
X8359D01*
X8097Y15052D01*
X8031D01*
X13622Y12598D02*
X14016D01*
Y12795D01*
X13950Y12861D01*
X13819D01*
X13753Y12795D01*
Y12598D01*
Y12730D02*
X13622Y12861D01*
Y12992D02*
Y13123D01*
Y13058D01*
X14016D01*
X13950Y12992D01*
Y13320D02*
X14016Y13386D01*
Y13517D01*
X13950Y13582D01*
X13884D01*
X13819Y13517D01*
X13753Y13582D01*
X13688D01*
X13622Y13517D01*
Y13386D01*
X13688Y13320D01*
X13753D01*
X13819Y13386D01*
X13884Y13320D01*
X13950D01*
X13819Y13386D02*
Y13517D01*
X13465Y15000D02*
Y15394D01*
X13268D01*
X13202Y15328D01*
Y15197D01*
X13268Y15131D01*
X13465D01*
X13333D02*
X13202Y15000D01*
X13071D02*
X12940D01*
X13005D01*
Y15394D01*
X13071Y15328D01*
X12743Y15066D02*
X12677Y15000D01*
X12546D01*
X12481Y15066D01*
Y15328D01*
X12546Y15394D01*
X12677D01*
X12743Y15328D01*
Y15262D01*
X12677Y15197D01*
X12481D01*
X157Y4252D02*
X551D01*
Y4449D01*
X485Y4514D01*
X354D01*
X289Y4449D01*
Y4252D01*
Y4383D02*
X157Y4514D01*
Y4908D02*
Y4646D01*
X420Y4908D01*
X485D01*
X551Y4842D01*
Y4711D01*
X485Y4646D01*
Y5039D02*
X551Y5105D01*
Y5236D01*
X485Y5301D01*
X223D01*
X157Y5236D01*
Y5105D01*
X223Y5039D01*
X485D01*
X512Y3150D02*
X905D01*
Y3346D01*
X840Y3412D01*
X709D01*
X643Y3346D01*
Y3150D01*
Y3281D02*
X512Y3412D01*
Y3806D02*
Y3543D01*
X774Y3806D01*
X840D01*
X905Y3740D01*
Y3609D01*
X840Y3543D01*
X512Y3937D02*
Y4068D01*
Y4002D01*
X905D01*
X840Y3937D01*
X15472Y8228D02*
Y8622D01*
X15276D01*
X15210Y8556D01*
Y8425D01*
X15276Y8360D01*
X15472D01*
X15341D02*
X15210Y8228D01*
X14816D02*
X15079D01*
X14816Y8491D01*
Y8556D01*
X14882Y8622D01*
X15013D01*
X15079Y8556D01*
X14423Y8622D02*
X14685D01*
Y8425D01*
X14554Y8491D01*
X14489D01*
X14423Y8425D01*
Y8294D01*
X14489Y8228D01*
X14620D01*
X14685Y8294D01*
X15394Y6494D02*
Y6888D01*
X15197D01*
X15131Y6822D01*
Y6691D01*
X15197Y6626D01*
X15394D01*
X15263D02*
X15131Y6494D01*
X14738D02*
X15000D01*
X14738Y6757D01*
Y6822D01*
X14803Y6888D01*
X14935D01*
X15000Y6822D01*
X14344Y6888D02*
X14475Y6822D01*
X14607Y6691D01*
Y6560D01*
X14541Y6494D01*
X14410D01*
X14344Y6560D01*
Y6626D01*
X14410Y6691D01*
X14607D01*
X9449Y7126D02*
X9121D01*
X9055Y7192D01*
Y7323D01*
X9121Y7388D01*
X9449D01*
X9055Y7520D02*
Y7651D01*
Y7585D01*
X9449D01*
X9383Y7520D01*
X4843Y12126D02*
Y11798D01*
X4777Y11732D01*
X4646D01*
X4580Y11798D01*
Y12126D01*
X4252Y11732D02*
Y12126D01*
X4449Y11929D01*
X4187D01*
X6548Y10853D02*
X6614Y10787D01*
Y10656D01*
X6548Y10591D01*
X6286D01*
X6220Y10656D01*
Y10787D01*
X6286Y10853D01*
X6220Y10984D02*
Y11115D01*
Y11050D01*
X6614D01*
X6548Y10984D01*
X6220Y11312D02*
Y11443D01*
Y11378D01*
X6614D01*
X6548Y11312D01*
D81*
X4774Y6570D02*
Y7392D01*
X3967Y6573D02*
Y7392D01*
X3970Y6570D02*
X4774D01*
X4920Y1506D02*
X5738D01*
X4916Y699D02*
X5738D01*
X4916D02*
Y1502D01*
D82*
X3967Y8420D02*
X4774D01*
X6766Y699D02*
Y1506D01*
M02*
