%FSLAX24Y24*%
%MOIN*%
G70*
G01*
G75*
G04 Layer_Color=16711935*
%ADD10C,0.0098*%
%ADD11R,0.0354X0.0315*%
%ADD12C,0.0276*%
%ADD13R,0.0276X0.0394*%
%ADD14R,0.0236X0.0886*%
%ADD15R,0.0591X0.0295*%
%ADD16R,0.0295X0.0591*%
%ADD17R,0.0354X0.0315*%
%ADD18R,0.0492X0.0433*%
%ADD19R,0.0906X0.0906*%
%ADD20R,0.0315X0.0354*%
%ADD21R,0.0197X0.0236*%
%ADD22R,0.0236X0.0197*%
%ADD23R,0.0394X0.0276*%
%ADD24R,0.0315X0.0630*%
%ADD25R,0.0846X0.0335*%
%ADD26C,0.0335*%
%ADD27R,0.0335X0.0846*%
%ADD28R,0.0886X0.0236*%
%ADD29R,0.0299X0.0945*%
%ADD30C,0.0100*%
%ADD31C,0.0079*%
%ADD32C,0.0138*%
%ADD33C,0.0118*%
%ADD34O,0.0669X0.1181*%
%ADD35R,0.0380X0.0380*%
%ADD36C,0.0380*%
%ADD37C,0.0380*%
%ADD38R,0.0630X0.0315*%
%ADD39R,0.0906X0.0236*%
%ADD40R,0.0630X0.1063*%
%ADD41R,0.0358X0.0480*%
%ADD42R,0.0480X0.0358*%
%ADD43R,0.0118X0.0295*%
%ADD44R,0.2165X0.0827*%
%ADD45C,0.0236*%
%ADD46C,0.0394*%
%ADD47C,0.0039*%
%ADD48C,0.0063*%
%ADD49R,0.0433X0.0246*%
%ADD50R,0.0246X0.0433*%
%ADD51R,0.0434X0.0395*%
%ADD52C,0.0827*%
%ADD53R,0.0356X0.0474*%
%ADD54R,0.0316X0.0966*%
%ADD55R,0.0671X0.0375*%
%ADD56R,0.0375X0.0671*%
%ADD57R,0.0434X0.0395*%
%ADD58R,0.0572X0.0513*%
%ADD59R,0.0986X0.0986*%
%ADD60R,0.0395X0.0434*%
%ADD61R,0.0277X0.0316*%
%ADD62R,0.0316X0.0277*%
%ADD63R,0.0474X0.0356*%
%ADD64R,0.0395X0.0710*%
%ADD65R,0.0926X0.0415*%
%ADD66C,0.0415*%
%ADD67R,0.0415X0.0926*%
%ADD68R,0.0966X0.0316*%
%ADD69R,0.0379X0.1025*%
%ADD70O,0.0749X0.1261*%
%ADD71R,0.0460X0.0460*%
%ADD72C,0.0460*%
%ADD73R,0.0710X0.0395*%
%ADD74R,0.0986X0.0316*%
%ADD75R,0.0710X0.1143*%
%ADD76R,0.0438X0.0560*%
%ADD77R,0.0560X0.0438*%
%ADD78R,0.0150X0.0327*%
%ADD79R,0.2245X0.0907*%
D51*
X8504Y1378D02*
D03*
Y1929D02*
D03*
D52*
X7283Y551D02*
D03*
X591Y15039D02*
D03*
X15079Y1299D02*
D03*
X11929Y12677D02*
D03*
D54*
X3266Y12835D02*
D03*
Y14882D02*
D03*
X3766Y12835D02*
D03*
X4266D02*
D03*
X4766D02*
D03*
X3766Y14882D02*
D03*
X4266D02*
D03*
X4766D02*
D03*
D55*
X14803Y5522D02*
D03*
Y6211D02*
D03*
X14961Y7254D02*
D03*
Y7943D02*
D03*
X13110Y12726D02*
D03*
Y13415D02*
D03*
X10945Y12726D02*
D03*
Y13415D02*
D03*
X3307Y11112D02*
D03*
Y11801D02*
D03*
X3110Y6821D02*
D03*
Y7510D02*
D03*
X2480Y14537D02*
D03*
Y15226D02*
D03*
X1614Y14537D02*
D03*
Y15226D02*
D03*
D56*
X522Y1772D02*
D03*
X1211D02*
D03*
X522Y2638D02*
D03*
X1211D02*
D03*
X1663Y1024D02*
D03*
X2352D02*
D03*
X6427Y6969D02*
D03*
X7116D02*
D03*
X6506Y1890D02*
D03*
X7195D02*
D03*
X6467Y3937D02*
D03*
X7156D02*
D03*
X3120Y4488D02*
D03*
X3809D02*
D03*
X3120Y3661D02*
D03*
X3809D02*
D03*
X3593Y10118D02*
D03*
X4281D02*
D03*
X6624Y15197D02*
D03*
X7313D02*
D03*
X3120Y2677D02*
D03*
X3809D02*
D03*
D57*
X14331Y13720D02*
D03*
Y14468D02*
D03*
X15118Y14094D02*
D03*
X10787Y14232D02*
D03*
Y14980D02*
D03*
X11575Y14606D02*
D03*
X6417Y5315D02*
D03*
X7205Y4941D02*
D03*
Y5689D02*
D03*
X3110Y1260D02*
D03*
X3898Y886D02*
D03*
Y1634D02*
D03*
X3150Y8524D02*
D03*
Y9272D02*
D03*
X3937Y8898D02*
D03*
X3543Y5413D02*
D03*
Y6161D02*
D03*
X4331Y5787D02*
D03*
D60*
X14173Y4252D02*
D03*
X14724D02*
D03*
X14646Y5000D02*
D03*
X15197D02*
D03*
D64*
X6498Y14291D02*
D03*
X7285D02*
D03*
D70*
X5630Y2362D02*
D03*
Y3937D02*
D03*
Y5512D02*
D03*
Y7087D02*
D03*
Y8661D02*
D03*
Y10236D02*
D03*
Y11811D02*
D03*
Y13386D02*
D03*
X2244Y2362D02*
D03*
Y3937D02*
D03*
Y7087D02*
D03*
Y5512D02*
D03*
Y8661D02*
D03*
Y10236D02*
D03*
Y11811D02*
D03*
Y13386D02*
D03*
D71*
X8661Y10311D02*
D03*
X7087Y12524D02*
D03*
X787Y10311D02*
D03*
X14961Y12524D02*
D03*
D72*
X8661Y11311D02*
D03*
Y11811D02*
D03*
X8661Y13312D02*
D03*
Y13812D02*
D03*
X8661Y12811D02*
D03*
Y12311D02*
D03*
Y10811D02*
D03*
X7087Y9024D02*
D03*
X7087Y11524D02*
D03*
Y11024D02*
D03*
Y9524D02*
D03*
Y10524D02*
D03*
Y10024D02*
D03*
Y12024D02*
D03*
X787Y12811D02*
D03*
Y12311D02*
D03*
Y13311D02*
D03*
Y10811D02*
D03*
Y11811D02*
D03*
Y11311D02*
D03*
X787Y13810D02*
D03*
X14961Y10524D02*
D03*
Y11024D02*
D03*
Y10024D02*
D03*
Y12024D02*
D03*
Y11524D02*
D03*
X14961Y9023D02*
D03*
Y9523D02*
D03*
D73*
X5709Y14370D02*
D03*
Y15157D02*
D03*
D74*
X10089Y6333D02*
D03*
Y6833D02*
D03*
Y5333D02*
D03*
Y5833D02*
D03*
Y8333D02*
D03*
Y7333D02*
D03*
Y7833D02*
D03*
Y9833D02*
D03*
Y8833D02*
D03*
Y9333D02*
D03*
Y11333D02*
D03*
Y10333D02*
D03*
Y10833D02*
D03*
Y11833D02*
D03*
X13691Y7833D02*
D03*
Y6333D02*
D03*
Y5333D02*
D03*
Y5833D02*
D03*
Y6833D02*
D03*
Y7333D02*
D03*
Y8333D02*
D03*
Y8833D02*
D03*
Y9333D02*
D03*
Y9833D02*
D03*
Y10333D02*
D03*
Y11833D02*
D03*
Y10833D02*
D03*
Y11333D02*
D03*
D75*
X12362Y14291D02*
D03*
X13465D02*
D03*
X8898Y14764D02*
D03*
X10000D02*
D03*
D76*
X5222Y1102D02*
D03*
X6510D02*
D03*
D77*
X4370Y6876D02*
D03*
Y8163D02*
D03*
D78*
X8602Y5965D02*
D03*
X8996Y4744D02*
D03*
X8602D02*
D03*
X8799D02*
D03*
X9193D02*
D03*
X8799Y5965D02*
D03*
X8996D02*
D03*
X9193D02*
D03*
D79*
X10098Y2756D02*
D03*
X13839D02*
D03*
M02*
