%FSLAX24Y24*%
%MOIN*%
G70*
G01*
G75*
G04 Layer_Color=16776960*
%ADD10C,0.0098*%
%ADD11C,0.0276*%
%ADD12R,0.0236X0.0886*%
%ADD13R,0.0299X0.0945*%
%ADD14R,0.0315X0.0354*%
%ADD15R,0.0886X0.0236*%
%ADD16R,0.0846X0.0335*%
%ADD17C,0.0335*%
%ADD18R,0.0335X0.0846*%
%ADD19R,0.0315X0.0630*%
%ADD20R,0.0394X0.0276*%
%ADD21R,0.0236X0.0197*%
%ADD22R,0.0197X0.0236*%
%ADD23R,0.0276X0.0394*%
%ADD24R,0.0354X0.0315*%
%ADD25R,0.0906X0.0906*%
%ADD26R,0.0492X0.0433*%
%ADD27R,0.0354X0.0315*%
%ADD28R,0.0591X0.0295*%
%ADD29R,0.0295X0.0591*%
%ADD30C,0.0079*%
%ADD31C,0.0118*%
%ADD32C,0.0138*%
%ADD33C,0.0197*%
%ADD34O,0.0472X0.0394*%
%ADD35R,0.0472X0.0394*%
%ADD36O,0.0669X0.1181*%
%ADD37C,0.0380*%
%ADD38R,0.2165X0.0827*%
%ADD39R,0.0118X0.0295*%
%ADD40R,0.0480X0.0358*%
%ADD41R,0.0358X0.0480*%
%ADD42R,0.0630X0.1063*%
%ADD43R,0.0906X0.0236*%
%ADD44R,0.0630X0.0315*%
%ADD45C,0.0236*%
%ADD46C,0.0100*%
%ADD47C,0.0394*%
%ADD48C,0.0039*%
%ADD49C,0.0061*%
%ADD50R,0.0246X0.0433*%
%ADD51R,0.0433X0.0246*%
%ADD52C,0.0827*%
%ADD53R,0.0316X0.0966*%
%ADD54R,0.0379X0.1025*%
%ADD55R,0.0395X0.0434*%
%ADD56R,0.0966X0.0316*%
%ADD57R,0.0926X0.0415*%
%ADD58C,0.0415*%
%ADD59R,0.0415X0.0926*%
%ADD60R,0.0395X0.0710*%
%ADD61R,0.0474X0.0356*%
%ADD62R,0.0316X0.0277*%
%ADD63R,0.0277X0.0316*%
%ADD64R,0.0356X0.0474*%
%ADD65R,0.0434X0.0395*%
%ADD66R,0.0986X0.0986*%
%ADD67R,0.0572X0.0513*%
%ADD68R,0.0434X0.0395*%
%ADD69R,0.0671X0.0375*%
%ADD70R,0.0375X0.0671*%
%ADD71O,0.0552X0.0474*%
%ADD72R,0.0552X0.0474*%
%ADD73O,0.0749X0.1261*%
%ADD74R,0.2245X0.0907*%
%ADD75R,0.0150X0.0327*%
%ADD76R,0.0560X0.0438*%
%ADD77R,0.0438X0.0560*%
%ADD78R,0.0710X0.1143*%
%ADD79R,0.0986X0.0316*%
%ADD80R,0.0710X0.0395*%
%ADD81C,0.0150*%
%ADD82C,0.0050*%
G36*
X3543Y8461D02*
X3514D01*
Y8585D01*
X3508Y8581D01*
X3503Y8577D01*
X3500Y8575D01*
X3499Y8574D01*
X3498Y8573D01*
X3497Y8572D01*
X3495Y8570D01*
X3493Y8569D01*
X3489Y8564D01*
X3483Y8557D01*
X3478Y8552D01*
X3473Y8546D01*
X3469Y8541D01*
X3468Y8539D01*
X3467Y8538D01*
X3466Y8537D01*
X3465Y8537D01*
X3460Y8531D01*
X3455Y8525D01*
X3451Y8520D01*
X3447Y8515D01*
X3442Y8511D01*
X3439Y8507D01*
X3435Y8503D01*
X3432Y8500D01*
X3430Y8498D01*
X3427Y8495D01*
X3424Y8492D01*
X3422Y8490D01*
X3421Y8489D01*
X3415Y8484D01*
X3409Y8479D01*
X3404Y8476D01*
X3399Y8473D01*
X3395Y8471D01*
X3393Y8469D01*
X3391Y8469D01*
X3390Y8468D01*
X3385Y8466D01*
X3379Y8464D01*
X3374Y8463D01*
X3370Y8463D01*
X3366Y8462D01*
X3363Y8462D01*
X3360D01*
X3355Y8462D01*
X3349Y8463D01*
X3340Y8465D01*
X3331Y8469D01*
X3324Y8473D01*
X3318Y8476D01*
X3316Y8478D01*
X3314Y8480D01*
X3312Y8481D01*
X3311Y8483D01*
X3311Y8483D01*
X3310Y8483D01*
X3307Y8488D01*
X3303Y8492D01*
X3301Y8496D01*
X3298Y8501D01*
X3295Y8511D01*
X3293Y8520D01*
X3291Y8524D01*
X3291Y8528D01*
X3291Y8532D01*
X3290Y8535D01*
X3290Y8537D01*
Y8539D01*
Y8541D01*
Y8541D01*
X3290Y8547D01*
X3291Y8554D01*
X3293Y8565D01*
X3294Y8570D01*
X3296Y8575D01*
X3298Y8579D01*
X3299Y8583D01*
X3301Y8587D01*
X3303Y8590D01*
X3304Y8592D01*
X3306Y8595D01*
X3307Y8596D01*
X3308Y8597D01*
X3308Y8598D01*
X3309Y8598D01*
X3313Y8602D01*
X3316Y8605D01*
X3325Y8611D01*
X3334Y8615D01*
X3343Y8618D01*
X3351Y8621D01*
X3354Y8621D01*
X3357Y8622D01*
X3359Y8622D01*
X3361Y8623D01*
X3363D01*
X3366Y8591D01*
X3358Y8590D01*
X3351Y8589D01*
X3344Y8587D01*
X3339Y8584D01*
X3335Y8582D01*
X3332Y8579D01*
X3330Y8578D01*
X3329Y8577D01*
X3325Y8572D01*
X3321Y8566D01*
X3319Y8560D01*
X3317Y8554D01*
X3316Y8549D01*
X3316Y8546D01*
X3316Y8544D01*
Y8543D01*
Y8542D01*
Y8542D01*
X3316Y8534D01*
X3318Y8527D01*
X3319Y8521D01*
X3322Y8516D01*
X3324Y8512D01*
X3326Y8509D01*
X3328Y8508D01*
X3328Y8507D01*
X3333Y8503D01*
X3339Y8499D01*
X3344Y8497D01*
X3349Y8495D01*
X3353Y8494D01*
X3356Y8494D01*
X3359Y8494D01*
X3359D01*
X3366Y8494D01*
X3373Y8496D01*
X3379Y8498D01*
X3385Y8501D01*
X3390Y8504D01*
X3394Y8506D01*
X3395Y8507D01*
X3396Y8507D01*
X3397Y8508D01*
X3397D01*
X3401Y8511D01*
X3405Y8515D01*
X3409Y8519D01*
X3414Y8523D01*
X3422Y8532D01*
X3431Y8542D01*
X3438Y8550D01*
X3442Y8554D01*
X3445Y8557D01*
X3447Y8560D01*
X3449Y8562D01*
X3450Y8564D01*
X3450Y8564D01*
X3458Y8573D01*
X3466Y8582D01*
X3472Y8589D01*
X3478Y8594D01*
X3482Y8599D01*
X3486Y8602D01*
X3488Y8604D01*
X3488Y8605D01*
X3489D01*
X3495Y8610D01*
X3501Y8613D01*
X3506Y8617D01*
X3511Y8620D01*
X3516Y8622D01*
X3519Y8624D01*
X3521Y8625D01*
X3522Y8625D01*
X3522D01*
X3526Y8626D01*
X3530Y8627D01*
X3533Y8628D01*
X3536Y8628D01*
X3539Y8628D01*
X3543D01*
Y8461D01*
D02*
G37*
G36*
X3587Y1698D02*
X3595Y1696D01*
X3602Y1695D01*
X3608Y1692D01*
X3613Y1690D01*
X3616Y1688D01*
X3618Y1686D01*
X3619Y1686D01*
X3625Y1681D01*
X3629Y1675D01*
X3633Y1669D01*
X3636Y1664D01*
X3638Y1659D01*
X3639Y1655D01*
X3640Y1653D01*
Y1652D01*
X3641Y1652D01*
Y1651D01*
X3644Y1657D01*
X3648Y1663D01*
X3651Y1667D01*
X3654Y1671D01*
X3658Y1673D01*
X3660Y1676D01*
X3661Y1677D01*
X3662Y1677D01*
X3667Y1680D01*
X3673Y1682D01*
X3677Y1684D01*
X3682Y1685D01*
X3686Y1686D01*
X3689Y1686D01*
X3692D01*
X3698Y1686D01*
X3704Y1685D01*
X3709Y1683D01*
X3714Y1681D01*
X3718Y1680D01*
X3721Y1678D01*
X3723Y1677D01*
X3724Y1677D01*
X3729Y1673D01*
X3734Y1669D01*
X3739Y1664D01*
X3742Y1660D01*
X3745Y1656D01*
X3747Y1653D01*
X3748Y1651D01*
X3748Y1650D01*
Y1650D01*
X3751Y1643D01*
X3754Y1637D01*
X3755Y1630D01*
X3756Y1625D01*
X3757Y1620D01*
X3757Y1616D01*
Y1614D01*
Y1613D01*
Y1613D01*
Y1612D01*
Y1607D01*
X3757Y1602D01*
X3755Y1592D01*
X3752Y1583D01*
X3749Y1576D01*
X3745Y1570D01*
X3744Y1568D01*
X3743Y1566D01*
X3742Y1564D01*
X3741Y1563D01*
X3740Y1562D01*
X3740Y1562D01*
X3733Y1555D01*
X3726Y1550D01*
X3717Y1545D01*
X3710Y1542D01*
X3703Y1539D01*
X3700Y1539D01*
X3697Y1538D01*
X3695Y1537D01*
X3694Y1537D01*
X3692Y1537D01*
X3692D01*
X3687Y1568D01*
X3695Y1569D01*
X3702Y1572D01*
X3707Y1574D01*
X3712Y1577D01*
X3716Y1579D01*
X3719Y1581D01*
X3720Y1582D01*
X3721Y1583D01*
X3724Y1588D01*
X3727Y1593D01*
X3729Y1598D01*
X3731Y1603D01*
X3731Y1607D01*
X3732Y1610D01*
Y1612D01*
Y1613D01*
Y1613D01*
X3732Y1620D01*
X3730Y1625D01*
X3729Y1630D01*
X3726Y1635D01*
X3724Y1638D01*
X3722Y1641D01*
X3721Y1642D01*
X3721Y1643D01*
X3716Y1647D01*
X3711Y1649D01*
X3707Y1652D01*
X3702Y1653D01*
X3698Y1653D01*
X3695Y1654D01*
X3692D01*
X3685Y1653D01*
X3678Y1652D01*
X3673Y1649D01*
X3669Y1646D01*
X3665Y1643D01*
X3663Y1641D01*
X3661Y1639D01*
X3661Y1638D01*
X3657Y1632D01*
X3655Y1626D01*
X3653Y1620D01*
X3652Y1615D01*
X3651Y1610D01*
X3651Y1606D01*
Y1605D01*
Y1604D01*
Y1603D01*
Y1603D01*
Y1601D01*
X3651Y1600D01*
Y1598D01*
Y1598D01*
X3624Y1594D01*
X3625Y1599D01*
X3626Y1603D01*
X3626Y1607D01*
X3626Y1610D01*
X3627Y1613D01*
Y1615D01*
Y1616D01*
Y1616D01*
X3626Y1624D01*
X3625Y1630D01*
X3623Y1637D01*
X3620Y1642D01*
X3617Y1646D01*
X3615Y1649D01*
X3614Y1650D01*
X3613Y1651D01*
X3608Y1656D01*
X3602Y1659D01*
X3596Y1662D01*
X3590Y1663D01*
X3585Y1665D01*
X3582Y1665D01*
X3580Y1665D01*
X3578D01*
X3570Y1665D01*
X3563Y1663D01*
X3556Y1661D01*
X3551Y1658D01*
X3546Y1655D01*
X3543Y1653D01*
X3541Y1651D01*
X3540Y1650D01*
X3535Y1645D01*
X3532Y1638D01*
X3529Y1632D01*
X3527Y1626D01*
X3526Y1621D01*
X3526Y1617D01*
X3525Y1616D01*
Y1615D01*
Y1614D01*
Y1614D01*
X3526Y1607D01*
X3527Y1601D01*
X3529Y1595D01*
X3531Y1591D01*
X3534Y1587D01*
X3535Y1585D01*
X3537Y1583D01*
X3537Y1582D01*
X3542Y1578D01*
X3548Y1574D01*
X3554Y1571D01*
X3560Y1569D01*
X3566Y1567D01*
X3571Y1566D01*
X3572Y1565D01*
X3574D01*
X3575Y1565D01*
X3575D01*
X3571Y1534D01*
X3565Y1534D01*
X3560Y1536D01*
X3550Y1539D01*
X3541Y1543D01*
X3533Y1547D01*
X3530Y1549D01*
X3527Y1552D01*
X3525Y1554D01*
X3523Y1555D01*
X3521Y1557D01*
X3520Y1558D01*
X3520Y1558D01*
X3519Y1559D01*
X3516Y1563D01*
X3513Y1567D01*
X3510Y1572D01*
X3508Y1576D01*
X3504Y1585D01*
X3502Y1594D01*
X3501Y1598D01*
X3501Y1602D01*
X3500Y1605D01*
X3500Y1608D01*
X3500Y1610D01*
Y1612D01*
Y1613D01*
Y1614D01*
X3500Y1620D01*
X3501Y1627D01*
X3502Y1633D01*
X3503Y1638D01*
X3505Y1644D01*
X3507Y1649D01*
X3509Y1653D01*
X3511Y1658D01*
X3513Y1661D01*
X3515Y1665D01*
X3517Y1668D01*
X3519Y1670D01*
X3520Y1672D01*
X3521Y1673D01*
X3522Y1674D01*
X3522Y1674D01*
X3527Y1678D01*
X3532Y1682D01*
X3536Y1685D01*
X3541Y1688D01*
X3545Y1691D01*
X3550Y1693D01*
X3559Y1695D01*
X3563Y1696D01*
X3567Y1697D01*
X3570Y1698D01*
X3573Y1698D01*
X3575Y1698D01*
X3578D01*
X3587Y1698D01*
D02*
G37*
G36*
X3510Y1498D02*
X3514Y1490D01*
X3518Y1483D01*
X3522Y1476D01*
X3525Y1471D01*
X3527Y1468D01*
X3528Y1466D01*
X3529Y1465D01*
X3530Y1463D01*
X3531Y1463D01*
Y1462D01*
X3538Y1469D01*
X3545Y1475D01*
X3553Y1480D01*
X3559Y1484D01*
X3565Y1487D01*
X3568Y1488D01*
X3570Y1489D01*
X3572Y1490D01*
X3573Y1491D01*
X3573Y1491D01*
X3574D01*
X3583Y1494D01*
X3593Y1496D01*
X3603Y1498D01*
X3611Y1499D01*
X3615Y1500D01*
X3619Y1500D01*
X3622D01*
X3625Y1501D01*
X3630D01*
X3644Y1500D01*
X3656Y1498D01*
X3668Y1496D01*
X3673Y1494D01*
X3677Y1493D01*
X3682Y1492D01*
X3686Y1490D01*
X3689Y1489D01*
X3692Y1488D01*
X3694Y1487D01*
X3696Y1486D01*
X3697Y1486D01*
X3697D01*
X3708Y1479D01*
X3717Y1473D01*
X3725Y1466D01*
X3732Y1459D01*
X3737Y1453D01*
X3739Y1450D01*
X3740Y1448D01*
X3742Y1446D01*
X3743Y1444D01*
X3744Y1443D01*
Y1443D01*
X3747Y1438D01*
X3749Y1432D01*
X3753Y1422D01*
X3756Y1411D01*
X3759Y1401D01*
X3759Y1397D01*
X3760Y1393D01*
X3760Y1389D01*
Y1386D01*
X3760Y1383D01*
Y1382D01*
Y1380D01*
Y1380D01*
X3760Y1368D01*
X3758Y1356D01*
X3755Y1345D01*
X3754Y1340D01*
X3752Y1336D01*
X3751Y1332D01*
X3749Y1329D01*
X3748Y1326D01*
X3747Y1323D01*
X3746Y1321D01*
X3745Y1319D01*
X3745Y1318D01*
X3744Y1318D01*
X3738Y1308D01*
X3730Y1299D01*
X3722Y1292D01*
X3715Y1286D01*
X3708Y1281D01*
X3705Y1279D01*
X3702Y1278D01*
X3701Y1276D01*
X3699Y1276D01*
X3698Y1275D01*
X3697D01*
X3686Y1270D01*
X3674Y1266D01*
X3663Y1264D01*
X3652Y1262D01*
X3648Y1261D01*
X3643Y1261D01*
X3639Y1260D01*
X3636D01*
X3634Y1260D01*
X3630D01*
X3616Y1261D01*
X3603Y1262D01*
X3592Y1264D01*
X3587Y1266D01*
X3582Y1268D01*
X3578Y1269D01*
X3574Y1270D01*
X3570Y1271D01*
X3568Y1273D01*
X3565Y1273D01*
X3564Y1274D01*
X3563Y1275D01*
X3562D01*
X3552Y1281D01*
X3542Y1288D01*
X3534Y1295D01*
X3528Y1302D01*
X3523Y1308D01*
X3520Y1311D01*
X3519Y1313D01*
X3518Y1315D01*
X3517Y1316D01*
X3516Y1317D01*
X3516Y1317D01*
X3510Y1328D01*
X3507Y1339D01*
X3504Y1349D01*
X3502Y1359D01*
X3501Y1363D01*
X3500Y1367D01*
X3500Y1370D01*
Y1374D01*
X3500Y1376D01*
Y1378D01*
Y1379D01*
Y1379D01*
X3500Y1392D01*
X3502Y1403D01*
X3505Y1414D01*
X3506Y1418D01*
X3507Y1423D01*
X3509Y1427D01*
X3510Y1430D01*
X3512Y1433D01*
X3513Y1436D01*
X3514Y1438D01*
X3514Y1440D01*
X3515Y1441D01*
Y1441D01*
X3508Y1451D01*
X3502Y1461D01*
X3496Y1470D01*
X3492Y1478D01*
X3490Y1482D01*
X3489Y1485D01*
X3487Y1488D01*
X3487Y1491D01*
X3486Y1493D01*
X3485Y1494D01*
X3485Y1495D01*
Y1495D01*
X3507Y1506D01*
X3510Y1498D01*
D02*
G37*
G36*
X3431Y8897D02*
X3444Y8895D01*
X3455Y8893D01*
X3460Y8891D01*
X3465Y8890D01*
X3470Y8889D01*
X3473Y8887D01*
X3477Y8886D01*
X3480Y8885D01*
X3482Y8884D01*
X3483Y8883D01*
X3485Y8883D01*
X3485D01*
X3496Y8877D01*
X3505Y8870D01*
X3513Y8863D01*
X3519Y8856D01*
X3524Y8850D01*
X3527Y8847D01*
X3528Y8845D01*
X3529Y8843D01*
X3531Y8841D01*
X3531Y8840D01*
X3531Y8840D01*
X3537Y8829D01*
X3541Y8819D01*
X3544Y8808D01*
X3546Y8799D01*
X3546Y8794D01*
X3547Y8791D01*
X3547Y8787D01*
Y8784D01*
X3548Y8782D01*
Y8780D01*
Y8779D01*
Y8778D01*
X3547Y8766D01*
X3545Y8754D01*
X3543Y8744D01*
X3541Y8739D01*
X3540Y8734D01*
X3538Y8731D01*
X3537Y8727D01*
X3536Y8724D01*
X3534Y8721D01*
X3534Y8719D01*
X3533Y8718D01*
X3532Y8717D01*
Y8716D01*
X3539Y8706D01*
X3546Y8696D01*
X3551Y8687D01*
X3555Y8679D01*
X3557Y8675D01*
X3558Y8672D01*
X3560Y8669D01*
X3561Y8667D01*
X3561Y8665D01*
X3562Y8663D01*
X3563Y8663D01*
Y8662D01*
X3540Y8652D01*
X3537Y8660D01*
X3533Y8667D01*
X3529Y8675D01*
X3525Y8681D01*
X3522Y8687D01*
X3520Y8689D01*
X3519Y8691D01*
X3518Y8693D01*
X3517Y8694D01*
X3516Y8695D01*
Y8695D01*
X3509Y8688D01*
X3502Y8683D01*
X3495Y8678D01*
X3488Y8674D01*
X3482Y8671D01*
X3480Y8669D01*
X3478Y8668D01*
X3476Y8668D01*
X3475Y8667D01*
X3474Y8666D01*
X3473D01*
X3464Y8663D01*
X3454Y8661D01*
X3445Y8659D01*
X3436Y8658D01*
X3432Y8658D01*
X3428Y8657D01*
X3425D01*
X3423Y8657D01*
X3417D01*
X3404Y8658D01*
X3391Y8659D01*
X3380Y8661D01*
X3374Y8663D01*
X3370Y8664D01*
X3365Y8666D01*
X3361Y8667D01*
X3358Y8668D01*
X3356Y8670D01*
X3353Y8670D01*
X3351Y8671D01*
X3351Y8672D01*
X3350D01*
X3339Y8678D01*
X3330Y8685D01*
X3322Y8692D01*
X3316Y8699D01*
X3311Y8705D01*
X3308Y8708D01*
X3307Y8710D01*
X3305Y8712D01*
X3304Y8713D01*
X3304Y8714D01*
Y8714D01*
X3301Y8720D01*
X3298Y8725D01*
X3294Y8736D01*
X3291Y8747D01*
X3289Y8756D01*
X3288Y8761D01*
X3288Y8765D01*
X3287Y8769D01*
Y8772D01*
X3287Y8774D01*
Y8776D01*
Y8777D01*
Y8777D01*
X3288Y8790D01*
X3289Y8802D01*
X3292Y8812D01*
X3293Y8817D01*
X3295Y8821D01*
X3296Y8825D01*
X3298Y8829D01*
X3299Y8832D01*
X3300Y8835D01*
X3301Y8837D01*
X3302Y8838D01*
X3303Y8839D01*
X3303Y8840D01*
X3309Y8850D01*
X3317Y8858D01*
X3325Y8865D01*
X3332Y8872D01*
X3339Y8877D01*
X3342Y8878D01*
X3345Y8880D01*
X3347Y8881D01*
X3348Y8882D01*
X3349Y8883D01*
X3350D01*
X3361Y8888D01*
X3373Y8891D01*
X3384Y8894D01*
X3395Y8896D01*
X3400Y8896D01*
X3404Y8897D01*
X3408Y8897D01*
X3411D01*
X3414Y8898D01*
X3417D01*
X3431Y8897D01*
D02*
G37*
G36*
X11871Y2886D02*
X11968Y2756D01*
X11929D01*
X11865Y2843D01*
X11863Y2845D01*
X11861Y2848D01*
X11857Y2854D01*
X11855Y2857D01*
X11854Y2859D01*
X11853Y2861D01*
X11853Y2861D01*
X11849Y2855D01*
X11846Y2851D01*
X11844Y2848D01*
X11843Y2847D01*
X11843Y2846D01*
X11842Y2846D01*
X11778Y2756D01*
X11737D01*
X11832Y2888D01*
X11744Y3008D01*
X11781D01*
X11831Y2941D01*
X11836Y2935D01*
X11839Y2930D01*
X11843Y2925D01*
X11846Y2921D01*
X11848Y2918D01*
X11850Y2915D01*
X11851Y2913D01*
X11851Y2913D01*
X11854Y2917D01*
X11857Y2922D01*
X11860Y2927D01*
X11864Y2932D01*
X11866Y2936D01*
X11869Y2940D01*
X11871Y2943D01*
X11871Y2943D01*
Y2943D01*
X11917Y3008D01*
X11957D01*
X11871Y2886D01*
D02*
G37*
G36*
X3825Y5787D02*
X3838Y5785D01*
X3849Y5783D01*
X3854Y5781D01*
X3859Y5780D01*
X3863Y5779D01*
X3867Y5777D01*
X3871Y5776D01*
X3873Y5775D01*
X3876Y5774D01*
X3877Y5773D01*
X3878Y5772D01*
X3879D01*
X3889Y5766D01*
X3899Y5759D01*
X3907Y5752D01*
X3913Y5746D01*
X3918Y5739D01*
X3920Y5737D01*
X3922Y5734D01*
X3923Y5732D01*
X3924Y5731D01*
X3925Y5730D01*
X3925Y5730D01*
X3930Y5719D01*
X3934Y5708D01*
X3937Y5698D01*
X3939Y5688D01*
X3940Y5684D01*
X3940Y5680D01*
X3941Y5677D01*
Y5674D01*
X3941Y5671D01*
Y5670D01*
Y5668D01*
Y5668D01*
X3940Y5656D01*
X3939Y5644D01*
X3936Y5633D01*
X3935Y5629D01*
X3934Y5624D01*
X3932Y5620D01*
X3931Y5617D01*
X3929Y5614D01*
X3928Y5611D01*
X3927Y5609D01*
X3927Y5607D01*
X3926Y5607D01*
Y5606D01*
X3933Y5596D01*
X3939Y5586D01*
X3945Y5577D01*
X3949Y5569D01*
X3950Y5565D01*
X3952Y5562D01*
X3954Y5559D01*
X3954Y5557D01*
X3955Y5555D01*
X3956Y5553D01*
X3956Y5552D01*
Y5552D01*
X3934Y5542D01*
X3930Y5549D01*
X3927Y5557D01*
X3923Y5564D01*
X3919Y5571D01*
X3916Y5577D01*
X3914Y5579D01*
X3913Y5581D01*
X3912Y5583D01*
X3911Y5584D01*
X3910Y5585D01*
Y5585D01*
X3903Y5578D01*
X3896Y5572D01*
X3888Y5567D01*
X3882Y5564D01*
X3876Y5560D01*
X3873Y5559D01*
X3871Y5558D01*
X3869Y5557D01*
X3868Y5557D01*
X3868Y5556D01*
X3867D01*
X3858Y5553D01*
X3848Y5551D01*
X3838Y5549D01*
X3830Y5548D01*
X3826Y5547D01*
X3822Y5547D01*
X3819D01*
X3816Y5547D01*
X3811D01*
X3797Y5547D01*
X3785Y5549D01*
X3773Y5551D01*
X3768Y5553D01*
X3763Y5554D01*
X3759Y5555D01*
X3755Y5557D01*
X3752Y5558D01*
X3749Y5559D01*
X3747Y5560D01*
X3745Y5561D01*
X3744Y5562D01*
X3744D01*
X3733Y5568D01*
X3724Y5574D01*
X3716Y5582D01*
X3709Y5588D01*
X3704Y5595D01*
X3702Y5597D01*
X3700Y5600D01*
X3699Y5602D01*
X3698Y5603D01*
X3697Y5604D01*
Y5604D01*
X3694Y5610D01*
X3692Y5615D01*
X3688Y5626D01*
X3685Y5636D01*
X3682Y5646D01*
X3682Y5651D01*
X3681Y5655D01*
X3681Y5658D01*
Y5661D01*
X3681Y5664D01*
Y5666D01*
Y5667D01*
Y5667D01*
X3681Y5680D01*
X3683Y5691D01*
X3685Y5702D01*
X3687Y5707D01*
X3689Y5711D01*
X3690Y5715D01*
X3692Y5719D01*
X3693Y5722D01*
X3694Y5724D01*
X3695Y5727D01*
X3696Y5728D01*
X3696Y5729D01*
X3697Y5729D01*
X3703Y5739D01*
X3711Y5748D01*
X3719Y5755D01*
X3726Y5761D01*
X3733Y5766D01*
X3736Y5768D01*
X3738Y5770D01*
X3740Y5771D01*
X3742Y5772D01*
X3743Y5772D01*
X3743D01*
X3755Y5777D01*
X3767Y5781D01*
X3778Y5784D01*
X3789Y5785D01*
X3793Y5786D01*
X3798Y5787D01*
X3801Y5787D01*
X3805D01*
X3807Y5787D01*
X3811D01*
X3825Y5787D01*
D02*
G37*
G36*
X3775Y5485D02*
X3772Y5479D01*
X3770Y5474D01*
X3767Y5469D01*
X3765Y5464D01*
X3763Y5461D01*
X3762Y5459D01*
X3761Y5458D01*
Y5458D01*
X3757Y5451D01*
X3753Y5446D01*
X3750Y5441D01*
X3746Y5436D01*
X3743Y5433D01*
X3742Y5430D01*
X3740Y5429D01*
X3740Y5428D01*
X3937D01*
Y5397D01*
X3684D01*
Y5418D01*
X3690Y5421D01*
X3696Y5425D01*
X3702Y5430D01*
X3707Y5435D01*
X3711Y5439D01*
X3715Y5442D01*
X3717Y5444D01*
X3717Y5445D01*
X3718Y5445D01*
X3724Y5453D01*
X3730Y5460D01*
X3735Y5468D01*
X3739Y5475D01*
X3742Y5481D01*
X3743Y5484D01*
X3745Y5486D01*
X3746Y5487D01*
X3747Y5489D01*
X3747Y5490D01*
Y5490D01*
X3777D01*
X3775Y5485D01*
D02*
G37*
G36*
X6900Y5719D02*
X7063D01*
Y5693D01*
X6900Y5578D01*
X6871D01*
Y5687D01*
X6811D01*
Y5719D01*
X6871D01*
Y5753D01*
X6900D01*
Y5719D01*
D02*
G37*
G36*
X14505Y13696D02*
X14516Y13704D01*
X14527Y13712D01*
X14538Y13720D01*
X14548Y13727D01*
X14553Y13730D01*
X14557Y13732D01*
X14561Y13735D01*
X14565Y13737D01*
X14567Y13738D01*
X14569Y13739D01*
X14571Y13740D01*
X14571Y13740D01*
X14586Y13748D01*
X14600Y13754D01*
X14614Y13760D01*
X14621Y13762D01*
X14626Y13764D01*
X14632Y13766D01*
X14637Y13768D01*
X14641Y13769D01*
X14645Y13770D01*
X14648Y13771D01*
X14651Y13772D01*
X14652Y13772D01*
X14653D01*
X14668Y13776D01*
X14675Y13778D01*
X14682Y13779D01*
X14688Y13780D01*
X14694Y13781D01*
X14699Y13782D01*
X14704Y13782D01*
X14709Y13783D01*
X14713Y13783D01*
X14716Y13783D01*
X14719D01*
X14721Y13784D01*
X14724D01*
Y13752D01*
X14711Y13751D01*
X14698Y13749D01*
X14686Y13747D01*
X14681Y13746D01*
X14676Y13745D01*
X14671Y13744D01*
X14667Y13744D01*
X14664Y13743D01*
X14661Y13742D01*
X14658Y13741D01*
X14657Y13741D01*
X14656Y13740D01*
X14655D01*
X14638Y13735D01*
X14623Y13729D01*
X14615Y13726D01*
X14608Y13723D01*
X14601Y13720D01*
X14595Y13717D01*
X14589Y13715D01*
X14583Y13712D01*
X14579Y13710D01*
X14575Y13708D01*
X14572Y13706D01*
X14570Y13705D01*
X14568Y13704D01*
X14568Y13704D01*
X14560Y13699D01*
X14552Y13695D01*
X14545Y13691D01*
X14539Y13686D01*
X14533Y13682D01*
X14527Y13678D01*
X14522Y13674D01*
X14517Y13671D01*
X14514Y13668D01*
X14510Y13665D01*
X14507Y13662D01*
X14504Y13660D01*
X14502Y13658D01*
X14501Y13657D01*
X14500Y13656D01*
X14499Y13656D01*
X14475D01*
Y13819D01*
X14505D01*
Y13696D01*
D02*
G37*
G36*
X11756Y8428D02*
X11735D01*
X11732Y8434D01*
X11727Y8440D01*
X11723Y8446D01*
X11718Y8451D01*
X11714Y8455D01*
X11711Y8459D01*
X11708Y8461D01*
X11708Y8461D01*
X11708Y8462D01*
X11700Y8468D01*
X11693Y8474D01*
X11685Y8479D01*
X11678Y8483D01*
X11672Y8486D01*
X11669Y8488D01*
X11667Y8489D01*
X11665Y8490D01*
X11664Y8491D01*
X11663Y8491D01*
X11663D01*
Y8521D01*
X11668Y8519D01*
X11674Y8516D01*
X11679Y8514D01*
X11684Y8511D01*
X11688Y8509D01*
X11692Y8507D01*
X11694Y8506D01*
X11694Y8505D01*
X11695D01*
X11701Y8501D01*
X11707Y8497D01*
X11712Y8494D01*
X11716Y8490D01*
X11720Y8488D01*
X11723Y8486D01*
X11724Y8484D01*
X11724Y8484D01*
Y8681D01*
X11756D01*
Y8428D01*
D02*
G37*
G36*
X11510Y8685D02*
X11522Y8683D01*
X11527Y8682D01*
X11532Y8681D01*
X11536Y8680D01*
X11540Y8678D01*
X11544Y8677D01*
X11547Y8676D01*
X11550Y8675D01*
X11552Y8674D01*
X11554Y8673D01*
X11555Y8672D01*
X11555Y8672D01*
X11556D01*
X11564Y8666D01*
X11570Y8660D01*
X11576Y8654D01*
X11580Y8648D01*
X11583Y8643D01*
X11585Y8639D01*
X11586Y8637D01*
X11587Y8636D01*
X11587Y8635D01*
Y8635D01*
X11590Y8626D01*
X11592Y8616D01*
X11593Y8606D01*
X11595Y8597D01*
X11595Y8592D01*
X11595Y8588D01*
Y8584D01*
X11596Y8581D01*
Y8578D01*
Y8576D01*
Y8575D01*
Y8575D01*
Y8429D01*
X11562D01*
Y8575D01*
Y8583D01*
X11562Y8591D01*
X11561Y8598D01*
X11560Y8605D01*
X11559Y8611D01*
X11557Y8616D01*
X11556Y8620D01*
X11555Y8625D01*
X11553Y8628D01*
X11552Y8631D01*
X11550Y8633D01*
X11549Y8635D01*
X11548Y8637D01*
X11547Y8638D01*
X11547Y8638D01*
Y8639D01*
X11544Y8642D01*
X11540Y8644D01*
X11532Y8648D01*
X11523Y8651D01*
X11514Y8653D01*
X11507Y8655D01*
X11503Y8655D01*
X11500D01*
X11497Y8655D01*
X11494D01*
X11486Y8655D01*
X11479Y8654D01*
X11473Y8653D01*
X11468Y8651D01*
X11464Y8650D01*
X11461Y8648D01*
X11459Y8648D01*
X11458Y8647D01*
X11453Y8644D01*
X11448Y8640D01*
X11444Y8636D01*
X11442Y8632D01*
X11439Y8628D01*
X11438Y8626D01*
X11437Y8624D01*
X11437Y8623D01*
X11436Y8620D01*
X11435Y8617D01*
X11433Y8609D01*
X11433Y8601D01*
X11432Y8593D01*
X11431Y8586D01*
X11431Y8583D01*
Y8580D01*
Y8578D01*
Y8576D01*
Y8575D01*
Y8575D01*
Y8429D01*
X11398D01*
Y8575D01*
Y8582D01*
X11398Y8589D01*
X11398Y8595D01*
X11399Y8602D01*
X11400Y8607D01*
X11401Y8612D01*
X11401Y8617D01*
X11403Y8621D01*
X11403Y8625D01*
X11404Y8628D01*
X11405Y8632D01*
X11406Y8634D01*
X11406Y8636D01*
X11407Y8637D01*
X11407Y8638D01*
Y8638D01*
X11411Y8646D01*
X11416Y8653D01*
X11421Y8659D01*
X11427Y8664D01*
X11431Y8668D01*
X11436Y8671D01*
X11437Y8672D01*
X11438Y8673D01*
X11439Y8673D01*
X11439D01*
X11448Y8677D01*
X11458Y8680D01*
X11468Y8682D01*
X11477Y8684D01*
X11481Y8684D01*
X11485Y8685D01*
X11488Y8685D01*
X11491D01*
X11494Y8685D01*
X11497D01*
X11510Y8685D01*
D02*
G37*
G36*
X14612Y14094D02*
X14625Y14092D01*
X14636Y14090D01*
X14641Y14088D01*
X14646Y14087D01*
X14651Y14086D01*
X14655Y14084D01*
X14658Y14083D01*
X14661Y14082D01*
X14663Y14081D01*
X14664Y14080D01*
X14666Y14080D01*
X14666D01*
X14677Y14073D01*
X14686Y14066D01*
X14694Y14060D01*
X14701Y14053D01*
X14706Y14046D01*
X14708Y14044D01*
X14709Y14042D01*
X14711Y14040D01*
X14712Y14038D01*
X14712Y14037D01*
X14713Y14037D01*
X14718Y14026D01*
X14722Y14015D01*
X14725Y14005D01*
X14727Y13995D01*
X14727Y13991D01*
X14728Y13987D01*
X14728Y13984D01*
Y13981D01*
X14729Y13979D01*
Y13977D01*
Y13975D01*
Y13975D01*
X14728Y13963D01*
X14726Y13951D01*
X14724Y13941D01*
X14722Y13936D01*
X14721Y13931D01*
X14719Y13927D01*
X14718Y13924D01*
X14717Y13921D01*
X14716Y13918D01*
X14715Y13916D01*
X14714Y13914D01*
X14713Y13914D01*
Y13913D01*
X14721Y13903D01*
X14727Y13893D01*
X14732Y13884D01*
X14736Y13876D01*
X14738Y13872D01*
X14739Y13869D01*
X14741Y13866D01*
X14742Y13864D01*
X14742Y13862D01*
X14743Y13860D01*
X14744Y13859D01*
Y13859D01*
X14721Y13849D01*
X14718Y13856D01*
X14714Y13864D01*
X14710Y13871D01*
X14706Y13878D01*
X14703Y13884D01*
X14701Y13886D01*
X14700Y13888D01*
X14699Y13890D01*
X14698Y13891D01*
X14698Y13892D01*
Y13892D01*
X14690Y13885D01*
X14683Y13879D01*
X14676Y13874D01*
X14669Y13871D01*
X14663Y13868D01*
X14661Y13866D01*
X14659Y13865D01*
X14657Y13864D01*
X14656Y13864D01*
X14655Y13863D01*
X14655D01*
X14645Y13860D01*
X14635Y13858D01*
X14626Y13856D01*
X14617Y13855D01*
X14613Y13854D01*
X14610Y13854D01*
X14607D01*
X14604Y13854D01*
X14598D01*
X14585Y13854D01*
X14572Y13856D01*
X14561Y13858D01*
X14555Y13860D01*
X14551Y13861D01*
X14546Y13863D01*
X14542Y13864D01*
X14539Y13865D01*
X14537Y13866D01*
X14534Y13867D01*
X14532Y13868D01*
X14532Y13869D01*
X14531D01*
X14521Y13875D01*
X14511Y13881D01*
X14503Y13889D01*
X14497Y13896D01*
X14492Y13902D01*
X14489Y13904D01*
X14488Y13907D01*
X14486Y13909D01*
X14486Y13910D01*
X14485Y13911D01*
Y13911D01*
X14482Y13917D01*
X14479Y13922D01*
X14475Y13933D01*
X14472Y13944D01*
X14470Y13953D01*
X14469Y13958D01*
X14469Y13962D01*
X14468Y13965D01*
Y13969D01*
X14468Y13971D01*
Y13973D01*
Y13974D01*
Y13974D01*
X14469Y13987D01*
X14471Y13998D01*
X14473Y14009D01*
X14474Y14014D01*
X14476Y14018D01*
X14477Y14022D01*
X14479Y14026D01*
X14480Y14029D01*
X14481Y14032D01*
X14482Y14034D01*
X14483Y14035D01*
X14484Y14036D01*
X14484Y14037D01*
X14491Y14046D01*
X14498Y14055D01*
X14506Y14062D01*
X14514Y14068D01*
X14520Y14073D01*
X14523Y14075D01*
X14526Y14077D01*
X14528Y14078D01*
X14529Y14079D01*
X14530Y14080D01*
X14531D01*
X14542Y14085D01*
X14554Y14088D01*
X14565Y14091D01*
X14576Y14093D01*
X14581Y14093D01*
X14585Y14094D01*
X14589Y14094D01*
X14592D01*
X14595Y14094D01*
X14598D01*
X14612Y14094D01*
D02*
G37*
G36*
X6818Y5553D02*
X6821Y5545D01*
X6825Y5538D01*
X6829Y5532D01*
X6833Y5526D01*
X6834Y5523D01*
X6835Y5521D01*
X6836Y5520D01*
X6837Y5518D01*
X6838Y5518D01*
Y5517D01*
X6845Y5524D01*
X6852Y5530D01*
X6860Y5535D01*
X6866Y5539D01*
X6872Y5542D01*
X6875Y5543D01*
X6877Y5544D01*
X6879Y5545D01*
X6880Y5546D01*
X6881Y5546D01*
X6881D01*
X6891Y5549D01*
X6900Y5551D01*
X6910Y5553D01*
X6918Y5555D01*
X6922Y5555D01*
X6926Y5555D01*
X6929D01*
X6932Y5556D01*
X6937D01*
X6951Y5555D01*
X6963Y5553D01*
X6975Y5551D01*
X6980Y5550D01*
X6985Y5548D01*
X6989Y5547D01*
X6993Y5545D01*
X6996Y5544D01*
X6999Y5543D01*
X7001Y5542D01*
X7003Y5542D01*
X7004Y5541D01*
X7004D01*
X7015Y5535D01*
X7024Y5528D01*
X7032Y5521D01*
X7039Y5514D01*
X7044Y5508D01*
X7046Y5505D01*
X7048Y5503D01*
X7049Y5501D01*
X7050Y5499D01*
X7051Y5499D01*
Y5498D01*
X7054Y5493D01*
X7056Y5487D01*
X7060Y5477D01*
X7063Y5466D01*
X7066Y5456D01*
X7066Y5452D01*
X7067Y5448D01*
X7067Y5444D01*
Y5441D01*
X7068Y5439D01*
Y5437D01*
Y5436D01*
Y5435D01*
X7067Y5423D01*
X7065Y5411D01*
X7063Y5401D01*
X7061Y5396D01*
X7059Y5391D01*
X7058Y5387D01*
X7056Y5384D01*
X7055Y5381D01*
X7054Y5378D01*
X7053Y5376D01*
X7052Y5374D01*
X7052Y5373D01*
X7051Y5373D01*
X7045Y5363D01*
X7037Y5355D01*
X7030Y5347D01*
X7022Y5341D01*
X7015Y5336D01*
X7012Y5334D01*
X7010Y5333D01*
X7008Y5331D01*
X7006Y5331D01*
X7005Y5330D01*
X7005D01*
X6993Y5325D01*
X6981Y5321D01*
X6970Y5319D01*
X6959Y5317D01*
X6955Y5316D01*
X6950Y5316D01*
X6947Y5315D01*
X6943D01*
X6941Y5315D01*
X6937D01*
X6923Y5316D01*
X6910Y5317D01*
X6899Y5320D01*
X6894Y5321D01*
X6889Y5323D01*
X6885Y5324D01*
X6881Y5325D01*
X6877Y5326D01*
X6875Y5328D01*
X6872Y5328D01*
X6871Y5329D01*
X6870Y5330D01*
X6869D01*
X6859Y5336D01*
X6849Y5343D01*
X6841Y5350D01*
X6835Y5357D01*
X6830Y5363D01*
X6828Y5366D01*
X6826Y5368D01*
X6825Y5370D01*
X6824Y5371D01*
X6823Y5372D01*
X6823Y5373D01*
X6818Y5383D01*
X6814Y5394D01*
X6811Y5404D01*
X6809Y5414D01*
X6808Y5418D01*
X6808Y5422D01*
X6807Y5426D01*
Y5429D01*
X6807Y5431D01*
Y5433D01*
Y5434D01*
Y5434D01*
X6808Y5447D01*
X6809Y5458D01*
X6812Y5469D01*
X6813Y5474D01*
X6814Y5478D01*
X6816Y5482D01*
X6817Y5485D01*
X6819Y5489D01*
X6820Y5491D01*
X6821Y5494D01*
X6821Y5495D01*
X6822Y5496D01*
Y5496D01*
X6815Y5506D01*
X6809Y5516D01*
X6803Y5525D01*
X6799Y5533D01*
X6798Y5537D01*
X6796Y5540D01*
X6795Y5543D01*
X6794Y5546D01*
X6793Y5548D01*
X6792Y5549D01*
X6792Y5550D01*
Y5550D01*
X6814Y5561D01*
X6818Y5553D01*
D02*
G37*
G36*
X11069Y14606D02*
X11082Y14604D01*
X11093Y14602D01*
X11098Y14600D01*
X11103Y14599D01*
X11107Y14597D01*
X11111Y14596D01*
X11115Y14595D01*
X11117Y14594D01*
X11120Y14593D01*
X11121Y14592D01*
X11122Y14591D01*
X11123D01*
X11133Y14585D01*
X11143Y14578D01*
X11151Y14571D01*
X11157Y14564D01*
X11162Y14558D01*
X11165Y14556D01*
X11166Y14553D01*
X11167Y14551D01*
X11168Y14550D01*
X11169Y14549D01*
X11169Y14549D01*
X11175Y14538D01*
X11178Y14527D01*
X11181Y14517D01*
X11183Y14507D01*
X11184Y14503D01*
X11185Y14499D01*
X11185Y14496D01*
Y14493D01*
X11185Y14490D01*
Y14488D01*
Y14487D01*
Y14487D01*
X11185Y14475D01*
X11183Y14463D01*
X11180Y14452D01*
X11179Y14448D01*
X11178Y14443D01*
X11176Y14439D01*
X11175Y14436D01*
X11173Y14433D01*
X11172Y14430D01*
X11171Y14428D01*
X11171Y14426D01*
X11170Y14425D01*
Y14425D01*
X11177Y14415D01*
X11183Y14405D01*
X11189Y14396D01*
X11193Y14388D01*
X11195Y14384D01*
X11196Y14381D01*
X11198Y14378D01*
X11198Y14376D01*
X11199Y14374D01*
X11200Y14372D01*
X11200Y14371D01*
Y14371D01*
X11178Y14361D01*
X11175Y14368D01*
X11171Y14376D01*
X11167Y14383D01*
X11163Y14390D01*
X11160Y14395D01*
X11158Y14398D01*
X11157Y14400D01*
X11156Y14402D01*
X11155Y14403D01*
X11154Y14404D01*
Y14404D01*
X11147Y14397D01*
X11140Y14391D01*
X11132Y14386D01*
X11126Y14382D01*
X11120Y14379D01*
X11117Y14378D01*
X11115Y14377D01*
X11114Y14376D01*
X11112Y14376D01*
X11112Y14375D01*
X11111D01*
X11102Y14372D01*
X11092Y14370D01*
X11082Y14368D01*
X11074Y14367D01*
X11070Y14366D01*
X11066Y14366D01*
X11063D01*
X11061Y14366D01*
X11055D01*
X11041Y14366D01*
X11029Y14368D01*
X11018Y14370D01*
X11012Y14372D01*
X11008Y14373D01*
X11003Y14374D01*
X10999Y14376D01*
X10996Y14377D01*
X10993Y14378D01*
X10991Y14379D01*
X10989Y14380D01*
X10988Y14381D01*
X10988D01*
X10977Y14387D01*
X10968Y14393D01*
X10960Y14400D01*
X10953Y14407D01*
X10948Y14414D01*
X10946Y14416D01*
X10945Y14419D01*
X10943Y14420D01*
X10942Y14422D01*
X10941Y14423D01*
Y14423D01*
X10938Y14429D01*
X10936Y14434D01*
X10932Y14445D01*
X10929Y14455D01*
X10927Y14465D01*
X10926Y14470D01*
X10925Y14473D01*
X10925Y14477D01*
Y14480D01*
X10925Y14483D01*
Y14485D01*
Y14486D01*
Y14486D01*
X10925Y14498D01*
X10927Y14510D01*
X10930Y14521D01*
X10931Y14526D01*
X10933Y14530D01*
X10934Y14534D01*
X10936Y14538D01*
X10937Y14541D01*
X10938Y14543D01*
X10939Y14546D01*
X10940Y14547D01*
X10940Y14548D01*
X10941Y14548D01*
X10947Y14558D01*
X10955Y14567D01*
X10963Y14574D01*
X10970Y14580D01*
X10977Y14585D01*
X10980Y14587D01*
X10983Y14589D01*
X10984Y14590D01*
X10986Y14591D01*
X10987Y14591D01*
X10988D01*
X10999Y14596D01*
X11011Y14600D01*
X11022Y14602D01*
X11033Y14604D01*
X11037Y14605D01*
X11042Y14606D01*
X11046Y14606D01*
X11049D01*
X11051Y14606D01*
X11055D01*
X11069Y14606D01*
D02*
G37*
G36*
X11075Y14334D02*
X11086Y14333D01*
X11096Y14332D01*
X11105Y14331D01*
X11114Y14329D01*
X11122Y14327D01*
X11128Y14324D01*
X11135Y14322D01*
X11140Y14320D01*
X11145Y14318D01*
X11148Y14316D01*
X11152Y14314D01*
X11154Y14313D01*
X11155Y14311D01*
X11157Y14311D01*
X11157Y14310D01*
X11162Y14306D01*
X11166Y14301D01*
X11170Y14295D01*
X11173Y14290D01*
X11176Y14285D01*
X11178Y14280D01*
X11180Y14274D01*
X11182Y14269D01*
X11183Y14265D01*
X11184Y14260D01*
X11185Y14256D01*
X11185Y14253D01*
Y14251D01*
X11185Y14248D01*
Y14247D01*
Y14247D01*
X11185Y14239D01*
X11184Y14231D01*
X11182Y14224D01*
X11180Y14218D01*
X11178Y14213D01*
X11176Y14210D01*
X11175Y14207D01*
X11175Y14207D01*
X11170Y14200D01*
X11165Y14195D01*
X11160Y14190D01*
X11155Y14185D01*
X11150Y14182D01*
X11147Y14180D01*
X11145Y14179D01*
X11144Y14179D01*
X11144Y14178D01*
X11143D01*
X11136Y14175D01*
X11128Y14172D01*
X11120Y14170D01*
X11114Y14169D01*
X11108Y14168D01*
X11105D01*
X11103Y14168D01*
X11099D01*
X11093Y14168D01*
X11086Y14169D01*
X11080Y14170D01*
X11075Y14171D01*
X11070Y14173D01*
X11065Y14175D01*
X11061Y14177D01*
X11056Y14179D01*
X11053Y14181D01*
X11050Y14183D01*
X11047Y14185D01*
X11045Y14186D01*
X11043Y14188D01*
X11042Y14189D01*
X11041Y14189D01*
X11041Y14190D01*
X11036Y14194D01*
X11033Y14198D01*
X11030Y14203D01*
X11027Y14207D01*
X11025Y14212D01*
X11023Y14216D01*
X11020Y14224D01*
X11019Y14232D01*
X11018Y14235D01*
X11018Y14237D01*
X11018Y14240D01*
Y14241D01*
Y14242D01*
Y14243D01*
X11018Y14249D01*
X11019Y14255D01*
X11020Y14261D01*
X11022Y14266D01*
X11023Y14270D01*
X11025Y14274D01*
X11026Y14276D01*
X11026Y14276D01*
X11029Y14282D01*
X11033Y14288D01*
X11037Y14292D01*
X11042Y14296D01*
X11046Y14299D01*
X11049Y14302D01*
X11051Y14303D01*
X11051Y14304D01*
X11044D01*
X11038Y14303D01*
X11032Y14303D01*
X11026Y14303D01*
X11021Y14302D01*
X11016Y14301D01*
X11012Y14300D01*
X11008Y14299D01*
X11004Y14299D01*
X11001Y14298D01*
X10999Y14297D01*
X10997Y14296D01*
X10995Y14296D01*
X10994Y14296D01*
X10993Y14295D01*
X10993D01*
X10986Y14292D01*
X10979Y14288D01*
X10974Y14284D01*
X10970Y14280D01*
X10966Y14277D01*
X10963Y14275D01*
X10962Y14273D01*
X10961Y14272D01*
X10959Y14268D01*
X10956Y14263D01*
X10955Y14259D01*
X10954Y14255D01*
X10953Y14251D01*
X10953Y14248D01*
Y14246D01*
Y14246D01*
X10953Y14239D01*
X10955Y14233D01*
X10957Y14228D01*
X10960Y14223D01*
X10962Y14220D01*
X10964Y14217D01*
X10966Y14215D01*
X10966Y14215D01*
X10970Y14212D01*
X10974Y14210D01*
X10983Y14206D01*
X10986Y14205D01*
X10989Y14203D01*
X10992Y14203D01*
X10993D01*
X10990Y14172D01*
X10980Y14174D01*
X10971Y14177D01*
X10963Y14181D01*
X10956Y14185D01*
X10951Y14189D01*
X10948Y14192D01*
X10945Y14194D01*
X10945Y14195D01*
Y14195D01*
X10941Y14199D01*
X10939Y14203D01*
X10935Y14211D01*
X10932Y14219D01*
X10930Y14227D01*
X10928Y14233D01*
X10928Y14237D01*
Y14239D01*
X10928Y14241D01*
Y14243D01*
Y14243D01*
Y14244D01*
X10928Y14251D01*
X10929Y14258D01*
X10930Y14265D01*
X10932Y14271D01*
X10935Y14276D01*
X10937Y14281D01*
X10940Y14286D01*
X10942Y14291D01*
X10945Y14294D01*
X10948Y14298D01*
X10950Y14301D01*
X10952Y14303D01*
X10954Y14305D01*
X10956Y14306D01*
X10956Y14307D01*
X10957Y14308D01*
X10963Y14312D01*
X10971Y14316D01*
X10979Y14320D01*
X10988Y14323D01*
X10996Y14326D01*
X11005Y14328D01*
X11014Y14330D01*
X11023Y14331D01*
X11031Y14332D01*
X11038Y14333D01*
X11045Y14334D01*
X11051Y14334D01*
X11056Y14334D01*
X11063D01*
X11075Y14334D01*
D02*
G37*
G36*
X815Y11600D02*
X818D01*
X825Y11600D01*
X833Y11599D01*
X841Y11598D01*
X849Y11596D01*
X856Y11593D01*
X857Y11593D01*
X859Y11592D01*
X862Y11590D01*
X866Y11587D01*
X871Y11584D01*
X875Y11580D01*
X879Y11574D01*
X883Y11569D01*
X883Y11568D01*
X884Y11565D01*
X885Y11562D01*
X887Y11557D01*
X889Y11552D01*
X890Y11545D01*
X891Y11537D01*
X892Y11529D01*
Y11529D01*
Y11528D01*
Y11526D01*
X891Y11524D01*
X891Y11521D01*
X890Y11518D01*
X889Y11511D01*
X887Y11502D01*
X884Y11494D01*
X882Y11490D01*
X879Y11486D01*
X876Y11482D01*
X873Y11479D01*
X872D01*
X872Y11478D01*
X871Y11477D01*
X869Y11476D01*
X867Y11474D01*
X865Y11473D01*
X862Y11471D01*
X859Y11470D01*
X855Y11468D01*
X851Y11467D01*
X846Y11465D01*
X841Y11464D01*
X835Y11463D01*
X829Y11462D01*
X823Y11462D01*
X816D01*
X812Y11492D01*
X814D01*
X816Y11492D01*
X819D01*
X821Y11493D01*
X828Y11494D01*
X834Y11495D01*
X841Y11497D01*
X847Y11499D01*
X849Y11501D01*
X852Y11502D01*
X852Y11503D01*
X853Y11504D01*
X855Y11506D01*
X857Y11509D01*
X859Y11513D01*
X861Y11518D01*
X862Y11523D01*
X862Y11529D01*
Y11530D01*
Y11532D01*
X862Y11534D01*
X861Y11537D01*
X861Y11540D01*
X860Y11544D01*
X858Y11547D01*
X856Y11551D01*
X856Y11551D01*
X855Y11552D01*
X854Y11554D01*
X852Y11556D01*
X850Y11558D01*
X847Y11560D01*
X844Y11562D01*
X841Y11564D01*
X841D01*
X839Y11564D01*
X837Y11565D01*
X833Y11565D01*
X829Y11566D01*
X823Y11567D01*
X817Y11567D01*
X635D01*
Y11601D01*
X813D01*
X815Y11600D01*
D02*
G37*
G36*
X887Y11638D02*
X883D01*
X880Y11639D01*
X877Y11639D01*
X874Y11640D01*
X870Y11641D01*
X866Y11642D01*
X866D01*
X866Y11642D01*
X863Y11643D01*
X860Y11645D01*
X856Y11647D01*
X851Y11650D01*
X845Y11653D01*
X839Y11657D01*
X833Y11662D01*
X832D01*
X832Y11663D01*
X830Y11665D01*
X826Y11668D01*
X822Y11673D01*
X816Y11678D01*
X810Y11685D01*
X803Y11694D01*
X794Y11703D01*
X794Y11703D01*
X793Y11705D01*
X791Y11707D01*
X789Y11709D01*
X786Y11713D01*
X783Y11717D01*
X775Y11725D01*
X766Y11734D01*
X758Y11744D01*
X753Y11748D01*
X749Y11752D01*
X745Y11756D01*
X741Y11759D01*
X741D01*
X740Y11759D01*
X739Y11760D01*
X738Y11761D01*
X734Y11763D01*
X729Y11766D01*
X723Y11769D01*
X717Y11771D01*
X710Y11772D01*
X703Y11773D01*
X703D01*
X700Y11773D01*
X697Y11772D01*
X693Y11772D01*
X688Y11770D01*
X683Y11767D01*
X677Y11764D01*
X672Y11760D01*
X672Y11759D01*
X670Y11757D01*
X669Y11754D01*
X666Y11751D01*
X664Y11746D01*
X662Y11740D01*
X660Y11733D01*
X660Y11725D01*
Y11725D01*
Y11724D01*
Y11723D01*
X660Y11721D01*
X660Y11718D01*
X661Y11713D01*
X663Y11707D01*
X665Y11701D01*
X669Y11695D01*
X674Y11689D01*
X674Y11689D01*
X676Y11688D01*
X679Y11685D01*
X683Y11683D01*
X688Y11680D01*
X695Y11678D01*
X702Y11677D01*
X710Y11676D01*
X707Y11644D01*
X705D01*
X703Y11645D01*
X701Y11645D01*
X698Y11646D01*
X695Y11646D01*
X687Y11648D01*
X678Y11651D01*
X669Y11656D01*
X660Y11661D01*
X657Y11665D01*
X653Y11668D01*
X652Y11669D01*
X652Y11670D01*
X651Y11671D01*
X650Y11672D01*
X649Y11675D01*
X647Y11677D01*
X645Y11680D01*
X643Y11684D01*
X642Y11688D01*
X640Y11692D01*
X638Y11697D01*
X637Y11702D01*
X635Y11713D01*
X634Y11719D01*
X634Y11726D01*
Y11726D01*
Y11728D01*
Y11729D01*
X634Y11732D01*
X635Y11735D01*
X635Y11739D01*
X636Y11743D01*
X637Y11747D01*
X639Y11756D01*
X642Y11766D01*
X645Y11771D01*
X647Y11775D01*
X651Y11779D01*
X654Y11784D01*
X655Y11784D01*
X655Y11784D01*
X656Y11786D01*
X658Y11787D01*
X660Y11789D01*
X662Y11790D01*
X668Y11794D01*
X675Y11798D01*
X684Y11802D01*
X693Y11804D01*
X699Y11805D01*
X704Y11805D01*
X707D01*
X710Y11805D01*
X714Y11804D01*
X718Y11804D01*
X723Y11802D01*
X729Y11801D01*
X734Y11799D01*
X735Y11798D01*
X737Y11797D01*
X740Y11796D01*
X743Y11794D01*
X748Y11791D01*
X753Y11787D01*
X759Y11783D01*
X765Y11778D01*
X766Y11777D01*
X768Y11775D01*
X771Y11772D01*
X774Y11769D01*
X776Y11767D01*
X780Y11764D01*
X783Y11760D01*
X786Y11756D01*
X791Y11752D01*
X795Y11747D01*
X799Y11742D01*
X804Y11736D01*
X809Y11730D01*
X810Y11730D01*
X811Y11729D01*
X812Y11728D01*
X813Y11726D01*
X817Y11721D01*
X822Y11715D01*
X828Y11709D01*
X833Y11703D01*
X837Y11698D01*
X839Y11696D01*
X841Y11695D01*
X842Y11694D01*
X843Y11693D01*
X844Y11692D01*
X847Y11690D01*
X852Y11686D01*
X858Y11681D01*
Y11805D01*
X887D01*
Y11638D01*
D02*
G37*
G36*
X7058Y11161D02*
X7057D01*
X7056Y11160D01*
X7055D01*
X7053Y11159D01*
X7049Y11158D01*
X7043Y11156D01*
X7037Y11154D01*
X7030Y11151D01*
X7025Y11147D01*
X7020Y11143D01*
X7019Y11142D01*
X7018Y11141D01*
X7016Y11138D01*
X7014Y11134D01*
X7012Y11130D01*
X7010Y11124D01*
X7009Y11118D01*
X7008Y11112D01*
Y11111D01*
Y11111D01*
Y11109D01*
X7009Y11108D01*
X7009Y11104D01*
X7010Y11099D01*
X7012Y11093D01*
X7014Y11087D01*
X7018Y11081D01*
X7023Y11075D01*
X7024Y11074D01*
X7026Y11073D01*
X7029Y11070D01*
X7033Y11067D01*
X7039Y11064D01*
X7045Y11062D01*
X7053Y11061D01*
X7061Y11060D01*
X7063D01*
X7064Y11060D01*
X7068Y11061D01*
X7073Y11062D01*
X7078Y11063D01*
X7085Y11066D01*
X7090Y11069D01*
X7096Y11074D01*
X7096Y11075D01*
X7098Y11076D01*
X7100Y11079D01*
X7103Y11084D01*
X7105Y11089D01*
X7107Y11095D01*
X7109Y11101D01*
X7109Y11109D01*
Y11109D01*
Y11111D01*
Y11113D01*
X7109Y11115D01*
X7109Y11118D01*
X7108Y11122D01*
X7108Y11126D01*
X7106Y11131D01*
X7134Y11127D01*
Y11127D01*
Y11126D01*
X7133Y11124D01*
Y11122D01*
Y11122D01*
Y11122D01*
Y11121D01*
Y11119D01*
X7134Y11116D01*
X7134Y11111D01*
X7136Y11105D01*
X7138Y11099D01*
X7140Y11093D01*
X7143Y11087D01*
X7144Y11086D01*
X7145Y11084D01*
X7148Y11082D01*
X7151Y11079D01*
X7156Y11076D01*
X7161Y11074D01*
X7167Y11072D01*
X7175Y11071D01*
X7178D01*
X7181Y11072D01*
X7185Y11073D01*
X7189Y11074D01*
X7194Y11076D01*
X7199Y11079D01*
X7203Y11083D01*
X7204Y11083D01*
X7205Y11084D01*
X7207Y11087D01*
X7209Y11091D01*
X7211Y11095D01*
X7213Y11100D01*
X7214Y11106D01*
X7215Y11112D01*
Y11113D01*
Y11113D01*
Y11115D01*
X7214Y11119D01*
X7213Y11122D01*
X7212Y11127D01*
X7210Y11132D01*
X7207Y11137D01*
X7203Y11142D01*
X7203Y11143D01*
X7201Y11144D01*
X7199Y11146D01*
X7195Y11149D01*
X7190Y11151D01*
X7184Y11154D01*
X7177Y11156D01*
X7169Y11157D01*
X7175Y11189D01*
X7175D01*
X7176Y11188D01*
X7178Y11188D01*
X7180Y11187D01*
X7182Y11187D01*
X7186Y11186D01*
X7192Y11183D01*
X7200Y11180D01*
X7208Y11175D01*
X7216Y11170D01*
X7223Y11163D01*
X7223Y11163D01*
X7224Y11162D01*
X7224Y11161D01*
X7225Y11159D01*
X7227Y11157D01*
X7228Y11155D01*
X7232Y11149D01*
X7235Y11142D01*
X7237Y11133D01*
X7239Y11124D01*
X7240Y11118D01*
Y11113D01*
Y11113D01*
Y11112D01*
Y11111D01*
Y11109D01*
X7240Y11106D01*
X7239Y11101D01*
X7238Y11095D01*
X7236Y11088D01*
X7234Y11082D01*
X7231Y11075D01*
Y11075D01*
X7230Y11074D01*
X7229Y11072D01*
X7227Y11069D01*
X7225Y11065D01*
X7221Y11061D01*
X7217Y11056D01*
X7212Y11052D01*
X7207Y11048D01*
X7206Y11048D01*
X7204Y11047D01*
X7201Y11045D01*
X7197Y11044D01*
X7192Y11042D01*
X7187Y11041D01*
X7181Y11040D01*
X7174Y11039D01*
X7172D01*
X7169Y11040D01*
X7165Y11040D01*
X7160Y11041D01*
X7155Y11043D01*
X7150Y11045D01*
X7145Y11048D01*
X7144Y11048D01*
X7143Y11050D01*
X7140Y11052D01*
X7137Y11055D01*
X7134Y11058D01*
X7130Y11063D01*
X7126Y11068D01*
X7123Y11074D01*
Y11074D01*
X7123Y11073D01*
Y11072D01*
X7122Y11070D01*
X7121Y11066D01*
X7119Y11061D01*
X7116Y11056D01*
X7112Y11050D01*
X7108Y11045D01*
X7102Y11040D01*
X7101Y11039D01*
X7099Y11038D01*
X7095Y11036D01*
X7091Y11033D01*
X7085Y11031D01*
X7078Y11029D01*
X7070Y11027D01*
X7061Y11027D01*
X7058D01*
X7056Y11027D01*
X7053Y11028D01*
X7050Y11028D01*
X7046Y11029D01*
X7042Y11030D01*
X7033Y11033D01*
X7028Y11035D01*
X7023Y11037D01*
X7019Y11040D01*
X7014Y11043D01*
X7010Y11047D01*
X7005Y11051D01*
X7005Y11051D01*
X7004Y11052D01*
X7003Y11053D01*
X7002Y11055D01*
X7000Y11058D01*
X6998Y11061D01*
X6996Y11064D01*
X6994Y11068D01*
X6992Y11072D01*
X6990Y11076D01*
X6988Y11081D01*
X6986Y11087D01*
X6984Y11093D01*
X6984Y11099D01*
X6983Y11105D01*
X6982Y11112D01*
Y11112D01*
Y11113D01*
Y11115D01*
X6983Y11117D01*
X6983Y11120D01*
X6984Y11123D01*
X6984Y11127D01*
X6985Y11131D01*
X6987Y11140D01*
X6991Y11149D01*
X6993Y11154D01*
X6995Y11158D01*
X6999Y11162D01*
X7002Y11167D01*
X7002Y11167D01*
X7003Y11167D01*
X7004Y11169D01*
X7005Y11170D01*
X7008Y11172D01*
X7010Y11174D01*
X7013Y11176D01*
X7016Y11178D01*
X7023Y11182D01*
X7032Y11186D01*
X7042Y11190D01*
X7048Y11191D01*
X7053Y11192D01*
X7058Y11161D01*
D02*
G37*
G36*
X7062Y11343D02*
X7060D01*
X7058Y11343D01*
X7055D01*
X7053Y11342D01*
X7047Y11341D01*
X7040Y11340D01*
X7033Y11338D01*
X7027Y11335D01*
X7025Y11334D01*
X7022Y11332D01*
X7022Y11332D01*
X7021Y11330D01*
X7019Y11328D01*
X7017Y11325D01*
X7015Y11321D01*
X7013Y11317D01*
X7012Y11311D01*
X7012Y11305D01*
Y11305D01*
Y11303D01*
X7012Y11301D01*
X7013Y11298D01*
X7013Y11295D01*
X7014Y11291D01*
X7016Y11287D01*
X7018Y11284D01*
X7018Y11283D01*
X7019Y11282D01*
X7020Y11281D01*
X7022Y11279D01*
X7024Y11276D01*
X7027Y11275D01*
X7030Y11273D01*
X7033Y11271D01*
X7033D01*
X7035Y11270D01*
X7037Y11270D01*
X7041Y11269D01*
X7045Y11268D01*
X7051Y11268D01*
X7057Y11267D01*
X7239D01*
Y11234D01*
X7061D01*
X7059Y11234D01*
X7056D01*
X7049Y11235D01*
X7041Y11236D01*
X7033Y11237D01*
X7025Y11239D01*
X7018Y11242D01*
X7017Y11242D01*
X7015Y11243D01*
X7012Y11245D01*
X7008Y11247D01*
X7004Y11251D01*
X6999Y11255D01*
X6995Y11260D01*
X6991Y11266D01*
X6991Y11267D01*
X6990Y11269D01*
X6989Y11273D01*
X6987Y11277D01*
X6985Y11283D01*
X6984Y11290D01*
X6983Y11297D01*
X6982Y11305D01*
Y11306D01*
Y11307D01*
Y11308D01*
X6983Y11311D01*
X6983Y11313D01*
X6984Y11317D01*
X6985Y11324D01*
X6987Y11332D01*
X6990Y11341D01*
X6992Y11345D01*
X6995Y11349D01*
X6998Y11352D01*
X7001Y11356D01*
X7002D01*
X7002Y11357D01*
X7003Y11357D01*
X7005Y11359D01*
X7007Y11360D01*
X7009Y11361D01*
X7012Y11363D01*
X7015Y11365D01*
X7019Y11366D01*
X7023Y11368D01*
X7028Y11369D01*
X7033Y11371D01*
X7039Y11372D01*
X7045Y11372D01*
X7051Y11373D01*
X7058D01*
X7062Y11343D01*
D02*
G37*
G36*
X14929Y11159D02*
X14928D01*
X14927Y11159D01*
X14925Y11159D01*
X14921Y11157D01*
X14916Y11156D01*
X14910Y11154D01*
X14904Y11151D01*
X14898Y11147D01*
X14893Y11143D01*
X14893Y11142D01*
X14891Y11141D01*
X14890Y11138D01*
X14888Y11134D01*
X14886Y11129D01*
X14884Y11124D01*
X14882Y11118D01*
X14882Y11111D01*
Y11111D01*
Y11110D01*
Y11109D01*
X14882Y11108D01*
X14883Y11103D01*
X14884Y11098D01*
X14886Y11092D01*
X14889Y11086D01*
X14893Y11079D01*
X14895Y11076D01*
X14898Y11073D01*
X14899D01*
X14899Y11073D01*
X14901Y11071D01*
X14905Y11068D01*
X14910Y11066D01*
X14917Y11063D01*
X14924Y11060D01*
X14933Y11059D01*
X14943Y11058D01*
X14946D01*
X14947Y11058D01*
X14950D01*
X14952Y11059D01*
X14959Y11060D01*
X14965Y11061D01*
X14972Y11064D01*
X14979Y11068D01*
X14985Y11073D01*
X14986Y11074D01*
X14987Y11076D01*
X14990Y11079D01*
X14993Y11083D01*
X14995Y11089D01*
X14998Y11096D01*
X15000Y11103D01*
X15000Y11112D01*
Y11113D01*
Y11114D01*
X15000Y11117D01*
X15000Y11121D01*
X14998Y11125D01*
X14997Y11130D01*
X14995Y11134D01*
X14993Y11139D01*
X14993Y11139D01*
X14992Y11141D01*
X14990Y11143D01*
X14988Y11146D01*
X14986Y11149D01*
X14983Y11152D01*
X14979Y11155D01*
X14975Y11157D01*
X14980Y11187D01*
X15109Y11162D01*
Y11037D01*
X15080D01*
Y11137D01*
X15012Y11151D01*
X15012Y11151D01*
X15012Y11150D01*
X15013Y11149D01*
X15014Y11147D01*
X15015Y11145D01*
X15017Y11143D01*
X15020Y11137D01*
X15023Y11130D01*
X15025Y11122D01*
X15027Y11113D01*
X15028Y11104D01*
Y11103D01*
Y11102D01*
Y11101D01*
X15027Y11098D01*
X15027Y11095D01*
X15027Y11092D01*
X15026Y11088D01*
X15025Y11084D01*
X15022Y11076D01*
X15020Y11071D01*
X15018Y11066D01*
X15015Y11061D01*
X15012Y11057D01*
X15009Y11052D01*
X15005Y11048D01*
X15004Y11048D01*
X15003Y11047D01*
X15002Y11046D01*
X15000Y11045D01*
X14998Y11043D01*
X14995Y11041D01*
X14992Y11039D01*
X14989Y11036D01*
X14985Y11034D01*
X14980Y11032D01*
X14975Y11030D01*
X14970Y11028D01*
X14965Y11027D01*
X14959Y11026D01*
X14952Y11025D01*
X14946Y11025D01*
X14942D01*
X14940Y11025D01*
X14937Y11026D01*
X14934Y11026D01*
X14930Y11026D01*
X14926Y11027D01*
X14916Y11030D01*
X14907Y11033D01*
X14901Y11036D01*
X14896Y11038D01*
X14891Y11041D01*
X14887Y11045D01*
X14886Y11045D01*
X14886Y11046D01*
X14884Y11048D01*
X14882Y11050D01*
X14880Y11052D01*
X14877Y11055D01*
X14874Y11058D01*
X14872Y11063D01*
X14869Y11067D01*
X14866Y11072D01*
X14863Y11078D01*
X14861Y11083D01*
X14859Y11090D01*
X14858Y11096D01*
X14857Y11104D01*
X14856Y11111D01*
Y11112D01*
Y11113D01*
Y11115D01*
X14857Y11117D01*
X14857Y11120D01*
X14858Y11123D01*
X14858Y11127D01*
X14859Y11131D01*
X14861Y11140D01*
X14864Y11149D01*
X14867Y11154D01*
X14869Y11159D01*
X14872Y11163D01*
X14876Y11167D01*
X14876Y11168D01*
X14876Y11168D01*
X14878Y11169D01*
X14879Y11171D01*
X14881Y11172D01*
X14883Y11174D01*
X14886Y11176D01*
X14889Y11179D01*
X14896Y11183D01*
X14905Y11187D01*
X14915Y11190D01*
X14921Y11191D01*
X14927Y11192D01*
X14929Y11159D01*
D02*
G37*
G36*
X14936Y11343D02*
X14934D01*
X14932Y11343D01*
X14929D01*
X14927Y11342D01*
X14921Y11341D01*
X14914Y11340D01*
X14907Y11338D01*
X14901Y11335D01*
X14899Y11334D01*
X14896Y11332D01*
X14896Y11332D01*
X14895Y11330D01*
X14893Y11328D01*
X14891Y11325D01*
X14889Y11321D01*
X14888Y11317D01*
X14886Y11311D01*
X14886Y11305D01*
Y11305D01*
Y11303D01*
X14886Y11301D01*
X14887Y11298D01*
X14888Y11295D01*
X14888Y11291D01*
X14890Y11287D01*
X14892Y11284D01*
X14892Y11283D01*
X14893Y11282D01*
X14894Y11281D01*
X14896Y11279D01*
X14898Y11276D01*
X14901Y11275D01*
X14904Y11273D01*
X14907Y11271D01*
X14907D01*
X14909Y11270D01*
X14911Y11270D01*
X14915Y11269D01*
X14919Y11268D01*
X14925Y11268D01*
X14931Y11267D01*
X15113D01*
Y11234D01*
X14936D01*
X14933Y11234D01*
X14930D01*
X14923Y11235D01*
X14915Y11236D01*
X14907Y11237D01*
X14899Y11239D01*
X14892Y11242D01*
X14891Y11242D01*
X14889Y11243D01*
X14886Y11245D01*
X14882Y11247D01*
X14878Y11251D01*
X14873Y11255D01*
X14869Y11260D01*
X14865Y11266D01*
X14865Y11267D01*
X14864Y11269D01*
X14863Y11273D01*
X14861Y11277D01*
X14859Y11283D01*
X14858Y11290D01*
X14857Y11297D01*
X14856Y11305D01*
Y11306D01*
Y11307D01*
Y11308D01*
X14857Y11311D01*
X14857Y11313D01*
X14858Y11317D01*
X14859Y11324D01*
X14861Y11332D01*
X14864Y11341D01*
X14866Y11345D01*
X14869Y11349D01*
X14872Y11352D01*
X14875Y11356D01*
X14876D01*
X14876Y11357D01*
X14877Y11357D01*
X14879Y11359D01*
X14881Y11360D01*
X14883Y11361D01*
X14886Y11363D01*
X14889Y11365D01*
X14893Y11366D01*
X14897Y11368D01*
X14902Y11369D01*
X14907Y11371D01*
X14913Y11372D01*
X14919Y11372D01*
X14925Y11373D01*
X14932D01*
X14936Y11343D01*
D02*
G37*
G36*
X3832Y8554D02*
X3832Y8553D01*
X3833Y8552D01*
X3834Y8550D01*
X3835Y8548D01*
X3836Y8545D01*
X3840Y8539D01*
X3844Y8532D01*
X3849Y8524D01*
X3855Y8517D01*
X3861Y8509D01*
X3861Y8509D01*
X3862Y8509D01*
X3864Y8506D01*
X3868Y8503D01*
X3872Y8499D01*
X3877Y8494D01*
X3883Y8490D01*
X3889Y8485D01*
X3895Y8482D01*
Y8461D01*
X3642D01*
Y8493D01*
X3839D01*
X3839Y8493D01*
X3837Y8494D01*
X3835Y8497D01*
X3833Y8501D01*
X3829Y8505D01*
X3826Y8510D01*
X3821Y8516D01*
X3818Y8522D01*
Y8523D01*
X3817Y8523D01*
X3816Y8525D01*
X3814Y8529D01*
X3811Y8533D01*
X3809Y8538D01*
X3806Y8543D01*
X3804Y8549D01*
X3801Y8554D01*
X3832D01*
Y8554D01*
D02*
G37*
G36*
X3717Y8729D02*
X3715D01*
X3713Y8729D01*
X3710D01*
X3708Y8728D01*
X3702Y8727D01*
X3695Y8726D01*
X3688Y8724D01*
X3682Y8721D01*
X3680Y8720D01*
X3677Y8718D01*
X3677Y8718D01*
X3676Y8716D01*
X3674Y8715D01*
X3672Y8711D01*
X3671Y8708D01*
X3669Y8703D01*
X3667Y8698D01*
X3667Y8691D01*
Y8691D01*
Y8689D01*
X3667Y8687D01*
X3668Y8684D01*
X3669Y8681D01*
X3669Y8677D01*
X3671Y8673D01*
X3673Y8670D01*
X3673Y8670D01*
X3674Y8668D01*
X3675Y8667D01*
X3677Y8665D01*
X3679Y8663D01*
X3682Y8661D01*
X3685Y8659D01*
X3688Y8657D01*
X3689D01*
X3690Y8657D01*
X3692Y8656D01*
X3696Y8655D01*
X3700Y8655D01*
X3706Y8654D01*
X3712Y8653D01*
X3894D01*
Y8620D01*
X3717D01*
X3714Y8620D01*
X3711D01*
X3704Y8621D01*
X3696Y8622D01*
X3688Y8623D01*
X3680Y8625D01*
X3673Y8628D01*
X3672Y8628D01*
X3670Y8629D01*
X3667Y8631D01*
X3663Y8634D01*
X3659Y8637D01*
X3654Y8641D01*
X3650Y8647D01*
X3646Y8652D01*
X3646Y8653D01*
X3645Y8655D01*
X3644Y8659D01*
X3642Y8663D01*
X3640Y8669D01*
X3639Y8676D01*
X3638Y8683D01*
X3638Y8691D01*
Y8692D01*
Y8693D01*
Y8695D01*
X3638Y8697D01*
X3638Y8700D01*
X3639Y8703D01*
X3640Y8710D01*
X3642Y8718D01*
X3646Y8727D01*
X3647Y8731D01*
X3650Y8735D01*
X3653Y8739D01*
X3656Y8742D01*
X3657D01*
X3657Y8743D01*
X3658Y8744D01*
X3660Y8745D01*
X3662Y8746D01*
X3664Y8748D01*
X3667Y8749D01*
X3671Y8751D01*
X3674Y8753D01*
X3679Y8754D01*
X3683Y8756D01*
X3689Y8757D01*
X3694Y8758D01*
X3700Y8759D01*
X3706Y8759D01*
X3713D01*
X3717Y8729D01*
D02*
G37*
G36*
X8701Y11773D02*
X8761D01*
Y11742D01*
X8701D01*
Y11632D01*
X8673D01*
X8510Y11747D01*
Y11773D01*
X8673D01*
Y11807D01*
X8701D01*
Y11773D01*
D02*
G37*
G36*
X6943Y3700D02*
X6947D01*
X6950Y3700D01*
X6955Y3700D01*
X6959Y3699D01*
X6970Y3697D01*
X6981Y3695D01*
X6993Y3691D01*
X7005Y3686D01*
X7005D01*
X7006Y3685D01*
X7008Y3684D01*
X7010Y3683D01*
X7012Y3682D01*
X7015Y3680D01*
X7022Y3675D01*
X7030Y3669D01*
X7037Y3661D01*
X7045Y3653D01*
X7051Y3643D01*
X7052Y3642D01*
X7052Y3642D01*
X7053Y3640D01*
X7054Y3638D01*
X7055Y3635D01*
X7056Y3632D01*
X7058Y3629D01*
X7059Y3624D01*
X7061Y3620D01*
X7063Y3615D01*
X7065Y3605D01*
X7067Y3593D01*
X7068Y3581D01*
Y3580D01*
Y3579D01*
Y3577D01*
X7067Y3575D01*
Y3572D01*
X7067Y3568D01*
X7066Y3564D01*
X7066Y3559D01*
X7063Y3550D01*
X7060Y3539D01*
X7056Y3528D01*
X7054Y3523D01*
X7051Y3518D01*
Y3517D01*
X7050Y3516D01*
X7049Y3515D01*
X7048Y3513D01*
X7046Y3511D01*
X7044Y3508D01*
X7039Y3502D01*
X7032Y3495D01*
X7024Y3488D01*
X7015Y3481D01*
X7004Y3475D01*
X7004D01*
X7003Y3474D01*
X7001Y3473D01*
X6999Y3473D01*
X6996Y3472D01*
X6993Y3470D01*
X6989Y3469D01*
X6985Y3467D01*
X6980Y3466D01*
X6975Y3465D01*
X6963Y3462D01*
X6951Y3461D01*
X6937Y3460D01*
X6932D01*
X6929Y3460D01*
X6926D01*
X6922Y3461D01*
X6918Y3461D01*
X6910Y3462D01*
X6900Y3464D01*
X6891Y3467D01*
X6881Y3470D01*
X6881D01*
X6880Y3470D01*
X6879Y3471D01*
X6877Y3472D01*
X6875Y3472D01*
X6872Y3474D01*
X6866Y3477D01*
X6860Y3481D01*
X6852Y3486D01*
X6845Y3492D01*
X6838Y3498D01*
Y3498D01*
X6837Y3497D01*
X6836Y3496D01*
X6835Y3495D01*
X6834Y3492D01*
X6833Y3490D01*
X6829Y3484D01*
X6825Y3478D01*
X6821Y3470D01*
X6818Y3463D01*
X6814Y3455D01*
X6792Y3465D01*
Y3466D01*
X6792Y3467D01*
X6793Y3468D01*
X6794Y3470D01*
X6795Y3472D01*
X6796Y3475D01*
X6798Y3478D01*
X6799Y3482D01*
X6803Y3490D01*
X6809Y3500D01*
X6815Y3510D01*
X6822Y3520D01*
Y3520D01*
X6821Y3521D01*
X6821Y3522D01*
X6820Y3525D01*
X6819Y3527D01*
X6817Y3530D01*
X6816Y3534D01*
X6814Y3538D01*
X6813Y3542D01*
X6812Y3547D01*
X6809Y3558D01*
X6808Y3569D01*
X6807Y3581D01*
Y3582D01*
Y3583D01*
Y3585D01*
X6807Y3587D01*
Y3590D01*
X6808Y3594D01*
X6808Y3597D01*
X6809Y3602D01*
X6811Y3611D01*
X6814Y3622D01*
X6818Y3632D01*
X6823Y3643D01*
X6823Y3644D01*
X6824Y3644D01*
X6825Y3646D01*
X6826Y3648D01*
X6828Y3650D01*
X6830Y3653D01*
X6835Y3659D01*
X6841Y3666D01*
X6849Y3673D01*
X6859Y3680D01*
X6869Y3686D01*
X6870D01*
X6871Y3687D01*
X6872Y3687D01*
X6875Y3688D01*
X6877Y3689D01*
X6881Y3690D01*
X6885Y3692D01*
X6889Y3693D01*
X6894Y3695D01*
X6899Y3696D01*
X6910Y3698D01*
X6923Y3700D01*
X6937Y3701D01*
X6941D01*
X6943Y3700D01*
D02*
G37*
G36*
X8689Y11600D02*
X8692D01*
X8699Y11600D01*
X8707Y11599D01*
X8715Y11598D01*
X8723Y11596D01*
X8730Y11593D01*
X8731Y11593D01*
X8733Y11592D01*
X8736Y11590D01*
X8740Y11587D01*
X8745Y11584D01*
X8749Y11580D01*
X8753Y11574D01*
X8757Y11569D01*
X8757Y11568D01*
X8758Y11565D01*
X8759Y11562D01*
X8761Y11557D01*
X8763Y11552D01*
X8764Y11545D01*
X8765Y11537D01*
X8766Y11529D01*
Y11529D01*
Y11528D01*
Y11526D01*
X8765Y11524D01*
X8765Y11521D01*
X8764Y11518D01*
X8763Y11511D01*
X8761Y11502D01*
X8758Y11494D01*
X8756Y11490D01*
X8753Y11486D01*
X8750Y11482D01*
X8747Y11479D01*
X8746D01*
X8746Y11478D01*
X8745Y11477D01*
X8743Y11476D01*
X8741Y11474D01*
X8739Y11473D01*
X8736Y11471D01*
X8733Y11470D01*
X8729Y11468D01*
X8725Y11467D01*
X8720Y11465D01*
X8715Y11464D01*
X8709Y11463D01*
X8703Y11462D01*
X8697Y11462D01*
X8690D01*
X8686Y11492D01*
X8688D01*
X8690Y11492D01*
X8693D01*
X8695Y11493D01*
X8702Y11494D01*
X8708Y11495D01*
X8715Y11497D01*
X8721Y11499D01*
X8723Y11501D01*
X8726Y11502D01*
X8726Y11503D01*
X8727Y11504D01*
X8729Y11506D01*
X8731Y11509D01*
X8733Y11513D01*
X8735Y11518D01*
X8736Y11523D01*
X8736Y11529D01*
Y11530D01*
Y11532D01*
X8736Y11534D01*
X8735Y11537D01*
X8735Y11540D01*
X8734Y11544D01*
X8732Y11547D01*
X8730Y11551D01*
X8730Y11551D01*
X8729Y11552D01*
X8728Y11554D01*
X8726Y11556D01*
X8724Y11558D01*
X8721Y11560D01*
X8718Y11562D01*
X8715Y11564D01*
X8715D01*
X8713Y11564D01*
X8711Y11565D01*
X8707Y11565D01*
X8703Y11566D01*
X8697Y11567D01*
X8691Y11567D01*
X8509D01*
Y11601D01*
X8687D01*
X8689Y11600D01*
D02*
G37*
G36*
X11628Y3003D02*
X11632Y2997D01*
X11636Y2991D01*
X11641Y2986D01*
X11645Y2982D01*
X11649Y2978D01*
X11651Y2976D01*
X11651Y2976D01*
X11652Y2975D01*
X11659Y2969D01*
X11667Y2963D01*
X11674Y2958D01*
X11681Y2954D01*
X11687Y2951D01*
X11690Y2949D01*
X11692Y2948D01*
X11694Y2947D01*
X11695Y2946D01*
X11696Y2946D01*
X11697D01*
Y2916D01*
X11691Y2918D01*
X11686Y2921D01*
X11680Y2923D01*
X11675Y2926D01*
X11671Y2928D01*
X11667Y2930D01*
X11665Y2931D01*
X11665Y2932D01*
X11664D01*
X11658Y2936D01*
X11652Y2940D01*
X11647Y2943D01*
X11643Y2947D01*
X11639Y2949D01*
X11637Y2951D01*
X11635Y2953D01*
X11635Y2953D01*
Y2756D01*
X11604D01*
Y3009D01*
X11624D01*
X11628Y3003D01*
D02*
G37*
G36*
X6879Y3395D02*
X6878D01*
X6877Y3394D01*
X6876Y3394D01*
X6871Y3393D01*
X6866Y3391D01*
X6860Y3389D01*
X6854Y3386D01*
X6849Y3383D01*
X6844Y3378D01*
X6843Y3377D01*
X6842Y3376D01*
X6840Y3373D01*
X6838Y3369D01*
X6836Y3365D01*
X6834Y3359D01*
X6833Y3353D01*
X6832Y3347D01*
Y3346D01*
Y3346D01*
Y3344D01*
X6833Y3343D01*
X6833Y3339D01*
X6834Y3333D01*
X6836Y3328D01*
X6839Y3321D01*
X6843Y3315D01*
X6846Y3312D01*
X6849Y3309D01*
X6849D01*
X6849Y3308D01*
X6852Y3306D01*
X6856Y3304D01*
X6861Y3301D01*
X6867Y3298D01*
X6875Y3296D01*
X6884Y3294D01*
X6894Y3293D01*
X6896D01*
X6898Y3294D01*
X6900D01*
X6903Y3294D01*
X6909Y3295D01*
X6915Y3297D01*
X6922Y3300D01*
X6929Y3303D01*
X6935Y3308D01*
X6936Y3309D01*
X6938Y3311D01*
X6940Y3314D01*
X6943Y3319D01*
X6946Y3324D01*
X6949Y3331D01*
X6950Y3339D01*
X6951Y3347D01*
Y3348D01*
Y3350D01*
X6950Y3352D01*
X6950Y3356D01*
X6949Y3361D01*
X6948Y3365D01*
X6946Y3370D01*
X6944Y3374D01*
X6943Y3375D01*
X6942Y3376D01*
X6941Y3379D01*
X6939Y3381D01*
X6936Y3384D01*
X6933Y3387D01*
X6930Y3390D01*
X6926Y3393D01*
X6930Y3422D01*
X7059Y3397D01*
Y3272D01*
X7030D01*
Y3373D01*
X6962Y3387D01*
X6962Y3386D01*
X6963Y3386D01*
X6963Y3384D01*
X6965Y3383D01*
X6966Y3381D01*
X6967Y3378D01*
X6970Y3372D01*
X6973Y3365D01*
X6975Y3357D01*
X6977Y3348D01*
X6978Y3339D01*
Y3339D01*
Y3338D01*
Y3336D01*
X6978Y3334D01*
X6977Y3331D01*
X6977Y3328D01*
X6976Y3324D01*
X6975Y3320D01*
X6972Y3311D01*
X6971Y3306D01*
X6968Y3302D01*
X6966Y3297D01*
X6963Y3292D01*
X6959Y3288D01*
X6955Y3283D01*
X6955Y3283D01*
X6954Y3282D01*
X6953Y3281D01*
X6951Y3280D01*
X6949Y3278D01*
X6946Y3276D01*
X6943Y3274D01*
X6939Y3272D01*
X6935Y3270D01*
X6931Y3268D01*
X6926Y3266D01*
X6921Y3264D01*
X6915Y3263D01*
X6909Y3261D01*
X6903Y3261D01*
X6896Y3260D01*
X6893D01*
X6891Y3261D01*
X6887Y3261D01*
X6884Y3261D01*
X6880Y3262D01*
X6876Y3263D01*
X6867Y3265D01*
X6857Y3269D01*
X6852Y3271D01*
X6847Y3274D01*
X6842Y3277D01*
X6837Y3280D01*
X6837Y3281D01*
X6836Y3281D01*
X6834Y3283D01*
X6833Y3285D01*
X6830Y3287D01*
X6828Y3290D01*
X6825Y3294D01*
X6822Y3298D01*
X6819Y3302D01*
X6816Y3307D01*
X6814Y3313D01*
X6811Y3319D01*
X6809Y3325D01*
X6808Y3332D01*
X6807Y3339D01*
X6807Y3347D01*
Y3347D01*
Y3348D01*
Y3350D01*
X6807Y3352D01*
X6808Y3355D01*
X6808Y3359D01*
X6808Y3362D01*
X6809Y3367D01*
X6811Y3376D01*
X6815Y3385D01*
X6817Y3389D01*
X6820Y3394D01*
X6823Y3399D01*
X6826Y3403D01*
X6826Y3403D01*
X6827Y3404D01*
X6828Y3405D01*
X6829Y3406D01*
X6831Y3408D01*
X6834Y3410D01*
X6836Y3412D01*
X6839Y3414D01*
X6847Y3418D01*
X6856Y3422D01*
X6866Y3425D01*
X6871Y3427D01*
X6877Y3427D01*
X6879Y3395D01*
D02*
G37*
%LPC*%
G36*
X3422Y8863D02*
X3417D01*
X3408Y8863D01*
X3400Y8862D01*
X3392Y8861D01*
X3384Y8859D01*
X3377Y8857D01*
X3371Y8855D01*
X3366Y8853D01*
X3360Y8851D01*
X3356Y8849D01*
X3352Y8847D01*
X3349Y8845D01*
X3346Y8843D01*
X3344Y8841D01*
X3342Y8840D01*
X3342Y8839D01*
X3341Y8839D01*
X3337Y8834D01*
X3333Y8829D01*
X3329Y8824D01*
X3326Y8819D01*
X3324Y8814D01*
X3322Y8809D01*
X3319Y8799D01*
X3318Y8794D01*
X3317Y8790D01*
X3316Y8786D01*
X3316Y8783D01*
X3316Y8781D01*
Y8779D01*
Y8777D01*
Y8777D01*
X3316Y8768D01*
X3318Y8759D01*
X3319Y8752D01*
X3322Y8745D01*
X3324Y8740D01*
X3326Y8736D01*
X3327Y8734D01*
X3328Y8733D01*
X3328Y8733D01*
Y8732D01*
X3333Y8725D01*
X3339Y8719D01*
X3345Y8714D01*
X3351Y8709D01*
X3356Y8706D01*
X3360Y8704D01*
X3362Y8703D01*
X3363Y8702D01*
X3364Y8702D01*
X3364D01*
X3373Y8698D01*
X3382Y8696D01*
X3391Y8694D01*
X3399Y8693D01*
X3407Y8692D01*
X3410D01*
X3412Y8691D01*
X3417D01*
X3427Y8692D01*
X3436Y8693D01*
X3445Y8694D01*
X3453Y8696D01*
X3460Y8698D01*
X3467Y8701D01*
X3473Y8703D01*
X3478Y8706D01*
X3483Y8709D01*
X3486Y8712D01*
X3490Y8714D01*
X3493Y8716D01*
X3495Y8718D01*
X3497Y8720D01*
X3498Y8721D01*
X3498Y8721D01*
X3492Y8728D01*
X3487Y8736D01*
X3483Y8744D01*
X3480Y8751D01*
X3477Y8758D01*
X3476Y8761D01*
X3475Y8763D01*
X3475Y8766D01*
X3474Y8767D01*
X3474Y8768D01*
Y8768D01*
X3498Y8776D01*
X3500Y8770D01*
X3502Y8764D01*
X3505Y8758D01*
X3507Y8754D01*
X3509Y8749D01*
X3511Y8746D01*
X3512Y8744D01*
X3513Y8744D01*
X3515Y8749D01*
X3516Y8756D01*
X3518Y8761D01*
X3518Y8766D01*
X3519Y8771D01*
X3519Y8774D01*
Y8776D01*
Y8777D01*
Y8777D01*
X3519Y8784D01*
X3518Y8791D01*
X3517Y8797D01*
X3515Y8802D01*
X3513Y8808D01*
X3511Y8813D01*
X3508Y8818D01*
X3506Y8822D01*
X3504Y8826D01*
X3501Y8829D01*
X3499Y8832D01*
X3497Y8835D01*
X3495Y8837D01*
X3494Y8838D01*
X3493Y8838D01*
X3493Y8839D01*
X3488Y8843D01*
X3482Y8847D01*
X3476Y8850D01*
X3470Y8853D01*
X3464Y8855D01*
X3458Y8857D01*
X3445Y8860D01*
X3440Y8861D01*
X3434Y8862D01*
X3430Y8862D01*
X3425Y8863D01*
X3422Y8863D01*
D02*
G37*
G36*
X14603Y14060D02*
X14598D01*
X14589Y14060D01*
X14581Y14059D01*
X14573Y14058D01*
X14565Y14056D01*
X14559Y14054D01*
X14552Y14052D01*
X14547Y14050D01*
X14541Y14048D01*
X14537Y14046D01*
X14533Y14043D01*
X14530Y14042D01*
X14527Y14040D01*
X14525Y14038D01*
X14524Y14037D01*
X14523Y14036D01*
X14522Y14036D01*
X14518Y14031D01*
X14514Y14026D01*
X14511Y14021D01*
X14507Y14016D01*
X14505Y14010D01*
X14503Y14005D01*
X14500Y13995D01*
X14499Y13991D01*
X14498Y13987D01*
X14497Y13983D01*
X14497Y13980D01*
X14497Y13977D01*
Y13975D01*
Y13974D01*
Y13974D01*
X14497Y13965D01*
X14499Y13956D01*
X14501Y13949D01*
X14503Y13942D01*
X14506Y13937D01*
X14507Y13932D01*
X14508Y13931D01*
X14509Y13930D01*
X14509Y13929D01*
Y13929D01*
X14514Y13922D01*
X14520Y13916D01*
X14526Y13911D01*
X14532Y13906D01*
X14537Y13903D01*
X14541Y13901D01*
X14543Y13900D01*
X14544Y13899D01*
X14545Y13899D01*
X14545D01*
X14554Y13895D01*
X14563Y13893D01*
X14572Y13891D01*
X14580Y13889D01*
X14588Y13889D01*
X14591D01*
X14593Y13888D01*
X14598D01*
X14608Y13889D01*
X14617Y13889D01*
X14626Y13891D01*
X14634Y13893D01*
X14641Y13895D01*
X14648Y13898D01*
X14654Y13900D01*
X14659Y13903D01*
X14664Y13906D01*
X14668Y13909D01*
X14671Y13911D01*
X14674Y13913D01*
X14676Y13915D01*
X14678Y13917D01*
X14679Y13917D01*
X14679Y13918D01*
X14673Y13925D01*
X14668Y13933D01*
X14664Y13941D01*
X14661Y13948D01*
X14658Y13955D01*
X14657Y13958D01*
X14656Y13960D01*
X14656Y13962D01*
X14655Y13964D01*
X14655Y13965D01*
Y13965D01*
X14679Y13973D01*
X14681Y13967D01*
X14683Y13961D01*
X14686Y13955D01*
X14688Y13950D01*
X14690Y13946D01*
X14692Y13943D01*
X14693Y13941D01*
X14694Y13941D01*
X14696Y13946D01*
X14698Y13952D01*
X14699Y13958D01*
X14699Y13963D01*
X14700Y13967D01*
X14700Y13971D01*
Y13973D01*
Y13974D01*
Y13974D01*
X14700Y13981D01*
X14699Y13987D01*
X14698Y13994D01*
X14696Y13999D01*
X14694Y14005D01*
X14692Y14010D01*
X14689Y14015D01*
X14687Y14019D01*
X14685Y14023D01*
X14682Y14026D01*
X14680Y14029D01*
X14678Y14032D01*
X14676Y14033D01*
X14675Y14035D01*
X14674Y14035D01*
X14674Y14036D01*
X14669Y14040D01*
X14663Y14044D01*
X14658Y14047D01*
X14651Y14050D01*
X14645Y14052D01*
X14639Y14054D01*
X14626Y14057D01*
X14621Y14058D01*
X14615Y14059D01*
X14611Y14059D01*
X14607Y14060D01*
X14603Y14060D01*
D02*
G37*
G36*
X3816Y5753D02*
X3811D01*
X3802Y5752D01*
X3793Y5752D01*
X3785Y5751D01*
X3778Y5749D01*
X3771Y5747D01*
X3765Y5745D01*
X3759Y5743D01*
X3754Y5741D01*
X3750Y5739D01*
X3746Y5736D01*
X3742Y5734D01*
X3740Y5732D01*
X3738Y5731D01*
X3736Y5730D01*
X3735Y5729D01*
X3735Y5729D01*
X3730Y5724D01*
X3727Y5719D01*
X3723Y5714D01*
X3720Y5709D01*
X3718Y5703D01*
X3715Y5698D01*
X3712Y5688D01*
X3712Y5684D01*
X3711Y5680D01*
X3710Y5676D01*
X3710Y5673D01*
X3709Y5670D01*
Y5668D01*
Y5667D01*
Y5667D01*
X3710Y5658D01*
X3711Y5649D01*
X3713Y5641D01*
X3715Y5635D01*
X3718Y5630D01*
X3720Y5625D01*
X3721Y5624D01*
X3722Y5623D01*
X3722Y5622D01*
Y5622D01*
X3727Y5615D01*
X3733Y5609D01*
X3739Y5603D01*
X3745Y5599D01*
X3750Y5596D01*
X3754Y5593D01*
X3755Y5593D01*
X3757Y5592D01*
X3757Y5592D01*
X3758D01*
X3767Y5588D01*
X3776Y5585D01*
X3785Y5584D01*
X3793Y5582D01*
X3800Y5582D01*
X3803D01*
X3806Y5581D01*
X3811D01*
X3821Y5582D01*
X3830Y5582D01*
X3838Y5584D01*
X3846Y5586D01*
X3854Y5588D01*
X3860Y5590D01*
X3866Y5593D01*
X3871Y5596D01*
X3876Y5599D01*
X3880Y5602D01*
X3884Y5604D01*
X3887Y5606D01*
X3889Y5608D01*
X3891Y5610D01*
X3891Y5610D01*
X3892Y5611D01*
X3886Y5618D01*
X3881Y5626D01*
X3877Y5634D01*
X3874Y5641D01*
X3871Y5648D01*
X3870Y5651D01*
X3869Y5653D01*
X3868Y5655D01*
X3868Y5657D01*
X3868Y5658D01*
Y5658D01*
X3892Y5666D01*
X3894Y5660D01*
X3896Y5654D01*
X3898Y5648D01*
X3901Y5643D01*
X3903Y5639D01*
X3905Y5636D01*
X3906Y5634D01*
X3906Y5633D01*
X3909Y5639D01*
X3910Y5645D01*
X3911Y5651D01*
X3912Y5656D01*
X3912Y5660D01*
X3913Y5664D01*
Y5666D01*
Y5666D01*
Y5667D01*
X3912Y5674D01*
X3912Y5680D01*
X3911Y5686D01*
X3909Y5692D01*
X3907Y5698D01*
X3904Y5703D01*
X3902Y5708D01*
X3900Y5712D01*
X3897Y5716D01*
X3895Y5719D01*
X3893Y5722D01*
X3891Y5724D01*
X3889Y5726D01*
X3888Y5727D01*
X3887Y5728D01*
X3887Y5729D01*
X3882Y5733D01*
X3876Y5737D01*
X3870Y5740D01*
X3864Y5742D01*
X3858Y5745D01*
X3851Y5747D01*
X3839Y5750D01*
X3833Y5751D01*
X3828Y5752D01*
X3823Y5752D01*
X3819Y5752D01*
X3816Y5753D01*
D02*
G37*
G36*
X11102Y14299D02*
X11100D01*
X11091Y14298D01*
X11083Y14296D01*
X11076Y14294D01*
X11071Y14291D01*
X11066Y14289D01*
X11063Y14286D01*
X11061Y14285D01*
X11060Y14284D01*
X11055Y14278D01*
X11051Y14273D01*
X11049Y14266D01*
X11047Y14261D01*
X11046Y14256D01*
X11045Y14252D01*
X11045Y14251D01*
Y14250D01*
Y14249D01*
Y14249D01*
X11046Y14241D01*
X11047Y14234D01*
X11050Y14228D01*
X11052Y14223D01*
X11055Y14219D01*
X11058Y14216D01*
X11059Y14214D01*
X11060Y14213D01*
X11066Y14209D01*
X11073Y14205D01*
X11080Y14203D01*
X11086Y14201D01*
X11092Y14200D01*
X11095Y14200D01*
X11097D01*
X11099Y14200D01*
X11101D01*
X11111Y14200D01*
X11119Y14202D01*
X11127Y14204D01*
X11133Y14207D01*
X11138Y14209D01*
X11141Y14212D01*
X11143Y14213D01*
X11144Y14214D01*
X11150Y14219D01*
X11153Y14225D01*
X11156Y14231D01*
X11158Y14236D01*
X11159Y14241D01*
X11160Y14244D01*
X11160Y14246D01*
Y14247D01*
Y14247D01*
Y14248D01*
X11160Y14253D01*
X11159Y14257D01*
X11158Y14262D01*
X11156Y14266D01*
X11155Y14269D01*
X11154Y14271D01*
X11153Y14273D01*
X11153Y14273D01*
X11150Y14278D01*
X11146Y14281D01*
X11142Y14285D01*
X11138Y14287D01*
X11135Y14289D01*
X11133Y14291D01*
X11131Y14292D01*
X11130Y14292D01*
X11125Y14294D01*
X11119Y14296D01*
X11114Y14297D01*
X11109Y14298D01*
X11105Y14298D01*
X11102Y14299D01*
D02*
G37*
G36*
X7013Y5687D02*
X6900D01*
Y5608D01*
X7013Y5687D01*
D02*
G37*
G36*
X8673Y11742D02*
X8560D01*
X8673Y11663D01*
Y11742D01*
D02*
G37*
G36*
X3635Y1466D02*
X3630D01*
X3620Y1466D01*
X3611Y1465D01*
X3603Y1463D01*
X3595Y1461D01*
X3587Y1459D01*
X3581Y1457D01*
X3575Y1454D01*
X3570Y1451D01*
X3565Y1448D01*
X3561Y1446D01*
X3557Y1443D01*
X3554Y1441D01*
X3552Y1439D01*
X3550Y1438D01*
X3550Y1437D01*
X3549Y1436D01*
X3555Y1429D01*
X3560Y1422D01*
X3564Y1413D01*
X3567Y1406D01*
X3570Y1399D01*
X3571Y1397D01*
X3572Y1394D01*
X3573Y1392D01*
X3573Y1390D01*
X3573Y1390D01*
Y1389D01*
X3549Y1381D01*
X3547Y1388D01*
X3545Y1393D01*
X3543Y1399D01*
X3540Y1404D01*
X3538Y1408D01*
X3536Y1411D01*
X3535Y1413D01*
X3535Y1414D01*
X3532Y1408D01*
X3531Y1402D01*
X3530Y1396D01*
X3529Y1391D01*
X3529Y1387D01*
X3528Y1383D01*
Y1381D01*
Y1381D01*
Y1380D01*
X3529Y1374D01*
X3529Y1367D01*
X3530Y1361D01*
X3532Y1355D01*
X3534Y1349D01*
X3537Y1344D01*
X3539Y1340D01*
X3541Y1335D01*
X3543Y1332D01*
X3546Y1328D01*
X3548Y1326D01*
X3550Y1323D01*
X3552Y1321D01*
X3553Y1320D01*
X3554Y1319D01*
X3554Y1319D01*
X3559Y1314D01*
X3565Y1311D01*
X3571Y1307D01*
X3577Y1305D01*
X3583Y1302D01*
X3590Y1300D01*
X3602Y1297D01*
X3608Y1296D01*
X3613Y1296D01*
X3618Y1295D01*
X3622Y1295D01*
X3625Y1294D01*
X3630D01*
X3639Y1295D01*
X3648Y1296D01*
X3656Y1297D01*
X3663Y1298D01*
X3670Y1300D01*
X3676Y1302D01*
X3682Y1304D01*
X3687Y1307D01*
X3691Y1309D01*
X3695Y1311D01*
X3699Y1313D01*
X3701Y1315D01*
X3703Y1316D01*
X3705Y1317D01*
X3706Y1318D01*
X3706Y1319D01*
X3711Y1323D01*
X3714Y1328D01*
X3718Y1334D01*
X3721Y1339D01*
X3723Y1344D01*
X3726Y1349D01*
X3729Y1359D01*
X3729Y1363D01*
X3730Y1367D01*
X3731Y1371D01*
X3731Y1374D01*
X3732Y1377D01*
Y1379D01*
Y1380D01*
Y1380D01*
X3731Y1390D01*
X3730Y1398D01*
X3728Y1406D01*
X3726Y1412D01*
X3723Y1418D01*
X3721Y1422D01*
X3720Y1423D01*
X3719Y1425D01*
X3719Y1425D01*
Y1425D01*
X3714Y1432D01*
X3708Y1438D01*
X3702Y1444D01*
X3696Y1448D01*
X3691Y1451D01*
X3687Y1454D01*
X3686Y1455D01*
X3684Y1455D01*
X3684Y1456D01*
X3683D01*
X3674Y1459D01*
X3665Y1462D01*
X3656Y1463D01*
X3648Y1465D01*
X3641Y1466D01*
X3638D01*
X3635Y1466D01*
D02*
G37*
G36*
X6937Y3666D02*
X6932D01*
X6929Y3666D01*
X6925Y3665D01*
X6920Y3665D01*
X6915Y3664D01*
X6909Y3663D01*
X6897Y3660D01*
X6891Y3658D01*
X6884Y3656D01*
X6878Y3653D01*
X6872Y3650D01*
X6866Y3646D01*
X6861Y3642D01*
X6861Y3642D01*
X6860Y3641D01*
X6859Y3640D01*
X6857Y3638D01*
X6855Y3635D01*
X6853Y3632D01*
X6851Y3629D01*
X6848Y3625D01*
X6846Y3621D01*
X6844Y3616D01*
X6841Y3611D01*
X6839Y3606D01*
X6838Y3600D01*
X6836Y3594D01*
X6836Y3587D01*
X6835Y3580D01*
Y3580D01*
Y3579D01*
Y3577D01*
X6836Y3574D01*
X6836Y3569D01*
X6837Y3564D01*
X6838Y3559D01*
X6839Y3553D01*
X6842Y3547D01*
X6842Y3548D01*
X6843Y3549D01*
X6845Y3553D01*
X6848Y3557D01*
X6850Y3561D01*
X6852Y3567D01*
X6854Y3573D01*
X6856Y3579D01*
X6881Y3571D01*
Y3571D01*
X6880Y3570D01*
X6880Y3569D01*
X6879Y3566D01*
X6878Y3564D01*
X6877Y3561D01*
X6874Y3554D01*
X6871Y3547D01*
X6867Y3539D01*
X6862Y3531D01*
X6856Y3524D01*
X6857Y3524D01*
X6857Y3523D01*
X6859Y3521D01*
X6861Y3520D01*
X6864Y3517D01*
X6868Y3515D01*
X6872Y3512D01*
X6877Y3509D01*
X6882Y3506D01*
X6888Y3504D01*
X6894Y3501D01*
X6902Y3499D01*
X6910Y3497D01*
X6918Y3496D01*
X6927Y3495D01*
X6937Y3495D01*
X6942D01*
X6945Y3495D01*
X6948D01*
X6955Y3496D01*
X6963Y3497D01*
X6972Y3499D01*
X6982Y3501D01*
X6990Y3505D01*
X6991D01*
X6992Y3505D01*
X6993Y3506D01*
X6994Y3507D01*
X6998Y3509D01*
X7003Y3513D01*
X7009Y3517D01*
X7015Y3522D01*
X7021Y3528D01*
X7026Y3535D01*
Y3536D01*
X7026Y3536D01*
X7027Y3537D01*
X7028Y3539D01*
X7030Y3543D01*
X7033Y3548D01*
X7035Y3555D01*
X7037Y3563D01*
X7038Y3571D01*
X7039Y3580D01*
Y3581D01*
Y3582D01*
Y3584D01*
X7038Y3586D01*
X7038Y3589D01*
X7037Y3593D01*
X7036Y3597D01*
X7036Y3602D01*
X7033Y3612D01*
X7030Y3617D01*
X7028Y3622D01*
X7025Y3627D01*
X7021Y3632D01*
X7018Y3637D01*
X7013Y3642D01*
X7013Y3642D01*
X7012Y3643D01*
X7010Y3644D01*
X7008Y3646D01*
X7006Y3648D01*
X7002Y3650D01*
X6998Y3652D01*
X6994Y3654D01*
X6989Y3656D01*
X6983Y3659D01*
X6977Y3660D01*
X6970Y3662D01*
X6963Y3664D01*
X6955Y3665D01*
X6946Y3666D01*
X6937Y3666D01*
D02*
G37*
G36*
X11060Y14572D02*
X11055D01*
X11046Y14571D01*
X11037Y14571D01*
X11029Y14569D01*
X11022Y14568D01*
X11015Y14566D01*
X11009Y14564D01*
X11003Y14562D01*
X10998Y14559D01*
X10994Y14558D01*
X10990Y14555D01*
X10986Y14553D01*
X10984Y14551D01*
X10982Y14550D01*
X10980Y14549D01*
X10979Y14548D01*
X10979Y14548D01*
X10975Y14543D01*
X10971Y14538D01*
X10967Y14533D01*
X10964Y14528D01*
X10962Y14522D01*
X10960Y14517D01*
X10956Y14507D01*
X10956Y14503D01*
X10955Y14499D01*
X10954Y14495D01*
X10954Y14492D01*
X10953Y14489D01*
Y14487D01*
Y14486D01*
Y14486D01*
X10954Y14477D01*
X10955Y14468D01*
X10957Y14460D01*
X10960Y14454D01*
X10962Y14448D01*
X10964Y14444D01*
X10965Y14443D01*
X10966Y14442D01*
X10966Y14441D01*
Y14441D01*
X10971Y14434D01*
X10977Y14428D01*
X10983Y14422D01*
X10989Y14418D01*
X10994Y14415D01*
X10998Y14412D01*
X10999Y14412D01*
X11001Y14411D01*
X11001Y14410D01*
X11002D01*
X11011Y14407D01*
X11020Y14404D01*
X11029Y14403D01*
X11037Y14401D01*
X11044Y14400D01*
X11047D01*
X11050Y14400D01*
X11055D01*
X11065Y14400D01*
X11074Y14401D01*
X11082Y14403D01*
X11090Y14405D01*
X11098Y14407D01*
X11104Y14409D01*
X11110Y14412D01*
X11115Y14415D01*
X11120Y14418D01*
X11124Y14420D01*
X11128Y14423D01*
X11131Y14425D01*
X11133Y14427D01*
X11135Y14429D01*
X11135Y14429D01*
X11136Y14430D01*
X11130Y14437D01*
X11125Y14445D01*
X11121Y14453D01*
X11118Y14460D01*
X11115Y14467D01*
X11114Y14470D01*
X11113Y14472D01*
X11112Y14474D01*
X11112Y14476D01*
X11112Y14477D01*
Y14477D01*
X11136Y14485D01*
X11138Y14478D01*
X11140Y14473D01*
X11142Y14467D01*
X11145Y14462D01*
X11147Y14458D01*
X11149Y14455D01*
X11150Y14453D01*
X11150Y14452D01*
X11153Y14458D01*
X11154Y14464D01*
X11155Y14470D01*
X11156Y14475D01*
X11157Y14479D01*
X11157Y14483D01*
Y14485D01*
Y14485D01*
Y14486D01*
X11157Y14493D01*
X11156Y14499D01*
X11155Y14505D01*
X11153Y14511D01*
X11151Y14517D01*
X11148Y14522D01*
X11146Y14526D01*
X11144Y14531D01*
X11142Y14534D01*
X11139Y14538D01*
X11137Y14541D01*
X11135Y14543D01*
X11133Y14545D01*
X11132Y14546D01*
X11131Y14547D01*
X11131Y14548D01*
X11126Y14552D01*
X11120Y14556D01*
X11114Y14559D01*
X11108Y14561D01*
X11102Y14564D01*
X11095Y14566D01*
X11083Y14569D01*
X11077Y14570D01*
X11072Y14571D01*
X11067Y14571D01*
X11063Y14571D01*
X11060Y14572D01*
D02*
G37*
G36*
X6942Y5521D02*
X6937D01*
X6927Y5521D01*
X6918Y5520D01*
X6910Y5518D01*
X6902Y5517D01*
X6894Y5514D01*
X6888Y5512D01*
X6882Y5509D01*
X6877Y5507D01*
X6872Y5504D01*
X6868Y5501D01*
X6864Y5499D01*
X6861Y5496D01*
X6859Y5494D01*
X6857Y5493D01*
X6857Y5492D01*
X6856Y5492D01*
X6862Y5484D01*
X6867Y5477D01*
X6871Y5469D01*
X6874Y5461D01*
X6877Y5454D01*
X6878Y5452D01*
X6879Y5449D01*
X6880Y5447D01*
X6880Y5446D01*
X6881Y5445D01*
Y5444D01*
X6856Y5436D01*
X6854Y5443D01*
X6852Y5449D01*
X6850Y5454D01*
X6848Y5459D01*
X6845Y5463D01*
X6843Y5466D01*
X6842Y5468D01*
X6842Y5469D01*
X6839Y5463D01*
X6838Y5457D01*
X6837Y5451D01*
X6836Y5446D01*
X6836Y5442D01*
X6835Y5439D01*
Y5436D01*
Y5436D01*
Y5436D01*
X6836Y5429D01*
X6836Y5422D01*
X6838Y5416D01*
X6839Y5410D01*
X6841Y5404D01*
X6844Y5399D01*
X6846Y5395D01*
X6848Y5391D01*
X6851Y5387D01*
X6853Y5383D01*
X6855Y5381D01*
X6857Y5378D01*
X6859Y5376D01*
X6860Y5375D01*
X6861Y5374D01*
X6861Y5374D01*
X6866Y5369D01*
X6872Y5366D01*
X6878Y5363D01*
X6884Y5360D01*
X6891Y5358D01*
X6897Y5355D01*
X6909Y5353D01*
X6915Y5351D01*
X6920Y5351D01*
X6925Y5350D01*
X6929Y5350D01*
X6932Y5350D01*
X6937D01*
X6946Y5350D01*
X6955Y5351D01*
X6963Y5352D01*
X6970Y5353D01*
X6977Y5355D01*
X6983Y5357D01*
X6989Y5360D01*
X6994Y5362D01*
X6998Y5364D01*
X7002Y5366D01*
X7006Y5368D01*
X7008Y5370D01*
X7010Y5371D01*
X7012Y5373D01*
X7013Y5373D01*
X7013Y5374D01*
X7018Y5378D01*
X7021Y5383D01*
X7025Y5389D01*
X7028Y5394D01*
X7030Y5399D01*
X7033Y5404D01*
X7036Y5414D01*
X7036Y5418D01*
X7037Y5422D01*
X7038Y5426D01*
X7038Y5429D01*
X7039Y5432D01*
Y5434D01*
Y5435D01*
Y5436D01*
X7038Y5445D01*
X7037Y5453D01*
X7035Y5461D01*
X7033Y5467D01*
X7030Y5473D01*
X7028Y5477D01*
X7027Y5479D01*
X7026Y5480D01*
X7026Y5480D01*
Y5480D01*
X7021Y5487D01*
X7015Y5494D01*
X7009Y5499D01*
X7003Y5503D01*
X6998Y5507D01*
X6994Y5509D01*
X6993Y5510D01*
X6992Y5510D01*
X6991Y5511D01*
X6990D01*
X6982Y5514D01*
X6972Y5517D01*
X6963Y5518D01*
X6955Y5520D01*
X6948Y5521D01*
X6945D01*
X6942Y5521D01*
D02*
G37*
%LPD*%
D48*
X15748Y-20D02*
G03*
X15768Y0I0J20D01*
G01*
Y15748D02*
G03*
X15748Y15768I-20J0D01*
G01*
X0D02*
G03*
X-20Y15748I0J-20D01*
G01*
Y0D02*
G03*
X0Y-20I20J0D01*
G01*
X15748D01*
X15768Y0D02*
Y15748D01*
X0Y15768D02*
X15748D01*
X-20Y0D02*
Y15748D01*
D49*
X4823Y5473D02*
Y5754D01*
X4804Y5810D01*
X4767Y5847D01*
X4710Y5866D01*
X4673D01*
X4617Y5847D01*
X4579Y5810D01*
X4560Y5754D01*
Y5473D01*
X4189D02*
X4377Y5866D01*
X4452Y5473D02*
X4189D01*
X12638Y8602D02*
X12919D01*
X12975Y8621D01*
X13013Y8659D01*
X13032Y8715D01*
Y8752D01*
X13013Y8809D01*
X12975Y8846D01*
X12919Y8865D01*
X12638D01*
X12732Y8992D02*
X12713D01*
X12675Y9011D01*
X12657Y9030D01*
X12638Y9067D01*
Y9142D01*
X12657Y9180D01*
X12675Y9198D01*
X12713Y9217D01*
X12750D01*
X12788Y9198D01*
X12844Y9161D01*
X13032Y8973D01*
Y9236D01*
X12003Y4543D02*
X11721D01*
X11665Y4524D01*
X11628Y4486D01*
X11609Y4430D01*
Y4393D01*
X11628Y4336D01*
X11665Y4299D01*
X11721Y4280D01*
X12003D01*
Y3946D02*
Y4134D01*
X11834Y4153D01*
X11853Y4134D01*
X11871Y4078D01*
Y4021D01*
X11853Y3965D01*
X11815Y3928D01*
X11759Y3909D01*
X11721D01*
X11665Y3928D01*
X11628Y3965D01*
X11609Y4021D01*
Y4078D01*
X11628Y4134D01*
X11647Y4153D01*
X11684Y4171D01*
X2992Y10315D02*
X3386D01*
X2992D02*
Y10446D01*
X3011Y10502D01*
X3048Y10540D01*
X3086Y10559D01*
X3142Y10577D01*
X3236D01*
X3292Y10559D01*
X3330Y10540D01*
X3367Y10502D01*
X3386Y10446D01*
Y10315D01*
X3067Y10665D02*
X3048Y10703D01*
X2992Y10759D01*
X3386D01*
X4862Y13504D02*
Y13785D01*
X4843Y13841D01*
X4806Y13879D01*
X4750Y13898D01*
X4712D01*
X4656Y13879D01*
X4619Y13841D01*
X4600Y13785D01*
Y13504D01*
X4454D02*
X4247D01*
X4360Y13654D01*
X4304D01*
X4266Y13673D01*
X4247Y13691D01*
X4229Y13748D01*
Y13785D01*
X4247Y13841D01*
X4285Y13879D01*
X4341Y13898D01*
X4397D01*
X4454Y13879D01*
X4472Y13860D01*
X4491Y13823D01*
X9847Y5694D02*
Y5412D01*
X9828Y5356D01*
X9791Y5319D01*
X9734Y5300D01*
X9697D01*
X9641Y5319D01*
X9603Y5356D01*
X9584Y5412D01*
Y5694D01*
X9251Y5637D02*
X9270Y5675D01*
X9326Y5694D01*
X9363D01*
X9419Y5675D01*
X9457Y5619D01*
X9476Y5525D01*
Y5431D01*
X9457Y5356D01*
X9419Y5319D01*
X9363Y5300D01*
X9345D01*
X9288Y5319D01*
X9251Y5356D01*
X9232Y5412D01*
Y5431D01*
X9251Y5487D01*
X9288Y5525D01*
X9345Y5544D01*
X9363D01*
X9419Y5525D01*
X9457Y5487D01*
X9476Y5431D01*
X3976Y7520D02*
X4370D01*
X3976D02*
Y7388D01*
X3995Y7332D01*
X4033Y7295D01*
X4070Y7276D01*
X4126Y7257D01*
X4220D01*
X4276Y7276D01*
X4314Y7295D01*
X4351Y7332D01*
X4370Y7388D01*
Y7520D01*
X4070Y7150D02*
X4051D01*
X4014Y7132D01*
X3995Y7113D01*
X3976Y7075D01*
Y7000D01*
X3995Y6963D01*
X4014Y6944D01*
X4051Y6926D01*
X4089D01*
X4126Y6944D01*
X4183Y6982D01*
X4370Y7169D01*
Y6907D01*
X5866Y1496D02*
Y1102D01*
Y1496D02*
X5735D01*
X5679Y1477D01*
X5641Y1440D01*
X5622Y1402D01*
X5604Y1346D01*
Y1252D01*
X5622Y1196D01*
X5641Y1159D01*
X5679Y1121D01*
X5735Y1102D01*
X5866D01*
X5478Y1496D02*
X5272D01*
X5384Y1346D01*
X5328D01*
X5291Y1327D01*
X5272Y1309D01*
X5253Y1252D01*
Y1215D01*
X5272Y1159D01*
X5309Y1121D01*
X5366Y1102D01*
X5422D01*
X5478Y1121D01*
X5497Y1140D01*
X5516Y1177D01*
X3091Y13543D02*
Y13825D01*
X3109Y13881D01*
X3147Y13918D01*
X3203Y13937D01*
X3241D01*
X3297Y13918D01*
X3334Y13881D01*
X3353Y13825D01*
Y13543D01*
X3649D02*
X3462Y13806D01*
X3743D01*
X3649Y13543D02*
Y13937D01*
M02*
