%FSLAX24Y24*%
%MOIN*%
G70*
G01*
G75*
G04 Layer_Color=16777215*
%ADD10C,0.0098*%
%ADD11R,0.0299X0.0945*%
%ADD12R,0.0315X0.0354*%
%ADD13R,0.0354X0.0315*%
%ADD14R,0.0276X0.0394*%
%ADD15R,0.0236X0.0886*%
%ADD16R,0.0591X0.0295*%
%ADD17R,0.0295X0.0591*%
%ADD18R,0.0354X0.0315*%
%ADD19R,0.0492X0.0433*%
%ADD20R,0.0906X0.0906*%
%ADD21R,0.0197X0.0236*%
%ADD22R,0.0236X0.0197*%
%ADD23R,0.0394X0.0276*%
%ADD24R,0.0315X0.0630*%
%ADD25R,0.0846X0.0335*%
%ADD26C,0.0335*%
%ADD27R,0.0335X0.0846*%
%ADD28R,0.0886X0.0236*%
%ADD29C,0.0276*%
%ADD30C,0.0118*%
%ADD31C,0.0138*%
%ADD32C,0.0079*%
%ADD33C,0.0197*%
%ADD34O,0.0472X0.0394*%
%ADD35R,0.0472X0.0394*%
%ADD36O,0.0669X0.1181*%
%ADD37C,0.0380*%
%ADD38R,0.0630X0.0315*%
%ADD39R,0.0906X0.0236*%
%ADD40R,0.0630X0.1063*%
%ADD41R,0.0358X0.0480*%
%ADD42R,0.0480X0.0358*%
%ADD43R,0.0118X0.0295*%
%ADD44R,0.2165X0.0827*%
%ADD45C,0.0100*%
%ADD46C,0.0236*%
%ADD47C,0.0394*%
%ADD48C,0.0039*%
%ADD49C,0.0061*%
G36*
X5061Y1732D02*
X5013D01*
Y1781D01*
X5061D01*
Y1732D01*
D02*
G37*
G36*
X2828Y1772D02*
X2779D01*
Y1954D01*
X2779Y1953D01*
X2778Y1953D01*
X2776Y1951D01*
X2775Y1949D01*
X2772Y1948D01*
X2769Y1945D01*
X2765Y1943D01*
X2761Y1940D01*
X2757Y1937D01*
X2752Y1934D01*
X2742Y1928D01*
X2730Y1922D01*
X2717Y1917D01*
Y1961D01*
X2717D01*
X2717Y1961D01*
X2718Y1962D01*
X2720Y1962D01*
X2724Y1964D01*
X2729Y1966D01*
X2735Y1969D01*
X2742Y1974D01*
X2750Y1978D01*
X2758Y1984D01*
X2758Y1985D01*
X2759Y1985D01*
X2760Y1986D01*
X2761Y1987D01*
X2765Y1991D01*
X2770Y1996D01*
X2775Y2002D01*
X2780Y2009D01*
X2785Y2016D01*
X2788Y2025D01*
X2828D01*
Y1772D01*
D02*
G37*
G36*
X4890Y1985D02*
X4893Y1985D01*
X4897Y1984D01*
X4901Y1983D01*
X4906Y1981D01*
X4911Y1980D01*
X4916Y1978D01*
X4921Y1976D01*
X4926Y1973D01*
X4932Y1969D01*
X4937Y1965D01*
X4942Y1961D01*
X4947Y1955D01*
X4947Y1955D01*
X4948Y1954D01*
X4949Y1952D01*
X4951Y1950D01*
X4953Y1947D01*
X4954Y1942D01*
X4957Y1938D01*
X4959Y1932D01*
X4961Y1926D01*
X4964Y1919D01*
X4966Y1910D01*
X4967Y1902D01*
X4969Y1892D01*
X4970Y1882D01*
X4971Y1870D01*
X4971Y1858D01*
Y1857D01*
Y1855D01*
Y1851D01*
X4971Y1847D01*
X4971Y1841D01*
X4970Y1834D01*
X4969Y1827D01*
X4968Y1819D01*
X4965Y1803D01*
X4963Y1795D01*
X4961Y1786D01*
X4958Y1779D01*
X4954Y1771D01*
X4950Y1764D01*
X4946Y1758D01*
X4945Y1758D01*
X4944Y1757D01*
X4943Y1755D01*
X4941Y1753D01*
X4938Y1751D01*
X4935Y1748D01*
X4932Y1746D01*
X4928Y1743D01*
X4923Y1740D01*
X4918Y1737D01*
X4913Y1735D01*
X4907Y1732D01*
X4900Y1730D01*
X4894Y1729D01*
X4886Y1728D01*
X4879Y1728D01*
X4876D01*
X4874Y1728D01*
X4872D01*
X4869Y1728D01*
X4862Y1730D01*
X4855Y1732D01*
X4847Y1734D01*
X4838Y1738D01*
X4831Y1743D01*
Y1744D01*
X4830Y1744D01*
X4828Y1746D01*
X4825Y1750D01*
X4822Y1755D01*
X4818Y1762D01*
X4814Y1770D01*
X4810Y1780D01*
X4808Y1790D01*
X4855Y1796D01*
Y1795D01*
X4855Y1793D01*
X4856Y1791D01*
X4857Y1788D01*
X4858Y1784D01*
X4859Y1780D01*
X4861Y1777D01*
X4863Y1774D01*
X4864Y1774D01*
X4865Y1773D01*
X4867Y1772D01*
X4868Y1771D01*
X4872Y1770D01*
X4875Y1769D01*
X4878Y1768D01*
X4883Y1768D01*
X4883D01*
X4885Y1768D01*
X4888Y1768D01*
X4891Y1769D01*
X4895Y1771D01*
X4900Y1773D01*
X4904Y1776D01*
X4908Y1781D01*
X4908Y1782D01*
X4909Y1783D01*
X4910Y1784D01*
X4911Y1786D01*
X4911Y1788D01*
X4913Y1790D01*
X4914Y1793D01*
X4915Y1797D01*
X4916Y1801D01*
X4917Y1806D01*
X4918Y1811D01*
X4919Y1817D01*
X4920Y1823D01*
X4921Y1831D01*
X4921Y1838D01*
X4921Y1838D01*
X4921Y1838D01*
X4920Y1836D01*
X4918Y1835D01*
X4914Y1832D01*
X4909Y1828D01*
X4902Y1824D01*
X4895Y1821D01*
X4886Y1818D01*
X4881Y1818D01*
X4876Y1817D01*
X4873D01*
X4871Y1818D01*
X4868Y1818D01*
X4865Y1818D01*
X4858Y1820D01*
X4850Y1823D01*
X4846Y1824D01*
X4842Y1827D01*
X4837Y1829D01*
X4833Y1833D01*
X4829Y1836D01*
X4825Y1840D01*
X4824Y1840D01*
X4824Y1841D01*
X4823Y1842D01*
X4821Y1844D01*
X4820Y1846D01*
X4818Y1849D01*
X4816Y1852D01*
X4814Y1856D01*
X4812Y1860D01*
X4810Y1864D01*
X4808Y1869D01*
X4807Y1875D01*
X4804Y1887D01*
X4804Y1893D01*
X4803Y1900D01*
Y1900D01*
Y1901D01*
Y1904D01*
X4804Y1906D01*
X4804Y1909D01*
X4804Y1913D01*
X4805Y1917D01*
X4806Y1922D01*
X4809Y1932D01*
X4810Y1937D01*
X4813Y1942D01*
X4815Y1947D01*
X4819Y1952D01*
X4822Y1957D01*
X4826Y1962D01*
X4826Y1962D01*
X4827Y1963D01*
X4828Y1964D01*
X4830Y1965D01*
X4832Y1967D01*
X4835Y1969D01*
X4838Y1971D01*
X4842Y1973D01*
X4845Y1976D01*
X4850Y1978D01*
X4855Y1980D01*
X4860Y1981D01*
X4865Y1983D01*
X4871Y1984D01*
X4877Y1985D01*
X4884Y1985D01*
X4888D01*
X4890Y1985D01*
D02*
G37*
%LPC*%
G36*
X4881Y1945D02*
X4879D01*
X4877Y1945D01*
X4874Y1944D01*
X4870Y1943D01*
X4867Y1941D01*
X4863Y1938D01*
X4859Y1935D01*
X4859Y1934D01*
X4858Y1933D01*
X4857Y1930D01*
X4855Y1926D01*
X4853Y1922D01*
X4852Y1915D01*
X4851Y1908D01*
X4851Y1900D01*
Y1899D01*
Y1899D01*
Y1897D01*
Y1896D01*
X4851Y1891D01*
X4852Y1886D01*
X4853Y1880D01*
X4855Y1874D01*
X4857Y1869D01*
X4860Y1864D01*
X4860Y1863D01*
X4862Y1862D01*
X4864Y1860D01*
X4867Y1858D01*
X4870Y1856D01*
X4874Y1854D01*
X4879Y1853D01*
X4884Y1852D01*
X4886D01*
X4889Y1853D01*
X4892Y1854D01*
X4896Y1855D01*
X4900Y1857D01*
X4904Y1860D01*
X4908Y1863D01*
X4908Y1864D01*
X4909Y1865D01*
X4911Y1868D01*
X4913Y1872D01*
X4914Y1876D01*
X4916Y1882D01*
X4917Y1888D01*
X4917Y1896D01*
Y1896D01*
Y1897D01*
Y1898D01*
Y1900D01*
X4917Y1904D01*
X4916Y1909D01*
X4915Y1915D01*
X4913Y1921D01*
X4910Y1927D01*
X4906Y1932D01*
X4906Y1933D01*
X4905Y1934D01*
X4902Y1937D01*
X4899Y1939D01*
X4896Y1941D01*
X4891Y1943D01*
X4886Y1945D01*
X4881Y1945D01*
D02*
G37*
%LPD*%
D10*
X2902Y12795D02*
G03*
X2902Y12795I-49J0D01*
G01*
X7254Y2953D02*
G03*
X7254Y2953I-49J0D01*
G01*
X11978Y10612D02*
G03*
X11978Y10612I-49J0D01*
G01*
X2862Y4764D02*
G03*
X2862Y4764I-49J0D01*
G01*
D30*
X2726Y11555D02*
X2953Y11782D01*
X3819D01*
X2953Y11929D02*
X3819D01*
Y11782D02*
X4045Y11555D01*
D32*
X2953Y13307D02*
Y14331D01*
X4921D01*
X2953Y13307D02*
X4921D01*
Y14331D01*
X6535Y3110D02*
Y3386D01*
Y3110D02*
X6811D01*
X6535Y4016D02*
Y4291D01*
X6811D01*
X2726Y8907D02*
Y11555D01*
Y8907D02*
X4045D01*
X2726Y10630D02*
X4045D01*
Y8907D02*
Y11555D01*
X12441Y8543D02*
Y10512D01*
X13465Y8543D02*
Y10512D01*
X12441Y8543D02*
X13465D01*
X12441Y10512D02*
X13465D01*
X2913Y5276D02*
Y6299D01*
X4882D01*
X2913Y5276D02*
X4882D01*
Y6299D01*
X11220Y11260D02*
X11575D01*
X11102Y11378D02*
X11220Y11260D01*
D45*
X6339Y12520D02*
G03*
X6293Y12496I-45J32D01*
G01*
X1535Y10315D02*
G03*
X1581Y10338I45J-32D01*
G01*
X15449Y12497D02*
G03*
X15449Y12497I-56J0D01*
G01*
X8284Y10338D02*
G03*
X8284Y10338I-56J0D01*
G01*
X12795Y14911D02*
G03*
X12795Y14911I-49J0D01*
G01*
X8904Y8435D02*
G03*
X8904Y8435I-56J0D01*
G01*
X14379Y236D02*
G03*
X14379Y236I-88J0D01*
G01*
X7587Y13024D02*
X7687D01*
Y8516D02*
Y13024D01*
X6487Y8516D02*
X7687D01*
X6487D02*
Y13024D01*
X7587D01*
X187Y9811D02*
X287D01*
X187D02*
Y14319D01*
X1387D01*
Y9811D02*
Y14319D01*
X287Y9811D02*
X1387D01*
X3553Y7687D02*
Y8071D01*
X3365Y3632D02*
Y4016D01*
X4488Y11191D02*
X4872D01*
X2638Y14686D02*
Y15306D01*
X9970Y541D02*
X9980Y531D01*
X9970Y541D02*
Y6654D01*
X13268D01*
X9980Y531D02*
X13268D01*
Y6654D01*
D46*
X3465Y13701D02*
G03*
X3465Y13701I-118J0D01*
G01*
X12953Y10118D02*
G03*
X12953Y10118I-118J0D01*
G01*
X3425Y5669D02*
G03*
X3425Y5669I-118J0D01*
G01*
D47*
X12888Y827D02*
G03*
X12888Y827I-2J0D01*
G01*
D48*
X11654Y11093D02*
X11782Y10965D01*
X12244D01*
X11654Y11093D02*
X11782Y10965D01*
X11654Y11093D02*
Y11535D01*
X11791Y11673D01*
X11663Y11545D02*
X11791Y11673D01*
X12244D01*
X12795Y10965D02*
X13386D01*
Y11673D01*
X12795D02*
X13386D01*
D49*
X9780Y9911D02*
X9649D01*
X9714D01*
Y9583D01*
X9649Y9518D01*
X9583D01*
X9518Y9583D01*
X9911Y9911D02*
X10174D01*
Y9846D01*
X9911Y9583D01*
Y9518D01*
X3924Y8635D02*
X3858Y8701D01*
X3727D01*
X3661Y8635D01*
Y8373D01*
X3727Y8307D01*
X3858D01*
X3924Y8373D01*
X4055Y8307D02*
X4186D01*
X4121D01*
Y8701D01*
X4055Y8635D01*
X4383D02*
X4449Y8701D01*
X4580D01*
X4645Y8635D01*
Y8569D01*
X4580Y8504D01*
X4514D01*
X4580D01*
X4645Y8438D01*
Y8373D01*
X4580Y8307D01*
X4449D01*
X4383Y8373D01*
X5157Y15197D02*
Y14869D01*
X5223Y14803D01*
X5354D01*
X5420Y14869D01*
Y15197D01*
X5551Y15131D02*
X5617Y15197D01*
X5748D01*
X5813Y15131D01*
Y15066D01*
X5748Y15000D01*
X5682D01*
X5748D01*
X5813Y14934D01*
Y14869D01*
X5748Y14803D01*
X5617D01*
X5551Y14869D01*
X10079Y10276D02*
X9685D01*
Y10472D01*
X9751Y10538D01*
X9882D01*
X9948Y10472D01*
Y10276D01*
Y10407D02*
X10079Y10538D01*
X9751Y10669D02*
X9685Y10735D01*
Y10866D01*
X9751Y10932D01*
X9816D01*
X9882Y10866D01*
Y10800D01*
Y10866D01*
X9948Y10932D01*
X10013D01*
X10079Y10866D01*
Y10735D01*
X10013Y10669D01*
X10079Y11063D02*
Y11194D01*
Y11128D01*
X9685D01*
X9751Y11063D01*
X14616Y10787D02*
X14223D01*
Y10984D01*
X14288Y11050D01*
X14419D01*
X14485Y10984D01*
Y10787D01*
Y10919D02*
X14616Y11050D01*
Y11443D02*
Y11181D01*
X14354Y11443D01*
X14288D01*
X14223Y11378D01*
Y11247D01*
X14288Y11181D01*
X14616Y11771D02*
X14223D01*
X14419Y11575D01*
Y11837D01*
X15610Y7303D02*
X15217D01*
Y7500D01*
X15282Y7566D01*
X15413D01*
X15479Y7500D01*
Y7303D01*
Y7434D02*
X15610Y7566D01*
Y7959D02*
Y7697D01*
X15348Y7959D01*
X15282D01*
X15217Y7894D01*
Y7762D01*
X15282Y7697D01*
Y8090D02*
X15217Y8156D01*
Y8287D01*
X15282Y8353D01*
X15348D01*
X15413Y8287D01*
Y8221D01*
Y8287D01*
X15479Y8353D01*
X15545D01*
X15610Y8287D01*
Y8156D01*
X15545Y8090D01*
X13417Y14419D02*
Y14813D01*
X13614D01*
X13679Y14747D01*
Y14616D01*
X13614Y14550D01*
X13417D01*
X13548D02*
X13679Y14419D01*
X14073D02*
X13811D01*
X14073Y14682D01*
Y14747D01*
X14007Y14813D01*
X13876D01*
X13811Y14747D01*
X14467Y14419D02*
X14204D01*
X14467Y14682D01*
Y14747D01*
X14401Y14813D01*
X14270D01*
X14204Y14747D01*
X6969Y5465D02*
X6575D01*
Y5662D01*
X6641Y5728D01*
X6772D01*
X6837Y5662D01*
Y5465D01*
Y5596D02*
X6969Y5728D01*
Y5859D02*
Y5990D01*
Y5924D01*
X6575D01*
X6641Y5859D01*
X6969Y6384D02*
X6575D01*
X6772Y6187D01*
Y6449D01*
X7021Y2338D02*
X6759D01*
X6693Y2272D01*
Y2141D01*
X6759Y2076D01*
X7021D01*
X7087Y2141D01*
Y2272D01*
X6955Y2207D02*
X7087Y2338D01*
Y2272D02*
X7021Y2338D01*
X6693Y2732D02*
Y2469D01*
X6890D01*
X6824Y2600D01*
Y2666D01*
X6890Y2732D01*
X7021D01*
X7087Y2666D01*
Y2535D01*
X7021Y2469D01*
X10374Y11909D02*
Y11516D01*
X10636D01*
X11030Y11909D02*
X10768D01*
Y11713D01*
X10899Y11778D01*
X10964D01*
X11030Y11713D01*
Y11581D01*
X10964Y11516D01*
X10833D01*
X10768Y11581D01*
X9016Y11562D02*
Y11430D01*
Y11496D01*
X9344D01*
X9409Y11430D01*
Y11365D01*
X9344Y11299D01*
X9409Y11890D02*
X9016D01*
X9213Y11693D01*
Y11955D01*
X7047Y13491D02*
Y13360D01*
Y13425D01*
X7375D01*
X7441Y13360D01*
Y13294D01*
X7375Y13228D01*
X7113Y13622D02*
X7047Y13688D01*
Y13819D01*
X7113Y13884D01*
X7179D01*
X7244Y13819D01*
Y13753D01*
Y13819D01*
X7310Y13884D01*
X7375D01*
X7441Y13819D01*
Y13688D01*
X7375Y13622D01*
X656Y9646D02*
X525D01*
X590D01*
Y9318D01*
X525Y9252D01*
X459D01*
X394Y9318D01*
X1050Y9252D02*
X787D01*
X1050Y9514D01*
Y9580D01*
X984Y9646D01*
X853D01*
X787Y9580D01*
X3924Y1929D02*
X3793D01*
X3858D01*
Y1601D01*
X3793Y1535D01*
X3727D01*
X3661Y1601D01*
X4055Y1535D02*
X4186D01*
X4121D01*
Y1929D01*
X4055Y1863D01*
X2912Y8150D02*
X3306D01*
Y8346D01*
X3240Y8412D01*
X2978D01*
X2912Y8346D01*
Y8150D01*
X3306Y8543D02*
Y8674D01*
Y8609D01*
X2912D01*
X2978Y8543D01*
X14810Y2123D02*
X14744Y2057D01*
Y1926D01*
X14810Y1860D01*
X15072D01*
X15138Y1926D01*
Y2057D01*
X15072Y2123D01*
X15138Y2254D02*
Y2385D01*
Y2319D01*
X14744D01*
X14810Y2254D01*
X14744Y2844D02*
X14810Y2713D01*
X14941Y2582D01*
X15072D01*
X15138Y2647D01*
Y2779D01*
X15072Y2844D01*
X15007D01*
X14941Y2779D01*
Y2582D01*
X14829Y4147D02*
X14764Y4212D01*
X14633D01*
X14567Y4147D01*
Y3884D01*
X14633Y3819D01*
X14764D01*
X14829Y3884D01*
X14961Y3819D02*
X15092D01*
X15026D01*
Y4212D01*
X14961Y4147D01*
X15551Y4212D02*
X15288D01*
Y4016D01*
X15420Y4081D01*
X15485D01*
X15551Y4016D01*
Y3884D01*
X15485Y3819D01*
X15354D01*
X15288Y3884D01*
X9987Y9108D02*
X9921Y9173D01*
X9790D01*
X9724Y9108D01*
Y8845D01*
X9790Y8780D01*
X9921D01*
X9987Y8845D01*
X10118Y8780D02*
X10249D01*
X10184D01*
Y9173D01*
X10118Y9108D01*
X10643Y8780D02*
Y9173D01*
X10446Y8976D01*
X10708D01*
X3648Y3359D02*
X3583Y3425D01*
X3451D01*
X3386Y3359D01*
Y3097D01*
X3451Y3031D01*
X3583D01*
X3648Y3097D01*
X3779Y3031D02*
X3911D01*
X3845D01*
Y3425D01*
X3779Y3359D01*
X4370Y3031D02*
X4107D01*
X4370Y3294D01*
Y3359D01*
X4304Y3425D01*
X4173D01*
X4107Y3359D01*
X15223Y6355D02*
X15158Y6289D01*
Y6158D01*
X15223Y6093D01*
X15486D01*
X15551Y6158D01*
Y6289D01*
X15486Y6355D01*
Y6486D02*
X15551Y6552D01*
Y6683D01*
X15486Y6748D01*
X15223D01*
X15158Y6683D01*
Y6552D01*
X15223Y6486D01*
X15289D01*
X15354Y6552D01*
Y6748D01*
X14702Y15184D02*
X14636Y15118D01*
Y14987D01*
X14702Y14921D01*
X14964D01*
X15030Y14987D01*
Y15118D01*
X14964Y15184D01*
X14702Y15315D02*
X14636Y15380D01*
Y15512D01*
X14702Y15577D01*
X14767D01*
X14833Y15512D01*
X14898Y15577D01*
X14964D01*
X15030Y15512D01*
Y15380D01*
X14964Y15315D01*
X14898D01*
X14833Y15380D01*
X14767Y15315D01*
X14702D01*
X14833Y15380D02*
Y15512D01*
X4578Y10577D02*
X4512Y10512D01*
Y10381D01*
X4578Y10315D01*
X4840D01*
X4905Y10381D01*
Y10512D01*
X4840Y10577D01*
X4512Y10709D02*
Y10971D01*
X4578D01*
X4840Y10709D01*
X4905D01*
X1837Y14462D02*
X1772Y14527D01*
X1640D01*
X1575Y14462D01*
Y14199D01*
X1640Y14134D01*
X1772D01*
X1837Y14199D01*
X2231Y14527D02*
X2100Y14462D01*
X1968Y14331D01*
Y14199D01*
X2034Y14134D01*
X2165D01*
X2231Y14199D01*
Y14265D01*
X2165Y14331D01*
X1968D01*
X13884Y7808D02*
X13819Y7874D01*
X13688D01*
X13622Y7808D01*
Y7546D01*
X13688Y7480D01*
X13819D01*
X13884Y7546D01*
X14016Y7480D02*
X14147D01*
X14081D01*
Y7874D01*
X14016Y7808D01*
X8593Y3986D02*
X8921D01*
X8986Y4052D01*
Y4183D01*
X8921Y4249D01*
X8593D01*
Y4642D02*
Y4380D01*
X8789D01*
X8724Y4511D01*
Y4577D01*
X8789Y4642D01*
X8921D01*
X8986Y4577D01*
Y4445D01*
X8921Y4380D01*
X14508Y13107D02*
Y12976D01*
Y13041D01*
X14836D01*
X14902Y12976D01*
Y12910D01*
X14836Y12844D01*
X14508Y13500D02*
Y13238D01*
X14705D01*
X14639Y13369D01*
Y13435D01*
X14705Y13500D01*
X14836D01*
X14902Y13435D01*
Y13304D01*
X14836Y13238D01*
X10866Y8819D02*
X11194D01*
X11260Y8884D01*
Y9016D01*
X11194Y9081D01*
X10866D01*
X11260Y9475D02*
Y9212D01*
X10997Y9475D01*
X10932D01*
X10866Y9409D01*
Y9278D01*
X10932Y9212D01*
X9190Y15423D02*
X9058D01*
X9124D01*
Y15095D01*
X9058Y15030D01*
X8993D01*
X8927Y15095D01*
X9583Y15423D02*
X9452Y15358D01*
X9321Y15226D01*
Y15095D01*
X9386Y15030D01*
X9518D01*
X9583Y15095D01*
Y15161D01*
X9518Y15226D01*
X9321D01*
X11496Y14843D02*
Y15236D01*
X11693D01*
X11758Y15171D01*
Y15039D01*
X11693Y14974D01*
X11496D01*
X11890Y14843D02*
X12021D01*
X11955D01*
Y15236D01*
X11890Y15171D01*
X4606Y3425D02*
X4934D01*
X5000Y3491D01*
Y3622D01*
X4934Y3688D01*
X4606D01*
Y3819D02*
Y4081D01*
X4672D01*
X4934Y3819D01*
X5000D01*
X679Y4902D02*
X286D01*
Y5098D01*
X351Y5164D01*
X482D01*
X548Y5098D01*
Y4902D01*
X417Y5361D02*
Y5492D01*
X482Y5558D01*
X679D01*
Y5361D01*
X614Y5295D01*
X548Y5361D01*
Y5558D01*
X417Y5689D02*
X679D01*
X548D01*
X482Y5754D01*
X417Y5820D01*
Y5886D01*
X351Y6148D02*
X417D01*
Y6082D01*
Y6213D01*
Y6148D01*
X614D01*
X679Y6213D01*
X286Y6804D02*
X679D01*
Y7001D01*
X614Y7066D01*
X548D01*
X482Y7001D01*
Y6804D01*
Y7001D01*
X417Y7066D01*
X351D01*
X286Y7001D01*
Y6804D01*
X8445Y1230D02*
X8051D01*
Y1427D01*
X8117Y1493D01*
X8248D01*
X8314Y1427D01*
Y1230D01*
X8183Y1689D02*
Y1821D01*
X8248Y1886D01*
X8445D01*
Y1689D01*
X8379Y1624D01*
X8314Y1689D01*
Y1886D01*
X8183Y2017D02*
X8445D01*
X8314D01*
X8248Y2083D01*
X8183Y2149D01*
Y2214D01*
X8117Y2477D02*
X8183D01*
Y2411D01*
Y2542D01*
Y2477D01*
X8379D01*
X8445Y2542D01*
Y2739D02*
X8183D01*
X8051Y2870D01*
X8183Y3001D01*
X8445D01*
X8248D01*
Y2739D01*
X8107Y3796D02*
X8041Y3730D01*
Y3599D01*
X8107Y3533D01*
X8369D01*
X8435Y3599D01*
Y3730D01*
X8369Y3796D01*
X8435Y3927D02*
Y4058D01*
Y3993D01*
X8173D01*
Y3927D01*
X8107Y4321D02*
X8173D01*
Y4255D01*
Y4386D01*
Y4321D01*
X8369D01*
X8435Y4386D01*
Y4649D02*
Y4780D01*
X8369Y4845D01*
X8238D01*
X8173Y4780D01*
Y4649D01*
X8238Y4583D01*
X8369D01*
X8435Y4649D01*
X8173Y4977D02*
Y5239D01*
X8435Y4977D01*
Y5239D01*
Y5370D02*
Y5501D01*
Y5436D01*
X8173D01*
Y5370D01*
X8435Y5698D02*
X8173D01*
Y5895D01*
X8238Y5961D01*
X8435D01*
X8173Y6485D02*
X8435Y6616D01*
X8173Y6748D01*
X8435Y6879D02*
Y7010D01*
Y6944D01*
X8041D01*
X8107Y6879D01*
X8435Y7207D02*
X8369D01*
Y7272D01*
X8435D01*
Y7207D01*
Y7535D02*
Y7666D01*
Y7600D01*
X8041D01*
X8107Y7535D01*
X8435Y7863D02*
X8369D01*
Y7928D01*
X8435D01*
Y7863D01*
Y8191D02*
Y8322D01*
Y8256D01*
X8041D01*
X8107Y8191D01*
M02*
