%FSLAX24Y24*%
%MOIN*%
G70*
G01*
G75*
G04 Layer_Physical_Order=2*
G04 Layer_Color=48896*
%ADD10C,0.0098*%
%ADD11R,0.0299X0.0945*%
%ADD12R,0.0315X0.0354*%
%ADD13R,0.0354X0.0315*%
%ADD14R,0.0276X0.0394*%
%ADD15R,0.0236X0.0886*%
%ADD16R,0.0591X0.0295*%
%ADD17R,0.0295X0.0591*%
%ADD18R,0.0354X0.0315*%
%ADD19R,0.0492X0.0433*%
%ADD20R,0.0906X0.0906*%
%ADD21R,0.0197X0.0236*%
%ADD22R,0.0236X0.0197*%
%ADD23R,0.0394X0.0276*%
%ADD24R,0.0315X0.0630*%
%ADD25R,0.0846X0.0335*%
%ADD26C,0.0335*%
%ADD27R,0.0335X0.0846*%
%ADD28R,0.0886X0.0236*%
%ADD29C,0.0276*%
%ADD30C,0.0118*%
%ADD31C,0.0138*%
%ADD32C,0.0079*%
%ADD33C,0.0197*%
%ADD34O,0.0472X0.0394*%
%ADD35R,0.0472X0.0394*%
%ADD36O,0.0669X0.1181*%
%ADD37C,0.0380*%
%ADD38R,0.0630X0.0315*%
%ADD39R,0.0906X0.0236*%
%ADD40R,0.0630X0.1063*%
%ADD41R,0.0358X0.0480*%
%ADD42R,0.0480X0.0358*%
%ADD43R,0.0118X0.0295*%
%ADD44R,0.2165X0.0827*%
D10*
X6132Y13642D02*
G03*
X5902Y14063I-502J0D01*
G01*
X6587Y10817D02*
G03*
X6719Y10865I0J207D01*
G01*
D02*
G03*
X6782Y10774I328J158D01*
G01*
X6587Y10817D02*
G03*
X6719Y10865I0J207D01*
G01*
X6782Y10774D02*
G03*
X6782Y10274I265J-250D01*
G01*
X6795Y9761D02*
G03*
X6808Y9274I252J-237D01*
G01*
X6782Y10274D02*
G03*
X6795Y9761I265J-250D01*
G01*
X6808Y9274D02*
G03*
X7047Y8678I240J-250D01*
G01*
X7126D02*
G03*
X7274Y8711I0J346D01*
G01*
X6013Y12805D02*
G03*
X6132Y13130I-383J325D01*
G01*
Y10492D02*
G03*
X6013Y10817I-502J0D01*
G01*
X5128Y9980D02*
G03*
X6132Y9980I502J0D01*
G01*
Y8917D02*
G03*
X5154Y9076I-502J0D01*
G01*
X5285Y8040D02*
G03*
X6132Y8406I344J365D01*
G01*
X5358Y14063D02*
G03*
X5128Y13642I272J-422D01*
G01*
Y13130D02*
G03*
X5247Y12805I502J0D01*
G01*
X5051Y10877D02*
G03*
X5197Y10817I146J146D01*
G01*
X5051Y10877D02*
G03*
X5197Y10817I146J146D01*
G01*
X4718Y13848D02*
G03*
X4672Y14023I-357J0D01*
G01*
X4021Y13960D02*
G03*
X4718Y13848I340J-111D01*
G01*
X5247Y10817D02*
G03*
X5128Y10492I383J-325D01*
G01*
X4075Y9656D02*
G03*
X4135Y9509I207J0D01*
G01*
X4075Y9656D02*
G03*
X4135Y9509I207J0D01*
G01*
X4577Y8737D02*
G03*
X4516Y8883I-207J0D01*
G01*
X4577Y8737D02*
G03*
X4516Y8884I-207J0D01*
G01*
X4356Y9044D02*
G03*
X4281Y9092I-146J-146D01*
G01*
X4356Y9044D02*
G03*
X4281Y9092I-146J-146D01*
G01*
X6132Y7343D02*
G03*
X6130Y7382I-502J0D01*
G01*
X5225Y7689D02*
G03*
X5285Y7835I-146J146D01*
G01*
X5225Y7688D02*
G03*
X5285Y7835I-146J146D01*
G01*
X6130Y7382D02*
G03*
X5128Y7343I-500J-40D01*
G01*
Y6831D02*
G03*
X6130Y6791I502J0D01*
G01*
X6271Y6091D02*
G03*
X6211Y5945I146J-146D01*
G01*
X6271Y6091D02*
G03*
X6211Y5945I146J-146D01*
G01*
X6139Y4990D02*
G03*
X6229Y4400I239J-266D01*
G01*
X6620Y695D02*
G03*
X6704Y197I664J-144D01*
G01*
X6288Y563D02*
G03*
X6348Y695I-146J146D01*
G01*
X6288Y563D02*
G03*
X6348Y695I-146J146D01*
G01*
X6029Y3376D02*
G03*
X6132Y3681I-399J305D01*
G01*
Y5768D02*
G03*
X5128Y5768I-502J0D01*
G01*
Y5256D02*
G03*
X6073Y5020I502J0D01*
G01*
X5925Y285D02*
G03*
X6071Y346I0J207D01*
G01*
X5925Y285D02*
G03*
X6071Y346I0J207D01*
G01*
X6132Y4193D02*
G03*
X5128Y4193I-502J0D01*
G01*
Y3681D02*
G03*
X5231Y3376I502J0D01*
G01*
X4892Y6339D02*
G03*
X4831Y6485I-207J0D01*
G01*
X4892Y6339D02*
G03*
X4831Y6485I-207J0D01*
G01*
X4070Y7459D02*
G03*
X3923Y7399I0J-207D01*
G01*
X4070Y7459D02*
G03*
X3923Y7399I0J-207D01*
G01*
X4831Y3830D02*
G03*
X4892Y3976I-146J146D01*
G01*
X4831Y3830D02*
G03*
X4892Y3976I-146J146D01*
G01*
X4370Y3455D02*
G03*
X4516Y3515I0J207D01*
G01*
X4370Y3455D02*
G03*
X4516Y3515I0J207D01*
G01*
X3237Y14272D02*
G03*
X3880Y13960I316J-167D01*
G01*
X3159Y13780D02*
G03*
X3099Y13926I-207J0D01*
G01*
X3159Y13780D02*
G03*
X3099Y13926I-207J0D01*
G01*
X3797Y7272D02*
G03*
X3736Y7126I146J-146D01*
G01*
X3797Y7272D02*
G03*
X3736Y7126I146J-146D01*
G01*
Y6613D02*
G03*
X3795Y6468I207J0D01*
G01*
X3736Y6613D02*
G03*
X3795Y6468I207J0D01*
G01*
X2767Y9125D02*
G03*
X2805Y9096I146J146D01*
G01*
X2767Y9125D02*
G03*
X2805Y9096I146J146D01*
G01*
X2728Y8917D02*
G03*
X2603Y9242I-484J0D01*
G01*
X2242Y14834D02*
G03*
X2193Y14910I-194J-70D01*
G01*
X2242Y14834D02*
G03*
X2193Y14910I-194J-70D01*
G01*
X1744Y9303D02*
G03*
X1885Y9242I146J146D01*
G01*
X1744Y9303D02*
G03*
X1885Y9242I146J146D01*
G01*
D02*
G03*
X1760Y8917I359J-325D01*
G01*
X2892Y8020D02*
G03*
X2746Y8081I-146J-146D01*
G01*
X2892Y8020D02*
G03*
X2746Y8081I-146J-146D01*
G01*
X2603D02*
G03*
X2728Y8406I-359J325D01*
G01*
X1760D02*
G03*
X1885Y8081I484J0D01*
G01*
Y7667D02*
G03*
X1760Y7343I359J-325D01*
G01*
Y6831D02*
G03*
X2648Y6564I484J0D01*
G01*
X1586Y7728D02*
G03*
X1732Y7667I146J146D01*
G01*
X1586Y7728D02*
G03*
X1732Y7667I146J146D01*
G01*
X1211Y8189D02*
G03*
X1271Y8043I207J0D01*
G01*
X1211Y8189D02*
G03*
X1271Y8043I207J0D01*
G01*
X2904Y5591D02*
G03*
X2964Y5444I207J0D01*
G01*
X2904Y5591D02*
G03*
X2964Y5444I207J0D01*
G01*
X2746Y5768D02*
G03*
X1742Y5768I-502J0D01*
G01*
X3141Y5267D02*
G03*
X3199Y5227I146J146D01*
G01*
X3141Y5267D02*
G03*
X3199Y5227I146J146D01*
G01*
X2627Y4931D02*
G03*
X2746Y5256I-383J325D01*
G01*
X3307Y699D02*
G03*
X3453Y759I0J207D01*
G01*
X3307Y699D02*
G03*
X3453Y759I0J207D01*
G01*
X1803Y561D02*
G03*
X1862Y444I205J30D01*
G01*
X1803Y561D02*
G03*
X1862Y444I205J30D01*
G01*
X1960Y346D02*
G03*
X2106Y285I146J146D01*
G01*
X1960Y346D02*
G03*
X2106Y285I146J146D01*
G01*
X1742Y5256D02*
G03*
X1861Y4931I502J0D01*
G01*
X868Y3446D02*
G03*
X1006Y3100I352J-60D01*
G01*
X728Y3404D02*
G03*
X668Y3550I-207J0D01*
G01*
X728Y3404D02*
G03*
X668Y3550I-207J0D01*
G01*
X1197Y1112D02*
G03*
X1197Y699I-291J-207D01*
G01*
X15515Y13228D02*
G03*
X15364Y13520I-357J0D01*
G01*
X15266Y12888D02*
G03*
X15515Y13228I-108J341D01*
G01*
X15551Y12356D02*
G03*
X15514Y12405I-197J-112D01*
G01*
X15551Y12356D02*
G03*
X15514Y12404I-197J-112D01*
G01*
X15514Y8609D02*
G03*
X15551Y8658I-160J160D01*
G01*
X15514Y8610D02*
G03*
X15551Y8658I-160J160D01*
G01*
X14677Y8778D02*
G03*
X14921Y8677I244J245D01*
G01*
X14609Y15118D02*
G03*
X13993Y15364I-357J0D01*
G01*
X14352Y14775D02*
G03*
X14609Y15118I-100J343D01*
G01*
X14588Y10876D02*
G03*
X14656Y10774I333J148D01*
G01*
X13947Y14932D02*
G03*
X14152Y14775I305J186D01*
G01*
X14656Y10274D02*
G03*
X14670Y9760I265J-250D01*
G01*
X14801Y8536D02*
G03*
X14734Y8376I160J-160D01*
G01*
X14801Y8536D02*
G03*
X14734Y8376I160J-160D01*
G01*
X14656Y10774D02*
G03*
X14656Y10274I265J-250D01*
G01*
X14670Y9760D02*
G03*
X14575Y9536I252J-237D01*
G01*
X14498Y7457D02*
G03*
X14391Y7400I39J-203D01*
G01*
X14498Y7457D02*
G03*
X14391Y7400I39J-203D01*
G01*
X14382Y9729D02*
G03*
X14293Y9781I-146J-146D01*
G01*
X14382Y9729D02*
G03*
X14293Y9781I-146J-146D01*
G01*
X14311Y7378D02*
G03*
X14448Y7462I-32J204D01*
G01*
X15551Y1787D02*
G03*
X15551Y811I-472J-488D01*
G01*
X13127Y4440D02*
G03*
X13256Y4500I-16J206D01*
G01*
X13127Y4440D02*
G03*
X13256Y4499I-16J206D01*
G01*
X12126Y15364D02*
G03*
X11980Y15304I0J-207D01*
G01*
X12126Y15364D02*
G03*
X11980Y15304I0J-207D01*
G01*
X11565Y8047D02*
G03*
X11890Y7419I207J-291D01*
G01*
X11862Y7390D02*
G03*
X11801Y7244I146J-146D01*
G01*
X11862Y7390D02*
G03*
X11801Y7244I146J-146D01*
G01*
X12530Y4460D02*
G03*
X13127Y4440I305J186D01*
G01*
X11801Y6919D02*
G03*
X11643Y6970I-187J-304D01*
G01*
X11575Y3888D02*
G03*
X11721Y3948I0J207D01*
G01*
X11575Y3888D02*
G03*
X11721Y3948I0J207D01*
G01*
X10883Y8492D02*
G03*
X10722Y8559I-160J-160D01*
G01*
X10883Y8493D02*
G03*
X10722Y8559I-160J-160D01*
G01*
X11201Y8081D02*
G03*
X11134Y8241I-226J0D01*
G01*
X11201Y8081D02*
G03*
X11134Y8241I-226J0D01*
G01*
X8415Y14112D02*
G03*
X8357Y13562I207J-300D01*
G01*
X8358Y13061D02*
G03*
X8261Y12766I265J-250D01*
G01*
X8357Y13562D02*
G03*
X8358Y13061I265J-250D01*
G01*
X8625Y3948D02*
G03*
X8771Y3888I146J146D01*
G01*
X8625Y3948D02*
G03*
X8771Y3888I146J146D01*
G01*
X8122Y12626D02*
G03*
X8071Y12543I146J-146D01*
G01*
X8121Y12626D02*
G03*
X8071Y12543I146J-146D01*
G01*
X11912Y2991D02*
G03*
X11932Y3110I-337J119D01*
G01*
X12413Y3003D02*
G03*
X12559Y2943I146J146D01*
G01*
X12413Y3003D02*
G03*
X12559Y2943I146J146D01*
G01*
X12312Y2807D02*
G03*
X12372Y2953I-146J146D01*
G01*
X12312Y2807D02*
G03*
X12372Y2953I-146J146D01*
G01*
X11406Y3493D02*
G03*
X11260Y3553I-146J-146D01*
G01*
X11406Y3493D02*
G03*
X11260Y3553I-146J-146D01*
G01*
X11932Y3110D02*
G03*
X11453Y3446I-357J0D01*
G01*
X11811Y2392D02*
G03*
X11957Y2452I0J207D01*
G01*
X11811Y2392D02*
G03*
X11957Y2452I0J207D01*
G01*
X8937Y3553D02*
G03*
X8791Y3493I0J-207D01*
G01*
X8937Y3553D02*
G03*
X8791Y3493I0J-207D01*
G01*
X8712Y3414D02*
G03*
X8652Y3268I146J-146D01*
G01*
X8712Y3414D02*
G03*
X8652Y3268I146J-146D01*
G01*
X8205Y2281D02*
G03*
X8239Y2254I146J146D01*
G01*
X8205Y2281D02*
G03*
X8239Y2254I146J146D01*
G01*
X9272Y1722D02*
G03*
X9418Y1783I0J207D01*
G01*
X9272Y1722D02*
G03*
X9418Y1783I0J207D01*
G01*
X3937Y5039D02*
Y6122D01*
X3898Y6161D02*
X3937Y6122D01*
X3543Y6161D02*
X3898D01*
X6963Y15551D02*
X6998Y15516D01*
X6939Y15520D02*
X6998Y15461D01*
X6939Y15551D02*
X6998D01*
Y14774D02*
Y15551D01*
X6939Y15464D02*
X6998Y15405D01*
X6939Y15458D02*
X6998Y15517D01*
X6939Y15408D02*
X6998Y15349D01*
X6939Y15346D02*
X6998Y15405D01*
X6939Y15402D02*
X6998Y15461D01*
X6939Y15291D02*
X6998Y15350D01*
X6939Y15297D02*
X6998Y15238D01*
X6939Y15353D02*
X6998Y15294D01*
X6939Y15068D02*
X6998Y15127D01*
X6939Y15074D02*
X6998Y15015D01*
X6939Y15130D02*
X6998Y15071D01*
X6939Y15019D02*
X6998Y14959D01*
X6939Y14957D02*
X6998Y15016D01*
X6939Y15012D02*
X6998Y15071D01*
X6939Y15241D02*
X6998Y15182D01*
X6939Y15179D02*
X6998Y15238D01*
X6939Y15235D02*
X6998Y15294D01*
X6939Y15124D02*
X6998Y15183D01*
X6939Y15186D02*
X6998Y15127D01*
X6939Y14963D02*
X6998Y14904D01*
X6939Y14901D02*
X6998Y14960D01*
X6939Y15513D02*
X6977Y15551D01*
X6939Y14907D02*
X6998Y14848D01*
X6939Y14790D02*
X6998Y14849D01*
X6939Y14734D02*
Y15551D01*
Y14845D02*
X6998Y14904D01*
X6939Y14852D02*
X6998Y14792D01*
X6939Y14796D02*
X6961Y14774D01*
X6884Y14734D02*
X6939Y14790D01*
X6309Y14756D02*
Y15305D01*
X6961Y14774D02*
X6998Y14737D01*
Y14734D02*
Y14774D01*
X6960D02*
X6998D01*
X6939Y14740D02*
X6960Y14719D01*
Y14699D02*
X6998Y14737D01*
X6889Y14734D02*
X6960Y14663D01*
X6804Y14655D02*
X6884Y14734D01*
X6804D02*
X6939D01*
X6804Y14711D02*
X6828Y14734D01*
X6804Y14599D02*
X6960Y14755D01*
X6834Y14734D02*
X6960Y14608D01*
X6804Y14429D02*
X6960Y14273D01*
X6804Y14265D02*
X6960Y14421D01*
X6804Y14321D02*
X6960Y14477D01*
X6804Y14210D02*
X6960Y14365D01*
X6804Y14318D02*
X6960Y14162D01*
X6804Y14374D02*
X6960Y14218D01*
X6804Y14544D02*
X6960Y14699D01*
X6804Y14652D02*
X6960Y14496D01*
X6804Y14708D02*
X6960Y14552D01*
X6804Y14596D02*
X6960Y14441D01*
X6804Y14377D02*
X6960Y14532D01*
X6804Y14488D02*
X6960Y14644D01*
X6804Y14262D02*
X6960Y14106D01*
X6804Y14098D02*
X6960Y14254D01*
X6804Y14154D02*
X6960Y14310D01*
X6804Y13928D02*
X7106Y13626D01*
X6804Y13873D02*
X7106Y13571D01*
X6960Y13884D02*
X7035Y13809D01*
X6738Y13827D02*
X7066Y13500D01*
X6794Y13827D02*
X7094Y13528D01*
X6683Y13827D02*
X7038Y13472D01*
X6627Y13827D02*
X7010Y13444D01*
X6571Y13827D02*
X6982Y13416D01*
X6804Y14541D02*
X6960Y14385D01*
X6804Y14485D02*
X6960Y14329D01*
X6804Y14432D02*
X6960Y14588D01*
Y13809D02*
Y14774D01*
X6804Y14042D02*
X6960Y14198D01*
X6804Y13827D02*
Y14734D01*
Y14207D02*
X6960Y14051D01*
X6804Y14151D02*
X6960Y13995D01*
X6804Y13987D02*
X6960Y14143D01*
X6804Y13931D02*
X6960Y14087D01*
X6804Y14040D02*
X6960Y13884D01*
X6804Y14095D02*
X6960Y13939D01*
X6804Y13875D02*
X6960Y14031D01*
X6804Y13984D02*
X6960Y13828D01*
X6756Y13827D02*
X6804Y13875D01*
X6460Y13827D02*
X6927Y13361D01*
X6516Y13827D02*
X6954Y13388D01*
X6404Y13827D02*
X6899Y13333D01*
X6349Y13827D02*
X6871Y13305D01*
X6293Y13827D02*
X6843Y13277D01*
X6263Y15305D02*
X6309Y15259D01*
X6191Y15305D02*
X6309D01*
X6191Y15211D02*
X6285Y15305D01*
X6191Y15155D02*
X6309Y15273D01*
X6191Y15265D02*
X6309Y15147D01*
X6207Y15305D02*
X6309Y15203D01*
X6191Y15210D02*
X6309Y15092D01*
X6191Y15044D02*
X6309Y15162D01*
X6191Y15099D02*
X6309Y15218D01*
X6191Y14988D02*
X6309Y15106D01*
X6191Y15098D02*
X6309Y14980D01*
X6191Y15154D02*
X6309Y15036D01*
X6191Y15043D02*
X6309Y14925D01*
X6191Y14877D02*
X6309Y14995D01*
X6191Y14932D02*
X6309Y15050D01*
X6191Y14931D02*
X6309Y14813D01*
X6237Y14756D02*
X6309Y14828D01*
X6191Y14987D02*
X6309Y14869D01*
X6191Y14876D02*
X6309Y14758D01*
X6191Y14756D02*
X6309D01*
X6178Y14833D02*
X6255Y14756D01*
X6102Y14677D02*
X6309Y14883D01*
X6047Y14677D02*
X6309Y14939D01*
X6191Y15266D02*
X6230Y15305D01*
X6147Y14833D02*
X6191Y14877D01*
Y14833D02*
Y15305D01*
X6067Y14833D02*
X6191Y14709D01*
X6123Y14833D02*
X6200Y14756D01*
X6011Y14833D02*
X6167Y14677D01*
X5880D02*
X6036Y14833D01*
X5226D02*
X6191D01*
X5566D02*
X5722Y14677D01*
X5935D02*
X6091Y14833D01*
X5900D02*
X6056Y14677D01*
X6191Y14710D02*
X6237Y14756D01*
X6158Y14677D02*
X6191Y14710D01*
X5713Y14677D02*
X5869Y14833D01*
X5657Y14677D02*
X5813Y14833D01*
X5677D02*
X5833Y14677D01*
X5622Y14833D02*
X5777Y14677D01*
X5510Y14833D02*
X5666Y14677D01*
X5244D02*
X6173D01*
X5490D02*
X5646Y14833D01*
X5601Y14677D02*
X5757Y14833D01*
X5546Y14677D02*
X5701Y14833D01*
X6168Y14063D02*
X6191Y14041D01*
X6112Y14063D02*
X6191Y13985D01*
X6132Y13147D02*
X6960Y13976D01*
X6130Y13090D02*
X6960Y13920D01*
X6191Y13874D02*
X6237Y13827D01*
X6001Y14063D02*
X6191Y13874D01*
X6056Y13907D02*
X6191Y14042D01*
X6057Y14063D02*
X6191Y13929D01*
X5945Y14063D02*
X6787Y13221D01*
X6070Y13883D02*
X6760Y13194D01*
X6109Y13792D02*
X6191Y13875D01*
X6132Y13537D02*
X6422Y13827D01*
X6132Y13481D02*
X6478Y13827D01*
X6132Y13593D02*
X6366Y13827D01*
X6132Y13203D02*
X6756Y13827D01*
X6237D02*
X6815Y13249D01*
X6132Y13314D02*
X6645Y13827D01*
X6128Y13701D02*
X6255Y13827D01*
X6132Y13648D02*
X6311Y13827D01*
X6120Y13748D02*
X6199Y13827D01*
X6121Y13025D02*
X6960Y13864D01*
X6132Y13426D02*
X6533Y13827D01*
X5956Y14833D02*
X6112Y14677D01*
X5991D02*
X6147Y14833D01*
X5844D02*
X6000Y14677D01*
X6191Y13827D02*
Y14756D01*
X6173Y14063D02*
Y14677D01*
X6112D02*
X6173Y14615D01*
X5789Y14833D02*
X5944Y14677D01*
X5824D02*
X5980Y14833D01*
X5768Y14677D02*
X5924Y14833D01*
X5733D02*
X5889Y14677D01*
X6101Y14063D02*
X6173Y14135D01*
X6009Y13971D02*
X6101Y14063D01*
X5982Y14000D02*
X6046Y14063D01*
X6076Y13871D02*
X6191Y13986D01*
X6094Y13833D02*
X6191Y13930D01*
X6034Y13940D02*
X6157Y14063D01*
X5902D02*
X6173D01*
X5953Y14026D02*
X5990Y14063D01*
X7035Y13809D02*
X7106Y13738D01*
X6979Y13809D02*
X7106Y13682D01*
X6960Y13809D02*
X7106D01*
Y13540D02*
Y13809D01*
X6371Y12805D02*
X7106Y13540D01*
X6191Y13827D02*
X6804D01*
X6291Y12805D02*
X7106Y13621D01*
X6132Y13259D02*
X6700Y13827D01*
X6179Y12805D02*
X7106Y13732D01*
X6235Y12805D02*
X7106Y13676D01*
X6346Y12805D02*
X7106Y13565D01*
X6705Y10854D02*
X6763Y10796D01*
X6669Y10834D02*
X6758Y10745D01*
X6627Y10821D02*
X6736Y10712D01*
X6575Y10817D02*
X6716Y10676D01*
X6241Y10817D02*
X6768Y10290D01*
X6519Y10817D02*
X6701Y10636D01*
X6185Y10817D02*
X6758Y10244D01*
X6132Y10252D02*
X6728Y10848D01*
X6132Y13370D02*
X6589Y13827D01*
X6132Y13599D02*
X6648Y13082D01*
X6132Y13130D02*
Y13642D01*
Y13543D02*
X6620Y13054D01*
X6132Y13487D02*
X6593Y13027D01*
X6132Y13264D02*
X6481Y12915D01*
X6132Y13654D02*
X6676Y13110D01*
X6132Y13431D02*
X6565Y12999D01*
X6132Y13376D02*
X6537Y12971D01*
X6132Y13320D02*
X6509Y12943D01*
X6132Y13209D02*
X6453Y12887D01*
X6352Y10817D02*
X6685Y10484D01*
X6464Y10817D02*
X6689Y10591D01*
X6408Y10817D02*
X6683Y10541D01*
X6132Y10308D02*
X6652Y10827D01*
X6297Y10817D02*
X6700Y10413D01*
X6132Y10475D02*
X6474Y10817D01*
X6132Y13153D02*
X6425Y12860D01*
X6131Y10529D02*
X6418Y10817D01*
X6131Y13098D02*
X6398Y12832D01*
X6132Y10363D02*
X6585Y10817D01*
X6132Y10419D02*
X6530Y10817D01*
X6132Y10141D02*
X6774Y10783D01*
X6132Y10425D02*
X6775Y9782D01*
X6132Y10196D02*
X6749Y10814D01*
X6132Y10369D02*
X6770Y9731D01*
X6132Y8637D02*
X6788Y9294D01*
X6132Y8693D02*
X6764Y9325D01*
X7245Y8699D02*
X7274Y8671D01*
X7047Y8678D02*
X7126D01*
X7154Y8679D02*
X7274Y8559D01*
X7099Y8678D02*
X7274Y8504D01*
X7202Y8687D02*
X7274Y8615D01*
X6898Y8712D02*
X7274Y8337D01*
X6981Y8685D02*
X7274Y8392D01*
X7043Y8678D02*
X7274Y8448D01*
X6132Y8866D02*
X7274Y7724D01*
X6132Y8922D02*
X7274Y7780D01*
X6132Y10085D02*
X6711Y10665D01*
X6132Y10029D02*
X6688Y10586D01*
X6132Y9980D02*
Y10492D01*
Y10314D02*
X6748Y9697D01*
X6132Y10146D02*
X6705Y9574D01*
X6132Y10481D02*
X6701Y9912D01*
X6130Y10538D02*
X6685Y9983D01*
X6132Y10258D02*
X6729Y9660D01*
X6132Y9974D02*
X6683Y10525D01*
X6132Y10202D02*
X6715Y9619D01*
X6132Y10091D02*
X6701Y9522D01*
X6132Y10035D02*
X6707Y9460D01*
X6132Y8860D02*
X6712Y9440D01*
X6132Y8916D02*
X6703Y9487D01*
X6132Y8804D02*
X6725Y9398D01*
X6132Y8749D02*
X6743Y9359D01*
X6132Y8415D02*
X6703Y8986D01*
X6132Y9979D02*
X6733Y9378D01*
X6132Y8582D02*
X6748Y9197D01*
X6132Y8526D02*
X6711Y9105D01*
X6132Y8470D02*
X6701Y9040D01*
X6132Y8406D02*
Y8917D01*
X6097Y12945D02*
X6961Y13809D01*
X6110Y13787D02*
X6732Y13166D01*
X6126Y13715D02*
X6704Y13138D01*
X6124Y12805D02*
X7106Y13788D01*
X6130Y10817D02*
X6735Y10211D01*
X6093Y10687D02*
X6689Y10090D01*
X6014Y12807D02*
X7016Y13809D01*
X6068Y12805D02*
X7072Y13809D01*
X6013Y12805D02*
X6371D01*
X6018Y10817D02*
X6700Y10135D01*
X6074Y10817D02*
X6716Y10175D01*
X6013Y10817D02*
X6587D01*
X6127Y9914D02*
X6687Y10473D01*
X6113Y9843D02*
X6696Y10427D01*
X6119Y10605D02*
X6683Y10040D01*
X6077Y9751D02*
X6710Y10385D01*
X5986Y9271D02*
X6687Y9972D01*
X5957Y9298D02*
X6683Y10024D01*
X5819Y9382D02*
X6750Y10313D01*
X5857Y9365D02*
X6775Y10282D01*
X5778Y9397D02*
X6728Y10348D01*
X5893Y9345D02*
X6711Y10163D01*
X5926Y9323D02*
X6688Y10085D01*
X6125Y13048D02*
X6369Y12805D01*
X6115Y13003D02*
X6313Y12805D01*
X6102Y12960D02*
X6257Y12805D01*
X6086Y12920D02*
X6201Y12805D01*
X6114Y10624D02*
X6307Y10817D01*
X6084Y10706D02*
X6196Y10817D01*
X6067Y12884D02*
X6146Y12805D01*
X6046Y12849D02*
X6090Y12805D01*
X6065Y10742D02*
X6140Y10817D01*
X6101Y10666D02*
X6251Y10817D01*
X6124Y10579D02*
X6363Y10817D01*
X6044Y10776D02*
X6084Y10817D01*
X5734Y9408D02*
X5859Y9534D01*
X5732Y9489D02*
X5854Y9367D01*
X5686Y9416D02*
X5767Y9497D01*
X5633Y9419D02*
X5697Y9483D01*
X5574Y9416D02*
X5637Y9478D01*
X5684Y9481D02*
X5764Y9401D01*
X5631Y9478D02*
X5694Y9415D01*
X6129Y9927D02*
X6795Y9261D01*
X6121Y9879D02*
X6769Y9231D01*
X6110Y9834D02*
X6747Y9197D01*
X6079Y9141D02*
X6750Y9813D01*
X6096Y9103D02*
X6775Y9782D01*
X6111Y9062D02*
X6750Y9701D01*
X5925Y9574D02*
X7274Y8225D01*
X5891Y9552D02*
X7274Y8170D01*
X5956Y9599D02*
X7274Y8281D01*
X5817Y9515D02*
X7274Y8058D01*
X5856Y9532D02*
X7274Y8114D01*
X6079Y9141D02*
X7274Y7947D01*
X6114Y9051D02*
X7274Y7891D01*
X6091Y8207D02*
X6743Y8859D01*
X6128Y8981D02*
X7274Y7836D01*
X5949Y7730D02*
X6921Y8702D01*
X5917Y7754D02*
X6883Y8720D01*
X5776Y9500D02*
X7274Y8003D01*
X5808Y7812D02*
X6789Y8794D01*
X5766Y7826D02*
X6765Y8825D01*
X5883Y7776D02*
X6848Y8741D01*
X5847Y7795D02*
X6817Y8766D01*
X6059Y9177D02*
X6729Y9847D01*
X6096Y9793D02*
X6729Y9160D01*
X6078Y9755D02*
X6714Y9119D01*
X6058Y9719D02*
X6705Y9073D01*
X6122Y9017D02*
X6711Y9607D01*
X6129Y8969D02*
X6702Y9541D01*
X6037Y9211D02*
X6711Y9884D01*
X6036Y9685D02*
X6701Y9020D01*
X6013Y9242D02*
X6696Y9926D01*
X5985Y9625D02*
X6735Y8875D01*
X6012Y9654D02*
X6707Y8958D01*
X6130Y8357D02*
X6712Y8939D01*
X6118Y8290D02*
X6725Y8897D01*
X5671Y7843D02*
X5746Y7917D01*
X5720Y7836D02*
X5829Y7945D01*
X5745Y7917D02*
X5889Y7772D01*
X5698Y7908D02*
X5786Y7819D01*
X5617Y7844D02*
X5679Y7906D01*
X5646Y7904D02*
X5713Y7838D01*
X5589Y7905D02*
X5650Y7844D01*
X5232Y14833D02*
X5388Y14677D01*
X5267D02*
X5423Y14833D01*
X5226Y14894D02*
X5287Y14833D01*
X5323Y14677D02*
X5479Y14833D01*
X5455D02*
X5610Y14677D01*
X5287Y14833D02*
X5443Y14677D01*
X5051Y14958D02*
X5332Y14677D01*
X5051Y14902D02*
X5276Y14677D01*
X5051Y14846D02*
X5244Y14653D01*
X5051Y14572D02*
X5312Y14833D01*
X5051Y14516D02*
X5367Y14833D01*
X5051Y14628D02*
X5256Y14833D01*
X5399D02*
X5555Y14677D01*
X5434D02*
X5590Y14833D01*
X5379Y14677D02*
X5534Y14833D01*
X5343D02*
X5499Y14677D01*
X5244Y14598D02*
X5323Y14677D01*
X5244Y14654D02*
X5267Y14677D01*
X5051Y14512D02*
X5244Y14319D01*
X5051Y14294D02*
X5244Y14487D01*
X5051Y14791D02*
X5244Y14597D01*
X5051Y14289D02*
X5244Y14096D01*
X5051Y14457D02*
X5244Y14263D01*
X5160Y14961D02*
X5226Y14894D01*
X5051Y14961D02*
X5226D01*
X5051Y14851D02*
X5161Y14961D01*
X5226Y14833D02*
Y14961D01*
X5104D02*
X5226Y14838D01*
X5051Y14795D02*
X5217Y14961D01*
X5051Y14739D02*
X5226Y14914D01*
X5051Y14683D02*
X5226Y14859D01*
X5051Y14906D02*
X5106Y14961D01*
X5051Y14735D02*
X5244Y14542D01*
X5051Y14272D02*
Y14961D01*
Y14461D02*
X5244Y14654D01*
X5051Y14624D02*
X5244Y14430D01*
X5051Y14679D02*
X5244Y14486D01*
X5051Y14568D02*
X5244Y14375D01*
X5051Y14349D02*
X5244Y14543D01*
X5051Y14405D02*
X5244Y14598D01*
X4973Y14272D02*
X5051Y14349D01*
X5029Y14272D02*
X5051Y14294D01*
X4921Y14272D02*
X5051D01*
Y14345D02*
X5244Y14152D01*
X5051Y14401D02*
X5244Y14208D01*
Y14096D02*
X5277Y14063D01*
X5244D02*
X5358D01*
X5244D02*
Y14677D01*
X5277Y14063D02*
X5311Y14030D01*
X4958Y14272D02*
X5254Y13975D01*
X5013Y14272D02*
X5282Y14003D01*
X4911Y14262D02*
X5229Y13944D01*
X4883Y14234D02*
X5207Y13911D01*
X5051Y13009D02*
X5220Y12840D01*
X5051Y13065D02*
X5159Y12957D01*
X5122Y12805D02*
X5195Y12879D01*
X5177Y12805D02*
X5217Y12845D01*
X5051Y12902D02*
X5146Y12997D01*
X5051Y12953D02*
X5199Y12805D01*
X5107Y10838D02*
X5197Y10747D01*
X5066Y12805D02*
X5176Y12915D01*
X5051Y12846D02*
X5160Y12955D01*
X5051Y12805D02*
X5247D01*
X5051Y12898D02*
X5144Y12805D01*
X5051Y13347D02*
X5128Y13424D01*
X5051Y13292D02*
X5128Y13368D01*
X5051Y13403D02*
X5128Y13480D01*
Y13130D02*
Y13642D01*
X5051Y13343D02*
X5128Y13266D01*
X5051Y12805D02*
Y13445D01*
X4926D02*
X5128Y13647D01*
X4982Y13445D02*
X5128Y13591D01*
X5038Y13445D02*
X5128Y13535D01*
X5051Y13399D02*
X5128Y13322D01*
X5005Y13445D02*
X5051Y13399D01*
Y13176D02*
X5129Y13098D01*
X5051Y13120D02*
X5137Y13034D01*
X5051Y13069D02*
X5128Y13146D01*
X5051Y13013D02*
X5129Y13091D01*
X5051Y12957D02*
X5136Y13042D01*
X5051Y12842D02*
X5088Y12805D01*
X5051Y13287D02*
X5128Y13211D01*
X5051Y13180D02*
X5128Y13257D01*
X5051Y13236D02*
X5128Y13313D01*
X5051Y13124D02*
X5128Y13201D01*
X5051Y13232D02*
X5128Y13155D01*
X4714Y13901D02*
X5244Y14431D01*
X4718Y13849D02*
X5244Y14376D01*
X4856Y14207D02*
X5186Y13876D01*
X4828Y14179D02*
X5168Y13838D01*
X4800Y14151D02*
X5153Y13798D01*
X4772Y14123D02*
X5141Y13754D01*
X4712Y13788D02*
X5244Y14320D01*
X4704Y13946D02*
X5029Y14272D01*
X4689Y13988D02*
X4973Y14272D01*
X4481Y13445D02*
X5244Y14209D01*
X4536Y13445D02*
X5244Y14153D01*
X4689Y13709D02*
X5244Y14264D01*
X4744Y14095D02*
X5132Y13707D01*
X4716Y14067D02*
X5128Y13656D01*
X4713Y13904D02*
X5128Y13489D01*
X4815Y13445D02*
X5146Y13776D01*
X4870Y13445D02*
X5132Y13707D01*
X4703Y13747D02*
X5005Y13445D01*
X4648D02*
X5266Y14063D01*
X4692Y13980D02*
X5128Y13545D01*
X4689Y14040D02*
X5128Y13600D01*
X4592Y13445D02*
X5244Y14097D01*
X4551Y13445D02*
X5051D01*
X4678Y14029D02*
X4921Y14272D01*
X4622Y13605D02*
X4782Y13445D01*
X4688Y13706D02*
X4949Y13445D01*
X4669Y13669D02*
X4894Y13445D01*
X4647Y13636D02*
X4838Y13445D01*
X3989Y13960D02*
X4014Y13935D01*
X3933Y13960D02*
X4005Y13888D01*
X3980Y13445D02*
X4119Y13585D01*
X3924Y13445D02*
X4092Y13613D01*
X4489Y13515D02*
X4560Y13445D01*
X4480D02*
X4551D01*
X4480D02*
X4551D01*
X4594Y13578D02*
X4727Y13445D01*
X4562Y13554D02*
X4671Y13445D01*
X4527Y13533D02*
X4615Y13445D01*
X4194Y13532D02*
X4281Y13445D01*
X4202D02*
X4262Y13505D01*
X4091Y13445D02*
X4184Y13538D01*
X4282Y13500D02*
X4337Y13445D01*
X4258D02*
X4308Y13495D01*
X4703Y13445D02*
X5322Y14063D01*
X4759Y13445D02*
X5181Y13867D01*
X4717Y13844D02*
X5128Y13433D01*
X4583Y11250D02*
X5161Y10672D01*
X4639Y11250D02*
X5178Y10711D01*
X4713Y13792D02*
X5128Y13378D01*
X4472Y11250D02*
X5137Y10585D01*
X4527Y11250D02*
X5147Y10630D01*
X4416Y11250D02*
X5130Y10536D01*
X4249Y11250D02*
X5128Y10371D01*
X4138Y11250D02*
X5128Y10260D01*
X4360Y11250D02*
X5128Y10482D01*
X4678Y11250D02*
X5051Y10878D01*
X4596Y10498D02*
X5013Y10915D01*
X4596Y10554D02*
X4985Y10943D01*
X4596Y10387D02*
X5070Y10860D01*
X4596Y10331D02*
X5104Y10839D01*
X4596Y10443D02*
X5041Y10887D01*
X4193Y11250D02*
X5128Y10315D01*
X4082Y11250D02*
X5128Y10204D01*
X4305Y11250D02*
X5128Y10427D01*
X3970Y11250D02*
X5128Y10093D01*
X4026Y11250D02*
X5128Y10148D01*
X4369Y13445D02*
X4421Y13496D01*
X4346Y13491D02*
X4392Y13445D01*
X4314D02*
X4360Y13491D01*
X4425Y13445D02*
X4500Y13519D01*
X4447Y13502D02*
X4504Y13445D01*
X4400Y13493D02*
X4448Y13445D01*
X4035D02*
X4150Y13560D01*
X3980Y13445D02*
X4051D01*
X3980D02*
X4051D01*
X4480D01*
X4147D02*
X4221Y13519D01*
X4345Y10581D02*
X4846Y11082D01*
X4400Y10581D02*
X4874Y11054D01*
X4289Y10581D02*
X4818Y11110D01*
X4512Y10581D02*
X4930Y10999D01*
X4567Y10581D02*
X4957Y10971D01*
X4456Y10581D02*
X4902Y11026D01*
X4066Y10581D02*
X4707Y11221D01*
X4122Y10581D02*
X4735Y11193D01*
X4011Y10581D02*
X4679Y11249D01*
X4233Y10581D02*
X4790Y11138D01*
X4178Y10581D02*
X4763Y11166D01*
X5197Y10817D02*
X5247D01*
X5183Y10817D02*
X5219Y10781D01*
X4915Y9314D02*
X5252Y9650D01*
X4943Y9286D02*
X5279Y9622D01*
X4888Y9342D02*
X5227Y9681D01*
X4596Y10234D02*
X5446Y9384D01*
X4860Y9370D02*
X5204Y9714D01*
X4832Y9397D02*
X5184Y9750D01*
X4596Y10123D02*
X5372Y9348D01*
X4596Y10067D02*
X5338Y9326D01*
X4596Y9789D02*
X5203Y9182D01*
X5503Y9495D02*
X5581Y9417D01*
X5572Y9482D02*
X5634Y9419D01*
X5416Y9526D02*
X5532Y9410D01*
X5420Y9373D02*
X5534Y9488D01*
X5506Y9404D02*
X5583Y9481D01*
X5110Y9119D02*
X5490Y9498D01*
X4999Y9230D02*
X5339Y9571D01*
X5027Y9203D02*
X5373Y9549D01*
X4971Y9258D02*
X5308Y9595D01*
X5082Y9147D02*
X5448Y9512D01*
X5055Y9175D02*
X5409Y9529D01*
X4665Y9564D02*
X5128Y10028D01*
X4693Y9537D02*
X5128Y9972D01*
X5128Y9980D02*
Y10492D01*
X4748Y9481D02*
X5140Y9872D01*
X4776Y9453D02*
X5151Y9828D01*
X4721Y9509D02*
X5132Y9920D01*
X4596Y10276D02*
X5145Y10824D01*
X4596Y10401D02*
X5144Y9854D01*
X4596Y9886D02*
X5128Y10417D01*
X4637Y9592D02*
X5128Y10083D01*
X4609Y9620D02*
X5128Y10139D01*
X4804Y9425D02*
X5166Y9788D01*
X5138Y9091D02*
X5174Y9127D01*
X4724Y8510D02*
X4872Y8658D01*
X4778Y8452D02*
X4872Y8547D01*
X4778Y8494D02*
X4872Y8400D01*
X4778Y8508D02*
X4872Y8602D01*
X4596Y9733D02*
X5183Y9146D01*
X4596Y9678D02*
X5166Y9108D01*
X4668Y8510D02*
X4872Y8714D01*
X4612Y8510D02*
X4872Y8770D01*
X4706Y8510D02*
X4778Y8439D01*
X5285Y7958D02*
X5330Y8003D01*
X5285Y7902D02*
X5363Y7980D01*
X4872Y7920D02*
Y8773D01*
X5302Y8026D02*
X5500Y7827D01*
X5285Y7986D02*
X5458Y7814D01*
X5285Y7835D02*
Y8040D01*
X4778Y8160D02*
X4872Y8066D01*
X4778Y8063D02*
X4872Y8157D01*
X4778Y8174D02*
X4872Y8268D01*
X4778Y8049D02*
X4872Y7954D01*
X4778Y7951D02*
X4872Y8046D01*
X4778Y8007D02*
X4872Y8101D01*
X5524Y7915D02*
X5595Y7843D01*
X5556Y7839D02*
X5621Y7904D01*
X5444Y7939D02*
X5546Y7837D01*
X5388Y7783D02*
X5521Y7915D01*
X5484Y7823D02*
X5569Y7907D01*
X5285Y7875D02*
X5382Y7779D01*
X5279Y7785D02*
X5437Y7942D01*
X5285Y7931D02*
X5418Y7798D01*
X5285Y7847D02*
X5399Y7960D01*
X5285Y7820D02*
X5347Y7757D01*
X5276Y7773D02*
X5315Y7734D01*
X4778Y8327D02*
X4872Y8233D01*
X4778Y8230D02*
X4872Y8324D01*
X4778Y8285D02*
X4872Y8380D01*
X4778Y8216D02*
X4872Y8121D01*
X4778Y8118D02*
X4872Y8213D01*
X4778Y8271D02*
X4872Y8177D01*
X4778Y8439D02*
X4872Y8344D01*
X4778Y8341D02*
X4872Y8435D01*
X4778Y8397D02*
X4872Y8491D01*
X4778Y8383D02*
X4872Y8288D01*
X4778Y7826D02*
Y8510D01*
Y8104D02*
X4872Y8010D01*
X4778Y7896D02*
X4872Y7990D01*
X4778Y7993D02*
X4861Y7909D01*
X4778Y7840D02*
X4872Y7934D01*
X4778Y7826D02*
X4872Y7920D01*
X4778Y7937D02*
X4833Y7882D01*
X4778Y7882D02*
X4806Y7854D01*
X4755Y7817D02*
X4778Y7840D01*
X4699Y7817D02*
X4778Y7896D01*
X4675Y7817D02*
X4722Y7770D01*
X4620Y7817D02*
X4694Y7742D01*
X4596Y10220D02*
X5193Y10817D01*
X4596Y10164D02*
X5238Y10806D01*
X4596Y10109D02*
X5162Y10674D01*
X4596Y10053D02*
X5139Y10595D01*
X4596Y10568D02*
X5128Y10037D01*
X4596Y9942D02*
X5128Y10473D01*
X4528Y10581D02*
X4596Y10513D01*
Y9997D02*
X5129Y10530D01*
X3967Y10581D02*
X4596D01*
Y10513D02*
X5128Y9981D01*
X4596Y10457D02*
X5131Y9922D01*
X4596Y9830D02*
X5128Y10362D01*
X4596Y10346D02*
X5176Y9766D01*
X4596Y9775D02*
X5128Y10306D01*
X4596Y9719D02*
X5128Y10250D01*
X4596Y10290D02*
X5488Y9399D01*
X4596Y10179D02*
X5408Y9367D01*
X4596Y9663D02*
X5128Y10195D01*
X4596Y10012D02*
X5307Y9301D01*
X4596Y9956D02*
X5278Y9275D01*
X4596Y9900D02*
X5251Y9246D01*
X4596Y9845D02*
X5226Y9215D01*
X4574Y9656D02*
X5154Y9076D01*
X4596Y9656D02*
Y10581D01*
X4006Y9656D02*
X4095Y9567D01*
X3967Y9656D02*
Y10581D01*
X3989Y9222D02*
X4205Y9439D01*
X3967Y9751D02*
X4062Y9656D01*
X3967D02*
X4075D01*
X3967Y10537D02*
X4011Y10581D01*
X3933Y9222D02*
X4178Y9467D01*
X3967Y9695D02*
X4006Y9656D01*
X4281Y9181D02*
X4373Y9272D01*
X4281Y9125D02*
X4400Y9244D01*
X4267Y9222D02*
X4345Y9300D01*
X4297Y9085D02*
X4428Y9216D01*
X4332Y9064D02*
X4456Y9189D01*
X4281Y9092D02*
Y9222D01*
X4100D02*
X4261Y9384D01*
X4156Y9222D02*
X4289Y9356D01*
X4044Y9222D02*
X4233Y9411D01*
X4211Y9222D02*
X4317Y9328D01*
X4216Y9222D02*
X4281Y9157D01*
X4551Y8838D02*
X4679Y8966D01*
X4567Y8799D02*
X4707Y8938D01*
X4528Y8871D02*
X4651Y8994D01*
X4576Y8752D02*
X4734Y8910D01*
X4577Y8697D02*
X4762Y8882D01*
X4135Y9509D02*
X4872Y8773D01*
X4501Y8899D02*
X4623Y9022D01*
X4473Y8927D02*
X4595Y9049D01*
X4281Y9157D02*
X4872Y8567D01*
X4281Y9213D02*
X4872Y8622D01*
X4577Y8586D02*
X4818Y8827D01*
X4577Y8530D02*
X4846Y8799D01*
X4577Y8641D02*
X4790Y8855D01*
X4577Y8695D02*
X4762Y8510D01*
X4577D02*
X4778D01*
X4577Y8639D02*
X4706Y8510D01*
X4557Y8827D02*
X4872Y8511D01*
X4576Y8751D02*
X4872Y8455D01*
X4577Y8584D02*
X4651Y8510D01*
X3963Y7817D02*
X4769D01*
X4564D02*
X4666Y7715D01*
X4389Y9011D02*
X4512Y9133D01*
X4417Y8983D02*
X4540Y9105D01*
X4361Y9038D02*
X4484Y9161D01*
X4577Y8510D02*
Y8737D01*
X4445Y8955D02*
X4567Y9077D01*
X4356Y9044D02*
X4516Y8884D01*
X4163Y8510D02*
Y8573D01*
X4031D02*
X4094Y8510D01*
X4142Y8573D02*
X4163Y8552D01*
X4111Y8510D02*
X4163Y8562D01*
X4086Y8573D02*
X4149Y8510D01*
X4000D02*
X4063Y8573D01*
X4056Y8510D02*
X4119Y8573D01*
X3975D02*
X4038Y8510D01*
X3963Y8417D02*
X4056Y8510D01*
X3963D02*
X4163D01*
X3963Y8473D02*
X4000Y8510D01*
X3963Y7862D02*
X4007Y7817D01*
X3963D02*
Y8510D01*
X6522Y7413D02*
X7274Y8164D01*
X6578Y7413D02*
X7274Y8109D01*
Y7431D02*
Y8711D01*
X6411Y7413D02*
X7274Y8276D01*
X6466Y7413D02*
X7274Y8220D01*
X6299Y7413D02*
X7274Y8387D01*
X6132Y8755D02*
X7274Y7613D01*
X6132Y8699D02*
X7274Y7557D01*
X6132Y8810D02*
X7274Y7668D01*
X6132Y8587D02*
X7274Y7446D01*
X6132Y7413D02*
X7274Y8554D01*
X6132Y8643D02*
X7274Y7501D01*
X6986Y7431D02*
X7274Y7719D01*
X7041Y7431D02*
X7274Y7663D01*
X6930Y7431D02*
X7274Y7775D01*
X7153Y7431D02*
X7274Y7552D01*
X7208Y7431D02*
X7274Y7496D01*
X7097Y7431D02*
X7274Y7608D01*
X6874Y7431D02*
X7274Y7830D01*
X6801Y7431D02*
X7274D01*
X6819D02*
X7274Y7886D01*
X6689Y7413D02*
X7274Y7997D01*
X6633Y7413D02*
X7274Y8053D01*
X6188Y7413D02*
X7274Y8499D01*
X6244Y7413D02*
X7274Y8443D01*
X6355Y7413D02*
X7274Y8332D01*
X6724Y7392D02*
X7274Y7942D01*
X6801Y7358D02*
X6874Y7431D01*
X6724Y7336D02*
X6801Y7414D01*
X6132Y8532D02*
X7233Y7431D01*
X6132Y8476D02*
X7177Y7431D01*
X6132Y8420D02*
X7121Y7431D01*
X6130Y8366D02*
X7066Y7431D01*
X6132Y7357D02*
X6188Y7413D01*
X6724Y7281D02*
X6801Y7358D01*
X6724Y7327D02*
X6801Y7250D01*
X6724Y7383D02*
X6801Y7306D01*
X6724Y7272D02*
X6801Y7194D01*
X6724Y7169D02*
X6801Y7247D01*
X6724Y7225D02*
X6801Y7302D01*
X6694Y7413D02*
X6724Y7383D01*
X6130Y7413D02*
X6724D01*
X6130Y7382D02*
Y7413D01*
X6638D02*
X6724Y7327D01*
Y7114D02*
X6801Y7191D01*
X6724Y7160D02*
X6801Y7083D01*
X6724Y7216D02*
X6801Y7139D01*
Y6621D02*
Y7431D01*
X6724Y7105D02*
X6801Y7027D01*
X6724Y7058D02*
X6801Y7135D01*
X6724Y7049D02*
X6801Y6972D01*
X6724Y6947D02*
X6801Y7024D01*
X6724Y7002D02*
X6801Y7080D01*
X6724Y6891D02*
X6801Y6968D01*
X6724Y6937D02*
X6801Y6860D01*
X6724Y6993D02*
X6801Y6916D01*
X6724Y6770D02*
X6801Y6693D01*
X6724Y6668D02*
X6801Y6745D01*
X6724Y6724D02*
X6801Y6801D01*
X6724Y6613D02*
X6801Y6690D01*
X6724Y6557D02*
X6801Y6634D01*
X6724Y6715D02*
X6801Y6638D01*
X6724Y6882D02*
X6801Y6805D01*
X6724Y6780D02*
X6801Y6857D01*
X6724Y6835D02*
X6801Y6913D01*
X6724Y6724D02*
X6801Y6801D01*
X6724Y6826D02*
X6801Y6749D01*
X6724Y6659D02*
X6782Y6601D01*
X6724Y6544D02*
X6801Y6621D01*
X6724Y6603D02*
X6754Y6574D01*
X6724Y6544D02*
Y7413D01*
X6691Y6524D02*
X6724Y6557D01*
X6636Y6524D02*
X6670Y6490D01*
X6130Y6585D02*
X6191Y6524D01*
X6130D02*
Y6791D01*
X6525Y6524D02*
X6615Y6434D01*
X6581Y6524D02*
X6642Y6462D01*
X6469Y6524D02*
X6587Y6407D01*
X6358Y6524D02*
X6531Y6351D01*
X6414Y6524D02*
X6559Y6379D01*
X6302Y6524D02*
X6503Y6323D01*
X6247Y6524D02*
X6475Y6295D01*
X6130Y6524D02*
X6704D01*
X6191D02*
X6448Y6267D01*
X6271Y6091D02*
X6704Y6524D01*
X6135D02*
X6420Y6240D01*
X6107Y7499D02*
X7274Y8666D01*
X6119Y7455D02*
X7274Y8610D01*
X6092Y7539D02*
X7256Y8704D01*
X6124Y8317D02*
X7010Y7431D01*
X6114Y8272D02*
X6954Y7431D01*
X6100Y8230D02*
X6899Y7431D01*
X6005Y7676D02*
X7010Y8680D01*
X6030Y7645D02*
X7064Y8678D01*
X5978Y7704D02*
X6963Y8689D01*
X6074Y7577D02*
X7179Y8682D01*
X6053Y7612D02*
X7119Y8678D01*
X6083Y8190D02*
X6843Y7431D01*
X6064Y8154D02*
X6801Y7417D01*
X6019Y8088D02*
X6694Y7413D01*
X6060Y7602D02*
X6249Y7413D01*
X6043Y8120D02*
X6801Y7361D01*
X5993Y8059D02*
X6638Y7413D01*
X5964Y8031D02*
X6583Y7413D01*
X5866Y7963D02*
X6416Y7413D01*
X5828Y7944D02*
X6360Y7413D01*
X5788Y7929D02*
X6304Y7413D01*
X5934Y8006D02*
X6527Y7413D01*
X5901Y7983D02*
X6471Y7413D01*
X5259Y7734D02*
X5286Y7708D01*
X5237Y7701D02*
X5258Y7680D01*
X6107Y7499D02*
X6193Y7413D01*
X5209Y7673D02*
X5233Y7649D01*
X4759Y7222D02*
X5225Y7688D01*
X5181Y7645D02*
X5210Y7617D01*
X4773Y7222D02*
X5477Y7927D01*
X6104Y6666D02*
X6130Y6640D01*
X6088Y6626D02*
X6130Y6585D01*
X6101Y6658D02*
X6130Y6687D01*
X6040Y6541D02*
X6130Y6631D01*
X6070Y6589D02*
X6130Y6529D01*
X5707Y6264D02*
X5803Y6359D01*
X5657Y6269D02*
X5725Y6338D01*
X5601Y6269D02*
X5662Y6330D01*
X5544Y6336D02*
X5610Y6269D01*
X5469Y6355D02*
X5559Y6265D01*
X5363Y6406D02*
X5513Y6256D01*
X5998Y6109D02*
X6413Y6524D01*
X6024Y6079D02*
X6468Y6524D01*
X6049Y6555D02*
X6392Y6212D01*
X6047Y6047D02*
X6524Y6524D01*
X6103Y5936D02*
X6691Y6524D01*
X6047Y6047D02*
X6524Y6524D01*
X5836Y6226D02*
X6134Y6524D01*
X5873Y6207D02*
X6190Y6524D01*
X5796Y6241D02*
X6130Y6576D01*
X5940Y6163D02*
X6301Y6524D01*
X5970Y6137D02*
X6357Y6524D01*
X5908Y6186D02*
X6246Y6524D01*
X6026Y6522D02*
X6364Y6184D01*
X6000Y6492D02*
X6336Y6156D01*
X5973Y6464D02*
X6308Y6128D01*
X6068Y6012D02*
X6580Y6524D01*
X6087Y5976D02*
X6635Y6524D01*
X5943Y6438D02*
X6281Y6100D01*
X5911Y6415D02*
X6254Y6071D01*
X5876Y6393D02*
X6232Y6037D01*
X5757Y6345D02*
X5940Y6162D01*
X5839Y6375D02*
X6217Y5997D01*
X5800Y6358D02*
X6211Y5948D01*
X4778Y6935D02*
X5469Y6243D01*
X4778Y6824D02*
X5392Y6210D01*
X4892Y6228D02*
X5214Y6550D01*
X4778Y6768D02*
X5357Y6189D01*
X4892Y6117D02*
X5263Y6488D01*
X4892Y6172D02*
X5237Y6518D01*
X4778Y6880D02*
X5429Y6228D01*
X4778Y6712D02*
X5324Y6166D01*
X4778Y6657D02*
X5294Y6141D01*
X4778Y6601D02*
X5266Y6113D01*
X4778Y6545D02*
X5240Y6083D01*
X5753Y6254D02*
X5920Y6421D01*
X5711Y6335D02*
X5811Y6236D01*
X5461Y6240D02*
X5555Y6334D01*
X4892Y5950D02*
X5354Y6412D01*
X5348Y6183D02*
X5508Y6344D01*
X4892Y6005D02*
X5321Y6435D01*
X4892Y6061D02*
X5291Y6460D01*
X4892Y5894D02*
X5388Y6391D01*
X4888Y6380D02*
X5216Y6051D01*
X4892Y5783D02*
X5466Y6356D01*
X4892Y5838D02*
X5426Y6372D01*
X6131Y5797D02*
X6211Y5877D01*
Y5640D02*
Y5945D01*
X6132Y5686D02*
X6211Y5765D01*
X6132Y5742D02*
X6211Y5821D01*
X6024Y6078D02*
X6211Y5892D01*
X6116Y5893D02*
X6216Y5994D01*
X6126Y5847D02*
X6211Y5932D01*
X6121Y5870D02*
X6211Y5781D01*
X6131Y5805D02*
X6211Y5725D01*
X6098Y5949D02*
X6211Y5836D01*
X6141Y5640D02*
X6211Y5710D01*
X6152Y4400D02*
X6229D01*
X6150Y4450D02*
X6200Y4400D01*
X6152Y4370D02*
X6181Y4400D01*
X6152Y3474D02*
X6214D01*
X6152Y3501D02*
X6178Y3474D01*
X6132Y5748D02*
X6211Y5669D01*
X6132Y5640D02*
X6211D01*
X6132Y5692D02*
X6184Y5640D01*
X6099Y4373D02*
X6164Y4438D01*
X6132Y5640D02*
Y5768D01*
X6073Y4990D02*
X6139D01*
X6062Y4448D02*
X6107Y4492D01*
X6087Y4401D02*
X6152Y4336D01*
Y3474D02*
Y4400D01*
X6082Y4411D02*
X6134Y4464D01*
X6055Y4989D02*
X6098Y4947D01*
X6033Y4956D02*
X6075Y4914D01*
X6008Y4925D02*
X6055Y4878D01*
X6041Y4482D02*
X6083Y4524D01*
X6016Y4513D02*
X6062Y4558D01*
X6130Y4237D02*
X6152Y4259D01*
X6129Y4248D02*
X6152Y4225D01*
X6123Y4286D02*
X6152Y4314D01*
X6129Y3623D02*
X6152Y3646D01*
X6130Y3634D02*
X6152Y3612D01*
X6132Y3681D02*
Y4193D01*
X6117Y4315D02*
X6152Y4281D01*
X6123Y3586D02*
X6152Y3557D01*
X6113Y4331D02*
X6152Y4370D01*
X6112Y3541D02*
X6152Y3501D01*
X6116Y3554D02*
X6152Y3590D01*
X6564Y695D02*
X6611Y647D01*
X6348Y695D02*
X6620D01*
X6508D02*
X6606Y597D01*
X6397Y695D02*
X6608Y484D01*
X6452Y695D02*
X6604Y543D01*
X6338Y643D02*
X6637Y343D01*
X6320Y604D02*
X6675Y250D01*
X6347Y688D02*
X6617Y418D01*
X6154Y197D02*
X6612Y655D01*
X6210Y197D02*
X6606Y592D01*
X6099Y197D02*
X6597Y695D01*
X6433Y197D02*
X6624Y388D01*
X6488Y197D02*
X6636Y345D01*
X6377Y197D02*
X6614Y434D01*
X6600Y197D02*
X6668Y265D01*
X6655Y197D02*
X6686Y228D01*
X6544Y197D02*
X6651Y304D01*
X6269Y544D02*
X6616Y197D01*
X6266D02*
X6605Y536D01*
X6241Y516D02*
X6561Y197D01*
X6297Y572D02*
X6672Y197D01*
X6321D02*
X6608Y483D01*
X6098Y3499D02*
X6168Y3429D01*
X6115Y3376D02*
X6214Y3474D01*
X6084Y3467D02*
X6152Y3535D01*
X6104Y3376D02*
X6203Y3474D01*
X6049Y3376D02*
X6152Y3479D01*
X6081Y3461D02*
X6140Y3401D01*
X6061Y3424D02*
X6110Y3376D01*
X6029D02*
X6115D01*
X6214Y488D02*
X6505Y197D01*
X6186Y460D02*
X6449Y197D01*
X6344Y664D02*
X6374Y695D01*
X6158Y433D02*
X6394Y197D01*
X6130Y405D02*
X6338Y197D01*
X6102Y377D02*
X6282Y197D01*
X6071Y346D02*
X6288Y562D01*
X6074Y349D02*
X6227Y197D01*
X6044Y323D02*
X6171Y197D01*
X6043D02*
X6541Y695D01*
X6009Y303D02*
X6115Y197D01*
X5981Y4897D02*
X6039Y4838D01*
X5951Y4870D02*
X6028Y4794D01*
X5920Y4846D02*
X6021Y4745D01*
X5825Y4656D02*
X6064Y4895D01*
X5863Y4638D02*
X6030Y4805D01*
X5886Y4824D02*
X6023Y4688D01*
X5661Y6330D02*
X5732Y6259D01*
X5606Y6329D02*
X5667Y6268D01*
X5784Y4671D02*
X6104Y4990D01*
X5740Y4683D02*
X5877Y4819D01*
X5850Y4805D02*
X6037Y4618D01*
X5931Y4595D02*
X6023Y4686D01*
X5898Y4617D02*
X6021Y4740D01*
X5811Y4788D02*
X6103Y4496D01*
X5990Y4543D02*
X6044Y4597D01*
X5962Y4570D02*
X6031Y4639D01*
X5693Y4691D02*
X5779Y4776D01*
X5641Y4695D02*
X5706Y4760D01*
X5623Y4754D02*
X5685Y4692D01*
X5725Y4763D02*
X5838Y4650D01*
X5676Y4756D02*
X5753Y4680D01*
X5537Y6261D02*
X5606Y6329D01*
X4892Y5262D02*
X5481Y4672D01*
X4892Y5727D02*
X5215Y6050D01*
X4892Y5206D02*
X5440Y4658D01*
X4892Y5151D02*
X5402Y4640D01*
X4892Y5095D02*
X5367Y4620D01*
X4892Y5039D02*
X5333Y4598D01*
X4892Y4613D02*
X5230Y4952D01*
X4892Y4669D02*
X5207Y4985D01*
X4892Y4984D02*
X5302Y4573D01*
X4892Y4928D02*
X5273Y4546D01*
X5562Y4759D02*
X5626Y4695D01*
X5584Y4693D02*
X5645Y4754D01*
X5492Y4773D02*
X5573Y4692D01*
X5435Y4655D02*
X5541Y4762D01*
X5517Y4682D02*
X5591Y4755D01*
X5400Y4810D02*
X5526Y4684D01*
X4892Y4558D02*
X5256Y4922D01*
X4892Y4502D02*
X5283Y4893D01*
X4892Y4872D02*
X5247Y4517D01*
X4892Y4446D02*
X5312Y4867D01*
X4892Y4817D02*
X5222Y4486D01*
X5967Y290D02*
X6060Y197D01*
X5932D02*
X6430Y695D01*
X5987Y197D02*
X6485Y695D01*
X5915Y285D02*
X6004Y197D01*
X5770Y4774D02*
X6152Y4392D01*
X5876Y197D02*
X5969Y290D01*
X5860Y285D02*
X5948Y197D01*
X5820D02*
X5909Y285D01*
X5693D02*
X5781Y197D01*
X5709D02*
X5798Y285D01*
X5653Y197D02*
X5742Y285D01*
X5765Y197D02*
X5853Y285D01*
X5804D02*
X5893Y197D01*
X5748Y285D02*
X5837Y197D01*
X5542D02*
X5631Y285D01*
X5581D02*
X5670Y197D01*
X5526Y285D02*
X5614Y197D01*
X5637Y285D02*
X5725Y197D01*
X5598D02*
X5686Y285D01*
X4892Y4279D02*
X5415Y4802D01*
X4892Y4224D02*
X5454Y4786D01*
X5414Y285D02*
X5503Y197D01*
X5486D02*
X5575Y285D01*
X5358D02*
X5447Y197D01*
X4892Y4335D02*
X5378Y4822D01*
X4892Y4168D02*
X5496Y4772D01*
X4892Y4391D02*
X5344Y4843D01*
X4124Y3376D02*
X5231D01*
X4798Y3797D02*
X5219Y3376D01*
X5303Y285D02*
X5391Y197D01*
X5319D02*
X5408Y285D01*
X5264Y197D02*
X5352Y285D01*
X5431Y197D02*
X5519Y285D01*
X5470D02*
X5558Y197D01*
X5375D02*
X5463Y285D01*
X5152Y197D02*
X5241Y285D01*
X5191D02*
X5280Y197D01*
X5136Y285D02*
X5224Y197D01*
X5247Y285D02*
X5336Y197D01*
X5208D02*
X5296Y285D01*
X5154Y7617D02*
X5189Y7582D01*
X5126Y7589D02*
X5170Y7545D01*
X5098Y7561D02*
X5155Y7505D01*
X5070Y7534D02*
X5142Y7461D01*
X5042Y7506D02*
X5133Y7415D01*
X5014Y7478D02*
X5128Y7364D01*
X4778Y7047D02*
X5155Y6670D01*
X4778Y6991D02*
X5205Y6563D01*
X4778Y7102D02*
X5135Y6744D01*
X4849Y6464D02*
X5135Y6749D01*
X4871Y6430D02*
X5144Y6703D01*
X4823Y6493D02*
X5129Y6799D01*
X4892Y6209D02*
X5159Y5941D01*
X4892Y6153D02*
X5145Y5899D01*
X4892Y6097D02*
X5135Y5854D01*
X4892Y5671D02*
X5157Y5937D01*
X4892Y5616D02*
X5137Y5860D01*
X4892Y6042D02*
X5129Y5804D01*
X4892Y6339D02*
X5174Y6621D01*
X4892Y6284D02*
X5193Y6584D01*
X4886Y6389D02*
X5158Y6661D01*
X4892Y6320D02*
X5194Y6017D01*
X4892Y6264D02*
X5175Y5981D01*
X4959Y7422D02*
X5128Y7253D01*
X4931Y7394D02*
X5128Y7197D01*
X4987Y7450D02*
X5128Y7309D01*
Y6831D02*
Y7343D01*
X4875Y7339D02*
X5128Y7086D01*
X4903Y7367D02*
X5128Y7142D01*
X4778Y7005D02*
X5128Y7355D01*
X4847Y7311D02*
X5128Y7030D01*
X4819Y7283D02*
X5128Y6975D01*
X4778Y6782D02*
X5128Y7132D01*
X4792Y7255D02*
X5128Y6919D01*
X4795Y6521D02*
X5128Y6854D01*
X4892Y5930D02*
X5128Y5694D01*
X4892Y5875D02*
X5128Y5638D01*
X4892Y5986D02*
X5128Y5750D01*
X4778Y6671D02*
X5128Y7021D01*
X4778Y6615D02*
X5128Y6965D01*
X4778Y6726D02*
X5128Y7077D01*
X4778Y6559D02*
X5128Y6910D01*
X4778Y6538D02*
X4831Y6485D01*
X4892Y5318D02*
X5184Y5026D01*
X4892Y4947D02*
X5133Y5188D01*
X4892Y5003D02*
X5128Y5240D01*
X4892Y4892D02*
X5141Y5141D01*
X4892Y4836D02*
X5153Y5098D01*
X4892Y4892D02*
X5141Y5141D01*
X4892Y5560D02*
X5129Y5797D01*
X4892Y5596D02*
X5128Y5360D01*
X4892Y5337D02*
X5128Y5573D01*
X4892Y5429D02*
X5133Y5188D01*
X4892Y5373D02*
X5147Y5118D01*
X4892Y5485D02*
X5128Y5249D01*
X4892Y4594D02*
X5149Y4337D01*
X4892Y4538D02*
X5138Y4292D01*
X4892Y4483D02*
X5131Y4244D01*
X4892Y4112D02*
X5167Y4388D01*
X4892Y4057D02*
X5141Y4306D01*
X4892Y4001D02*
X5130Y4239D01*
X4892Y4725D02*
X5187Y5020D01*
X4892Y4761D02*
X5200Y4452D01*
X4892Y4780D02*
X5169Y5057D01*
X4892Y4705D02*
X5181Y4417D01*
X4892Y4650D02*
X5163Y4378D01*
X4892Y5763D02*
X5128Y5527D01*
X4892Y5504D02*
X5128Y5740D01*
X4892Y5819D02*
X5128Y5583D01*
Y5256D02*
Y5768D01*
X4892Y5707D02*
X5128Y5471D01*
X4892Y3976D02*
Y6339D01*
Y5652D02*
X5128Y5416D01*
X4892Y5393D02*
X5128Y5629D01*
X4892Y5449D02*
X5128Y5685D01*
X4892Y5281D02*
X5128Y5518D01*
X4892Y5540D02*
X5128Y5304D01*
X4892Y5170D02*
X5128Y5406D01*
X4892Y5114D02*
X5128Y5351D01*
X4892Y5226D02*
X5128Y5462D01*
X4892Y4427D02*
X5128Y4191D01*
Y3681D02*
Y4193D01*
X4892Y5059D02*
X5128Y5295D01*
X4892Y4316D02*
X5128Y4079D01*
X4892Y4260D02*
X5128Y4024D01*
X4892Y4371D02*
X5128Y4135D01*
X4889Y3942D02*
X5128Y4181D01*
X4892Y4204D02*
X5128Y3968D01*
X4453Y7817D02*
X4611Y7659D01*
X4508Y7817D02*
X4639Y7687D01*
X4397Y7817D02*
X4583Y7631D01*
X4397Y7459D02*
X4755Y7817D01*
X4411Y7459D02*
X4769Y7817D01*
X4341Y7459D02*
X4699Y7817D01*
X4286D02*
X4527Y7575D01*
X4341Y7817D02*
X4555Y7603D01*
X4230Y7817D02*
X4499Y7548D01*
X4230Y7459D02*
X4588Y7817D01*
X4286Y7459D02*
X4643Y7817D01*
X4174Y7459D02*
X4532Y7817D01*
X4778Y7172D02*
X5190Y7584D01*
X4778Y7116D02*
X5149Y7488D01*
X4778Y7060D02*
X5133Y7416D01*
X4778Y6949D02*
X5128Y7299D01*
X4778Y6893D02*
X5128Y7244D01*
X4778Y6538D02*
Y7222D01*
Y6838D02*
X5128Y7188D01*
X4778Y7158D02*
X5129Y6807D01*
X4778Y7214D02*
X5128Y6863D01*
X4134Y5463D02*
X4478Y5119D01*
X4413Y5463D02*
X4478Y5397D01*
X4119Y7817D02*
X4444Y7492D01*
X4174Y7817D02*
X4471Y7520D01*
X4063Y7817D02*
X4416Y7464D01*
X4063Y7459D02*
X4421Y7817D01*
X4119Y7459D02*
X4476Y7817D01*
X4070Y7459D02*
X4411D01*
X4007Y7817D02*
X4365Y7459D01*
X3992Y7444D02*
X4365Y7817D01*
X3996Y6112D02*
X4074Y6190D01*
X4052Y6112D02*
X4102Y6162D01*
X4357Y5463D02*
X4478Y5341D01*
X3986Y5463D02*
Y6112D01*
X4246Y5463D02*
X4478Y5230D01*
X4190Y5463D02*
X4478Y5174D01*
X4301Y5463D02*
X4478Y5286D01*
X3986Y6112D02*
X4124D01*
X3986Y5463D02*
X4478D01*
X3986Y6046D02*
X4052Y6112D01*
X3986Y5555D02*
X4079Y5463D01*
X3986Y5499D02*
X4023Y5463D01*
X4106Y4830D02*
X4478Y5202D01*
X4106Y4774D02*
X4478Y5146D01*
X4106Y4885D02*
X4478Y5258D01*
X4106Y4663D02*
X4478Y5035D01*
X4106Y4607D02*
X4478Y4979D01*
X4106Y4718D02*
X4478Y5091D01*
X4023Y5463D02*
X4478Y5007D01*
X4098Y4933D02*
X4478Y5314D01*
X4079Y5463D02*
X4478Y5063D01*
X4042Y4933D02*
X4478Y5369D01*
X3986Y4933D02*
X4478Y5425D01*
X4106Y4384D02*
X4478Y4757D01*
X4106Y4712D02*
X4478Y4339D01*
X4106Y4767D02*
X4478Y4395D01*
X4106Y4656D02*
X4478Y4284D01*
X4124Y4068D02*
X4478Y4423D01*
X4106Y4329D02*
X4478Y4701D01*
X4106Y4879D02*
X4478Y4506D01*
X4106Y4496D02*
X4478Y4868D01*
X4106Y4551D02*
X4478Y4924D01*
X4106Y4440D02*
X4478Y4812D01*
X4106Y4823D02*
X4478Y4451D01*
X4106Y4600D02*
X4478Y4228D01*
X4106Y4162D02*
X4478Y4534D01*
X4106Y4273D02*
X4478Y4645D01*
Y4062D02*
Y5463D01*
X4124Y4124D02*
X4478Y4478D01*
X4106Y4124D02*
Y4933D01*
X3930D02*
X4460Y5463D01*
X4106Y4217D02*
X4478Y4590D01*
X4052Y4933D02*
X4106Y4879D01*
Y4489D02*
X4478Y4116D01*
X4106Y4545D02*
X4478Y4172D01*
X4124Y4124D02*
X4478Y4478D01*
X4124Y4013D02*
X4478Y4367D01*
X4106Y4378D02*
X4450Y4034D01*
X4124Y3901D02*
X4478Y4256D01*
X4146Y3868D02*
X4478Y4200D01*
X4124Y3957D02*
X4478Y4311D01*
X4106Y4433D02*
X4478Y4061D01*
X4106Y4322D02*
X4422Y4006D01*
X4106Y4266D02*
X4394Y3978D01*
X4106Y4211D02*
X4366Y3950D01*
X4106Y4155D02*
X4339Y3922D01*
X4892Y4093D02*
X5128Y3857D01*
X4892Y4037D02*
X5128Y3801D01*
X4892Y4148D02*
X5128Y3912D01*
X4887Y3931D02*
X5128Y3690D01*
X4873Y3889D02*
X5130Y3631D01*
X4892Y3981D02*
X5128Y3745D01*
X4601Y3376D02*
X5128Y3903D01*
X4852Y3854D02*
X5142Y3564D01*
X4657Y3376D02*
X5128Y3847D01*
X4490Y3376D02*
X5128Y4014D01*
X4545Y3376D02*
X5128Y3959D01*
X4378Y3376D02*
X5128Y4126D01*
X4935Y3376D02*
X5138Y3579D01*
X4991Y3376D02*
X5150Y3535D01*
X4879Y3376D02*
X5131Y3628D01*
X5102Y3376D02*
X5182Y3455D01*
X5158Y3376D02*
X5201Y3420D01*
X5046Y3376D02*
X5164Y3494D01*
X4826Y3825D02*
X5170Y3481D01*
X4770Y3769D02*
X5163Y3376D01*
X4824D02*
X5128Y3680D01*
X4768Y3376D02*
X5128Y3736D01*
X4712Y3376D02*
X5128Y3792D01*
X4742Y3741D02*
X5107Y3376D01*
X4714Y3713D02*
X5052Y3376D01*
X4687Y3686D02*
X4996Y3376D01*
X4659Y3658D02*
X4940Y3376D01*
X4516Y3515D02*
X4831Y3830D01*
X4631Y3630D02*
X4885Y3376D01*
X4603Y3602D02*
X4829Y3376D01*
X4434D02*
X5128Y4070D01*
X4575Y3574D02*
X4773Y3376D01*
X4547Y3546D02*
X4718Y3376D01*
X4520Y3519D02*
X4662Y3376D01*
X4454Y3473D02*
X4551Y3376D01*
X4528Y1703D02*
X4658D01*
X4876Y1485D01*
X4490Y3493D02*
X4606Y3376D01*
X4412Y3459D02*
X4495Y3376D01*
X4361Y3455D02*
X4439Y3376D01*
X4323D02*
X4404Y3458D01*
X4708Y699D02*
X4876Y867D01*
X4763Y699D02*
X4876Y811D01*
X4652Y699D02*
X4876Y923D01*
Y699D02*
Y1485D01*
X5024Y285D02*
X5113Y197D01*
X4819Y699D02*
X4876Y756D01*
X4331Y1703D02*
X4876Y1158D01*
X4485Y699D02*
X4876Y1090D01*
X4554Y1703D02*
X4876Y1380D01*
X4318Y699D02*
X4876Y1257D01*
X4374Y699D02*
X4876Y1201D01*
X4429Y699D02*
X4876Y1146D01*
X4969Y285D02*
X5057Y197D01*
X4985D02*
X5074Y285D01*
X4929Y197D02*
X5018Y285D01*
X5080D02*
X5169Y197D01*
X5097D02*
X5185Y285D01*
X5041Y197D02*
X5129Y285D01*
X4818Y197D02*
X4907Y285D01*
X4857D02*
X4946Y197D01*
X4802Y285D02*
X4890Y197D01*
X4913Y285D02*
X5002Y197D01*
X4874D02*
X4962Y285D01*
X4609Y1703D02*
X4876Y1436D01*
X4690Y285D02*
X4779Y197D01*
X4651D02*
X4740Y285D01*
X4746D02*
X4835Y197D01*
X4762D02*
X4851Y285D01*
X4707Y197D02*
X4795Y285D01*
X4442Y1703D02*
X4876Y1269D01*
X4387Y1703D02*
X4876Y1213D01*
X4498Y1703D02*
X4876Y1325D01*
X4541Y699D02*
X4876Y1034D01*
X4596Y699D02*
X4876Y979D01*
X4523Y285D02*
X4612Y197D01*
X4540D02*
X4628Y285D01*
X4484Y197D02*
X4573Y285D01*
X4595Y197D02*
X4684Y285D01*
X4635D02*
X4723Y197D01*
X4579Y285D02*
X4668Y197D01*
X4373D02*
X4461Y285D01*
X4412D02*
X4501Y197D01*
X4356Y285D02*
X4445Y197D01*
X4468Y285D02*
X4556Y197D01*
X4428D02*
X4517Y285D01*
X4258Y3868D02*
X4478Y4089D01*
X4284Y3868D02*
X4478Y4062D01*
X4305Y3455D02*
X4384Y3376D01*
X4249Y3455D02*
X4328Y3376D01*
X4267D02*
X4346Y3455D01*
X4211Y3376D02*
X4290Y3455D01*
X4202Y3868D02*
X4478Y4144D01*
X4124Y4081D02*
X4311Y3894D01*
X4124Y4025D02*
X4281Y3868D01*
X4124D02*
X4284D01*
X4124Y3455D02*
X4370D01*
X4194D02*
X4272Y3376D01*
X4242Y1570D02*
X4375Y1703D01*
X4242D02*
X4528D01*
X4242Y1625D02*
X4320Y1703D01*
X4242Y1403D02*
X4542Y1703D01*
X4242Y1347D02*
X4598Y1703D01*
X4242Y1514D02*
X4431Y1703D01*
X4143Y1193D02*
X4654Y1703D01*
X4199Y1193D02*
X4684Y1677D01*
X4242Y1458D02*
X4487Y1703D01*
X4224Y1106D02*
X4740Y1622D01*
X4224Y1162D02*
X4712Y1649D01*
X4124Y3970D02*
X4226Y3868D01*
X4155Y3376D02*
X4234Y3455D01*
X4124Y3914D02*
X4170Y3868D01*
X4242Y1309D02*
Y1703D01*
Y1681D02*
X4264Y1703D01*
X4138Y3455D02*
X4217Y3376D01*
X4124Y3868D02*
Y4124D01*
Y3400D02*
X4179Y3455D01*
X4106Y4044D02*
Y4124D01*
X4124Y3413D02*
X4161Y3376D01*
X4124D02*
Y3455D01*
X4149Y1309D02*
X4242Y1403D01*
X4204Y1309D02*
X4242Y1347D01*
X4032Y1193D02*
X4149Y1309D01*
X4088Y1193D02*
X4204Y1309D01*
X4173Y1193D02*
X4224Y1142D01*
X4056Y1309D02*
X4173Y1193D01*
X4003Y1309D02*
X4242D01*
X4002Y1308D02*
X4117Y1193D01*
X3976D02*
X4093Y1309D01*
X3974Y1280D02*
X4062Y1193D01*
X3946Y1252D02*
X4006Y1193D01*
X4242Y1680D02*
X4876Y1046D01*
X4242Y1625D02*
X4876Y991D01*
X4275Y1703D02*
X4876Y1102D01*
X4242Y1513D02*
X4876Y879D01*
X4242Y1457D02*
X4876Y824D01*
X4242Y1569D02*
X4876Y935D01*
X4224Y995D02*
X4795Y1566D01*
X4224Y939D02*
X4823Y1538D01*
X4224Y1050D02*
X4767Y1594D01*
X4224Y828D02*
X4876Y1480D01*
X4224Y883D02*
X4851Y1510D01*
X4224Y716D02*
X4876Y1368D01*
X4242Y1346D02*
X4876Y712D01*
X4242Y1402D02*
X4876Y768D01*
X4262Y699D02*
X4876Y1313D01*
X4224Y699D02*
X4876D01*
X4224Y1086D02*
X4611Y699D01*
X4224Y772D02*
X4876Y1424D01*
X4224Y1309D02*
X4834Y699D01*
X4224Y1142D02*
X4667Y699D01*
X4168Y1309D02*
X4778Y699D01*
X4112Y1309D02*
X4722Y699D01*
X4224Y974D02*
X4500Y699D01*
X4224Y919D02*
X4444Y699D01*
X4224D02*
Y1193D01*
X4301Y285D02*
X4389Y197D01*
X4317D02*
X4406Y285D01*
X4245D02*
X4334Y197D01*
X4224Y1030D02*
X4555Y699D01*
X4224Y807D02*
X4333Y699D01*
X4224Y752D02*
X4277Y699D01*
X4224Y863D02*
X4388Y699D01*
X4206Y197D02*
X4294Y285D01*
X4094Y197D02*
X4183Y285D01*
X4134D02*
X4222Y197D01*
X4078Y285D02*
X4166Y197D01*
X4189Y285D02*
X4278Y197D01*
X4261D02*
X4350Y285D01*
X4150Y197D02*
X4239Y285D01*
X3967D02*
X4055Y197D01*
X3983D02*
X4072Y285D01*
X3927Y197D02*
X4016Y285D01*
X4039Y197D02*
X4127Y285D01*
X4022D02*
X4111Y197D01*
X3812Y13858D02*
X4225Y13445D01*
X3868D02*
X4067Y13644D01*
X3813Y13445D02*
X4046Y13678D01*
X3859Y11250D02*
X4528Y10581D01*
X3899D02*
X4569Y11250D01*
X3844Y10581D02*
X4513Y11250D01*
X3783Y13831D02*
X4170Y13445D01*
X3770Y11250D02*
X4678D01*
X3752Y13807D02*
X4114Y13445D01*
X3788Y10581D02*
X4457Y11250D01*
X3803D02*
X4473Y10581D01*
X3770Y10896D02*
X4123Y11250D01*
X3770Y10841D02*
X4179Y11250D01*
X3915D02*
X4584Y10581D01*
X3770Y10952D02*
X4068Y11250D01*
X3907Y10533D02*
X4624Y11250D01*
X3770Y11228D02*
X4417Y10581D01*
X3770Y11172D02*
X4361Y10581D01*
X3770Y11117D02*
X4306Y10581D01*
X3770Y11061D02*
X4250Y10581D01*
X3770Y11005D02*
X4194Y10581D01*
X3770Y10950D02*
X4139Y10581D01*
X3770Y10894D02*
X4083Y10581D01*
X3880Y13960D02*
X4021D01*
X3860Y13922D02*
X4012Y13770D01*
X3879Y13958D02*
X4003Y13834D01*
X3838Y13888D02*
X4044Y13682D01*
X3770Y11008D02*
X4012Y11250D01*
X3770Y10797D02*
Y11250D01*
X3757Y13445D02*
X4028Y13716D01*
X3770Y11119D02*
X3900Y11250D01*
X3770Y11175D02*
X3845Y11250D01*
X3770Y10838D02*
X4027Y10581D01*
X3770Y11063D02*
X3956Y11250D01*
X3907Y10366D02*
X3967Y10425D01*
X3907Y10422D02*
X3967Y10363D01*
X3907Y10478D02*
X3967Y10419D01*
X3907Y10366D02*
X3967Y10307D01*
X3907Y10255D02*
X3967Y10314D01*
X3907Y10310D02*
X3967Y10369D01*
X3755Y10797D02*
X3972Y10581D01*
X3907Y10477D02*
X3967Y10537D01*
X3860Y10581D02*
X3907Y10534D01*
Y10422D02*
X3967Y10481D01*
X3907Y10534D02*
X3967Y10474D01*
X3907Y10032D02*
X3967Y9973D01*
X3907Y9921D02*
X3967Y9980D01*
X3907Y9976D02*
X3967Y10035D01*
X3907Y9921D02*
X3967Y9862D01*
X3907Y9809D02*
X3967Y9868D01*
X3907Y9865D02*
X3967Y9924D01*
X3907Y9754D02*
X3967Y9813D01*
X3907Y9810D02*
X3967Y9751D01*
X3907Y9865D02*
X3967Y9806D01*
X3907Y9698D02*
X4872Y8734D01*
X3839Y9656D02*
X4272Y9222D01*
X3783Y9656D02*
X4216Y9222D01*
X3750Y9318D02*
X4075Y9643D01*
X3766Y9222D02*
X4100Y9556D01*
X3750Y9429D02*
X3976Y9656D01*
X3895D02*
X4872Y8678D01*
X3877Y9222D02*
X4150Y9495D01*
X3822Y9222D02*
X4123Y9523D01*
X3750Y9373D02*
X4032Y9656D01*
X3750Y9222D02*
X4281D01*
X3750Y9466D02*
X3994Y9222D01*
X3750Y9633D02*
X4161Y9222D01*
X3750Y9577D02*
X4105Y9222D01*
X3907Y10088D02*
X3967Y10147D01*
X3907Y10144D02*
X3967Y10085D01*
X3907Y10199D02*
X3967Y10140D01*
X3907Y10088D02*
X3967Y10029D01*
X3907Y9977D02*
X3967Y9918D01*
X3907Y10032D02*
X3967Y10091D01*
X3907Y10199D02*
X3967Y10258D01*
X3907Y10255D02*
X3967Y10196D01*
X3907Y10311D02*
X3967Y10252D01*
X3907Y10143D02*
X3967Y10202D01*
X3907Y9656D02*
Y10581D01*
Y9698D02*
X3967Y9757D01*
X3907Y9754D02*
X3967Y9695D01*
X3865Y9656D02*
X3907Y9698D01*
X3750Y9485D02*
X3967Y9701D01*
X3750Y9596D02*
X3809Y9656D01*
X3750Y9222D02*
Y9656D01*
X3907D01*
X3750Y9410D02*
X3938Y9222D01*
X3750Y9541D02*
X3865Y9656D01*
X3750Y9355D02*
X3882Y9222D01*
X3750Y9299D02*
X3827Y9222D01*
X3150Y13840D02*
X3241Y13931D01*
X3159Y13793D02*
X3262Y13897D01*
X3176Y14272D02*
X3218Y14229D01*
X3534Y13445D02*
X4010Y13921D01*
X3159Y13738D02*
X3287Y13866D01*
X2980Y14272D02*
X3237D01*
X3000Y14024D02*
X3228Y14252D01*
X2925Y14300D02*
X3206Y14019D01*
X2925Y14244D02*
X3244Y13925D01*
X3134Y13880D02*
X3223Y13969D01*
X3111Y13913D02*
X3209Y14010D01*
X3467Y13757D02*
X3780Y13445D01*
X3480D02*
X3980D01*
X3374Y13795D02*
X3724Y13445D01*
X3678Y13770D02*
X4003Y13445D01*
X3701D02*
X4015Y13758D01*
X3533Y13748D02*
X3836Y13445D01*
X3159Y13627D02*
X3346Y13813D01*
X3159Y13571D02*
X3380Y13792D01*
X3159Y13683D02*
X3315Y13838D01*
X3159Y13460D02*
X3459Y13760D01*
X3159Y13516D02*
X3418Y13774D01*
X2943Y14950D02*
X2980Y14913D01*
Y14356D02*
X3065Y14272D01*
X2943Y15081D02*
X2980Y15118D01*
X3009Y14272D02*
X3196Y14084D01*
X3065Y14272D02*
X3198Y14139D01*
X2980Y14300D02*
X3009Y14272D01*
X2943Y15173D02*
X2980Y15135D01*
X2926Y14911D02*
X2980Y14857D01*
X2943Y15136D02*
X2980Y15174D01*
X2925Y14801D02*
X2980Y14746D01*
X2925Y14784D02*
X2980Y14840D01*
X3120Y14272D02*
X3205Y14186D01*
X3028Y13997D02*
X3202Y14171D01*
X3056Y13969D02*
X3196Y14109D01*
X3084Y13941D02*
X3199Y14056D01*
X2917Y14108D02*
X3080Y14272D01*
X2945Y14080D02*
X3136Y14272D01*
X2889Y14136D02*
X3025Y14272D01*
X2972Y14052D02*
X3192Y14272D01*
X2784Y14241D02*
X3099Y13926D01*
X3646Y13445D02*
X4006Y13805D01*
X3717Y13787D02*
X4058Y13445D01*
X3635Y13757D02*
X3947Y13445D01*
X3711Y10615D02*
X4346Y11250D01*
X3732Y10581D02*
X4402Y11250D01*
X3711Y10670D02*
X4290Y11250D01*
X3590Y13445D02*
X4003Y13858D01*
X3588Y13749D02*
X3891Y13445D01*
X2873Y14241D02*
X3669Y13445D01*
X3405Y13427D02*
X3938Y13960D01*
X3460Y13427D02*
X3993Y13960D01*
X3349Y13427D02*
X3702Y13779D01*
X3711Y10726D02*
X4235Y11250D01*
X3726Y10797D02*
X3770Y10841D01*
X3711Y10797D02*
X3770D01*
X3750Y9262D02*
X4084Y9596D01*
X3750Y9522D02*
X4049Y9222D01*
X3711Y10581D02*
Y10797D01*
Y10730D02*
X3860Y10581D01*
X3711D02*
X3907D01*
X3711Y10675D02*
X3805Y10581D01*
X3711Y10786D02*
X3967Y10530D01*
X3711Y10619D02*
X3749Y10581D01*
X3159Y13620D02*
X3353Y13427D01*
X3159Y13564D02*
X3297Y13427D01*
X3159D02*
Y13780D01*
X3293Y13427D02*
X3620Y13753D01*
X3238Y13427D02*
X3558Y13747D01*
X3182Y13427D02*
X3505Y13750D01*
X2817Y14241D02*
X3613Y13445D01*
X3144Y13858D02*
X3557Y13445D01*
X3159Y13787D02*
X3502Y13445D01*
X3159Y13731D02*
X3464Y13427D01*
X3159Y13676D02*
X3408Y13427D01*
X3159D02*
X3480D01*
X3533D01*
X3159Y13509D02*
X3241Y13427D01*
X3169Y8848D02*
X3268Y8947D01*
X3211D02*
X3246Y8912D01*
X3100Y8947D02*
X3190Y8857D01*
X2805Y8947D02*
X3281D01*
X3159Y13453D02*
X3186Y13427D01*
X3114Y8848D02*
X3212Y8947D01*
X2947Y8848D02*
X3045Y8947D01*
X3864Y8573D02*
X3963Y8474D01*
X3919Y8573D02*
X3982Y8510D01*
X3808Y8573D02*
X3963Y8418D01*
X3697Y8573D02*
X3963Y8307D01*
X3641Y8573D02*
X3963Y8251D01*
X3752Y8573D02*
X3963Y8363D01*
X3538Y8620D02*
X3963Y8196D01*
X3593Y8573D02*
X4163D01*
X3510Y8592D02*
X3963Y8140D01*
X3494Y8330D02*
X3963Y7862D01*
X3538Y7825D02*
X3963Y8250D01*
X3494Y8441D02*
X3963Y7973D01*
X3573Y7749D02*
X3963Y8138D01*
X3573Y7693D02*
X3963Y8083D01*
X3573Y7804D02*
X3963Y8194D01*
X3573Y7582D02*
X3963Y7971D01*
X3573Y7359D02*
X4031Y7817D01*
X3573Y7637D02*
X3963Y8027D01*
X3573Y7303D02*
X4087Y7817D01*
X3573Y7248D02*
X4142Y7817D01*
X3573Y7415D02*
X3975Y7817D01*
X3572Y7136D02*
X4254Y7817D01*
X3517Y7136D02*
X4198Y7817D01*
X3593Y8621D02*
X3641Y8573D01*
X3573Y7526D02*
X3963Y7916D01*
X3593Y8573D02*
Y8674D01*
X3573Y7470D02*
X3963Y7860D01*
X3573Y7750D02*
X3924Y7399D01*
X3573Y7195D02*
Y7825D01*
X3566Y8648D02*
X3593Y8621D01*
X3494Y8227D02*
X3840Y8573D01*
X3498Y7825D02*
X3573Y7750D01*
Y7806D02*
X3954Y7424D01*
X3573Y7695D02*
X3896Y7371D01*
X3573Y7639D02*
X3868Y7344D01*
X3797Y7272D02*
X3923Y7399D01*
X3573Y7527D02*
X3812Y7288D01*
X3573Y7472D02*
X3785Y7260D01*
X3573Y7583D02*
X3840Y7316D01*
X3573Y7416D02*
X3762Y7227D01*
X3520Y7195D02*
X3573Y7248D01*
Y7360D02*
X3746Y7188D01*
X3573Y7305D02*
X3737Y7141D01*
X3573Y6746D02*
X3736Y6910D01*
X3573Y6748D02*
X3738Y6582D01*
X3573Y6915D02*
X3736Y6752D01*
X3573Y6692D02*
X3782Y6483D01*
X3573Y6637D02*
X3741Y6468D01*
X3573Y7081D02*
X4309Y7817D01*
X3573Y7025D02*
X3751Y7203D01*
X3573Y6969D02*
X3736Y7133D01*
X3573Y6971D02*
X3736Y6807D01*
X3573Y6802D02*
X3736Y6965D01*
X3573Y6858D02*
X3736Y7021D01*
X3870Y6320D02*
X3907Y6357D01*
X3870Y6264D02*
X3935Y6329D01*
X3797Y6467D02*
X3870Y6394D01*
X4124Y6139D01*
X3870Y6152D02*
X3990Y6273D01*
X3870Y6208D02*
X3963Y6301D01*
X3684Y6468D02*
X3751Y6535D01*
X3740Y6468D02*
X3771Y6499D01*
X3629Y6468D02*
X3739Y6579D01*
X3573Y7082D02*
X3736Y6919D01*
X3573Y6859D02*
X3736Y6696D01*
X3573Y7249D02*
X3736Y7086D01*
Y6613D02*
Y7126D01*
X3573Y6691D02*
X3736Y6854D01*
X3573Y6506D02*
Y7136D01*
X3571Y7195D02*
X3736Y7030D01*
X3516Y7195D02*
X3736Y6974D01*
X3519Y7136D02*
X3573Y7082D01*
Y7026D02*
X3736Y6863D01*
X3573Y6914D02*
X3736Y7077D01*
X3573Y6635D02*
X3736Y6798D01*
X3573Y6579D02*
X3736Y6743D01*
X3573Y6804D02*
X3736Y6640D01*
X3573Y6524D02*
X3736Y6687D01*
X3573Y6468D02*
X3736Y6631D01*
X3573Y6581D02*
X3686Y6468D01*
X3573Y6525D02*
X3630Y6468D01*
X3537Y6506D02*
X3574Y6468D01*
X3499Y6506D02*
X3573Y6579D01*
X3517Y6468D02*
X3555Y6506D01*
X3494Y8561D02*
X3593Y8659D01*
X3494Y8505D02*
X3593Y8604D01*
X3494Y8576D02*
X3593Y8674D01*
X3494Y8449D02*
X3617Y8573D01*
X3494Y8394D02*
X3673Y8573D01*
X3494Y8199D02*
Y8576D01*
Y8282D02*
X3785Y8573D01*
X3494Y8553D02*
X3963Y8084D01*
X3494Y8338D02*
X3729Y8573D01*
X3259Y7825D02*
X4007Y8573D01*
X3494Y8497D02*
X3963Y8029D01*
X3204Y7825D02*
X3952Y8573D01*
X3494Y8386D02*
X3963Y7917D01*
X3411Y8199D02*
X3494Y8282D01*
X3466Y8199D02*
X3494Y8227D01*
X3371Y7825D02*
X3963Y8417D01*
X3426Y7825D02*
X3963Y8361D01*
X3482Y7825D02*
X3963Y8305D01*
X2805Y8199D02*
X3494D01*
X3088Y7825D02*
X3573D01*
X3069Y8199D02*
X3443Y7825D01*
X3315D02*
X3963Y8473D01*
X3092Y7825D02*
X3466Y8199D01*
X3156Y8947D02*
X3218Y8884D01*
X3182Y8848D02*
X3281Y8947D01*
X3058Y8848D02*
X3156Y8947D01*
X3002Y8848D02*
X3101Y8947D01*
X3044D02*
X3143Y8848D01*
X2989Y8947D02*
X3087Y8848D01*
X2933Y8947D02*
X3031Y8848D01*
X2805D02*
X3182D01*
X2891D02*
X2989Y8947D01*
X2711Y8278D02*
X3164Y7825D01*
X2697Y8236D02*
X3108Y7825D01*
X2951Y7962D02*
X3188Y8199D01*
X2979Y7934D02*
X3243Y8199D01*
X2923Y7990D02*
X3132Y8199D01*
X3034Y7878D02*
X3355Y8199D01*
X3062Y7850D02*
X3411Y8199D01*
X3006Y7906D02*
X3299Y8199D01*
X2895Y8017D02*
X3076Y8199D01*
X2901D02*
X3276Y7825D01*
X2865Y8043D02*
X3021Y8199D01*
X2846D02*
X3220Y7825D01*
X2892Y8020D02*
X3088Y7825D01*
X3494Y8274D02*
X4309Y7459D01*
X3494Y8219D02*
X4253Y7459D01*
X3458Y8199D02*
X4198Y7459D01*
X3347Y8199D02*
X4086Y7459D01*
X3403Y8199D02*
X4142Y7459D01*
X3291Y8199D02*
X4034Y7456D01*
X3148Y7825D02*
X3896Y8573D01*
X3180Y8199D02*
X3554Y7825D01*
X3124Y8199D02*
X3498Y7825D01*
X3236Y8199D02*
X3991Y7444D01*
X2728Y7195D02*
X3573D01*
X3460D02*
X3519Y7136D01*
X3461D02*
X3520Y7195D01*
X3462Y6468D02*
X3499Y6506D01*
X3425D02*
X3463Y6468D01*
X3481Y6506D02*
X3519Y6468D01*
X3406D02*
X3444Y6506D01*
X3405Y7136D02*
X3464Y7195D01*
X2728Y7136D02*
X3573D01*
X3404Y7195D02*
X3463Y7136D01*
X3317Y6468D02*
X3795D01*
X3317Y6506D02*
X3573D01*
X3238Y7136D02*
X3297Y7195D01*
X3293D02*
X3352Y7136D01*
X3237Y7195D02*
X3296Y7136D01*
X3349Y7195D02*
X3408Y7136D01*
X3350D02*
X3409Y7195D01*
X3294Y7136D02*
X3353Y7195D01*
X2957Y8199D02*
X3331Y7825D01*
X3013Y8199D02*
X3387Y7825D01*
X3016Y7136D02*
X3075Y7195D01*
X3183Y7136D02*
X3242Y7195D01*
X3070D02*
X3129Y7136D01*
X3182Y7195D02*
X3241Y7136D01*
X3317Y6503D02*
X3352Y6468D01*
X3127Y7136D02*
X3186Y7195D01*
X3350Y6468D02*
X3388Y6506D01*
X3370D02*
X3407Y6468D01*
X3317D02*
Y6506D01*
X2960Y7136D02*
X3019Y7195D01*
X3015D02*
X3074Y7136D01*
X2959Y7195D02*
X3018Y7136D01*
X3126Y7195D02*
X3185Y7136D01*
X3071D02*
X3130Y7195D01*
X2943Y15248D02*
X2980Y15285D01*
X2943Y15284D02*
X2980Y15247D01*
X2943Y15305D02*
X2980D01*
X2943Y15229D02*
X2980Y15191D01*
X2943Y15117D02*
X2980Y15080D01*
X2943Y15192D02*
X2980Y15229D01*
X2943Y15061D02*
X2980Y15024D01*
X2943Y14969D02*
X2980Y15007D01*
X2943Y15025D02*
X2980Y15062D01*
X2943Y14914D02*
X2980Y14951D01*
X2870Y14911D02*
X2980Y14801D01*
X2943Y15006D02*
X2980Y14968D01*
X2925Y14562D02*
X2980Y14617D01*
X2925Y14578D02*
X2980Y14523D01*
X2925Y14634D02*
X2980Y14579D01*
X2925Y14467D02*
X2980Y14412D01*
X2925Y14394D02*
X2980Y14450D01*
X2925Y14506D02*
X2980Y14561D01*
X2925Y14729D02*
X2980Y14784D01*
X2925Y14673D02*
X2980Y14728D01*
X2919Y14834D02*
X2980Y14895D01*
X2925Y14617D02*
X2980Y14673D01*
X2925Y14690D02*
X2980Y14634D01*
X2943Y14911D02*
Y15305D01*
X2885Y14911D02*
X2943Y14969D01*
X2863Y14834D02*
X2941Y14911D01*
X2808Y14834D02*
X2885Y14911D01*
X2815D02*
X2892Y14834D01*
X2759Y14911D02*
X2836Y14834D01*
X2536Y14911D02*
X2613Y14834D01*
X2696D02*
X2774Y14911D01*
X2474Y14834D02*
X2551Y14911D01*
X2752Y14834D02*
X2829Y14911D01*
X2703D02*
X2780Y14834D01*
X2648Y14911D02*
X2725Y14834D01*
X2892D02*
X2925Y14801D01*
X2641Y14834D02*
X2718Y14911D01*
X2925Y14523D02*
X2980Y14467D01*
X2925Y14450D02*
X2980Y14506D01*
X2925Y14746D02*
X2980Y14690D01*
X2585Y14834D02*
X2662Y14911D01*
X2592D02*
X2669Y14834D01*
X2529D02*
X2607Y14911D01*
X2481D02*
X2558Y14834D01*
X2925Y14339D02*
X2980Y14394D01*
X2925Y14356D02*
X2980Y14300D01*
X2925Y14411D02*
X2980Y14356D01*
Y14272D02*
Y15305D01*
X2925Y14283D02*
X2980Y14339D01*
X2925Y14241D02*
Y14834D01*
X2882Y14241D02*
X2925Y14283D01*
X2784Y14241D02*
X2925D01*
X2805Y14219D02*
X2827Y14241D01*
X2861Y14164D02*
X2980Y14283D01*
X2833Y14191D02*
X2882Y14241D01*
X2835Y8848D02*
X2934Y8947D01*
X2877D02*
X2976Y8848D01*
X2805Y9019D02*
X2877Y8947D01*
X2822D02*
X2920Y8848D01*
X2805Y8763D02*
X2891Y8848D01*
X2805Y8818D02*
X2835Y8848D01*
X2722Y8990D02*
X2864Y8848D01*
X2728Y8853D02*
X2822Y8947D01*
X2728Y8797D02*
X2878Y8947D01*
X2728Y8929D02*
X2809Y8848D01*
X2676Y9135D02*
X2717Y9176D01*
X2694Y9097D02*
X2745Y9148D01*
X2656Y9171D02*
X2689Y9204D01*
X2661Y9163D02*
X2805Y9019D01*
X2719Y9011D02*
X2804Y9096D01*
X2708Y9055D02*
X2773Y9120D01*
X2651Y9242D02*
X2767Y9126D01*
X2634Y9204D02*
X2661Y9231D01*
X2603Y9242D02*
X2651D01*
X2638D02*
X2805Y9075D01*
X2728Y8908D02*
X2805Y8985D01*
X2728Y8873D02*
X2805Y8796D01*
Y8947D02*
Y9096D01*
Y8199D02*
Y8848D01*
X2728Y8686D02*
X2805Y8763D01*
X2728Y8406D02*
Y8917D01*
X2726Y8962D02*
X2805Y9041D01*
X2728Y8741D02*
X2805Y8818D01*
X2706Y9063D02*
X2805Y8963D01*
X2728Y8762D02*
X2805Y8685D01*
X2728Y8818D02*
X2805Y8741D01*
X2313Y14911D02*
X2391Y14834D01*
X2362D02*
X2440Y14911D01*
X2307Y14834D02*
X2384Y14911D01*
X2418Y14834D02*
X2495Y14911D01*
X2425D02*
X2502Y14834D01*
X2369Y14911D02*
X2446Y14834D01*
X2251D02*
X2328Y14911D01*
X2192D02*
X2943D01*
X2227Y14866D02*
X2273Y14911D01*
X2202D02*
X2279Y14834D01*
X2258Y14911D02*
X2335Y14834D01*
X2242D02*
X2925D01*
X1624Y9421D02*
X1849Y9196D01*
X1624Y9365D02*
X1827Y9162D01*
X1624Y9309D02*
X1807Y9126D01*
X1624Y9254D02*
X1791Y9087D01*
X1624Y9085D02*
X1801Y9262D01*
X1624Y9198D02*
X1777Y9045D01*
X1140Y9627D02*
X1211Y9556D01*
X1112Y9599D02*
X1211Y9500D01*
X1167Y9655D02*
X1211Y9611D01*
X1056Y9543D02*
X1211Y9389D01*
X1028Y9515D02*
X1211Y9333D01*
X1084Y9571D02*
X1211Y9444D01*
X797Y9260D02*
X1211Y9674D01*
X797Y9205D02*
X1211Y9618D01*
X797Y9284D02*
X1211Y9698D01*
X797Y9093D02*
X1211Y9507D01*
X797Y9149D02*
X1211Y9562D01*
X1624Y9422D02*
X1744Y9303D01*
X1624Y9308D02*
X1681Y9365D01*
X1624Y9363D02*
X1654Y9393D01*
X1624Y9196D02*
X1737Y9309D01*
X1624Y9141D02*
X1766Y9283D01*
X1624Y9252D02*
X1709Y9337D01*
X972Y9460D02*
X1211Y9222D01*
X945Y9432D02*
X1211Y9166D01*
X1000Y9488D02*
X1211Y9277D01*
X889Y9376D02*
X1211Y9055D01*
X917Y9404D02*
X1211Y9110D01*
X1624Y9029D02*
X1842Y9248D01*
X1624Y8974D02*
X1854Y9203D01*
X1624Y8918D02*
X1790Y9083D01*
X1624Y8862D02*
X1769Y9007D01*
X1624Y8275D02*
Y9422D01*
Y9142D02*
X1767Y8999D01*
X1624Y9087D02*
X1761Y8949D01*
X797Y8926D02*
X1211Y9340D01*
X805Y9293D02*
X1211Y8887D01*
X1624Y9031D02*
X1760Y8895D01*
X797Y8871D02*
X1211Y9284D01*
X1624Y8975D02*
X1760Y8839D01*
X1624Y8806D02*
X1761Y8943D01*
X1624Y8920D02*
X1760Y8783D01*
Y8406D02*
Y8917D01*
X1624Y8864D02*
X1760Y8728D01*
X1624Y8751D02*
X1760Y8887D01*
X1624Y8808D02*
X1760Y8672D01*
X1624Y8639D02*
X1760Y8776D01*
X1624Y8695D02*
X1760Y8831D01*
X1624Y8752D02*
X1760Y8616D01*
X797Y8425D02*
X1211Y8839D01*
X797Y8982D02*
X1211Y9395D01*
X861Y9348D02*
X1211Y8999D01*
X797Y9038D02*
X1211Y9451D01*
Y8189D02*
Y9698D01*
X797Y9245D02*
X1211Y8832D01*
X833Y9321D02*
X1211Y8943D01*
X797Y9190D02*
X1211Y8776D01*
X797Y8759D02*
X1211Y9173D01*
X797Y8815D02*
X1211Y9228D01*
X797Y8704D02*
X1211Y9117D01*
X797Y9134D02*
X1211Y8720D01*
X797Y8911D02*
X1211Y8498D01*
X797Y8481D02*
X1211Y8894D01*
X797Y8536D02*
X1211Y8950D01*
X797Y8800D02*
X1211Y8386D01*
X797Y8369D02*
X1211Y8783D01*
X797Y8855D02*
X1211Y8442D01*
X797Y8648D02*
X1211Y9061D01*
X797Y9022D02*
X1211Y8609D01*
X797Y9078D02*
X1211Y8665D01*
X797Y8967D02*
X1211Y8553D01*
X797Y8592D02*
X1211Y9006D01*
X2728Y8706D02*
X2805Y8629D01*
X2728Y8574D02*
X2805Y8651D01*
X2728Y8630D02*
X2805Y8707D01*
X2728Y8518D02*
X2805Y8596D01*
X2728Y8595D02*
X2805Y8518D01*
X2728Y8651D02*
X2805Y8574D01*
X2728Y8539D02*
X2805Y8462D01*
X2728Y8407D02*
X2805Y8484D01*
X2728Y8463D02*
X2805Y8540D01*
X2725Y8348D02*
X2805Y8429D01*
X2728Y8428D02*
X2805Y8351D01*
X2728Y8484D02*
X2805Y8407D01*
Y8295D02*
X2901Y8199D01*
X2787Y8077D02*
X2909Y8199D01*
X2805Y8240D02*
X2846Y8199D01*
X2829Y8063D02*
X2965Y8199D01*
X2711Y8279D02*
X2805Y8373D01*
X2721Y8324D02*
X2805Y8240D01*
X2727Y8373D02*
X2805Y8295D01*
X2736Y8081D02*
X2854Y8199D01*
X2681Y8197D02*
X2806Y8072D01*
X2677Y8189D02*
X2805Y8317D01*
X2624Y8081D02*
X2805Y8262D01*
X1664Y8234D02*
X1765Y8335D01*
X1692Y8206D02*
X1775Y8289D01*
X1636Y8262D02*
X1761Y8386D01*
X1748Y8151D02*
X1803Y8206D01*
X1720Y8179D02*
X1787Y8246D01*
X2680Y8081D02*
X2805Y8206D01*
X2661Y8161D02*
X2741Y8081D01*
X2640Y8127D02*
X2686Y8081D01*
X1845D02*
X1867Y8103D01*
X2603Y8081D02*
X2746D01*
X1818Y7667D02*
X1855Y7630D01*
X1804Y8095D02*
X1843Y8135D01*
X1818Y8081D02*
X1885D01*
X1776Y8123D02*
X1822Y8169D01*
X1732Y7667D02*
X1885D01*
X1763D02*
X1833Y7597D01*
X2793Y7136D02*
X2852Y7195D01*
X2848D02*
X2907Y7136D01*
X2792Y7195D02*
X2851Y7136D01*
X2903Y7195D02*
X2962Y7136D01*
X2904D02*
X2963Y7195D01*
X2849Y7136D02*
X2908Y7195D01*
X2736D02*
X2795Y7136D01*
X2737D02*
X2796Y7195D01*
X2728Y7136D02*
Y7195D01*
X2622Y6529D02*
X2904Y6248D01*
X2648Y6506D02*
X2904D01*
X2648Y6560D02*
X2701Y6506D01*
X2813D02*
X2904Y6415D01*
X2757Y6506D02*
X2904Y6359D01*
X2868Y6506D02*
X2904Y6471D01*
X2597Y6499D02*
X2904Y6192D01*
X2579Y6142D02*
X2904Y6467D01*
X2701Y6506D02*
X2904Y6304D01*
X2480Y6211D02*
X2775Y6506D01*
X2515Y6190D02*
X2831Y6506D01*
X2443Y6229D02*
X2720Y6506D01*
X2569Y6472D02*
X2904Y6137D01*
X2548Y6167D02*
X2887Y6506D01*
X2648D02*
Y6564D01*
X2359Y6256D02*
X2648Y6545D01*
X2402Y6244D02*
X2664Y6506D01*
X2032Y6396D02*
X2164Y6263D01*
X1705Y7669D02*
X1813Y7562D01*
X1760Y6831D02*
Y7343D01*
X2312Y6265D02*
X2431Y6385D01*
X2261Y6269D02*
X2350Y6359D01*
X2204Y6268D02*
X2284Y6349D01*
X2348Y6358D02*
X2517Y6189D01*
X2300Y6350D02*
X2408Y6242D01*
X2248Y6347D02*
X2333Y6262D01*
X2189Y6350D02*
X2270Y6269D01*
X2138Y6258D02*
X2227Y6347D01*
X2121Y6363D02*
X2215Y6269D01*
X2058Y6234D02*
X2176Y6352D01*
X1917Y6148D02*
X2129Y6361D01*
X1624Y8697D02*
X1760Y8561D01*
X1624Y8528D02*
X1760Y8664D01*
X1624Y8584D02*
X1760Y8720D01*
X1624Y8472D02*
X1760Y8609D01*
X1624Y8585D02*
X1760Y8449D01*
X1624Y8641D02*
X1760Y8505D01*
X1624Y8417D02*
X1760Y8553D01*
X1624Y8530D02*
X1760Y8393D01*
X1624Y8361D02*
X1760Y8497D01*
X1624Y8474D02*
X1766Y8332D01*
X797Y8466D02*
X1781Y7482D01*
X1624Y8305D02*
X1760Y8442D01*
X1624Y8363D02*
X1828Y8159D01*
X1624Y8307D02*
X1850Y8081D01*
X1624Y8418D02*
X1783Y8260D01*
X1624Y8275D02*
X1818Y8081D01*
X1614Y7704D02*
X1795Y7523D01*
X1271Y8043D02*
X1586Y7728D01*
X797Y7479D02*
X1316Y7998D01*
X797Y8410D02*
X1770Y7438D01*
X797Y7423D02*
X1344Y7970D01*
X797Y8202D02*
X1211Y8616D01*
X797Y8577D02*
X1212Y8162D01*
X797Y8147D02*
X1211Y8560D01*
X797Y8521D02*
X1248Y8071D01*
X797Y8091D02*
X1211Y8504D01*
X797Y8035D02*
X1211Y8449D01*
X797Y8314D02*
X1211Y8727D01*
X797Y8688D02*
X1211Y8275D01*
X797Y8744D02*
X1211Y8331D01*
X797Y8633D02*
X1211Y8219D01*
X797Y8258D02*
X1211Y8671D01*
X797Y7980D02*
X1211Y8393D01*
X797Y7868D02*
X1211Y8282D01*
X797Y7813D02*
X1211Y8226D01*
X797Y7924D02*
X1211Y8337D01*
X797Y7701D02*
X1221Y8125D01*
X797Y7646D02*
X1238Y8086D01*
X797Y7757D02*
X1211Y8171D01*
X797Y7534D02*
X1288Y8026D01*
X797Y7590D02*
X1261Y8054D01*
X797Y7742D02*
X1763Y6776D01*
X797Y7686D02*
X1776Y6707D01*
X797Y7853D02*
X1760Y6890D01*
X797Y6643D02*
X1821Y7667D01*
X797Y6588D02*
X1877Y7667D01*
X797Y6699D02*
X1765Y7667D01*
X797Y8354D02*
X1762Y7389D01*
X797Y8243D02*
X1760Y7280D01*
X797Y8187D02*
X1760Y7224D01*
X797Y7909D02*
X1760Y6946D01*
X797Y8020D02*
X1760Y7057D01*
X797Y6476D02*
X1773Y7452D01*
X797Y7408D02*
X1999Y6206D01*
X797Y6421D02*
X1762Y7386D01*
X797Y7352D02*
X1965Y6185D01*
X797Y7296D02*
X1932Y6161D01*
X797Y7241D02*
X1902Y6136D01*
X797Y7631D02*
X1809Y6619D01*
X797Y7575D02*
X2118Y6254D01*
X797Y6532D02*
X1800Y7535D01*
X797Y7519D02*
X2076Y6241D01*
X797Y7463D02*
X2036Y6225D01*
X797Y7256D02*
X1428Y7886D01*
X797Y7200D02*
X1456Y7858D01*
X797Y7312D02*
X1400Y7914D01*
X797Y7089D02*
X1511Y7803D01*
X797Y7798D02*
X1760Y6835D01*
X797Y7145D02*
X1483Y7831D01*
X797Y8299D02*
X1760Y7336D01*
X797Y8132D02*
X1760Y7169D01*
X797Y7367D02*
X1372Y7942D01*
X797Y7965D02*
X1760Y7002D01*
X797Y8076D02*
X1760Y7113D01*
X797Y6365D02*
X1760Y7328D01*
X797Y6309D02*
X1760Y7272D01*
X797Y6755D02*
X1711Y7668D01*
X797Y6198D02*
X1760Y7161D01*
X797Y6142D02*
X1760Y7105D01*
X797Y6254D02*
X1760Y7217D01*
X797Y6977D02*
X1567Y7747D01*
X797Y6922D02*
X1595Y7720D01*
X797Y7033D02*
X1539Y7775D01*
X797Y6810D02*
X1665Y7678D01*
X797Y6866D02*
X1627Y7696D01*
X3870Y5985D02*
X3986Y6102D01*
X3870Y6061D02*
X3986Y5945D01*
X3870Y6117D02*
X3986Y6001D01*
X3870Y6006D02*
X3986Y5889D01*
X3870Y5874D02*
X3986Y5991D01*
X3870Y5930D02*
X3986Y6046D01*
X3870Y6340D02*
X4097Y6112D01*
X3870Y6284D02*
X4042Y6112D01*
X3870Y6228D02*
X3986Y6112D01*
X3870Y6097D02*
X4018Y6245D01*
X3870Y6041D02*
X4046Y6217D01*
X3870Y6173D02*
X3986Y6056D01*
X3888Y5725D02*
X3986Y5824D01*
X3888Y5669D02*
X3986Y5768D01*
X3870Y5894D02*
X3986Y5778D01*
X3888Y5709D02*
X3986Y5611D01*
X3888Y5558D02*
X3986Y5657D01*
X3888Y5614D02*
X3986Y5712D01*
X3789Y5738D02*
X3986Y5935D01*
X3845Y5738D02*
X3986Y5879D01*
X3870Y5950D02*
X3986Y5834D01*
X3798Y5855D02*
X3986Y5666D01*
X3854Y5855D02*
X3986Y5722D01*
X3870Y5855D02*
Y6394D01*
X3795Y5855D02*
X3870Y5930D01*
X3742Y5855D02*
X3859Y5738D01*
X3687Y5855D02*
X3803Y5738D01*
X3734D02*
X3850Y5855D01*
X3678Y5738D02*
X3795Y5855D01*
X3622Y5738D02*
X3739Y5855D01*
X3631D02*
X3747Y5738D01*
X3575Y5855D02*
X3692Y5738D01*
X3400D02*
X3516Y5855D01*
X3520D02*
X3636Y5738D01*
X3567D02*
X3683Y5855D01*
X3464D02*
X3580Y5738D01*
X3859D02*
X3888Y5709D01*
X3803Y5738D02*
X3888Y5654D01*
X3511Y5738D02*
X3628Y5855D01*
X3353D02*
X3469Y5738D01*
X3317D02*
X3888D01*
X3344D02*
X3461Y5855D01*
X3455Y5738D02*
X3572Y5855D01*
X3408D02*
X3525Y5738D01*
X3888Y5502D02*
X3986Y5601D01*
X3888Y5598D02*
X3986Y5499D01*
X3888Y5654D02*
X3986Y5555D01*
X3888Y5542D02*
X4478Y4952D01*
X3888Y5391D02*
X3986Y5490D01*
X3888Y5447D02*
X3986Y5545D01*
X3888Y5113D02*
X4238Y5463D01*
X3875Y4933D02*
X4405Y5463D01*
X3888Y5280D02*
X4071Y5463D01*
X3888Y5487D02*
X4478Y4896D01*
X3819Y4933D02*
X4349Y5463D01*
X3763Y4933D02*
X4293Y5463D01*
X3888Y5224D02*
X4126Y5463D01*
X3888Y5168D02*
X4182Y5463D01*
X3888Y5335D02*
X4015Y5463D01*
X3888Y5375D02*
X4478Y4785D01*
X3888Y5319D02*
X4478Y4729D01*
X3888Y5431D02*
X4478Y4840D01*
X3888Y5264D02*
X4478Y4673D01*
X3888Y5097D02*
X4052Y4933D01*
X3840Y5089D02*
X3996Y4933D01*
X3888Y5152D02*
X4478Y4562D01*
X3888Y5208D02*
X4478Y4618D01*
X3888Y5089D02*
Y5738D01*
X3864Y5089D02*
X3888Y5113D01*
X3808Y5089D02*
X3888Y5168D01*
X3729Y5089D02*
X3885Y4933D01*
X3785Y5089D02*
X3941Y4933D01*
X3708D02*
X3864Y5089D01*
X3596Y4933D02*
X3752Y5089D01*
X3618D02*
X3773Y4933D01*
X3562Y5089D02*
X3718Y4933D01*
X3673Y5089D02*
X3829Y4933D01*
X3652D02*
X3808Y5089D01*
X3506D02*
X3662Y4933D01*
X3541D02*
X3697Y5089D01*
X3435Y4938D02*
X3585Y5089D01*
X3451D02*
X3606Y4933D01*
X3435Y4883D02*
X3641Y5089D01*
X3435Y4124D02*
Y4951D01*
X3392D02*
X3530Y5089D01*
X3395D02*
X3551Y4933D01*
X3336Y4951D02*
X3474Y5089D01*
X3339D02*
X3512Y4916D01*
X3366Y4951D02*
X3435Y4881D01*
X2738Y5856D02*
X2904Y6022D01*
X3317Y5855D02*
X3870D01*
X2728Y5902D02*
X2904Y6077D01*
X3317Y5738D02*
Y5855D01*
Y5767D02*
X3405Y5855D01*
X2745Y5807D02*
X2904Y5966D01*
X2538Y6446D02*
X2904Y6081D01*
X2633Y6085D02*
X2904Y6356D01*
X2607Y6115D02*
X2904Y6411D01*
X2432Y6385D02*
X2904Y5914D01*
X2392Y6370D02*
X2904Y5858D01*
X2657Y6053D02*
X2904Y6300D01*
X3317Y5835D02*
X3413Y5738D01*
X3317Y5779D02*
X3358Y5738D01*
X3317Y5822D02*
X3349Y5855D01*
X2964Y5444D02*
X3141Y5267D01*
X2746Y5682D02*
X2922Y5506D01*
X2746Y5419D02*
X2904Y5577D01*
X2746Y5737D02*
X2904Y5580D01*
X2746Y5307D02*
X2929Y5491D01*
X2746Y5363D02*
X2913Y5530D01*
X2679Y6019D02*
X2904Y6244D01*
X2698Y5983D02*
X2904Y6189D01*
X2505Y6423D02*
X2904Y6025D01*
Y5591D02*
Y6506D01*
X2714Y5944D02*
X2904Y6133D01*
X2470Y6403D02*
X2904Y5970D01*
X797Y5419D02*
X1885Y6506D01*
X797Y7185D02*
X1875Y6108D01*
X797Y5307D02*
X1942Y6452D01*
X797Y5363D02*
X1913Y6478D01*
X2746Y5697D02*
X2904Y5854D01*
X2746Y5641D02*
X2904Y5799D01*
X2746Y5753D02*
X2904Y5910D01*
X2746Y5530D02*
X2904Y5687D01*
X2746Y5474D02*
X2904Y5632D01*
X2746Y5256D02*
Y5768D01*
X2718Y5932D02*
X2904Y5747D01*
X2738Y5857D02*
X2904Y5691D01*
X2665Y6041D02*
X2904Y5803D01*
X2746Y5586D02*
X2904Y5743D01*
X2745Y5794D02*
X2904Y5636D01*
X3199Y5173D02*
X3284Y5089D01*
X3199D02*
Y5227D01*
X2946Y4951D02*
X3199Y5203D01*
X2891Y4951D02*
X3178Y5238D01*
X2746Y5626D02*
X3199Y5173D01*
X2746Y5570D02*
X3199Y5118D01*
X2835Y4951D02*
X3146Y5262D01*
X2746Y5515D02*
X3310Y4951D01*
X2746Y5459D02*
X3254Y4951D01*
X2746Y5403D02*
X3199Y4951D01*
X3225D02*
X3363Y5089D01*
X3199D02*
X3888D01*
X3199Y5118D02*
X3228Y5089D01*
X3280Y4951D02*
X3418Y5089D01*
X3284D02*
X3421Y4951D01*
X3228Y5089D02*
X3366Y4951D01*
X3002D02*
X3199Y5148D01*
X2805Y4951D02*
X3435D01*
X3058D02*
X3199Y5092D01*
X3169Y4951D02*
X3307Y5089D01*
X3113Y4951D02*
X3251Y5089D01*
X2742Y5192D02*
X2979Y5429D01*
X2728Y5122D02*
X3007Y5401D01*
X2746Y5252D02*
X2952Y5458D01*
X2746Y5348D02*
X3143Y4951D01*
X2648Y4931D02*
X3063Y5346D01*
X2693Y5032D02*
X3035Y5373D01*
X797Y5196D02*
X2009Y6408D01*
X797Y5140D02*
X2046Y6389D01*
X797Y5251D02*
X1975Y6429D01*
X818Y5105D02*
X2086Y6373D01*
X845Y5077D02*
X1864Y6095D01*
X2741Y5186D02*
X2976Y4951D01*
X2732Y5139D02*
X2920Y4951D01*
X2720Y5096D02*
X2865Y4951D01*
X2746Y5292D02*
X3087Y4951D01*
X2760Y4931D02*
X3119Y5290D01*
X2746Y5237D02*
X3032Y4951D01*
X2704Y4931D02*
X3091Y5318D01*
X2704Y5055D02*
X2809Y4951D01*
X2686Y5018D02*
X2773Y4931D01*
X2665Y4983D02*
X2717Y4931D01*
X3512Y4904D02*
X3541Y4933D01*
X3512D02*
X4106D01*
X3435Y4937D02*
X3512Y4860D01*
Y4848D02*
X3596Y4933D01*
X3512Y4124D02*
Y4933D01*
X3435Y4881D02*
X3512Y4804D01*
X3435Y4771D02*
X3512Y4848D01*
X3435Y4827D02*
X3512Y4904D01*
X3435Y4770D02*
X3512Y4693D01*
X3435Y4660D02*
X3512Y4737D01*
X3435Y4826D02*
X3512Y4749D01*
X3435Y4604D02*
X3512Y4681D01*
X3435Y4659D02*
X3512Y4581D01*
X3435Y4714D02*
X3512Y4637D01*
X3435Y4549D02*
X3512Y4626D01*
X3435Y4493D02*
X3512Y4570D01*
X3435Y4547D02*
X3512Y4470D01*
X3435Y4603D02*
X3512Y4526D01*
X3435Y4213D02*
X3512Y4136D01*
X3435Y4159D02*
X3512Y4236D01*
X3435Y4103D02*
X3512Y4180D01*
X3435Y4158D02*
X3494Y4099D01*
X3435Y4047D02*
X3494Y4107D01*
X3435Y4026D02*
Y4124D01*
X3512Y4044D02*
Y4124D01*
X3435Y4026D02*
Y4124D01*
Y3992D02*
X3494Y4051D01*
X3435Y4046D02*
X3494Y3987D01*
X3435Y4102D02*
X3494Y4043D01*
X3435Y3991D02*
X3494Y3932D01*
X3435Y3936D02*
X3494Y3995D01*
X3435Y3713D02*
X3494Y3772D01*
X3435Y3768D02*
X3494Y3709D01*
X3435Y3824D02*
X3494Y3765D01*
X3435Y3712D02*
X3494Y3653D01*
X3435Y3602D02*
X3494Y3661D01*
X3435Y3658D02*
X3494Y3717D01*
X3435Y3935D02*
X3494Y3876D01*
X3435Y3825D02*
X3494Y3884D01*
X3435Y3880D02*
X3494Y3940D01*
X3435Y3769D02*
X3494Y3828D01*
X3435Y3879D02*
X3494Y3820D01*
X3921Y1193D02*
X4037Y1309D01*
X3886Y1193D02*
X4224D01*
X3918Y1224D02*
X3950Y1193D01*
X3911Y285D02*
X3999Y197D01*
X3886Y1193D02*
X4003Y1309D01*
X3529Y835D02*
X3571Y792D01*
X3855Y285D02*
X3944Y197D01*
X3872D02*
X3960Y285D01*
X3816Y197D02*
X3905Y285D01*
X3688D02*
X3777Y197D01*
X3705D02*
X3793Y285D01*
X3649Y197D02*
X3737Y285D01*
X3760Y197D02*
X3849Y285D01*
X3800D02*
X3888Y197D01*
X3744Y285D02*
X3832Y197D01*
X3538D02*
X3626Y285D01*
X3577D02*
X3665Y197D01*
X3521Y285D02*
X3610Y197D01*
X3632Y285D02*
X3721Y197D01*
X3593D02*
X3682Y285D01*
X3435Y3546D02*
X3494Y3605D01*
X3435Y3601D02*
X3494Y3542D01*
X3435Y3657D02*
X3494Y3597D01*
Y3376D02*
Y4124D01*
X3435Y3491D02*
X3494Y3550D01*
X3435Y3376D02*
Y4026D01*
Y3435D02*
X3494Y3494D01*
X3435Y3435D02*
X3494Y3494D01*
X3435Y3545D02*
X3494Y3486D01*
X3435Y3379D02*
X3494Y3438D01*
X3435Y3489D02*
X3494Y3430D01*
X3571Y699D02*
Y877D01*
X3538Y699D02*
X3571Y732D01*
X3501Y807D02*
X3571Y736D01*
X3483Y699D02*
X3571Y787D01*
X3482Y197D02*
X3570Y285D01*
X3473Y779D02*
X3553Y699D01*
X3435Y3376D02*
X3494D01*
X3453Y759D02*
X3571Y877D01*
X3435Y3434D02*
X3493Y3376D01*
X3465Y285D02*
X3554Y197D01*
X3445Y751D02*
X3497Y699D01*
X3435Y4437D02*
X3512Y4514D01*
X3435Y4492D02*
X3512Y4414D01*
X3435Y4716D02*
X3512Y4793D01*
X3435Y4436D02*
X3512Y4359D01*
X3435Y4326D02*
X3512Y4403D01*
X3435Y4382D02*
X3512Y4459D01*
X3435Y4270D02*
X3512Y4347D01*
X3435Y4325D02*
X3512Y4247D01*
X3435Y4380D02*
X3512Y4303D01*
X3435Y4269D02*
X3512Y4192D01*
X3427Y699D02*
X3571Y843D01*
X3435Y4215D02*
X3512Y4292D01*
X3307Y699D02*
X3571D01*
X3413Y728D02*
X3442Y699D01*
X3298Y285D02*
X3387Y197D01*
X3259D02*
X3348Y285D01*
X2667Y699D02*
X3307D01*
X2106Y285D02*
X5925D01*
X2667Y699D02*
X3307D01*
X197Y197D02*
X6704D01*
X3243Y285D02*
X3331Y197D01*
X2627Y4931D02*
X2805D01*
X1742Y561D02*
X2106Y197D01*
X1862Y444D02*
X1960Y346D01*
X1520Y561D02*
X1884Y197D01*
X1631Y561D02*
X1995Y197D01*
X1644D02*
X1877Y429D01*
X1687Y561D02*
X2051Y197D01*
X1700D02*
X1905Y401D01*
X3092Y197D02*
X3181Y285D01*
X3131D02*
X3220Y197D01*
X3076Y285D02*
X3164Y197D01*
X3187Y285D02*
X3276Y197D01*
X3203D02*
X3292Y285D01*
X3148Y197D02*
X3236Y285D01*
X2964D02*
X3053Y197D01*
X2981D02*
X3069Y285D01*
X3036Y197D02*
X3125Y285D01*
X3020D02*
X3109Y197D01*
X2647D02*
X2735Y285D01*
X2686D02*
X2775Y197D01*
X2630Y285D02*
X2719Y197D01*
X2742Y285D02*
X2830Y197D01*
X2758D02*
X2847Y285D01*
X2702Y197D02*
X2791Y285D01*
X2519D02*
X2607Y197D01*
X2535D02*
X2624Y285D01*
X2480Y197D02*
X2568Y285D01*
X2591Y197D02*
X2680Y285D01*
X2575D02*
X2663Y197D01*
X3315D02*
X3403Y285D01*
X3354D02*
X3443Y197D01*
X2925D02*
X3014Y285D01*
X3410D02*
X3498Y197D01*
X3426D02*
X3515Y285D01*
X3370Y197D02*
X3459Y285D01*
X2814Y197D02*
X2902Y285D01*
X2853D02*
X2942Y197D01*
X2797Y285D02*
X2886Y197D01*
X2909Y285D02*
X2997Y197D01*
X2869D02*
X2958Y285D01*
X2070Y289D02*
X2162Y197D01*
X2296Y285D02*
X2385Y197D01*
X1979D02*
X2070Y289D01*
X2352Y285D02*
X2440Y197D01*
X2368D02*
X2457Y285D01*
X2313Y197D02*
X2401Y285D01*
X1575Y561D02*
X1939Y197D01*
X1812D02*
X1960Y346D01*
X1756Y197D02*
X1933Y374D01*
X1923Y197D02*
X2027Y301D01*
X1867Y197D02*
X1991Y321D01*
X2241Y285D02*
X2329Y197D01*
X2257D02*
X2346Y285D01*
X2201Y197D02*
X2290Y285D01*
X2424Y197D02*
X2513Y285D01*
X2463D02*
X2552Y197D01*
X2408Y285D02*
X2496Y197D01*
X2090D02*
X2178Y285D01*
X2129D02*
X2218Y197D01*
X2034D02*
X2123Y285D01*
X2185D02*
X2273Y197D01*
X2146D02*
X2234Y285D01*
X797Y6072D02*
X1766Y5103D01*
X873Y5049D02*
X1778Y5954D01*
X901Y5021D02*
X1753Y5874D01*
X797Y6016D02*
X1811Y5002D01*
X797Y5960D02*
X1826Y4931D01*
X929Y4993D02*
X1744Y5808D01*
X797Y5530D02*
X1837Y6569D01*
X797Y6517D02*
X1742Y5572D01*
X797Y6573D02*
X1742Y5628D01*
X797Y5474D02*
X1860Y6537D01*
X797Y6127D02*
X1749Y5176D01*
X797Y6183D02*
X1742Y5238D01*
X1757Y4931D02*
X1818Y4991D01*
X1813Y4931D02*
X1840Y4958D01*
X1742Y5256D02*
Y5768D01*
X1702Y4931D02*
X1797Y5027D01*
X1646Y4931D02*
X1780Y5065D01*
X1479Y4931D02*
X1746Y5198D01*
X991Y4931D02*
X1861D01*
X1423D02*
X1742Y5250D01*
X1590Y4931D02*
X1765Y5106D01*
X1535Y4931D02*
X1753Y5150D01*
X985Y4938D02*
X1742Y5695D01*
X1034Y4931D02*
X1742Y5640D01*
X957Y4966D02*
X1742Y5751D01*
X1145Y4931D02*
X1742Y5528D01*
X1201Y4931D02*
X1742Y5473D01*
X1089Y4931D02*
X1742Y5584D01*
X797Y6406D02*
X1742Y5461D01*
X797Y6350D02*
X1742Y5405D01*
X797Y6461D02*
X1742Y5516D01*
X797Y6239D02*
X1742Y5294D01*
X797Y6294D02*
X1742Y5349D01*
X1312Y4931D02*
X1742Y5361D01*
X1368Y4931D02*
X1742Y5306D01*
X1256Y4931D02*
X1742Y5417D01*
X797Y5348D02*
X1214Y4931D01*
X929Y3100D02*
X965Y3136D01*
X818Y3100D02*
X916Y3199D01*
X797Y5236D02*
X1103Y4931D01*
X797Y5181D02*
X1047Y4931D01*
X797Y5125D02*
X991Y4931D01*
X797Y5292D02*
X1158Y4931D01*
X797Y5125D02*
X991Y4931D01*
X896Y3100D02*
X1006D01*
X896Y3067D02*
X929Y3100D01*
X837Y3064D02*
X939Y3166D01*
X896Y3011D02*
X985Y3100D01*
X837Y3081D02*
X896Y3022D01*
X837Y3026D02*
X896Y2967D01*
X837Y2952D02*
X896Y3011D01*
X837Y3008D02*
X896Y3067D01*
X837Y2914D02*
X896Y2855D01*
X837Y2841D02*
X896Y2900D01*
X837Y2970D02*
X896Y2911D01*
X837Y2785D02*
X896Y2844D01*
X837Y2803D02*
X896Y2744D01*
X837Y2859D02*
X896Y2800D01*
X914Y2175D02*
Y2216D01*
Y1327D02*
Y2175D01*
X837Y2730D02*
X896Y2789D01*
X837Y2674D02*
X896Y2733D01*
X837Y2692D02*
X896Y2632D01*
X837Y2747D02*
X896Y2688D01*
X837Y2190D02*
X914Y2113D01*
X837Y2618D02*
X896Y2677D01*
X837Y2636D02*
X896Y2577D01*
X837Y2563D02*
X896Y2622D01*
X837Y2897D02*
X896Y2956D01*
Y2175D02*
Y3100D01*
X837Y2580D02*
X896Y2521D01*
X837Y2234D02*
Y3100D01*
Y2525D02*
X896Y2465D01*
X837Y2451D02*
X896Y2510D01*
X837Y2507D02*
X896Y2566D01*
X837Y2396D02*
X896Y2455D01*
X837Y2469D02*
X896Y2410D01*
X837Y2229D02*
X896Y2288D01*
X837Y2246D02*
X896Y2187D01*
X837Y2175D02*
Y2234D01*
Y2173D02*
X896Y2232D01*
X837Y2117D02*
X896Y2176D01*
X837Y2175D02*
Y2234D01*
Y2340D02*
X896Y2399D01*
X837Y2357D02*
X896Y2298D01*
X837Y2413D02*
X896Y2354D01*
X837Y2302D02*
X896Y2243D01*
X837Y2284D02*
X896Y2343D01*
X797Y5975D02*
X1760Y6938D01*
X797Y6907D02*
X1770Y5934D01*
X797Y5920D02*
X1760Y6883D01*
X797Y6851D02*
X1757Y5891D01*
X797Y5864D02*
X1760Y6827D01*
X797Y6795D02*
X1748Y5845D01*
X797Y7129D02*
X1849Y6078D01*
X797Y7074D02*
X1826Y6045D01*
X797Y6087D02*
X1760Y7050D01*
X797Y7018D02*
X1805Y6011D01*
X797Y6962D02*
X1786Y5973D01*
X797Y6031D02*
X1760Y6994D01*
X797Y5641D02*
X1798Y6642D01*
X797Y5586D02*
X1816Y6605D01*
X797Y6628D02*
X1742Y5684D01*
X797Y5905D02*
X1771Y4931D01*
X797Y5849D02*
X1715Y4931D01*
X797Y5793D02*
X1659Y4931D01*
X797Y5808D02*
X1764Y6775D01*
X797Y5753D02*
X1772Y6727D01*
X797Y6740D02*
X1743Y5794D01*
X797Y5697D02*
X1783Y6683D01*
X797Y6684D02*
X1742Y5739D01*
X797Y5626D02*
X1492Y4931D01*
X797Y5570D02*
X1437Y4931D01*
X797Y5125D02*
Y9284D01*
Y5738D02*
X1604Y4931D01*
X797Y5682D02*
X1548Y4931D01*
X797Y5515D02*
X1381Y4931D01*
X797Y5459D02*
X1325Y4931D01*
X797Y5403D02*
X1270Y4931D01*
X404Y3856D02*
X431Y3883D01*
X411Y3807D02*
X459Y3855D01*
X404Y3814D02*
Y3910D01*
X578Y3640D02*
X626Y3688D01*
X606Y3612D02*
X654Y3660D01*
X550Y3668D02*
X598Y3716D01*
X661Y3556D02*
X709Y3605D01*
X687Y3527D02*
X737Y3577D01*
X633Y3584D02*
X682Y3632D01*
X466Y3751D02*
X514Y3799D01*
X494Y3723D02*
X542Y3772D01*
X438Y3779D02*
X487Y3827D01*
X404Y3814D02*
X668Y3550D01*
X522Y3696D02*
X570Y3744D01*
X728Y3401D02*
X821Y3493D01*
X728Y3345D02*
X849Y3465D01*
X723Y3451D02*
X793Y3521D01*
X712Y3484D02*
X868Y3328D01*
X728Y3412D02*
X890Y3251D01*
X728Y3290D02*
X866Y3427D01*
X404Y3910D02*
X868Y3446D01*
X404Y3904D02*
X867Y3440D01*
X708Y3492D02*
X765Y3549D01*
X404Y3848D02*
X863Y3389D01*
X728Y3178D02*
X869Y3319D01*
X762Y3100D02*
X897Y3235D01*
X728Y3234D02*
X864Y3369D01*
X728Y3357D02*
X985Y3100D01*
X728Y3301D02*
X929Y3100D01*
X762D02*
X837Y3026D01*
X728Y3122D02*
X881Y3275D01*
X728Y3100D02*
X837D01*
X728Y3134D02*
X762Y3100D01*
X728Y3245D02*
X896Y3078D01*
X728Y3190D02*
X818Y3100D01*
X197Y3436D02*
X315Y3318D01*
X197Y3370D02*
X230Y3403D01*
X728Y3100D02*
Y3404D01*
X315Y3100D02*
Y3318D01*
X197Y197D02*
Y3436D01*
Y3387D02*
X315Y3269D01*
X197Y3259D02*
X285Y3348D01*
X197Y3315D02*
X258Y3376D01*
X197Y3331D02*
X315Y3213D01*
X197Y3203D02*
X313Y3320D01*
X261Y3100D02*
X315Y3155D01*
X207Y3100D02*
X315D01*
X207Y3046D02*
X261Y3100D01*
X207Y2175D02*
Y2234D01*
Y2175D02*
Y2234D01*
Y3100D01*
X197Y3148D02*
X315Y3266D01*
X197Y3220D02*
X315Y3102D01*
X197Y3276D02*
X315Y3158D01*
X197Y3092D02*
X315Y3210D01*
X197Y3164D02*
X261Y3100D01*
X1507Y1742D02*
X1764Y1486D01*
X1507Y1675D02*
X1542Y1709D01*
X1507Y1486D02*
Y1744D01*
X1765Y1486D01*
X1507Y1687D02*
X1708Y1486D01*
X1507Y1631D02*
X1652Y1486D01*
X1507Y1619D02*
X1570Y1681D01*
X1507Y1563D02*
X1598Y1653D01*
X1507Y1507D02*
X1626Y1626D01*
X1653Y1486D02*
X1709Y1542D01*
X1709Y1486D02*
X1737Y1514D01*
X1507Y1507D02*
X1626Y1626D01*
X1542Y1486D02*
X1653Y1598D01*
X1598Y1486D02*
X1681Y1570D01*
X1507Y1575D02*
X1597Y1486D01*
X1507Y1520D02*
X1541Y1486D01*
X1507D02*
X1765D01*
X914Y1327D02*
X1348D01*
X1254D02*
X1348Y1233D01*
X1310Y1327D02*
X1348Y1289D01*
X837Y1634D02*
X914Y1557D01*
X837Y1449D02*
X914Y1526D01*
X837Y1689D02*
X914Y1612D01*
X837Y1393D02*
X914Y1471D01*
X837Y1467D02*
X914Y1389D01*
X837Y1522D02*
X914Y1445D01*
X837Y2135D02*
X914Y2058D01*
X837Y1839D02*
X914Y1916D01*
X837Y2062D02*
X914Y2139D01*
X837Y1616D02*
X914Y1693D01*
X837Y1309D02*
Y2175D01*
X977Y1256D02*
X1049Y1327D01*
X1021Y1244D02*
X1104Y1327D01*
X928Y1262D02*
X993Y1327D01*
X1060Y1227D02*
X1160Y1327D01*
X1096Y1208D02*
X1216Y1327D01*
X976D02*
X1095Y1209D01*
X837Y1411D02*
X914Y1334D01*
Y1389D02*
X976Y1327D01*
X837Y1338D02*
X914Y1415D01*
X920Y1327D02*
X997Y1251D01*
X871Y1261D02*
X937Y1327D01*
X1348Y621D02*
X1408Y561D01*
X1348D02*
X1803D01*
X1224Y1112D02*
X1348Y1237D01*
X1366Y197D02*
X1730Y561D01*
X1464D02*
X1828Y197D01*
X1352Y561D02*
X1717Y197D01*
X1091Y600D02*
X1494Y197D01*
X1054Y581D02*
X1438Y197D01*
X1014Y565D02*
X1383Y197D01*
X1180Y677D02*
X1661Y197D01*
X1154Y648D02*
X1605Y197D01*
X1124Y623D02*
X1550Y197D01*
X1408Y561D02*
X1772Y197D01*
X1422D02*
X1786Y561D01*
X1310Y197D02*
X1675Y561D01*
X1533Y197D02*
X1827Y491D01*
X1589Y197D02*
X1850Y458D01*
X1477Y197D02*
X1810Y530D01*
X1088Y197D02*
X1452Y561D01*
X1143Y197D02*
X1508Y561D01*
X1032Y197D02*
X1396Y561D01*
X1255Y197D02*
X1619Y561D01*
X1199Y197D02*
X1563Y561D01*
X1199Y1327D02*
X1348Y1178D01*
X1184Y1129D02*
X1348Y1293D01*
X1158Y1158D02*
X1327Y1327D01*
X1279Y1112D02*
X1348Y1181D01*
X1197Y1112D02*
X1348D01*
Y1327D01*
X1158Y1158D02*
X1327Y1327D01*
X1143D02*
X1348Y1122D01*
X1129Y1184D02*
X1271Y1327D01*
X1087D02*
X1302Y1112D01*
X1032Y1327D02*
X1247Y1112D01*
X1326Y699D02*
X1348Y676D01*
X1270Y699D02*
X1348Y621D01*
X1197Y699D02*
X1348D01*
Y561D02*
Y699D01*
X976Y197D02*
X1348Y569D01*
X1215Y699D02*
X1348Y565D01*
X865Y197D02*
X1348Y680D01*
X920Y549D02*
X1271Y197D01*
X861Y551D02*
X1216Y197D01*
X921D02*
X1348Y625D01*
X970Y554D02*
X1327Y197D01*
X837Y1783D02*
X914Y1860D01*
X837Y1856D02*
X914Y1779D01*
X837Y1912D02*
X914Y1835D01*
X837Y1801D02*
X914Y1724D01*
X837Y1672D02*
X914Y1749D01*
X837Y1727D02*
X914Y1805D01*
X837Y2079D02*
X914Y2002D01*
X837Y1950D02*
X914Y2027D01*
X837Y2006D02*
X914Y2083D01*
X837Y1894D02*
X914Y1972D01*
X837Y1968D02*
X914Y1891D01*
X837Y2023D02*
X914Y1946D01*
X837Y1560D02*
X914Y1638D01*
X837Y1505D02*
X914Y1582D01*
X837Y1745D02*
X914Y1668D01*
X837Y1578D02*
X914Y1501D01*
X837Y1355D02*
X930Y1262D01*
X827Y1309D02*
X875Y1261D01*
X752Y1309D02*
X837Y1393D01*
X207Y1309D02*
X837D01*
X808D02*
X837Y1338D01*
X802Y1247D02*
X914Y1359D01*
X771Y1309D02*
X827Y1254D01*
X716Y1309D02*
X784Y1241D01*
X687Y1188D02*
X808Y1309D01*
X660D02*
X745Y1225D01*
X493Y1309D02*
X648Y1154D01*
X549Y1309D02*
X677Y1180D01*
X437Y1309D02*
X623Y1124D01*
X207Y1373D02*
X270Y1309D01*
X382D02*
X600Y1091D01*
X207Y1309D02*
Y2175D01*
X197Y865D02*
X641Y1309D01*
X197Y921D02*
X585Y1309D01*
X326D02*
X581Y1054D01*
X604Y1309D02*
X709Y1204D01*
X197Y1143D02*
X363Y1309D01*
X215D02*
X554Y970D01*
X270Y1309D02*
X565Y1014D01*
X197Y1032D02*
X474Y1309D01*
X197Y1199D02*
X307Y1309D01*
X197Y1088D02*
X418Y1309D01*
X197Y1255D02*
X251Y1309D01*
X197Y1271D02*
X549Y920D01*
X197Y976D02*
X530Y1309D01*
X197Y754D02*
X752Y1309D01*
X197Y809D02*
X697Y1309D01*
X197Y1104D02*
X1104Y197D01*
X197Y1049D02*
X1049Y197D01*
X197Y993D02*
X993Y197D01*
X197Y937D02*
X937Y197D01*
X197Y881D02*
X881Y197D01*
X197Y826D02*
X826Y197D01*
X197Y770D02*
X770Y197D01*
X197Y714D02*
X714Y197D01*
X698D02*
X1124Y623D01*
X642Y197D02*
X1009Y564D01*
X587Y197D02*
X940Y550D01*
X754Y197D02*
X1256Y699D01*
X809Y197D02*
X1311Y699D01*
X789Y568D02*
X1160Y197D01*
X364D02*
X751Y584D01*
X420Y197D02*
X790Y567D01*
X308Y197D02*
X715Y603D01*
X531Y197D02*
X883Y549D01*
X475Y197D02*
X834Y555D01*
X197Y475D02*
X555Y834D01*
X197Y420D02*
X567Y790D01*
X197Y531D02*
X549Y883D01*
X197Y308D02*
X603Y715D01*
X197Y253D02*
X627Y682D01*
X197Y364D02*
X584Y751D01*
X197Y1160D02*
X568Y789D01*
X197Y698D02*
X623Y1124D01*
X197Y1216D02*
X551Y861D01*
X197Y642D02*
X564Y1009D01*
X197Y587D02*
X550Y940D01*
X197Y659D02*
X659Y197D01*
X197D02*
X653Y653D01*
X197Y547D02*
X547Y197D01*
X197D02*
X653Y653D01*
X253Y197D02*
X682Y627D01*
X197Y603D02*
X603Y197D01*
X197Y492D02*
X492Y197D01*
X197Y436D02*
X436Y197D01*
X197Y380D02*
X380Y197D01*
X197Y325D02*
X325Y197D01*
X197Y269D02*
X269Y197D01*
X15463Y14405D02*
X15551Y14493D01*
X15463Y14349D02*
X15551Y14438D01*
X15482Y15551D02*
X15551Y15482D01*
X15463Y14293D02*
X15551Y14382D01*
X15463Y14401D02*
X15551Y14313D01*
X15370Y15551D02*
X15551Y15370D01*
X15426Y15551D02*
X15551Y15426D01*
X15366Y14419D02*
X15551Y14605D01*
X15421Y14419D02*
X15551Y14549D01*
X15463Y14126D02*
X15551Y14215D01*
X15463Y14234D02*
X15551Y14146D01*
X15463Y14071D02*
X15551Y14159D01*
X15463Y14178D02*
X15551Y14090D01*
X15463Y14238D02*
X15551Y14326D01*
X15463Y14345D02*
X15551Y14257D01*
X15463Y14182D02*
X15551Y14271D01*
X15463Y14290D02*
X15551Y14201D01*
X15463Y14015D02*
X15551Y14104D01*
X15463Y14067D02*
X15551Y13979D01*
X15463Y14123D02*
X15551Y14034D01*
X15463Y13904D02*
X15551Y13992D01*
X15463Y13770D02*
Y14419D01*
Y13959D02*
X15551Y14048D01*
X15389Y14419D02*
X15463Y14345D01*
Y13956D02*
X15551Y13867D01*
X15463Y14011D02*
X15551Y13923D01*
X15463Y13900D02*
X15551Y13811D01*
X15463Y13848D02*
X15551Y13937D01*
X15463Y13844D02*
X15551Y13756D01*
X15463Y13792D02*
X15551Y13881D01*
X15384Y13770D02*
X15463Y13848D01*
X15440Y13770D02*
X15463Y13792D01*
Y13789D02*
X15551Y13700D01*
X15364Y13694D02*
X15440Y13770D01*
X15370D02*
X15551Y13589D01*
X15391Y13498D02*
X15551Y13658D01*
X15426Y13770D02*
X15551Y13644D01*
X15445Y13441D02*
X15551Y13547D01*
X15420Y13471D02*
X15551Y13603D01*
X15364Y13583D02*
X15551Y13770D01*
X15364Y13638D02*
X15551Y13825D01*
X15364Y13527D02*
X15551Y13714D01*
X15364Y13720D02*
X15551Y13533D01*
X15508Y13298D02*
X15551Y13255D01*
X15510Y13283D02*
X15551Y13324D01*
X15515Y13235D02*
X15551Y13199D01*
X15515Y13232D02*
X15551Y13268D01*
X15486Y13370D02*
X15551Y13435D01*
X15467Y13407D02*
X15551Y13491D01*
X15480Y13381D02*
X15551Y13310D01*
X15500Y13329D02*
X15551Y13380D01*
X15512Y13183D02*
X15551Y13143D01*
X15489Y13095D02*
X15551Y13157D01*
X15510Y13172D02*
X15551Y13213D01*
Y12356D02*
Y15551D01*
X15503Y13136D02*
X15551Y13088D01*
X15489Y13094D02*
X15551Y13032D01*
X15364Y13520D02*
Y13770D01*
X15364Y12859D02*
X15551Y13046D01*
X15471Y13057D02*
X15551Y12976D01*
X15425Y12991D02*
X15551Y12865D01*
X15449Y13022D02*
X15551Y12921D01*
X15366Y12938D02*
X15551Y12754D01*
X15397Y12963D02*
X15551Y12809D01*
X15364Y12747D02*
X15551Y12934D01*
X15364Y12803D02*
X15551Y12990D01*
X15364Y12885D02*
X15551Y12698D01*
X15364Y12554D02*
Y12888D01*
X15203Y15551D02*
X15551Y15203D01*
X15148Y15551D02*
X15551Y15148D01*
X15259Y15551D02*
X15551Y15259D01*
X14925Y15551D02*
X15551Y14925D01*
X15092Y15551D02*
X15551Y15092D01*
X14814Y15551D02*
X15551Y14814D01*
X14869Y15551D02*
X15551Y14869D01*
X14702Y15551D02*
X15551Y14702D01*
X14758Y15551D02*
X15551Y14758D01*
X15036Y15551D02*
X15551Y15036D01*
X15315Y15551D02*
X15551Y15315D01*
X14657Y14434D02*
X15551Y15329D01*
X14981Y15551D02*
X15551Y14981D01*
X14657Y14490D02*
X15551Y15384D01*
X14535Y15551D02*
X15551Y14535D01*
X14424Y15551D02*
X15551Y14424D01*
X14480Y15551D02*
X15551Y14480D01*
X14657Y14769D02*
X15440Y15551D01*
X14657Y14713D02*
X15495Y15551D01*
X14609Y15110D02*
X15050Y15551D01*
X14647D02*
X15551Y14647D01*
X14657Y14657D02*
X15551Y15551D01*
X14608Y14775D02*
X15384Y15551D01*
X14602Y15048D02*
X15106Y15551D01*
X14591D02*
X15551Y14591D01*
X14552Y14775D02*
X15328Y15551D01*
X14606Y15163D02*
X14994Y15551D01*
X14597Y15210D02*
X14939Y15551D01*
X14657Y14546D02*
X15551Y15440D01*
X14657Y14601D02*
X15551Y15496D01*
X14497Y14775D02*
X15273Y15551D01*
X14574Y14964D02*
X15161Y15551D01*
X14553Y15311D02*
X15444Y14419D01*
X14441Y14775D02*
X15217Y15551D01*
X14920Y14419D02*
X15551Y15050D01*
X14976Y14419D02*
X15551Y14994D01*
X14865Y14419D02*
X15551Y15106D01*
X15087Y14419D02*
X15551Y14883D01*
X15032Y14419D02*
X15551Y14939D01*
X14657Y14379D02*
X15551Y15273D01*
X14809Y14419D02*
X15551Y15161D01*
X14657Y14323D02*
X15551Y15217D01*
X14368Y15551D02*
X15551Y14368D01*
X15364Y13609D02*
X15551Y13422D01*
X15364Y13664D02*
X15551Y13477D01*
X15338Y12888D02*
X15551Y13101D01*
X15364Y13553D02*
X15551Y13366D01*
X15199Y14419D02*
X15551Y14772D01*
X15143Y14419D02*
X15551Y14827D01*
X15310Y14419D02*
X15551Y14660D01*
X15254Y14419D02*
X15551Y14716D01*
X14608Y15089D02*
X15277Y14419D01*
X14601Y15040D02*
X15222Y14419D01*
X14608Y15144D02*
X15333Y14419D01*
X14657Y14761D02*
X14999Y14419D01*
X14571Y14958D02*
X15110Y14419D01*
X14551Y14923D02*
X15055Y14419D01*
X14597Y15211D02*
X15389Y14419D01*
X14588Y14997D02*
X15166Y14419D01*
X15364Y13770D02*
X15463D01*
X15306Y12888D02*
X15364Y12829D01*
X15332Y12917D02*
X15361Y12888D01*
X14774Y14419D02*
X15463D01*
X14657Y14706D02*
X14943Y14419D01*
X15266Y12888D02*
X15364D01*
X15518Y12400D02*
X15551Y12433D01*
X15435Y12484D02*
X15551Y12600D01*
X15407Y12512D02*
X15551Y12656D01*
X15490Y12428D02*
X15551Y12489D01*
X15463Y12456D02*
X15551Y12545D01*
X15517Y8612D02*
X15551Y8578D01*
X15525Y8621D02*
X15551Y8647D01*
X15461Y8556D02*
X15551Y8466D01*
X15489Y8584D02*
X15551Y8522D01*
X15405Y8501D02*
X15551Y8355D01*
X15433Y8529D02*
X15551Y8411D01*
X15423Y8185D02*
X15551Y8313D01*
X15423Y8241D02*
X15551Y8369D01*
X15423Y8093D02*
X15551Y7965D01*
X15423Y7962D02*
X15551Y8090D01*
X15423Y8018D02*
X15551Y8146D01*
X15423Y7907D02*
X15551Y8035D01*
X15423Y8038D02*
X15551Y7910D01*
X15423Y8205D02*
X15551Y8077D01*
X15423Y8129D02*
X15551Y8257D01*
X15423Y8149D02*
X15551Y8021D01*
X15423Y8074D02*
X15551Y8202D01*
X15423Y7740D02*
X15551Y7868D01*
X15423Y7871D02*
X15551Y7743D01*
X15423Y7684D02*
X15551Y7812D01*
X15423Y7815D02*
X15551Y7687D01*
X15423Y7851D02*
X15551Y7979D01*
X15423Y7982D02*
X15551Y7854D01*
X15423Y7795D02*
X15551Y7923D01*
X15423Y7926D02*
X15551Y7798D01*
X15423Y7628D02*
X15551Y7756D01*
X15423Y7703D02*
X15551Y7576D01*
X15423Y7759D02*
X15551Y7631D01*
X15423Y7517D02*
X15551Y7645D01*
X15423Y7648D02*
X15551Y7520D01*
X15423Y7517D02*
X15551Y7645D01*
X15419Y7569D02*
X15551Y7701D01*
X15423Y7461D02*
X15551Y7589D01*
X15387Y7628D02*
X15551Y7464D01*
X15423Y7294D02*
X15551Y7422D01*
X15423Y7425D02*
X15551Y7297D01*
X15423Y7091D02*
X15551Y6963D01*
X15423Y7369D02*
X15551Y7241D01*
X15423Y7406D02*
X15551Y7534D01*
X15423Y7536D02*
X15551Y7408D01*
X15423Y7350D02*
X15551Y7478D01*
X15423Y7481D02*
X15551Y7353D01*
X15423Y7239D02*
X15551Y7367D01*
X15423Y7314D02*
X15551Y7186D01*
X15423Y7628D02*
Y8258D01*
Y7202D02*
X15551Y7074D01*
X15423Y6939D02*
Y7569D01*
Y7183D02*
X15551Y7311D01*
X15391Y7569D02*
X15423Y7536D01*
Y7127D02*
X15551Y7255D01*
X15423Y7258D02*
X15551Y7130D01*
X15423Y7147D02*
X15551Y7019D01*
X15423Y7072D02*
X15551Y7200D01*
X15423Y6960D02*
X15551Y7088D01*
X15423Y7016D02*
X15551Y7144D01*
X15423Y7035D02*
X15551Y6907D01*
X15402Y6939D02*
X15423Y6960D01*
X15408Y6939D02*
X15551Y6796D01*
X15423Y6980D02*
X15551Y6852D01*
X15364Y12829D02*
X15551Y12642D01*
X15364Y12636D02*
X15551Y12823D01*
X15364Y12692D02*
X15551Y12879D01*
X15379Y12540D02*
X15551Y12712D01*
X15364Y12774D02*
X15551Y12587D01*
X15364Y12718D02*
X15551Y12531D01*
X15364Y12580D02*
X15551Y12767D01*
X15364Y12607D02*
X15551Y12420D01*
X15364Y12662D02*
X15551Y12475D01*
X15385Y8258D02*
X15551Y8424D01*
X15378Y8473D02*
X15551Y8299D01*
X15350Y8445D02*
X15551Y8244D01*
X15329Y8258D02*
X15551Y8480D01*
X15218Y8258D02*
X15551Y8591D01*
X15273Y8258D02*
X15551Y8536D01*
X15294Y8389D02*
X15551Y8132D01*
X15322Y8417D02*
X15551Y8188D01*
X15364Y12554D02*
X15514Y12405D01*
X14894Y8678D02*
X14918Y8654D01*
X15187Y8282D02*
X15514Y8609D01*
X15266Y8362D02*
X15370Y8258D01*
X14801Y8536D02*
X14941Y8677D01*
X14677Y8441D02*
X14913Y8677D01*
X15238Y8334D02*
X15314Y8258D01*
X15211Y8306D02*
X15259Y8258D01*
X15367Y7628D02*
X15423Y7684D01*
X15370Y8258D02*
X15423Y8205D01*
X14613Y7628D02*
X15423D01*
X15187Y8258D02*
X15423D01*
X14942Y7628D02*
X15001Y7569D01*
X14863D02*
X14922Y7628D01*
X15332D02*
X15391Y7569D01*
X15364D02*
X15423Y7628D01*
X15276D02*
X15335Y7569D01*
X15423Y7481D01*
X15308Y7569D02*
X15367Y7628D01*
X14554Y7569D02*
X15423D01*
X15197D02*
X15256Y7628D01*
X15252Y7569D02*
X15311Y7628D01*
X15220D02*
X15279Y7569D01*
X15353Y6939D02*
X15551Y6740D01*
X15346Y6939D02*
X15423Y7016D01*
X15241Y6939D02*
X15551Y6629D01*
X15297Y6939D02*
X15551Y6685D01*
X15186Y6939D02*
X15551Y6573D01*
X14577Y6939D02*
X15423D01*
X15211Y6526D02*
X15551Y6865D01*
X14877Y6526D02*
X15291Y6939D01*
X15109Y7628D02*
X15168Y7569D01*
X15085D02*
X15144Y7628D01*
X15165D02*
X15224Y7569D01*
X15141D02*
X15200Y7628D01*
X14918Y7569D02*
X14977Y7628D01*
X14886D02*
X14945Y7569D01*
X15053Y7628D02*
X15112Y7569D01*
X15030D02*
X15089Y7628D01*
X14998D02*
X15057Y7569D01*
X14974D02*
X15033Y7628D01*
X14766Y6526D02*
X15179Y6939D01*
X14740D02*
X15153Y6526D01*
X14577Y6559D02*
X14957Y6939D01*
X14577Y6615D02*
X14901Y6939D01*
X14710Y6526D02*
X15124Y6939D01*
X14684D02*
X15098Y6526D01*
X14520Y15355D02*
X14716Y15551D01*
X14544Y15324D02*
X14772Y15551D01*
X14492Y15383D02*
X14660Y15551D01*
X14583Y15252D02*
X14883Y15551D01*
X14566Y15289D02*
X14827Y15551D01*
X14427Y15429D02*
X14549Y15551D01*
X14390Y15448D02*
X14493Y15551D01*
X14461Y15408D02*
X14605Y15551D01*
X14313D02*
X14445Y15419D01*
X14501Y14862D02*
X14587Y14775D01*
X14471Y14836D02*
X14532Y14775D01*
X14587D02*
X14657Y14706D01*
X14528Y14891D02*
X14643Y14775D01*
X14438Y14813D02*
X14476Y14775D01*
X14352D02*
X14657D01*
X14250Y15475D02*
X14326Y15551D01*
X14303Y15472D02*
X14382Y15551D01*
X14201D02*
X14278Y15474D01*
X14348Y15462D02*
X14438Y15551D01*
X14257D02*
X14345Y15463D01*
X14189Y15470D02*
X14271Y15551D01*
X14146D02*
X14223Y15474D01*
X14109Y15446D02*
X14215Y15551D01*
X14090D02*
X14174Y15467D01*
X14034Y15551D02*
X14131Y15454D01*
X14051Y14775D02*
X14081Y14805D01*
X14004Y14775D02*
X14152D01*
X14004Y14728D02*
X14051Y14775D01*
X13972Y15364D02*
X14159Y15551D01*
X13979D02*
X14092Y15438D01*
X13947Y14671D02*
X14004Y14728D01*
X13947Y14748D02*
X14004Y14690D01*
X14657Y14650D02*
X14888Y14419D01*
X14657Y14594D02*
X14832Y14419D01*
X14774Y14384D02*
X14809Y14419D01*
X14774Y14328D02*
X14865Y14419D01*
X14657Y14301D02*
Y14775D01*
Y14539D02*
X14776Y14419D01*
X14657Y14427D02*
X14774Y14311D01*
X14657Y14483D02*
X14774Y14366D01*
X14691Y14301D02*
X14774Y14384D01*
X14657Y14371D02*
X14727Y14301D01*
X14774D02*
Y14419D01*
X14747Y14301D02*
X14774Y14328D01*
X14657Y14301D02*
X14774D01*
X14478Y10876D02*
X14622Y10732D01*
X14422Y10876D02*
X14601Y10697D01*
X13947Y14636D02*
X14004Y14579D01*
X13947Y14692D02*
X14004Y14634D01*
Y14301D02*
Y14775D01*
X13947Y14581D02*
X14004Y14523D01*
X13947Y14559D02*
X14004Y14617D01*
X13947Y14525D02*
X14004Y14467D01*
X13947Y14504D02*
X14004Y14561D01*
X14311Y10876D02*
X14588D01*
X14311Y10692D02*
X14495Y10876D01*
X14366D02*
X14583Y10659D01*
X14311Y10636D02*
X14551Y10876D01*
X14311Y10803D02*
X14384Y10876D01*
X13967Y14301D02*
X14004Y14338D01*
X14311Y10748D02*
X14439Y10876D01*
X14311Y10618D02*
Y10876D01*
X13638Y15364D02*
X13825Y15551D01*
X13644D02*
X13831Y15364D01*
X13589Y15551D02*
X13776Y15364D01*
X13700Y15551D02*
X13887Y15364D01*
X13694D02*
X13881Y15551D01*
X13527Y15364D02*
X13714Y15551D01*
X13477D02*
X13664Y15364D01*
X13582D02*
X13769Y15551D01*
X13533D02*
X13720Y15364D01*
X13923Y15551D02*
X14057Y15417D01*
X13867Y15551D02*
X14025Y15394D01*
X13916Y15364D02*
X14103Y15551D01*
X13861Y15364D02*
X14048Y15551D01*
X13811D02*
X13996Y15367D01*
X13805Y15364D02*
X13992Y15551D01*
X13756D02*
X13943Y15364D01*
X13749D02*
X13936Y15551D01*
X12803Y15364D02*
X12990Y15551D01*
X12809D02*
X12996Y15364D01*
X12754Y15551D02*
X12941Y15364D01*
X13248D02*
X13435Y15551D01*
X12859Y15364D02*
X13046Y15551D01*
X12587D02*
X12774Y15364D01*
X12580D02*
X12767Y15551D01*
X12747Y15364D02*
X12934Y15551D01*
X12698D02*
X12885Y15364D01*
X13415D02*
X13602Y15551D01*
X13366D02*
X13553Y15364D01*
X13471D02*
X13658Y15551D01*
X13422D02*
X13609Y15364D01*
X13304D02*
X13491Y15551D01*
X13255D02*
X13442Y15364D01*
X13360D02*
X13547Y15551D01*
X13310D02*
X13497Y15364D01*
X13947Y14859D02*
X14031Y14775D01*
X13947Y14782D02*
X14015Y14850D01*
X13947Y14838D02*
X13987Y14878D01*
X13947Y14726D02*
X14046Y14826D01*
X13947Y14803D02*
X14004Y14746D01*
X13947Y14915D02*
X14086Y14775D01*
X13199Y15551D02*
X13386Y15364D01*
X13947Y14301D02*
Y14932D01*
Y14337D02*
X14004Y14394D01*
X13947Y14414D02*
X14004Y14356D01*
X13947Y14301D02*
X14004D01*
X13947Y14358D02*
X14004Y14301D01*
X13947Y14448D02*
X14004Y14505D01*
X13947Y14615D02*
X14004Y14673D01*
X13947Y14392D02*
X14004Y14450D01*
X13947Y14469D02*
X14004Y14412D01*
X12914Y15364D02*
X13101Y15551D01*
X12865D02*
X13052Y15364D01*
X12970D02*
X13157Y15551D01*
X12921D02*
X13108Y15364D01*
X12636D02*
X12823Y15551D01*
X12531D02*
X12718Y15364D01*
X12692D02*
X12879Y15551D01*
X12642D02*
X12829Y15364D01*
X13137D02*
X13324Y15551D01*
X13088D02*
X13275Y15364D01*
X13193D02*
X13380Y15551D01*
X13143D02*
X13330Y15364D01*
X13026D02*
X13213Y15551D01*
X12976D02*
X13163Y15364D01*
X13081D02*
X13268Y15551D01*
X13032D02*
X13219Y15364D01*
X14677Y8664D02*
X14741Y8728D01*
X14826Y8690D02*
X14890Y8626D01*
X14677Y8719D02*
X14708Y8750D01*
X14718Y8743D02*
X14863Y8598D01*
X14677Y8728D02*
X14835Y8570D01*
X14677Y8608D02*
X14777Y8708D01*
X14677Y8497D02*
X14862Y8682D01*
X14677Y8552D02*
X14817Y8693D01*
X14677Y8617D02*
X14781Y8513D01*
X14677Y8561D02*
X14759Y8479D01*
X14677Y8673D02*
X14807Y8542D01*
X14677Y8506D02*
X14743Y8439D01*
X14677Y8385D02*
X14750Y8458D01*
X14677Y8450D02*
X14735Y8392D01*
X14534Y10876D02*
X14647Y10763D01*
X14311Y10469D02*
X14637Y10796D01*
X14365Y9744D02*
X14566Y9945D01*
X14332Y9766D02*
X14558Y9993D01*
X14311Y10542D02*
X14622Y10231D01*
X14311Y10247D02*
X14558Y10494D01*
X14311Y10486D02*
X14601Y10196D01*
X14311Y10152D02*
X14589Y9874D01*
X14505Y9606D02*
X14665Y9765D01*
X14478Y9634D02*
X14638Y9794D01*
X14533Y9578D02*
X14596Y9641D01*
X14422Y9689D02*
X14595Y9862D01*
X14394Y9717D02*
X14578Y9901D01*
X14450Y9661D02*
X14615Y9827D01*
X14382Y9729D02*
X14575Y9536D01*
X14677Y8330D02*
X14735Y8387D01*
X14751Y7569D02*
X14810Y7628D01*
X14734Y8258D02*
Y8376D01*
X14807Y7569D02*
X14866Y7628D01*
X14775D02*
X14834Y7569D01*
X14677Y8338D02*
X14734Y8281D01*
X14677Y8394D02*
X14734Y8337D01*
X14677Y8258D02*
X14734D01*
X14677Y8274D02*
X14734Y8331D01*
X14696Y7569D02*
X14755Y7628D01*
X14664D02*
X14723Y7569D01*
X14831Y7628D02*
X14890Y7569D01*
X14719Y7628D02*
X14778Y7569D01*
X14577Y6726D02*
X14790Y6939D01*
X14577Y6782D02*
X14734Y6939D01*
X14577Y6671D02*
X14845Y6939D01*
X14577Y6671D02*
X14845Y6939D01*
X14677Y8283D02*
X14702Y8258D01*
X14640Y7569D02*
X14699Y7628D01*
X14677Y8258D02*
Y8778D01*
X14611Y7625D02*
X14667Y7569D01*
X14584D02*
X14643Y7628D01*
X14554Y7569D02*
X14613Y7628D01*
X14583Y7597D02*
X14611Y7569D01*
X14498Y7483D02*
X14584Y7569D01*
X14498Y7513D02*
X14554Y7569D01*
X14498Y7457D02*
Y7513D01*
X14471Y7486D02*
X14498Y7459D01*
X14577Y6838D02*
X14678Y6939D01*
X14577Y6893D02*
X14622Y6939D01*
X14462Y7446D02*
X14498Y7483D01*
X14448Y7462D02*
X14498Y7513D01*
X14311Y10653D02*
X14589Y10376D01*
X14311Y10597D02*
X14646Y10262D01*
X14311Y10358D02*
X14569Y10616D01*
X14311Y10430D02*
X14583Y10158D01*
X14311Y10191D02*
X14566Y10445D01*
X14311Y10581D02*
X14594Y10864D01*
X14311Y10876D02*
X14569Y10617D01*
X14311Y10525D02*
X14614Y10828D01*
X14311Y10414D02*
X14610Y10712D01*
X14311Y10135D02*
X14578Y10402D01*
X14311Y10375D02*
X14569Y10117D01*
X14311Y10080D02*
X14594Y10363D01*
X14311Y10208D02*
X14564Y9955D01*
X14293Y9950D02*
X14638Y10295D01*
X14293Y10006D02*
X14614Y10327D01*
X14293Y9894D02*
X14608Y10210D01*
X14293Y9839D02*
X14569Y10114D01*
X14311Y10302D02*
X14558Y10549D01*
X14311Y10319D02*
X14560Y10070D01*
X14311Y10547D02*
Y10618D01*
Y10263D02*
X14557Y10017D01*
X14311Y10047D02*
Y10547D01*
Y10820D02*
X14560Y10571D01*
X14311Y10547D02*
Y10618D01*
Y10709D02*
X14563Y10456D01*
X14311Y10764D02*
X14557Y10518D01*
X14293Y10047D02*
Y10100D01*
X13089Y10047D02*
Y10100D01*
X13071Y10047D02*
Y10115D01*
X12956D02*
X13089Y9982D01*
X13012Y10115D02*
X13071Y10056D01*
X12845Y10115D02*
X13089Y9871D01*
X12900Y10115D02*
X13089Y9926D01*
X14311Y10096D02*
X14659Y9748D01*
X14293Y9783D02*
X14558Y10048D01*
X14293Y9781D02*
Y10047D01*
X14304D02*
X14635Y9717D01*
X14293Y10003D02*
X14614Y9682D01*
X12907Y9789D02*
X13089Y9971D01*
X14293Y9947D02*
X14597Y9643D01*
X14293Y9892D02*
X14584Y9601D01*
X14311Y7351D02*
X14347Y7387D01*
X14311Y7368D02*
X14335Y7344D01*
X14311Y7320D02*
X14391Y7400D01*
X14311Y7320D02*
Y7378D01*
X14293Y9836D02*
X14576Y9552D01*
X12789Y10115D02*
X13089Y9815D01*
X12740Y9789D02*
X13066Y10115D01*
X12733D02*
X13059Y9789D01*
X12685D02*
X13010Y10115D01*
X12566D02*
X12892Y9789D01*
X12534Y9806D02*
X12843Y10115D01*
X12677D02*
X13003Y9789D01*
X12573D02*
X12899Y10115D01*
X12963Y9789D02*
X13089Y9915D01*
X12852Y9789D02*
X13089Y10027D01*
Y9789D02*
Y10047D01*
X13019Y9789D02*
X13089Y9860D01*
X12550Y9789D02*
X13089D01*
X12622Y10115D02*
X12948Y9789D01*
X12796D02*
X13071Y10064D01*
X12629Y9789D02*
X12955Y10115D01*
X15266Y6246D02*
X15551Y6531D01*
X15266Y6525D02*
X15551Y6239D01*
X15266Y6302D02*
X15551Y6587D01*
X15266Y6469D02*
X15551Y6184D01*
X15266Y6190D02*
X15551Y6476D01*
X15266Y6469D02*
X15551Y6754D01*
X15266Y6524D02*
X15551Y6810D01*
X15266Y6357D02*
X15551Y6643D01*
X15266Y6413D02*
X15551Y6698D01*
X15266Y6302D02*
X15551Y6017D01*
X15266Y6023D02*
X15551Y6309D01*
X15266Y6246D02*
X15551Y5961D01*
X15266Y5968D02*
X15551Y6253D01*
X15266Y6413D02*
X15551Y6128D01*
X15266Y6135D02*
X15551Y6420D01*
X15266Y6358D02*
X15551Y6072D01*
X15266Y6079D02*
X15551Y6364D01*
X15266Y5912D02*
X15551Y6197D01*
X15266Y6191D02*
X15551Y5905D01*
X15266Y5896D02*
Y6526D01*
Y6079D02*
X15551Y5794D01*
X15266Y6135D02*
X15551Y5850D01*
X15248Y5727D02*
X15551Y6030D01*
X15266Y6024D02*
X15551Y5738D01*
X15266Y5912D02*
X15551Y5627D01*
X15266Y5968D02*
X15551Y5682D01*
X15348Y5326D02*
X15551Y5529D01*
X15248Y5448D02*
X15551Y5752D01*
X15460Y5326D02*
X15551Y5418D01*
X15404Y5326D02*
X15551Y5474D01*
X15248Y5504D02*
X15551Y5808D01*
X15248Y5560D02*
X15551Y5863D01*
X15248Y5763D02*
X15551Y5460D01*
X15248Y5326D02*
Y5819D01*
X15504Y5229D02*
X15551Y5181D01*
X15504Y5148D02*
X15551Y5195D01*
X15504Y5203D02*
X15551Y5251D01*
X15504Y5092D02*
X15551Y5139D01*
X15504Y5173D02*
X15551Y5126D01*
X15504Y5315D02*
X15551Y5362D01*
X15293Y5326D02*
X15551Y5585D01*
X15504Y5285D02*
X15551Y5237D01*
X15504Y5259D02*
X15551Y5306D01*
X15504Y4925D02*
X15551Y4972D01*
X15504Y5006D02*
X15551Y4959D01*
X15504Y4869D02*
X15551Y4917D01*
X15504Y4951D02*
X15551Y4903D01*
X15504Y5036D02*
X15551Y5084D01*
X15504Y5118D02*
X15551Y5070D01*
X15504Y4980D02*
X15551Y5028D01*
X15504Y5062D02*
X15551Y5014D01*
X15504Y4813D02*
X15551Y4861D01*
X15504Y4784D02*
X15551Y4736D01*
X15504Y4895D02*
X15551Y4847D01*
Y1787D02*
Y8658D01*
X15504Y4674D02*
Y5326D01*
Y4839D02*
X15551Y4792D01*
X15462Y5326D02*
X15504Y5285D01*
Y4758D02*
X15551Y4805D01*
X15419Y4674D02*
X15504Y4758D01*
Y4728D02*
X15551Y4680D01*
X15504Y4702D02*
X15551Y4750D01*
X15502Y4674D02*
X15551Y4625D01*
X15475Y4674D02*
X15504Y4702D01*
X15391Y4674D02*
X15551Y4513D01*
X15446Y4674D02*
X15551Y4569D01*
X15279Y4674D02*
X15551Y4402D01*
X15335Y4674D02*
X15551Y4458D01*
X15044Y6526D02*
X15551Y7033D01*
X15130Y6939D02*
X15551Y6518D01*
X15100Y6526D02*
X15551Y6977D01*
X15019Y6939D02*
X15551Y6406D01*
X15074Y6939D02*
X15551Y6462D01*
X14989Y6526D02*
X15402Y6939D01*
X14933Y6526D02*
X15346Y6939D01*
X14907D02*
X15551Y6295D01*
X14963Y6939D02*
X15551Y6351D01*
X15248Y5671D02*
X15551Y5975D01*
X15248Y5782D02*
X15551Y6086D01*
X15248Y5708D02*
X15551Y5404D01*
X15248Y5615D02*
X15551Y5919D01*
X15228Y5819D02*
X15551Y6142D01*
X15156Y6526D02*
X15551Y6921D01*
X15171Y5896D02*
X15551Y5515D01*
X15227Y5896D02*
X15551Y5571D01*
X15209Y6526D02*
X15266Y6469D01*
X15194Y5896D02*
X15266Y5968D01*
X14851Y6939D02*
X15265Y6526D01*
X15172Y5819D02*
X15250Y5896D01*
X15004D02*
X15081Y5819D01*
X14822Y6526D02*
X15235Y6939D01*
X14796D02*
X15209Y6526D01*
X14577Y5896D02*
X15266D01*
X14577Y6526D02*
X15266D01*
X15115Y5896D02*
X15192Y5819D01*
X15061D02*
X15138Y5896D01*
X15192Y5819D02*
X15248Y5763D01*
X15117Y5819D02*
X15194Y5896D01*
X15060D02*
X15137Y5819D01*
X15005D02*
X15082Y5896D01*
X14577Y5819D02*
X15248D01*
Y5652D02*
X15551Y5348D01*
X15248Y5337D02*
X15551Y5641D01*
X15248Y5393D02*
X15551Y5696D01*
X15224Y4674D02*
X15551Y4346D01*
X15248Y5596D02*
X15551Y5293D01*
X15112Y4674D02*
X15551Y4235D01*
X14970Y4674D02*
X15504D01*
X15001D02*
X15551Y4123D01*
X15031Y4174D02*
X15551Y4694D01*
X15057Y4674D02*
X15551Y4179D01*
X15168Y4674D02*
X15551Y4291D01*
X15031Y4063D02*
X15551Y4583D01*
X15031Y4118D02*
X15551Y4638D01*
X15031Y4532D02*
X15551Y4012D01*
X14963Y4656D02*
X15551Y4068D01*
X15031Y4477D02*
X15551Y3956D01*
X15031Y4007D02*
X15551Y4527D01*
X15248Y5541D02*
X15462Y5326D01*
X15248Y5485D02*
X15406Y5326D01*
X15248Y5429D02*
X15351Y5326D01*
X15248Y5374D02*
X15295Y5326D01*
X15248D02*
X15504D01*
X15031Y4397D02*
X15308Y4674D01*
X15031Y4452D02*
X15252Y4674D01*
X15031Y4230D02*
X15475Y4674D01*
X15031Y4285D02*
X15419Y4674D01*
X15031Y4564D02*
X15141Y4674D01*
X14990Y4578D02*
X15085Y4674D01*
X15031Y4341D02*
X15364Y4674D01*
X15031Y4508D02*
X15197Y4674D01*
X15089Y3007D02*
X15551Y3469D01*
X15089Y2951D02*
X15551Y3413D01*
X15089Y3062D02*
X15551Y3525D01*
X15089Y3305D02*
X15551Y2843D01*
X15089Y2895D02*
X15551Y3358D01*
X15089Y3229D02*
X15551Y3692D01*
X15089Y3285D02*
X15551Y3747D01*
X15089Y3118D02*
X15551Y3580D01*
X15089Y3174D02*
X15551Y3636D01*
X15089Y3138D02*
X15551Y2676D01*
X15089Y2728D02*
X15551Y3191D01*
X15089Y3083D02*
X15551Y2620D01*
X15089Y2672D02*
X15551Y3135D01*
X15089Y3250D02*
X15551Y2787D01*
X15089Y2839D02*
X15551Y3302D01*
X15089Y3194D02*
X15551Y2732D01*
X15089Y2784D02*
X15551Y3246D01*
X15089Y2505D02*
X15551Y2968D01*
X15089Y2916D02*
X15551Y2453D01*
X15089Y2971D02*
X15551Y2509D01*
X15089Y2860D02*
X15551Y2397D01*
X15089Y2450D02*
X15551Y2912D01*
X15089Y3027D02*
X15551Y2565D01*
X15089Y2617D02*
X15551Y3079D01*
X15089Y2561D02*
X15551Y3024D01*
X15089Y2175D02*
Y3337D01*
Y2693D02*
X15551Y2230D01*
X15089Y2283D02*
X15551Y2745D01*
X15089Y2637D02*
X15551Y2175D01*
X15089Y2227D02*
X15551Y2690D01*
X15089Y2804D02*
X15551Y2342D01*
X15089Y2394D02*
X15551Y2857D01*
X15089Y2749D02*
X15551Y2286D01*
X15089Y2338D02*
X15551Y2801D01*
X15216Y1964D02*
X15551Y2300D01*
X15261Y1954D02*
X15551Y2244D01*
X15168Y1972D02*
X15551Y2356D01*
X15343Y1925D02*
X15551Y2133D01*
X15303Y1940D02*
X15551Y2189D01*
X15089Y2415D02*
X15551Y1952D01*
X15117Y1977D02*
X15551Y2411D01*
X15089Y2303D02*
X15551Y1841D01*
X15089Y2359D02*
X15551Y1896D01*
X15516Y1819D02*
X15551Y1854D01*
X15485Y1844D02*
X15551Y1910D01*
X15475Y748D02*
X15551Y671D01*
X15507Y772D02*
X15551Y727D01*
X15418Y1888D02*
X15551Y2021D01*
X15381Y1907D02*
X15551Y2077D01*
X15442Y725D02*
X15551Y616D01*
X15452Y1867D02*
X15551Y1966D01*
X15370Y686D02*
X15551Y504D01*
X15331Y669D02*
X15551Y449D01*
X15407Y705D02*
X15551Y560D01*
Y197D02*
Y811D01*
X15290Y654D02*
X15551Y393D01*
X15202Y631D02*
X15551Y282D01*
X15247Y641D02*
X15551Y337D01*
X15118Y197D02*
X15551Y630D01*
X15153Y624D02*
X15551Y226D01*
X15397Y197D02*
X15551Y351D01*
X15341Y197D02*
X15551Y407D01*
X15508Y197D02*
X15551Y240D01*
X15453Y197D02*
X15551Y295D01*
X15174Y197D02*
X15551Y574D01*
X15101Y620D02*
X15525Y197D01*
X15286D02*
X15551Y463D01*
X15230Y197D02*
X15551Y518D01*
X15031Y4421D02*
X15551Y3901D01*
X15031Y4365D02*
X15551Y3845D01*
X15031Y3951D02*
X15551Y4471D01*
X15031Y4254D02*
X15551Y3734D01*
X15031Y4309D02*
X15551Y3789D01*
X15031Y4142D02*
X15551Y3622D01*
X15031Y4198D02*
X15551Y3678D01*
X14751Y3337D02*
X15551Y4137D01*
X15031Y4087D02*
X15551Y3567D01*
X15031Y3975D02*
X15551Y3455D01*
X15031Y4031D02*
X15551Y3511D01*
X15029Y3337D02*
X15551Y3859D01*
X15025Y3926D02*
X15551Y3400D01*
X14918Y3337D02*
X15551Y3970D01*
X14970Y3926D02*
X15551Y3344D01*
X14862Y3337D02*
X15551Y4026D01*
X14806Y3337D02*
X15551Y4082D01*
X14639Y3337D02*
X15551Y4249D01*
X14914Y3926D02*
X15551Y3288D01*
X14695Y3337D02*
X15551Y4193D01*
X14747Y3926D02*
X15551Y3121D01*
X14803Y3926D02*
X15551Y3177D01*
X14528Y3337D02*
X15551Y4360D01*
X14472Y3337D02*
X15551Y4416D01*
X14636Y3926D02*
X15551Y3010D01*
X14584Y3337D02*
X15551Y4304D01*
X14973Y3337D02*
X15551Y3915D01*
X15085Y3337D02*
X15551Y3803D01*
X15002Y3337D02*
X15089Y3250D01*
X15057Y3337D02*
X15089Y3305D01*
X14858Y3926D02*
X15551Y3233D01*
X14380Y3337D02*
X15089D01*
X14580Y3926D02*
X15551Y2954D01*
X14691Y3926D02*
X15551Y3066D01*
X15089Y2526D02*
X15551Y2063D01*
X15089Y2470D02*
X15551Y2008D01*
X15089Y2582D02*
X15551Y2119D01*
X15062Y1978D02*
X15551Y2467D01*
X15089Y2248D02*
X15525Y1811D01*
X15003Y1974D02*
X15551Y2523D01*
X14524Y3926D02*
X15551Y2899D01*
X14859Y1942D02*
X15551Y2634D01*
X14936Y1963D02*
X15551Y2578D01*
X15063Y197D02*
X15551Y685D01*
X15089Y2192D02*
X15366Y1915D01*
X15007Y197D02*
X15551Y741D01*
X15045Y621D02*
X15469Y197D01*
X14896D02*
X15400Y701D01*
X14951Y197D02*
X15551Y797D01*
X14983Y627D02*
X15413Y197D01*
X14938Y2175D02*
X15138Y1976D01*
X15037Y2175D02*
X15089Y2227D01*
X15050Y2175D02*
X15276Y1949D01*
X14994Y2175D02*
X15202Y1967D01*
X12589Y2175D02*
X15089D01*
X14883D02*
X15079Y1978D01*
X13212Y2175D02*
X15191Y197D01*
X13157Y2175D02*
X15135Y197D01*
X14833Y666D02*
X15302Y197D01*
X14784D02*
X15223Y636D01*
X14914Y640D02*
X15358Y197D01*
X14840D02*
X15301Y657D01*
X14673Y197D02*
X15097Y620D01*
X13101Y2175D02*
X15079Y197D01*
X14722Y722D02*
X15246Y197D01*
X14729D02*
X15156Y625D01*
X14629Y6939D02*
X15042Y6526D01*
X14655D02*
X15068Y6939D01*
X14599Y6526D02*
X15012Y6939D01*
X14950Y5819D02*
X15027Y5896D01*
X14894Y5819D02*
X14971Y5896D01*
X14577Y6880D02*
X14931Y6526D01*
X14577Y6824D02*
X14875Y6526D01*
X14577Y6935D02*
X14986Y6526D01*
X14577Y6768D02*
X14819Y6526D01*
X14948Y5896D02*
X15025Y5819D01*
X14893Y5896D02*
X14970Y5819D01*
X14890Y4674D02*
X14970D01*
X14838Y5819D02*
X14915Y5896D01*
X14837D02*
X14914Y5819D01*
X14783D02*
X14860Y5896D01*
X14781D02*
X14858Y5819D01*
X14670Y5896D02*
X14747Y5819D01*
X14671D02*
X14748Y5896D01*
X14616Y5819D02*
X14693Y5896D01*
X14727Y5819D02*
X14804Y5896D01*
X14726D02*
X14803Y5819D01*
X14577Y6657D02*
X14708Y6526D01*
X14577Y6601D02*
X14652Y6526D01*
X14577Y6713D02*
X14764Y6526D01*
X14577D02*
Y6939D01*
Y5835D02*
X14637Y5896D01*
X14577Y5819D02*
Y5896D01*
X14614D02*
X14691Y5819D01*
X14577Y5877D02*
X14636Y5819D01*
X14321Y4656D02*
Y4793D01*
X14269D02*
X14321Y4741D01*
X14407Y4656D01*
X14321Y4686D02*
X14351Y4656D01*
X14852D02*
X14929Y4578D01*
X14879D02*
X14956Y4656D01*
X14823Y4578D02*
X14900Y4656D01*
X14934Y4578D02*
X15030Y4674D01*
X14908Y4656D02*
X14985Y4578D01*
X14321Y4656D02*
X14970D01*
X14685D02*
X14762Y4578D01*
X14741Y4656D02*
X14818Y4578D01*
X14712D02*
X14789Y4656D01*
X14985Y4578D02*
X15031Y4532D01*
X14796Y4656D02*
X14874Y4578D01*
X14950Y3926D02*
X15031Y4007D01*
Y3926D02*
Y4578D01*
X14498D02*
X15031D01*
X14767D02*
X14845Y4656D01*
X14574D02*
X14651Y4578D01*
X14600D02*
X14677Y4656D01*
X14545Y4578D02*
X14622Y4656D01*
X14656Y4578D02*
X14733Y4656D01*
X14629D02*
X14707Y4578D01*
X14498Y4587D02*
X14566Y4656D01*
X14229Y4596D02*
X14321Y4689D01*
X14518Y4656D02*
X14595Y4578D01*
X14462Y4656D02*
X14540Y4578D01*
X14451Y4596D02*
X14510Y4656D01*
X14407D02*
X14466Y4596D01*
X14418Y4578D02*
X14498D01*
X14340Y4596D02*
X14399Y4656D01*
X14284Y4596D02*
X14343Y4656D01*
X14396Y4596D02*
X14455Y4656D01*
X14351D02*
X14410Y4596D01*
X14213Y4793D02*
X14321Y4686D01*
X14158Y4793D02*
X14354Y4596D01*
X14117D02*
X14314Y4793D01*
X14102D02*
X14299Y4596D01*
X14062D02*
X14259Y4793D01*
X13550D02*
X14321D01*
X13879D02*
X14076Y4596D01*
X14046Y4793D02*
X14243Y4596D01*
X14006D02*
X14203Y4793D01*
X13950Y4596D02*
X14147Y4793D01*
X13935D02*
X14132Y4596D01*
X14173D02*
X14321Y4744D01*
X13991Y4793D02*
X14187Y4596D01*
X13823Y4793D02*
X14020Y4596D01*
X13768Y4793D02*
X13965Y4596D01*
X13848D02*
X14498D01*
X13895D02*
X14091Y4793D01*
X13656D02*
X13853Y4596D01*
X13712Y4793D02*
X13909Y4596D01*
X13601Y4793D02*
X13848Y4546D01*
X13520Y4763D02*
X13848Y4434D01*
X13548Y4791D02*
X13848Y4490D01*
X13492Y4735D02*
X13848Y4379D01*
X13256Y4500D02*
X13550Y4793D01*
X13436Y4679D02*
X13848Y4267D01*
X13464Y4707D02*
X13848Y4323D01*
Y4550D02*
X13895Y4596D01*
X13408Y4652D02*
X13848Y4212D01*
X13353Y4596D02*
X13848Y4100D01*
X13381Y4624D02*
X13848Y4156D01*
X13297Y4540D02*
X13848Y3989D01*
X13325Y4568D02*
X13848Y4045D01*
Y3907D02*
Y4596D01*
X13241Y4485D02*
X13967Y3759D01*
X13269Y4512D02*
X13848Y3933D01*
X13207Y4463D02*
X13967Y3704D01*
X12654Y3356D02*
X13848Y4550D01*
X12566Y3435D02*
X13924Y4793D01*
X12538Y3463D02*
X13869Y4793D01*
X12622Y3379D02*
X14036Y4793D01*
X12594Y3407D02*
X13980Y4793D01*
X13124Y4435D02*
X13967Y3592D01*
X13168Y4447D02*
X13967Y3648D01*
X13070Y4377D02*
X13967Y3481D01*
X13098Y4405D02*
X13967Y3537D01*
X13005Y4331D02*
X13967Y3370D01*
X13039Y4353D02*
X13967Y3425D01*
X12967Y4314D02*
X13924Y3356D01*
X12925Y4300D02*
X13869Y3356D01*
X12766D02*
X13848Y4439D01*
X12762Y4296D02*
X13702Y3356D01*
X12877D02*
X13848Y4328D01*
X12822Y3356D02*
X13848Y4383D01*
X12530Y3788D02*
X13202Y4460D01*
X12530Y3844D02*
X13037Y4351D01*
X12710Y3356D02*
X13848Y4495D01*
X12677Y4325D02*
X13646Y3356D01*
X13100D02*
X13848Y4105D01*
X13044Y3356D02*
X13848Y4161D01*
X13211Y3356D02*
X13848Y3993D01*
X13156Y3356D02*
X13848Y4049D01*
X12878Y4291D02*
X13813Y3356D01*
X12825Y4289D02*
X13757Y3356D01*
X12989D02*
X13848Y4216D01*
X12933Y3356D02*
X13848Y4272D01*
X15005Y3926D02*
X15031Y3951D01*
X14498Y3926D02*
X15031D01*
X14380Y3467D02*
X14838Y3926D01*
X14416Y3337D02*
X15005Y3926D01*
X14380Y3356D02*
X14950Y3926D01*
X14380Y3578D02*
X14727Y3926D01*
X14380Y3634D02*
X14671Y3926D01*
X14380Y3411D02*
X14894Y3926D01*
X14380Y3523D02*
X14783Y3926D01*
X14380Y3903D02*
X14946Y3337D01*
X14380Y3847D02*
X14890Y3337D01*
X14487Y3907D02*
X15057Y3337D01*
X14431Y3907D02*
X15002Y3337D01*
X14380Y3791D02*
X14835Y3337D01*
X14380Y3736D02*
X14779Y3337D01*
X14380Y3680D02*
X14723Y3337D01*
X14380Y3624D02*
X14668Y3337D01*
X14418Y3926D02*
X14498D01*
X14380Y3907D02*
X14498D01*
X14380Y3857D02*
X14431Y3907D01*
X14380Y3690D02*
X14616Y3926D01*
X14380Y3745D02*
X14560Y3926D01*
X13874Y3907D02*
X13967Y3815D01*
X13848Y3989D02*
X13930Y3907D01*
X14380Y3801D02*
X14486Y3907D01*
X13967Y3356D02*
Y3907D01*
X14380Y3457D02*
X14501Y3337D01*
X14380D02*
Y3907D01*
Y3569D02*
X14612Y3337D01*
X14380Y3513D02*
X14556Y3337D01*
X13935Y3356D02*
X13967Y3388D01*
X13930Y3907D02*
X13967Y3871D01*
X14380Y3402D02*
X14445Y3337D01*
X13879Y3356D02*
X13967Y3443D01*
X14771Y2175D02*
X14976Y1971D01*
X14827Y2175D02*
X15026Y1976D01*
X14716Y2175D02*
X14929Y1962D01*
X14761Y1899D02*
X15037Y2175D01*
X14660D02*
X14885Y1950D01*
X14604Y2175D02*
X14843Y1936D01*
X14549Y2175D02*
X14804Y1920D01*
X14493Y2175D02*
X14766Y1902D01*
X14437Y2175D02*
X14730Y1882D01*
X14506Y197D02*
X14943Y634D01*
X14450Y197D02*
X14898Y645D01*
X14617Y197D02*
X15042Y621D01*
X14562Y197D02*
X14991Y626D01*
X14283Y197D02*
X14777Y691D01*
X14228Y197D02*
X14741Y710D01*
X14395Y197D02*
X14856Y658D01*
X14339Y197D02*
X14815Y673D01*
X14382Y2175D02*
X14696Y1860D01*
X14326Y2175D02*
X14664Y1837D01*
X14270Y2175D02*
X14633Y1812D01*
X14214Y2175D02*
X14604Y1785D01*
X14159Y2175D02*
X14577Y1757D01*
X13992Y2175D02*
X14505Y1662D01*
X13936Y2175D02*
X14484Y1627D01*
X13880Y2175D02*
X14465Y1590D01*
X14172Y197D02*
X14706Y731D01*
X14103Y2175D02*
X14551Y1727D01*
X14116Y197D02*
X14674Y754D01*
X14061Y197D02*
X14642Y779D01*
X14005Y197D02*
X14613Y805D01*
X14047Y2175D02*
X14527Y1695D01*
X13949Y197D02*
X14585Y833D01*
X13894Y197D02*
X14559Y862D01*
X13601Y3356D02*
X13967Y3722D01*
X13657Y3356D02*
X13967Y3666D01*
X13768Y3356D02*
X13967Y3555D01*
X13769Y2175D02*
X14433Y1511D01*
X13713Y2175D02*
X14421Y1468D01*
X13545Y3356D02*
X13967Y3778D01*
X13490Y3356D02*
X13967Y3833D01*
X13324Y2175D02*
X14446Y1053D01*
X13434Y3356D02*
X13967Y3889D01*
X13825Y2175D02*
X14448Y1552D01*
X13658Y2175D02*
X14411Y1422D01*
X13602Y2175D02*
X14404Y1374D01*
X13546Y2175D02*
X14400Y1322D01*
X13435Y2175D02*
X14406Y1204D01*
X13491Y2175D02*
X14400Y1265D01*
X13268Y2175D02*
X14501Y942D01*
X13379Y2175D02*
X14420Y1135D01*
X13378Y3356D02*
X13929Y3907D01*
X13848D02*
X13967D01*
X13848Y3933D02*
X13874Y3907D01*
X13323Y3356D02*
X13874Y3907D01*
X13267Y3356D02*
X13848Y3938D01*
X12530Y3749D02*
X12922Y3356D01*
X12530Y3693D02*
X12866Y3356D01*
X12530Y3804D02*
X12978Y3356D01*
X12530Y3637D02*
X12811Y3356D01*
X13824D02*
X13967Y3499D01*
X13712Y3356D02*
X13967Y3610D01*
X12645Y3356D02*
X13967D01*
X12589Y2242D02*
X12656Y2175D01*
X12530Y3582D02*
X12755Y3356D01*
X12530Y3526D02*
X12699Y3356D01*
X12589Y2175D02*
Y2943D01*
X12556Y2943D02*
X12589Y2910D01*
X12724Y197D02*
X14703Y2175D01*
X12767D02*
X14745Y197D01*
X12711Y2175D02*
X14690Y197D01*
X12823Y2175D02*
X14801Y197D01*
X12780D02*
X14758Y2175D01*
X12613Y197D02*
X14591Y2175D01*
X12600D02*
X14578Y197D01*
X12669D02*
X14647Y2175D01*
X12656D02*
X14634Y197D01*
X12990Y2175D02*
X14968Y197D01*
X12947D02*
X14925Y2175D01*
X13045D02*
X15024Y197D01*
X13003D02*
X14981Y2175D01*
X12878D02*
X14857Y197D01*
X12836D02*
X14814Y2175D01*
X12934D02*
X14912Y197D01*
X12891D02*
X14870Y2175D01*
X13225Y197D02*
X14404Y1375D01*
X13281Y197D02*
X14400Y1316D01*
X13392Y197D02*
X14406Y1210D01*
X13337Y197D02*
X14401Y1261D01*
X12557Y197D02*
X14536Y2175D01*
X13058Y197D02*
X14479Y1617D01*
X13114Y197D02*
X14436Y1519D01*
X13170Y197D02*
X14415Y1442D01*
X13727Y197D02*
X14490Y960D01*
X13671Y197D02*
X14471Y997D01*
X13838Y197D02*
X14534Y893D01*
X13782Y197D02*
X14511Y926D01*
X13504Y197D02*
X14424Y1117D01*
X13448Y197D02*
X14414Y1162D01*
X13615Y197D02*
X14453Y1035D01*
X13560Y197D02*
X14438Y1075D01*
X12246Y15364D02*
X12433Y15551D01*
X12252D02*
X12439Y15364D01*
X12197Y15551D02*
X12384Y15364D01*
X12308Y15551D02*
X12495Y15364D01*
X12302D02*
X12489Y15551D01*
X12135Y15364D02*
X12322Y15551D01*
X12085D02*
X12272Y15364D01*
X12190D02*
X12377Y15551D01*
X12141D02*
X12328Y15364D01*
X12469D02*
X12656Y15551D01*
X12420D02*
X12607Y15364D01*
X12525D02*
X12712Y15551D01*
X12475D02*
X12662Y15364D01*
X12126D02*
X13993D01*
X12357D02*
X12545Y15551D01*
X12413Y15364D02*
X12600Y15551D01*
X12364D02*
X12551Y15364D01*
X11974Y15551D02*
X12161Y15364D01*
X12030Y15551D02*
X12217Y15364D01*
X11918Y15551D02*
X12106Y15363D01*
X12072Y15357D02*
X12266Y15551D01*
X11863D02*
X12060Y15353D01*
X11807Y15551D02*
X12022Y15336D01*
X11751Y15551D02*
X11990Y15313D01*
X11696Y15551D02*
X11962Y15285D01*
X11114Y15234D02*
X11431Y15551D01*
X11640D02*
X11934Y15258D01*
X11584Y15551D02*
X11906Y15230D01*
X11529Y15551D02*
X11878Y15202D01*
X11114Y15178D02*
X11487Y15551D01*
X11473D02*
X11850Y15174D01*
X11417Y15551D02*
X11822Y15146D01*
X11423Y14931D02*
X12043Y15551D01*
X11479Y14931D02*
X12099Y15551D01*
X11368Y14931D02*
X11988Y15551D01*
X11590Y14931D02*
X12210Y15551D01*
X11535Y14931D02*
X12155Y15551D01*
X11312Y14931D02*
X11932Y15551D01*
X11195D02*
X11711Y15035D01*
X11256Y14931D02*
X11876Y15551D01*
X11114Y14844D02*
X11821Y15551D01*
X11362D02*
X11795Y15118D01*
X11306Y15551D02*
X11767Y15090D01*
X12494Y10115D02*
X13071D01*
X11607Y14931D02*
X11980Y15304D01*
X11250Y15551D02*
X11739Y15063D01*
X11139Y15551D02*
X11683Y15007D01*
X11114Y14900D02*
X11765Y15551D01*
X11114Y14956D02*
X11709Y15551D01*
X11114Y15187D02*
X11369Y14931D01*
X11114Y15131D02*
X11314Y14931D01*
X11114Y15075D02*
X11258Y14931D01*
X11114Y14964D02*
X11230Y14847D01*
X11114Y15020D02*
X11230Y14903D01*
X11114Y15067D02*
X11598Y15551D01*
X11114Y15123D02*
X11542Y15551D01*
X11114Y15011D02*
X11654Y15551D01*
X11114Y15242D02*
X11425Y14931D01*
X11230D02*
X11607D01*
X11230Y14905D02*
X11256Y14931D01*
X11230Y14849D02*
X11312Y14931D01*
X11230Y14813D02*
Y14931D01*
X11114Y14908D02*
X11209Y14813D01*
X11114Y14853D02*
X11153Y14813D01*
X11194D02*
X11230Y14849D01*
X11138Y14813D02*
X11230Y14905D01*
X10482Y15382D02*
X10651Y15551D01*
X10482Y15326D02*
X10707Y15551D01*
X10482Y15438D02*
X10596Y15551D01*
X10805D02*
X11069Y15287D01*
X10777D02*
X11041Y15551D01*
X10284Y15463D02*
X10373Y15551D01*
X10248D02*
X10337Y15463D01*
X10452D02*
X10540Y15551D01*
X10396Y15463D02*
X10484Y15551D01*
X10359D02*
X10448Y15463D01*
X10340D02*
X10429Y15551D01*
X10392Y15463D02*
X10482Y15373D01*
X10448Y15463D02*
X10482Y15428D01*
X8071Y15551D02*
X15551D01*
X9518Y15463D02*
X10482D01*
X10304Y15551D02*
X10392Y15463D01*
X10229D02*
X10317Y15551D01*
X9895Y15463D02*
X9983Y15551D01*
X9914D02*
X10003Y15463D01*
X9858Y15551D02*
X9947Y15463D01*
X9970Y15551D02*
X10058Y15463D01*
X9950D02*
X10039Y15551D01*
X9783Y15463D02*
X9872Y15551D01*
X9747D02*
X9836Y15463D01*
X9839D02*
X9928Y15551D01*
X9803D02*
X9891Y15463D01*
X10137Y15551D02*
X10225Y15463D01*
X10117D02*
X10206Y15551D01*
X10192D02*
X10281Y15463D01*
X10173D02*
X10262Y15551D01*
X10025D02*
X10114Y15463D01*
X10006D02*
X10095Y15551D01*
X10081D02*
X10170Y15463D01*
X10062D02*
X10150Y15551D01*
X11055Y15287D02*
X11320Y15551D01*
X11111Y15287D02*
X11375Y15551D01*
X11000Y15287D02*
X11264Y15551D01*
X11083D02*
X11655Y14979D01*
X11028Y15551D02*
X11627Y14951D01*
X10861Y15551D02*
X11481Y14931D01*
X10749Y15551D02*
X11013Y15287D01*
X10972Y15551D02*
X11592Y14931D01*
X10916Y15551D02*
X11536Y14931D01*
X10944Y15287D02*
X11208Y15551D01*
X11069Y15287D02*
X11114Y15242D01*
Y14813D02*
X11230D01*
X11114D02*
Y15287D01*
X10888D02*
X11153Y15551D01*
X10833Y15287D02*
X11097Y15551D01*
X10482Y15287D02*
X11114D01*
X10666D02*
X10930Y15551D01*
X10638D02*
X10902Y15287D01*
X10721D02*
X10986Y15551D01*
X10694D02*
X10958Y15287D01*
X10554D02*
X10818Y15551D01*
X10526D02*
X10791Y15287D01*
X10610D02*
X10874Y15551D01*
X10582D02*
X10846Y15287D01*
X10482Y15428D02*
X10624Y15287D01*
X10482D02*
Y15463D01*
X10499Y15287D02*
X10763Y15551D01*
X10471D02*
X10735Y15287D01*
X10415Y15551D02*
X10679Y15287D01*
X10482Y15373D02*
X10568Y15287D01*
X10482Y15317D02*
X10512Y15287D01*
X12490Y9929D02*
X12676Y10115D01*
X12490Y9873D02*
X12732Y10115D01*
X12490Y9985D02*
X12621Y10115D01*
X12510D02*
X12836Y9789D01*
X12506Y9834D02*
X12788Y10115D01*
X12490Y10040D02*
X12565Y10115D01*
X12490Y9849D02*
Y10111D01*
Y10080D02*
X12781Y9789D01*
X12490Y10024D02*
X12725Y9789D01*
X12490Y9968D02*
X12669Y9789D01*
X12490Y9913D02*
X12614Y9789D01*
X12490Y9857D02*
X12558Y9789D01*
X12490Y9849D02*
X12550Y9789D01*
X11862Y7390D02*
X11890Y7419D01*
X11565Y8047D02*
Y8130D01*
X11255Y7358D02*
X11467Y7569D01*
X11228Y7386D02*
X11447Y7606D01*
X11311Y7302D02*
X11516Y7507D01*
X11283Y7330D02*
X11490Y7537D01*
X11201Y7971D02*
X11462Y8233D01*
X11201Y8027D02*
X11434Y8261D01*
X11201Y7749D02*
X11565Y8113D01*
X11201Y7804D02*
X11546Y8150D01*
X11826Y7403D02*
X11851Y7378D01*
X11775Y7399D02*
X11828Y7346D01*
X11715Y7403D02*
X11811Y7307D01*
X11637Y7425D02*
X11802Y7260D01*
X11367Y7247D02*
X11577Y7457D01*
X11339Y7274D02*
X11545Y7480D01*
X11422Y7191D02*
X11651Y7420D01*
X11395Y7219D02*
X11612Y7436D01*
X12530Y4178D02*
X12677Y4325D01*
X12530Y4122D02*
X12716Y4309D01*
X12530Y4234D02*
X12641Y4345D01*
X12530Y3900D02*
X12932Y4302D01*
X12530Y4067D02*
X12759Y4296D01*
X12530Y4345D02*
X12580Y4395D01*
X12530Y4401D02*
X12554Y4425D01*
X12530Y4289D02*
X12609Y4369D01*
X12530Y4011D02*
X12808Y4289D01*
X11914Y4141D02*
X11959Y4097D01*
X12530Y3955D02*
X12864Y4290D01*
X11858Y4086D02*
X11959Y3986D01*
X11803Y4030D02*
X11959Y3874D01*
X11831Y4058D02*
X11959Y3930D01*
X11747Y3974D02*
X11959Y3763D01*
X11775Y4002D02*
X11959Y3819D01*
X11562Y7052D02*
X11809Y7299D01*
X11589Y7024D02*
X11801Y7236D01*
X11617Y6996D02*
X11801Y7180D01*
Y6919D02*
Y7244D01*
X11647Y6970D02*
X11801Y7124D01*
X11478Y7135D02*
X11743Y7400D01*
X11450Y7163D02*
X11694Y7407D01*
X11534Y7080D02*
X11865Y7411D01*
X11506Y7107D02*
X11798Y7400D01*
X11776Y6932D02*
X11801Y6957D01*
X11738Y6949D02*
X11801Y7013D01*
X11721Y3948D02*
X11959Y4186D01*
X11886Y4114D02*
X11959Y4041D01*
X11695Y6962D02*
X11801Y7069D01*
X10940Y8435D02*
X11100Y8595D01*
X10968Y8407D02*
X11128Y8567D01*
X10913Y8463D02*
X11073Y8623D01*
X11024Y8351D02*
X11184Y8511D01*
X10996Y8379D02*
X11156Y8539D01*
X10885Y8491D02*
X11045Y8651D01*
X10855Y8516D02*
X11017Y8678D01*
X10691Y8984D02*
X11565Y8110D01*
X10691Y9005D02*
X11565Y8130D01*
X11160Y8210D02*
X11323Y8372D01*
X11135Y8240D02*
X11295Y8400D01*
X11195Y8133D02*
X11379Y8317D01*
X11181Y8174D02*
X11351Y8344D01*
X11080Y8296D02*
X11240Y8456D01*
X11052Y8324D02*
X11212Y8484D01*
X11107Y8268D02*
X11267Y8428D01*
X10883Y8492D02*
X11134Y8241D01*
X10691Y8853D02*
X10766Y8929D01*
X10691Y8798D02*
X10794Y8901D01*
X10691Y8909D02*
X10738Y8957D01*
X10709Y8593D02*
X10906Y8790D01*
X10691Y8618D02*
Y9005D01*
Y8742D02*
X10822Y8873D01*
X10691Y8631D02*
X10878Y8818D01*
X10691Y8686D02*
X10850Y8845D01*
X10779Y8552D02*
X10961Y8734D01*
X10730Y8559D02*
X10933Y8762D01*
X10820Y8537D02*
X10989Y8706D01*
X10709Y8559D02*
Y8618D01*
X10691Y8565D02*
Y8618D01*
Y8650D02*
X10793Y8548D01*
X11201Y7860D02*
X11518Y8177D01*
X11201Y7693D02*
X11565Y8057D01*
X11201Y7916D02*
X11490Y8205D01*
X11201Y7750D02*
X11801Y7150D01*
X11201Y7806D02*
X11801Y7205D01*
X10691Y8928D02*
X11565Y8054D01*
X10691Y8873D02*
X11538Y8026D01*
X10691Y8817D02*
X11509Y7998D01*
X10691Y8761D02*
X11484Y7968D01*
X11201Y7639D02*
X11801Y7038D01*
X11201Y7694D02*
X11801Y7094D01*
X11201Y7527D02*
X11801Y6927D01*
X11201Y7583D02*
X11801Y6983D01*
X11201Y7416D02*
X11647Y6970D01*
X11201Y7413D02*
X11643Y6970D01*
X11201Y7472D02*
X11716Y6957D01*
X8771Y3888D02*
X11575D01*
X11201Y8084D02*
X11429Y7856D01*
X11201Y8083D02*
X11407Y8289D01*
X11201Y8029D02*
X11419Y7811D01*
X11201Y7413D02*
Y8081D01*
X10691Y8706D02*
X11462Y7934D01*
X11190Y8151D02*
X11443Y7897D01*
X11201Y7582D02*
X11417Y7798D01*
X11201Y7526D02*
X11415Y7740D01*
X11201Y7415D02*
X11432Y7646D01*
X11201Y7470D02*
X11420Y7690D01*
X11201Y7917D02*
X11419Y7699D01*
X11201Y7973D02*
X11414Y7759D01*
X11201Y7861D02*
X11441Y7622D01*
X11201Y7637D02*
X11433Y7870D01*
X9636Y15551D02*
X9724Y15463D01*
X9672D02*
X9761Y15551D01*
X9616Y15463D02*
X9705Y15551D01*
X9728Y15463D02*
X9816Y15551D01*
X9691D02*
X9780Y15463D01*
X9580Y15551D02*
X9669Y15463D01*
X9561D02*
X9649Y15551D01*
X9524D02*
X9613Y15463D01*
X9380Y15338D02*
X9594Y15551D01*
X9469D02*
X9557Y15463D01*
X9380Y15449D02*
X9482Y15551D01*
X9518Y15420D02*
X9561Y15463D01*
X9413Y15551D02*
X9518Y15446D01*
X9380Y15393D02*
X9538Y15551D01*
X9338Y15463D02*
X9427Y15551D01*
X9302D02*
X9518Y15335D01*
X9357Y15551D02*
X9518Y15391D01*
X9004Y15463D02*
X9092Y15551D01*
X9023D02*
X9112Y15463D01*
X8967Y15551D02*
X9056Y15463D01*
X9079Y15551D02*
X9167Y15463D01*
X9060D02*
X9148Y15551D01*
X8893Y15463D02*
X8981Y15551D01*
X8856D02*
X8945Y15463D01*
X8948D02*
X9037Y15551D01*
X8912D02*
X9000Y15463D01*
X9246Y15551D02*
X9334Y15463D01*
X9227D02*
X9315Y15551D01*
X9334Y15463D02*
X9380Y15417D01*
X9282Y15463D02*
X9371Y15551D01*
X9135D02*
X9223Y15463D01*
X9115D02*
X9204Y15551D01*
X9190D02*
X9279Y15463D01*
X9171D02*
X9260Y15551D01*
X9380Y15306D02*
X9518Y15168D01*
X9380Y15115D02*
X9518Y15253D01*
X9380Y15170D02*
X9518Y15308D01*
X9380Y15059D02*
X9518Y15197D01*
X9380Y15250D02*
X9518Y15112D01*
X9380Y15417D02*
X9518Y15279D01*
X9380Y15282D02*
X9518Y15420D01*
X9380Y15361D02*
X9518Y15224D01*
X9380Y15226D02*
X9518Y15364D01*
X9380Y14892D02*
X9518Y15030D01*
X9380Y15083D02*
X9518Y14945D01*
X9380Y14836D02*
X9518Y14974D01*
X9380Y15027D02*
X9518Y14890D01*
X9380Y15003D02*
X9518Y15141D01*
X9380Y15194D02*
X9518Y15057D01*
X9380Y14948D02*
X9518Y15086D01*
X9380Y15139D02*
X9518Y15001D01*
X9380Y14781D02*
X9518Y14919D01*
X9380Y14916D02*
X9518Y14778D01*
X9380Y14972D02*
X9518Y14834D01*
Y14163D02*
Y15463D01*
X9380Y14163D02*
Y15463D01*
Y14860D02*
X9518Y14723D01*
X9380Y14725D02*
X9518Y14863D01*
X9380Y14805D02*
X9518Y14667D01*
X9380Y14669D02*
X9518Y14807D01*
X9380Y14638D02*
X9518Y14500D01*
X9380Y14502D02*
X9518Y14640D01*
X9380Y14582D02*
X9518Y14444D01*
X9380Y14447D02*
X9518Y14584D01*
X9380Y14749D02*
X9518Y14611D01*
X9380Y14614D02*
X9518Y14752D01*
X9380Y14693D02*
X9518Y14556D01*
X9380Y14558D02*
X9518Y14696D01*
X8745Y15551D02*
X8833Y15463D01*
X8781D02*
X8870Y15551D01*
X8726Y15463D02*
X8814Y15551D01*
X8837Y15463D02*
X8925Y15551D01*
X8800D02*
X8889Y15463D01*
X8633Y15551D02*
X8722Y15463D01*
X8503D02*
X8591Y15551D01*
X8689D02*
X8778Y15463D01*
X8670D02*
X8758Y15551D01*
X8558Y15463D02*
X8647Y15551D01*
X8522D02*
X8611Y15463D01*
X8614D02*
X8703Y15551D01*
X8578D02*
X8666Y15463D01*
X8466Y15551D02*
X8555Y15463D01*
X8447D02*
X8536Y15551D01*
X8415Y15463D02*
X9380D01*
X8415Y15375D02*
X8503Y15463D01*
X8355Y15551D02*
X8444Y15463D01*
X8411Y15551D02*
X8499Y15463D01*
X8299Y15551D02*
X8415Y15435D01*
X8077Y15551D02*
X8415Y15212D01*
X8188Y15551D02*
X8415Y15324D01*
X8071Y15309D02*
X8313Y15551D01*
X8071Y15365D02*
X8257Y15551D01*
X8071Y15142D02*
X8480Y15551D01*
X8071Y15198D02*
X8424Y15551D01*
X8415Y15431D02*
X8447Y15463D01*
X8071Y15420D02*
X8202Y15551D01*
X8132D02*
X8415Y15268D01*
X8244Y15551D02*
X8415Y15379D01*
X8071Y15253D02*
X8369Y15551D01*
X8071Y15476D02*
X8146Y15551D01*
X8071Y15446D02*
X8415Y15101D01*
X8071Y15501D02*
X8415Y15157D01*
X8071Y15279D02*
X8415Y14934D01*
X8071Y14919D02*
X8415Y15264D01*
X8071Y14975D02*
X8415Y15319D01*
X8071Y14864D02*
X8415Y15208D01*
X8071Y15223D02*
X8415Y14878D01*
X8071Y15390D02*
X8415Y15045D01*
X8071Y15086D02*
X8415Y15431D01*
X8071Y15334D02*
X8415Y14990D01*
X8071Y15031D02*
X8415Y15375D01*
X8071Y14697D02*
X8415Y15041D01*
X8071Y15056D02*
X8415Y14711D01*
X8071Y14641D02*
X8415Y14985D01*
X8071Y15000D02*
X8415Y14656D01*
X8071Y14808D02*
X8415Y15152D01*
X8071Y15167D02*
X8415Y14823D01*
X8071Y14752D02*
X8415Y15097D01*
X8071Y15112D02*
X8415Y14767D01*
X8071Y14585D02*
X8415Y14930D01*
X8071Y14944D02*
X8415Y14600D01*
Y14112D02*
Y15463D01*
X8071Y12543D02*
Y15551D01*
Y14530D02*
X8415Y14874D01*
X8071Y14889D02*
X8415Y14544D01*
X8071Y14474D02*
X8415Y14818D01*
X8071Y14833D02*
X8415Y14489D01*
X8071Y14307D02*
X8415Y14651D01*
X8071Y14666D02*
X8415Y14322D01*
X8071Y14251D02*
X8415Y14596D01*
X8071Y14610D02*
X8415Y14266D01*
X8071Y14418D02*
X8415Y14763D01*
X8071Y14777D02*
X8415Y14433D01*
X8071Y14363D02*
X8415Y14707D01*
X8071Y14722D02*
X8415Y14377D01*
X9380Y14415D02*
X9518Y14277D01*
X9380Y14224D02*
X9518Y14362D01*
X9380Y14280D02*
X9518Y14417D01*
X9380Y14168D02*
X9518Y14306D01*
X9380Y14359D02*
X9518Y14221D01*
X9380Y14526D02*
X9518Y14388D01*
X9380Y14391D02*
X9518Y14529D01*
X9380Y14471D02*
X9518Y14333D01*
X9380Y14335D02*
X9518Y14473D01*
X9380Y14248D02*
X9464Y14163D01*
X9380Y14192D02*
X9409Y14163D01*
X9486D02*
X9518Y14195D01*
X9431Y14163D02*
X9518Y14250D01*
X9380Y14163D02*
X9518D01*
X9380Y14304D02*
X9518Y14166D01*
X8297Y6015D02*
X8376Y6093D01*
X8348Y6260D02*
X8376Y6232D01*
X8343Y6260D02*
X8376D01*
X8297Y6182D02*
X8376Y6260D01*
X8297Y6126D02*
X8376Y6205D01*
X8318Y6235D02*
X8376Y6176D01*
X8297Y6214D02*
X8343Y6260D01*
X8122Y12627D02*
X8261Y12766D01*
X8297Y6032D02*
X8376Y5954D01*
X8297Y5959D02*
X8376Y6038D01*
X8297Y5977D02*
X8376Y5898D01*
X8297Y5903D02*
X8376Y5982D01*
X8297Y6070D02*
X8376Y6149D01*
X8297Y6199D02*
X8376Y6121D01*
X8297Y6088D02*
X8376Y6009D01*
X8297Y6144D02*
X8376Y6065D01*
X8297Y5643D02*
X8396Y5544D01*
X8297Y5513D02*
X8396Y5612D01*
X8297Y5698D02*
X8396Y5600D01*
Y5499D02*
Y5650D01*
X8297Y5587D02*
X8390Y5494D01*
X8297Y5402D02*
X8396Y5500D01*
X8297Y5458D02*
X8396Y5556D01*
X8297Y4276D02*
X8625Y3948D01*
X8297Y5401D02*
X8396Y5499D01*
X8297Y3787D02*
X8541Y4032D01*
X8297Y3843D02*
X8514Y4059D01*
X8297Y4010D02*
X8430Y4143D01*
X8297Y4066D02*
X8402Y4171D01*
X8297Y3899D02*
X8486Y4087D01*
X8297Y3954D02*
X8458Y4115D01*
X8297Y5921D02*
X8376Y5842D01*
X8297Y5792D02*
X8376Y5871D01*
X8297Y5847D02*
X8376Y5926D01*
Y5650D02*
Y6260D01*
X8297Y5401D02*
Y6214D01*
Y5736D02*
X8376Y5815D01*
X8297Y5865D02*
X8376Y5787D01*
X8297Y5680D02*
X8376Y5759D01*
X8297Y5810D02*
X8376Y5731D01*
X8297Y5476D02*
X8335Y5438D01*
X8297Y4233D02*
X8319Y4254D01*
X8297Y4121D02*
X8374Y4199D01*
X8297Y4177D02*
X8347Y4226D01*
X8297Y5625D02*
X8376Y5703D01*
X8297Y5754D02*
X8376Y5675D01*
X8297Y5569D02*
X8378Y5650D01*
X8297Y5531D02*
X8363Y5466D01*
X8071Y14443D02*
X8408Y14106D01*
X8071Y14084D02*
X8415Y14429D01*
X8071Y14388D02*
X8377Y14081D01*
X8071Y14028D02*
X8415Y14373D01*
X8071Y14332D02*
X8350Y14053D01*
X8071Y14196D02*
X8415Y14540D01*
X8071Y14555D02*
X8415Y14210D01*
X8071Y14140D02*
X8415Y14484D01*
X8071Y14499D02*
X8415Y14155D01*
X8071Y13806D02*
X8415Y14150D01*
X8071Y13861D02*
X8415Y14206D01*
X8071Y13831D02*
X8349Y13553D01*
X8071Y13775D02*
X8324Y13522D01*
X8071Y14276D02*
X8325Y14022D01*
X8071Y14221D02*
X8303Y13988D01*
X8071Y13917D02*
X8415Y14262D01*
X8071Y13973D02*
X8415Y14317D01*
X8071Y13750D02*
X8297Y13976D01*
X8071Y13694D02*
X8266Y13890D01*
X8071Y13942D02*
X8263Y13750D01*
X8071Y13887D02*
X8286Y13672D01*
X8071Y13639D02*
X8258Y13826D01*
X8071Y14165D02*
X8285Y13951D01*
X8071Y14109D02*
X8271Y13909D01*
X8071Y14054D02*
X8261Y13863D01*
X8071Y13998D02*
X8258Y13811D01*
X8071Y13416D02*
X8299Y13644D01*
X8071Y13664D02*
X8285Y13450D01*
X8071Y13608D02*
X8271Y13408D01*
X8071Y13553D02*
X8261Y13362D01*
X8071Y13527D02*
X8268Y13725D01*
X8071Y13583D02*
X8260Y13772D01*
X8071Y13720D02*
X8303Y13487D01*
X8071Y13472D02*
X8282Y13682D01*
X8071Y13385D02*
X8287Y13170D01*
X8071Y13330D02*
X8349Y13052D01*
X8071Y13026D02*
X8269Y13224D01*
X8071Y13274D02*
X8324Y13021D01*
X8071Y13218D02*
X8303Y12986D01*
X8071Y13305D02*
X8343Y13577D01*
X8071Y13360D02*
X8319Y13609D01*
X8071Y13249D02*
X8296Y13474D01*
X8071Y13193D02*
X8266Y13388D01*
X8071Y12804D02*
X8344Y13077D01*
X8071Y13107D02*
X8271Y12907D01*
X8071Y12748D02*
X8296Y12973D01*
X8071Y12692D02*
X8266Y12887D01*
X8071Y13163D02*
X8285Y12949D01*
X8071Y12971D02*
X8282Y13182D01*
X8071Y12859D02*
X8320Y13108D01*
X8071Y12915D02*
X8299Y13143D01*
X8071Y13051D02*
X8261Y12861D01*
X8071Y12996D02*
X8258Y12809D01*
X8071Y12940D02*
X8253Y12758D01*
X8071Y12884D02*
X8225Y12730D01*
X8071Y13441D02*
X8263Y13249D01*
X8071Y13497D02*
X8258Y13310D01*
X8071Y13082D02*
X8260Y13271D01*
X8071Y13138D02*
X8258Y13325D01*
X8071Y12717D02*
X8142Y12647D01*
X8071Y12662D02*
X8114Y12619D01*
X8071Y12829D02*
X8197Y12702D01*
X8071Y12773D02*
X8170Y12674D01*
X8071Y12581D02*
X8260Y12770D01*
X8071Y12637D02*
X8258Y12824D01*
X12530Y3565D02*
X13757Y4793D01*
X12530Y4417D02*
X13590Y3356D01*
X12530Y4361D02*
X13534Y3356D01*
X12530Y4306D02*
X13479Y3356D01*
X12530Y4250D02*
X13423Y3356D01*
X12530Y3677D02*
X13646Y4793D01*
X12530Y3732D02*
X13590Y4793D01*
X12530Y3510D02*
X13813Y4793D01*
X12530Y3621D02*
X13702Y4793D01*
X12530Y3972D02*
X13145Y3356D01*
X12530Y3916D02*
X13089Y3356D01*
X12530Y3860D02*
X13033Y3356D01*
X12530Y3471D02*
X12645Y3356D01*
X12530Y4194D02*
X13367Y3356D01*
X12530Y4139D02*
X13312Y3356D01*
X12530Y4083D02*
X13256Y3356D01*
X12530Y4027D02*
X13200Y3356D01*
X12530Y3471D02*
Y4460D01*
X11729Y3433D02*
X11959Y3663D01*
X11765Y3413D02*
X11959Y3607D01*
X11827Y3364D02*
X11959Y3496D01*
X11797Y3390D02*
X11959Y3551D01*
X11688Y3922D02*
X11959Y3652D01*
X11719Y3947D02*
X11959Y3707D01*
X11689Y3449D02*
X11959Y3718D01*
X11652Y3903D02*
X11959Y3596D01*
X11925Y3183D02*
X11959Y3217D01*
X11913Y3227D02*
X11959Y3273D01*
X11931Y3134D02*
X11959Y3162D01*
X11924Y3185D02*
X11959Y3150D01*
X11876Y3302D02*
X11959Y3384D01*
X11853Y3334D02*
X11959Y3440D01*
X11894Y3271D02*
X11959Y3206D01*
X11896Y3266D02*
X11959Y3329D01*
X12372Y3015D02*
X12589Y2799D01*
X12372Y2960D02*
X12589Y2743D01*
X12488Y2956D02*
X12589Y2855D01*
X12353Y2867D02*
X12589Y2632D01*
X12367Y2909D02*
X12589Y2688D01*
X12307Y2802D02*
X12589Y2521D01*
X12333Y2832D02*
X12589Y2576D01*
X12224Y2719D02*
X12589Y2354D01*
X12279Y2774D02*
X12589Y2465D01*
X12168Y2663D02*
X12589Y2242D01*
X12196Y2691D02*
X12589Y2298D01*
X12112Y2607D02*
X14523Y197D01*
X12140Y2635D02*
X12589Y2186D01*
X12029Y2524D02*
X14355Y197D01*
X12001Y2496D02*
X14300Y197D01*
X12084Y2579D02*
X14467Y197D01*
X12056Y2552D02*
X14411Y197D01*
X11959Y3038D02*
Y4186D01*
X11931Y3078D02*
X11959Y3106D01*
X11932Y3122D02*
X11959Y3095D01*
X12372Y3044D02*
X12413Y3004D01*
X12372Y2953D02*
Y3044D01*
X11917Y3009D02*
X11959Y3050D01*
X11930Y3068D02*
X11959Y3039D01*
X11912Y2991D02*
X11959Y3038D01*
X12372Y2963D02*
X12413Y3003D01*
X12365Y2900D02*
X12443Y2978D01*
X12251Y2746D02*
X12589Y2409D01*
X11957Y2452D02*
X12311Y2807D01*
X11290Y3551D02*
X11636Y3897D01*
X11237Y3553D02*
X11571Y3888D01*
X11181Y3553D02*
X11516Y3888D01*
X11334Y3539D02*
X11959Y4164D01*
X11608Y3891D02*
X11959Y3540D01*
X11125Y3553D02*
X11460Y3888D01*
X11070Y3553D02*
X11404Y3888D01*
X10999D02*
X11358Y3528D01*
X11014Y3553D02*
X11349Y3888D01*
X10958Y3553D02*
X11293Y3888D01*
X10903Y3553D02*
X11237Y3888D01*
X10943D02*
X11278Y3552D01*
X10887Y3888D02*
X11222Y3553D01*
X8937D02*
X11260D01*
X10791D02*
X11126Y3888D01*
X10847Y3553D02*
X11182Y3888D01*
X10832D02*
X11166Y3553D01*
X10457D02*
X10792Y3888D01*
X10498D02*
X10832Y3553D01*
X10442Y3888D02*
X10776Y3553D01*
X10553Y3888D02*
X10888Y3553D01*
X10513D02*
X10847Y3888D01*
X10346Y3553D02*
X10680Y3888D01*
X10330D02*
X10665Y3553D01*
X10401D02*
X10736Y3888D01*
X10386D02*
X10721Y3553D01*
X10720Y3888D02*
X11055Y3553D01*
X10680D02*
X11015Y3888D01*
X10776D02*
X11111Y3553D01*
X10736D02*
X11070Y3888D01*
X10609D02*
X10944Y3553D01*
X10569D02*
X10903Y3888D01*
X10665D02*
X10999Y3553D01*
X10624D02*
X10959Y3888D01*
X11539Y3466D02*
X11959Y3885D01*
X11596Y3467D02*
X11959Y3830D01*
X11555Y3888D02*
X11959Y3485D01*
X11469Y3452D02*
X11959Y3941D01*
X11645Y3461D02*
X11959Y3774D01*
X9829Y197D02*
X12575Y2943D01*
X11402Y3496D02*
X11959Y4052D01*
X9773Y197D02*
X12523Y2946D01*
X9718Y197D02*
X12480Y2959D01*
X10163Y197D02*
X12589Y2622D01*
X10107Y197D02*
X12589Y2678D01*
X10275Y197D02*
X12589Y2511D01*
X10219Y197D02*
X12589Y2567D01*
X9940Y197D02*
X12589Y2845D01*
X9885Y197D02*
X12589Y2901D01*
X10052Y197D02*
X12589Y2734D01*
X9996Y197D02*
X12589Y2789D01*
X11430Y3468D02*
X11959Y3997D01*
X11402Y3496D02*
X11959Y4052D01*
X11444Y3888D02*
X11959Y3373D01*
X11500Y3888D02*
X11959Y3429D01*
X11371Y3521D02*
X11959Y4108D01*
X11277Y3888D02*
X11735Y3429D01*
X11333Y3888D02*
X11959Y3262D01*
X11388Y3888D02*
X11959Y3318D01*
X11406Y3493D02*
X11453Y3446D01*
X11166Y3888D02*
X11586Y3467D01*
X11110Y3888D02*
X11533Y3465D01*
X11221Y3888D02*
X11650Y3460D01*
X11054Y3888D02*
X11486Y3456D01*
X11973Y2468D02*
X14244Y197D01*
X11912Y2418D02*
X14133Y197D01*
X11873Y2401D02*
X14077Y197D01*
X12335D02*
X14313Y2175D01*
X12279Y197D02*
X14257Y2175D01*
X11715Y2392D02*
X13910Y197D01*
X11660Y2392D02*
X13854Y197D01*
X11826Y2392D02*
X14021Y197D01*
X11771Y2392D02*
X13966Y197D01*
X12390D02*
X14369Y2175D01*
X12223Y197D02*
X14202Y2175D01*
X12502Y197D02*
X14480Y2175D01*
X12446Y197D02*
X14424Y2175D01*
X12056Y197D02*
X14035Y2175D01*
X11889Y197D02*
X13868Y2175D01*
X12168Y197D02*
X14146Y2175D01*
X12112Y197D02*
X14090Y2175D01*
X11348Y2273D02*
X11467Y2392D01*
X11604D02*
X13799Y197D01*
X11548Y2392D02*
X13743Y197D01*
X11348Y2392D02*
X11811D01*
X11348Y2329D02*
X11412Y2392D01*
X11348Y2217D02*
X11523Y2392D01*
X11348Y2175D02*
Y2392D01*
X11722Y197D02*
X13700Y2175D01*
X11666Y197D02*
X13645Y2175D01*
X11833Y197D02*
X13812Y2175D01*
X11778Y197D02*
X13756Y2175D01*
X11306D02*
X11348Y2217D01*
X11251Y2175D02*
X11348Y2273D01*
X11611Y197D02*
X13589Y2175D01*
X11555Y197D02*
X13533Y2175D01*
X11381Y2392D02*
X13576Y197D01*
X11437Y2392D02*
X13632Y197D01*
X11348Y2369D02*
X13520Y197D01*
X11945Y2441D02*
X14188Y197D01*
X11492Y2392D02*
X13687Y197D01*
X11348Y2313D02*
X13465Y197D01*
X11277D02*
X13255Y2175D01*
X11348Y2257D02*
X13409Y197D01*
X11348Y2202D02*
X13353Y197D01*
X11499D02*
X13478Y2175D01*
X11444Y197D02*
X13422Y2175D01*
X12001Y197D02*
X13979Y2175D01*
X11945Y197D02*
X13923Y2175D01*
X11319D02*
X13298Y197D01*
X11264Y2175D02*
X13242Y197D01*
X11388D02*
X13366Y2175D01*
X11332Y197D02*
X13311Y2175D01*
X10930D02*
X12908Y197D01*
X10943D02*
X12921Y2175D01*
X10887Y197D02*
X12865Y2175D01*
X10998Y197D02*
X12977Y2175D01*
X10985D02*
X12964Y197D01*
X10818Y2175D02*
X12797Y197D01*
X10776D02*
X12754Y2175D01*
X10874D02*
X12852Y197D01*
X10831D02*
X12810Y2175D01*
X11165Y197D02*
X13144Y2175D01*
X11152D02*
X13131Y197D01*
X11221D02*
X13199Y2175D01*
X11208D02*
X13186Y197D01*
X11054D02*
X13032Y2175D01*
X11041D02*
X13019Y197D01*
X11110D02*
X13088Y2175D01*
X11097D02*
X13075Y197D01*
X10609D02*
X12589Y2177D01*
X10651Y2175D02*
X12629Y197D01*
X10553D02*
X12589Y2233D01*
X10762Y2175D02*
X12741Y197D01*
X10664D02*
X12643Y2175D01*
X10386Y197D02*
X12589Y2400D01*
X10330Y197D02*
X12589Y2455D01*
X10497Y197D02*
X12589Y2288D01*
X10442Y197D02*
X12589Y2344D01*
X10595Y2175D02*
X12574Y197D01*
X10540Y2175D02*
X12518Y197D01*
X10720D02*
X12698Y2175D01*
X10707D02*
X12685Y197D01*
X10373Y2175D02*
X12351Y197D01*
X10317Y2175D02*
X12295Y197D01*
X10484Y2175D02*
X12462Y197D01*
X10428Y2175D02*
X12407Y197D01*
X10094Y2175D02*
X12073Y197D01*
X10150Y2175D02*
X12128Y197D01*
X10039Y2175D02*
X12017Y197D01*
X10261Y2175D02*
X12240Y197D01*
X10206Y2175D02*
X12184Y197D01*
X9662D02*
X11864Y2399D01*
X9872Y2175D02*
X11850Y197D01*
X9983Y2175D02*
X11961Y197D01*
X9927Y2175D02*
X11906Y197D01*
X9816Y2175D02*
X11794Y197D01*
X9810Y2175D02*
X11348D01*
X9785Y2150D02*
X11739Y197D01*
X9757Y2122D02*
X11683Y197D01*
X9674Y2039D02*
X11516Y197D01*
X9646Y2011D02*
X11460Y197D01*
X9729Y2095D02*
X11627Y197D01*
X9702Y2067D02*
X11572Y197D01*
X9439D02*
X11634Y2392D01*
X9495Y197D02*
X11690Y2392D01*
X9384Y197D02*
X11579Y2392D01*
X9606Y197D02*
X11801Y2392D01*
X9551Y197D02*
X11746Y2392D01*
X9217Y197D02*
X11195Y2175D01*
X9105Y197D02*
X11084Y2175D01*
X9328Y197D02*
X11306Y2175D01*
X9272Y197D02*
X11251Y2175D01*
X9562Y1928D02*
X11293Y197D01*
X9535Y1900D02*
X11238Y197D01*
X9618Y1983D02*
X11405Y197D01*
X9590Y1955D02*
X11349Y197D01*
X8110D02*
X15551D01*
X9161D02*
X11139Y2175D01*
X9507Y1872D02*
X11182Y197D01*
X9479Y1844D02*
X11126Y197D01*
X8938D02*
X10917Y2175D01*
X8883Y197D02*
X10861Y2175D01*
X9050Y197D02*
X11028Y2175D01*
X8994Y197D02*
X10972Y2175D01*
X8716Y197D02*
X10694Y2175D01*
X8660Y197D02*
X10638Y2175D01*
X8827Y197D02*
X10805Y2175D01*
X8771Y197D02*
X10750Y2175D01*
X9394Y1762D02*
X10959Y197D01*
X9359Y1742D02*
X10903Y197D01*
X9451Y1816D02*
X11070Y197D01*
X9423Y1788D02*
X11015Y197D01*
X9211Y1722D02*
X10736Y197D01*
X9155Y1722D02*
X10681Y197D01*
X9317Y1728D02*
X10848Y197D01*
X9267Y1722D02*
X10792Y197D01*
X9996Y3888D02*
X10331Y3553D01*
X10012D02*
X10346Y3888D01*
X9956Y3553D02*
X10291Y3888D01*
X10067Y3553D02*
X10402Y3888D01*
X10052D02*
X10387Y3553D01*
X9885Y3888D02*
X10220Y3553D01*
X9845D02*
X10179Y3888D01*
X9941D02*
X10275Y3553D01*
X9900D02*
X10235Y3888D01*
X10234Y3553D02*
X10569Y3888D01*
X10219D02*
X10554Y3553D01*
X10290D02*
X10625Y3888D01*
X10275D02*
X10609Y3553D01*
X10123D02*
X10458Y3888D01*
X10108D02*
X10442Y3553D01*
X10179D02*
X10513Y3888D01*
X10163D02*
X10498Y3553D01*
X9511D02*
X9845Y3888D01*
X9551D02*
X9886Y3553D01*
X9495Y3888D02*
X9830Y3553D01*
X9607Y3888D02*
X9941Y3553D01*
X9566D02*
X9901Y3888D01*
X9399Y3553D02*
X9734Y3888D01*
X9384D02*
X9719Y3553D01*
X9455D02*
X9790Y3888D01*
X9440D02*
X9774Y3553D01*
X9774Y3888D02*
X10108Y3553D01*
X9733D02*
X10068Y3888D01*
X9829D02*
X10164Y3553D01*
X9789D02*
X10124Y3888D01*
X9662D02*
X9997Y3553D01*
X9622D02*
X9957Y3888D01*
X9718D02*
X10053Y3553D01*
X9678D02*
X10012Y3888D01*
X9050D02*
X9385Y3553D01*
X9065D02*
X9400Y3888D01*
X9010Y3553D02*
X9344Y3888D01*
X9121Y3553D02*
X9456Y3888D01*
X9106D02*
X9440Y3553D01*
X8994Y3888D02*
X9329Y3553D01*
X8954D02*
X9288Y3888D01*
X8939D02*
X9273Y3553D01*
X8894Y3549D02*
X9233Y3888D01*
X9288Y3553D02*
X9623Y3888D01*
X9273D02*
X9607Y3553D01*
X9344D02*
X9678Y3888D01*
X9328D02*
X9663Y3553D01*
X9177D02*
X9511Y3888D01*
X9161D02*
X9496Y3553D01*
X9232D02*
X9567Y3888D01*
X9217D02*
X9552Y3553D01*
X8827Y3888D02*
X9162Y3553D01*
X8883Y3888D02*
X9218Y3553D01*
X8772Y3888D02*
X9106Y3553D01*
X8705Y3899D02*
X9050Y3553D01*
X8712Y3414D02*
X8791Y3493D01*
X8571Y2634D02*
X8652Y2715D01*
Y3268D01*
X8536Y2634D02*
X8652Y2750D01*
X8480Y2634D02*
X8652Y2805D01*
X8403Y2668D02*
X8652Y2917D01*
X8375Y2696D02*
X8652Y2972D01*
X8431Y2640D02*
X8652Y2861D01*
X8437Y2634D02*
X8571D01*
X8297Y4028D02*
X8813Y3512D01*
X8297Y3972D02*
X8784Y3486D01*
X8297Y3917D02*
X8756Y3458D01*
X8297Y3175D02*
X9010Y3888D01*
X8297Y3453D02*
X8735Y3891D01*
X8297Y4251D02*
X8995Y3553D01*
X8297Y4195D02*
X8939Y3553D01*
X8297Y4139D02*
X8889Y3548D01*
X8297Y4084D02*
X8848Y3533D01*
X8297Y3398D02*
X8787Y3888D01*
X8297Y3861D02*
X8728Y3430D01*
X8297Y3231D02*
X8954Y3888D01*
X8297Y3342D02*
X8843Y3888D01*
X8297Y3119D02*
X9066Y3888D01*
X8297Y3286D02*
X8899Y3888D01*
X8297Y3008D02*
X9177Y3888D01*
X8297Y3064D02*
X9121Y3888D01*
X8297Y3509D02*
X8692Y3904D01*
X8297Y3805D02*
X8701Y3402D01*
X8297Y3750D02*
X8678Y3369D01*
X8297Y3694D02*
X8661Y3330D01*
X8297Y3638D02*
X8652Y3283D01*
X8297Y3676D02*
X8597Y3976D01*
X8297Y3732D02*
X8569Y4004D01*
X8297Y3565D02*
X8656Y3923D01*
X8297Y3620D02*
X8625Y3948D01*
X8297Y2952D02*
X8656Y3311D01*
X8297Y3360D02*
X8652Y3006D01*
X8297Y2897D02*
X8652Y3251D01*
X8297Y3304D02*
X8652Y2950D01*
X8297Y3527D02*
X8652Y3173D01*
X8297Y3583D02*
X8652Y3228D01*
X8297Y3416D02*
X8652Y3061D01*
X8297Y3471D02*
X8652Y3117D01*
X8297Y3248D02*
X8652Y2894D01*
X8297Y2841D02*
X8652Y3195D01*
X8297Y2774D02*
Y4276D01*
X8347Y2724D02*
X8652Y3028D01*
X8319Y2752D02*
X8652Y3084D01*
X8297Y2785D02*
X8652Y3140D01*
X8297Y3193D02*
X8652Y2838D01*
X8297Y3081D02*
X8652Y2727D01*
X8297Y3137D02*
X8652Y2783D01*
X8297Y3026D02*
X8630Y2693D01*
X8297Y2970D02*
X8602Y2665D01*
X8297Y2914D02*
X8574Y2637D01*
X8297Y2859D02*
X8522Y2634D01*
X8297Y2803D02*
X8466Y2634D01*
X8297Y2774D02*
X8437Y2634D01*
X8079Y228D02*
X10026Y2175D01*
X8071Y276D02*
X9970Y2175D01*
X8071Y2225D02*
X8166Y2320D01*
X8071Y2280D02*
X8138Y2348D01*
X8071Y2169D02*
X8194Y2292D01*
X8071Y2306D02*
X8159Y2217D01*
X8071Y2415D02*
X8205Y2281D01*
X8071Y2336D02*
X8111Y2376D01*
X8071Y2361D02*
X8178Y2254D01*
X8071Y236D02*
Y2415D01*
X8159Y2254D02*
X8239D01*
X8159Y2202D02*
X8211Y2254D01*
X8071Y2113D02*
X8159Y2202D01*
X8071Y2250D02*
X8159Y2161D01*
Y1604D02*
Y2254D01*
X8071Y2194D02*
X8159Y2106D01*
X9418Y1783D02*
X9810Y2175D01*
X8830Y1091D02*
X9914Y2175D01*
X8830Y1258D02*
X9296Y1724D01*
X8830Y1147D02*
X9859Y2175D01*
X8830Y1202D02*
X9383Y1755D01*
X8107Y200D02*
X10081Y2175D01*
X8107Y200D02*
X10081Y2175D01*
X8848Y1722D02*
X9272D01*
X8830Y1370D02*
X9183Y1722D01*
X9099D02*
X10625Y197D01*
X8830Y1101D02*
X9734Y197D01*
X8830Y1379D02*
X10013Y197D01*
X8830Y1314D02*
X9239Y1722D01*
X8830Y1491D02*
X10124Y197D01*
X8830Y1268D02*
X9901Y197D01*
X8848Y1666D02*
X8905Y1722D01*
X8848Y1610D02*
X8961Y1722D01*
X8848Y1604D02*
Y1722D01*
X8830Y1537D02*
X9016Y1722D01*
X8830Y1604D02*
Y1685D01*
X8178Y1604D02*
Y1685D01*
X8071Y1946D02*
X8159Y2035D01*
X8830Y1425D02*
X9128Y1722D01*
X8830Y1481D02*
X9072Y1722D01*
X8830Y1071D02*
Y1604D01*
X8755Y1071D02*
X8830Y1147D01*
X8178Y1071D02*
X8830D01*
X8178Y1141D02*
X8247Y1071D01*
X8178D02*
Y1604D01*
X8437Y197D02*
X10415Y2175D01*
X8493Y197D02*
X10471Y2175D01*
X8381Y197D02*
X10360Y2175D01*
X8604Y197D02*
X10583Y2175D01*
X8548Y197D02*
X10527Y2175D01*
X8214Y197D02*
X10193Y2175D01*
X8159Y197D02*
X10137Y2175D01*
X8326Y197D02*
X10304Y2175D01*
X8270Y197D02*
X10248Y2175D01*
X8932Y1722D02*
X10458Y197D01*
X8877Y1722D02*
X10402Y197D01*
X9044Y1722D02*
X10569Y197D01*
X8988Y1722D02*
X10514Y197D01*
X8830Y1602D02*
X10235Y197D01*
X8830Y1546D02*
X10180Y197D01*
X8848Y1695D02*
X10347Y197D01*
X8848Y1639D02*
X10291Y197D01*
X8830Y1435D02*
X10068Y197D01*
X8830Y1323D02*
X9957Y197D01*
X8830Y1212D02*
X9846Y197D01*
X8830Y1156D02*
X9790Y197D01*
X8693Y1071D02*
X9567Y197D01*
X8637Y1071D02*
X9512Y197D01*
X8804Y1071D02*
X9679Y197D01*
X8748Y1071D02*
X9623Y197D01*
X8470Y1071D02*
X9344Y197D01*
X8414Y1071D02*
X9289Y197D01*
X8581Y1071D02*
X9456Y197D01*
X8526Y1071D02*
X9400Y197D01*
X8247Y1071D02*
X9122Y197D01*
X8192Y1071D02*
X9066Y197D01*
X8359Y1071D02*
X9233Y197D01*
X8303Y1071D02*
X9177Y197D01*
X8071Y1526D02*
X8178Y1419D01*
X8071Y1390D02*
X8178Y1496D01*
X8071Y1445D02*
X8178Y1552D01*
X8071Y1334D02*
X8178Y1441D01*
X8071Y1470D02*
X8178Y1364D01*
X8071Y1637D02*
X8178Y1531D01*
X8071Y1972D02*
X8159Y1883D01*
X8071Y1582D02*
X8178Y1475D01*
X8071Y1501D02*
X8174Y1604D01*
X8071Y1167D02*
X8178Y1274D01*
X8071Y1303D02*
X8178Y1197D01*
X8071Y1111D02*
X8178Y1218D01*
X8071Y1248D02*
X8178Y1141D01*
X8071Y1278D02*
X8178Y1385D01*
X8071Y1415D02*
X8178Y1308D01*
X8071Y1223D02*
X8178Y1329D01*
X8071Y1359D02*
X8178Y1252D01*
X8071Y1891D02*
X8159Y1979D01*
X8071Y1835D02*
X8159Y1924D01*
X8071Y2027D02*
X8159Y1939D01*
X8071Y1779D02*
X8159Y1868D01*
X8071Y1916D02*
X8159Y1827D01*
X8071Y2139D02*
X8159Y2050D01*
X8071Y2058D02*
X8159Y2146D01*
X8071Y2083D02*
X8159Y1994D01*
X8071Y2002D02*
X8159Y2091D01*
X8071Y1612D02*
X8159Y1701D01*
X8071Y1749D02*
X8159Y1660D01*
X8071Y1557D02*
X8159Y1645D01*
X8071Y1693D02*
X8159Y1605D01*
X8071Y1724D02*
X8159Y1812D01*
X8071Y1860D02*
X8159Y1772D01*
X8071Y1668D02*
X8159Y1757D01*
X8071Y1805D02*
X8159Y1716D01*
X8071Y610D02*
X8532Y1071D01*
X8071Y554D02*
X8588Y1071D01*
X8071Y666D02*
X8476Y1071D01*
X8071Y332D02*
X8810Y1071D01*
X8071Y387D02*
X8755Y1071D01*
X8071Y443D02*
X8699Y1071D01*
X8071Y499D02*
X8643Y1071D01*
X8071Y1136D02*
X9010Y197D01*
X8071Y1081D02*
X8955Y197D01*
X8071Y802D02*
X8676Y197D01*
X8071Y747D02*
X8621Y197D01*
X8071Y691D02*
X8565Y197D01*
X8071Y635D02*
X8509Y197D01*
X8071Y1025D02*
X8899Y197D01*
X8071Y969D02*
X8843Y197D01*
X8071Y914D02*
X8788Y197D01*
X8071Y858D02*
X8732Y197D01*
X8071Y833D02*
X8309Y1071D01*
X8071Y944D02*
X8198Y1071D01*
X8071Y721D02*
X8421Y1071D01*
X8071Y777D02*
X8365Y1071D01*
X8071Y1055D02*
X8178Y1162D01*
X8071Y1192D02*
X8178Y1085D01*
X8071Y888D02*
X8254Y1071D01*
X8071Y1000D02*
X8178Y1107D01*
X8071Y357D02*
X8231Y197D01*
X8071Y301D02*
X8175Y197D01*
X8071Y246D02*
X8120Y197D01*
X8071Y236D02*
X8110Y197D01*
X8071Y580D02*
X8454Y197D01*
X8071Y524D02*
X8398Y197D01*
X8071Y468D02*
X8342Y197D01*
X8071Y413D02*
X8287Y197D01*
X12756Y9173D02*
X12913Y9331D01*
X13689D01*
X13691Y9333D01*
X10974Y7333D02*
X11693Y6614D01*
X3819Y4498D02*
Y4921D01*
X3937Y5039D01*
X14622Y12024D02*
X14961D01*
X14431Y11833D02*
X14622Y12024D01*
X13691Y11833D02*
X14431D01*
X10089Y5333D02*
X10573D01*
X10709Y5197D01*
Y4488D02*
Y5197D01*
X8799Y5965D02*
Y6161D01*
X8661Y6299D02*
X8799Y6161D01*
Y4744D02*
X8799Y4744D01*
X8465Y6299D02*
X8661D01*
X10089Y7333D02*
X10974D01*
X11614Y6614D02*
X11693D01*
X11673Y5072D02*
X12028Y5427D01*
Y5767D01*
X11831Y5964D02*
Y6398D01*
X11614Y6614D02*
X11831Y6398D01*
Y5964D02*
X12028Y5767D01*
X11456Y4449D02*
X11673Y4666D01*
Y5072D01*
X8890Y4449D02*
X11456D01*
X8258Y6093D02*
X8465Y6299D01*
X8799Y4539D02*
Y4744D01*
Y4539D02*
X8890Y4449D01*
X8258Y3356D02*
Y4429D01*
Y3356D02*
X8386Y3228D01*
X8258Y4429D02*
Y6093D01*
D12*
X14173Y4252D02*
D03*
X14724D02*
D03*
X14646Y5000D02*
D03*
X15197D02*
D03*
D13*
X8504Y1378D02*
D03*
Y1929D02*
D03*
D15*
X3266Y12835D02*
D03*
Y14882D02*
D03*
X3766Y12835D02*
D03*
X4266D02*
D03*
X4766D02*
D03*
X3766Y14882D02*
D03*
X4266D02*
D03*
X4766D02*
D03*
D16*
X14803Y5522D02*
D03*
Y6211D02*
D03*
X14961Y7254D02*
D03*
Y7943D02*
D03*
X13110Y12726D02*
D03*
Y13415D02*
D03*
X10945Y12726D02*
D03*
Y13415D02*
D03*
X3307Y11112D02*
D03*
Y11801D02*
D03*
X3110Y6821D02*
D03*
Y7510D02*
D03*
X2480Y14537D02*
D03*
Y15226D02*
D03*
X1614Y14537D02*
D03*
Y15226D02*
D03*
D17*
X522Y1772D02*
D03*
X1211D02*
D03*
X522Y2638D02*
D03*
X1211D02*
D03*
X1663Y1024D02*
D03*
X2352D02*
D03*
X6427Y6969D02*
D03*
X7116D02*
D03*
X6506Y1890D02*
D03*
X7195D02*
D03*
X6467Y3937D02*
D03*
X7156D02*
D03*
X3120Y4488D02*
D03*
X3809D02*
D03*
X3120Y3661D02*
D03*
X3809D02*
D03*
X3593Y10118D02*
D03*
X4281D02*
D03*
X6624Y15197D02*
D03*
X7313D02*
D03*
X3120Y2677D02*
D03*
X3809D02*
D03*
D18*
X14331Y13720D02*
D03*
Y14468D02*
D03*
X15118Y14094D02*
D03*
X10787Y14232D02*
D03*
Y14980D02*
D03*
X11575Y14606D02*
D03*
X6417Y5315D02*
D03*
X7205Y4941D02*
D03*
Y5689D02*
D03*
X3110Y1260D02*
D03*
X3898Y886D02*
D03*
Y1634D02*
D03*
X3150Y8524D02*
D03*
Y9272D02*
D03*
X3937Y8898D02*
D03*
X3543Y5413D02*
D03*
Y6161D02*
D03*
X4331Y5787D02*
D03*
D24*
X6498Y14291D02*
D03*
X7285D02*
D03*
D29*
X7283Y551D02*
D03*
X591Y15039D02*
D03*
X15079Y1299D02*
D03*
X11929Y12677D02*
D03*
D30*
X6498Y14291D02*
X6755D01*
X6498Y13876D02*
Y14291D01*
X6240D02*
X6498D01*
X5709Y14370D02*
Y14628D01*
Y14370D02*
X6124D01*
X5294D02*
X5709D01*
X6750Y9524D02*
X7087D01*
X7087Y8727D02*
Y9024D01*
X6750D02*
X7087D01*
X6427Y6969D02*
Y7364D01*
Y6969D02*
X6675D01*
X6427Y6573D02*
Y6969D01*
X3266Y12835D02*
Y13378D01*
X3543Y6161D02*
X3820D01*
X3543D02*
Y6419D01*
X2480Y14537D02*
X2876D01*
X2480D02*
Y14785D01*
X2244Y8661D02*
X2679D01*
X1809D02*
X2244D01*
Y7087D02*
X2679D01*
X2244Y6396D02*
Y7087D01*
X1809D02*
X2244D01*
X3543Y5904D02*
Y6161D01*
X3809Y4488D02*
Y4883D01*
X3561Y4488D02*
X3809D01*
X4057D01*
X3898Y886D02*
X4175D01*
X3898D02*
Y1143D01*
X3620Y886D02*
X3898D01*
X1211Y1772D02*
X1458D01*
X963D02*
X1211D01*
Y1376D02*
Y1772D01*
X15017Y2067D02*
X15551Y2601D01*
X14071Y2067D02*
X15017D01*
X13504Y1500D02*
X14071Y2067D01*
X15551Y2601D02*
Y5000D01*
X15197D02*
X15551D01*
X14931Y5591D02*
X15551D01*
Y5000D02*
Y5591D01*
Y14252D01*
X15335Y14468D02*
X15551Y14252D01*
X14961Y8376D02*
X15354Y8770D01*
Y12244D01*
X15075Y12524D02*
X15354Y12244D01*
X14961Y8726D02*
Y9023D01*
X14624Y9523D02*
X14961D01*
X14331Y14468D02*
X14608D01*
X14054D02*
X14331D01*
Y14726D01*
X13691Y9833D02*
X14244D01*
X13138D02*
X13691D01*
X14803Y5522D02*
X15198D01*
X15197Y5000D02*
X15454D01*
X15197Y4723D02*
Y5000D01*
Y5277D01*
X14803Y5522D02*
Y5769D01*
X14724Y4252D02*
X14982D01*
X14724Y3975D02*
Y4252D01*
Y4529D01*
X10787Y14980D02*
X11065D01*
X10787D02*
Y15238D01*
X10089Y8833D02*
X10641D01*
X8504Y1378D02*
X8781D01*
X8504Y1120D02*
Y1378D01*
X8227D02*
X8504D01*
X10813Y8833D02*
X11417Y8228D01*
X9291Y8583D02*
Y9488D01*
Y8583D02*
X9541Y8333D01*
X10089D01*
X10974Y7333D02*
Y8081D01*
X10722Y8333D02*
X10974Y8081D01*
X10089Y8333D02*
X10722D01*
X12717Y13071D02*
X13780D01*
X12362Y13425D02*
X12717Y13071D01*
X12362Y13425D02*
Y14134D01*
X10551Y13071D02*
X11260D01*
X10456Y13166D02*
X10551Y13071D01*
X10456Y13166D02*
Y13796D01*
X13780Y13071D02*
X14229Y12621D01*
X14863D01*
X6427Y7992D02*
X7165D01*
X3465Y7165D02*
X3583Y7047D01*
Y6201D02*
Y7047D01*
X2441Y7165D02*
X3465D01*
X14724Y4291D02*
X15512D01*
X4508Y886D02*
X4606Y984D01*
X3898Y886D02*
X4508D01*
X1211Y1447D02*
Y1654D01*
X1067Y1303D02*
X1211Y1447D01*
X433Y472D02*
Y995D01*
X741Y1303D01*
X1067D01*
X14689Y9524D02*
X14961D01*
X14380Y9833D02*
X14689Y9524D01*
X13691Y9833D02*
X14380D01*
X10089Y8833D02*
X10813D01*
X11339Y8228D02*
X11417D01*
X11319Y8209D02*
X11339Y8228D01*
X10787Y15079D02*
Y15315D01*
X15315Y14488D02*
Y15236D01*
X14331Y14468D02*
X15335D01*
X8898Y14291D02*
Y14646D01*
Y14291D02*
X9252Y13937D01*
X11654Y13465D02*
X12362D01*
X11260Y13071D02*
X11654Y13465D01*
X8504Y1378D02*
X8819D01*
X13504Y433D02*
Y1500D01*
X8819Y1378D02*
X9803Y394D01*
X15197D01*
X14961Y8022D02*
Y8376D01*
X9252Y13937D02*
X10315D01*
X10456Y13796D01*
X9567Y13425D02*
X10236Y12756D01*
X10787Y15315D02*
X10984Y15512D01*
X15039D01*
X15315Y15236D01*
X14961Y12524D02*
X15075D01*
X9055Y9724D02*
X9291Y9488D01*
X9055Y9685D02*
Y9724D01*
D31*
X2940Y14186D02*
Y14491D01*
X2894Y14537D02*
X2940Y14491D01*
X2480Y14537D02*
X2894D01*
X2940Y14186D02*
X3266Y13860D01*
Y13378D02*
Y13860D01*
Y12835D02*
Y13378D01*
X2441Y14537D02*
X2480D01*
X4331Y14196D02*
X4511D01*
X3673D02*
X4331D01*
X4360Y13809D02*
Y14166D01*
X4614Y13467D02*
X4848Y13701D01*
X3355Y13467D02*
X4614D01*
X3266Y13378D02*
X3355Y13467D01*
X4921Y13730D02*
Y14016D01*
X12756Y9961D02*
X12992D01*
X13120Y9833D01*
X13691D01*
X14961Y9023D02*
Y9523D01*
X1890Y7087D02*
X2244D01*
X1024Y6220D02*
X1890Y7087D01*
X6427Y7992D02*
Y8365D01*
Y6969D02*
Y7992D01*
X3543Y6161D02*
X3583Y6201D01*
X6427Y8365D02*
X7087Y9024D01*
X7087Y9024D01*
Y9524D01*
X3809Y4488D02*
X3819Y4498D01*
X6654Y13425D02*
Y13465D01*
X6498Y13620D02*
X6654Y13465D01*
X6498Y13620D02*
Y14291D01*
X5709Y14409D02*
X6496D01*
X5276Y14370D02*
X5709D01*
X4921Y14016D02*
X5276Y14370D01*
X3571Y14094D02*
X3673Y14196D01*
X3571Y14094D02*
X3661D01*
X4766Y14451D02*
Y14567D01*
X4511Y14196D02*
X4766Y14451D01*
X4764Y15197D02*
X5709D01*
X14863Y12621D02*
X14961Y12524D01*
D32*
X12972Y11083D02*
X14888D01*
X12362Y11693D02*
X12972Y11083D01*
X11614Y11693D02*
X12362D01*
X12601Y11181D02*
X12949Y10833D01*
X11811Y11181D02*
X12601D01*
X13465Y5000D02*
X14370D01*
X14646D01*
X14370D02*
X14370Y5000D01*
Y7087D01*
X14537Y7254D01*
X15157Y13228D02*
Y14055D01*
X13680Y10322D02*
X13691Y10333D01*
X12408Y10322D02*
X13680D01*
X12465Y9583D02*
X14236D01*
X14470Y9349D01*
X12283Y9764D02*
X12465Y9583D01*
X12283Y9764D02*
Y10197D01*
X12408Y10322D01*
X12205Y10630D02*
X12717D01*
X12047Y10472D02*
X12205Y10630D01*
X12047Y9446D02*
Y10472D01*
X14888Y11096D02*
X14961Y11024D01*
X12949Y10833D02*
X13691D01*
X12920Y8865D02*
X13140Y9085D01*
X12628Y8865D02*
X12920D01*
X12047Y9446D02*
X12628Y8865D01*
X11850Y9420D02*
X12609Y8661D01*
X11693Y9355D02*
X12715Y8333D01*
X11850Y9420D02*
Y9724D01*
X12609Y8661D02*
X12992D01*
X11693Y9355D02*
Y9606D01*
X12715Y8333D02*
X13425D01*
X14470Y7777D02*
Y9349D01*
X12165Y6890D02*
X12858Y7583D01*
X14280Y7587D02*
X14470Y7777D01*
X12858Y7583D02*
X14280D01*
X11496Y10866D02*
X11811Y11181D01*
X11496Y10827D02*
Y10866D01*
X13116Y11333D02*
X13691D01*
X13071Y11378D02*
X13116Y11333D01*
X13071Y11378D02*
Y12008D01*
X11188Y10387D02*
X11850Y9724D01*
X11031Y10269D02*
X11693Y9606D01*
X8780Y8228D02*
X8898Y8346D01*
X8944Y8170D02*
X9094Y8321D01*
X4070Y7253D02*
X4497D01*
X3943Y6613D02*
Y7126D01*
X4070Y7253D01*
X4497D02*
X5079Y7835D01*
Y8858D01*
X4281Y9656D02*
X5079Y8858D01*
X4766Y12598D02*
Y12835D01*
Y12598D02*
X6457D01*
X5197Y11024D02*
X6587D01*
X8944Y7472D02*
Y8170D01*
X8780Y7165D02*
Y8228D01*
X8583Y7126D02*
Y8543D01*
X8944Y7472D02*
X9583Y6833D01*
X8583Y7126D02*
X9370Y6339D01*
X8780Y7165D02*
X9612Y6333D01*
X8268Y7192D02*
X9193Y6267D01*
X2165Y14173D02*
X2559D01*
X2047Y14291D02*
X2165Y14173D01*
X2047Y14291D02*
Y14764D01*
X2598Y15512D02*
X6467D01*
X1614Y15226D02*
X2441D01*
X1535D02*
X1614D01*
X2480D02*
Y15394D01*
X6467Y15512D02*
X6624Y15354D01*
X2480Y15394D02*
X2598Y15512D01*
X4281Y9656D02*
Y10118D01*
X4370Y6654D02*
Y6955D01*
Y6654D02*
X4685Y6339D01*
Y3976D02*
Y6339D01*
X4370Y8242D02*
Y8737D01*
X4210Y8898D02*
X4370Y8737D01*
X3937Y8898D02*
X4210D01*
X3943Y6613D02*
X4331Y6225D01*
Y5787D02*
Y6225D01*
X906Y4724D02*
X3071D01*
X7382Y5689D02*
X7559Y5512D01*
Y1535D02*
Y5512D01*
X7205Y1181D02*
X7559Y1535D01*
X1575Y1969D02*
X2008Y1535D01*
Y591D02*
Y1535D01*
Y591D02*
X2106Y492D01*
X6142Y709D02*
Y2480D01*
X5925Y492D02*
X6142Y709D01*
X2106Y492D02*
X5925D01*
X3120Y4488D02*
Y4675D01*
X3071Y4724D02*
X3120Y4675D01*
X4370Y3661D02*
X4685Y3976D01*
X6417Y4764D02*
Y5315D01*
X6378Y4724D02*
X6417Y4764D01*
X2323Y11457D02*
X4764D01*
X7313Y13455D02*
Y15197D01*
X6457Y12598D02*
X7313Y13455D01*
X2756Y11929D02*
Y12283D01*
X2441Y12598D02*
X2756Y12283D01*
X1929Y12598D02*
X2441D01*
X3071Y12205D02*
X3622D01*
X4528Y1909D02*
X4744D01*
X3140D02*
X4528D01*
Y2480D01*
X6467Y3435D02*
Y3937D01*
X3809Y3169D02*
X6201D01*
X6467Y3435D01*
X6142Y2480D02*
X6811Y3150D01*
Y5919D01*
X3809Y3169D02*
Y3661D01*
Y2677D02*
Y3169D01*
X2244Y3661D02*
Y3937D01*
Y3661D02*
X2736Y3169D01*
X3809D01*
X6587Y11024D02*
X7087Y11524D01*
X4764Y11457D02*
X5197Y11024D01*
X12835Y5236D02*
Y6063D01*
X12323Y4724D02*
X12835Y5236D01*
X1181Y14754D02*
X1309Y14882D01*
X1181Y14204D02*
Y14754D01*
X787Y13810D02*
X1181Y14204D01*
X1929Y14882D02*
X2047Y14764D01*
X1309Y14882D02*
X1929D01*
X3622Y12205D02*
X3766Y12348D01*
X787Y12811D02*
X1535Y13559D01*
Y14537D01*
X3766Y12348D02*
Y12835D01*
X1654Y12323D02*
X1929Y12598D01*
X1654Y9685D02*
Y12323D01*
Y9685D02*
X1890Y9449D01*
X1575Y1969D02*
Y2480D01*
X4744Y1909D02*
X5222Y1431D01*
Y1102D02*
Y1431D01*
X6510Y1181D02*
X7205D01*
X7195Y2126D02*
Y3661D01*
X7156Y3701D02*
X7195Y3661D01*
X6506Y980D02*
Y1969D01*
X13701Y12283D02*
X13819Y12402D01*
X13346Y12283D02*
X13701D01*
X13071Y12008D02*
X13346Y12283D01*
X14537Y7254D02*
X14961D01*
X11188Y11899D02*
X11290Y12001D01*
X11188Y10387D02*
Y11899D01*
X11031Y10269D02*
Y12684D01*
X10669Y12126D02*
X10873Y11922D01*
Y9875D02*
Y11922D01*
X10636Y11333D02*
X10709Y11260D01*
Y10157D02*
Y11260D01*
X11031Y12684D02*
X11063Y12717D01*
X10873Y9875D02*
X10906Y9843D01*
X8937Y3346D02*
X11260D01*
X8858Y3268D02*
X8937Y3346D01*
X8858Y2629D02*
Y3268D01*
X11260Y3346D02*
X11496Y3110D01*
X11575D01*
X12165Y2953D02*
Y4843D01*
X11811Y2598D02*
X12165Y2953D01*
X10394Y2598D02*
X11811D01*
X9272Y1929D02*
X10098Y2756D01*
X8504Y1929D02*
X9272D01*
X12559Y3150D02*
X14173D01*
X12323Y3386D02*
X12559Y3150D01*
X12323Y3386D02*
Y4724D01*
X14173Y3150D02*
Y4291D01*
X8656Y2427D02*
X8858Y2629D01*
X3809Y3661D02*
X4370D01*
X10787Y13425D02*
Y14232D01*
X8569Y10218D02*
X8661Y10311D01*
X13465Y14409D02*
X13780Y14094D01*
X15118D01*
X14026Y13415D02*
X14331Y13720D01*
X13386Y13415D02*
X14026D01*
X3898Y1496D02*
Y1634D01*
X3307Y906D02*
X3898Y1496D01*
X2234Y906D02*
X3307D01*
X1417Y2638D02*
X1575Y2480D01*
X1211Y2638D02*
X1417D01*
X522D02*
Y3404D01*
Y1772D02*
Y2638D01*
X2746Y7874D02*
X3110Y7510D01*
Y5591D02*
Y6821D01*
Y5591D02*
X3287Y5413D01*
X3543D01*
X3120Y3661D02*
Y4488D01*
X906Y906D02*
X1545D01*
X3120Y1890D02*
X3140Y1909D01*
X3120Y1890D02*
Y2677D01*
X3110Y1260D02*
Y2667D01*
X3120Y2677D01*
X7205Y3750D02*
Y4941D01*
X7156Y3701D02*
X7205Y3750D01*
X9561Y10833D02*
X10089D01*
X8661Y11311D02*
X9657Y10315D01*
X9803D01*
X14211Y7833D02*
X14313Y7935D01*
X13691Y7833D02*
X14211D01*
X10000Y14646D02*
X10039Y14606D01*
X11575D01*
X9823Y4744D02*
X9921Y4843D01*
X9193Y4744D02*
X9823D01*
X8996D02*
Y5394D01*
X9370Y5768D01*
X9583Y6833D02*
X10089D01*
X9612Y6333D02*
X10089D01*
X9370Y5768D02*
Y6339D01*
X9193Y5965D02*
Y6267D01*
X8996Y5965D02*
Y6201D01*
X8257Y6467D02*
X8731D01*
X8996Y6201D01*
X8351Y2427D02*
X8656D01*
X12835Y7087D02*
X13081Y7333D01*
X13691D01*
X10089Y9333D02*
X10667D01*
X10774Y9226D01*
Y9214D02*
Y9226D01*
Y9214D02*
X11772Y8216D01*
Y7756D02*
Y8216D01*
X12835Y4646D02*
X13110D01*
X13465Y5000D01*
X12480Y6417D02*
X12520Y6378D01*
X11541Y5630D02*
X11614D01*
X11339Y5833D02*
X11541Y5630D01*
X10089Y5833D02*
X11339D01*
X11850Y4999D02*
X12205Y5353D01*
X12008Y4934D02*
X12362Y5288D01*
X12165Y4843D02*
X12520Y5197D01*
Y6378D01*
X10089Y11333D02*
X10636D01*
X10089Y9833D02*
X10443D01*
X12362Y5288D02*
Y5906D01*
X12205Y5353D02*
Y5840D01*
X12165Y6102D02*
X12362Y5906D01*
X12165Y6102D02*
Y6890D01*
X12008Y6037D02*
Y7244D01*
Y6037D02*
X12205Y5840D01*
X12008Y7244D02*
X12776Y8012D01*
X11575Y4094D02*
X12008Y4528D01*
Y4934D01*
X11510Y4252D02*
X11850Y4593D01*
Y4999D01*
X8836Y4252D02*
X11510D01*
X8771Y4094D02*
X11575D01*
X8425Y4440D02*
X8771Y4094D01*
X8602Y4486D02*
X8836Y4252D01*
X8602Y4486D02*
Y4744D01*
X8425Y4440D02*
Y5236D01*
X8602Y5413D01*
Y5965D01*
X13163Y8833D02*
X13691D01*
X12992Y8661D02*
X13163Y8833D01*
X8598Y12811D02*
X8661D01*
X14262Y9085D02*
X14313Y9034D01*
Y7935D02*
Y9034D01*
X3504Y10207D02*
X3593Y10118D01*
X3307Y11191D02*
X3504D01*
Y10207D02*
Y11191D01*
X3543Y10069D02*
X3593Y10118D01*
X13110Y12362D02*
Y12726D01*
X12749Y12001D02*
X13110Y12362D01*
X6417Y5315D02*
Y5945D01*
X7116Y6644D01*
Y6969D01*
X7205Y5689D02*
X7382D01*
X6811Y5919D02*
X7480Y6588D01*
X7087Y11524D02*
X7138D01*
X7480Y11181D01*
Y6588D02*
Y11181D01*
X9427Y11833D02*
X10089D01*
X11290Y12001D02*
X12749D01*
X8661Y13812D02*
X9180Y13293D01*
Y12786D02*
Y13293D01*
X13140Y9085D02*
X14262D01*
X10630Y10079D02*
X10709Y10157D01*
X10443Y9833D02*
X10558Y9718D01*
Y9715D02*
Y9718D01*
Y9715D02*
X12084Y8189D01*
X12244D01*
X9180Y12786D02*
X9840Y12126D01*
X10669D01*
X4266Y14882D02*
Y15512D01*
X4726Y12128D02*
Y12835D01*
X3376Y11811D02*
X4409D01*
X4726Y12128D01*
X3543Y8917D02*
Y10069D01*
X3150Y8524D02*
X3543Y8917D01*
X2756Y11929D02*
X2884Y11801D01*
X3307D01*
Y11772D02*
X3337D01*
X3376Y11811D01*
X1417Y8189D02*
X1732Y7874D01*
X2746D01*
X2913Y9272D02*
X3150D01*
X2736Y9449D02*
X2913Y9272D01*
X1890Y9449D02*
X2736D01*
X14370Y6220D02*
X14931D01*
X9528Y13425D02*
X9567D01*
X15118Y14094D02*
X15157Y14055D01*
X12126Y15157D02*
X14252D01*
X11575Y14606D02*
X12126Y15157D01*
X14252Y15118D02*
Y15157D01*
X2953Y12323D02*
X3071Y12205D01*
X2953Y12323D02*
Y13780D01*
X2559Y14173D02*
X2953Y13780D01*
X9016Y12244D02*
X9427Y11833D01*
X8661Y13311D02*
X8736D01*
X9016Y13032D01*
Y12244D02*
Y13032D01*
X8661Y12311D02*
X8713D01*
X9016Y11378D02*
X9561Y10833D01*
X9016Y11378D02*
Y12008D01*
X8713Y12311D02*
X9016Y12008D01*
X8661Y10811D02*
X8795D01*
X9528Y10079D01*
X10630D01*
X8268Y7192D02*
Y8819D01*
X8346Y8898D01*
X8386D01*
X8898Y8346D02*
Y9016D01*
X8547Y9367D02*
X8898Y9016D01*
X8311Y9367D02*
X8547D01*
X8268Y9409D02*
X8311Y9367D01*
X8268Y9409D02*
Y12480D01*
X8598Y12811D01*
X8583Y9606D02*
X9094Y9094D01*
X8583Y9606D02*
Y9803D01*
X9094Y8321D02*
Y9094D01*
X787Y11311D02*
X894D01*
X787Y11811D02*
X945D01*
X1417Y11339D01*
Y8189D02*
Y11339D01*
X614Y10811D02*
X787D01*
X197Y3728D02*
Y11720D01*
Y3728D02*
X522Y3404D01*
X197Y11720D02*
X787Y12311D01*
X1220Y10000D02*
Y10984D01*
X894Y11311D02*
X1220Y10984D01*
X591Y5039D02*
X906Y4724D01*
X591Y5039D02*
Y9370D01*
X1220Y10000D01*
X394Y4213D02*
X1220Y3386D01*
X394Y4213D02*
Y10591D01*
X614Y10811D01*
X9421Y7833D02*
X10089D01*
X9301Y7953D02*
X9421Y7833D01*
X8078Y2701D02*
Y6287D01*
Y2701D02*
X8351Y2427D01*
X8078Y6287D02*
X8257Y6467D01*
D34*
X7087Y9024D02*
D03*
X7087Y12024D02*
D03*
Y11524D02*
D03*
Y11024D02*
D03*
Y10524D02*
D03*
Y10024D02*
D03*
Y9524D02*
D03*
X787Y13810D02*
D03*
X787Y10811D02*
D03*
Y11311D02*
D03*
Y11811D02*
D03*
Y12311D02*
D03*
Y12811D02*
D03*
Y13311D02*
D03*
X14961Y9023D02*
D03*
Y9523D02*
D03*
X14961Y12024D02*
D03*
Y11524D02*
D03*
Y11024D02*
D03*
Y10524D02*
D03*
Y10024D02*
D03*
X8661Y13812D02*
D03*
Y13312D02*
D03*
X8661Y10811D02*
D03*
Y11311D02*
D03*
Y11811D02*
D03*
Y12311D02*
D03*
Y12811D02*
D03*
D35*
X7087Y12524D02*
D03*
X787Y10311D02*
D03*
X14961Y12524D02*
D03*
X8661Y10311D02*
D03*
D36*
X5630Y2362D02*
D03*
Y3937D02*
D03*
Y5512D02*
D03*
Y7087D02*
D03*
Y8661D02*
D03*
Y10236D02*
D03*
Y11811D02*
D03*
Y13386D02*
D03*
X2244Y2362D02*
D03*
Y3937D02*
D03*
Y7087D02*
D03*
Y5512D02*
D03*
Y8661D02*
D03*
Y10236D02*
D03*
Y11811D02*
D03*
Y13386D02*
D03*
D37*
X12667Y4144D02*
D03*
X13169Y4134D02*
D03*
X4911Y13839D02*
D03*
X4360Y13848D02*
D03*
X15157Y13228D02*
D03*
X12756Y9961D02*
D03*
X12717Y10630D02*
D03*
X12756Y9173D02*
D03*
X8583Y8543D02*
D03*
X6444Y9284D02*
D03*
X1024Y7441D02*
D03*
Y5630D02*
D03*
X7165Y7992D02*
D03*
X6378Y4724D02*
D03*
X4528Y2480D02*
D03*
X6654Y13425D02*
D03*
X3553Y14104D02*
D03*
X11496Y10827D02*
D03*
X1024Y6220D02*
D03*
X12283Y906D02*
D03*
X1024Y6870D02*
D03*
X1220Y3386D02*
D03*
X12717Y906D02*
D03*
X12283Y472D02*
D03*
X4508Y886D02*
D03*
X433Y472D02*
D03*
X906Y906D02*
D03*
X13819Y12283D02*
D03*
X15197Y394D02*
D03*
X9803Y4843D02*
D03*
X11575Y3110D02*
D03*
X12835Y6063D02*
D03*
Y7087D02*
D03*
X11772Y7756D02*
D03*
X12244Y8189D02*
D03*
X11319Y8209D02*
D03*
X15315Y15236D02*
D03*
X12480Y6417D02*
D03*
X11614Y6614D02*
D03*
X12835Y4646D02*
D03*
X11614Y5630D02*
D03*
X12795Y7992D02*
D03*
X10906Y9843D02*
D03*
X11496Y11693D02*
D03*
X9528Y13425D02*
D03*
X10236Y12756D02*
D03*
X14252Y15118D02*
D03*
X8386Y9016D02*
D03*
X8583Y9803D02*
D03*
X9045Y9724D02*
D03*
X9291Y7953D02*
D03*
X8386Y3228D02*
D03*
D38*
X5709Y14370D02*
D03*
Y15157D02*
D03*
D39*
X10089Y6333D02*
D03*
Y6833D02*
D03*
Y5333D02*
D03*
Y5833D02*
D03*
Y8333D02*
D03*
Y7333D02*
D03*
Y7833D02*
D03*
Y9833D02*
D03*
Y8833D02*
D03*
Y9333D02*
D03*
Y11333D02*
D03*
Y10333D02*
D03*
Y10833D02*
D03*
Y11833D02*
D03*
X13691Y7833D02*
D03*
Y6333D02*
D03*
Y5333D02*
D03*
Y5833D02*
D03*
Y6833D02*
D03*
Y7333D02*
D03*
Y8333D02*
D03*
Y8833D02*
D03*
Y9333D02*
D03*
Y9833D02*
D03*
Y10333D02*
D03*
Y11833D02*
D03*
Y10833D02*
D03*
Y11333D02*
D03*
D40*
X12362Y14291D02*
D03*
X13465D02*
D03*
X8898Y14764D02*
D03*
X10000D02*
D03*
D41*
X5222Y1102D02*
D03*
X6510D02*
D03*
D42*
X4370Y6876D02*
D03*
Y8163D02*
D03*
D43*
X8602Y5965D02*
D03*
X8996Y4744D02*
D03*
X8602D02*
D03*
X8799D02*
D03*
X9193D02*
D03*
X8799Y5965D02*
D03*
X8996D02*
D03*
X9193D02*
D03*
D44*
X10098Y2756D02*
D03*
X13839D02*
D03*
M02*
