%FSLAX24Y24*%
%MOIN*%
G70*
G01*
G75*
G04 Layer_Color=8388736*
%ADD10C,0.0098*%
%ADD11R,0.0299X0.0945*%
%ADD12R,0.0315X0.0354*%
%ADD13R,0.0354X0.0315*%
%ADD14R,0.0276X0.0394*%
%ADD15R,0.0236X0.0886*%
%ADD16R,0.0591X0.0295*%
%ADD17R,0.0295X0.0591*%
%ADD18R,0.0354X0.0315*%
%ADD19R,0.0492X0.0433*%
%ADD20R,0.0906X0.0906*%
%ADD21R,0.0197X0.0236*%
%ADD22R,0.0236X0.0197*%
%ADD23R,0.0394X0.0276*%
%ADD24R,0.0315X0.0630*%
%ADD25R,0.0846X0.0335*%
%ADD26C,0.0335*%
%ADD27R,0.0335X0.0846*%
%ADD28R,0.0886X0.0236*%
%ADD29C,0.0276*%
%ADD30C,0.0118*%
%ADD31C,0.0138*%
%ADD32C,0.0079*%
%ADD33C,0.0197*%
%ADD34O,0.0472X0.0394*%
%ADD35R,0.0472X0.0394*%
%ADD36O,0.0669X0.1181*%
%ADD37C,0.0380*%
%ADD38R,0.0630X0.0315*%
%ADD39R,0.0906X0.0236*%
%ADD40R,0.0630X0.1063*%
%ADD41R,0.0358X0.0480*%
%ADD42R,0.0480X0.0358*%
%ADD43R,0.0118X0.0295*%
%ADD44R,0.2165X0.0827*%
%ADD45C,0.0100*%
%ADD46C,0.0236*%
%ADD47C,0.0394*%
%ADD48C,0.0039*%
%ADD49C,0.0061*%
%ADD50R,0.0246X0.0433*%
%ADD51R,0.0433X0.0246*%
%ADD52R,0.0379X0.1025*%
%ADD53R,0.0395X0.0434*%
%ADD54R,0.0434X0.0395*%
%ADD55R,0.0356X0.0474*%
%ADD56R,0.0316X0.0966*%
%ADD57R,0.0671X0.0375*%
%ADD58R,0.0375X0.0671*%
%ADD59R,0.0434X0.0395*%
%ADD60R,0.0572X0.0513*%
%ADD61R,0.0986X0.0986*%
%ADD62R,0.0277X0.0316*%
%ADD63R,0.0316X0.0277*%
%ADD64R,0.0474X0.0356*%
%ADD65R,0.0395X0.0710*%
%ADD66R,0.0926X0.0415*%
%ADD67C,0.0415*%
%ADD68R,0.0415X0.0926*%
%ADD69R,0.0966X0.0316*%
%ADD70C,0.0827*%
%ADD71O,0.0552X0.0474*%
%ADD72R,0.0552X0.0474*%
%ADD73O,0.0749X0.1261*%
D50*
X9247Y14646D02*
D03*
D51*
X9242Y8853D02*
D03*
D52*
X12311Y14193D02*
D03*
Y12657D02*
D03*
X12811Y14193D02*
D03*
Y12657D02*
D03*
X11811Y14193D02*
D03*
Y12657D02*
D03*
X11311Y14193D02*
D03*
Y12657D02*
D03*
X10811Y14193D02*
D03*
Y12657D02*
D03*
D53*
X9055Y14646D02*
D03*
X9449D02*
D03*
X9882Y8425D02*
D03*
X10433D02*
D03*
X13543Y8189D02*
D03*
X14094D02*
D03*
D54*
X9242Y8455D02*
D03*
Y8848D02*
D03*
X9242Y9242D02*
D03*
X14921Y984D02*
D03*
Y1535D02*
D03*
X14921Y4606D02*
D03*
Y5157D02*
D03*
D55*
X3878Y7874D02*
D03*
X4390D02*
D03*
X3689Y3819D02*
D03*
X4201D02*
D03*
D56*
X3187Y14843D02*
D03*
Y12795D02*
D03*
X3687D02*
D03*
X4187D02*
D03*
X4687D02*
D03*
X3687Y14843D02*
D03*
X4187D02*
D03*
X4687D02*
D03*
X3148Y6811D02*
D03*
Y4764D02*
D03*
X3648D02*
D03*
X4148D02*
D03*
X4648D02*
D03*
X3648Y6811D02*
D03*
X4148D02*
D03*
X4648D02*
D03*
D57*
X10551Y10404D02*
D03*
Y11093D02*
D03*
X13819Y10915D02*
D03*
Y11604D02*
D03*
X14803Y7451D02*
D03*
Y8140D02*
D03*
X6772Y6742D02*
D03*
Y7431D02*
D03*
D58*
X14734Y14016D02*
D03*
X15423D02*
D03*
D59*
X6417Y3701D02*
D03*
X7205Y3327D02*
D03*
Y4075D02*
D03*
D60*
X12077Y11319D02*
D03*
X13002D02*
D03*
D61*
X3386Y9469D02*
D03*
Y11171D02*
D03*
D62*
X14843Y6614D02*
D03*
Y6220D02*
D03*
D63*
Y14685D02*
D03*
X15236D02*
D03*
D64*
X4685Y11516D02*
D03*
Y12028D02*
D03*
D65*
X1496Y15001D02*
D03*
X2283D02*
D03*
D66*
X9262Y2579D02*
D03*
Y3071D02*
D03*
Y5531D02*
D03*
Y6024D02*
D03*
Y6516D02*
D03*
X14006Y1102D02*
D03*
Y610D02*
D03*
Y1594D02*
D03*
Y4547D02*
D03*
Y2087D02*
D03*
Y2579D02*
D03*
Y5039D02*
D03*
D67*
X9685Y3071D02*
D03*
Y2579D02*
D03*
Y5531D02*
D03*
Y6024D02*
D03*
Y6516D02*
D03*
X9911Y6959D02*
D03*
X13583Y610D02*
D03*
Y1102D02*
D03*
Y1594D02*
D03*
Y2087D02*
D03*
Y2579D02*
D03*
Y4547D02*
D03*
X10404Y6959D02*
D03*
X13583Y5039D02*
D03*
D68*
X9911Y7382D02*
D03*
X10404D02*
D03*
D69*
X11929Y8778D02*
D03*
Y9278D02*
D03*
Y9778D02*
D03*
Y10278D02*
D03*
X13976Y8778D02*
D03*
Y9778D02*
D03*
Y9278D02*
D03*
Y10278D02*
D03*
D70*
X8465Y669D02*
D03*
X13150Y15315D02*
D03*
X6929Y787D02*
D03*
X591Y15039D02*
D03*
D71*
X7087Y9024D02*
D03*
X7087Y12024D02*
D03*
Y11524D02*
D03*
Y11024D02*
D03*
Y10524D02*
D03*
Y10024D02*
D03*
Y9524D02*
D03*
X787Y13810D02*
D03*
X787Y10811D02*
D03*
Y11311D02*
D03*
Y11811D02*
D03*
Y12311D02*
D03*
Y12811D02*
D03*
Y13311D02*
D03*
X14961Y9023D02*
D03*
Y9523D02*
D03*
X14961Y12024D02*
D03*
Y11524D02*
D03*
Y11024D02*
D03*
Y10524D02*
D03*
Y10024D02*
D03*
X8661Y13812D02*
D03*
Y13312D02*
D03*
X8661Y10811D02*
D03*
Y11311D02*
D03*
Y11811D02*
D03*
Y12311D02*
D03*
Y12811D02*
D03*
D72*
X7087Y12524D02*
D03*
X787Y10311D02*
D03*
X14961Y12524D02*
D03*
X8661Y10311D02*
D03*
D73*
X5630Y2362D02*
D03*
Y3937D02*
D03*
Y5512D02*
D03*
Y7087D02*
D03*
Y8661D02*
D03*
Y10236D02*
D03*
Y11811D02*
D03*
Y13386D02*
D03*
X2244Y2362D02*
D03*
Y3937D02*
D03*
Y7087D02*
D03*
Y5512D02*
D03*
Y8661D02*
D03*
Y10236D02*
D03*
Y11811D02*
D03*
Y13386D02*
D03*
M02*
