%FSLAX24Y24*%
%MOIN*%
G70*
G01*
G75*
G04 Layer_Physical_Order=2*
G04 Layer_Color=48896*
%ADD10C,0.0098*%
%ADD11R,0.0299X0.0945*%
%ADD12R,0.0315X0.0354*%
%ADD13R,0.0354X0.0315*%
%ADD14R,0.0276X0.0394*%
%ADD15R,0.0236X0.0886*%
%ADD16R,0.0591X0.0295*%
%ADD17R,0.0295X0.0591*%
%ADD18R,0.0354X0.0315*%
%ADD19R,0.0492X0.0433*%
%ADD20R,0.0906X0.0906*%
%ADD21R,0.0197X0.0236*%
%ADD22R,0.0236X0.0197*%
%ADD23R,0.0394X0.0276*%
%ADD24R,0.0315X0.0630*%
%ADD25R,0.0846X0.0335*%
%ADD26C,0.0335*%
%ADD27R,0.0335X0.0846*%
%ADD28R,0.0886X0.0236*%
%ADD29C,0.0276*%
%ADD30C,0.0118*%
%ADD31C,0.0138*%
%ADD32C,0.0079*%
%ADD33C,0.0197*%
%ADD34O,0.0472X0.0394*%
%ADD35R,0.0472X0.0394*%
%ADD36O,0.0669X0.1181*%
%ADD37C,0.0380*%
%ADD38R,0.0630X0.0315*%
%ADD39R,0.0906X0.0236*%
%ADD40R,0.0630X0.1063*%
%ADD41R,0.0358X0.0480*%
%ADD42R,0.0480X0.0358*%
%ADD43R,0.0118X0.0295*%
%ADD44R,0.2165X0.0827*%
D10*
X9272Y1722D02*
G03*
X9418Y1783I0J207D01*
G01*
X9272Y1722D02*
G03*
X9418Y1783I0J207D01*
G01*
X8205Y2281D02*
G03*
X8239Y2254I146J146D01*
G01*
X8205Y2281D02*
G03*
X8239Y2254I146J146D01*
G01*
X8712Y3414D02*
G03*
X8652Y3268I146J-146D01*
G01*
X8712Y3414D02*
G03*
X8652Y3268I146J-146D01*
G01*
X8937Y3553D02*
G03*
X8791Y3493I0J-207D01*
G01*
X8937Y3553D02*
G03*
X8791Y3493I0J-207D01*
G01*
X11811Y2392D02*
G03*
X11957Y2452I0J207D01*
G01*
X11811Y2392D02*
G03*
X11957Y2452I0J207D01*
G01*
X11406Y3493D02*
G03*
X11260Y3553I-146J-146D01*
G01*
X11932Y3110D02*
G03*
X11453Y3446I-357J0D01*
G01*
X11406Y3493D02*
G03*
X11260Y3553I-146J-146D01*
G01*
X12321Y2816D02*
G03*
X12382Y2963I-146J146D01*
G01*
X12321Y2817D02*
G03*
X12382Y2963I-146J146D01*
G01*
X12413Y3003D02*
G03*
X12559Y2943I146J146D01*
G01*
X11912Y2991D02*
G03*
X11932Y3110I-337J119D01*
G01*
X12413Y3003D02*
G03*
X12559Y2943I146J146D01*
G01*
X8121Y12626D02*
G03*
X8071Y12543I146J-146D01*
G01*
X8122Y12626D02*
G03*
X8071Y12543I146J-146D01*
G01*
X8624Y3889D02*
G03*
X8770Y3829I146J146D01*
G01*
X8624Y3889D02*
G03*
X8770Y3829I146J146D01*
G01*
X8357Y13562D02*
G03*
X8358Y13061I265J-250D01*
G01*
D02*
G03*
X8261Y12766I265J-250D01*
G01*
X8415Y14112D02*
G03*
X8357Y13562I207J-300D01*
G01*
X11201Y8081D02*
G03*
X11134Y8241I-226J0D01*
G01*
X11201Y8081D02*
G03*
X11134Y8241I-226J0D01*
G01*
X10883Y8493D02*
G03*
X10722Y8559I-160J-160D01*
G01*
X10883Y8492D02*
G03*
X10722Y8559I-160J-160D01*
G01*
X11545Y3829D02*
G03*
X11691Y3889I0J207D01*
G01*
X11545Y3829D02*
G03*
X11691Y3889I0J207D01*
G01*
X11732Y6951D02*
G03*
X11643Y6970I-118J-337D01*
G01*
X11793Y7321D02*
G03*
X11732Y7175I146J-146D01*
G01*
X11793Y7321D02*
G03*
X11732Y7175I146J-146D01*
G01*
X12539Y4445D02*
G03*
X13127Y4440I295J201D01*
G01*
X11555Y8040D02*
G03*
X11890Y7419I217J-284D01*
G01*
X12126Y15374D02*
G03*
X11973Y15311I0J-217D01*
G01*
X12126Y15374D02*
G03*
X11973Y15310I0J-217D01*
G01*
X13127Y4440D02*
G03*
X13256Y4499I-16J206D01*
G01*
X13127Y4440D02*
G03*
X13256Y4500I-16J206D01*
G01*
X15551Y1787D02*
G03*
X15551Y811I-472J-488D01*
G01*
X14311Y7378D02*
G03*
X14448Y7462I-32J204D01*
G01*
X14382Y9729D02*
G03*
X14293Y9781I-146J-146D01*
G01*
X14382Y9729D02*
G03*
X14293Y9781I-146J-146D01*
G01*
X14498Y7457D02*
G03*
X14391Y7400I39J-203D01*
G01*
X14498Y7457D02*
G03*
X14391Y7400I39J-203D01*
G01*
X14670Y9760D02*
G03*
X14575Y9536I252J-237D01*
G01*
X14656Y10274D02*
G03*
X14670Y9760I265J-250D01*
G01*
X14656Y10774D02*
G03*
X14656Y10274I265J-250D01*
G01*
X14801Y8536D02*
G03*
X14734Y8376I160J-160D01*
G01*
X14801Y8536D02*
G03*
X14734Y8376I160J-160D01*
G01*
X13947Y14932D02*
G03*
X14152Y14775I305J186D01*
G01*
X14593Y10866D02*
G03*
X14656Y10774I328J157D01*
G01*
X14352Y14775D02*
G03*
X14609Y15118I-100J343D01*
G01*
D02*
G03*
X14003Y15374I-357J0D01*
G01*
X14695Y8761D02*
G03*
X14921Y8677I226J262D01*
G01*
X15514Y8610D02*
G03*
X15551Y8658I-160J160D01*
G01*
X15514Y8609D02*
G03*
X15551Y8658I-160J160D01*
G01*
Y12356D02*
G03*
X15514Y12404I-197J-112D01*
G01*
X15551Y12356D02*
G03*
X15514Y12405I-197J-112D01*
G01*
X15266Y12888D02*
G03*
X15515Y13228I-108J341D01*
G01*
D02*
G03*
X15374Y13513I-357J0D01*
G01*
X1197Y1112D02*
G03*
X1197Y699I-291J-207D01*
G01*
X1793Y561D02*
G03*
X1855Y437I215J30D01*
G01*
X1793Y561D02*
G03*
X1855Y437I215J30D01*
G01*
X738Y3404D02*
G03*
X675Y3557I-217J0D01*
G01*
X738Y3404D02*
G03*
X674Y3557I-217J0D01*
G01*
X866Y3434D02*
G03*
X1006Y3100I354J-48D01*
G01*
X1742Y5256D02*
G03*
X1853Y4941I502J0D01*
G01*
X1953Y339D02*
G03*
X2106Y276I153J153D01*
G01*
X1953Y339D02*
G03*
X2106Y276I153J153D01*
G01*
X3397Y709D02*
G03*
X3460Y752I-90J197D01*
G01*
X3397Y709D02*
G03*
X3461Y753I-90J197D01*
G01*
X2635Y4941D02*
G03*
X2746Y5256I-391J315D01*
G01*
X3134Y5261D02*
G03*
X3199Y5216I153J153D01*
G01*
X3134Y5260D02*
G03*
X3199Y5216I153J153D01*
G01*
X2746Y5768D02*
G03*
X1742Y5768I-502J0D01*
G01*
X2894Y5591D02*
G03*
X2957Y5437I217J0D01*
G01*
X2894Y5591D02*
G03*
X2957Y5437I217J0D01*
G01*
X1579Y7721D02*
G03*
X1732Y7657I153J153D01*
G01*
X1201Y8189D02*
G03*
X1264Y8036I217J0D01*
G01*
X1201Y8189D02*
G03*
X1265Y8036I217J0D01*
G01*
X1579Y7721D02*
G03*
X1732Y7657I153J153D01*
G01*
X1760Y6831D02*
G03*
X2648Y6564I484J0D01*
G01*
X1877Y7657D02*
G03*
X1760Y7343I367J-315D01*
G01*
Y8406D02*
G03*
X1877Y8091I484J0D01*
G01*
X2611D02*
G03*
X2728Y8406I-367J315D01*
G01*
X2899Y8027D02*
G03*
X2746Y8091I-153J-153D01*
G01*
X2900Y8027D02*
G03*
X2746Y8091I-153J-153D01*
G01*
X1877Y9233D02*
G03*
X1760Y8917I367J-315D01*
G01*
X1736Y9296D02*
G03*
X1877Y9233I153J153D01*
G01*
X1737Y9296D02*
G03*
X1877Y9233I153J153D01*
G01*
X2252Y14834D02*
G03*
X2206Y14911I-205J-70D01*
G01*
X2252Y14834D02*
G03*
X2206Y14911I-205J-70D01*
G01*
X2728Y8917D02*
G03*
X2611Y9232I-484J0D01*
G01*
X2760Y9119D02*
G03*
X2805Y9084I153J153D01*
G01*
X2760Y9119D02*
G03*
X2805Y9084I153J153D01*
G01*
X3726Y6613D02*
G03*
X3782Y6468I217J0D01*
G01*
X3726Y6613D02*
G03*
X3782Y6468I217J0D01*
G01*
X3790Y7279D02*
G03*
X3726Y7126I153J-153D01*
G01*
X3790Y7279D02*
G03*
X3726Y7126I153J-153D01*
G01*
X4070Y7469D02*
G03*
X3916Y7405I0J-217D01*
G01*
X4070Y7469D02*
G03*
X3916Y7406I0J-217D01*
G01*
X3169Y13780D02*
G03*
X3106Y13933I-217J0D01*
G01*
X3169Y13780D02*
G03*
X3106Y13933I-217J0D01*
G01*
X3237Y14272D02*
G03*
X3880Y13960I316J-167D01*
G01*
X4370Y3445D02*
G03*
X4523Y3508I0J217D01*
G01*
X4370Y3445D02*
G03*
X4524Y3509I0J217D01*
G01*
X4838Y3823D02*
G03*
X4902Y3976I-153J153D01*
G01*
X4838Y3823D02*
G03*
X4902Y3976I-153J153D01*
G01*
Y6339D02*
G03*
X4838Y6492I-217J0D01*
G01*
X4902Y6339D02*
G03*
X4838Y6492I-217J0D01*
G01*
X5128Y3681D02*
G03*
X5224Y3386I502J0D01*
G01*
X5925Y276D02*
G03*
X6078Y339I0J217D01*
G01*
X5925Y276D02*
G03*
X6079Y339I0J217D01*
G01*
X6132Y4193D02*
G03*
X5128Y4193I-502J0D01*
G01*
X6036Y3386D02*
G03*
X6132Y3681I-406J295D01*
G01*
X5128Y5256D02*
G03*
X6073Y5020I502J0D01*
G01*
X6295Y555D02*
G03*
X6358Y695I-153J153D01*
G01*
X6295Y556D02*
G03*
X6358Y695I-153J153D01*
G01*
X6620D02*
G03*
X6704Y197I664J-144D01*
G01*
X6483Y4400D02*
G03*
X6594Y4433I-46J354D01*
G01*
X6169Y4990D02*
G03*
X6391Y4400I268J-236D01*
G01*
X6132Y5768D02*
G03*
X5128Y5768I-502J0D01*
G01*
Y6831D02*
G03*
X6130Y6791I502J0D01*
G01*
Y7382D02*
G03*
X5128Y7343I-500J-40D01*
G01*
X6132D02*
G03*
X6130Y7382I-502J0D01*
G01*
X6264Y6098D02*
G03*
X6201Y5945I153J-153D01*
G01*
X6265Y6098D02*
G03*
X6201Y5945I153J-153D01*
G01*
X4587Y8737D02*
G03*
X4523Y8890I-217J0D01*
G01*
X4587Y8737D02*
G03*
X4523Y8891I-217J0D01*
G01*
X4363Y9051D02*
G03*
X4281Y9102I-153J-153D01*
G01*
X4363Y9050D02*
G03*
X4281Y9102I-153J-153D01*
G01*
X4065Y9656D02*
G03*
X4129Y9502I217J0D01*
G01*
X4065Y9656D02*
G03*
X4128Y9502I217J0D01*
G01*
X5232Y7682D02*
G03*
X5295Y7835I-153J153D01*
G01*
X5232Y7681D02*
G03*
X5295Y7835I-153J153D01*
G01*
X5239Y10807D02*
G03*
X5128Y10492I391J-315D01*
G01*
X4021Y13960D02*
G03*
X4718Y13848I340J-111D01*
G01*
D02*
G03*
X4672Y14023I-357J0D01*
G01*
X5043Y10871D02*
G03*
X5197Y10807I153J153D01*
G01*
X5044Y10871D02*
G03*
X5197Y10807I153J153D01*
G01*
X5128Y13130D02*
G03*
X5239Y12815I502J0D01*
G01*
X5358Y14063D02*
G03*
X5128Y13642I272J-422D01*
G01*
X5295Y8031D02*
G03*
X6132Y8406I335J374D01*
G01*
Y8917D02*
G03*
X5157Y9086I-502J0D01*
G01*
X5128Y9980D02*
G03*
X6132Y9980I502J0D01*
G01*
X6021Y12815D02*
G03*
X6132Y13130I-391J315D01*
G01*
Y10492D02*
G03*
X6021Y10807I-502J0D01*
G01*
X7126Y8678D02*
G03*
X7264Y8707I0J346D01*
G01*
X6808Y9274D02*
G03*
X7047Y8678I240J-250D01*
G01*
X6782Y10274D02*
G03*
X6795Y9761I265J-250D01*
G01*
D02*
G03*
X6808Y9274I252J-237D01*
G01*
X6587Y10807D02*
G03*
X6724Y10856I0J217D01*
G01*
X6782Y10774D02*
G03*
X6782Y10274I265J-250D01*
G01*
X6587Y10807D02*
G03*
X6724Y10856I0J217D01*
G01*
D02*
G03*
X6782Y10774I323J167D01*
G01*
X6132Y13642D02*
G03*
X5902Y14063I-502J0D01*
G01*
X3937Y5039D02*
Y6122D01*
X3898Y6161D02*
X3937Y6122D01*
X3543Y6161D02*
X3898D01*
X15157Y13228D02*
Y14055D01*
X14888Y11096D02*
X14961Y11024D01*
X12756Y9173D02*
X12913Y9331D01*
X13689D01*
X13691Y9333D01*
X13116Y11333D02*
X13691D01*
X13071Y11378D02*
X13116Y11333D01*
X13071Y11378D02*
Y12008D01*
X4070Y7253D02*
X4497D01*
X3943Y6613D02*
Y7126D01*
X4070Y7253D01*
X4497D02*
X5079Y7835D01*
Y8858D01*
X4281Y9656D02*
X5079Y8858D01*
X4766Y12598D02*
Y12835D01*
Y12598D02*
X6457D01*
X5197Y11024D02*
X6587D01*
X10974Y7333D02*
X11693Y6614D01*
X2165Y14173D02*
X2559D01*
X2047Y14291D02*
X2165Y14173D01*
X2047Y14291D02*
Y14764D01*
X2598Y15512D02*
X6467D01*
X1614Y15226D02*
X2441D01*
X1535D02*
X1614D01*
X2480D02*
Y15394D01*
X6467Y15512D02*
X6624Y15354D01*
X2480Y15394D02*
X2598Y15512D01*
X4281Y9656D02*
Y10118D01*
X4370Y6654D02*
Y6955D01*
Y6654D02*
X4685Y6339D01*
Y3976D02*
Y6339D01*
X4370Y8242D02*
Y8737D01*
X4210Y8898D02*
X4370Y8737D01*
X3937Y8898D02*
X4210D01*
X3943Y6613D02*
X4331Y6225D01*
Y5787D02*
Y6225D01*
X906Y4724D02*
X3071D01*
X7382Y5689D02*
X7559Y5512D01*
Y1535D02*
Y5512D01*
X1575Y1969D02*
X2008Y1535D01*
Y591D02*
Y1535D01*
Y591D02*
X2106Y492D01*
X6142Y709D02*
Y2480D01*
X5925Y492D02*
X6142Y709D01*
X2106Y492D02*
X5925D01*
X3120Y4488D02*
Y4675D01*
X3071Y4724D02*
X3120Y4675D01*
X4370Y3661D02*
X4685Y3976D01*
X3819Y4498D02*
Y4921D01*
X3937Y5039D01*
X6417Y4764D02*
Y5315D01*
X2323Y11457D02*
X4764D01*
X7313Y13455D02*
Y15197D01*
X6457Y12598D02*
X7313Y13455D01*
X2756Y11929D02*
Y12283D01*
X2441Y12598D02*
X2756Y12283D01*
X1929Y12598D02*
X2441D01*
X3071Y12205D02*
X3622D01*
X6467Y3435D02*
Y3937D01*
X3809Y3169D02*
X6201D01*
X6467Y3435D01*
X6142Y2480D02*
X6811Y3150D01*
Y5919D01*
X3809Y3169D02*
Y3661D01*
Y2677D02*
Y3169D01*
X2244Y3661D02*
Y3937D01*
Y3661D02*
X2736Y3169D01*
X3809D01*
X6587Y11024D02*
X7087Y11524D01*
X4764Y11457D02*
X5197Y11024D01*
X1181Y14754D02*
X1309Y14882D01*
X1181Y14204D02*
Y14754D01*
X787Y13810D02*
X1181Y14204D01*
X1929Y14882D02*
X2047Y14764D01*
X1309Y14882D02*
X1929D01*
X3622Y12205D02*
X3766Y12348D01*
X787Y12811D02*
X1535Y13559D01*
Y14537D01*
X3766Y12348D02*
Y12835D01*
X1654Y12323D02*
X1929Y12598D01*
X1654Y9685D02*
Y12323D01*
Y9685D02*
X1890Y9449D01*
X1575Y1969D02*
Y2480D01*
X5222Y1102D02*
Y1431D01*
X7195Y2126D02*
Y3661D01*
X6506Y980D02*
Y1969D01*
X13701Y12283D02*
X13819Y12402D01*
X13346Y12283D02*
X13701D01*
X13071Y12008D02*
X13346Y12283D01*
X3809Y3661D02*
X4370D01*
X10787Y13425D02*
Y14232D01*
X13465Y14409D02*
X13780Y14094D01*
X15118D01*
X14026Y13415D02*
X14331Y13720D01*
X13386Y13415D02*
X14026D01*
X3307Y906D02*
X3898Y1496D01*
X2234Y906D02*
X3307D01*
X1417Y2638D02*
X1575Y2480D01*
X1211Y2638D02*
X1417D01*
X522D02*
Y3404D01*
Y1772D02*
Y2638D01*
X2746Y7874D02*
X3110Y7510D01*
Y5591D02*
Y6821D01*
Y5591D02*
X3287Y5413D01*
X3543D01*
X3120Y3661D02*
Y4488D01*
X7205Y3750D02*
Y4941D01*
X14622Y12024D02*
X14961D01*
X14431Y11833D02*
X14622Y12024D01*
X13691Y11833D02*
X14431D01*
X10000Y14646D02*
X10039Y14606D01*
X11575D01*
X10089Y5333D02*
X10573D01*
X10709Y5197D01*
Y4488D02*
Y5197D01*
X8799Y5965D02*
Y6161D01*
X8661Y6299D02*
X8799Y6161D01*
Y4744D02*
X8799Y4744D01*
X8465Y6299D02*
X8661D01*
X10089Y7333D02*
X10974D01*
X11614Y6614D02*
X11693D01*
X8258Y6093D02*
X8465Y6299D01*
X8799Y4539D02*
Y4744D01*
Y4539D02*
X8890Y4449D01*
X3504Y10207D02*
X3593Y10118D01*
X3307Y11191D02*
X3504D01*
Y10207D02*
Y11191D01*
X3543Y10069D02*
X3593Y10118D01*
X6417Y5315D02*
Y5945D01*
X7116Y6644D01*
Y6969D01*
X7205Y5689D02*
X7382D01*
X6811Y5919D02*
X7480Y6588D01*
X7138Y11524D02*
X7480Y11181D01*
Y6588D02*
Y11181D01*
X9840Y12126D02*
X10669D01*
X4266Y14882D02*
Y15512D01*
X4726Y12128D02*
Y12835D01*
X3376Y11811D02*
X4409D01*
X4726Y12128D01*
X3543Y8917D02*
Y10069D01*
X3150Y8524D02*
X3543Y8917D01*
X2756Y11929D02*
X2884Y11801D01*
X3307D01*
Y11772D02*
X3337D01*
X3376Y11811D01*
X1417Y8189D02*
X1732Y7874D01*
X2746D01*
X2913Y9272D02*
X3150D01*
X2736Y9449D02*
X2913Y9272D01*
X1890Y9449D02*
X2736D01*
X15118Y14094D02*
X15157Y14055D01*
X12126Y15157D02*
X14252D01*
X11575Y14606D02*
X12126Y15157D01*
X14252Y15118D02*
Y15157D01*
X2953Y12323D02*
X3071Y12205D01*
X2953Y12323D02*
Y13780D01*
X2559Y14173D02*
X2953Y13780D01*
X787Y11311D02*
X894D01*
X787Y11811D02*
X945D01*
X1417Y11339D01*
Y8189D02*
Y11339D01*
X614Y10811D02*
X787D01*
X197Y3728D02*
Y11720D01*
Y3728D02*
X522Y3404D01*
X197Y11720D02*
X787Y12311D01*
X1220Y10000D02*
Y10984D01*
X894Y11311D02*
X1220Y10984D01*
X8258Y3356D02*
Y4429D01*
Y3356D02*
X8386Y3228D01*
X8258Y4429D02*
Y6093D01*
X11614Y6122D02*
Y6614D01*
Y6122D02*
X11959Y5778D01*
Y5358D02*
Y5778D01*
X11575Y4974D02*
X11959Y5358D01*
X8890Y4449D02*
X11358D01*
X11575Y4665D01*
Y4974D01*
X12293Y11801D02*
X12343D01*
X13061Y11083D01*
X14888D01*
X10856Y9892D02*
X10906Y9843D01*
X10856Y9892D02*
Y11939D01*
X10669Y12126D02*
X10856Y11939D01*
X9262Y12704D02*
X9840Y12126D01*
X9262Y12704D02*
Y13211D01*
X8661Y13812D02*
X9262Y13211D01*
X8071Y413D02*
X8287Y197D01*
X8071Y468D02*
X8342Y197D01*
X8071Y524D02*
X8398Y197D01*
X8071Y580D02*
X8454Y197D01*
X8071Y236D02*
X8110Y197D01*
X8071Y246D02*
X8120Y197D01*
X8071Y301D02*
X8175Y197D01*
X8071Y357D02*
X8231Y197D01*
X8071Y888D02*
X8254Y1071D01*
X8071Y833D02*
X8309Y1071D01*
X8071Y1055D02*
X8178Y1162D01*
X8071Y1000D02*
X8178Y1107D01*
X8071Y721D02*
X8421Y1071D01*
X8071Y666D02*
X8476Y1071D01*
X8071Y944D02*
X8198Y1071D01*
X8071Y777D02*
X8365Y1071D01*
X8071Y858D02*
X8732Y197D01*
X8071Y914D02*
X8788Y197D01*
X8071Y969D02*
X8843Y197D01*
X8071Y1025D02*
X8899Y197D01*
X8071Y635D02*
X8509Y197D01*
X8071Y691D02*
X8565Y197D01*
X8071Y747D02*
X8621Y197D01*
X8071Y802D02*
X8676Y197D01*
X8071Y1081D02*
X8955Y197D01*
X8071Y1136D02*
X9010Y197D01*
X8071Y332D02*
X8810Y1071D01*
X8071Y276D02*
X9970Y2175D01*
X8071Y443D02*
X8699Y1071D01*
X8071Y387D02*
X8755Y1071D01*
X8071Y610D02*
X8532Y1071D01*
X8071Y499D02*
X8643Y1071D01*
X8071Y554D02*
X8588Y1071D01*
X8071Y1724D02*
X8159Y1812D01*
X8071Y1805D02*
X8159Y1716D01*
X8071Y1779D02*
X8159Y1868D01*
X8071Y1860D02*
X8159Y1772D01*
X8071Y1693D02*
X8159Y1605D01*
X8071Y1557D02*
X8159Y1645D01*
X8071Y1668D02*
X8159Y1757D01*
X8071Y1749D02*
X8159Y1660D01*
X8071Y2002D02*
X8159Y2091D01*
X8071Y2083D02*
X8159Y1994D01*
X8071Y2058D02*
X8159Y2146D01*
X8071Y2139D02*
X8159Y2050D01*
X8071Y1835D02*
X8159Y1924D01*
X8071Y1916D02*
X8159Y1827D01*
X8071Y2027D02*
X8159Y1939D01*
X8071Y1972D02*
X8159Y1883D01*
X8071Y1891D02*
X8159Y1979D01*
X8071Y1223D02*
X8178Y1329D01*
X8071Y1303D02*
X8178Y1197D01*
X8071Y1278D02*
X8178Y1385D01*
X8071Y1359D02*
X8178Y1252D01*
X8071Y1111D02*
X8178Y1218D01*
X8071Y1192D02*
X8178Y1085D01*
X8071Y1167D02*
X8178Y1274D01*
X8071Y1248D02*
X8178Y1141D01*
X8071Y1582D02*
X8178Y1475D01*
X8071Y1445D02*
X8178Y1552D01*
X8071Y1501D02*
X8174Y1604D01*
X8071Y1637D02*
X8178Y1531D01*
X8071Y1334D02*
X8178Y1441D01*
X8071Y1415D02*
X8178Y1308D01*
X8071Y1526D02*
X8178Y1419D01*
X8071Y1470D02*
X8178Y1364D01*
X8071Y1390D02*
X8178Y1496D01*
X8359Y1071D02*
X9233Y197D01*
X8414Y1071D02*
X9289Y197D01*
X8192Y1071D02*
X9066Y197D01*
X8303Y1071D02*
X9177Y197D01*
X8581Y1071D02*
X9456Y197D01*
X8637Y1071D02*
X9512Y197D01*
X8470Y1071D02*
X9344Y197D01*
X8526Y1071D02*
X9400Y197D01*
X8804Y1071D02*
X9679Y197D01*
X8830Y1101D02*
X9734Y197D01*
X8693Y1071D02*
X9567Y197D01*
X8748Y1071D02*
X9623Y197D01*
X8830Y1156D02*
X9790Y197D01*
X8830Y1212D02*
X9846Y197D01*
X8830Y1268D02*
X9901Y197D01*
X8830Y1323D02*
X9957Y197D01*
X8830Y1379D02*
X10013Y197D01*
X8848Y1639D02*
X10291Y197D01*
X8830Y1546D02*
X10180Y197D01*
X8830Y1602D02*
X10235Y197D01*
X8988Y1722D02*
X10514Y197D01*
X9044Y1722D02*
X10569Y197D01*
X8848Y1695D02*
X10347Y197D01*
X8877Y1722D02*
X10402Y197D01*
X8326D02*
X10304Y2175D01*
X8381Y197D02*
X10360Y2175D01*
X8159Y197D02*
X10137Y2175D01*
X8214Y197D02*
X10193Y2175D01*
X8932Y1722D02*
X10458Y197D01*
X8604D02*
X10583Y2175D01*
X8437Y197D02*
X10415Y2175D01*
X8548Y197D02*
X10527Y2175D01*
X8493Y197D02*
X10471Y2175D01*
X8178Y1071D02*
Y1604D01*
Y1141D02*
X8247Y1071D01*
X8178D02*
X8830D01*
Y1604D01*
X8755Y1071D02*
X8830Y1147D01*
X8178Y1604D02*
Y1685D01*
X8830Y1481D02*
X9072Y1722D01*
X8071Y1946D02*
X8159Y2035D01*
X8071Y1612D02*
X8159Y1701D01*
X8830Y1604D02*
Y1685D01*
Y1537D02*
X9016Y1722D01*
X8848Y1604D02*
Y1722D01*
Y1610D02*
X8961Y1722D01*
X8848Y1666D02*
X8905Y1722D01*
X8247Y1071D02*
X9122Y197D01*
X8830Y1491D02*
X10124Y197D01*
X8830Y1314D02*
X9239Y1722D01*
X8830Y1435D02*
X10068Y197D01*
X8830Y1370D02*
X9183Y1722D01*
X8830Y1258D02*
X9296Y1724D01*
X8830Y1425D02*
X9128Y1722D01*
X8848D02*
X9272D01*
X8107Y200D02*
X10081Y2175D01*
X8270Y197D02*
X10248Y2175D01*
X8830Y1091D02*
X9914Y2175D01*
X8107Y200D02*
X10081Y2175D01*
X8830Y1202D02*
X9383Y1755D01*
X8830Y1147D02*
X9859Y2175D01*
X9418Y1783D02*
X9810Y2175D01*
X8071Y2194D02*
X8159Y2106D01*
Y1604D02*
Y2254D01*
X8071Y2250D02*
X8159Y2161D01*
X8071Y2113D02*
X8159Y2202D01*
X8211Y2254D01*
X8159D02*
X8239D01*
X8071Y236D02*
Y2415D01*
Y2361D02*
X8178Y2254D01*
X8071Y2336D02*
X8111Y2376D01*
X8071Y2415D02*
X8205Y2281D01*
X8071Y2306D02*
X8159Y2217D01*
X8071Y2169D02*
X8194Y2292D01*
X8071Y2280D02*
X8138Y2348D01*
X8071Y2225D02*
X8166Y2320D01*
X8284Y2872D02*
X8522Y2634D01*
X8079Y228D02*
X10026Y2175D01*
X8284Y2786D02*
X8437Y2634D01*
X8284Y2816D02*
X8466Y2634D01*
X8284Y2927D02*
X8574Y2637D01*
X8284Y2983D02*
X8602Y2665D01*
X8347Y2724D02*
X8652Y3028D01*
X8375Y2696D02*
X8652Y2972D01*
X8284Y3039D02*
X8630Y2693D01*
X8284Y3094D02*
X8652Y2727D01*
X8284Y2828D02*
X8652Y3195D01*
X8284Y3150D02*
X8652Y2783D01*
X8292Y2779D02*
X8652Y3140D01*
X8319Y2752D02*
X8652Y3084D01*
X8284Y2786D02*
Y4228D01*
Y3206D02*
X8652Y2838D01*
X8284Y2884D02*
X8652Y3251D01*
X8284Y3484D02*
X8652Y3117D01*
X8284Y3428D02*
X8652Y3061D01*
X8284Y3595D02*
X8652Y3228D01*
X8284Y3540D02*
X8652Y3173D01*
X8284Y3261D02*
X8652Y2894D01*
X8284Y2939D02*
X8656Y3311D01*
X8284Y3373D02*
X8652Y3006D01*
X8284Y3317D02*
X8652Y2950D01*
X8284Y3663D02*
X8567Y3946D01*
X8284Y3608D02*
X8595Y3918D01*
X8284Y3775D02*
X8511Y4001D01*
X8284Y3719D02*
X8539Y3974D01*
X8284Y3651D02*
X8652Y3283D01*
X8284Y3707D02*
X8661Y3330D01*
X8284Y3552D02*
X8623Y3890D01*
X8284Y3762D02*
X8678Y3369D01*
X8284Y3496D02*
X8653Y3865D01*
X8284Y3051D02*
X9062Y3829D01*
X8284Y2995D02*
X9118Y3829D01*
X8284Y3162D02*
X8951Y3829D01*
X8284Y3106D02*
X9007Y3829D01*
X8284Y3273D02*
X8840Y3829D01*
X8284Y3218D02*
X8895Y3829D01*
X8284Y3818D02*
X8701Y3402D01*
X8284Y3329D02*
X8784Y3829D01*
X8284Y4041D02*
X8813Y3512D01*
X8284Y4096D02*
X8848Y3533D01*
X8284Y4152D02*
X8889Y3548D01*
X8284Y4208D02*
X8939Y3553D01*
X8284Y3874D02*
X8728Y3430D01*
X8284Y3385D02*
X8732Y3832D01*
X8284Y3441D02*
X8689Y3845D01*
X8284Y3929D02*
X8756Y3458D01*
X8284Y3985D02*
X8784Y3486D01*
X8437Y2634D02*
X8571D01*
X8480D02*
X8652Y2805D01*
X8403Y2668D02*
X8652Y2917D01*
X8431Y2640D02*
X8652Y2861D01*
X8536Y2634D02*
X8652Y2750D01*
X8571Y2634D02*
X8652Y2715D01*
Y3268D01*
X8712Y3414D02*
X8791Y3493D01*
X8711Y3837D02*
X8995Y3553D01*
X8775Y3829D02*
X9050Y3553D01*
X8831Y3829D02*
X9106Y3553D01*
X8894Y3549D02*
X9174Y3829D01*
X8886D02*
X9162Y3553D01*
X9232D02*
X9508Y3829D01*
X9276D02*
X9552Y3553D01*
X9177D02*
X9452Y3829D01*
X9220D02*
X9496Y3553D01*
X9344D02*
X9619Y3829D01*
X9387D02*
X9663Y3553D01*
X9288D02*
X9564Y3829D01*
X9332D02*
X9607Y3553D01*
X8998Y3829D02*
X9273Y3553D01*
X9010D02*
X9285Y3829D01*
X8942D02*
X9218Y3553D01*
X8954D02*
X9229Y3829D01*
X9121Y3553D02*
X9396Y3829D01*
X9165D02*
X9440Y3553D01*
X9053Y3829D02*
X9329Y3553D01*
X9109Y3829D02*
X9385Y3553D01*
X9065D02*
X9341Y3829D01*
X9721D02*
X9997Y3553D01*
X9733D02*
X10009Y3829D01*
X9666D02*
X9941Y3553D01*
X9678D02*
X9953Y3829D01*
X9833D02*
X10108Y3553D01*
X9845D02*
X10120Y3829D01*
X9777D02*
X10053Y3553D01*
X9789D02*
X10065Y3829D01*
X9455Y3553D02*
X9731Y3829D01*
X9499D02*
X9774Y3553D01*
X9399D02*
X9675Y3829D01*
X9443D02*
X9719Y3553D01*
X9610Y3829D02*
X9886Y3553D01*
X9622D02*
X9898Y3829D01*
X9511Y3553D02*
X9786Y3829D01*
X9566Y3553D02*
X9842Y3829D01*
X9554D02*
X9830Y3553D01*
X10179D02*
X10454Y3829D01*
X10223D02*
X10498Y3553D01*
X10123D02*
X10399Y3829D01*
X10167D02*
X10442Y3553D01*
X10290D02*
X10566Y3829D01*
X10334D02*
X10609Y3553D01*
X10234D02*
X10510Y3829D01*
X10278D02*
X10554Y3553D01*
X9944Y3829D02*
X10220Y3553D01*
X9956D02*
X10232Y3829D01*
X9888D02*
X10164Y3553D01*
X9900D02*
X10176Y3829D01*
X10067Y3553D02*
X10343Y3829D01*
X10111D02*
X10387Y3553D01*
X10000Y3829D02*
X10275Y3553D01*
X10055Y3829D02*
X10331Y3553D01*
X10012D02*
X10287Y3829D01*
X9211Y1722D02*
X10736Y197D01*
X9267Y1722D02*
X10792Y197D01*
X9099Y1722D02*
X10625Y197D01*
X9155Y1722D02*
X10681Y197D01*
X9394Y1762D02*
X10959Y197D01*
X9423Y1788D02*
X11015Y197D01*
X9317Y1728D02*
X10848Y197D01*
X9359Y1742D02*
X10903Y197D01*
X8771D02*
X10750Y2175D01*
X8827Y197D02*
X10805Y2175D01*
X8660Y197D02*
X10638Y2175D01*
X8716Y197D02*
X10694Y2175D01*
X8994Y197D02*
X10972Y2175D01*
X9050Y197D02*
X11028Y2175D01*
X8883Y197D02*
X10861Y2175D01*
X8938Y197D02*
X10917Y2175D01*
X9451Y1816D02*
X11070Y197D01*
X9479Y1844D02*
X11126Y197D01*
X9217D02*
X11195Y2175D01*
X8110Y197D02*
X15551D01*
X9562Y1928D02*
X11293Y197D01*
X9590Y1955D02*
X11349Y197D01*
X9507Y1872D02*
X11182Y197D01*
X9535Y1900D02*
X11238Y197D01*
X9272D02*
X11251Y2175D01*
X9328Y197D02*
X11306Y2175D01*
X9105Y197D02*
X11084Y2175D01*
X9161Y197D02*
X11139Y2175D01*
X9551Y197D02*
X11746Y2392D01*
X9606Y197D02*
X11801Y2392D01*
X9384Y197D02*
X11579Y2392D01*
X9495Y197D02*
X11690Y2392D01*
X9439Y197D02*
X11634Y2392D01*
X9674Y2039D02*
X11516Y197D01*
X9702Y2067D02*
X11572Y197D01*
X9618Y1983D02*
X11405Y197D01*
X9646Y2011D02*
X11460Y197D01*
X9729Y2095D02*
X11627Y197D01*
X9757Y2122D02*
X11683Y197D01*
X9810Y2175D02*
X11348D01*
X9785Y2150D02*
X11739Y197D01*
X9872Y2175D02*
X11850Y197D01*
X9927Y2175D02*
X11906Y197D01*
X9816Y2175D02*
X11794Y197D01*
X9662D02*
X11864Y2399D01*
X10150Y2175D02*
X12128Y197D01*
X10206Y2175D02*
X12184Y197D01*
X9983Y2175D02*
X11961Y197D01*
X10094Y2175D02*
X12073Y197D01*
X10039Y2175D02*
X12017Y197D01*
X10428Y2175D02*
X12407Y197D01*
X10484Y2175D02*
X12462Y197D01*
X10317Y2175D02*
X12295Y197D01*
X10373Y2175D02*
X12351Y197D01*
X10707Y2175D02*
X12685Y197D01*
X10720D02*
X12698Y2175D01*
X10540D02*
X12518Y197D01*
X10595Y2175D02*
X12574Y197D01*
X10442D02*
X12589Y2344D01*
X10497Y197D02*
X12589Y2288D01*
X10261Y2175D02*
X12240Y197D01*
X10386D02*
X12589Y2400D01*
X10664Y197D02*
X12643Y2175D01*
X10762D02*
X12741Y197D01*
X10553D02*
X12589Y2233D01*
X10651Y2175D02*
X12629Y197D01*
X10609D02*
X12589Y2177D01*
X11054Y197D02*
X13032Y2175D01*
X11097D02*
X13075Y197D01*
X10998D02*
X12977Y2175D01*
X11041D02*
X13019Y197D01*
X11165D02*
X13144Y2175D01*
X11208D02*
X13186Y197D01*
X11110D02*
X13088Y2175D01*
X11152D02*
X13131Y197D01*
X10831D02*
X12810Y2175D01*
X10874D02*
X12852Y197D01*
X10776D02*
X12754Y2175D01*
X10818D02*
X12797Y197D01*
X10943D02*
X12921Y2175D01*
X10985D02*
X12964Y197D01*
X10887D02*
X12865Y2175D01*
X10930D02*
X12908Y197D01*
X11277D02*
X13255Y2175D01*
X11319D02*
X13298Y197D01*
X11221D02*
X13199Y2175D01*
X11264D02*
X13242Y197D01*
X11444D02*
X13422Y2175D01*
X12056Y197D02*
X14035Y2175D01*
X11332Y197D02*
X13311Y2175D01*
X11388Y197D02*
X13366Y2175D01*
X11348Y2202D02*
X13353Y197D01*
X11348Y2257D02*
X13409Y197D01*
X11348Y2313D02*
X13465Y197D01*
X11348Y2369D02*
X13520Y197D01*
X11826Y2392D02*
X14021Y197D01*
X12390D02*
X14369Y2175D01*
X11381Y2392D02*
X13576Y197D01*
X11492Y2392D02*
X13687Y197D01*
X11437Y2392D02*
X13632Y197D01*
X11499D02*
X13478Y2175D01*
X11555Y197D02*
X13533Y2175D01*
X11251D02*
X11348Y2273D01*
X11306Y2175D02*
X11348Y2217D01*
X11722Y197D02*
X13700Y2175D01*
X11778Y197D02*
X13756Y2175D01*
X11611Y197D02*
X13589Y2175D01*
X11666Y197D02*
X13645Y2175D01*
X11348D02*
Y2392D01*
Y2217D02*
X11523Y2392D01*
X11348Y2273D02*
X11467Y2392D01*
X11348D02*
X11811D01*
X11548D02*
X13743Y197D01*
X11604Y2392D02*
X13799Y197D01*
X11348Y2329D02*
X11412Y2392D01*
X11945Y197D02*
X13923Y2175D01*
X12001Y197D02*
X13979Y2175D01*
X11833Y197D02*
X13812Y2175D01*
X11889Y197D02*
X13868Y2175D01*
X12279Y197D02*
X14257Y2175D01*
X12446Y197D02*
X14424Y2175D01*
X12112Y197D02*
X14090Y2175D01*
X12168Y197D02*
X14146Y2175D01*
X11771Y2392D02*
X13966Y197D01*
X11873Y2401D02*
X14077Y197D01*
X11660Y2392D02*
X13854Y197D01*
X11715Y2392D02*
X13910Y197D01*
X12335D02*
X14313Y2175D01*
X12502Y197D02*
X14480Y2175D01*
X11912Y2418D02*
X14133Y197D01*
X12223D02*
X14202Y2175D01*
X11945Y2441D02*
X14188Y197D01*
X11113Y3829D02*
X11486Y3456D01*
X11169Y3829D02*
X11533Y3465D01*
X11225Y3829D02*
X11586Y3467D01*
X11406Y3493D02*
X11453Y3446D01*
X11280Y3829D02*
X11650Y3460D01*
X11336Y3829D02*
X11735Y3429D01*
X11392Y3829D02*
X11968Y3252D01*
X11402Y3496D02*
X11968Y4062D01*
X11402Y3496D02*
X11968Y4062D01*
X11503Y3829D02*
X11968Y3363D01*
X11447Y3829D02*
X11968Y3308D01*
X11469Y3452D02*
X11968Y3951D01*
X11558Y3829D02*
X11968Y3419D01*
X10052Y197D02*
X12589Y2734D01*
X10107Y197D02*
X12589Y2678D01*
X9940Y197D02*
X12589Y2845D01*
X9996Y197D02*
X12589Y2789D01*
X10275Y197D02*
X12589Y2511D01*
X10330Y197D02*
X12589Y2455D01*
X10163Y197D02*
X12589Y2622D01*
X10219Y197D02*
X12589Y2567D01*
X9829Y197D02*
X12575Y2943D01*
X9885Y197D02*
X12589Y2901D01*
X9718Y197D02*
X12480Y2959D01*
X9773Y197D02*
X12523Y2946D01*
X11596Y3467D02*
X11968Y3840D01*
X11539Y3466D02*
X11968Y3895D01*
X11371Y3521D02*
X11968Y4118D01*
X11605Y3838D02*
X11968Y3475D01*
X11430Y3468D02*
X11968Y4007D01*
X10668Y3829D02*
X10944Y3553D01*
X10680D02*
X10955Y3829D01*
X10612D02*
X10888Y3553D01*
X10624D02*
X10900Y3829D01*
X10779D02*
X11055Y3553D01*
X10791D02*
X11067Y3829D01*
X10724D02*
X10999Y3553D01*
X10736D02*
X11011Y3829D01*
X10401Y3553D02*
X10677Y3829D01*
X10445D02*
X10721Y3553D01*
X10346D02*
X10621Y3829D01*
X10390D02*
X10665Y3553D01*
X10557Y3829D02*
X10832Y3553D01*
X10569D02*
X10844Y3829D01*
X10457Y3553D02*
X10733Y3829D01*
X10513Y3553D02*
X10788Y3829D01*
X10501D02*
X10776Y3553D01*
X10847D02*
X11122Y3829D01*
X10891D02*
X11166Y3553D01*
X10835Y3829D02*
X11111Y3553D01*
X8937D02*
X11260D01*
X10958D02*
X11234Y3829D01*
X11002D02*
X11278Y3552D01*
X10903Y3553D02*
X11178Y3829D01*
X10946D02*
X11222Y3553D01*
X11014D02*
X11290Y3829D01*
X11058D02*
X11358Y3528D01*
X11070Y3553D02*
X11345Y3829D01*
X11125Y3553D02*
X11401Y3829D01*
X11334Y3539D02*
X11655Y3860D01*
X11645Y3854D02*
X11968Y3530D01*
X11181Y3553D02*
X11457Y3829D01*
X11237Y3553D02*
X11512Y3829D01*
X11290Y3551D02*
X11569Y3830D01*
X11957Y2452D02*
X12321Y2816D01*
X12251Y2746D02*
X12589Y2409D01*
X12279Y2774D02*
X12589Y2465D01*
X12375Y2910D02*
X12443Y2978D01*
X12382Y2972D02*
X12413Y3003D01*
X11912Y2991D02*
X11968Y3048D01*
X11930Y3068D02*
X11959Y3039D01*
X11917Y3009D02*
X11968Y3060D01*
X12382Y2963D02*
Y3034D01*
X11931Y3078D02*
X11968Y3116D01*
X12382Y3034D02*
X12413Y3004D01*
X11968Y3048D02*
Y4166D01*
X12029Y2524D02*
X14355Y197D01*
X12056Y2552D02*
X14411Y197D01*
X11973Y2468D02*
X14244Y197D01*
X12001Y2496D02*
X14300Y197D01*
X12084Y2579D02*
X14467Y197D01*
X12112Y2607D02*
X14523Y197D01*
X12168Y2663D02*
X12589Y2242D01*
X12140Y2635D02*
X12589Y2186D01*
X12224Y2719D02*
X12589Y2354D01*
X12196Y2691D02*
X12589Y2298D01*
X12334Y2831D02*
X12589Y2576D01*
X12307Y2802D02*
X12589Y2521D01*
X12373Y2903D02*
X12589Y2688D01*
X12357Y2864D02*
X12589Y2632D01*
X12488Y2956D02*
X12589Y2855D01*
X12382Y2950D02*
X12589Y2743D01*
X12382Y3006D02*
X12589Y2799D01*
X11876Y3302D02*
X11968Y3394D01*
X11894Y3271D02*
X11968Y3196D01*
X11827Y3364D02*
X11968Y3506D01*
X11853Y3334D02*
X11968Y3450D01*
X11925Y3183D02*
X11968Y3227D01*
X11932Y3122D02*
X11968Y3085D01*
X11896Y3266D02*
X11968Y3338D01*
X11913Y3227D02*
X11968Y3283D01*
X11645Y3461D02*
X11968Y3784D01*
X11689Y3449D02*
X11968Y3728D01*
X11706Y3904D02*
X11968Y3642D01*
X11678Y3877D02*
X11968Y3586D01*
X11765Y3413D02*
X11968Y3617D01*
X11797Y3390D02*
X11968Y3561D01*
X11762Y3960D02*
X11968Y3753D01*
X11729Y3433D02*
X11968Y3673D01*
X11734Y3932D02*
X11968Y3697D01*
X11924Y3185D02*
X11968Y3141D01*
X11931Y3134D02*
X11968Y3171D01*
X12539Y3516D02*
X12699Y3356D01*
X12539Y3572D02*
X12755Y3356D01*
X12539Y3628D02*
X12811Y3356D01*
X12539Y3683D02*
X12866Y3356D01*
X12539Y3739D02*
X12922Y3356D01*
X12539Y3795D02*
X12978Y3356D01*
X12539Y3462D02*
Y4445D01*
Y3464D02*
X13869Y4793D01*
X12539Y3798D02*
X13202Y4460D01*
X12539Y3520D02*
X13813Y4793D01*
X12539Y3850D02*
X13033Y3356D01*
X12539Y4240D02*
X13423Y3356D01*
X12539Y4296D02*
X13479Y3356D01*
X12539Y4351D02*
X13534Y3356D01*
X12539Y4407D02*
X13590Y3356D01*
X8071Y12637D02*
X8258Y12824D01*
X8071Y12581D02*
X8260Y12770D01*
X8071Y12773D02*
X8170Y12674D01*
X8071Y12829D02*
X8197Y12702D01*
X8071Y12662D02*
X8114Y12619D01*
X8071Y12717D02*
X8142Y12647D01*
X8071Y13138D02*
X8258Y13325D01*
X8071Y13082D02*
X8260Y13271D01*
X8071Y13497D02*
X8258Y13310D01*
X8071Y13441D02*
X8263Y13249D01*
X8071Y12884D02*
X8225Y12730D01*
X8071Y12940D02*
X8253Y12758D01*
X8071Y12996D02*
X8258Y12809D01*
X8071Y13051D02*
X8261Y12861D01*
X8071Y12915D02*
X8299Y13143D01*
X8071Y12859D02*
X8320Y13108D01*
X8071Y12971D02*
X8282Y13182D01*
X8071Y13163D02*
X8285Y12949D01*
X8071Y12692D02*
X8266Y12887D01*
X8071Y12748D02*
X8296Y12973D01*
X8071Y13107D02*
X8271Y12907D01*
X8071Y12804D02*
X8344Y13077D01*
X8071Y13193D02*
X8266Y13388D01*
X8071Y13249D02*
X8296Y13474D01*
X8071Y13360D02*
X8319Y13609D01*
X8071Y13305D02*
X8343Y13577D01*
X8071Y13218D02*
X8303Y12986D01*
X8071Y13274D02*
X8324Y13021D01*
X8071Y13026D02*
X8269Y13224D01*
X8071Y13330D02*
X8349Y13052D01*
X8071Y13385D02*
X8287Y13170D01*
X8071Y13472D02*
X8282Y13682D01*
X8071Y13720D02*
X8303Y13487D01*
X8071Y13583D02*
X8260Y13772D01*
X8071Y13527D02*
X8268Y13725D01*
X8071Y13553D02*
X8261Y13362D01*
X8071Y13608D02*
X8271Y13408D01*
X8071Y13664D02*
X8285Y13450D01*
X8071Y13416D02*
X8299Y13644D01*
X8071Y13998D02*
X8258Y13811D01*
X8071Y14054D02*
X8261Y13863D01*
X8071Y14109D02*
X8271Y13909D01*
X8071Y14165D02*
X8285Y13951D01*
X8071Y13639D02*
X8258Y13826D01*
X8071Y13887D02*
X8286Y13672D01*
X8071Y13942D02*
X8263Y13750D01*
X8071Y13694D02*
X8266Y13890D01*
X8071Y13750D02*
X8297Y13976D01*
X8071Y13973D02*
X8415Y14317D01*
X8071Y13917D02*
X8415Y14262D01*
X8071Y14221D02*
X8303Y13988D01*
X8071Y14276D02*
X8325Y14022D01*
X8071Y13775D02*
X8324Y13522D01*
X8071Y13831D02*
X8349Y13553D01*
X8071Y13861D02*
X8415Y14206D01*
X8071Y13806D02*
X8415Y14150D01*
X8071Y14499D02*
X8415Y14155D01*
X8071Y14140D02*
X8415Y14484D01*
X8071Y14555D02*
X8415Y14210D01*
X8071Y14196D02*
X8415Y14540D01*
X8071Y14332D02*
X8350Y14053D01*
X8071Y14028D02*
X8415Y14373D01*
X8071Y14388D02*
X8377Y14081D01*
X8071Y14084D02*
X8415Y14429D01*
X8071Y14443D02*
X8408Y14106D01*
X8284Y5488D02*
X8335Y5438D01*
X8284Y5544D02*
X8363Y5466D01*
X8284Y5767D02*
X8376Y5675D01*
X8284Y5612D02*
X8376Y5703D01*
X8284Y4109D02*
X8344Y4169D01*
X8284Y4053D02*
X8372Y4141D01*
X8284Y5433D02*
X8307Y5410D01*
X8284Y4164D02*
X8316Y4196D01*
X8284Y5822D02*
X8376Y5731D01*
X8284Y5723D02*
X8376Y5815D01*
X8284Y5878D02*
X8376Y5787D01*
X8284Y5779D02*
X8376Y5871D01*
X8284Y5388D02*
Y6201D01*
X8376Y5650D02*
Y6260D01*
X8284Y5934D02*
X8376Y5842D01*
X8284Y5835D02*
X8376Y5926D01*
X8284Y3942D02*
X8428Y4085D01*
X8284Y4228D02*
X8623Y3889D01*
X8284Y5388D02*
X8396Y5499D01*
X8284Y3997D02*
X8400Y4113D01*
X8284Y3886D02*
X8456Y4057D01*
X8284Y3830D02*
X8483Y4029D01*
X8284Y5445D02*
X8396Y5556D01*
X8284Y5389D02*
X8396Y5500D01*
X8284Y5600D02*
X8390Y5494D01*
X8284Y5501D02*
X8396Y5612D01*
X8284Y5655D02*
X8396Y5544D01*
Y5499D02*
Y5650D01*
X8284Y5668D02*
X8376Y5759D01*
X8284Y5556D02*
X8378Y5650D01*
X8284Y5711D02*
X8396Y5600D01*
X8284Y6057D02*
X8376Y6149D01*
X8284Y6002D02*
X8376Y6093D01*
X8284Y6113D02*
X8376Y6205D01*
X8284Y6157D02*
X8376Y6065D01*
X8284Y5990D02*
X8376Y5898D01*
X8284Y5890D02*
X8376Y5982D01*
X8284Y6045D02*
X8376Y5954D01*
X8284Y5946D02*
X8376Y6038D01*
X8122Y12627D02*
X8261Y12766D01*
X8284Y6169D02*
X8376Y6260D01*
X8318Y6235D02*
X8376Y6176D01*
X8290Y6207D02*
X8376Y6121D01*
X8284Y6201D02*
X8343Y6260D01*
X8376D01*
X8348D02*
X8376Y6232D01*
X8284Y6101D02*
X8376Y6009D01*
X9380Y14304D02*
X9518Y14166D01*
X9380Y14163D02*
X9518D01*
X9431D02*
X9518Y14250D01*
X9486Y14163D02*
X9518Y14195D01*
X9380Y14192D02*
X9409Y14163D01*
X9380Y14248D02*
X9464Y14163D01*
X9380Y14335D02*
X9518Y14473D01*
X9380Y14471D02*
X9518Y14333D01*
X9380Y14391D02*
X9518Y14529D01*
X9380Y14526D02*
X9518Y14388D01*
X9380Y14359D02*
X9518Y14221D01*
X9380Y14168D02*
X9518Y14306D01*
X9380Y14280D02*
X9518Y14417D01*
X9380Y14224D02*
X9518Y14362D01*
X9380Y14415D02*
X9518Y14277D01*
X8071Y14722D02*
X8415Y14377D01*
X8071Y14363D02*
X8415Y14707D01*
X8071Y14777D02*
X8415Y14433D01*
X8071Y14418D02*
X8415Y14763D01*
X8071Y14610D02*
X8415Y14266D01*
X8071Y14251D02*
X8415Y14596D01*
X8071Y14666D02*
X8415Y14322D01*
X8071Y14307D02*
X8415Y14651D01*
X8071Y14833D02*
X8415Y14489D01*
X8071Y14474D02*
X8415Y14818D01*
X8071Y14889D02*
X8415Y14544D01*
X8071Y14530D02*
X8415Y14874D01*
X8071Y12543D02*
Y15551D01*
X8415Y14112D02*
Y15463D01*
X8071Y14944D02*
X8415Y14600D01*
X8071Y14585D02*
X8415Y14930D01*
X8071Y15112D02*
X8415Y14767D01*
X8071Y14752D02*
X8415Y15097D01*
X8071Y15167D02*
X8415Y14823D01*
X8071Y14808D02*
X8415Y15152D01*
X8071Y15000D02*
X8415Y14656D01*
X8071Y14641D02*
X8415Y14985D01*
X8071Y15056D02*
X8415Y14711D01*
X8071Y14697D02*
X8415Y15041D01*
X8071Y15031D02*
X8415Y15375D01*
X8071Y15334D02*
X8415Y14990D01*
X8071Y15086D02*
X8415Y15431D01*
X8071Y15390D02*
X8415Y15045D01*
X8071Y15223D02*
X8415Y14878D01*
X8071Y14864D02*
X8415Y15208D01*
X8071Y14975D02*
X8415Y15319D01*
X8071Y14919D02*
X8415Y15264D01*
X8071Y15279D02*
X8415Y14934D01*
X8071Y15501D02*
X8415Y15157D01*
X8071Y15446D02*
X8415Y15101D01*
X8071Y15309D02*
X8313Y15551D01*
X8071Y15253D02*
X8369Y15551D01*
X8071Y15420D02*
X8202Y15551D01*
X8188D02*
X8415Y15324D01*
X8071Y15476D02*
X8146Y15551D01*
X8415Y15431D02*
X8447Y15463D01*
X8071Y15198D02*
X8424Y15551D01*
X8071Y15142D02*
X8480Y15551D01*
X8071Y15365D02*
X8257Y15551D01*
X8077D02*
X8415Y15212D01*
X8244Y15551D02*
X8415Y15379D01*
X8132Y15551D02*
X8415Y15268D01*
X8299Y15551D02*
X8415Y15435D01*
X8411Y15551D02*
X8499Y15463D01*
X8355Y15551D02*
X8444Y15463D01*
X8415Y15375D02*
X8503Y15463D01*
X8415D02*
X9380D01*
X8447D02*
X8536Y15551D01*
X8466D02*
X8555Y15463D01*
X8578Y15551D02*
X8666Y15463D01*
X8614D02*
X8703Y15551D01*
X8522D02*
X8611Y15463D01*
X8558D02*
X8647Y15551D01*
X8670Y15463D02*
X8758Y15551D01*
X8689D02*
X8778Y15463D01*
X8503D02*
X8591Y15551D01*
X8633D02*
X8722Y15463D01*
X8800Y15551D02*
X8889Y15463D01*
X8837D02*
X8925Y15551D01*
X8726Y15463D02*
X8814Y15551D01*
X8781Y15463D02*
X8870Y15551D01*
X8745D02*
X8833Y15463D01*
X9380Y14558D02*
X9518Y14696D01*
X9380Y14693D02*
X9518Y14556D01*
X9380Y14614D02*
X9518Y14752D01*
X9380Y14749D02*
X9518Y14611D01*
X9380Y14447D02*
X9518Y14584D01*
X9380Y14582D02*
X9518Y14444D01*
X9380Y14502D02*
X9518Y14640D01*
X9380Y14638D02*
X9518Y14500D01*
X9380Y14669D02*
X9518Y14807D01*
X9380Y14805D02*
X9518Y14667D01*
X9380Y14725D02*
X9518Y14863D01*
X9380Y14860D02*
X9518Y14723D01*
X9380Y14163D02*
Y15463D01*
X9518Y14163D02*
Y15463D01*
X9380Y14972D02*
X9518Y14834D01*
X9380Y14916D02*
X9518Y14778D01*
X9380Y14781D02*
X9518Y14919D01*
X9380Y15139D02*
X9518Y15001D01*
X9380Y14948D02*
X9518Y15086D01*
X9380Y15194D02*
X9518Y15057D01*
X9380Y15003D02*
X9518Y15141D01*
X9380Y15027D02*
X9518Y14890D01*
X9380Y14836D02*
X9518Y14974D01*
X9380Y15083D02*
X9518Y14945D01*
X9380Y14892D02*
X9518Y15030D01*
X9380Y15226D02*
X9518Y15364D01*
X9380Y15361D02*
X9518Y15224D01*
X9380Y15282D02*
X9518Y15420D01*
X9380Y15417D02*
X9518Y15279D01*
X9380Y15250D02*
X9518Y15112D01*
X9380Y15059D02*
X9518Y15197D01*
X9380Y15170D02*
X9518Y15308D01*
X9380Y15115D02*
X9518Y15253D01*
X9380Y15306D02*
X9518Y15168D01*
X9171Y15463D02*
X9260Y15551D01*
X9190D02*
X9279Y15463D01*
X9115D02*
X9204Y15551D01*
X9135D02*
X9223Y15463D01*
X9282D02*
X9371Y15551D01*
X9334Y15463D02*
X9380Y15417D01*
X9227Y15463D02*
X9315Y15551D01*
X9246D02*
X9334Y15463D01*
X8912Y15551D02*
X9000Y15463D01*
X8948D02*
X9037Y15551D01*
X8856D02*
X8945Y15463D01*
X8893D02*
X8981Y15551D01*
X9060Y15463D02*
X9148Y15551D01*
X9079D02*
X9167Y15463D01*
X8967Y15551D02*
X9056Y15463D01*
X9023Y15551D02*
X9112Y15463D01*
X9004D02*
X9092Y15551D01*
X9357D02*
X9518Y15391D01*
X9302Y15551D02*
X9518Y15335D01*
X9338Y15463D02*
X9427Y15551D01*
X9380Y15393D02*
X9538Y15551D01*
X9413D02*
X9518Y15446D01*
Y15420D02*
X9561Y15463D01*
X9380Y15449D02*
X9482Y15551D01*
X9469D02*
X9557Y15463D01*
X9380Y15338D02*
X9594Y15551D01*
X9524D02*
X9613Y15463D01*
X9561D02*
X9649Y15551D01*
X9580D02*
X9669Y15463D01*
X9691Y15551D02*
X9780Y15463D01*
X9728D02*
X9816Y15551D01*
X9616Y15463D02*
X9705Y15551D01*
X9672Y15463D02*
X9761Y15551D01*
X9636D02*
X9724Y15463D01*
X11201Y7637D02*
X11433Y7870D01*
X11201Y7861D02*
X11441Y7622D01*
X11201Y7973D02*
X11414Y7759D01*
X11201Y7917D02*
X11419Y7699D01*
X11201Y7470D02*
X11420Y7690D01*
X11201Y7415D02*
X11432Y7646D01*
X11201Y7526D02*
X11415Y7740D01*
X11201Y7582D02*
X11417Y7798D01*
X11190Y8151D02*
X11443Y7897D01*
X10691Y8706D02*
X11462Y7934D01*
X11201Y7413D02*
Y8081D01*
Y8029D02*
X11419Y7811D01*
X11201Y8083D02*
X11406Y8288D01*
X11201Y8084D02*
X11429Y7856D01*
X8770Y3829D02*
X11545D01*
X11201Y7472D02*
X11716Y6957D01*
X11201Y7413D02*
X11643Y6970D01*
X11201Y7416D02*
X11647Y6970D01*
X11201Y7583D02*
X11732Y7052D01*
X11201Y7527D02*
X11732Y6996D01*
X11201Y7694D02*
X11732Y7163D01*
X11201Y7639D02*
X11732Y7107D01*
X10691Y8761D02*
X11484Y7968D01*
X10691Y8817D02*
X11509Y7998D01*
X10691Y8873D02*
X11538Y8026D01*
X10691Y8928D02*
X11555Y8064D01*
X11201Y7750D02*
X11736Y7215D01*
X11201Y7806D02*
X11749Y7257D01*
X11201Y7916D02*
X11489Y8204D01*
X11201Y7693D02*
X11555Y8047D01*
X11201Y7860D02*
X11517Y8177D01*
X10691Y8650D02*
X10793Y8548D01*
X10691Y8565D02*
Y8618D01*
X10709Y8559D02*
Y8618D01*
X10820Y8537D02*
X10988Y8706D01*
X10730Y8559D02*
X10933Y8761D01*
X10779Y8552D02*
X10960Y8733D01*
X10691Y8686D02*
X10849Y8845D01*
X10691Y8631D02*
X10877Y8817D01*
X10691Y8742D02*
X10821Y8873D01*
X10691Y8618D02*
Y9003D01*
X10709Y8593D02*
X10905Y8789D01*
X10691Y8909D02*
X10738Y8956D01*
X10691Y8798D02*
X10793Y8900D01*
X10691Y8853D02*
X10766Y8928D01*
X10883Y8492D02*
X11134Y8241D01*
X11107Y8268D02*
X11267Y8427D01*
X11052Y8324D02*
X11211Y8483D01*
X11080Y8296D02*
X11239Y8455D01*
X11181Y8174D02*
X11350Y8344D01*
X11195Y8133D02*
X11378Y8316D01*
X11135Y8240D02*
X11294Y8399D01*
X11160Y8210D02*
X11322Y8371D01*
X10691Y9003D02*
X11555Y8139D01*
X10691Y8984D02*
X11555Y8120D01*
X10855Y8516D02*
X11016Y8678D01*
X10885Y8491D02*
X11044Y8650D01*
X10996Y8379D02*
X11155Y8538D01*
X11024Y8351D02*
X11183Y8511D01*
X10913Y8463D02*
X11072Y8622D01*
X10968Y8407D02*
X11127Y8566D01*
X10940Y8435D02*
X11100Y8594D01*
X11589Y7024D02*
X11732Y7167D01*
X11617Y6996D02*
X11732Y7111D01*
X11692Y3889D02*
X11968Y4166D01*
X11647Y6970D02*
X11732Y7055D01*
X11695Y6962D02*
X11732Y7000D01*
X11506Y7107D02*
X11798Y7400D01*
X11534Y7080D02*
X11865Y7411D01*
X11450Y7163D02*
X11694Y7407D01*
X11478Y7135D02*
X11743Y7400D01*
X11732Y6951D02*
Y7175D01*
X11562Y7052D02*
X11740Y7230D01*
X11818Y4015D02*
X11968Y3864D01*
X11790Y3988D02*
X11968Y3809D01*
X11873Y4071D02*
X11968Y3976D01*
X11845Y4043D02*
X11968Y3920D01*
X12539Y4021D02*
X12808Y4289D01*
X12539Y3965D02*
X12864Y4290D01*
X11929Y4127D02*
X11968Y4087D01*
X11901Y4099D02*
X11968Y4031D01*
X12539Y3854D02*
X13037Y4351D01*
X12539Y4355D02*
X12580Y4395D01*
X12539Y4299D02*
X12609Y4369D01*
X12539Y4076D02*
X12759Y4296D01*
X12539Y3909D02*
X12932Y4302D01*
X12539Y4243D02*
X12641Y4345D01*
X12539Y4132D02*
X12716Y4309D01*
X12539Y4188D02*
X12677Y4325D01*
X11395Y7219D02*
X11612Y7436D01*
X11422Y7191D02*
X11651Y7420D01*
X11339Y7274D02*
X11545Y7480D01*
X11367Y7247D02*
X11577Y7457D01*
X11637Y7425D02*
X11769Y7293D01*
X11715Y7403D02*
X11795Y7323D01*
X11775Y7399D02*
X11823Y7351D01*
X11826Y7403D02*
X11850Y7379D01*
X11201Y7804D02*
X11545Y8149D01*
X11201Y7749D02*
X11555Y8103D01*
X11201Y8027D02*
X11434Y8260D01*
X11201Y7971D02*
X11462Y8232D01*
X11283Y7330D02*
X11490Y7537D01*
X11311Y7302D02*
X11516Y7507D01*
X11228Y7386D02*
X11447Y7606D01*
X11255Y7358D02*
X11467Y7569D01*
X11555Y8040D02*
Y8139D01*
X11793Y7321D02*
X11890Y7419D01*
X12490Y9849D02*
X12550Y9789D01*
X12490Y9857D02*
X12558Y9789D01*
X12490Y9913D02*
X12614Y9789D01*
X12490Y9968D02*
X12669Y9789D01*
X12490Y10024D02*
X12725Y9789D01*
X12490Y10080D02*
X12781Y9789D01*
X12490Y9849D02*
Y10111D01*
Y9873D02*
X12732Y10115D01*
X12490Y9985D02*
X12621Y10115D01*
X12490Y9929D02*
X12676Y10115D01*
X12510D02*
X12836Y9789D01*
X12534Y9806D02*
X12843Y10115D01*
X12490Y10040D02*
X12565Y10115D01*
X12494D02*
X13071D01*
X12506Y9834D02*
X12788Y10115D01*
X10482Y15317D02*
X10512Y15287D01*
X10482Y15373D02*
X10568Y15287D01*
X10415Y15551D02*
X10679Y15287D01*
X10471Y15551D02*
X10735Y15287D01*
X10499D02*
X10763Y15551D01*
X10482Y15287D02*
Y15463D01*
Y15428D02*
X10624Y15287D01*
X10582Y15551D02*
X10846Y15287D01*
X10610D02*
X10874Y15551D01*
X10526D02*
X10791Y15287D01*
X10554D02*
X10818Y15551D01*
X10694D02*
X10958Y15287D01*
X10721D02*
X10986Y15551D01*
X10638D02*
X10902Y15287D01*
X10666D02*
X10930Y15551D01*
X10482Y15287D02*
X11114D01*
X10805Y15551D02*
X11069Y15287D01*
X10833D02*
X11097Y15551D01*
X11069Y15287D02*
X11114Y15242D01*
X11000Y15287D02*
X11264Y15551D01*
X10888Y15287D02*
X11153Y15551D01*
X10944Y15287D02*
X11208Y15551D01*
X10861D02*
X11481Y14931D01*
X10916Y15551D02*
X11536Y14931D01*
X10972Y15551D02*
X11592Y14931D01*
X11028Y15551D02*
X11621Y14958D01*
X11083Y15551D02*
X11648Y14986D01*
X11114Y15011D02*
X11654Y15551D01*
X11055Y15287D02*
X11320Y15551D01*
X11114Y15067D02*
X11598Y15551D01*
X11111Y15287D02*
X11375Y15551D01*
X10062Y15463D02*
X10150Y15551D01*
X10081D02*
X10170Y15463D01*
X10006D02*
X10095Y15551D01*
X10025D02*
X10114Y15463D01*
X10173D02*
X10262Y15551D01*
X10192D02*
X10281Y15463D01*
X10117D02*
X10206Y15551D01*
X10137D02*
X10225Y15463D01*
X9803Y15551D02*
X9891Y15463D01*
X9839D02*
X9928Y15551D01*
X9747D02*
X9836Y15463D01*
X9783D02*
X9872Y15551D01*
X9950Y15463D02*
X10039Y15551D01*
X9970D02*
X10058Y15463D01*
X9858Y15551D02*
X9947Y15463D01*
X9914Y15551D02*
X10003Y15463D01*
X9895D02*
X9983Y15551D01*
X10229Y15463D02*
X10317Y15551D01*
X10304D02*
X10392Y15463D01*
X9518D02*
X10482D01*
X8071Y15551D02*
X15551D01*
X10448Y15463D02*
X10482Y15428D01*
X10392Y15463D02*
X10482Y15373D01*
X10340Y15463D02*
X10429Y15551D01*
X10359D02*
X10448Y15463D01*
X10396D02*
X10484Y15551D01*
X10452Y15463D02*
X10540Y15551D01*
X10248D02*
X10337Y15463D01*
X10284D02*
X10373Y15551D01*
X10749D02*
X11013Y15287D01*
X10777D02*
X11041Y15551D01*
X10482Y15438D02*
X10596Y15551D01*
X10482Y15326D02*
X10707Y15551D01*
X10482Y15382D02*
X10651Y15551D01*
X11114Y14823D02*
X11230D01*
X11148D02*
X11230Y14905D01*
X11114Y14853D02*
X11143Y14823D01*
X11114Y14908D02*
X11199Y14823D01*
X11204D02*
X11230Y14849D01*
Y14823D02*
Y14931D01*
Y14905D02*
X11256Y14931D01*
X11230D02*
X11593D01*
X11114Y14823D02*
Y15287D01*
Y15242D02*
X11425Y14931D01*
X11114Y15187D02*
X11369Y14931D01*
X11114Y15123D02*
X11542Y15551D01*
X11114Y14964D02*
X11230Y14847D01*
Y14849D02*
X11312Y14931D01*
X11114Y15020D02*
X11230Y14903D01*
X11114Y15075D02*
X11258Y14931D01*
X11114Y15131D02*
X11314Y14931D01*
X11139Y15551D02*
X11676Y15014D01*
X11114Y14900D02*
X11765Y15551D01*
X11195D02*
X11704Y15042D01*
X11250Y15551D02*
X11732Y15070D01*
X11306Y15551D02*
X11760Y15097D01*
X11593Y14931D02*
X11973Y15310D01*
X11362Y15551D02*
X11788Y15125D01*
X11417Y15551D02*
X11815Y15153D01*
X11114Y14844D02*
X11821Y15551D01*
X11256Y14931D02*
X11876Y15551D01*
X11114Y14956D02*
X11709Y15551D01*
X11312Y14931D02*
X11932Y15551D01*
X11535Y14931D02*
X12155Y15551D01*
X11590Y14931D02*
X12210Y15551D01*
X11368Y14931D02*
X11988Y15551D01*
X11479Y14931D02*
X12099Y15551D01*
X11423Y14931D02*
X12043Y15551D01*
X11473D02*
X11843Y15181D01*
X11529Y15551D02*
X11871Y15209D01*
X11114Y15234D02*
X11431Y15551D01*
X11584D02*
X11899Y15237D01*
X11640Y15551D02*
X11927Y15264D01*
X11696Y15551D02*
X11955Y15292D01*
X11114Y15178D02*
X11487Y15551D01*
X11751D02*
X11983Y15320D01*
X11807Y15551D02*
X12015Y15343D01*
X11863Y15551D02*
X12053Y15361D01*
X11918Y15551D02*
X12097Y15372D01*
X12085Y15370D02*
X12266Y15551D01*
X11974D02*
X12151Y15374D01*
X12085Y15551D02*
X12263Y15374D01*
X12030Y15551D02*
X12207Y15374D01*
X12420Y15551D02*
X12597Y15374D01*
X12423D02*
X12600Y15551D01*
X12367Y15374D02*
X12545Y15551D01*
X12126Y15374D02*
X14003D01*
X12531Y15551D02*
X12708Y15374D01*
X12534D02*
X12712Y15551D01*
X12475D02*
X12652Y15374D01*
X12479D02*
X12656Y15551D01*
X12197D02*
X12374Y15374D01*
X12200D02*
X12377Y15551D01*
X12141D02*
X12318Y15374D01*
X12145D02*
X12322Y15551D01*
X12312Y15374D02*
X12489Y15551D01*
X12364D02*
X12541Y15374D01*
X12252Y15551D02*
X12430Y15374D01*
X12308Y15551D02*
X12485Y15374D01*
X12256D02*
X12433Y15551D01*
X13560Y197D02*
X14438Y1075D01*
X13615Y197D02*
X14453Y1035D01*
X13448Y197D02*
X14414Y1162D01*
X13504Y197D02*
X14424Y1117D01*
X13782Y197D02*
X14511Y926D01*
X13838Y197D02*
X14534Y893D01*
X13671Y197D02*
X14471Y997D01*
X13727Y197D02*
X14490Y960D01*
X13170Y197D02*
X14415Y1442D01*
X13114Y197D02*
X14436Y1519D01*
X13058Y197D02*
X14479Y1617D01*
X12557Y197D02*
X14536Y2175D01*
X13337Y197D02*
X14401Y1261D01*
X13392Y197D02*
X14406Y1210D01*
X13281Y197D02*
X14400Y1316D01*
X13225Y197D02*
X14404Y1375D01*
X12891Y197D02*
X14870Y2175D01*
X12934D02*
X14912Y197D01*
X12836D02*
X14814Y2175D01*
X12878D02*
X14857Y197D01*
X13003D02*
X14981Y2175D01*
X13045D02*
X15024Y197D01*
X12947D02*
X14925Y2175D01*
X12990D02*
X14968Y197D01*
X12656Y2175D02*
X14634Y197D01*
X12669D02*
X14647Y2175D01*
X12600D02*
X14578Y197D01*
X12613D02*
X14591Y2175D01*
X12780Y197D02*
X14758Y2175D01*
X12823D02*
X14801Y197D01*
X12711Y2175D02*
X14690Y197D01*
X12767Y2175D02*
X14745Y197D01*
X12724D02*
X14703Y2175D01*
X12556Y2943D02*
X12589Y2910D01*
Y2175D02*
Y2943D01*
X12539Y3462D02*
X12645Y3356D01*
X12539Y3906D02*
X13089Y3356D01*
X12589Y2242D02*
X12656Y2175D01*
X13434Y3356D02*
X13967Y3889D01*
X13545Y3356D02*
X13967Y3778D01*
X13712Y3356D02*
X13967Y3610D01*
X13211Y3356D02*
X13848Y3993D01*
X13267Y3356D02*
X13848Y3938D01*
X12539Y3962D02*
X13145Y3356D01*
X12539Y4017D02*
X13200Y3356D01*
X13323D02*
X13874Y3907D01*
X13378Y3356D02*
X13929Y3907D01*
X13848Y3933D02*
X13874Y3907D01*
X13848D02*
X13967D01*
X13848Y3989D02*
X13930Y3907D01*
X13379Y2175D02*
X14420Y1135D01*
X13268Y2175D02*
X14501Y942D01*
X13491Y2175D02*
X14400Y1265D01*
X13435Y2175D02*
X14406Y1204D01*
X13546Y2175D02*
X14400Y1322D01*
X13602Y2175D02*
X14404Y1374D01*
X13658Y2175D02*
X14411Y1422D01*
X13825Y2175D02*
X14448Y1552D01*
X12645Y3356D02*
X13967D01*
X13324Y2175D02*
X14446Y1053D01*
X13490Y3356D02*
X13967Y3833D01*
X13601Y3356D02*
X13967Y3722D01*
X13713Y2175D02*
X14421Y1468D01*
X13769Y2175D02*
X14433Y1511D01*
X13768Y3356D02*
X13967Y3555D01*
X13824Y3356D02*
X13967Y3499D01*
X13657Y3356D02*
X13967Y3666D01*
X13894Y197D02*
X14559Y862D01*
X13949Y197D02*
X14585Y833D01*
X14047Y2175D02*
X14527Y1695D01*
X14005Y197D02*
X14613Y805D01*
X14061Y197D02*
X14642Y779D01*
X14116Y197D02*
X14674Y754D01*
X14103Y2175D02*
X14551Y1727D01*
X14172Y197D02*
X14706Y731D01*
X13880Y2175D02*
X14465Y1590D01*
X13936Y2175D02*
X14484Y1627D01*
X13992Y2175D02*
X14505Y1662D01*
X14159Y2175D02*
X14577Y1757D01*
X14214Y2175D02*
X14604Y1785D01*
X14270Y2175D02*
X14633Y1812D01*
X14326Y2175D02*
X14664Y1837D01*
X14382Y2175D02*
X14696Y1860D01*
X14339Y197D02*
X14815Y673D01*
X14395Y197D02*
X14856Y658D01*
X14228Y197D02*
X14741Y710D01*
X14283Y197D02*
X14777Y691D01*
X14562Y197D02*
X14991Y626D01*
X14617Y197D02*
X15042Y621D01*
X14450Y197D02*
X14898Y645D01*
X14506Y197D02*
X14943Y634D01*
X14437Y2175D02*
X14730Y1882D01*
X14493Y2175D02*
X14766Y1902D01*
X14549Y2175D02*
X14804Y1920D01*
X14604Y2175D02*
X14843Y1936D01*
X14660Y2175D02*
X14885Y1950D01*
X14761Y1899D02*
X15037Y2175D01*
X14716D02*
X14929Y1962D01*
X14827Y2175D02*
X15026Y1976D01*
X14771Y2175D02*
X14976Y1971D01*
X14380Y3402D02*
X14445Y3337D01*
X14380Y3457D02*
X14501Y3337D01*
X13879Y3356D02*
X13967Y3443D01*
X13935Y3356D02*
X13967Y3388D01*
X14380Y3513D02*
X14556Y3337D01*
X14380Y3569D02*
X14612Y3337D01*
X14380D02*
Y3907D01*
Y3624D02*
X14668Y3337D01*
X13874Y3907D02*
X13967Y3815D01*
Y3356D02*
Y3907D01*
X13930D02*
X13967Y3871D01*
X14380Y3907D02*
X14498D01*
X14380Y3745D02*
X14560Y3926D01*
X14380Y3690D02*
X14616Y3926D01*
X14380Y3857D02*
X14431Y3907D01*
X14380Y3801D02*
X14486Y3907D01*
X14418Y3926D02*
X14498D01*
X14380Y3680D02*
X14723Y3337D01*
X14380Y3736D02*
X14779Y3337D01*
X14380Y3791D02*
X14835Y3337D01*
X14380Y3847D02*
X14890Y3337D01*
X14431Y3907D02*
X15002Y3337D01*
X14487Y3907D02*
X15057Y3337D01*
X14380Y3634D02*
X14671Y3926D01*
X14380Y3903D02*
X14946Y3337D01*
X14380Y3411D02*
X14894Y3926D01*
X14380Y3356D02*
X14950Y3926D01*
X14380Y3578D02*
X14727Y3926D01*
X14380Y3467D02*
X14838Y3926D01*
X14380Y3523D02*
X14783Y3926D01*
X14416Y3337D02*
X15005Y3926D01*
X14950D02*
X15031Y4007D01*
X14498Y3926D02*
X15031D01*
X15005D02*
X15031Y3951D01*
X12539Y4184D02*
X13367Y3356D01*
X12762Y4296D02*
X13702Y3356D01*
X12539Y4073D02*
X13256Y3356D01*
X12539Y4129D02*
X13312Y3356D01*
X12933D02*
X13848Y4272D01*
X12989Y3356D02*
X13848Y4216D01*
X12825Y4289D02*
X13757Y3356D01*
X12878Y4291D02*
X13813Y3356D01*
X12539Y3631D02*
X13702Y4793D01*
X12539Y3575D02*
X13757Y4793D01*
X12539Y3742D02*
X13590Y4793D01*
X12539Y3687D02*
X13646Y4793D01*
X12822Y3356D02*
X13848Y4383D01*
X12877Y3356D02*
X13848Y4328D01*
X12677Y4325D02*
X13646Y3356D01*
X12766D02*
X13848Y4439D01*
X12925Y4300D02*
X13869Y3356D01*
X12967Y4314D02*
X13924Y3356D01*
X13039Y4353D02*
X13967Y3425D01*
X13005Y4331D02*
X13967Y3370D01*
X13100Y3356D02*
X13848Y4105D01*
X13044Y3356D02*
X13848Y4161D01*
X13156Y3356D02*
X13848Y4049D01*
X13070Y4377D02*
X13967Y3481D01*
X12654Y3356D02*
X13848Y4550D01*
X12622Y3379D02*
X14036Y4793D01*
X12566Y3435D02*
X13924Y4793D01*
X12594Y3407D02*
X13980Y4793D01*
X12710Y3356D02*
X13848Y4495D01*
X13098Y4405D02*
X13967Y3537D01*
X13207Y4463D02*
X13967Y3704D01*
X13124Y4435D02*
X13967Y3592D01*
X13168Y4447D02*
X13967Y3648D01*
X13297Y4540D02*
X13848Y3989D01*
X13269Y4512D02*
X13848Y3933D01*
X13325Y4568D02*
X13848Y4045D01*
Y3907D02*
Y4596D01*
X13381Y4624D02*
X13848Y4156D01*
X13353Y4596D02*
X13848Y4100D01*
X13436Y4679D02*
X13848Y4267D01*
X13408Y4652D02*
X13848Y4212D01*
X13256Y4500D02*
X13550Y4793D01*
X13464Y4707D02*
X13848Y4323D01*
X13520Y4763D02*
X13848Y4434D01*
X13492Y4735D02*
X13848Y4379D01*
X13548Y4791D02*
X13848Y4490D01*
X13656Y4793D02*
X13853Y4596D01*
X13601Y4793D02*
X13848Y4546D01*
Y4550D02*
X13895Y4596D01*
X13241Y4485D02*
X13967Y3759D01*
X13712Y4793D02*
X13909Y4596D01*
X13768Y4793D02*
X13965Y4596D01*
X13895D02*
X14091Y4793D01*
X13935D02*
X14132Y4596D01*
X13879Y4793D02*
X14076Y4596D01*
X13848D02*
X14498D01*
X13950D02*
X14147Y4793D01*
X13991D02*
X14187Y4596D01*
X13823Y4793D02*
X14020Y4596D01*
X13550Y4793D02*
X14321D01*
X14102D02*
X14299Y4596D01*
X14117D02*
X14314Y4793D01*
X14006Y4596D02*
X14203Y4793D01*
X14062Y4596D02*
X14259Y4793D01*
X14046D02*
X14243Y4596D01*
X14351Y4656D02*
X14410Y4596D01*
X14396D02*
X14455Y4656D01*
X14284Y4596D02*
X14343Y4656D01*
X14340Y4596D02*
X14399Y4656D01*
X14418Y4578D02*
X14498D01*
X14629Y4656D02*
X14707Y4578D01*
X14407Y4656D02*
X14466Y4596D01*
X14451D02*
X14510Y4656D01*
X14229Y4596D02*
X14321Y4689D01*
X14462Y4656D02*
X14540Y4578D01*
X14173Y4596D02*
X14321Y4744D01*
X14158Y4793D02*
X14354Y4596D01*
X14574Y4656D02*
X14651Y4578D01*
X14600D02*
X14677Y4656D01*
X14498Y4587D02*
X14566Y4656D01*
X14545Y4578D02*
X14622Y4656D01*
X14518D02*
X14595Y4578D01*
X14712D02*
X14789Y4656D01*
X14498Y4578D02*
X15031D01*
Y3926D02*
Y4578D01*
X14741Y4656D02*
X14818Y4578D01*
X14985D02*
X15031Y4532D01*
X14767Y4578D02*
X14845Y4656D01*
X14796D02*
X14874Y4578D01*
X14656D02*
X14733Y4656D01*
X14685D02*
X14762Y4578D01*
X14908Y4656D02*
X14985Y4578D01*
X14934D02*
X15030Y4674D01*
X14823Y4578D02*
X14900Y4656D01*
X14879Y4578D02*
X14956Y4656D01*
X14852D02*
X14929Y4578D01*
X14321Y4686D02*
X14351Y4656D01*
X14321Y4741D02*
X14407Y4656D01*
X14269Y4793D02*
X14321Y4741D01*
X14213Y4793D02*
X14321Y4686D01*
Y4656D02*
Y4793D01*
X14577Y5877D02*
X14636Y5819D01*
X14577D02*
Y5896D01*
Y5835D02*
X14637Y5896D01*
X14577Y6526D02*
Y6939D01*
Y6713D02*
X14764Y6526D01*
X14577Y6601D02*
X14652Y6526D01*
X14577Y6657D02*
X14708Y6526D01*
X14671Y5819D02*
X14748Y5896D01*
X14726D02*
X14803Y5819D01*
X14614Y5896D02*
X14691Y5819D01*
X14670Y5896D02*
X14747Y5819D01*
X14616D02*
X14693Y5896D01*
X14727Y5819D02*
X14804Y5896D01*
X14321Y4656D02*
X14970D01*
X14781Y5896D02*
X14858Y5819D01*
X14783D02*
X14860Y5896D01*
X14890Y4674D02*
X14970D01*
X14837Y5896D02*
X14914Y5819D01*
X14838D02*
X14915Y5896D01*
X14577Y6935D02*
X14986Y6526D01*
X14599D02*
X15012Y6939D01*
X14577Y6768D02*
X14819Y6526D01*
X14577Y6880D02*
X14931Y6526D01*
X14948Y5896D02*
X15025Y5819D01*
X14950D02*
X15027Y5896D01*
X14893D02*
X14970Y5819D01*
X14894D02*
X14971Y5896D01*
X14629Y6939D02*
X15042Y6526D01*
X14729Y197D02*
X15156Y625D01*
X14722Y722D02*
X15246Y197D01*
X13101Y2175D02*
X15079Y197D01*
X14673D02*
X15097Y620D01*
X14840Y197D02*
X15301Y657D01*
X14914Y640D02*
X15358Y197D01*
X14784D02*
X15223Y636D01*
X14833Y666D02*
X15302Y197D01*
X13157Y2175D02*
X15135Y197D01*
X13212Y2175D02*
X15191Y197D01*
X14883Y2175D02*
X15079Y1978D01*
X12589Y2175D02*
X15089D01*
X14994D02*
X15202Y1967D01*
X15050Y2175D02*
X15276Y1949D01*
X15037Y2175D02*
X15089Y2227D01*
X14938Y2175D02*
X15138Y1976D01*
X14983Y627D02*
X15413Y197D01*
X14951D02*
X15551Y797D01*
X14896Y197D02*
X15400Y701D01*
X15045Y621D02*
X15469Y197D01*
X15007D02*
X15551Y741D01*
X15089Y2192D02*
X15366Y1915D01*
X15063Y197D02*
X15551Y685D01*
X14936Y1963D02*
X15551Y2578D01*
X14859Y1942D02*
X15551Y2634D01*
X15062Y1978D02*
X15551Y2467D01*
X15003Y1974D02*
X15551Y2523D01*
X15089Y2248D02*
X15525Y1811D01*
X15089Y2303D02*
X15551Y1841D01*
X15089Y2582D02*
X15551Y2119D01*
X15089Y2470D02*
X15551Y2008D01*
X15089Y2526D02*
X15551Y2063D01*
X14803Y3926D02*
X15551Y3177D01*
X14747Y3926D02*
X15551Y3121D01*
X14380Y3337D02*
X15089D01*
X14858Y3926D02*
X15551Y3233D01*
X15002Y3337D02*
X15089Y3250D01*
X14914Y3926D02*
X15551Y3288D01*
X15057Y3337D02*
X15089Y3305D01*
X15085Y3337D02*
X15551Y3803D01*
X14580Y3926D02*
X15551Y2954D01*
X14524Y3926D02*
X15551Y2899D01*
X14528Y3337D02*
X15551Y4360D01*
X14472Y3337D02*
X15551Y4416D01*
X14691Y3926D02*
X15551Y3066D01*
X14636Y3926D02*
X15551Y3010D01*
X14639Y3337D02*
X15551Y4249D01*
X14695Y3337D02*
X15551Y4193D01*
X14584Y3337D02*
X15551Y4304D01*
X14862Y3337D02*
X15551Y4026D01*
X14918Y3337D02*
X15551Y3970D01*
X14970Y3926D02*
X15551Y3344D01*
X14973Y3337D02*
X15551Y3915D01*
X15025Y3926D02*
X15551Y3400D01*
X15029Y3337D02*
X15551Y3859D01*
X15031Y4031D02*
X15551Y3511D01*
X15031Y3975D02*
X15551Y3455D01*
X14751Y3337D02*
X15551Y4137D01*
X14806Y3337D02*
X15551Y4082D01*
X15031Y4142D02*
X15551Y3622D01*
X15031Y4087D02*
X15551Y3567D01*
X15031Y4254D02*
X15551Y3734D01*
X15031Y4198D02*
X15551Y3678D01*
X15031Y4421D02*
X15551Y3901D01*
X15031Y4309D02*
X15551Y3789D01*
X15031Y4365D02*
X15551Y3845D01*
X15230Y197D02*
X15551Y518D01*
X15286Y197D02*
X15551Y463D01*
X15101Y620D02*
X15525Y197D01*
X15174D02*
X15551Y574D01*
X15453Y197D02*
X15551Y295D01*
X15508Y197D02*
X15551Y240D01*
X15341Y197D02*
X15551Y407D01*
X15397Y197D02*
X15551Y351D01*
X15153Y624D02*
X15551Y226D01*
X15118Y197D02*
X15551Y630D01*
X15247Y641D02*
X15551Y337D01*
X15202Y631D02*
X15551Y282D01*
X15290Y654D02*
X15551Y393D01*
Y197D02*
Y811D01*
X15370Y686D02*
X15551Y504D01*
X15331Y669D02*
X15551Y449D01*
X15442Y725D02*
X15551Y616D01*
X15407Y705D02*
X15551Y560D01*
X15418Y1888D02*
X15551Y2021D01*
X15452Y1867D02*
X15551Y1966D01*
X15507Y772D02*
X15551Y727D01*
X15475Y748D02*
X15551Y671D01*
X15485Y1844D02*
X15551Y1910D01*
X15516Y1819D02*
X15551Y1854D01*
X15089Y2415D02*
X15551Y1952D01*
X15089Y2359D02*
X15551Y1896D01*
X15117Y1977D02*
X15551Y2411D01*
X15168Y1972D02*
X15551Y2356D01*
X15343Y1925D02*
X15551Y2133D01*
X15381Y1907D02*
X15551Y2077D01*
X15216Y1964D02*
X15551Y2300D01*
X15303Y1940D02*
X15551Y2189D01*
X15261Y1954D02*
X15551Y2244D01*
X15089Y2338D02*
X15551Y2801D01*
X15089Y2749D02*
X15551Y2286D01*
X15089Y2394D02*
X15551Y2857D01*
X15089Y2804D02*
X15551Y2342D01*
X15089Y2227D02*
X15551Y2690D01*
X15089Y2637D02*
X15551Y2175D01*
X15089Y2283D02*
X15551Y2745D01*
X15089Y2693D02*
X15551Y2230D01*
X15089Y2175D02*
Y3337D01*
Y2561D02*
X15551Y3024D01*
X15089Y2617D02*
X15551Y3079D01*
X15089Y3027D02*
X15551Y2565D01*
X15089Y2450D02*
X15551Y2912D01*
X15089Y2860D02*
X15551Y2397D01*
X15089Y2971D02*
X15551Y2509D01*
X15089Y2916D02*
X15551Y2453D01*
X15089Y2505D02*
X15551Y2968D01*
X15089Y2784D02*
X15551Y3246D01*
X15089Y3194D02*
X15551Y2732D01*
X15089Y2839D02*
X15551Y3302D01*
X15089Y3250D02*
X15551Y2787D01*
X15089Y2672D02*
X15551Y3135D01*
X15089Y3083D02*
X15551Y2620D01*
X15089Y2728D02*
X15551Y3191D01*
X15089Y3138D02*
X15551Y2676D01*
X15089Y3174D02*
X15551Y3636D01*
X15089Y3118D02*
X15551Y3580D01*
X15089Y3285D02*
X15551Y3747D01*
X15089Y3229D02*
X15551Y3692D01*
X15089Y2895D02*
X15551Y3358D01*
X15089Y3305D02*
X15551Y2843D01*
X15089Y3062D02*
X15551Y3525D01*
X15089Y2951D02*
X15551Y3413D01*
X15089Y3007D02*
X15551Y3469D01*
X15031Y4508D02*
X15197Y4674D01*
X15031Y4341D02*
X15364Y4674D01*
X15031Y4564D02*
X15141Y4674D01*
X14970D02*
X15504D01*
X15031Y4285D02*
X15419Y4674D01*
X15031Y4230D02*
X15475Y4674D01*
X15031Y4452D02*
X15252Y4674D01*
X15031Y4397D02*
X15308Y4674D01*
X14990Y4578D02*
X15085Y4674D01*
X15248Y5374D02*
X15295Y5326D01*
X15248Y5429D02*
X15351Y5326D01*
X15248Y5485D02*
X15406Y5326D01*
X15248Y5541D02*
X15462Y5326D01*
X15031Y4007D02*
X15551Y4527D01*
X15031Y4477D02*
X15551Y3956D01*
X15001Y4674D02*
X15551Y4123D01*
X14963Y4656D02*
X15551Y4068D01*
X15031Y4532D02*
X15551Y4012D01*
X15031Y3951D02*
X15551Y4471D01*
X15031Y4118D02*
X15551Y4638D01*
X15031Y4063D02*
X15551Y4583D01*
X15057Y4674D02*
X15551Y4179D01*
X15031Y4174D02*
X15551Y4694D01*
X15168Y4674D02*
X15551Y4291D01*
X15112Y4674D02*
X15551Y4235D01*
X15248Y5596D02*
X15551Y5293D01*
X15224Y4674D02*
X15551Y4346D01*
X15248Y5326D02*
X15504D01*
X15248Y5337D02*
X15551Y5641D01*
X15248Y5652D02*
X15551Y5348D01*
X14577Y5819D02*
X15248D01*
X15004Y5896D02*
X15081Y5819D01*
X15060Y5896D02*
X15137Y5819D01*
X15117D02*
X15194Y5896D01*
X15192Y5819D02*
X15248Y5763D01*
X15061Y5819D02*
X15138Y5896D01*
X15115D02*
X15192Y5819D01*
X14577Y6526D02*
X15266D01*
X14577Y5896D02*
X15266D01*
X14655Y6526D02*
X15068Y6939D01*
X14684D02*
X15098Y6526D01*
X15005Y5819D02*
X15082Y5896D01*
X15172Y5819D02*
X15250Y5896D01*
X15194D02*
X15266Y5968D01*
X15209Y6526D02*
X15266Y6469D01*
X14877Y6526D02*
X15291Y6939D01*
X15171Y5896D02*
X15551Y5515D01*
X15248Y5708D02*
X15551Y5404D01*
X15228Y5819D02*
X15551Y6142D01*
X15227Y5896D02*
X15551Y5571D01*
X15248Y5560D02*
X15551Y5863D01*
X15248Y5393D02*
X15551Y5696D01*
X15248Y5671D02*
X15551Y5975D01*
X15248Y5615D02*
X15551Y5919D01*
X14963Y6939D02*
X15551Y6351D01*
X14907Y6939D02*
X15551Y6295D01*
X14933Y6526D02*
X15346Y6939D01*
X14989Y6526D02*
X15402Y6939D01*
X15074D02*
X15551Y6462D01*
X15019Y6939D02*
X15551Y6406D01*
X15156Y6526D02*
X15551Y6921D01*
X15211Y6526D02*
X15551Y6865D01*
X15130Y6939D02*
X15551Y6518D01*
X15335Y4674D02*
X15551Y4458D01*
X15279Y4674D02*
X15551Y4402D01*
X15446Y4674D02*
X15551Y4569D01*
X15391Y4674D02*
X15551Y4513D01*
X15475Y4674D02*
X15504Y4702D01*
X15502Y4674D02*
X15551Y4625D01*
X15504Y4702D02*
X15551Y4750D01*
X15504Y4728D02*
X15551Y4680D01*
X15419Y4674D02*
X15504Y4758D01*
X15551Y4805D01*
X15462Y5326D02*
X15504Y5285D01*
Y4839D02*
X15551Y4792D01*
X15504Y4674D02*
Y5326D01*
X15551Y1787D02*
Y8658D01*
X15504Y4895D02*
X15551Y4847D01*
X15504Y4784D02*
X15551Y4736D01*
X15504Y4813D02*
X15551Y4861D01*
X15504Y5062D02*
X15551Y5014D01*
X15504Y4980D02*
X15551Y5028D01*
X15504Y5118D02*
X15551Y5070D01*
X15504Y5036D02*
X15551Y5084D01*
X15504Y4951D02*
X15551Y4903D01*
X15504Y4869D02*
X15551Y4917D01*
X15504Y5006D02*
X15551Y4959D01*
X15504Y4925D02*
X15551Y4972D01*
X15504Y5259D02*
X15551Y5306D01*
X15504Y5285D02*
X15551Y5237D01*
X15293Y5326D02*
X15551Y5585D01*
X15504Y5315D02*
X15551Y5362D01*
X15504Y5173D02*
X15551Y5126D01*
X15504Y5092D02*
X15551Y5139D01*
X15504Y5203D02*
X15551Y5251D01*
X15504Y5148D02*
X15551Y5195D01*
X15504Y5229D02*
X15551Y5181D01*
X15248Y5326D02*
Y5819D01*
Y5448D02*
X15551Y5752D01*
X15248Y5504D02*
X15551Y5808D01*
X15248Y5763D02*
X15551Y5460D01*
X15404Y5326D02*
X15551Y5474D01*
X15460Y5326D02*
X15551Y5418D01*
X15266Y5912D02*
X15551Y5627D01*
X15348Y5326D02*
X15551Y5529D01*
X15266Y6024D02*
X15551Y5738D01*
X15248Y5727D02*
X15551Y6030D01*
X15266Y5896D02*
Y6526D01*
X15248Y5782D02*
X15551Y6086D01*
X15266Y6079D02*
X15551Y5794D01*
X15266Y5968D02*
X15551Y5682D01*
X15266Y5912D02*
X15551Y6197D01*
X15266Y6135D02*
X15551Y5850D01*
X15266Y6191D02*
X15551Y5905D01*
X15266Y6079D02*
X15551Y6364D01*
X15266Y6358D02*
X15551Y6072D01*
X15266Y6135D02*
X15551Y6420D01*
X15266Y6413D02*
X15551Y6128D01*
X15266Y5968D02*
X15551Y6253D01*
X15266Y6246D02*
X15551Y5961D01*
X15266Y6023D02*
X15551Y6309D01*
X15266Y6302D02*
X15551Y6017D01*
X15266Y6413D02*
X15551Y6698D01*
X15266Y6357D02*
X15551Y6643D01*
X15266Y6524D02*
X15551Y6810D01*
X15266Y6469D02*
X15551Y6754D01*
X15266Y6190D02*
X15551Y6476D01*
X15266Y6469D02*
X15551Y6184D01*
X15266Y6302D02*
X15551Y6587D01*
X15266Y6525D02*
X15551Y6239D01*
X15266Y6246D02*
X15551Y6531D01*
X12796Y9789D02*
X13071Y10064D01*
X12852Y9789D02*
X13089Y10027D01*
X12622Y10115D02*
X12948Y9789D01*
X12550D02*
X13089D01*
X13019D02*
X13089Y9860D01*
Y9789D02*
Y10047D01*
X12907Y9789D02*
X13089Y9971D01*
X12963Y9789D02*
X13089Y9915D01*
X12629Y9789D02*
X12955Y10115D01*
X12677D02*
X13003Y9789D01*
X12566Y10115D02*
X12892Y9789D01*
X12573D02*
X12899Y10115D01*
X12685Y9789D02*
X13010Y10115D01*
X12733D02*
X13059Y9789D01*
X12740D02*
X13066Y10115D01*
X12789D02*
X13089Y9815D01*
X14293Y9836D02*
X14576Y9552D01*
X14311Y7320D02*
Y7378D01*
Y7320D02*
X14391Y7400D01*
X14311Y7368D02*
X14335Y7344D01*
X14311Y7351D02*
X14347Y7387D01*
X14293Y9892D02*
X14584Y9601D01*
X14293Y9947D02*
X14597Y9643D01*
X14293Y10003D02*
X14614Y9682D01*
X14304Y10047D02*
X14635Y9717D01*
X14293Y9781D02*
Y10047D01*
Y9783D02*
X14558Y10048D01*
X14293Y9839D02*
X14569Y10114D01*
X12900Y10115D02*
X13089Y9926D01*
X12845Y10115D02*
X13089Y9871D01*
X13012Y10115D02*
X13071Y10056D01*
X12956Y10115D02*
X13089Y9982D01*
X14293Y10047D02*
Y10100D01*
X14311Y10208D02*
X14564Y9955D01*
X13071Y10047D02*
Y10115D01*
X13089Y10047D02*
Y10100D01*
X14311Y10302D02*
X14558Y10549D01*
X14311Y10709D02*
X14563Y10456D01*
X14311Y10764D02*
X14557Y10518D01*
X14311Y10820D02*
X14560Y10571D01*
X14311Y10047D02*
Y10547D01*
Y10263D02*
X14557Y10017D01*
X14311Y10247D02*
X14558Y10494D01*
X14311Y10319D02*
X14560Y10070D01*
X14311Y10191D02*
X14566Y10445D01*
X14311Y10152D02*
X14589Y9874D01*
X14293Y9894D02*
X14608Y10210D01*
X14293Y10006D02*
X14614Y10327D01*
X14293Y9950D02*
X14638Y10295D01*
X14311Y10375D02*
X14569Y10117D01*
X14311Y10080D02*
X14594Y10363D01*
X14311Y10135D02*
X14578Y10402D01*
X14311Y10430D02*
X14583Y10158D01*
X14311Y10414D02*
X14610Y10712D01*
X14311Y10469D02*
X14637Y10796D01*
X14311Y10581D02*
X14594Y10864D01*
X14311Y10525D02*
X14614Y10828D01*
X14311Y10486D02*
X14601Y10196D01*
X14311Y10542D02*
X14622Y10231D01*
X14311Y10358D02*
X14569Y10616D01*
X14311Y10597D02*
X14646Y10262D01*
X14311Y10653D02*
X14589Y10376D01*
X14448Y7462D02*
X14498Y7513D01*
X14462Y7446D02*
X14498Y7483D01*
X14577Y6893D02*
X14622Y6939D01*
X14577Y6838D02*
X14678Y6939D01*
X14471Y7486D02*
X14498Y7459D01*
Y7457D02*
Y7513D01*
X14554Y7569D01*
X14498Y7483D02*
X14584Y7569D01*
X14583Y7597D02*
X14611Y7569D01*
X14554D02*
X14613Y7628D01*
X14584Y7569D02*
X14643Y7628D01*
X14611Y7625D02*
X14667Y7569D01*
X14695Y8258D02*
Y8761D01*
X14640Y7569D02*
X14699Y7628D01*
X14577Y6671D02*
X14845Y6939D01*
X14577Y6824D02*
X14875Y6526D01*
X14577Y6782D02*
X14734Y6939D01*
X14577Y6726D02*
X14790Y6939D01*
X14577Y6671D02*
X14845Y6939D01*
X14577Y6615D02*
X14901Y6939D01*
X14696Y7569D02*
X14755Y7628D01*
X14719D02*
X14778Y7569D01*
X14664Y7628D02*
X14723Y7569D01*
X14695Y8258D02*
X14734D01*
X14695Y8292D02*
X14734Y8331D01*
X14695Y8320D02*
X14734Y8281D01*
X14807Y7569D02*
X14866Y7628D01*
X14831D02*
X14890Y7569D01*
X14734Y8258D02*
Y8376D01*
X14775Y7628D02*
X14834Y7569D01*
X14751D02*
X14810Y7628D01*
X14382Y9729D02*
X14575Y9536D01*
X14505Y9606D02*
X14665Y9765D01*
X14450Y9661D02*
X14615Y9827D01*
X14478Y9634D02*
X14638Y9794D01*
X14695Y8376D02*
X14734Y8337D01*
X14695Y8348D02*
X14735Y8387D01*
X14533Y9578D02*
X14596Y9641D01*
X14332Y9766D02*
X14558Y9993D01*
X14311Y10096D02*
X14659Y9748D01*
X14311Y10547D02*
Y10618D01*
Y10547D02*
Y10618D01*
X14394Y9717D02*
X14578Y9901D01*
X14422Y9689D02*
X14595Y9862D01*
X14365Y9744D02*
X14566Y9945D01*
X14695Y8432D02*
X14735Y8392D01*
X14695Y8403D02*
X14750Y8458D01*
X14695Y8488D02*
X14743Y8439D01*
X14695Y8655D02*
X14807Y8542D01*
X14695Y8543D02*
X14759Y8479D01*
X14695Y8599D02*
X14781Y8513D01*
X14695Y8515D02*
X14862Y8682D01*
X14695Y8459D02*
X14913Y8677D01*
X14695Y8626D02*
X14777Y8708D01*
X14695Y8570D02*
X14817Y8693D01*
X14695Y8710D02*
X14835Y8570D01*
X14718Y8743D02*
X14863Y8598D01*
X14695Y8682D02*
X14741Y8728D01*
X14894Y8678D02*
X14918Y8654D01*
X14826Y8690D02*
X14890Y8626D01*
X13091Y15374D02*
X13268Y15551D01*
X13143D02*
X13320Y15374D01*
X13035D02*
X13213Y15551D01*
X13088D02*
X13265Y15374D01*
X13203D02*
X13380Y15551D01*
X13255D02*
X13432Y15374D01*
X13147D02*
X13324Y15551D01*
X13199D02*
X13376Y15374D01*
X12701D02*
X12879Y15551D01*
X12921D02*
X13098Y15374D01*
X12646D02*
X12823Y15551D01*
X12698D02*
X12875Y15374D01*
X12980D02*
X13157Y15551D01*
X13032D02*
X13209Y15374D01*
X12924D02*
X13101Y15551D01*
X12976D02*
X13153Y15374D01*
X13947Y14469D02*
X14004Y14412D01*
X13947Y14392D02*
X14004Y14450D01*
X13947Y14615D02*
X14004Y14673D01*
X13947Y14448D02*
X14004Y14505D01*
X13947Y14358D02*
X13994Y14311D01*
X13947D02*
X14004D01*
X13947Y14414D02*
X14004Y14356D01*
X13947Y14337D02*
X14004Y14394D01*
X13947Y14311D02*
Y14932D01*
Y14838D02*
X13987Y14878D01*
X13947Y14915D02*
X14086Y14775D01*
X13947Y14671D02*
X14004Y14728D01*
X13947Y14692D02*
X14004Y14634D01*
X13947Y14803D02*
X14004Y14746D01*
X13947Y14782D02*
X14015Y14850D01*
X13947Y14859D02*
X14031Y14775D01*
X13314Y15374D02*
X13491Y15551D01*
X13366D02*
X13543Y15374D01*
X13258D02*
X13435Y15551D01*
X13310D02*
X13488Y15374D01*
X13425D02*
X13602Y15551D01*
X13477D02*
X13655Y15374D01*
X13370D02*
X13547Y15551D01*
X13422D02*
X13599Y15374D01*
X12642Y15551D02*
X12819Y15374D01*
X12754Y15551D02*
X12931Y15374D01*
X12587Y15551D02*
X12764Y15374D01*
X12590D02*
X12767Y15551D01*
X12865D02*
X13042Y15374D01*
X12868D02*
X13046Y15551D01*
X12757Y15374D02*
X12934Y15551D01*
X12813Y15374D02*
X12990Y15551D01*
X12809D02*
X12986Y15374D01*
X13811Y15551D02*
X13989Y15374D01*
X13815D02*
X13992Y15551D01*
X13756D02*
X13933Y15374D01*
X13759D02*
X13936Y15551D01*
X13871Y15374D02*
X14048Y15551D01*
X13926Y15374D02*
X14103Y15551D01*
X13867D02*
X14025Y15394D01*
X13923Y15551D02*
X14057Y15417D01*
X13537Y15374D02*
X13714Y15551D01*
X13589D02*
X13766Y15374D01*
X13481D02*
X13658Y15551D01*
X13533D02*
X13710Y15374D01*
X13700Y15551D02*
X13877Y15374D01*
X13704D02*
X13881Y15551D01*
X13592Y15374D02*
X13769Y15551D01*
X13648Y15374D02*
X13825Y15551D01*
X13644D02*
X13822Y15374D01*
X14311Y10618D02*
Y10866D01*
Y10692D02*
X14485Y10866D01*
X14311Y10803D02*
X14374Y10866D01*
X14311Y10748D02*
X14429Y10866D01*
X14311Y10636D02*
X14541Y10866D01*
X14321D02*
X14569Y10617D01*
X14376Y10866D02*
X14583Y10659D01*
X14311Y10866D02*
X14593D01*
X13947Y14504D02*
X14004Y14561D01*
X13947Y14525D02*
X14004Y14467D01*
X13947Y14559D02*
X14004Y14617D01*
X13947Y14581D02*
X14004Y14523D01*
X13977Y14311D02*
X14004Y14338D01*
Y14311D02*
Y14775D01*
X13947Y14636D02*
X14004Y14579D01*
X14432Y10866D02*
X14601Y10697D01*
X14488Y10866D02*
X14622Y10732D01*
X14543Y10866D02*
X14647Y10763D01*
X14657Y14371D02*
X14718Y14311D01*
X14657D02*
X14774D01*
X14701D02*
X14774Y14384D01*
Y14328D02*
X14865Y14419D01*
X14657Y14427D02*
X14773Y14311D01*
X14657Y14483D02*
X14774Y14366D01*
X14657Y14539D02*
X14776Y14419D01*
X14657Y14311D02*
Y14775D01*
X14774Y14311D02*
Y14419D01*
Y14384D02*
X14809Y14419D01*
X14657Y14594D02*
X14832Y14419D01*
X14657Y14650D02*
X14888Y14419D01*
X13947Y14748D02*
X14004Y14690D01*
X13947Y14726D02*
X14046Y14826D01*
X13979Y15551D02*
X14092Y15438D01*
X13982Y15374D02*
X14159Y15551D01*
X14004Y14728D02*
X14051Y14775D01*
X14004D02*
X14152D01*
X14051D02*
X14081Y14805D01*
X14034Y15551D02*
X14131Y15454D01*
X14090Y15551D02*
X14174Y15467D01*
X14109Y15446D02*
X14215Y15551D01*
X14146D02*
X14223Y15474D01*
X14189Y15470D02*
X14271Y15551D01*
X14257D02*
X14345Y15463D01*
X14348Y15462D02*
X14438Y15551D01*
X14201D02*
X14278Y15474D01*
X14303Y15472D02*
X14382Y15551D01*
X14250Y15475D02*
X14326Y15551D01*
X14352Y14775D02*
X14657D01*
X14438Y14813D02*
X14476Y14775D01*
X14528Y14891D02*
X14643Y14775D01*
X14587D02*
X14657Y14706D01*
X14471Y14836D02*
X14532Y14775D01*
X14501Y14862D02*
X14587Y14775D01*
X14313Y15551D02*
X14445Y15419D01*
X14461Y15408D02*
X14605Y15551D01*
X14390Y15448D02*
X14493Y15551D01*
X14427Y15429D02*
X14549Y15551D01*
X14566Y15289D02*
X14827Y15551D01*
X14583Y15252D02*
X14883Y15551D01*
X14492Y15383D02*
X14660Y15551D01*
X14544Y15324D02*
X14772Y15551D01*
X14520Y15355D02*
X14716Y15551D01*
X14740Y6939D02*
X15153Y6526D01*
X14766D02*
X15179Y6939D01*
X14577Y6559D02*
X14957Y6939D01*
X14710Y6526D02*
X15124Y6939D01*
X14796D02*
X15209Y6526D01*
X14822D02*
X15235Y6939D01*
X14974Y7569D02*
X15033Y7628D01*
X14998D02*
X15057Y7569D01*
X15030D02*
X15089Y7628D01*
X15053D02*
X15112Y7569D01*
X14863D02*
X14922Y7628D01*
X14886D02*
X14945Y7569D01*
X15141D02*
X15200Y7628D01*
X15165D02*
X15224Y7569D01*
X15085D02*
X15144Y7628D01*
X15109D02*
X15168Y7569D01*
X14851Y6939D02*
X15265Y6526D01*
X15100D02*
X15551Y6977D01*
X14577Y6939D02*
X15423D01*
X15186D02*
X15551Y6573D01*
X15297Y6939D02*
X15551Y6685D01*
X15241Y6939D02*
X15551Y6629D01*
X15346Y6939D02*
X15423Y7016D01*
X15353Y6939D02*
X15551Y6740D01*
X14554Y7569D02*
X15423D01*
X15044Y6526D02*
X15551Y7033D01*
X15197Y7569D02*
X15256Y7628D01*
X15220D02*
X15279Y7569D01*
X15335D02*
X15423Y7481D01*
X15387Y7628D02*
X15551Y7464D01*
X15252Y7569D02*
X15311Y7628D01*
X15364Y7569D02*
X15423Y7628D01*
X15332D02*
X15391Y7569D01*
X14918D02*
X14977Y7628D01*
X14942D02*
X15001Y7569D01*
X15187Y8258D02*
X15423D01*
X14613Y7628D02*
X15423D01*
X15276D02*
X15335Y7569D01*
X15308D02*
X15367Y7628D01*
X15370Y8258D02*
X15423Y8205D01*
X15367Y7628D02*
X15423Y7684D01*
X14801Y8536D02*
X14941Y8677D01*
X15211Y8306D02*
X15259Y8258D01*
X15238Y8334D02*
X15314Y8258D01*
X15266Y8362D02*
X15370Y8258D01*
X15187Y8282D02*
X15514Y8609D01*
X15364Y12554D02*
X15514Y12405D01*
X15322Y8417D02*
X15551Y8188D01*
X15294Y8389D02*
X15551Y8132D01*
X15273Y8258D02*
X15551Y8536D01*
X15218Y8258D02*
X15551Y8591D01*
X15329Y8258D02*
X15551Y8480D01*
X15350Y8445D02*
X15551Y8244D01*
X15378Y8473D02*
X15551Y8299D01*
X15385Y8258D02*
X15551Y8424D01*
X15364Y12662D02*
X15551Y12475D01*
X15364Y12607D02*
X15551Y12420D01*
X15364Y12580D02*
X15551Y12767D01*
X15364Y12718D02*
X15551Y12531D01*
X15364Y12774D02*
X15551Y12587D01*
X15379Y12540D02*
X15551Y12712D01*
X15364Y12692D02*
X15551Y12879D01*
X15364Y12636D02*
X15551Y12823D01*
X15364Y12829D02*
X15551Y12642D01*
X15423Y6980D02*
X15551Y6852D01*
X15408Y6939D02*
X15551Y6796D01*
X15402Y6939D02*
X15423Y6960D01*
Y7035D02*
X15551Y6907D01*
X15423Y7016D02*
X15551Y7144D01*
X15423Y7091D02*
X15551Y6963D01*
X15423Y7072D02*
X15551Y7200D01*
X15423Y7147D02*
X15551Y7019D01*
X15423Y7127D02*
X15551Y7255D01*
X15423Y7202D02*
X15551Y7074D01*
X15391Y7569D02*
X15423Y7536D01*
Y7258D02*
X15551Y7130D01*
X15423Y6939D02*
Y7569D01*
Y7183D02*
X15551Y7311D01*
X15423Y7628D02*
Y8258D01*
Y7314D02*
X15551Y7186D01*
X15423Y7350D02*
X15551Y7478D01*
X15423Y7425D02*
X15551Y7297D01*
X15423Y7406D02*
X15551Y7534D01*
X15423Y7481D02*
X15551Y7353D01*
X15423Y7239D02*
X15551Y7367D01*
X15423Y6960D02*
X15551Y7088D01*
X15423Y7294D02*
X15551Y7422D01*
X15423Y7369D02*
X15551Y7241D01*
X15423Y7517D02*
X15551Y7645D01*
X15423Y7536D02*
X15551Y7408D01*
X15419Y7569D02*
X15551Y7701D01*
X15423Y7517D02*
X15551Y7645D01*
X15423Y7648D02*
X15551Y7520D01*
X15423Y7461D02*
X15551Y7589D01*
X15423Y7759D02*
X15551Y7631D01*
X15423Y7703D02*
X15551Y7576D01*
X15423Y7628D02*
X15551Y7756D01*
X15423Y7926D02*
X15551Y7798D01*
X15423Y7795D02*
X15551Y7923D01*
X15423Y7982D02*
X15551Y7854D01*
X15423Y7851D02*
X15551Y7979D01*
X15423Y7815D02*
X15551Y7687D01*
X15423Y7684D02*
X15551Y7812D01*
X15423Y7871D02*
X15551Y7743D01*
X15423Y7740D02*
X15551Y7868D01*
X15423Y8074D02*
X15551Y8202D01*
X15423Y8149D02*
X15551Y8021D01*
X15423Y8129D02*
X15551Y8257D01*
X15423Y8205D02*
X15551Y8077D01*
X15423Y8038D02*
X15551Y7910D01*
X15423Y7907D02*
X15551Y8035D01*
X15423Y8018D02*
X15551Y8146D01*
X15423Y7962D02*
X15551Y8090D01*
X15423Y8093D02*
X15551Y7965D01*
X15423Y8241D02*
X15551Y8369D01*
X15423Y8185D02*
X15551Y8313D01*
X15433Y8529D02*
X15551Y8411D01*
X15405Y8501D02*
X15551Y8355D01*
X15489Y8584D02*
X15551Y8522D01*
X15461Y8556D02*
X15551Y8466D01*
X15525Y8621D02*
X15551Y8647D01*
X15517Y8612D02*
X15551Y8578D01*
X15463Y12456D02*
X15551Y12545D01*
X15490Y12428D02*
X15551Y12489D01*
X15407Y12512D02*
X15551Y12656D01*
X15435Y12484D02*
X15551Y12600D01*
X15518Y12400D02*
X15551Y12433D01*
X14774Y14419D02*
X15463D01*
X14657Y14706D02*
X14943Y14419D01*
X14657Y14761D02*
X14999Y14419D01*
X15306Y12888D02*
X15364Y12829D01*
Y12554D02*
Y12888D01*
X15332Y12917D02*
X15361Y12888D01*
X15266D02*
X15364D01*
X14571Y14958D02*
X15110Y14419D01*
X14588Y14997D02*
X15166Y14419D01*
X14551Y14923D02*
X15055Y14419D01*
X14553Y15311D02*
X15444Y14419D01*
X14608Y15089D02*
X15277Y14419D01*
X14608Y15144D02*
X15333Y14419D01*
X14601Y15040D02*
X15222Y14419D01*
X14597Y15211D02*
X15389Y14419D01*
X15310D02*
X15551Y14660D01*
X15338Y12888D02*
X15551Y13101D01*
X15199Y14419D02*
X15551Y14772D01*
X15254Y14419D02*
X15551Y14716D01*
X15364Y12747D02*
X15551Y12934D01*
X15364Y12885D02*
X15551Y12698D01*
X15364Y12859D02*
X15551Y13046D01*
X15364Y12803D02*
X15551Y12990D01*
X14368Y15551D02*
X15551Y14368D01*
X14657Y14323D02*
X15551Y15217D01*
X14809Y14419D02*
X15551Y15161D01*
X14657Y14379D02*
X15551Y15273D01*
X15087Y14419D02*
X15551Y14883D01*
X15143Y14419D02*
X15551Y14827D01*
X14865Y14419D02*
X15551Y15106D01*
X15032Y14419D02*
X15551Y14939D01*
X14976Y14419D02*
X15551Y14994D01*
X14441Y14775D02*
X15217Y15551D01*
X14497Y14775D02*
X15273Y15551D01*
X14597Y15210D02*
X14939Y15551D01*
X14574Y14964D02*
X15161Y15551D01*
X14657Y14601D02*
X15551Y15496D01*
X14657Y14546D02*
X15551Y15440D01*
X14606Y15163D02*
X14994Y15551D01*
X14602Y15048D02*
X15106Y15551D01*
X14591D02*
X15551Y14591D01*
X14535Y15551D02*
X15551Y14535D01*
X14552Y14775D02*
X15328Y15551D01*
X14608Y14775D02*
X15384Y15551D01*
X14657Y14657D02*
X15551Y15551D01*
X14647D02*
X15551Y14647D01*
X14609Y15110D02*
X15050Y15551D01*
X14657Y14713D02*
X15495Y15551D01*
X14657Y14769D02*
X15440Y15551D01*
X14657Y14434D02*
X15551Y15329D01*
X14424Y15551D02*
X15551Y14424D01*
X14657Y14490D02*
X15551Y15384D01*
X14480Y15551D02*
X15551Y14480D01*
X14702Y15551D02*
X15551Y14702D01*
X14920Y14419D02*
X15551Y15050D01*
X15036Y15551D02*
X15551Y15036D01*
X14814Y15551D02*
X15551Y14814D01*
X14869Y15551D02*
X15551Y14869D01*
X14758Y15551D02*
X15551Y14758D01*
X14981Y15551D02*
X15551Y14981D01*
X14925Y15551D02*
X15551Y14925D01*
X15148Y15551D02*
X15551Y15148D01*
X15092Y15551D02*
X15551Y15092D01*
X15315Y15551D02*
X15551Y15315D01*
X15203Y15551D02*
X15551Y15203D01*
X15259Y15551D02*
X15551Y15259D01*
X15397Y12963D02*
X15551Y12809D01*
X15366Y12938D02*
X15551Y12754D01*
X15449Y13022D02*
X15551Y12921D01*
X15425Y12991D02*
X15551Y12865D01*
X15489Y13094D02*
X15551Y13032D01*
X15471Y13057D02*
X15551Y12976D01*
X15489Y13095D02*
X15551Y13157D01*
X15503Y13136D02*
X15551Y13088D01*
X15510Y13172D02*
X15551Y13213D01*
X15374Y13513D02*
Y13770D01*
X15508Y13298D02*
X15551Y13255D01*
X15512Y13183D02*
X15551Y13143D01*
Y12356D02*
Y15551D01*
X15510Y13283D02*
X15551Y13324D01*
X15515Y13235D02*
X15551Y13199D01*
X15515Y13232D02*
X15551Y13268D01*
X15374Y13599D02*
X15551Y13422D01*
X15374Y13543D02*
X15551Y13366D01*
X15420Y13471D02*
X15551Y13603D01*
X15445Y13441D02*
X15551Y13547D01*
X15500Y13329D02*
X15551Y13380D01*
X15480Y13381D02*
X15551Y13310D01*
X15467Y13407D02*
X15551Y13491D01*
X15486Y13370D02*
X15551Y13435D01*
X15374Y13710D02*
X15551Y13533D01*
X15374Y13655D02*
X15551Y13477D01*
X15374Y13766D02*
X15551Y13589D01*
X15374Y13537D02*
X15551Y13714D01*
X15374Y13592D02*
X15551Y13770D01*
X15391Y13498D02*
X15551Y13658D01*
X15463Y13789D02*
X15551Y13700D01*
X15426Y13770D02*
X15551Y13644D01*
X15374Y13648D02*
X15551Y13825D01*
X15374Y13704D02*
X15440Y13770D01*
X15374D02*
X15463D01*
X15384D02*
X15463Y13848D01*
X15440Y13770D02*
X15463Y13792D01*
X15551Y13881D01*
X15463Y13844D02*
X15551Y13756D01*
X15463Y13848D02*
X15551Y13937D01*
X15463Y13900D02*
X15551Y13811D01*
X15463Y14011D02*
X15551Y13923D01*
X15463Y13956D02*
X15551Y13867D01*
X15389Y14419D02*
X15463Y14345D01*
Y13959D02*
X15551Y14048D01*
X15463Y13770D02*
Y14419D01*
Y13904D02*
X15551Y13992D01*
X15463Y14123D02*
X15551Y14034D01*
X15463Y14067D02*
X15551Y13979D01*
X15463Y14015D02*
X15551Y14104D01*
X15463Y14290D02*
X15551Y14201D01*
X15463Y14182D02*
X15551Y14271D01*
X15463Y14345D02*
X15551Y14257D01*
X15463Y14238D02*
X15551Y14326D01*
X15463Y14178D02*
X15551Y14090D01*
X15463Y14071D02*
X15551Y14159D01*
X15463Y14234D02*
X15551Y14146D01*
X15463Y14126D02*
X15551Y14215D01*
X15421Y14419D02*
X15551Y14549D01*
X15366Y14419D02*
X15551Y14605D01*
X15426Y15551D02*
X15551Y15426D01*
X15370Y15551D02*
X15551Y15370D01*
X15463Y14401D02*
X15551Y14313D01*
X15463Y14293D02*
X15551Y14382D01*
X15482Y15551D02*
X15551Y15482D01*
X15463Y14349D02*
X15551Y14438D01*
X15463Y14405D02*
X15551Y14493D01*
X4695Y1959D02*
X5222Y1431D01*
X4528Y1959D02*
X4695D01*
X4528D02*
Y2480D01*
X3130Y1959D02*
X4528D01*
X3120Y1949D02*
Y2677D01*
X3110Y1260D02*
Y2667D01*
X6510Y1181D02*
X6549Y1220D01*
X7244D01*
X7559Y1535D01*
X640Y4990D02*
X906Y4724D01*
X640Y4990D02*
Y9419D01*
X1220Y10000D01*
X394Y4213D02*
X1220Y3386D01*
X394Y4213D02*
Y10591D01*
X614Y10811D01*
X197Y269D02*
X269Y197D01*
X197Y325D02*
X325Y197D01*
X197Y380D02*
X380Y197D01*
X197Y436D02*
X436Y197D01*
X197Y492D02*
X492Y197D01*
X197Y603D02*
X603Y197D01*
X253D02*
X682Y627D01*
X197Y197D02*
X653Y653D01*
X197Y547D02*
X547Y197D01*
X197D02*
X653Y653D01*
X197Y659D02*
X659Y197D01*
X197Y587D02*
X550Y940D01*
X197Y642D02*
X564Y1009D01*
X197Y1216D02*
X551Y861D01*
X197Y698D02*
X623Y1124D01*
X197Y1160D02*
X568Y789D01*
X197Y364D02*
X584Y751D01*
X197Y253D02*
X627Y682D01*
X197Y308D02*
X603Y715D01*
X197Y531D02*
X549Y883D01*
X197Y420D02*
X567Y790D01*
X197Y475D02*
X555Y834D01*
X475Y197D02*
X834Y555D01*
X531Y197D02*
X883Y549D01*
X308Y197D02*
X715Y603D01*
X420Y197D02*
X790Y567D01*
X364Y197D02*
X751Y584D01*
X789Y568D02*
X1160Y197D01*
X809D02*
X1311Y699D01*
X754Y197D02*
X1256Y699D01*
X587Y197D02*
X940Y550D01*
X642Y197D02*
X1009Y564D01*
X698Y197D02*
X1124Y623D01*
X197Y714D02*
X714Y197D01*
X197Y770D02*
X770Y197D01*
X197Y826D02*
X826Y197D01*
X197Y881D02*
X881Y197D01*
X197Y937D02*
X937Y197D01*
X197Y993D02*
X993Y197D01*
X197Y1049D02*
X1049Y197D01*
X197Y1104D02*
X1104Y197D01*
X197Y809D02*
X697Y1309D01*
X197Y754D02*
X752Y1309D01*
X197Y976D02*
X530Y1309D01*
X197Y1271D02*
X549Y920D01*
X197Y1255D02*
X251Y1309D01*
X197Y1032D02*
X474Y1309D01*
X197Y1199D02*
X307Y1309D01*
X215D02*
X554Y970D01*
X326Y1309D02*
X581Y1054D01*
X270Y1309D02*
X565Y1014D01*
X197Y1143D02*
X363Y1309D01*
X604D02*
X709Y1204D01*
X197Y1088D02*
X418Y1309D01*
X197Y921D02*
X585Y1309D01*
X197Y865D02*
X641Y1309D01*
X207D02*
Y2175D01*
Y1373D02*
X270Y1309D01*
X207Y2175D02*
Y2234D01*
X382Y1309D02*
X600Y1091D01*
X493Y1309D02*
X648Y1154D01*
X437Y1309D02*
X623Y1124D01*
X549Y1309D02*
X677Y1180D01*
X716Y1309D02*
X784Y1241D01*
X660Y1309D02*
X745Y1225D01*
X687Y1188D02*
X808Y1309D01*
X802Y1247D02*
X914Y1359D01*
X771Y1309D02*
X827Y1254D01*
X207Y1309D02*
X837D01*
X752D02*
X837Y1393D01*
X808Y1309D02*
X837Y1338D01*
X827Y1309D02*
X875Y1261D01*
X837Y1616D02*
X914Y1693D01*
X837Y1801D02*
X914Y1724D01*
X837Y1745D02*
X914Y1668D01*
X837Y1672D02*
X914Y1749D01*
X837Y1309D02*
Y2175D01*
Y2062D02*
X914Y2139D01*
X837Y2173D02*
X896Y2232D01*
X837Y2117D02*
X896Y2176D01*
X837Y2190D02*
X914Y2113D01*
X837Y1783D02*
X914Y1860D01*
X837Y1727D02*
X914Y1805D01*
X837Y1856D02*
X914Y1779D01*
X837Y2135D02*
X914Y2058D01*
X837Y1912D02*
X914Y1835D01*
X837Y1839D02*
X914Y1916D01*
X976Y197D02*
X1348Y569D01*
X1014Y565D02*
X1383Y197D01*
X861Y551D02*
X1216Y197D01*
X920Y549D02*
X1271Y197D01*
X970Y554D02*
X1327Y197D01*
X1091Y600D02*
X1494Y197D01*
X1199D02*
X1563Y561D01*
X1143Y197D02*
X1508Y561D01*
X1032Y197D02*
X1396Y561D01*
X1088Y197D02*
X1452Y561D01*
X1054Y581D02*
X1438Y197D01*
X921D02*
X1348Y625D01*
X865Y197D02*
X1348Y680D01*
X1087Y1327D02*
X1302Y1112D01*
X1124Y623D02*
X1550Y197D01*
X1154Y648D02*
X1605Y197D01*
X1215Y699D02*
X1348Y565D01*
Y621D02*
X1408Y561D01*
X1348D02*
Y699D01*
X1197D02*
X1348D01*
X1270D02*
X1348Y621D01*
X1326Y699D02*
X1348Y676D01*
X1477Y197D02*
X1803Y522D01*
X1533Y197D02*
X1820Y483D01*
X1310Y197D02*
X1675Y561D01*
X1422Y197D02*
X1786Y561D01*
X1408D02*
X1772Y197D01*
X1589D02*
X1843Y451D01*
X1700Y197D02*
X1898Y394D01*
X1644Y197D02*
X1870Y422D01*
X1756Y197D02*
X1926Y367D01*
X1812Y197D02*
X1953Y339D01*
X1855Y437D02*
X1953Y339D01*
X1255Y197D02*
X1619Y561D01*
X1180Y677D02*
X1661Y197D01*
X1352Y561D02*
X1717Y197D01*
X1348Y561D02*
X1793D01*
X1366Y197D02*
X1730Y561D01*
X1464D02*
X1828Y197D01*
X1575Y561D02*
X1939Y197D01*
X1520Y561D02*
X1884Y197D01*
X1742Y561D02*
X1820Y484D01*
X837Y1411D02*
X914Y1334D01*
X837Y1355D02*
X930Y1262D01*
X837Y1393D02*
X914Y1471D01*
X837Y1338D02*
X914Y1415D01*
X837Y1467D02*
X914Y1389D01*
X837Y1522D02*
X914Y1445D01*
X871Y1261D02*
X937Y1327D01*
X914Y1389D02*
X976Y1327D01*
X837Y1505D02*
X914Y1582D01*
X837Y1449D02*
X914Y1526D01*
X837Y1578D02*
X914Y1501D01*
X837Y1560D02*
X914Y1638D01*
X837Y1634D02*
X914Y1557D01*
X837Y1894D02*
X914Y1972D01*
X837Y1689D02*
X914Y1612D01*
X837Y1968D02*
X914Y1891D01*
X837Y1950D02*
X914Y2027D01*
X837Y2023D02*
X914Y1946D01*
Y1327D02*
Y2175D01*
Y2216D01*
X837Y2079D02*
X914Y2002D01*
X837Y2006D02*
X914Y2083D01*
X976Y1327D02*
X1095Y1209D01*
X1032Y1327D02*
X1247Y1112D01*
X928Y1262D02*
X993Y1327D01*
X1021Y1244D02*
X1104Y1327D01*
X977Y1256D02*
X1049Y1327D01*
X1197Y1112D02*
X1348D01*
X1279D02*
X1348Y1181D01*
X1224Y1112D02*
X1348Y1237D01*
X1060Y1227D02*
X1160Y1327D01*
X1184Y1129D02*
X1348Y1293D01*
X1096Y1208D02*
X1216Y1327D01*
X1129Y1184D02*
X1271Y1327D01*
X1143D02*
X1348Y1122D01*
X1158Y1158D02*
X1327Y1327D01*
X920D02*
X997Y1251D01*
X914Y1327D02*
X1348D01*
X1158Y1158D02*
X1327Y1327D01*
X1199D02*
X1348Y1178D01*
Y1112D02*
Y1327D01*
X1254D02*
X1348Y1233D01*
X1310Y1327D02*
X1348Y1289D01*
X207Y2175D02*
Y2234D01*
X837Y2175D02*
Y2234D01*
Y2175D02*
Y2234D01*
Y2246D02*
X896Y2187D01*
X837Y2229D02*
X896Y2288D01*
X837Y2396D02*
X896Y2455D01*
X837Y2302D02*
X896Y2243D01*
X837Y2413D02*
X896Y2354D01*
X837Y2580D02*
X896Y2521D01*
X837Y2469D02*
X896Y2410D01*
X837Y2507D02*
X896Y2566D01*
X197Y197D02*
Y3422D01*
X207Y2234D02*
Y3100D01*
X197Y3164D02*
X261Y3100D01*
X207D02*
X305D01*
X197Y3092D02*
X305Y3200D01*
X837Y2234D02*
Y3100D01*
Y2563D02*
X896Y2622D01*
X837Y2636D02*
X896Y2577D01*
X207Y3046D02*
X261Y3100D01*
X762D02*
X837Y3026D01*
X305Y3100D02*
Y3314D01*
X837Y2730D02*
X896Y2789D01*
X837Y2747D02*
X896Y2688D01*
X837Y2859D02*
X896Y2800D01*
X837Y2803D02*
X896Y2744D01*
X837Y2785D02*
X896Y2844D01*
X837Y2340D02*
X896Y2399D01*
X837Y2284D02*
X896Y2343D01*
X837Y2357D02*
X896Y2298D01*
X837Y2674D02*
X896Y2733D01*
X837Y2618D02*
X896Y2677D01*
X837Y2692D02*
X896Y2632D01*
X837Y3081D02*
X896Y3022D01*
X837Y3008D02*
X896Y3067D01*
X738Y3235D02*
X896Y3078D01*
X837Y3064D02*
X939Y3166D01*
X738Y3291D02*
X929Y3100D01*
X837Y2897D02*
X896Y2956D01*
X837Y2841D02*
X896Y2900D01*
X837Y2914D02*
X896Y2855D01*
X837Y3026D02*
X896Y2967D01*
X837Y2970D02*
X896Y2911D01*
X837Y2952D02*
X896Y3011D01*
X197Y3259D02*
X278Y3341D01*
X197Y3387D02*
X305Y3279D01*
X197Y3370D02*
X223Y3396D01*
X197Y3315D02*
X251Y3369D01*
X197Y3422D02*
X305Y3314D01*
X197Y3148D02*
X305Y3256D01*
X261Y3100D02*
X305Y3145D01*
X197Y3220D02*
X305Y3112D01*
X197Y3331D02*
X305Y3223D01*
X197Y3276D02*
X305Y3167D01*
X197Y3203D02*
X305Y3312D01*
X473Y3758D02*
X508Y3793D01*
X413Y3818D02*
X674Y3557D01*
X413Y3818D02*
Y3887D01*
X445Y3786D02*
X480Y3820D01*
X418Y3814D02*
X452Y3848D01*
X585Y3647D02*
X619Y3681D01*
X640Y3591D02*
X675Y3625D01*
X612Y3619D02*
X647Y3653D01*
X501Y3730D02*
X535Y3765D01*
X557Y3675D02*
X591Y3709D01*
X529Y3703D02*
X563Y3737D01*
X738Y3180D02*
X818Y3100D01*
X738D02*
X837D01*
X738Y3124D02*
X762Y3100D01*
X738Y3132D02*
X881Y3275D01*
X738Y3188D02*
X869Y3319D01*
X738Y3100D02*
Y3404D01*
X818Y3100D02*
X916Y3199D01*
X738Y3347D02*
X985Y3100D01*
X738Y3244D02*
X864Y3369D01*
X762Y3100D02*
X897Y3235D01*
X738Y3402D02*
X890Y3251D01*
X413Y3839D02*
X863Y3389D01*
X668Y3563D02*
X702Y3598D01*
X695Y3534D02*
X730Y3570D01*
X413Y3887D02*
X866Y3434D01*
X738Y3355D02*
X842Y3458D01*
X738Y3299D02*
X866Y3427D01*
X728Y3468D02*
X868Y3328D01*
X716Y3500D02*
X758Y3542D01*
X738Y3411D02*
X814Y3486D01*
X731Y3459D02*
X786Y3514D01*
X837Y2525D02*
X896Y2465D01*
X837Y2451D02*
X896Y2510D01*
X856Y5080D02*
X995Y4941D01*
X856Y5122D02*
X1037Y4941D01*
X856Y5177D02*
X1093Y4941D01*
X896Y2175D02*
Y3100D01*
Y3011D02*
X985Y3100D01*
X896Y3067D02*
X929Y3100D01*
X965Y3136D01*
X896Y3100D02*
X1006D01*
X856Y5567D02*
X1482Y4941D01*
X856Y5623D02*
X1538Y4941D01*
X856Y5678D02*
X1594Y4941D01*
X856Y5734D02*
X1650Y4941D01*
X856Y5790D02*
X1705Y4941D01*
X856Y5233D02*
X1148Y4941D01*
X856Y5289D02*
X1204Y4941D01*
X856Y5344D02*
X1260Y4941D01*
X856Y5400D02*
X1315Y4941D01*
X856Y5456D02*
X1371Y4941D01*
X856Y5511D02*
X1427Y4941D01*
X1433D02*
X1742Y5250D01*
X1489Y4941D02*
X1746Y5198D01*
X1378Y4941D02*
X1742Y5306D01*
X995Y4941D02*
X1853D01*
X1322D02*
X1742Y5361D01*
X1712Y4941D02*
X1797Y5027D01*
X1767Y4941D02*
X1818Y4991D01*
X1545Y4941D02*
X1753Y5150D01*
X1656Y4941D02*
X1780Y5065D01*
X1600Y4941D02*
X1765Y5106D01*
X856Y5846D02*
X1761Y4941D01*
X856Y5901D02*
X1817Y4941D01*
X964Y4972D02*
X1742Y5751D01*
X936Y5000D02*
X1744Y5808D01*
X856Y5957D02*
X1811Y5002D01*
X1155Y4941D02*
X1742Y5528D01*
X1266Y4941D02*
X1742Y5417D01*
X1211Y4941D02*
X1742Y5473D01*
X992Y4945D02*
X1742Y5695D01*
X1099Y4941D02*
X1742Y5584D01*
X1043Y4941D02*
X1742Y5640D01*
X856Y6347D02*
X1742Y5461D01*
X856Y6291D02*
X1742Y5405D01*
X856Y6514D02*
X1742Y5628D01*
X856Y6402D02*
X1742Y5516D01*
X856Y6458D02*
X1742Y5572D01*
X856Y6124D02*
X1742Y5238D01*
X908Y5028D02*
X1753Y5874D01*
X856Y6068D02*
X1749Y5176D01*
X856Y6235D02*
X1742Y5349D01*
Y5256D02*
Y5768D01*
X856Y6180D02*
X1742Y5294D01*
X856Y5080D02*
Y9330D01*
Y6034D02*
X1760Y6938D01*
X856Y6201D02*
X1760Y7105D01*
X856Y6090D02*
X1760Y6994D01*
X856Y6146D02*
X1760Y7050D01*
X856Y6569D02*
X1742Y5684D01*
X856Y6625D02*
X1742Y5739D01*
X856Y6681D02*
X1743Y5794D01*
X856Y6736D02*
X1748Y5845D01*
X856Y6792D02*
X1757Y5891D01*
X856Y5979D02*
X1760Y6883D01*
X856Y5589D02*
X1837Y6569D01*
X856Y5533D02*
X1860Y6537D01*
X856Y5756D02*
X1783Y6683D01*
X856Y5645D02*
X1816Y6605D01*
X856Y5700D02*
X1798Y6642D01*
X856Y6013D02*
X1766Y5103D01*
X880Y5056D02*
X1778Y5954D01*
X856Y5088D02*
X1864Y6095D01*
X856Y5478D02*
X1885Y6506D01*
X856Y5366D02*
X1942Y6452D01*
X856Y5422D02*
X1913Y6478D01*
X856Y7015D02*
X1826Y6045D01*
X856Y7070D02*
X1849Y6078D01*
X856Y7126D02*
X1875Y6108D01*
X856Y7182D02*
X1902Y6136D01*
X856Y7237D02*
X1932Y6161D01*
X856Y7293D02*
X1965Y6185D01*
X856Y5923D02*
X1760Y6827D01*
X856Y5812D02*
X1772Y6727D01*
X856Y5867D02*
X1764Y6775D01*
X856Y6848D02*
X1770Y5934D01*
X856Y6903D02*
X1786Y5973D01*
X856Y6959D02*
X1805Y6011D01*
X2146Y197D02*
X2224Y276D01*
X2195D02*
X2273Y197D01*
X2034D02*
X2113Y276D01*
X2139D02*
X2218Y197D01*
X2090D02*
X2169Y276D01*
X2417D02*
X2496Y197D01*
X2473Y276D02*
X2552Y197D01*
X2424D02*
X2503Y276D01*
X2201Y197D02*
X2280Y276D01*
X2257Y197D02*
X2336Y276D01*
X2250D02*
X2329Y197D01*
X1923D02*
X2020Y294D01*
X1979Y197D02*
X2062Y280D01*
X1867Y197D02*
X1984Y314D01*
X1687Y561D02*
X2051Y197D01*
X1631Y561D02*
X1995Y197D01*
X2313D02*
X2391Y276D01*
X2368Y197D02*
X2447Y276D01*
X2362D02*
X2440Y197D01*
X1999Y304D02*
X2106Y197D01*
X2306Y276D02*
X2385Y197D01*
X2082Y277D02*
X2162Y197D01*
X2863Y276D02*
X2942Y197D01*
X2869D02*
X2948Y276D01*
X2807D02*
X2886Y197D01*
X197D02*
X6704D01*
X2814D02*
X2892Y276D01*
X3203Y197D02*
X3282Y276D01*
X3420D02*
X3498Y197D01*
X3253Y276D02*
X3331Y197D01*
X2919Y276D02*
X2997Y197D01*
X3197Y276D02*
X3276Y197D01*
X2925D02*
X3004Y276D01*
X2584D02*
X2663Y197D01*
X2591D02*
X2670Y276D01*
X2480Y197D02*
X2558Y276D01*
X2535Y197D02*
X2614Y276D01*
X2529D02*
X2607Y197D01*
X2702D02*
X2781Y276D01*
X2758Y197D02*
X2837Y276D01*
X2751D02*
X2830Y197D01*
X2640Y276D02*
X2719Y197D01*
X2696Y276D02*
X2775Y197D01*
X2647D02*
X2725Y276D01*
X3036Y197D02*
X3115Y276D01*
X3086D02*
X3164Y197D01*
X2974Y276D02*
X3053Y197D01*
X3030Y276D02*
X3109Y197D01*
X2981D02*
X3059Y276D01*
X3315Y197D02*
X3394Y276D01*
X3370Y197D02*
X3449Y276D01*
X3364D02*
X3443Y197D01*
X3092D02*
X3171Y276D01*
X3148Y197D02*
X3227Y276D01*
X3141D02*
X3220Y197D01*
X2665Y4983D02*
X2707Y4941D01*
X2635D02*
X2805D01*
X2686Y5018D02*
X2763Y4941D01*
X3259Y197D02*
X3338Y276D01*
X3308D02*
X3387Y197D01*
X3366Y4951D02*
X3435Y4881D01*
X2704Y5055D02*
X2809Y4951D01*
X2805D02*
X3435D01*
X3169D02*
X3307Y5089D01*
X3426Y197D02*
X3505Y276D01*
X2106D02*
X5925D01*
X3397Y709D02*
X3571D01*
X3435Y3434D02*
X3483Y3386D01*
X3435D02*
X3494D01*
X3435Y3489D02*
X3494Y3430D01*
X3435Y4269D02*
X3512Y4192D01*
X3435Y4213D02*
X3512Y4136D01*
X3435Y4159D02*
X3512Y4236D01*
X3435Y4492D02*
X3512Y4414D01*
X3435Y4382D02*
X3512Y4459D01*
X3435Y4493D02*
X3512Y4570D01*
X3435Y4437D02*
X3512Y4514D01*
X3435Y4547D02*
X3512Y4470D01*
X3435Y4270D02*
X3512Y4347D01*
X3435Y4215D02*
X3512Y4292D01*
X3435Y4325D02*
X3512Y4247D01*
X3435Y4436D02*
X3512Y4359D01*
X3435Y4380D02*
X3512Y4303D01*
X3435Y4326D02*
X3512Y4403D01*
X3475Y276D02*
X3554Y197D01*
X3482D02*
X3561Y276D01*
X3452Y744D02*
X3488Y709D01*
X3480Y772D02*
X3543Y709D01*
X3437D02*
X3571Y843D01*
X3493Y709D02*
X3571Y787D01*
X3538Y197D02*
X3616Y276D01*
X3531D02*
X3610Y197D01*
X3536Y828D02*
X3571Y792D01*
X3548Y709D02*
X3571Y732D01*
X3508Y800D02*
X3571Y736D01*
X3435Y3386D02*
Y4026D01*
Y3435D02*
X3494Y3494D01*
X3435Y3491D02*
X3494Y3550D01*
X3435Y3435D02*
X3494Y3494D01*
X3435Y3545D02*
X3494Y3486D01*
X3442Y3386D02*
X3494Y3438D01*
X3571Y709D02*
Y863D01*
X3461Y753D02*
X3571Y863D01*
X3435Y3546D02*
X3494Y3605D01*
X3435Y3601D02*
X3494Y3542D01*
Y3386D02*
Y4124D01*
X3698Y276D02*
X3777Y197D01*
X3705D02*
X3783Y276D01*
X3587D02*
X3665Y197D01*
X3642Y276D02*
X3721Y197D01*
X3593D02*
X3672Y276D01*
X3816Y197D02*
X3895Y276D01*
X3872Y197D02*
X3950Y276D01*
X3865D02*
X3944Y197D01*
X3754Y276D02*
X3832Y197D01*
X3809Y276D02*
X3888Y197D01*
X3760D02*
X3839Y276D01*
X3649Y197D02*
X3728Y276D01*
X3900Y1193D02*
X4017Y1309D01*
X3921Y276D02*
X3999Y197D01*
X3927D02*
X4006Y276D01*
X3900Y1193D02*
X4224D01*
X3925Y1218D02*
X3950Y1193D01*
X3953Y1245D02*
X4006Y1193D01*
X3921D02*
X4037Y1309D01*
X3435Y3769D02*
X3494Y3828D01*
X3435Y3824D02*
X3494Y3765D01*
X3435Y3935D02*
X3494Y3876D01*
X3435Y3879D02*
X3494Y3820D01*
X3435Y3825D02*
X3494Y3884D01*
X3435Y3712D02*
X3494Y3653D01*
X3435Y3657D02*
X3494Y3597D01*
X3435Y3602D02*
X3494Y3661D01*
X3435Y3713D02*
X3494Y3772D01*
X3435Y3658D02*
X3494Y3717D01*
X3435Y3768D02*
X3494Y3709D01*
X3435Y4026D02*
Y4124D01*
Y4026D02*
Y4124D01*
Y4951D01*
Y4047D02*
X3494Y4107D01*
X3435Y4158D02*
X3494Y4099D01*
X3435Y3936D02*
X3494Y3995D01*
X3435Y3880D02*
X3494Y3940D01*
X3435Y3991D02*
X3494Y3932D01*
X3435Y4102D02*
X3494Y4043D01*
X3435Y4046D02*
X3494Y3987D01*
X3435Y3992D02*
X3494Y4051D01*
X3435Y4603D02*
X3512Y4526D01*
X3435Y4103D02*
X3512Y4180D01*
X3435Y4660D02*
X3512Y4737D01*
X3435Y4549D02*
X3512Y4626D01*
X3435Y4659D02*
X3512Y4581D01*
Y4044D02*
Y4124D01*
X3435Y4770D02*
X3512Y4693D01*
X3435Y4604D02*
X3512Y4681D01*
X3435Y4714D02*
X3512Y4637D01*
X3435Y4771D02*
X3512Y4848D01*
X3435Y4716D02*
X3512Y4793D01*
X3435Y4826D02*
X3512Y4749D01*
X3435Y4937D02*
X3512Y4860D01*
X3435Y4881D02*
X3512Y4804D01*
X3435Y4827D02*
X3512Y4904D01*
Y4124D02*
Y4933D01*
Y4848D02*
X3596Y4933D01*
X3512Y4904D02*
X3541Y4933D01*
X3512D02*
X4106D01*
X3785Y5089D02*
X3941Y4933D01*
X2658Y4941D02*
X3056Y5339D01*
X2720Y5096D02*
X2865Y4951D01*
X2732Y5139D02*
X2920Y4951D01*
X2714Y4941D02*
X3084Y5311D01*
X2741Y5186D02*
X2976Y4951D01*
X2746Y5237D02*
X3032Y4951D01*
X2770Y4941D02*
X3112Y5283D01*
X2746Y5292D02*
X3087Y4951D01*
X2835D02*
X3139Y5255D01*
X2746Y5348D02*
X3143Y4951D01*
X856Y5144D02*
X2086Y6373D01*
X2693Y5032D02*
X3028Y5367D01*
X856Y5311D02*
X1975Y6429D01*
X856Y5199D02*
X2046Y6389D01*
X856Y5255D02*
X2009Y6408D01*
X2746Y5252D02*
X2945Y5451D01*
X2728Y5122D02*
X3000Y5394D01*
X2742Y5192D02*
X2972Y5422D01*
X2746Y5256D02*
Y5768D01*
X2957Y5437D02*
X3134Y5261D01*
X2746Y5307D02*
X2922Y5483D01*
X3002Y4951D02*
X3199Y5148D01*
X3058Y4951D02*
X3199Y5092D01*
Y5118D02*
X3228Y5089D01*
X3199D02*
X3888D01*
X3113Y4951D02*
X3251Y5089D01*
X3284D02*
X3421Y4951D01*
X3339Y5089D02*
X3512Y4916D01*
X3336Y4951D02*
X3474Y5089D01*
X3225Y4951D02*
X3363Y5089D01*
X3280Y4951D02*
X3418Y5089D01*
X3228D02*
X3366Y4951D01*
X2746Y5403D02*
X3199Y4951D01*
X2746Y5459D02*
X3254Y4951D01*
X2746Y5626D02*
X3199Y5173D01*
X2746Y5515D02*
X3310Y4951D01*
X2746Y5570D02*
X3199Y5118D01*
X2891Y4951D02*
X3171Y5231D01*
X2946Y4951D02*
X3199Y5203D01*
Y5089D02*
Y5216D01*
Y5173D02*
X3284Y5089D01*
X2738Y5857D02*
X2894Y5701D01*
X2745Y5794D02*
X2894Y5645D01*
X2738Y5856D02*
X2894Y6012D01*
X2718Y5932D02*
X2894Y5757D01*
X2745Y5807D02*
X2894Y5956D01*
X2746Y5586D02*
X2894Y5733D01*
X2746Y5474D02*
X2894Y5622D01*
X2746Y5530D02*
X2894Y5678D01*
X2746Y5753D02*
X2894Y5900D01*
X2746Y5641D02*
X2894Y5789D01*
X2746Y5697D02*
X2894Y5845D01*
X2505Y6423D02*
X2894Y6035D01*
X1917Y6148D02*
X2129Y6361D01*
X2348Y6358D02*
X2517Y6189D01*
X2515Y6190D02*
X2831Y6506D01*
X2679Y6019D02*
X2894Y6234D01*
X2665Y6041D02*
X2894Y5812D01*
Y5591D02*
Y6506D01*
X2548Y6167D02*
X2887Y6506D01*
X2657Y6053D02*
X2894Y6290D01*
X2633Y6085D02*
X2894Y6346D01*
X2746Y5419D02*
X2895Y5567D01*
X2746Y5363D02*
X2905Y5522D01*
X2746Y5737D02*
X2894Y5590D01*
X2746Y5682D02*
X2904Y5523D01*
X3327Y5738D02*
X3888D01*
X3327D02*
Y5855D01*
Y5769D02*
X3358Y5738D01*
X3327Y5825D02*
X3413Y5738D01*
X3327Y5777D02*
X3405Y5855D01*
X2470Y6403D02*
X2894Y5979D01*
X2392Y6370D02*
X2894Y5868D01*
X2432Y6385D02*
X2894Y5924D01*
X2569Y6472D02*
X2894Y6147D01*
X2538Y6446D02*
X2894Y6091D01*
X2579Y6142D02*
X2894Y6457D01*
X2728Y5902D02*
X2894Y6067D01*
X3327Y5855D02*
X3870D01*
X3327Y5832D02*
X3349Y5855D01*
X2607Y6115D02*
X2894Y6401D01*
X2714Y5944D02*
X2894Y6123D01*
X2698Y5983D02*
X2894Y6179D01*
X3395Y5089D02*
X3551Y4933D01*
X3435Y4883D02*
X3641Y5089D01*
X3392Y4951D02*
X3530Y5089D01*
X3451D02*
X3606Y4933D01*
X3435Y4938D02*
X3585Y5089D01*
X3596Y4933D02*
X3752Y5089D01*
X3652Y4933D02*
X3808Y5089D01*
X3618D02*
X3773Y4933D01*
X3506Y5089D02*
X3662Y4933D01*
X3562Y5089D02*
X3718Y4933D01*
X3541D02*
X3697Y5089D01*
X3673D02*
X3829Y4933D01*
X3708D02*
X3864Y5089D01*
X3729D02*
X3885Y4933D01*
X3864Y5089D02*
X3888Y5113D01*
X3808Y5089D02*
X3888Y5168D01*
Y5089D02*
Y5738D01*
Y5447D02*
X3986Y5545D01*
X3888Y5654D02*
X3986Y5555D01*
X3888Y5614D02*
X3986Y5712D01*
X3888Y5558D02*
X3986Y5657D01*
X3888Y5709D02*
X3986Y5611D01*
X3888Y5208D02*
X4469Y4627D01*
X3888Y5152D02*
X4469Y4572D01*
X3840Y5089D02*
X3996Y4933D01*
X3888Y5097D02*
X4052Y4933D01*
X3888Y5264D02*
X4469Y4683D01*
X3888Y5431D02*
X4469Y4850D01*
X3888Y5319D02*
X4469Y4739D01*
X3888Y5375D02*
X4469Y4794D01*
X3888Y5335D02*
X4015Y5463D01*
X3888Y5168D02*
X4182Y5463D01*
X3888Y5224D02*
X4126Y5463D01*
X3763Y4933D02*
X4293Y5463D01*
X3819Y4933D02*
X4349Y5463D01*
X3888Y5502D02*
X3986Y5601D01*
X3875Y4933D02*
X4405Y5463D01*
X3888Y5280D02*
X4071Y5463D01*
X3930Y4933D02*
X4460Y5463D01*
X3888Y5487D02*
X4469Y4906D01*
X3888Y5542D02*
X4469Y4961D01*
X3888Y5598D02*
X3986Y5499D01*
X3888Y5113D02*
X4238Y5463D01*
X3888Y5391D02*
X3986Y5490D01*
X3408Y5855D02*
X3525Y5738D01*
X3455D02*
X3572Y5855D01*
X3344Y5738D02*
X3461Y5855D01*
X3400Y5738D02*
X3516Y5855D01*
X3353D02*
X3469Y5738D01*
X3567D02*
X3683Y5855D01*
X3803Y5738D02*
X3888Y5654D01*
X3575Y5855D02*
X3692Y5738D01*
X3464Y5855D02*
X3580Y5738D01*
X3520Y5855D02*
X3636Y5738D01*
X3511D02*
X3628Y5855D01*
X3622Y5738D02*
X3739Y5855D01*
X3631D02*
X3747Y5738D01*
X3678D02*
X3795Y5855D01*
X3734Y5738D02*
X3850Y5855D01*
X3687D02*
X3803Y5738D01*
X3742Y5855D02*
X3859Y5738D01*
X3795Y5855D02*
X3870Y5930D01*
Y5855D02*
Y6380D01*
X3859Y5738D02*
X3888Y5709D01*
X3798Y5855D02*
X3986Y5666D01*
X3845Y5738D02*
X3986Y5879D01*
X3854Y5855D02*
X3986Y5722D01*
X3789Y5738D02*
X3986Y5935D01*
X3870Y5894D02*
X3986Y5778D01*
X3888Y5669D02*
X3986Y5768D01*
X3888Y5725D02*
X3986Y5824D01*
X3870Y6006D02*
X3986Y5889D01*
X3870Y5950D02*
X3986Y5834D01*
X3870Y5874D02*
X3986Y5991D01*
X3870Y6228D02*
X3986Y6112D01*
X3870Y6097D02*
X4011Y6238D01*
X3870Y6284D02*
X4042Y6112D01*
X3870Y6152D02*
X3983Y6266D01*
X3870Y6340D02*
X4097Y6112D01*
X3870Y6380D02*
X4114Y6135D01*
X3870Y5985D02*
X3986Y6102D01*
X3870Y5930D02*
X3986Y6046D01*
X3870Y6061D02*
X3986Y5945D01*
X3870Y6117D02*
X3986Y6001D01*
X3870Y6173D02*
X3986Y6056D01*
X3870Y6041D02*
X4039Y6211D01*
X856Y6870D02*
X1658Y7671D01*
X856Y7739D02*
X1760Y6835D01*
X856Y7037D02*
X1560Y7740D01*
X856Y6925D02*
X1620Y7689D01*
X856Y6981D02*
X1588Y7713D01*
X856Y6368D02*
X1760Y7272D01*
X856Y6257D02*
X1760Y7161D01*
X856Y6313D02*
X1760Y7217D01*
X856Y6814D02*
X1702Y7660D01*
X856Y6424D02*
X1760Y7328D01*
X856Y6758D02*
X1756Y7657D01*
X856Y7371D02*
X1393Y7907D01*
X856Y7315D02*
X1421Y7879D01*
X856Y7538D02*
X1309Y7991D01*
X856Y7426D02*
X1365Y7935D01*
X856Y7482D02*
X1337Y7963D01*
X856Y7092D02*
X1532Y7768D01*
X856Y7794D02*
X1760Y6890D01*
X856Y7850D02*
X1760Y6946D01*
X856Y7259D02*
X1449Y7852D01*
X856Y7148D02*
X1504Y7796D01*
X856Y7204D02*
X1476Y7824D01*
X856Y6591D02*
X1800Y7535D01*
X856Y7571D02*
X1809Y6619D01*
X856Y7627D02*
X1776Y6707D01*
X856Y6647D02*
X1867Y7657D01*
X856Y6702D02*
X1811Y7657D01*
X856Y7349D02*
X1999Y6206D01*
X856Y7404D02*
X2036Y6225D01*
X856Y7460D02*
X2076Y6241D01*
X856Y6480D02*
X1762Y7386D01*
X856Y6535D02*
X1773Y7452D01*
X856Y7516D02*
X2118Y6254D01*
X856Y8240D02*
X1760Y7336D01*
X856Y8184D02*
X1760Y7280D01*
X856Y8295D02*
X1762Y7389D01*
X856Y8351D02*
X1770Y7438D01*
X856Y8407D02*
X1781Y7482D01*
X856Y7961D02*
X1760Y7057D01*
X856Y7683D02*
X1763Y6776D01*
X856Y7906D02*
X1760Y7002D01*
X856Y8128D02*
X1760Y7224D01*
X856Y8017D02*
X1760Y7113D01*
X856Y8073D02*
X1760Y7169D01*
X856Y8039D02*
X1201Y8383D01*
X856Y7983D02*
X1201Y8328D01*
X856Y8094D02*
X1201Y8439D01*
X856Y8462D02*
X1221Y8098D01*
X856Y8150D02*
X1201Y8495D01*
X856Y7760D02*
X1213Y8117D01*
X856Y7649D02*
X1254Y8047D01*
X856Y7705D02*
X1231Y8079D01*
X856Y7927D02*
X1201Y8272D01*
X856Y7816D02*
X1202Y8162D01*
X856Y7872D02*
X1201Y8216D01*
X856Y8373D02*
X1201Y8717D01*
X856Y8685D02*
X1201Y8341D01*
X856Y8796D02*
X1201Y8452D01*
X856Y8741D02*
X1201Y8396D01*
X856Y8429D02*
X1201Y8773D01*
X856Y8574D02*
X1201Y8229D01*
X856Y8518D02*
X1201Y8173D01*
X856Y8206D02*
X1201Y8550D01*
X856Y8317D02*
X1201Y8662D01*
X856Y8261D02*
X1201Y8606D01*
X856Y8629D02*
X1201Y8285D01*
X856Y7593D02*
X1282Y8019D01*
X1265Y8036D02*
X1579Y7721D01*
X1634Y8279D02*
X1822Y8091D01*
X1634Y8297D02*
X1841Y8091D01*
X1634Y8315D02*
X1760Y8442D01*
X1634Y8353D02*
X1828Y8159D01*
X1634Y8409D02*
X1783Y8260D01*
X1634Y8594D02*
X1760Y8720D01*
X1634Y8687D02*
X1760Y8561D01*
X1634Y8798D02*
X1760Y8672D01*
X1634Y8743D02*
X1760Y8616D01*
X1634Y8649D02*
X1760Y8776D01*
X1634Y8427D02*
X1760Y8553D01*
X1634Y8464D02*
X1766Y8332D01*
X1634Y8520D02*
X1760Y8393D01*
X1634Y8538D02*
X1760Y8664D01*
X1634Y8482D02*
X1760Y8609D01*
X1634Y8631D02*
X1760Y8505D01*
X2058Y6234D02*
X2176Y6352D01*
X2138Y6258D02*
X2227Y6347D01*
X2032Y6396D02*
X2164Y6263D01*
X2189Y6350D02*
X2270Y6269D01*
X2121Y6363D02*
X2215Y6269D01*
X2248Y6347D02*
X2333Y6262D01*
X2300Y6350D02*
X2408Y6242D01*
X2359Y6256D02*
X2648Y6545D01*
X2204Y6268D02*
X2284Y6349D01*
X2261Y6269D02*
X2350Y6359D01*
X2312Y6265D02*
X2431Y6385D01*
X1760Y6831D02*
Y7343D01*
X1641Y7678D02*
X1795Y7523D01*
X1732Y7657D02*
X1877D01*
X1716Y7658D02*
X1813Y7562D01*
X2648Y6506D02*
Y6564D01*
X1772Y7657D02*
X1833Y7597D01*
X1828Y7657D02*
X1855Y7630D01*
X2480Y6211D02*
X2775Y6506D01*
X2597Y6499D02*
X2894Y6202D01*
X2402Y6244D02*
X2664Y6506D01*
X2443Y6229D02*
X2720Y6506D01*
X2622Y6529D02*
X2894Y6258D01*
X2813Y6506D02*
X2894Y6425D01*
X2701Y6506D02*
X2894Y6314D01*
X2757Y6506D02*
X2894Y6369D01*
X2648Y6560D02*
X2701Y6506D01*
X2648D02*
X2894D01*
X2868D02*
X2894Y6481D01*
X2728Y7136D02*
Y7195D01*
X2736D02*
X2795Y7136D01*
X2792Y7195D02*
X2851Y7136D01*
X2737D02*
X2796Y7195D01*
X2903D02*
X2962Y7136D01*
X2959Y7195D02*
X3018Y7136D01*
X2904D02*
X2963Y7195D01*
X2793Y7136D02*
X2852Y7195D01*
X2849Y7136D02*
X2908Y7195D01*
X2848D02*
X2907Y7136D01*
X1810Y8102D02*
X1843Y8135D01*
X1822Y8091D02*
X1877D01*
X1727Y8186D02*
X1787Y8246D01*
X1783Y8130D02*
X1822Y8169D01*
X1755Y8158D02*
X1803Y8206D01*
X2611Y8091D02*
X2746D01*
X2681Y8197D02*
X2792Y8086D01*
X2634Y8091D02*
X2805Y8262D01*
X2640Y8127D02*
X2676Y8091D01*
X2661Y8161D02*
X2731Y8091D01*
X2690D02*
X2805Y8206D01*
X1671Y8241D02*
X1765Y8335D01*
X1699Y8213D02*
X1775Y8289D01*
X1634Y8576D02*
X1760Y8449D01*
X1643Y8269D02*
X1761Y8386D01*
X1634Y8371D02*
X1760Y8497D01*
X2677Y8189D02*
X2805Y8317D01*
X2721Y8324D02*
X2805Y8240D01*
X2711Y8279D02*
X2805Y8373D01*
X2745Y8091D02*
X2854Y8199D01*
X2728Y8428D02*
X2805Y8351D01*
X2727Y8373D02*
X2805Y8295D01*
X2725Y8348D02*
X2805Y8429D01*
X2837Y8071D02*
X2965Y8199D01*
X2805Y8240D02*
X2846Y8199D01*
X2795Y8085D02*
X2909Y8199D01*
X2805Y8295D02*
X2901Y8199D01*
X2728Y8706D02*
X2805Y8629D01*
X2728Y8651D02*
X2805Y8574D01*
X2728Y8574D02*
X2805Y8651D01*
X2728Y8686D02*
X2805Y8763D01*
X2728Y8630D02*
X2805Y8707D01*
X2728Y8762D02*
X2805Y8685D01*
X2728Y8539D02*
X2805Y8462D01*
X2728Y8484D02*
X2805Y8407D01*
X2728Y8407D02*
X2805Y8484D01*
X2728Y8518D02*
X2805Y8596D01*
X2728Y8463D02*
X2805Y8540D01*
X2728Y8595D02*
X2805Y8518D01*
X856Y9019D02*
X1201Y8675D01*
X856Y8651D02*
X1201Y8996D01*
X856Y8763D02*
X1201Y9107D01*
X856Y8707D02*
X1201Y9051D01*
X856Y9075D02*
X1201Y8730D01*
X856Y8540D02*
X1201Y8884D01*
X856Y8484D02*
X1201Y8829D01*
X856Y8852D02*
X1201Y8508D01*
X856Y8963D02*
X1201Y8619D01*
X856Y8908D02*
X1201Y8563D01*
X856Y8596D02*
X1201Y8940D01*
X856Y8818D02*
X1201Y9163D01*
X856Y9130D02*
X1201Y8786D01*
X856Y9242D02*
X1201Y8897D01*
X856Y9186D02*
X1201Y8842D01*
X856Y8874D02*
X1201Y9218D01*
X856Y8985D02*
X1201Y9330D01*
X856Y9298D02*
X1201Y8953D01*
Y8189D02*
Y9674D01*
X896Y9369D02*
X1201Y9064D01*
X868Y9341D02*
X1201Y9009D01*
X856Y9041D02*
X1201Y9385D01*
X1634Y8854D02*
X1760Y8728D01*
X1634Y8705D02*
X1760Y8831D01*
X1634Y8761D02*
X1760Y8887D01*
X1634Y8910D02*
X1760Y8783D01*
X1634Y8816D02*
X1761Y8943D01*
X1760Y8406D02*
Y8917D01*
X1634Y8965D02*
X1760Y8839D01*
X1634Y8872D02*
X1769Y9007D01*
X1634Y9021D02*
X1760Y8895D01*
X1634Y9077D02*
X1761Y8949D01*
X1634Y8928D02*
X1790Y9083D01*
X856Y8930D02*
X1201Y9274D01*
X1634Y8983D02*
X1854Y9203D01*
X924Y9397D02*
X1201Y9120D01*
X1634Y9188D02*
X1777Y9045D01*
X856Y9097D02*
X1201Y9441D01*
X1634Y8279D02*
Y9398D01*
Y9132D02*
X1767Y8999D01*
X1634Y9244D02*
X1791Y9087D01*
X1634Y9039D02*
X1834Y9240D01*
X1634Y9095D02*
X1794Y9255D01*
X952Y9425D02*
X1201Y9176D01*
X1634Y9299D02*
X1807Y9126D01*
X1007Y9481D02*
X1201Y9287D01*
X1634Y9206D02*
X1730Y9302D01*
X979Y9453D02*
X1201Y9231D01*
X1634Y9150D02*
X1759Y9276D01*
X1786Y9259D02*
X1849Y9196D01*
X1634Y9355D02*
X1827Y9162D01*
X1634Y9317D02*
X1674Y9358D01*
X1634Y9262D02*
X1702Y9330D01*
X1634Y9398D02*
X1736Y9296D01*
X856Y9208D02*
X1201Y9552D01*
X856Y9152D02*
X1201Y9497D01*
X856Y9330D02*
X1201Y9674D01*
X856Y9264D02*
X1201Y9608D01*
X856Y9319D02*
X1201Y9664D01*
X1091Y9564D02*
X1201Y9454D01*
X1035Y9508D02*
X1201Y9343D01*
X1063Y9536D02*
X1201Y9398D01*
X1174Y9648D02*
X1201Y9621D01*
X1119Y9592D02*
X1201Y9510D01*
X1146Y9620D02*
X1201Y9565D01*
X2234Y14873D02*
X2273Y14911D01*
X2222Y14891D02*
X2279Y14834D01*
X2252Y14835D02*
X2328Y14911D01*
X2362Y14834D02*
X2440Y14911D01*
X2258D02*
X2335Y14834D01*
X2252D02*
X2925D01*
X2313Y14911D02*
X2391Y14834D01*
X2307D02*
X2384Y14911D01*
X2369D02*
X2446Y14834D01*
X2206Y14911D02*
X2943D01*
X2418Y14834D02*
X2495Y14911D01*
X2529Y14834D02*
X2607Y14911D01*
X2585Y14834D02*
X2662Y14911D01*
X2536D02*
X2613Y14834D01*
X2425Y14911D02*
X2502Y14834D01*
X2481Y14911D02*
X2558Y14834D01*
X2474D02*
X2551Y14911D01*
X2728Y8873D02*
X2805Y8796D01*
X2728Y8929D02*
X2809Y8848D01*
X2719Y9011D02*
X2797Y9089D01*
X2726Y8962D02*
X2805Y9041D01*
X2706Y9063D02*
X2805Y8963D01*
X2728Y8406D02*
Y8917D01*
Y8818D02*
X2805Y8741D01*
Y8199D02*
Y8848D01*
Y8947D02*
Y9084D01*
X2728Y8741D02*
X2805Y8818D01*
X2728Y8908D02*
X2805Y8985D01*
X2661Y9163D02*
X2805Y9019D01*
X2611Y9232D02*
X2647D01*
X2656Y9171D02*
X2682Y9197D01*
X2647Y9232D02*
X2760Y9119D01*
X2708Y9055D02*
X2766Y9113D01*
X2773Y9107D02*
X2805Y9075D01*
X2676Y9135D02*
X2710Y9169D01*
X2694Y9097D02*
X2738Y9141D01*
X2805Y8818D02*
X2835Y8848D01*
X2728Y8797D02*
X2878Y8947D01*
X2728Y8853D02*
X2822Y8947D01*
X2722Y8990D02*
X2864Y8848D01*
X2798Y14241D02*
X2925D01*
X2805Y8763D02*
X2891Y8848D01*
X2835D02*
X2934Y8947D01*
X2822D02*
X2920Y8848D01*
X2805Y9019D02*
X2877Y8947D01*
X2891Y8848D02*
X2989Y8947D01*
X2877D02*
X2976Y8848D01*
X2840Y14198D02*
X2882Y14241D01*
X2868Y14171D02*
X2980Y14283D01*
X2882Y14241D02*
X2925Y14283D01*
X2980Y14339D01*
X2925Y14356D02*
X2980Y14300D01*
X2925Y14241D02*
Y14834D01*
X2980Y14300D02*
X3009Y14272D01*
X2980D02*
Y15295D01*
X2925Y14394D02*
X2980Y14450D01*
X2925Y14339D02*
X2980Y14394D01*
X2925Y14411D02*
X2980Y14356D01*
X2925Y14673D02*
X2980Y14728D01*
X2925Y14506D02*
X2980Y14561D01*
X2752Y14834D02*
X2829Y14911D01*
X2892Y14834D02*
X2925Y14801D01*
X2759Y14911D02*
X2836Y14834D01*
X2925Y14746D02*
X2980Y14690D01*
X2925Y14467D02*
X2980Y14412D01*
X2925Y14523D02*
X2980Y14467D01*
X2925Y14784D02*
X2980Y14840D01*
X2925Y14729D02*
X2980Y14784D01*
X2925Y14801D02*
X2980Y14746D01*
X2696Y14834D02*
X2774Y14911D01*
X2703D02*
X2780Y14834D01*
X2592Y14911D02*
X2669Y14834D01*
X2648Y14911D02*
X2725Y14834D01*
X2641D02*
X2718Y14911D01*
X2808Y14834D02*
X2885Y14911D01*
X2870D02*
X2980Y14801D01*
X2815Y14911D02*
X2892Y14834D01*
X2863D02*
X2941Y14911D01*
X2885D02*
X2943Y14969D01*
Y14911D02*
Y15295D01*
X2925Y14578D02*
X2980Y14523D01*
X2925Y14450D02*
X2980Y14506D01*
X2919Y14834D02*
X2980Y14895D01*
X2925Y14634D02*
X2980Y14579D01*
X2925Y14617D02*
X2980Y14673D01*
X2926Y14911D02*
X2980Y14857D01*
X2925Y14562D02*
X2980Y14617D01*
X2925Y14690D02*
X2980Y14634D01*
X2943Y15006D02*
X2980Y14968D01*
X2943Y14950D02*
X2980Y14913D01*
X2943Y14914D02*
X2980Y14951D01*
X2943Y15192D02*
X2980Y15229D01*
X2943Y15136D02*
X2980Y15174D01*
X2943Y15229D02*
X2980Y15191D01*
X2943Y15295D02*
X2980D01*
X2943Y15284D02*
X2980Y15247D01*
X2943Y15248D02*
X2980Y15285D01*
X2943Y15025D02*
X2980Y15062D01*
X2943Y14969D02*
X2980Y15007D01*
X2943Y15061D02*
X2980Y15024D01*
X2943Y15173D02*
X2980Y15135D01*
X2943Y15117D02*
X2980Y15080D01*
X2943Y15081D02*
X2980Y15118D01*
X3071Y7136D02*
X3130Y7195D01*
X3126D02*
X3185Y7136D01*
X2960D02*
X3019Y7195D01*
X3070D02*
X3129Y7136D01*
X3015Y7195D02*
X3074Y7136D01*
X3327Y6468D02*
Y6506D01*
X3370D02*
X3407Y6468D01*
X3350D02*
X3388Y6506D01*
X3127Y7136D02*
X3186Y7195D01*
X3327Y6493D02*
X3352Y6468D01*
X3182Y7195D02*
X3241Y7136D01*
X3016D02*
X3075Y7195D01*
X3183Y7136D02*
X3242Y7195D01*
X2697Y8236D02*
X3108Y7825D01*
X2957Y8199D02*
X3331Y7825D01*
X2711Y8278D02*
X3164Y7825D01*
X3294Y7136D02*
X3353Y7195D01*
X3350Y7136D02*
X3409Y7195D01*
X3349D02*
X3408Y7136D01*
X3237Y7195D02*
X3296Y7136D01*
X3293Y7195D02*
X3352Y7136D01*
X3238D02*
X3297Y7195D01*
X3327Y6506D02*
X3573D01*
X3327Y6468D02*
X3782D01*
X3404Y7195D02*
X3463Y7136D01*
X2728D02*
X3573D01*
X3405D02*
X3464Y7195D01*
X3406Y6468D02*
X3444Y6506D01*
X3481D02*
X3519Y6468D01*
X3425Y6506D02*
X3463Y6468D01*
X3462D02*
X3499Y6506D01*
X3461Y7136D02*
X3520Y7195D01*
X3460D02*
X3519Y7136D01*
X2728Y7195D02*
X3573D01*
X3236Y8199D02*
X3983Y7451D01*
X3180Y8199D02*
X3554Y7825D01*
X3204D02*
X3952Y8573D01*
X3148Y7825D02*
X3896Y8573D01*
X3291Y8199D02*
X4025Y7465D01*
X3403Y8199D02*
X4132Y7469D01*
X3347Y8199D02*
X4077Y7469D01*
X3458Y8199D02*
X4188Y7469D01*
X3494Y8219D02*
X4244Y7469D01*
X3494Y8274D02*
X4299Y7469D01*
X2900Y8027D02*
X3101Y7825D01*
X2846Y8199D02*
X3220Y7825D01*
X2872Y8050D02*
X3021Y8199D01*
X2901D02*
X3276Y7825D01*
X2902Y8024D02*
X3076Y8199D01*
X3069Y7857D02*
X3411Y8199D01*
X3097Y7829D02*
X3466Y8199D01*
X3069D02*
X3443Y7825D01*
X2930Y7997D02*
X3132Y8199D01*
X2985Y7941D02*
X3243Y8199D01*
X2958Y7969D02*
X3188Y8199D01*
X3013Y7913D02*
X3299Y8199D01*
X3013D02*
X3387Y7825D01*
X2933Y8947D02*
X3031Y8848D01*
X2805D02*
X3168D01*
X2805Y8947D02*
X3267D01*
X3041Y7885D02*
X3355Y8199D01*
X3466D02*
X3494Y8227D01*
X3411Y8199D02*
X3494Y8282D01*
X3058Y8848D02*
X3156Y8947D01*
X3168Y8848D02*
X3267Y8947D01*
X3211D02*
X3239Y8919D01*
X3315Y7825D02*
X3963Y8473D01*
X3371Y7825D02*
X3963Y8417D01*
X2805Y8199D02*
X3494D01*
X3101Y7825D02*
X3573D01*
X3124Y8199D02*
X3498Y7825D01*
X3494Y8330D02*
X3963Y7862D01*
X3482Y7825D02*
X3963Y8305D01*
X3426Y7825D02*
X3963Y8361D01*
X3494Y8497D02*
X3963Y8029D01*
X3494Y8386D02*
X3963Y7917D01*
X3494Y8441D02*
X3963Y7973D01*
X3494Y8553D02*
X3963Y8084D01*
X3259Y7825D02*
X4007Y8573D01*
X3494Y8199D02*
Y8562D01*
Y8282D02*
X3785Y8573D01*
X3494Y8338D02*
X3729Y8573D01*
X3494Y8449D02*
X3617Y8573D01*
X3494Y8227D02*
X3840Y8573D01*
X3494Y8394D02*
X3673Y8573D01*
X3494Y8562D02*
X3593Y8660D01*
X3494Y8505D02*
X3593Y8604D01*
X3494Y8561D02*
X3593Y8659D01*
X3573Y6525D02*
X3630Y6468D01*
X3573Y6581D02*
X3686Y6468D01*
X3517D02*
X3555Y6506D01*
X3537D02*
X3574Y6468D01*
X3499Y6506D02*
X3573Y6579D01*
X3726Y6733D01*
X3573Y6468D02*
X3726Y6622D01*
X3573Y6524D02*
X3726Y6677D01*
X3573Y6691D02*
X3726Y6844D01*
X3573Y6635D02*
X3726Y6789D01*
X3573Y6804D02*
X3726Y6650D01*
X3573Y7082D02*
X3726Y6929D01*
X3573Y6915D02*
X3726Y6762D01*
X3519Y7136D02*
X3573Y7082D01*
X3516Y7195D02*
X3726Y6984D01*
X3571Y7195D02*
X3726Y7040D01*
X3573Y6506D02*
Y7136D01*
Y6859D02*
X3726Y6706D01*
Y6613D02*
Y7126D01*
X3573Y7249D02*
X3726Y7096D01*
X3573Y6746D02*
X3726Y6900D01*
X3573Y6969D02*
X3726Y7123D01*
X3629Y6468D02*
X3731Y6570D01*
X3573Y6637D02*
X3741Y6468D01*
X3573Y6748D02*
X3727Y6594D01*
X3684Y6468D02*
X3744Y6528D01*
X3573Y6692D02*
X3749Y6516D01*
X3870Y6320D02*
X3900Y6350D01*
X3870Y6208D02*
X3956Y6294D01*
X3870Y6264D02*
X3928Y6322D01*
X3740Y6468D02*
X3763Y6492D01*
X3573Y6858D02*
X3726Y7011D01*
X3573Y6802D02*
X3726Y6956D01*
X3573Y7026D02*
X3726Y6873D01*
X3572Y7136D02*
X4254Y7817D01*
X3517Y7136D02*
X4198Y7817D01*
X3573Y6971D02*
X3726Y6817D01*
X3573Y6914D02*
X3726Y7067D01*
X3573Y7025D02*
X3735Y7187D01*
X3573Y7081D02*
X4309Y7817D01*
X3520Y7195D02*
X3573Y7248D01*
Y7305D02*
X3728Y7150D01*
X3573Y7360D02*
X3738Y7196D01*
X3573Y7416D02*
X3755Y7234D01*
X3573Y7472D02*
X3778Y7267D01*
X3573Y7527D02*
X3805Y7295D01*
X3790Y7279D02*
X3916Y7405D01*
X3573Y7583D02*
X3833Y7323D01*
X3573Y7639D02*
X3861Y7351D01*
X3573Y7695D02*
X3889Y7378D01*
X3573Y7750D02*
X3917Y7406D01*
X3573Y7806D02*
X3947Y7431D01*
X3573Y7470D02*
X3963Y7860D01*
X3498Y7825D02*
X3573Y7750D01*
Y7526D02*
X3963Y7916D01*
X3545Y8613D02*
X3963Y8196D01*
X3573Y7195D02*
Y7825D01*
Y7582D02*
X3963Y7971D01*
X3573Y7637D02*
X3963Y8027D01*
X3593Y8573D02*
Y8660D01*
X3573Y7693D02*
X3963Y8083D01*
X3593Y8621D02*
X3641Y8573D01*
X3573Y7303D02*
X4087Y7817D01*
X3573Y7248D02*
X4142Y7817D01*
X3538Y7825D02*
X3963Y8250D01*
X3573Y7359D02*
X4031Y7817D01*
X3573Y7415D02*
X3975Y7817D01*
X3573Y7749D02*
X3963Y8138D01*
X3573Y7804D02*
X3963Y8194D01*
Y7817D02*
X4755D01*
X3963Y7862D02*
X4007Y7817D01*
X3697Y8573D02*
X3963Y8307D01*
X3641Y8573D02*
X3963Y8251D01*
X3517Y8585D02*
X3963Y8140D01*
X3752Y8573D02*
X3963Y8363D01*
X3593Y8573D02*
X4154D01*
X3808D02*
X3963Y8418D01*
Y7817D02*
Y8510D01*
Y8417D02*
X4056Y8510D01*
X3963Y8473D02*
X4000Y8510D01*
X3864Y8573D02*
X3963Y8474D01*
Y8510D02*
X4154D01*
X3919Y8573D02*
X3982Y8510D01*
X2947Y8848D02*
X3045Y8947D01*
X2989D02*
X3087Y8848D01*
X3002D02*
X3101Y8947D01*
X3100D02*
X3183Y8864D01*
X3044Y8947D02*
X3143Y8848D01*
X3156Y8947D02*
X3211Y8891D01*
X3114Y8848D02*
X3212Y8947D01*
X3720Y10581D02*
Y10797D01*
X3480Y13427D02*
X3533D01*
X3169D02*
X3480D01*
X3169Y13499D02*
X3241Y13427D01*
X3169Y13666D02*
X3408Y13427D01*
X3169Y13610D02*
X3353Y13427D01*
X3169Y13722D02*
X3464Y13427D01*
X2817Y14241D02*
X3613Y13445D01*
X3238Y13427D02*
X3558Y13747D01*
X3293Y13427D02*
X3620Y13753D01*
X3349Y13427D02*
X3702Y13779D01*
X3169Y13427D02*
Y13780D01*
Y13555D02*
X3297Y13427D01*
X3182D02*
X3505Y13750D01*
X3720Y10721D02*
X3860Y10581D01*
X3720Y10776D02*
X3967Y10530D01*
X3720Y10609D02*
X3749Y10581D01*
X3720D02*
X3907D01*
X3720Y10665D02*
X3805Y10581D01*
X3760Y9345D02*
X3882Y9222D01*
X3760Y9568D02*
X4105Y9222D01*
X3760Y9623D02*
X4161Y9222D01*
X3760Y9550D02*
X3865Y9656D01*
X3760Y9272D02*
X4076Y9588D01*
X3760Y9439D02*
X3976Y9656D01*
X3460Y13427D02*
X3993Y13960D01*
X3720Y10736D02*
X4225Y11240D01*
X3405Y13427D02*
X3938Y13960D01*
X3635Y13757D02*
X3947Y13445D01*
X3646D02*
X4006Y13805D01*
X3755Y10797D02*
X3972Y10581D01*
X3732D02*
X4392Y11240D01*
X3720Y10625D02*
X4336Y11240D01*
X3726Y10797D02*
X3770Y10841D01*
X3720Y10797D02*
X3770D01*
X3720Y10680D02*
X4280Y11240D01*
X2798Y14241D02*
X3106Y13933D01*
X2925Y14244D02*
X3244Y13925D01*
X3063Y13976D02*
X3196Y14109D01*
X3035Y14004D02*
X3202Y14171D01*
X3007Y14031D02*
X3228Y14252D01*
X3158Y13848D02*
X3241Y13931D01*
X3091Y13948D02*
X3199Y14056D01*
X3141Y13887D02*
X3223Y13969D01*
X3118Y13920D02*
X3209Y14010D01*
X2979Y14059D02*
X3192Y14272D01*
X2925Y14300D02*
X3206Y14019D01*
X2896Y14143D02*
X3025Y14272D01*
X2951Y14087D02*
X3136Y14272D01*
X2924Y14115D02*
X3080Y14272D01*
X3009D02*
X3196Y14084D01*
X3120Y14272D02*
X3205Y14186D01*
X3065Y14272D02*
X3198Y14139D01*
X2980Y14356D02*
X3065Y14272D01*
X2980D02*
X3237D01*
X3176D02*
X3218Y14229D01*
X3467Y13757D02*
X3780Y13445D01*
X3480D02*
X3980D01*
X3169Y13525D02*
X3418Y13774D01*
X3169Y13470D02*
X3459Y13760D01*
X3169Y13777D02*
X3502Y13445D01*
X3701D02*
X4015Y13758D01*
X3757Y13445D02*
X4028Y13716D01*
X3717Y13787D02*
X4058Y13445D01*
X3533Y13748D02*
X3836Y13445D01*
X3588Y13749D02*
X3891Y13445D01*
X3678Y13770D02*
X4003Y13445D01*
X3169Y13581D02*
X3380Y13792D01*
X3160Y13842D02*
X3557Y13445D01*
X2873Y14241D02*
X3669Y13445D01*
X3168Y13803D02*
X3262Y13897D01*
X3169Y13637D02*
X3346Y13813D01*
X3169Y13692D02*
X3315Y13838D01*
X3590Y13445D02*
X4003Y13858D01*
X3752Y13807D02*
X4114Y13445D01*
X3534D02*
X4010Y13921D01*
X3169Y13748D02*
X3287Y13866D01*
X3374Y13795D02*
X3724Y13445D01*
X3760Y9289D02*
X3827Y9222D01*
X3760Y9401D02*
X3938Y9222D01*
X3760D02*
Y9656D01*
Y9606D02*
X3809Y9656D01*
X3760Y9495D02*
X3967Y9701D01*
X3760Y9656D02*
X3907D01*
X3865D02*
X3907Y9698D01*
Y9754D02*
X3967Y9695D01*
X3907Y9977D02*
X3967Y9918D01*
X3907Y9698D02*
X3967Y9757D01*
X3907Y9810D02*
X3967Y9751D01*
X3907Y10032D02*
X3967Y9973D01*
X3907Y9921D02*
X3967Y9980D01*
X3907Y10088D02*
X3967Y10147D01*
X3907Y10032D02*
X3967Y10091D01*
X3907Y10144D02*
X3967Y10085D01*
X3907Y9656D02*
Y10581D01*
Y10199D02*
X3967Y10140D01*
Y9656D02*
Y10581D01*
X3907Y10199D02*
X3967Y10258D01*
X3907Y10143D02*
X3967Y10202D01*
X3907Y10255D02*
X3967Y10196D01*
X3760Y9512D02*
X4049Y9222D01*
X3760D02*
X4281D01*
X3760Y9456D02*
X3994Y9222D01*
X3760Y9328D02*
X4066Y9634D01*
X3760Y9383D02*
X4032Y9656D01*
X3766Y9222D02*
X4093Y9549D01*
X3822Y9222D02*
X4116Y9516D01*
X3895Y9656D02*
X4862Y8688D01*
X3967Y9656D02*
X4065D01*
X3933Y9222D02*
X4171Y9460D01*
X3877Y9222D02*
X4143Y9488D01*
X3783Y9656D02*
X4216Y9222D01*
X3907Y9698D02*
X4862Y8744D01*
X3907Y9865D02*
X3967Y9806D01*
X3839Y9656D02*
X4272Y9222D01*
X3907Y9754D02*
X3967Y9813D01*
X3907Y9921D02*
X3967Y9862D01*
Y9695D02*
X4006Y9656D01*
X3907Y9809D02*
X3967Y9868D01*
X3907Y10088D02*
X3967Y10029D01*
X3907Y9865D02*
X3967Y9924D01*
X3907Y9976D02*
X3967Y10035D01*
X3907Y10422D02*
X3967Y10481D01*
X3907Y10478D02*
X3967Y10419D01*
X3860Y10581D02*
X3907Y10534D01*
X3967Y10474D01*
X3907Y10477D02*
X3967Y10537D01*
X3907Y10366D02*
X3967Y10307D01*
X3907Y10311D02*
X3967Y10252D01*
X3907Y10255D02*
X3967Y10314D01*
X3907Y10366D02*
X3967Y10425D01*
X3907Y10310D02*
X3967Y10369D01*
X3907Y10422D02*
X3967Y10363D01*
X3770Y11008D02*
X4002Y11240D01*
X3770Y10838D02*
X4027Y10581D01*
X3770Y11175D02*
X3835Y11240D01*
X3770Y11063D02*
X3946Y11240D01*
X3770Y11119D02*
X3891Y11240D01*
X3770Y10797D02*
Y11240D01*
X3838Y13888D02*
X4044Y13682D01*
X3860Y13922D02*
X4012Y13770D01*
X3879Y13958D02*
X4003Y13834D01*
X3880Y13960D02*
X4021D01*
X3933D02*
X4005Y13888D01*
X3770Y10894D02*
X4083Y10581D01*
X3770Y10950D02*
X4139Y10581D01*
X3770Y11005D02*
X4194Y10581D01*
X3770Y11061D02*
X4250Y10581D01*
X3770Y11117D02*
X4306Y10581D01*
X3770Y11172D02*
X4361Y10581D01*
X3770Y11228D02*
X4417Y10581D01*
X3907Y10533D02*
X4614Y11240D01*
X3770Y10952D02*
X4058Y11240D01*
X3925D02*
X4584Y10581D01*
X3770Y10841D02*
X4169Y11240D01*
X3770Y10896D02*
X4113Y11240D01*
X3770D02*
X4674D01*
X3788Y10581D02*
X4447Y11240D01*
X3813Y13445D02*
X4046Y13678D01*
X3783Y13831D02*
X4170Y13445D01*
X3812Y13858D02*
X4225Y13445D01*
X3813Y11240D02*
X4473Y10581D01*
X3869Y11240D02*
X4528Y10581D01*
X3844D02*
X4503Y11240D01*
X3868Y13445D02*
X4067Y13644D01*
X3899Y10581D02*
X4559Y11240D01*
X3924Y13445D02*
X4092Y13613D01*
X4039Y197D02*
X4117Y276D01*
X4088D02*
X4166Y197D01*
X3976Y276D02*
X4055Y197D01*
X4032Y276D02*
X4111Y197D01*
X3983D02*
X4062Y276D01*
X4199D02*
X4278Y197D01*
X4317D02*
X4396Y276D01*
X4206Y197D02*
X4284Y276D01*
X4094Y197D02*
X4173Y276D01*
X4150Y197D02*
X4229Y276D01*
X4143D02*
X4222Y197D01*
X4224Y807D02*
X4323Y709D01*
X4224Y1086D02*
X4601Y709D01*
X4224Y752D02*
X4267Y709D01*
X4224Y863D02*
X4378Y709D01*
X4224Y919D02*
X4434Y709D01*
X4255Y276D02*
X4334Y197D01*
X4310Y276D02*
X4389Y197D01*
X4261D02*
X4340Y276D01*
X4224Y709D02*
Y1193D01*
Y974D02*
X4490Y709D01*
X4224Y1030D02*
X4546Y709D01*
X4112Y1309D02*
X4713Y709D01*
X4168Y1309D02*
X4768Y709D01*
X4224Y1142D02*
X4657Y709D01*
X4224Y1309D02*
X4824Y709D01*
X4224Y772D02*
X4876Y1424D01*
X4328Y709D02*
X4876Y1257D01*
X4224Y709D02*
X4876D01*
X4272D02*
X4876Y1313D01*
X4242Y1402D02*
X4876Y768D01*
X4242Y1346D02*
X4876Y712D01*
X4224Y716D02*
X4876Y1368D01*
X4224Y883D02*
X4844Y1503D01*
X4224Y828D02*
X4872Y1475D01*
X4224Y1050D02*
X4760Y1587D01*
X4224Y939D02*
X4816Y1531D01*
X4224Y995D02*
X4788Y1559D01*
X4242Y1569D02*
X4876Y935D01*
X4242Y1457D02*
X4876Y824D01*
X4242Y1513D02*
X4876Y879D01*
X4242Y1736D02*
X4876Y1102D01*
X4242Y1625D02*
X4876Y991D01*
X4242Y1680D02*
X4876Y1046D01*
X3981Y1273D02*
X4062Y1193D01*
X3976D02*
X4093Y1309D01*
X4009Y1301D02*
X4117Y1193D01*
X4017Y1309D02*
X4242D01*
X4032Y1193D02*
X4149Y1309D01*
X4056D02*
X4173Y1193D01*
X4224Y1142D01*
X4088Y1193D02*
X4204Y1309D01*
X4242D02*
Y1742D01*
X4204Y1309D02*
X4242Y1347D01*
X4149Y1309D02*
X4242Y1403D01*
X4124Y3386D02*
Y3445D01*
Y3413D02*
X4151Y3386D01*
X4106Y4044D02*
Y4124D01*
X4124Y3400D02*
X4169Y3445D01*
X4124Y3914D02*
X4160Y3878D01*
X4148Y3445D02*
X4207Y3386D01*
X4203Y3445D02*
X4263Y3386D01*
X4165D02*
X4224Y3445D01*
X4124Y3878D02*
Y4124D01*
Y3970D02*
X4216Y3878D01*
X4124Y4025D02*
X4271Y3878D01*
X4224Y1162D02*
X4705Y1643D01*
X4224Y1106D02*
X4733Y1615D01*
X4242Y1347D02*
X4621Y1726D01*
X4199Y1193D02*
X4677Y1670D01*
X4143Y1193D02*
X4649Y1698D01*
X4242Y1570D02*
X4415Y1742D01*
X4242Y1403D02*
X4582Y1742D01*
X4242Y1514D02*
X4470Y1742D01*
X4242Y1681D02*
X4303Y1742D01*
X4242D02*
X4528D01*
X4242Y1625D02*
X4359Y1742D01*
X4221Y3386D02*
X4280Y3445D01*
X4242Y1458D02*
X4526Y1742D01*
X4124Y3878D02*
X4280D01*
X4124Y3445D02*
X4370D01*
X4124Y4081D02*
X4304Y3901D01*
X4259Y3445D02*
X4318Y3386D01*
X4292Y1742D02*
X4876Y1158D01*
X4277Y3386D02*
X4336Y3445D01*
X4315D02*
X4374Y3386D01*
X4280Y3878D02*
X4469Y4066D01*
X4268Y3878D02*
X4469Y4079D01*
X4428Y197D02*
X4507Y276D01*
X4477D02*
X4556Y197D01*
X4366Y276D02*
X4445Y197D01*
X4422Y276D02*
X4501Y197D01*
X4373D02*
X4451Y276D01*
X4589D02*
X4668Y197D01*
X4645Y276D02*
X4723Y197D01*
X4595D02*
X4674Y276D01*
X4484Y197D02*
X4563Y276D01*
X4540Y197D02*
X4618Y276D01*
X4533D02*
X4612Y197D01*
X4459Y1742D02*
X4876Y1325D01*
X4439Y709D02*
X4876Y1146D01*
X4605Y1742D02*
X4876Y1471D01*
X4514Y1742D02*
X4876Y1380D01*
X4570Y1742D02*
X4876Y1436D01*
X4651Y197D02*
X4730Y276D01*
X4707Y197D02*
X4786Y276D01*
X4700D02*
X4779Y197D01*
X4756Y276D02*
X4835Y197D01*
X4762D02*
X4841Y276D01*
X4717Y709D02*
X4876Y867D01*
X4874Y197D02*
X4953Y276D01*
X4923D02*
X5002Y197D01*
X4812Y276D02*
X4890Y197D01*
X4867Y276D02*
X4946Y197D01*
X4818D02*
X4897Y276D01*
X5041Y197D02*
X5120Y276D01*
X5097Y197D02*
X5175Y276D01*
X5090D02*
X5169Y197D01*
X4929D02*
X5008Y276D01*
X4985Y197D02*
X5064Y276D01*
X4979D02*
X5057Y197D01*
X4495Y709D02*
X4876Y1090D01*
X4383Y709D02*
X4876Y1201D01*
X4403Y1742D02*
X4876Y1269D01*
X4550Y709D02*
X4876Y1034D01*
X4347Y1742D02*
X4876Y1213D01*
X4829Y709D02*
X4876Y756D01*
X5034Y276D02*
X5113Y197D01*
X4876Y709D02*
Y1471D01*
X4606Y709D02*
X4876Y979D01*
X4773Y709D02*
X4876Y811D01*
X4662Y709D02*
X4876Y923D01*
X4332Y3386D02*
X4393Y3446D01*
X4370Y3445D02*
X4430Y3386D01*
X4388D02*
X4473Y3471D01*
X4420Y3451D02*
X4485Y3386D01*
X4528Y1742D02*
X4605D01*
X4462Y3465D02*
X4541Y3386D01*
X4497Y3486D02*
X4597Y3386D01*
X4526Y3512D02*
X4652Y3386D01*
X4554Y3539D02*
X4708Y3386D01*
X4610Y3595D02*
X4819Y3386D01*
X4638Y3623D02*
X4875Y3386D01*
X4582Y3567D02*
X4764Y3386D01*
X4524Y3509D02*
X4838Y3823D01*
X4555Y3386D02*
X5128Y3959D01*
X4666Y3651D02*
X4931Y3386D01*
X4693Y3679D02*
X4986Y3386D01*
X4721Y3706D02*
X5042Y3386D01*
X4749Y3734D02*
X5098Y3386D01*
X4833D02*
X5128Y3680D01*
X4805Y3790D02*
X5209Y3386D01*
X4778D02*
X5128Y3736D01*
X4777Y3762D02*
X5153Y3386D01*
X4722D02*
X5128Y3792D01*
X5056Y3386D02*
X5164Y3494D01*
X5168Y3386D02*
X5201Y3420D01*
X5112Y3386D02*
X5182Y3455D01*
X4889Y3386D02*
X5131Y3628D01*
X5000Y3386D02*
X5150Y3535D01*
X4945Y3386D02*
X5138Y3579D01*
X4444Y3386D02*
X5128Y4070D01*
X4611Y3386D02*
X5128Y3903D01*
X4499Y3386D02*
X5128Y4014D01*
X4666Y3386D02*
X5128Y3847D01*
X4833Y3818D02*
X5170Y3481D01*
X4859Y3847D02*
X5142Y3564D01*
X4902Y3972D02*
X5128Y3745D01*
X4880Y3882D02*
X5130Y3631D01*
X4895Y3923D02*
X5128Y3690D01*
X4875Y3873D02*
X5128Y4126D01*
X4902Y4027D02*
X5128Y3801D01*
X4902Y4083D02*
X5128Y3857D01*
X4106Y4155D02*
X4332Y3929D01*
X4106Y4211D02*
X4359Y3957D01*
X4106Y4266D02*
X4387Y3985D01*
X4106Y4322D02*
X4415Y4013D01*
X4106Y4378D02*
X4443Y4041D01*
X4124Y3901D02*
X4469Y4246D01*
X4212Y3878D02*
X4469Y4134D01*
X4156Y3878D02*
X4469Y4190D01*
X4124Y4068D02*
X4469Y4413D01*
X4124Y3957D02*
X4469Y4301D01*
X4124Y4013D02*
X4469Y4357D01*
X4106Y4489D02*
X4469Y4126D01*
X4106Y4433D02*
X4469Y4071D01*
X4052Y4933D02*
X4106Y4879D01*
Y4162D02*
X4469Y4524D01*
X4106Y4545D02*
X4469Y4182D01*
X4106Y4124D02*
Y4933D01*
X4124Y4124D02*
X4469Y4469D01*
Y4066D02*
Y5463D01*
X4106Y4600D02*
X4469Y4238D01*
X4124Y4124D02*
X4469Y4469D01*
X4106Y4217D02*
X4469Y4580D01*
X4106Y4823D02*
X4469Y4460D01*
X4106Y4440D02*
X4469Y4803D01*
X4106Y4551D02*
X4469Y4914D01*
X4106Y4496D02*
X4469Y4858D01*
X4106Y4879D02*
X4469Y4516D01*
X4106Y4329D02*
X4469Y4691D01*
X4106Y4273D02*
X4469Y4636D01*
X4106Y4656D02*
X4469Y4293D01*
X4106Y4767D02*
X4469Y4405D01*
X4106Y4712D02*
X4469Y4349D01*
X4106Y4384D02*
X4469Y4747D01*
X3986Y4933D02*
X4469Y5415D01*
X4042Y4933D02*
X4469Y5359D01*
X4079Y5463D02*
X4469Y5073D01*
X4098Y4933D02*
X4469Y5304D01*
X4023Y5463D02*
X4469Y5017D01*
X4106Y4718D02*
X4469Y5081D01*
X4106Y4607D02*
X4469Y4970D01*
X4106Y4663D02*
X4469Y5025D01*
X4106Y4885D02*
X4469Y5248D01*
X4106Y4774D02*
X4469Y5137D01*
X4106Y4830D02*
X4469Y5192D01*
X3986Y5499D02*
X4023Y5463D01*
X3986D02*
X4469D01*
X3986D02*
Y6112D01*
Y5555D02*
X4079Y5463D01*
X3986Y6112D02*
X4114D01*
X4246Y5463D02*
X4469Y5240D01*
X4134Y5463D02*
X4469Y5129D01*
X4190Y5463D02*
X4469Y5184D01*
X4413Y5463D02*
X4469Y5407D01*
X4301Y5463D02*
X4469Y5296D01*
X4357Y5463D02*
X4469Y5351D01*
X3986Y6046D02*
X4052Y6112D01*
X3996D02*
X4067Y6183D01*
X4052Y6112D02*
X4095Y6155D01*
X4008Y7460D02*
X4365Y7817D01*
X4007D02*
X4355Y7469D01*
X4070D02*
X4407D01*
X4129D02*
X4476Y7817D01*
X4073Y7469D02*
X4421Y7817D01*
X4063D02*
X4409Y7471D01*
X4174Y7817D02*
X4465Y7527D01*
X4119Y7817D02*
X4437Y7499D01*
X4778Y6949D02*
X5128Y7299D01*
X4778Y6893D02*
X5128Y7244D01*
X4778Y7005D02*
X5128Y7355D01*
X4778Y7060D02*
X5133Y7416D01*
X4778Y7116D02*
X5149Y7488D01*
X4778Y6552D02*
Y7222D01*
Y7102D02*
X5135Y6744D01*
X4778Y6782D02*
X5128Y7132D01*
X4778Y7214D02*
X5128Y6863D01*
X4778Y7158D02*
X5129Y6807D01*
X4778Y6838D02*
X5128Y7188D01*
X4184Y7469D02*
X4532Y7817D01*
X4296Y7469D02*
X4643Y7817D01*
X4240Y7469D02*
X4588Y7817D01*
X4230D02*
X4492Y7554D01*
X4341Y7817D02*
X4548Y7610D01*
X4286Y7817D02*
X4520Y7582D01*
X4351Y7469D02*
X4699Y7817D01*
X4778Y7172D02*
X5190Y7584D01*
X4407Y7469D02*
X4755Y7817D01*
X4397D02*
X4576Y7638D01*
X4407Y7469D02*
X4755Y7817D01*
X4453D02*
X4604Y7666D01*
X4900Y3954D02*
X5128Y4181D01*
X4902Y4139D02*
X5128Y3912D01*
X4902Y4306D02*
X5128Y4079D01*
X4902Y4194D02*
X5128Y3968D01*
X4902Y4250D02*
X5128Y4024D01*
X4902Y4417D02*
X5128Y4191D01*
Y3681D02*
Y4193D01*
X4902Y4361D02*
X5128Y4135D01*
X4902Y5180D02*
X5128Y5406D01*
X4902Y5069D02*
X5128Y5295D01*
X4902Y5124D02*
X5128Y5351D01*
X4902Y5291D02*
X5128Y5518D01*
X4902Y5236D02*
X5128Y5462D01*
X4902Y5403D02*
X5128Y5629D01*
X4902Y5347D02*
X5128Y5573D01*
X4902Y5586D02*
X5128Y5360D01*
X4902Y3976D02*
Y6339D01*
Y5642D02*
X5128Y5416D01*
Y5256D02*
Y5768D01*
X4902Y5514D02*
X5128Y5740D01*
X4902Y5458D02*
X5128Y5685D01*
X4902Y5698D02*
X5128Y5471D01*
X4902Y4640D02*
X5163Y4378D01*
X4902Y4695D02*
X5181Y4417D01*
X4902Y4735D02*
X5187Y5020D01*
X4902Y4751D02*
X5200Y4452D01*
X4902Y4679D02*
X5207Y4985D01*
X4902Y4011D02*
X5130Y4239D01*
X4902Y4066D02*
X5141Y4306D01*
X4902Y4122D02*
X5167Y4388D01*
X4902Y4473D02*
X5131Y4244D01*
X4902Y4528D02*
X5138Y4292D01*
X4902Y4584D02*
X5149Y4337D01*
X4902Y5364D02*
X5147Y5118D01*
X4902Y5308D02*
X5184Y5026D01*
X4902Y5531D02*
X5128Y5304D01*
X4902Y5419D02*
X5133Y5188D01*
X4902Y5475D02*
X5128Y5249D01*
X4902Y4902D02*
X5141Y5141D01*
X4902Y4790D02*
X5169Y5057D01*
X4902Y4846D02*
X5153Y5098D01*
X4902Y5013D02*
X5128Y5240D01*
X4902Y4902D02*
X5141Y5141D01*
X4902Y4957D02*
X5133Y5188D01*
X4778Y6552D02*
X4838Y6492D01*
X4778Y6615D02*
X5128Y6965D01*
X4802Y6528D02*
X5128Y6854D01*
X4778Y6559D02*
X5128Y6910D01*
X4902Y5865D02*
X5128Y5638D01*
X4902Y5753D02*
X5128Y5527D01*
X4902Y5809D02*
X5128Y5583D01*
X4902Y5920D02*
X5128Y5694D01*
X4902Y5976D02*
X5128Y5750D01*
X4778Y6726D02*
X5128Y7077D01*
X4778Y6671D02*
X5128Y7021D01*
X4854Y7304D02*
X5128Y7030D01*
X4799Y7248D02*
X5128Y6919D01*
X4826Y7276D02*
X5128Y6975D01*
X4910Y7360D02*
X5128Y7142D01*
X4882Y7332D02*
X5128Y7086D01*
Y6831D02*
Y7343D01*
X4993Y7443D02*
X5128Y7309D01*
X4938Y7387D02*
X5128Y7197D01*
X4966Y7415D02*
X5128Y7253D01*
X4902Y6199D02*
X5159Y5941D01*
X4902Y6254D02*
X5175Y5981D01*
X4901Y6349D02*
X5174Y6621D01*
X4902Y6310D02*
X5194Y6017D01*
X4902Y6294D02*
X5193Y6584D01*
X4902Y5570D02*
X5129Y5797D01*
X4902Y5625D02*
X5137Y5860D01*
X4902Y5681D02*
X5157Y5937D01*
X4902Y6032D02*
X5129Y5804D01*
X4902Y6087D02*
X5135Y5854D01*
X4902Y6143D02*
X5145Y5899D01*
X4856Y6471D02*
X5135Y6749D01*
X4894Y6397D02*
X5158Y6661D01*
X4878Y6437D02*
X5144Y6703D01*
X4830Y6500D02*
X5129Y6799D01*
X4778Y6991D02*
X5205Y6563D01*
X4778Y7047D02*
X5155Y6670D01*
X5021Y7471D02*
X5128Y7364D01*
X5049Y7499D02*
X5133Y7415D01*
X5077Y7527D02*
X5142Y7461D01*
X5105Y7554D02*
X5155Y7505D01*
X5133Y7582D02*
X5170Y7545D01*
X5160Y7610D02*
X5189Y7582D01*
X5208Y197D02*
X5287Y276D01*
X5257D02*
X5336Y197D01*
X5146Y276D02*
X5224Y197D01*
X5201Y276D02*
X5280Y197D01*
X5152D02*
X5231Y276D01*
X5368D02*
X5447Y197D01*
X5480Y276D02*
X5558Y197D01*
X5431D02*
X5509Y276D01*
X5264Y197D02*
X5342Y276D01*
X5319Y197D02*
X5398Y276D01*
X5313D02*
X5391Y197D01*
X4124Y3386D02*
X5224D01*
X4902Y4178D02*
X5496Y4772D01*
X4902Y4345D02*
X5378Y4822D01*
X4902Y4233D02*
X5454Y4786D01*
X4902Y4289D02*
X5415Y4802D01*
X5486Y197D02*
X5565Y276D01*
X5542Y197D02*
X5621Y276D01*
X5535D02*
X5614Y197D01*
X5424Y276D02*
X5503Y197D01*
X5375D02*
X5454Y276D01*
X5702D02*
X5781Y197D01*
X5709D02*
X5788Y276D01*
X5591D02*
X5670Y197D01*
X5647Y276D02*
X5725Y197D01*
X5598D02*
X5676Y276D01*
X5820Y197D02*
X5899Y276D01*
X5925D02*
X6004Y197D01*
X5869Y276D02*
X5948Y197D01*
X5758Y276D02*
X5837Y197D01*
X5814Y276D02*
X5893Y197D01*
X5765D02*
X5843Y276D01*
X5653Y197D02*
X5732Y276D01*
X5876Y197D02*
X5957Y278D01*
X5932Y197D02*
X6050Y315D01*
X5975Y281D02*
X6060Y197D01*
X5987D02*
X6485Y695D01*
X6036Y3386D02*
X6111D01*
X6016Y296D02*
X6115Y197D01*
X4902Y4807D02*
X5222Y4486D01*
X4902Y4400D02*
X5344Y4843D01*
X4902Y4862D02*
X5247Y4517D01*
X5435Y4655D02*
X5541Y4762D01*
X5400Y4810D02*
X5526Y4684D01*
X5492Y4773D02*
X5573Y4692D01*
X5623Y4754D02*
X5685Y4692D01*
X5517Y4682D02*
X5591Y4755D01*
X5562Y4759D02*
X5626Y4695D01*
X5584Y4693D02*
X5645Y4754D01*
X5641Y4695D02*
X5706Y4760D01*
X4902Y5030D02*
X5333Y4598D01*
X4902Y5085D02*
X5367Y4620D01*
X4902Y5141D02*
X5402Y4640D01*
X4902Y5197D02*
X5440Y4658D01*
X4902Y5252D02*
X5481Y4672D01*
X4902Y4918D02*
X5273Y4546D01*
X4902Y4456D02*
X5312Y4867D01*
X4902Y4512D02*
X5283Y4893D01*
X4902Y4623D02*
X5230Y4952D01*
X4902Y4568D02*
X5256Y4922D01*
X4902Y4974D02*
X5302Y4573D01*
X5770Y4774D02*
X6152Y4392D01*
X5811Y4788D02*
X6200Y4400D01*
X5676Y4756D02*
X5753Y4680D01*
X5725Y4763D02*
X5838Y4650D01*
X5693Y4691D02*
X5779Y4776D01*
X5990Y4543D02*
X6096Y4648D01*
X6016Y4513D02*
X6111Y4608D01*
X5850Y4805D02*
X6255Y4400D01*
X5931Y4595D02*
X6080Y4744D01*
X5962Y4570D02*
X6085Y4693D01*
X5898Y4617D02*
X6083Y4802D01*
X5863Y4638D02*
X6101Y4876D01*
X5825Y4656D02*
X6159Y4990D01*
X5740Y4683D02*
X5877Y4819D01*
X5784Y4671D02*
X6104Y4990D01*
X5951Y4870D02*
X6080Y4742D01*
X5886Y4824D02*
X6118Y4592D01*
X5920Y4846D02*
X6088Y4678D01*
X5981Y4897D02*
X6082Y4795D01*
X6008Y4925D02*
X6091Y4842D01*
X6033Y4956D02*
X6104Y4885D01*
X6051Y316D02*
X6171Y197D01*
X6043D02*
X6541Y695D01*
X6081Y342D02*
X6227Y197D01*
X6109Y370D02*
X6282Y197D01*
X6079Y339D02*
X6295Y555D01*
X6137Y398D02*
X6338Y197D01*
X6165Y426D02*
X6394Y197D01*
X6193Y453D02*
X6449Y197D01*
X6319Y584D02*
X6430Y695D01*
X6221Y481D02*
X6505Y197D01*
X6248Y509D02*
X6561Y197D01*
X6061Y3424D02*
X6100Y3386D01*
X6058D02*
X6152Y3479D01*
X6081Y3461D02*
X6133Y3408D01*
X6098Y3499D02*
X6161Y3436D01*
X6084Y3467D02*
X6152Y3535D01*
X6111Y3386D02*
X6200Y3474D01*
X6152D02*
Y4400D01*
Y3474D02*
X6200D01*
X6152Y3501D02*
X6178Y3474D01*
X6321Y197D02*
X6608Y483D01*
X6304Y565D02*
X6672Y197D01*
X6266D02*
X6605Y536D01*
X6276Y537D02*
X6616Y197D01*
X6210D02*
X6606Y592D01*
X6544Y197D02*
X6651Y304D01*
X6655Y197D02*
X6686Y228D01*
X6600Y197D02*
X6668Y265D01*
X6377Y197D02*
X6614Y434D01*
X6488Y197D02*
X6636Y345D01*
X6433Y197D02*
X6624Y388D01*
X6099Y197D02*
X6597Y695D01*
X6154Y197D02*
X6612Y655D01*
X6356Y680D02*
X6617Y418D01*
X6327Y597D02*
X6675Y250D01*
X6345Y635D02*
X6637Y343D01*
X6452Y695D02*
X6604Y543D01*
X6397Y695D02*
X6608Y484D01*
X6508Y695D02*
X6606Y597D01*
X6358Y695D02*
X6620D01*
X6564D02*
X6611Y647D01*
X6116Y3554D02*
X6152Y3590D01*
X6112Y3541D02*
X6152Y3501D01*
X6113Y4331D02*
X6152Y4370D01*
X6123Y3586D02*
X6152Y3557D01*
X6117Y4315D02*
X6152Y4281D01*
X6132Y3681D02*
Y4193D01*
X6130Y3634D02*
X6152Y3612D01*
X6129Y3623D02*
X6152Y3646D01*
X6123Y4286D02*
X6152Y4314D01*
X6129Y4248D02*
X6152Y4225D01*
X6130Y4237D02*
X6152Y4259D01*
X6062Y4448D02*
X6152Y4538D01*
X6082Y4411D02*
X6178Y4508D01*
X6055Y4989D02*
X6122Y4923D01*
X6041Y4482D02*
X6130Y4571D01*
X6073Y4990D02*
X6169D01*
X6110D02*
X6143Y4957D01*
X6152Y4370D02*
X6181Y4400D01*
X6087Y4401D02*
X6152Y4336D01*
X6132Y5640D02*
Y5768D01*
Y5692D02*
X6184Y5640D01*
X6132Y5742D02*
X6201Y5811D01*
X6099Y4373D02*
X6207Y4481D01*
X6152Y4314D02*
X6237Y4400D01*
X6181D02*
X6239Y4457D01*
X6152Y4400D02*
X6391D01*
X6237D02*
X6274Y4436D01*
X6275Y4435D02*
X6311Y4400D01*
X6483D02*
X6594D01*
X6568Y4421D02*
X6589Y4400D01*
X6571D02*
X6594Y4423D01*
Y4400D02*
Y4433D01*
X6121Y5870D02*
X6201Y5790D01*
X6131Y5805D02*
X6201Y5735D01*
X6098Y5949D02*
X6201Y5846D01*
X6126Y5847D02*
X6201Y5922D01*
X6116Y5893D02*
X6204Y5981D01*
X6201Y5640D02*
Y5945D01*
X6132Y5640D02*
X6201D01*
X6141D02*
X6201Y5700D01*
X6131Y5797D02*
X6201Y5867D01*
X6132Y5748D02*
X6201Y5679D01*
X6132Y5686D02*
X6201Y5755D01*
X4902Y5737D02*
X5215Y6050D01*
X4902Y5792D02*
X5466Y6356D01*
X4900Y6368D02*
X5216Y6051D01*
X4902Y5848D02*
X5426Y6372D01*
X4902Y6015D02*
X5321Y6435D01*
X4902Y5959D02*
X5354Y6412D01*
X4902Y5904D02*
X5388Y6391D01*
X5348Y6183D02*
X5508Y6344D01*
X5711Y6335D02*
X5811Y6236D01*
X5757Y6345D02*
X5940Y6162D01*
X4778Y6601D02*
X5266Y6113D01*
X4778Y6657D02*
X5294Y6141D01*
X4778Y6712D02*
X5324Y6166D01*
X4778Y6824D02*
X5392Y6210D01*
X4778Y6880D02*
X5429Y6228D01*
X4867Y6456D02*
X5240Y6083D01*
X4902Y6071D02*
X5291Y6460D01*
X4902Y6126D02*
X5263Y6488D01*
X4902Y6238D02*
X5214Y6550D01*
X4902Y6182D02*
X5237Y6518D01*
X4778Y6768D02*
X5357Y6189D01*
X5800Y6358D02*
X6201Y5957D01*
X5839Y6375D02*
X6209Y6005D01*
X5876Y6393D02*
X6225Y6044D01*
X5911Y6415D02*
X6247Y6078D01*
X5943Y6438D02*
X6274Y6107D01*
X6024Y6078D02*
X6201Y5902D01*
X6103Y5936D02*
X6253Y6086D01*
X6068Y6012D02*
X6580Y6524D01*
X5973Y6464D02*
X6301Y6135D01*
X6000Y6492D02*
X6329Y6163D01*
X6026Y6522D02*
X6357Y6191D01*
X5940Y6163D02*
X6301Y6524D01*
X5970Y6137D02*
X6357Y6524D01*
X5836Y6226D02*
X6134Y6524D01*
X5908Y6186D02*
X6246Y6524D01*
X5873Y6207D02*
X6190Y6524D01*
X6047Y6047D02*
X6524Y6524D01*
X6087Y5976D02*
X6635Y6524D01*
X6047Y6047D02*
X6524Y6524D01*
X6049Y6555D02*
X6385Y6219D01*
X6024Y6079D02*
X6468Y6524D01*
X5998Y6109D02*
X6413Y6524D01*
X5363Y6406D02*
X5513Y6256D01*
X5461Y6240D02*
X5555Y6334D01*
X5469Y6355D02*
X5559Y6265D01*
X5537Y6261D02*
X5606Y6329D01*
X5544Y6336D02*
X5610Y6269D01*
X5661Y6330D02*
X5732Y6259D01*
X5707Y6264D02*
X5803Y6359D01*
X5753Y6254D02*
X5920Y6421D01*
X5601Y6269D02*
X5662Y6330D01*
X5606Y6329D02*
X5667Y6268D01*
X5657Y6269D02*
X5725Y6338D01*
X4778Y6935D02*
X5469Y6243D01*
X5796Y6241D02*
X6130Y6576D01*
X4773Y7222D02*
X5232Y7681D01*
X6088Y6626D02*
X6130Y6585D01*
X6070Y6589D02*
X6130Y6529D01*
X6040Y6541D02*
X6130Y6631D01*
X6104Y6666D02*
X6130Y6640D01*
X6101Y6658D02*
X6130Y6687D01*
X5901Y7983D02*
X6471Y7413D01*
X5934Y8006D02*
X6527Y7413D01*
X5788Y7929D02*
X6304Y7413D01*
X5828Y7944D02*
X6360Y7413D01*
X5866Y7963D02*
X6416Y7413D01*
X5964Y8031D02*
X6583Y7413D01*
X5993Y8059D02*
X6638Y7413D01*
X6043Y8120D02*
X6801Y7361D01*
X6107Y7499D02*
X6193Y7413D01*
X6060Y7602D02*
X6249Y7413D01*
X6019Y8088D02*
X6694Y7413D01*
X6064Y8154D02*
X6801Y7417D01*
X6083Y8190D02*
X6843Y7431D01*
X6074Y7577D02*
X7179Y8682D01*
X6005Y7676D02*
X7010Y8680D01*
X6053Y7612D02*
X7119Y8678D01*
X6030Y7645D02*
X7064Y8678D01*
X6100Y8230D02*
X6899Y7431D01*
X6114Y8272D02*
X6954Y7431D01*
X6124Y8317D02*
X7010Y7431D01*
X6092Y7539D02*
X7256Y8704D01*
X6119Y7455D02*
X7264Y8600D01*
X6107Y7499D02*
X7264Y8656D01*
X6135Y6524D02*
X6413Y6247D01*
X6130Y6524D02*
X6690D01*
X6191D02*
X6441Y6274D01*
X6247Y6524D02*
X6468Y6302D01*
X6265Y6098D02*
X6690Y6524D01*
X6302D02*
X6496Y6330D01*
X6358Y6524D02*
X6524Y6358D01*
X6469Y6524D02*
X6580Y6414D01*
X6414Y6524D02*
X6552Y6386D01*
X6130Y6524D02*
Y6791D01*
Y6585D02*
X6191Y6524D01*
X6525D02*
X6608Y6441D01*
X6636Y6524D02*
X6663Y6497D01*
X6581Y6524D02*
X6635Y6469D01*
X6690Y6524D02*
X6724Y6558D01*
Y6603D02*
X6747Y6581D01*
X6724Y6558D02*
Y7413D01*
Y6724D02*
X6801Y6801D01*
X6724Y6724D02*
X6801Y6801D01*
X6724Y6882D02*
X6801Y6805D01*
X6724Y6826D02*
X6801Y6749D01*
X6724Y6780D02*
X6801Y6857D01*
X6724Y6659D02*
X6775Y6608D01*
X6724Y6558D02*
X6801Y6635D01*
X6724Y6613D02*
X6801Y6690D01*
X6724Y6770D02*
X6801Y6693D01*
X6724Y6715D02*
X6801Y6638D01*
X6724Y6668D02*
X6801Y6745D01*
X6724Y6937D02*
X6801Y6860D01*
X6724Y6835D02*
X6801Y6913D01*
X6724Y6947D02*
X6801Y7024D01*
X6724Y6891D02*
X6801Y6968D01*
X6724Y6993D02*
X6801Y6916D01*
X6724Y7002D02*
X6801Y7080D01*
X6724Y7049D02*
X6801Y6972D01*
Y6635D02*
Y7431D01*
X6724Y7160D02*
X6801Y7083D01*
X6724Y7105D02*
X6801Y7027D01*
X6724Y7058D02*
X6801Y7135D01*
X6724Y7272D02*
X6801Y7194D01*
X6724Y7169D02*
X6801Y7247D01*
X6130Y7382D02*
Y7413D01*
X6638D02*
X6724Y7327D01*
X6132Y7357D02*
X6188Y7413D01*
X6724Y7225D02*
X6801Y7302D01*
X6724Y7114D02*
X6801Y7191D01*
X6724Y7216D02*
X6801Y7139D01*
X6724Y7383D02*
X6801Y7306D01*
X6724Y7327D02*
X6801Y7250D01*
X6724Y7281D02*
X6801Y7358D01*
X6130Y7413D02*
X6724D01*
X6130Y8366D02*
X7066Y7431D01*
X6132Y8420D02*
X7121Y7431D01*
X6132Y8476D02*
X7177Y7431D01*
X6132Y8532D02*
X7233Y7431D01*
X6694Y7413D02*
X6724Y7383D01*
Y7336D02*
X6801Y7414D01*
Y7358D02*
X6874Y7431D01*
X6188Y7413D02*
X7264Y8489D01*
X6724Y7392D02*
X7264Y7932D01*
X6132Y7413D02*
X7264Y8544D01*
X6633Y7413D02*
X7264Y8043D01*
X6689Y7413D02*
X7264Y7988D01*
X6819Y7431D02*
X7264Y7876D01*
X6801Y7431D02*
X7264D01*
X6874D02*
X7264Y7821D01*
X7097Y7431D02*
X7264Y7598D01*
X7208Y7431D02*
X7264Y7486D01*
X7153Y7431D02*
X7264Y7542D01*
X6930Y7431D02*
X7264Y7765D01*
X7041Y7431D02*
X7264Y7654D01*
X6986Y7431D02*
X7264Y7709D01*
X6132Y8587D02*
X7264Y7456D01*
X6299Y7413D02*
X7264Y8377D01*
X6244Y7413D02*
X7264Y8433D01*
X6132Y8755D02*
X7264Y7623D01*
X6132Y8643D02*
X7264Y7511D01*
X6132Y8699D02*
X7264Y7567D01*
X6355Y7413D02*
X7264Y8322D01*
X6466Y7413D02*
X7264Y8210D01*
X6411Y7413D02*
X7264Y8266D01*
Y7431D02*
Y8707D01*
X6578Y7413D02*
X7264Y8099D01*
X6522Y7413D02*
X7264Y8155D01*
X4056Y8510D02*
X4119Y8573D01*
X4086D02*
X4149Y8510D01*
X3975Y8573D02*
X4038Y8510D01*
X4031Y8573D02*
X4094Y8510D01*
X4000D02*
X4063Y8573D01*
X4154Y8510D02*
Y8573D01*
X4111Y8510D02*
X4154Y8552D01*
X4587Y8510D02*
Y8737D01*
X4480Y8934D02*
X4588Y9043D01*
X4281Y9102D02*
Y9222D01*
X4304Y9093D02*
X4421Y9210D01*
X4281Y9125D02*
X4393Y9237D01*
X4363Y9050D02*
X4523Y8891D01*
X4452Y8962D02*
X4560Y9070D01*
X4424Y8990D02*
X4533Y9098D01*
X4339Y9071D02*
X4449Y9182D01*
X4396Y9017D02*
X4505Y9126D01*
X4368Y9045D02*
X4477Y9154D01*
X4508Y7817D02*
X4632Y7694D01*
X4564Y7817D02*
X4659Y7722D01*
X4587Y8574D02*
X4651Y8510D01*
X4587Y8741D02*
X4862Y8465D01*
X4575Y8809D02*
X4862Y8521D01*
X4587Y8629D02*
X4706Y8510D01*
X4587D02*
X4778D01*
X4587Y8685D02*
X4762Y8510D01*
X4587Y8651D02*
X4783Y8848D01*
X4587Y8540D02*
X4839Y8792D01*
X4587Y8595D02*
X4811Y8820D01*
X4281Y9213D02*
X4862Y8632D01*
X4281Y9157D02*
X4862Y8577D01*
X4508Y8906D02*
X4616Y9015D01*
X4535Y8878D02*
X4644Y8987D01*
X4129Y9502D02*
X4862Y8769D01*
X4575Y8807D02*
X4700Y8931D01*
X4587Y8707D02*
X4755Y8875D01*
X4585Y8761D02*
X4727Y8903D01*
X4558Y8845D02*
X4672Y8959D01*
X4588Y9656D02*
X5157Y9086D01*
X4596Y9678D02*
X5166Y9108D01*
X3989Y9222D02*
X4199Y9432D01*
X4044Y9222D02*
X4226Y9404D01*
X4006Y9656D02*
X4077Y9585D01*
X4216Y9222D02*
X4281Y9157D01*
Y9181D02*
X4366Y9265D01*
X4156Y9222D02*
X4282Y9349D01*
X4100Y9222D02*
X4254Y9377D01*
X4267Y9222D02*
X4338Y9293D01*
X4211Y9222D02*
X4310Y9321D01*
X3967Y9751D02*
X4062Y9656D01*
X4596Y9886D02*
X5128Y10417D01*
X3967Y10537D02*
X4011Y10581D01*
X3967D02*
X4596D01*
X4528D02*
X4596Y10513D01*
Y9656D02*
Y10581D01*
Y9719D02*
X5128Y10250D01*
X4596Y9830D02*
X5128Y10362D01*
X4596Y10331D02*
X5097Y10832D01*
X4596Y10513D02*
X5128Y9981D01*
X4596Y10568D02*
X5128Y10037D01*
X4596Y10067D02*
X5338Y9326D01*
X4596Y10123D02*
X5372Y9348D01*
X4596Y9663D02*
X5128Y10195D01*
X4596Y10179D02*
X5408Y9367D01*
X4596Y10234D02*
X5446Y9384D01*
X4596Y9733D02*
X5183Y9146D01*
X4596Y9789D02*
X5203Y9182D01*
X4596Y9845D02*
X5226Y9215D01*
X4596Y9900D02*
X5251Y9246D01*
X4596Y9956D02*
X5278Y9275D01*
X4596Y10012D02*
X5307Y9301D01*
X4596Y9997D02*
X5129Y10530D01*
X4596Y10109D02*
X5162Y10674D01*
X4596Y10276D02*
X5137Y10816D01*
X4596Y10164D02*
X5238Y10806D01*
X4596Y10220D02*
X5184Y10807D01*
X4596Y9775D02*
X5128Y10306D01*
X4596Y10290D02*
X5488Y9399D01*
X4596Y10346D02*
X5176Y9766D01*
X4596Y9942D02*
X5128Y10473D01*
X4596Y10401D02*
X5144Y9854D01*
X4596Y10457D02*
X5131Y9922D01*
X4620Y7817D02*
X4687Y7749D01*
X4675Y7817D02*
X4715Y7777D01*
X4755Y7817D02*
X4778Y7840D01*
X4755Y7817D02*
X4778Y7840D01*
X4699Y7817D02*
X4778Y7896D01*
Y7937D02*
X4826Y7889D01*
X4778Y7840D02*
X4862Y7924D01*
X4778Y7840D02*
X4862Y7924D01*
X4778Y7993D02*
X4854Y7916D01*
X4778Y7896D02*
X4862Y7980D01*
X4778Y8049D02*
X4862Y7964D01*
X4778Y8104D02*
X4862Y8020D01*
X4778Y8007D02*
X4862Y8092D01*
X4778Y8118D02*
X4862Y8203D01*
X4778Y8063D02*
X4862Y8147D01*
X4778Y8160D02*
X4862Y8075D01*
X4778Y7840D02*
Y8510D01*
Y8216D02*
X4862Y8131D01*
Y7924D02*
Y8769D01*
X4778Y8230D02*
X4862Y8314D01*
X4778Y8174D02*
X4862Y8259D01*
X4778Y8271D02*
X4862Y8187D01*
X5284Y7765D02*
X5315Y7734D01*
X5294Y7811D02*
X5347Y7757D01*
X5295Y7865D02*
X5382Y7779D01*
X5388Y7783D02*
X5521Y7915D01*
X5556Y7839D02*
X5621Y7904D01*
X5484Y7823D02*
X5569Y7907D01*
X5524Y7915D02*
X5595Y7843D01*
X5589Y7905D02*
X5650Y7844D01*
X5617Y7844D02*
X5679Y7906D01*
X5292Y7798D02*
X5437Y7942D01*
X5237Y7686D02*
X5477Y7927D01*
X4778Y7951D02*
X4862Y8036D01*
X5295Y7921D02*
X5418Y7798D01*
X5295Y7856D02*
X5399Y7960D01*
X5295Y7835D02*
Y8031D01*
Y7976D02*
X5458Y7814D01*
X5302Y8026D02*
X5500Y7827D01*
X5295Y7968D02*
X5330Y8003D01*
X5444Y7939D02*
X5546Y7837D01*
X5295Y7912D02*
X5363Y7980D01*
X4778Y8383D02*
X4862Y8298D01*
X4778Y8327D02*
X4862Y8243D01*
X4706Y8510D02*
X4778Y8439D01*
Y8341D02*
X4862Y8426D01*
X4724Y8510D02*
X4862Y8648D01*
X4778Y8397D02*
X4862Y8481D01*
X4778Y8285D02*
X4862Y8370D01*
X4778Y8439D02*
X4862Y8354D01*
X4778Y8508D02*
X4862Y8593D01*
X4778Y8494D02*
X4862Y8410D01*
X4778Y8452D02*
X4862Y8537D01*
X4668Y8510D02*
X4862Y8704D01*
X4612Y8510D02*
X4862Y8760D01*
X4644Y9599D02*
X5128Y10083D01*
X4616Y9627D02*
X5128Y10139D01*
X4596Y10053D02*
X5139Y10595D01*
X4727Y9516D02*
X5132Y9920D01*
X4783Y9460D02*
X5151Y9828D01*
X4755Y9488D02*
X5140Y9872D01*
X5128Y9980D02*
Y10492D01*
X4700Y9544D02*
X5128Y9972D01*
X4672Y9571D02*
X5128Y10028D01*
X5145Y9098D02*
X5174Y9127D01*
X5117Y9126D02*
X5490Y9498D01*
X5034Y9210D02*
X5373Y9549D01*
X5089Y9154D02*
X5448Y9512D01*
X5062Y9182D02*
X5409Y9529D01*
X5416Y9526D02*
X5532Y9410D01*
X5506Y9404D02*
X5583Y9481D01*
X5420Y9373D02*
X5534Y9488D01*
X5503Y9495D02*
X5581Y9417D01*
X5574Y9416D02*
X5637Y9478D01*
X5572Y9482D02*
X5634Y9419D01*
X4895Y9349D02*
X5227Y9681D01*
X4950Y9293D02*
X5279Y9622D01*
X4922Y9321D02*
X5252Y9650D01*
X4811Y9432D02*
X5166Y9788D01*
X4867Y9377D02*
X5204Y9714D01*
X4839Y9404D02*
X5184Y9750D01*
X5006Y9237D02*
X5339Y9571D01*
X4978Y9265D02*
X5308Y9595D01*
X5125Y10819D02*
X5197Y10747D01*
X5197Y10807D02*
X5239D01*
X5193Y10807D02*
X5219Y10781D01*
X4066Y10581D02*
X4700Y11214D01*
X4122Y10581D02*
X4728Y11186D01*
X3980Y13445D02*
X4051D01*
X4011Y10581D02*
X4670Y11240D01*
X3980Y13445D02*
X4051D01*
X4345Y10581D02*
X4839Y11075D01*
X4456Y10581D02*
X4895Y11019D01*
X4400Y10581D02*
X4867Y11047D01*
X4178Y10581D02*
X4756Y11159D01*
X4289Y10581D02*
X4811Y11103D01*
X4233Y10581D02*
X4783Y11131D01*
X4202Y13445D02*
X4262Y13505D01*
X4258Y13445D02*
X4308Y13495D01*
X3980Y13445D02*
X4119Y13585D01*
X4194Y13532D02*
X4281Y13445D01*
X4035D02*
X4150Y13560D01*
X4447Y13502D02*
X4504Y13445D01*
X4480D02*
X4551D01*
X4480D02*
X4551D01*
X4282Y13500D02*
X4337Y13445D01*
X4314D02*
X4360Y13491D01*
X4425Y13445D02*
X4500Y13519D01*
X4203Y11240D02*
X5128Y10315D01*
X4036Y11240D02*
X5128Y10148D01*
X4512Y10581D02*
X4923Y10992D01*
X4259Y11240D02*
X5128Y10371D01*
X4314Y11240D02*
X5128Y10427D01*
X4596Y10498D02*
X5006Y10908D01*
X4596Y10387D02*
X5063Y10853D01*
X4596Y10443D02*
X5034Y10880D01*
X4567Y10581D02*
X4951Y10964D01*
X4596Y10554D02*
X4978Y10936D01*
X4674Y11240D02*
X5043Y10871D01*
X4092Y11240D02*
X5128Y10204D01*
X3980Y11240D02*
X5128Y10093D01*
X4147Y11240D02*
X5128Y10260D01*
X4426Y11240D02*
X5130Y10536D01*
X4370Y11240D02*
X5128Y10482D01*
X4481Y11240D02*
X5137Y10585D01*
X4593Y11240D02*
X5161Y10672D01*
X4537Y11240D02*
X5147Y10630D01*
X4717Y13844D02*
X5128Y13433D01*
X4648Y11240D02*
X5178Y10711D01*
X4713Y13792D02*
X5128Y13378D01*
X4346Y13491D02*
X4392Y13445D01*
X4369D02*
X4421Y13496D01*
X4091Y13445D02*
X4184Y13538D01*
X4051Y13445D02*
X4480D01*
X4147D02*
X4221Y13519D01*
X4562Y13554D02*
X4671Y13445D01*
X4551D02*
X5051D01*
X4594Y13578D02*
X4727Y13445D01*
X4400Y13493D02*
X4448Y13445D01*
X4489Y13515D02*
X4560Y13445D01*
X4527Y13533D02*
X4615Y13445D01*
X4647Y13636D02*
X4838Y13445D01*
X4669Y13669D02*
X4894Y13445D01*
X3989Y13960D02*
X4014Y13935D01*
X4622Y13605D02*
X4782Y13445D01*
X4688Y13706D02*
X4949Y13445D01*
X4703Y13747D02*
X5005Y13445D01*
X4678Y14029D02*
X4921Y14272D01*
X4704Y13946D02*
X5029Y14272D01*
X4689Y13988D02*
X4973Y14272D01*
X4592Y13445D02*
X5244Y14097D01*
X4648Y13445D02*
X5266Y14063D01*
X4689Y14040D02*
X5128Y13600D01*
X4692Y13980D02*
X5128Y13545D01*
X4703Y13445D02*
X5322Y14063D01*
X4870Y13445D02*
X5132Y13707D01*
X4815Y13445D02*
X5146Y13776D01*
X4759Y13445D02*
X5181Y13867D01*
X4713Y13904D02*
X5128Y13489D01*
X4716Y14067D02*
X5128Y13656D01*
X4744Y14095D02*
X5132Y13707D01*
X4689Y13709D02*
X5244Y14264D01*
X4536Y13445D02*
X5244Y14153D01*
X4481Y13445D02*
X5244Y14209D01*
X4714Y13901D02*
X5244Y14431D01*
X4712Y13788D02*
X5244Y14320D01*
X4718Y13849D02*
X5244Y14376D01*
X4772Y14123D02*
X5141Y13754D01*
X4800Y14151D02*
X5153Y13798D01*
X4828Y14179D02*
X5168Y13838D01*
X4856Y14207D02*
X5186Y13876D01*
X4883Y14234D02*
X5207Y13911D01*
X4911Y14262D02*
X5229Y13944D01*
X5051Y13232D02*
X5128Y13155D01*
X5051Y13124D02*
X5128Y13201D01*
X5051Y13236D02*
X5128Y13313D01*
X5051Y13180D02*
X5128Y13257D01*
X5051Y13287D02*
X5128Y13211D01*
X5051Y12842D02*
X5078Y12815D01*
X5051Y12898D02*
X5134Y12815D01*
X5051Y12957D02*
X5136Y13042D01*
X5051Y13069D02*
X5128Y13146D01*
X5051Y13013D02*
X5129Y13091D01*
X5051Y13176D02*
X5129Y13098D01*
X5005Y13445D02*
X5051Y13399D01*
X5128Y13322D01*
X5038Y13445D02*
X5128Y13535D01*
X4982Y13445D02*
X5128Y13591D01*
X4926Y13445D02*
X5128Y13647D01*
X5051Y12815D02*
Y13445D01*
Y13343D02*
X5128Y13266D01*
Y13130D02*
Y13642D01*
X5051Y13403D02*
X5128Y13480D01*
X5051Y13292D02*
X5128Y13368D01*
X5051Y13347D02*
X5128Y13424D01*
X5051Y12953D02*
X5189Y12815D01*
X5051D02*
X5239D01*
X5051Y13009D02*
X5220Y12840D01*
X5076Y12815D02*
X5176Y12915D01*
X5187Y12815D02*
X5217Y12845D01*
X5131Y12815D02*
X5195Y12879D01*
X5051Y12902D02*
X5146Y12997D01*
X5051Y12846D02*
X5160Y12955D01*
X5051Y13065D02*
X5159Y12957D01*
X5051Y13120D02*
X5137Y13034D01*
X4958Y14272D02*
X5254Y13975D01*
X5051Y14345D02*
X5244Y14152D01*
X5013Y14272D02*
X5282Y14003D01*
X5051Y14289D02*
X5244Y14096D01*
X5277Y14063D02*
X5311Y14030D01*
X5244Y14063D02*
Y14677D01*
Y14063D02*
X5358D01*
X5244Y14096D02*
X5277Y14063D01*
X4921Y14272D02*
X5051D01*
X4973D02*
X5051Y14349D01*
X5029Y14272D02*
X5051Y14294D01*
Y14349D02*
X5244Y14543D01*
X5051Y14568D02*
X5244Y14375D01*
X5051Y14461D02*
X5244Y14654D01*
X5051Y14405D02*
X5244Y14598D01*
X5051Y14624D02*
X5244Y14430D01*
X5051Y14791D02*
X5244Y14597D01*
X5051Y14679D02*
X5244Y14486D01*
X5051Y14735D02*
X5244Y14542D01*
X5051Y14272D02*
Y14961D01*
Y14846D02*
X5244Y14653D01*
X5051Y14906D02*
X5106Y14961D01*
X5051Y14683D02*
X5226Y14859D01*
X5051Y14739D02*
X5226Y14914D01*
X5051Y14795D02*
X5217Y14961D01*
X5104D02*
X5226Y14838D01*
Y14833D02*
Y14961D01*
X5051Y14851D02*
X5161Y14961D01*
X5051D02*
X5226D01*
X5160D02*
X5226Y14894D01*
X5051Y14294D02*
X5244Y14487D01*
X5051Y14457D02*
X5244Y14263D01*
X5051Y14512D02*
X5244Y14319D01*
X5051Y14516D02*
X5367Y14833D01*
X5051Y14572D02*
X5312Y14833D01*
X5051Y14401D02*
X5244Y14208D01*
Y14598D02*
X5323Y14677D01*
X5051Y14628D02*
X5256Y14833D01*
X5244Y14654D02*
X5267Y14677D01*
X5490D02*
X5646Y14833D01*
X5232D02*
X5388Y14677D01*
X5051Y14902D02*
X5276Y14677D01*
X5267D02*
X5423Y14833D01*
X5051Y14958D02*
X5332Y14677D01*
X5226Y14894D02*
X5287Y14833D01*
X5323Y14677D02*
X5479Y14833D01*
X5287D02*
X5443Y14677D01*
X5434D02*
X5590Y14833D01*
X5510D02*
X5666Y14677D01*
X5455Y14833D02*
X5610Y14677D01*
X5343Y14833D02*
X5499Y14677D01*
X5399Y14833D02*
X5555Y14677D01*
X5379D02*
X5534Y14833D01*
X5646Y7904D02*
X5713Y7838D01*
X5698Y7908D02*
X5786Y7819D01*
X5671Y7843D02*
X5746Y7917D01*
X5720Y7836D02*
X5829Y7945D01*
X5745Y7917D02*
X5889Y7772D01*
X6091Y8207D02*
X6743Y8859D01*
X6129Y8969D02*
X6702Y9541D01*
X6118Y8290D02*
X6725Y8897D01*
X6130Y8357D02*
X6712Y8939D01*
X6012Y9654D02*
X6707Y8958D01*
X5985Y9625D02*
X6735Y8875D01*
X5986Y9271D02*
X6687Y9972D01*
X6036Y9685D02*
X6701Y9020D01*
X6013Y9242D02*
X6696Y9926D01*
X6058Y9719D02*
X6705Y9073D01*
X6122Y9017D02*
X6711Y9607D01*
X6078Y9755D02*
X6714Y9119D01*
X6037Y9211D02*
X6711Y9884D01*
X6096Y9793D02*
X6729Y9160D01*
X6059Y9177D02*
X6729Y9847D01*
X5847Y7795D02*
X6817Y8766D01*
X5883Y7776D02*
X6848Y8741D01*
X5766Y7826D02*
X6765Y8825D01*
X5808Y7812D02*
X6789Y8794D01*
X5776Y9500D02*
X7264Y8012D01*
X5917Y7754D02*
X6883Y8720D01*
X5978Y7704D02*
X6963Y8689D01*
X5949Y7730D02*
X6921Y8702D01*
X6079Y9141D02*
X7264Y7957D01*
X6128Y8981D02*
X7264Y7845D01*
X6114Y9051D02*
X7264Y7901D01*
X5856Y9532D02*
X7264Y8124D01*
X5817Y9515D02*
X7264Y8068D01*
X5956Y9599D02*
X7264Y8291D01*
X5891Y9552D02*
X7264Y8179D01*
X5925Y9574D02*
X7264Y8235D01*
X6111Y9062D02*
X6750Y9701D01*
X6096Y9103D02*
X6775Y9782D01*
X6079Y9141D02*
X6750Y9813D01*
X6110Y9834D02*
X6747Y9197D01*
X6121Y9879D02*
X6769Y9231D01*
X6129Y9927D02*
X6795Y9261D01*
X5631Y9478D02*
X5694Y9415D01*
X5684Y9481D02*
X5764Y9401D01*
X5633Y9419D02*
X5697Y9483D01*
X5686Y9416D02*
X5767Y9497D01*
X5732Y9489D02*
X5854Y9367D01*
X5734Y9408D02*
X5859Y9534D01*
X6124Y10579D02*
X6353Y10807D01*
X6044Y10776D02*
X6074Y10807D01*
X6114Y10624D02*
X6297Y10807D01*
X6065Y10742D02*
X6130Y10807D01*
X6046Y12849D02*
X6080Y12815D01*
X6021D02*
X6367D01*
X6067Y12884D02*
X6136Y12815D01*
X6084Y10706D02*
X6186Y10807D01*
X6101Y10666D02*
X6241Y10807D01*
X6086Y12920D02*
X6192Y12815D01*
X6102Y12960D02*
X6247Y12815D01*
X6115Y13003D02*
X6303Y12815D01*
X6125Y13048D02*
X6359Y12815D01*
X5926Y9323D02*
X6688Y10085D01*
X5893Y9345D02*
X6711Y10163D01*
X5778Y9397D02*
X6728Y10348D01*
X5857Y9365D02*
X6775Y10282D01*
X5819Y9382D02*
X6750Y10313D01*
X5957Y9298D02*
X6683Y10024D01*
X6077Y9751D02*
X6710Y10385D01*
X6113Y9843D02*
X6696Y10427D01*
X6119Y10605D02*
X6683Y10040D01*
X6127Y9914D02*
X6687Y10473D01*
X6130Y10538D02*
X6685Y9983D01*
X6028Y10807D02*
X6700Y10135D01*
X6084Y10807D02*
X6716Y10175D01*
X6021Y10807D02*
X6587D01*
X6078Y12815D02*
X7072Y13809D01*
X6022Y12815D02*
X7016Y13809D01*
X6131Y13098D02*
X6391Y12839D01*
X6093Y10687D02*
X6689Y10090D01*
X6131Y10529D02*
X6409Y10807D01*
X6126Y13715D02*
X6697Y13145D01*
X6110Y13787D02*
X6725Y13173D01*
X6097Y12945D02*
X6961Y13809D01*
X6132Y8406D02*
Y8917D01*
Y8470D02*
X6701Y9040D01*
X6132Y8526D02*
X6711Y9105D01*
X6132Y8582D02*
X6748Y9197D01*
X6132Y9979D02*
X6733Y9378D01*
X6132Y8415D02*
X6703Y8986D01*
X6132Y8749D02*
X6743Y9359D01*
X6132Y8804D02*
X6725Y9398D01*
X6132Y8916D02*
X6703Y9487D01*
X6132Y8860D02*
X6712Y9440D01*
X6132Y10035D02*
X6707Y9460D01*
X6132Y10091D02*
X6701Y9522D01*
X6132Y10146D02*
X6705Y9574D01*
X6132Y9974D02*
X6683Y10525D01*
X6132Y10258D02*
X6729Y9660D01*
X6132Y10314D02*
X6748Y9697D01*
X6132Y9980D02*
Y10492D01*
Y10202D02*
X6715Y9619D01*
X6132Y10481D02*
X6701Y9912D01*
X6132Y10029D02*
X6688Y10586D01*
X6132Y10085D02*
X6711Y10665D01*
X6132Y10196D02*
X6749Y10814D01*
X6132Y8866D02*
X7264Y7734D01*
X6132Y8810D02*
X7264Y7678D01*
X6981Y8685D02*
X7264Y8402D01*
X6898Y8712D02*
X7264Y8346D01*
X6132Y8922D02*
X7264Y7790D01*
X7154Y8679D02*
X7264Y8569D01*
X7099Y8678D02*
X7264Y8513D01*
X7043Y8678D02*
X7264Y8458D01*
X7047Y8678D02*
X7126D01*
X7202Y8687D02*
X7264Y8625D01*
X6132Y8693D02*
X6764Y9325D01*
X6132Y8637D02*
X6788Y9294D01*
X6132Y10369D02*
X6770Y9731D01*
X6132Y10425D02*
X6775Y9782D01*
X6132Y10141D02*
X6774Y10783D01*
X6132Y10363D02*
X6576Y10807D01*
X6132Y10308D02*
X6637Y10813D01*
X6132Y10475D02*
X6464Y10807D01*
X6306D02*
X6700Y10413D01*
X6132Y10419D02*
X6520Y10807D01*
X6418D02*
X6683Y10541D01*
X6473Y10807D02*
X6689Y10591D01*
X6362Y10807D02*
X6685Y10484D01*
X6529Y10807D02*
X6701Y10636D01*
X6585Y10807D02*
X6716Y10676D01*
X6132Y13487D02*
X6586Y13034D01*
X6132Y13543D02*
X6613Y13061D01*
X6132Y13130D02*
Y13642D01*
Y13599D02*
X6641Y13089D01*
X6132Y13654D02*
X6669Y13117D01*
X6132Y13153D02*
X6419Y12866D01*
X6132Y13209D02*
X6446Y12894D01*
X6132Y13264D02*
X6474Y12922D01*
X6132Y13320D02*
X6502Y12950D01*
X6132Y13376D02*
X6530Y12978D01*
X6132Y13431D02*
X6558Y13006D01*
X6139Y10807D02*
X6735Y10211D01*
X6195Y10807D02*
X6758Y10244D01*
X6132Y10252D02*
X6728Y10848D01*
X6251Y10807D02*
X6768Y10290D01*
X6367Y12815D02*
X7096Y13544D01*
X6635Y10813D02*
X6736Y10712D01*
X6677Y10827D02*
X6758Y10745D01*
X6712Y10847D02*
X6763Y10796D01*
X6134Y12815D02*
X7096Y13778D01*
X6245Y12815D02*
X7096Y13666D01*
X6189Y12815D02*
X7096Y13722D01*
X6627Y13827D02*
X7003Y13451D01*
X6356Y12815D02*
X7096Y13555D01*
X6301Y12815D02*
X7096Y13611D01*
X6683Y13827D02*
X7031Y13479D01*
X7096Y13544D02*
Y13809D01*
X6738Y13827D02*
X7059Y13507D01*
X6960Y13809D02*
X7096D01*
X6979D02*
X7096Y13692D01*
X7035Y13809D02*
X7096Y13748D01*
X6009Y13971D02*
X6101Y14063D01*
X6034Y13940D02*
X6157Y14063D01*
X5953Y14026D02*
X5990Y14063D01*
X5902D02*
X6173D01*
X5982Y14000D02*
X6046Y14063D01*
X6076Y13871D02*
X6191Y13986D01*
X6109Y13792D02*
X6191Y13875D01*
X6094Y13833D02*
X6191Y13930D01*
X6168Y14063D02*
X6191Y14041D01*
X6056Y13907D02*
X6191Y14042D01*
X6112Y14063D02*
X6191Y13985D01*
X5991Y14677D02*
X6147Y14833D01*
X6101Y14063D02*
X6173Y14135D01*
X6001Y14063D02*
X6191Y13874D01*
Y13827D02*
Y14756D01*
X6011Y14833D02*
X6167Y14677D01*
X6173Y14063D02*
Y14677D01*
X6112D02*
X6173Y14615D01*
X6132Y13481D02*
X6478Y13827D01*
X6132Y13426D02*
X6533Y13827D01*
X6120Y13748D02*
X6199Y13827D01*
X6132Y13648D02*
X6311Y13827D01*
X6128Y13701D02*
X6255Y13827D01*
X6132Y13370D02*
X6589Y13827D01*
X6132Y13203D02*
X6756Y13827D01*
X6132Y13314D02*
X6645Y13827D01*
X6132Y13593D02*
X6366Y13827D01*
X6191D02*
X6804D01*
X6132Y13537D02*
X6422Y13827D01*
X6070Y13883D02*
X6753Y13201D01*
X5945Y14063D02*
X6780Y13228D01*
X6057Y14063D02*
X6191Y13929D01*
X6102Y14677D02*
X6309Y14883D01*
X6047Y14677D02*
X6309Y14939D01*
X6132Y13147D02*
X6960Y13976D01*
X6121Y13025D02*
X6960Y13864D01*
X6130Y13090D02*
X6960Y13920D01*
X6191Y13874D02*
X6237Y13827D01*
X6132Y13259D02*
X6700Y13827D01*
X5622Y14833D02*
X5777Y14677D01*
X5657D02*
X5813Y14833D01*
X5566D02*
X5722Y14677D01*
X5244D02*
X6173D01*
X5601D02*
X5757Y14833D01*
X5768Y14677D02*
X5924Y14833D01*
X6158Y14677D02*
X6191Y14710D01*
X5789Y14833D02*
X5944Y14677D01*
X5677Y14833D02*
X5833Y14677D01*
X5733Y14833D02*
X5889Y14677D01*
X5713D02*
X5869Y14833D01*
X5844D02*
X6000Y14677D01*
X5880D02*
X6036Y14833D01*
X5546Y14677D02*
X5701Y14833D01*
X5226D02*
X6191D01*
X5824Y14677D02*
X5980Y14833D01*
X5900D02*
X6056Y14677D01*
X5956Y14833D02*
X6112Y14677D01*
X5935D02*
X6091Y14833D01*
X6147D02*
X6191Y14877D01*
X6067Y14833D02*
X6191Y14709D01*
Y14833D02*
Y15295D01*
Y14710D02*
X6237Y14756D01*
X6178Y14833D02*
X6255Y14756D01*
X6123Y14833D02*
X6200Y14756D01*
X6191D02*
X6309D01*
X6191Y14876D02*
X6309Y14758D01*
X6191Y14987D02*
X6309Y14869D01*
X6237Y14756D02*
X6309Y14828D01*
X6191Y14931D02*
X6309Y14813D01*
X6191Y14932D02*
X6309Y15050D01*
X6191Y14877D02*
X6309Y14995D01*
X6191Y15043D02*
X6309Y14925D01*
X6191Y15154D02*
X6309Y15036D01*
X6191Y15098D02*
X6309Y14980D01*
X6191Y14988D02*
X6309Y15106D01*
X6191Y15099D02*
X6309Y15218D01*
X6191Y15044D02*
X6309Y15162D01*
X6191Y15210D02*
X6309Y15092D01*
X6217Y15295D02*
X6309Y15203D01*
X6191Y15265D02*
X6309Y15147D01*
X6191Y15155D02*
X6309Y15273D01*
X6191Y15266D02*
X6220Y15295D01*
X6191D02*
X6309D01*
X6191Y15211D02*
X6275Y15295D01*
X6237Y13827D02*
X6808Y13256D01*
X6293Y13827D02*
X6836Y13284D01*
X6349Y13827D02*
X6864Y13312D01*
X6460Y13827D02*
X6920Y13368D01*
X6404Y13827D02*
X6892Y13340D01*
X6756Y13827D02*
X6804Y13875D01*
X6516Y13827D02*
X6947Y13395D01*
X6804Y13984D02*
X6960Y13828D01*
X6804Y13931D02*
X6960Y14087D01*
X6804Y13875D02*
X6960Y14031D01*
X6804Y14040D02*
X6960Y13884D01*
X6804Y14095D02*
X6960Y13939D01*
X6804Y14151D02*
X6960Y13995D01*
X6804Y14042D02*
X6960Y14198D01*
X6804Y13827D02*
Y14734D01*
Y13987D02*
X6960Y14143D01*
Y13809D02*
Y14774D01*
X6804Y14596D02*
X6960Y14441D01*
X6804Y14207D02*
X6960Y14051D01*
X6804Y14432D02*
X6960Y14588D01*
X6571Y13827D02*
X6975Y13423D01*
X6794Y13827D02*
X7087Y13535D01*
X6804Y14098D02*
X6960Y14254D01*
X6804Y13873D02*
X7096Y13580D01*
X6804Y13928D02*
X7096Y13636D01*
X6804Y14154D02*
X6960Y14310D01*
Y13884D02*
X7035Y13809D01*
X6804Y14262D02*
X6960Y14106D01*
X6804Y14374D02*
X6960Y14218D01*
X6804Y14318D02*
X6960Y14162D01*
X6804Y14210D02*
X6960Y14365D01*
X6804Y14652D02*
X6960Y14496D01*
X6804Y14488D02*
X6960Y14644D01*
X6804Y14599D02*
X6960Y14755D01*
X6804Y14544D02*
X6960Y14699D01*
X6804Y14708D02*
X6960Y14552D01*
X6804Y14321D02*
X6960Y14477D01*
X6804Y14265D02*
X6960Y14421D01*
X6804Y14429D02*
X6960Y14273D01*
X6804Y14541D02*
X6960Y14385D01*
X6804Y14485D02*
X6960Y14329D01*
X6804Y14377D02*
X6960Y14532D01*
X6804Y14655D02*
X6884Y14734D01*
X6834D02*
X6960Y14608D01*
X6804Y14711D02*
X6828Y14734D01*
X6804D02*
X6939D01*
X6884D02*
X6939Y14790D01*
X6889Y14734D02*
X6960Y14663D01*
Y14699D02*
X6998Y14737D01*
X6939Y14740D02*
X6960Y14719D01*
X6939Y14796D02*
X6961Y14774D01*
X6998Y14734D02*
Y14774D01*
X6961D02*
X6998Y14737D01*
X6309Y14756D02*
Y15295D01*
X6939Y14790D02*
X6998Y14849D01*
X6273Y15295D02*
X6309Y15259D01*
X6939Y14852D02*
X6998Y14792D01*
X6939Y14907D02*
X6998Y14848D01*
X6939Y14734D02*
Y15551D01*
Y14845D02*
X6998Y14904D01*
Y14774D02*
Y15551D01*
X6939Y15513D02*
X6977Y15551D01*
X6939Y14901D02*
X6998Y14960D01*
X6939Y14963D02*
X6998Y14904D01*
X6939Y15124D02*
X6998Y15183D01*
X6939Y15130D02*
X6998Y15071D01*
X6939Y15241D02*
X6998Y15182D01*
X6939Y15186D02*
X6998Y15127D01*
X6939Y15179D02*
X6998Y15238D01*
X6939Y15019D02*
X6998Y14959D01*
X6960Y14774D02*
X6998D01*
X6939Y14957D02*
X6998Y15016D01*
X6939Y15068D02*
X6998Y15127D01*
X6939Y15012D02*
X6998Y15071D01*
X6939Y15074D02*
X6998Y15015D01*
X6939Y15291D02*
X6998Y15350D01*
X6939Y15235D02*
X6998Y15294D01*
X6939Y15297D02*
X6998Y15238D01*
X6939Y15408D02*
X6998Y15349D01*
X6939Y15353D02*
X6998Y15294D01*
X6939Y15346D02*
X6998Y15405D01*
X6939Y15458D02*
X6998Y15517D01*
X6939Y15402D02*
X6998Y15461D01*
X6939Y15464D02*
X6998Y15405D01*
X6939Y15551D02*
X6998D01*
X6939Y15520D02*
X6998Y15461D01*
X6963Y15551D02*
X6998Y15516D01*
D12*
X14173Y4252D02*
D03*
X14724D02*
D03*
X14646Y5000D02*
D03*
X15197D02*
D03*
D13*
X8504Y1378D02*
D03*
Y1929D02*
D03*
D15*
X3266Y12835D02*
D03*
Y14882D02*
D03*
X3766Y12835D02*
D03*
X4266D02*
D03*
X4766D02*
D03*
X3766Y14882D02*
D03*
X4266D02*
D03*
X4766D02*
D03*
D16*
X14803Y5522D02*
D03*
Y6211D02*
D03*
X14961Y7254D02*
D03*
Y7943D02*
D03*
X13110Y12726D02*
D03*
Y13415D02*
D03*
X10945Y12726D02*
D03*
Y13415D02*
D03*
X3307Y11112D02*
D03*
Y11801D02*
D03*
X3110Y6821D02*
D03*
Y7510D02*
D03*
X2480Y14537D02*
D03*
Y15226D02*
D03*
X1614Y14537D02*
D03*
Y15226D02*
D03*
D17*
X522Y1772D02*
D03*
X1211D02*
D03*
X522Y2638D02*
D03*
X1211D02*
D03*
X1663Y1024D02*
D03*
X2352D02*
D03*
X6427Y6969D02*
D03*
X7116D02*
D03*
X6506Y1890D02*
D03*
X7195D02*
D03*
X6467Y3937D02*
D03*
X7156D02*
D03*
X3120Y4488D02*
D03*
X3809D02*
D03*
X3120Y3661D02*
D03*
X3809D02*
D03*
X3593Y10118D02*
D03*
X4281D02*
D03*
X6624Y15197D02*
D03*
X7313D02*
D03*
X3120Y2677D02*
D03*
X3809D02*
D03*
D18*
X14331Y13720D02*
D03*
Y14468D02*
D03*
X15118Y14094D02*
D03*
X10787Y14232D02*
D03*
Y14980D02*
D03*
X11575Y14606D02*
D03*
X6417Y5315D02*
D03*
X7205Y4941D02*
D03*
Y5689D02*
D03*
X3110Y1260D02*
D03*
X3898Y886D02*
D03*
Y1634D02*
D03*
X3150Y8524D02*
D03*
Y9272D02*
D03*
X3937Y8898D02*
D03*
X3543Y5413D02*
D03*
Y6161D02*
D03*
X4331Y5787D02*
D03*
D24*
X6498Y14291D02*
D03*
X7285D02*
D03*
D29*
X7283Y551D02*
D03*
X591Y15039D02*
D03*
X15079Y1299D02*
D03*
X11978Y12776D02*
D03*
D30*
X15017Y2067D02*
X15551Y2601D01*
X14071Y2067D02*
X15017D01*
X13504Y1500D02*
X14071Y2067D01*
X15551Y2601D02*
Y5000D01*
X15197D02*
X15551D01*
X14931Y5591D02*
X15551D01*
Y5000D02*
Y5591D01*
Y14252D01*
X15335Y14468D02*
X15551Y14252D01*
X14961Y8376D02*
X15354Y8770D01*
Y12244D01*
X15075Y12524D02*
X15354Y12244D01*
X10813Y8833D02*
X11417Y8228D01*
X9291Y8583D02*
Y9488D01*
Y8583D02*
X9541Y8333D01*
X10089D01*
X10974Y7333D02*
Y8081D01*
X10722Y8333D02*
X10974Y8081D01*
X10089Y8333D02*
X10722D01*
X12717Y13071D02*
X13780D01*
X12362Y13425D02*
X12717Y13071D01*
X12362Y13425D02*
Y14134D01*
X10551Y13071D02*
X11260D01*
X10456Y13166D02*
X10551Y13071D01*
X10456Y13166D02*
Y13796D01*
X13780Y13071D02*
X14229Y12621D01*
X14863D01*
X6427Y7992D02*
X7165D01*
X3465Y7165D02*
X3583Y7047D01*
Y6201D02*
Y7047D01*
X2441Y7165D02*
X3465D01*
X14724Y4291D02*
X15512D01*
X4508Y886D02*
X4606Y984D01*
X3898Y886D02*
X4508D01*
X1211Y1447D02*
Y1654D01*
X1067Y1303D02*
X1211Y1447D01*
X433Y472D02*
Y995D01*
X741Y1303D01*
X1067D01*
X14689Y9524D02*
X14961D01*
X14380Y9833D02*
X14689Y9524D01*
X13691Y9833D02*
X14380D01*
X10089Y8833D02*
X10813D01*
X11339Y8228D02*
X11417D01*
X11319Y8209D02*
X11339Y8228D01*
X10787Y15079D02*
Y15315D01*
X15315Y14488D02*
Y15236D01*
X14331Y14468D02*
X15335D01*
X8898Y14291D02*
Y14646D01*
Y14291D02*
X9252Y13937D01*
X11654Y13465D02*
X12362D01*
X11260Y13071D02*
X11654Y13465D01*
X8504Y1378D02*
X8819D01*
X13504Y433D02*
Y1500D01*
X8819Y1378D02*
X9803Y394D01*
X15197D01*
X14961Y8022D02*
Y8376D01*
X9252Y13937D02*
X10315D01*
X10456Y13796D01*
X9567Y13425D02*
X10236Y12756D01*
X10787Y15315D02*
X10984Y15512D01*
X15039D01*
X15315Y15236D01*
X14961Y12524D02*
X15075D01*
X9055Y9724D02*
X9291Y9488D01*
X9055Y9685D02*
Y9724D01*
X8227Y1378D02*
X8504D01*
Y1120D02*
Y1378D01*
X8781D01*
X10089Y8833D02*
X10641D01*
X10787Y14980D02*
Y15238D01*
Y14980D02*
X11065D01*
X14724Y4252D02*
Y4529D01*
Y3975D02*
Y4252D01*
X14982D01*
X14803Y5522D02*
Y5769D01*
X15197Y4723D02*
Y5000D01*
Y5277D01*
Y5000D02*
X15454D01*
X14803Y5522D02*
X15198D01*
X13138Y9833D02*
X13691D01*
X14244D01*
X14054Y14468D02*
X14331D01*
Y14726D01*
Y14468D02*
X14608D01*
X14624Y9523D02*
X14961D01*
Y8726D02*
Y9023D01*
X963Y1772D02*
X1211D01*
Y1376D02*
Y1772D01*
X3620Y886D02*
X3898D01*
Y1143D01*
Y886D02*
X4175D01*
X3809Y4488D02*
X4057D01*
X3561D02*
X3809D01*
Y4883D01*
X3543Y5904D02*
Y6161D01*
X3820D01*
X3543D02*
Y6419D01*
X2244Y6396D02*
Y7087D01*
X1809D02*
X2244D01*
X2679D01*
X1809Y8661D02*
X2244D01*
X2679D01*
X2480Y14537D02*
X2876D01*
X2480D02*
Y14785D01*
X3266Y12835D02*
Y13378D01*
X6427Y6573D02*
Y6969D01*
X6675D01*
X6427D02*
Y7364D01*
X6750Y9024D02*
X7087D01*
Y8727D02*
Y9024D01*
X6750Y9524D02*
X7087D01*
X5709Y14370D02*
Y14628D01*
X5294Y14370D02*
X5709D01*
X6124D01*
X6240Y14291D02*
X6498D01*
Y13876D02*
Y14291D01*
X6755D01*
D31*
X2940Y14186D02*
Y14491D01*
X2894Y14537D02*
X2940Y14491D01*
X2480Y14537D02*
X2894D01*
X2940Y14186D02*
X3266Y13860D01*
Y13378D02*
Y13860D01*
Y12835D02*
Y13378D01*
X2441Y14537D02*
X2480D01*
X4331Y14196D02*
X4511D01*
X3673D02*
X4331D01*
X4360Y13809D02*
Y14166D01*
X4614Y13467D02*
X4848Y13701D01*
X3355Y13467D02*
X4614D01*
X3266Y13378D02*
X3355Y13467D01*
X4921Y13730D02*
Y14016D01*
X12756Y9961D02*
X12992D01*
X13120Y9833D01*
X13691D01*
X14961Y9023D02*
Y9523D01*
X1890Y7087D02*
X2244D01*
X1024Y6220D02*
X1890Y7087D01*
X6427Y7992D02*
Y8365D01*
Y6969D02*
Y7992D01*
X3543Y6161D02*
X3583Y6201D01*
X6427Y8365D02*
X7087Y9024D01*
X7087Y9024D01*
Y9524D01*
X3809Y4488D02*
X3819Y4498D01*
X6654Y13425D02*
Y13465D01*
X6498Y13620D02*
X6654Y13465D01*
X6498Y13620D02*
Y14291D01*
X5709Y14409D02*
X6496D01*
X5276Y14370D02*
X5709D01*
X4921Y14016D02*
X5276Y14370D01*
X3571Y14094D02*
X3673Y14196D01*
X3571Y14094D02*
X3661D01*
X4766Y14451D02*
Y14567D01*
X4511Y14196D02*
X4766Y14451D01*
X4764Y15197D02*
X5709D01*
X14863Y12621D02*
X14961Y12524D01*
D32*
X12601Y11181D02*
X12949Y10833D01*
X13465Y5000D02*
X14370D01*
X14646D01*
X14370D02*
X14370Y5000D01*
Y7087D01*
X14537Y7254D01*
X13680Y10322D02*
X13691Y10333D01*
X12408Y10322D02*
X13680D01*
X12465Y9583D02*
X14236D01*
X12283Y9764D02*
X12465Y9583D01*
X12283Y9764D02*
Y10197D01*
X12408Y10322D01*
X12205Y10630D02*
X12717D01*
X12047Y10472D02*
X12205Y10630D01*
X12949Y10833D02*
X13691D01*
X12858Y7583D02*
X14280D01*
X8780Y8228D02*
X8898Y8346D01*
X8944Y8170D02*
X9094Y8321D01*
X8944Y7472D02*
Y8170D01*
X8780Y7165D02*
Y8228D01*
X8583Y7126D02*
Y8543D01*
X8944Y7472D02*
X9583Y6833D01*
X8583Y7126D02*
X9370Y6339D01*
X8780Y7165D02*
X9612Y6333D01*
X8268Y7192D02*
X9193Y6267D01*
X6378Y4724D02*
X6417Y4764D01*
X7156Y3701D02*
X7195Y3661D01*
X14537Y7254D02*
X14961D01*
X8937Y3346D02*
X11260D01*
X8858Y3268D02*
X8937Y3346D01*
X8858Y2629D02*
Y3268D01*
X11260Y3346D02*
X11496Y3110D01*
X11575D01*
X10394Y2598D02*
X11811D01*
X9272Y1929D02*
X10098Y2756D01*
X8504Y1929D02*
X9272D01*
X12559Y3150D02*
X14173D01*
Y4291D01*
X8656Y2427D02*
X8858Y2629D01*
X8569Y10218D02*
X8661Y10311D01*
X3898Y1496D02*
Y1634D01*
X906Y906D02*
X1545D01*
X3110Y2667D02*
X3120Y2677D01*
X7156Y3701D02*
X7205Y3750D01*
X9561Y10833D02*
X10089D01*
X8661Y11311D02*
X9657Y10315D01*
X9803D01*
X13691Y7833D02*
X14211D01*
X9823Y4744D02*
X9921Y4843D01*
X9193Y4744D02*
X9823D01*
X8996D02*
Y5394D01*
X9370Y5768D01*
X9583Y6833D02*
X10089D01*
X9612Y6333D02*
X10089D01*
X9370Y5768D02*
Y6339D01*
X9193Y5965D02*
Y6267D01*
X8996Y5965D02*
Y6201D01*
X8257Y6467D02*
X8731D01*
X8996Y6201D01*
X8351Y2427D02*
X8656D01*
X12835Y7087D02*
X13081Y7333D01*
X13691D01*
X12835Y4646D02*
X13110D01*
X13465Y5000D01*
X12480Y6417D02*
X12520Y6378D01*
X11541Y5630D02*
X11614D01*
X11339Y5833D02*
X11541Y5630D01*
X10089Y5833D02*
X11339D01*
X8602Y4486D02*
Y4744D01*
X8425Y5236D02*
X8602Y5413D01*
Y5965D01*
X8598Y12811D02*
X8661D01*
X7087Y11524D02*
X7138D01*
X13140Y9085D02*
X14262D01*
X14370Y6220D02*
X14931D01*
X9528Y13425D02*
X9567D01*
X8661Y13311D02*
X8736D01*
X8661Y12311D02*
X8713D01*
X8661Y10811D02*
X8795D01*
X9528Y10079D01*
X8268Y7192D02*
Y8819D01*
X8346Y8898D01*
X8386D01*
X8898Y8346D02*
Y9016D01*
X8547Y9367D02*
X8898Y9016D01*
X8311Y9367D02*
X8547D01*
X8268Y9409D02*
X8311Y9367D01*
X8268Y9409D02*
Y12480D01*
X8598Y12811D01*
X8583Y9606D02*
X9094Y9094D01*
X8583Y9606D02*
Y9803D01*
X9094Y8321D02*
Y9094D01*
X9421Y7833D02*
X10089D01*
X9301Y7953D02*
X9421Y7833D01*
X8078Y2701D02*
Y6287D01*
Y2701D02*
X8351Y2427D01*
X8078Y6287D02*
X8257Y6467D01*
X12156Y5304D02*
Y5846D01*
X12520Y4990D02*
Y6378D01*
X12835Y5082D02*
Y6063D01*
X12333Y5059D02*
Y5935D01*
X11811Y2598D02*
X12175Y2963D01*
Y4646D01*
X12520Y4990D01*
X12333Y3376D02*
X12559Y3150D01*
X12333Y3376D02*
Y4580D01*
X12835Y5082D01*
X8602Y4486D02*
X8826Y4262D01*
X11752Y4900D02*
X12156Y5304D01*
X8425Y4380D02*
Y5236D01*
X11949Y4675D02*
X12333Y5059D01*
X8826Y4262D02*
X11447D01*
X11752Y4567D01*
Y4900D01*
X8425Y4380D02*
X8770Y4035D01*
X11545D01*
X11949Y4439D01*
Y4675D01*
X12136Y6132D02*
X12333Y5935D01*
X12136Y6132D02*
Y6860D01*
X12858Y7583D01*
X11939Y6063D02*
X12156Y5846D01*
X11939Y6063D02*
Y7175D01*
X12776Y8012D01*
X14280Y7587D02*
X14488Y7795D01*
Y9331D01*
X14236Y9583D02*
X14488Y9331D01*
X14211Y7833D02*
X14291Y7913D01*
Y9055D01*
X14262Y9085D02*
X14291Y9055D01*
X9528Y10079D02*
X10591D01*
X10089Y11333D02*
X10616D01*
X11516Y10758D02*
X11594D01*
X12018Y11181D01*
X12601D01*
X12707Y10640D02*
X12717Y10630D01*
X12657Y10640D02*
X12707D01*
X12215Y8159D02*
X12244Y8189D01*
X12175Y8159D02*
X12215D01*
X12494Y8333D02*
X13425D01*
X11575Y9252D02*
X12494Y8333D01*
X11575Y9252D02*
Y9646D01*
X11762Y9360D02*
Y9813D01*
Y9360D02*
X12539Y8583D01*
X13081D01*
X13331Y8833D01*
X13691D01*
X12854Y8799D02*
X13140Y9085D01*
X12047Y9380D02*
Y10472D01*
Y9380D02*
X12628Y8799D01*
X12854D01*
X10591Y10079D02*
X10679Y10167D01*
Y11270D01*
X10616Y11333D02*
X10679Y11270D01*
X9075Y11319D02*
X9561Y10833D01*
X9075Y11319D02*
Y11949D01*
X8713Y12311D02*
X9075Y11949D01*
X9565Y11833D02*
X10089D01*
X9075Y12323D02*
X9565Y11833D01*
X9075Y12323D02*
Y12972D01*
X8736Y13311D02*
X9075Y12972D01*
X10089Y9333D02*
X10667D01*
X11772Y8228D01*
Y7756D02*
Y8228D01*
X10494Y9805D02*
X12109Y8189D01*
X12244D01*
X12236Y12158D02*
X12404D01*
X12972Y12726D01*
X13110D01*
X3120Y1949D02*
X3130Y1959D01*
X11237Y11158D02*
X12236Y12158D01*
X11237Y10338D02*
Y11158D01*
Y10338D02*
X11762Y9813D01*
X11063Y10157D02*
X11575Y9646D01*
X11063Y10157D02*
Y12717D01*
D34*
X7087Y9024D02*
D03*
X7087Y12024D02*
D03*
Y11524D02*
D03*
Y11024D02*
D03*
Y10524D02*
D03*
Y10024D02*
D03*
Y9524D02*
D03*
X787Y13810D02*
D03*
X787Y10811D02*
D03*
Y11311D02*
D03*
Y11811D02*
D03*
Y12311D02*
D03*
Y12811D02*
D03*
Y13311D02*
D03*
X14961Y9023D02*
D03*
Y9523D02*
D03*
X14961Y12024D02*
D03*
Y11524D02*
D03*
Y11024D02*
D03*
Y10524D02*
D03*
Y10024D02*
D03*
X8661Y13812D02*
D03*
Y13312D02*
D03*
X8661Y10811D02*
D03*
Y11311D02*
D03*
Y11811D02*
D03*
Y12311D02*
D03*
Y12811D02*
D03*
D35*
X7087Y12524D02*
D03*
X787Y10311D02*
D03*
X14961Y12524D02*
D03*
X8661Y10311D02*
D03*
D36*
X5630Y2362D02*
D03*
Y3937D02*
D03*
Y5512D02*
D03*
Y7087D02*
D03*
Y8661D02*
D03*
Y10236D02*
D03*
Y11811D02*
D03*
Y13386D02*
D03*
X2244Y2362D02*
D03*
Y3937D02*
D03*
Y7087D02*
D03*
Y5512D02*
D03*
Y8661D02*
D03*
Y10236D02*
D03*
Y11811D02*
D03*
Y13386D02*
D03*
D37*
X12667Y4144D02*
D03*
X13169Y4134D02*
D03*
X4911Y13839D02*
D03*
X4360Y13848D02*
D03*
X15157Y13228D02*
D03*
X12756Y9961D02*
D03*
Y9173D02*
D03*
X8583Y8543D02*
D03*
X6444Y9284D02*
D03*
X1024Y7441D02*
D03*
Y5630D02*
D03*
X7146Y7925D02*
D03*
X6437Y4754D02*
D03*
X4528Y2480D02*
D03*
X6654Y13425D02*
D03*
X3553Y14104D02*
D03*
X1024Y6220D02*
D03*
X12283Y906D02*
D03*
X1024Y6870D02*
D03*
X1220Y3386D02*
D03*
X12717Y906D02*
D03*
X12283Y472D02*
D03*
X4508Y886D02*
D03*
X433Y472D02*
D03*
X906Y906D02*
D03*
X13819Y12283D02*
D03*
X15197Y394D02*
D03*
X9803Y4843D02*
D03*
X11575Y3110D02*
D03*
X12835Y6063D02*
D03*
Y7087D02*
D03*
X11772Y7756D02*
D03*
X11319Y8209D02*
D03*
X15315Y15236D02*
D03*
X12480Y6417D02*
D03*
X11614Y6614D02*
D03*
X12835Y4646D02*
D03*
X11614Y5630D02*
D03*
X12795Y7992D02*
D03*
X10906Y9843D02*
D03*
X9528Y13425D02*
D03*
X10236Y12756D02*
D03*
X14252Y15118D02*
D03*
X8386Y9016D02*
D03*
X8583Y9803D02*
D03*
X9045Y9724D02*
D03*
X9291Y7953D02*
D03*
X8386Y3228D02*
D03*
X11555Y10689D02*
D03*
X12657Y10640D02*
D03*
X12175Y8159D02*
D03*
X12421Y11821D02*
D03*
D38*
X5709Y14370D02*
D03*
Y15157D02*
D03*
D39*
X10089Y6333D02*
D03*
Y6833D02*
D03*
Y5333D02*
D03*
Y5833D02*
D03*
Y8333D02*
D03*
Y7333D02*
D03*
Y7833D02*
D03*
Y9833D02*
D03*
Y8833D02*
D03*
Y9333D02*
D03*
Y11333D02*
D03*
Y10333D02*
D03*
Y10833D02*
D03*
Y11833D02*
D03*
X13691Y7833D02*
D03*
Y6333D02*
D03*
Y5333D02*
D03*
Y5833D02*
D03*
Y6833D02*
D03*
Y7333D02*
D03*
Y8333D02*
D03*
Y8833D02*
D03*
Y9333D02*
D03*
Y9833D02*
D03*
Y10333D02*
D03*
Y11833D02*
D03*
Y10833D02*
D03*
Y11333D02*
D03*
D40*
X12362Y14291D02*
D03*
X13465D02*
D03*
X8898Y14764D02*
D03*
X10000D02*
D03*
D41*
X5222Y1102D02*
D03*
X6510D02*
D03*
D42*
X4370Y6876D02*
D03*
Y8163D02*
D03*
D43*
X8602Y5965D02*
D03*
X8996Y4744D02*
D03*
X8602D02*
D03*
X8799D02*
D03*
X9193D02*
D03*
X8799Y5965D02*
D03*
X8996D02*
D03*
X9193D02*
D03*
D44*
X10098Y2756D02*
D03*
X13839D02*
D03*
M02*
