%FSLAX24Y24*%
%MOIN*%
G70*
G01*
G75*
G04 Layer_Color=32768*
%ADD10C,0.0098*%
%ADD11C,0.0276*%
%ADD12R,0.0236X0.0886*%
%ADD13R,0.0886X0.0236*%
%ADD14R,0.0846X0.0335*%
%ADD15C,0.0335*%
%ADD16R,0.0335X0.0846*%
%ADD17R,0.0315X0.0354*%
%ADD18R,0.0315X0.0630*%
%ADD19R,0.0394X0.0276*%
%ADD20R,0.0236X0.0197*%
%ADD21R,0.0197X0.0236*%
%ADD22R,0.0276X0.0394*%
%ADD23R,0.0354X0.0315*%
%ADD24R,0.0906X0.0906*%
%ADD25R,0.0492X0.0433*%
%ADD26R,0.0354X0.0315*%
%ADD27R,0.0591X0.0295*%
%ADD28R,0.0295X0.0591*%
%ADD29R,0.0299X0.0945*%
%ADD30C,0.0118*%
%ADD31C,0.0079*%
%ADD32C,0.0138*%
%ADD33C,0.0197*%
%ADD34O,0.0669X0.1181*%
%ADD35O,0.0472X0.0394*%
%ADD36R,0.0472X0.0394*%
%ADD37C,0.0380*%
%ADD38R,0.2165X0.0827*%
%ADD39R,0.0118X0.0295*%
%ADD40R,0.0480X0.0358*%
%ADD41R,0.0358X0.0480*%
%ADD42R,0.0630X0.1063*%
%ADD43R,0.0906X0.0236*%
%ADD44R,0.0630X0.0315*%
%ADD45C,0.0236*%
%ADD46C,0.0100*%
%ADD47C,0.0394*%
%ADD48C,0.0039*%
%ADD49C,0.0061*%
%ADD50R,0.0433X0.0246*%
%ADD51R,0.0246X0.0433*%
%ADD52C,0.0827*%
%ADD53R,0.0316X0.0966*%
%ADD54R,0.0966X0.0316*%
%ADD55R,0.0926X0.0415*%
%ADD56C,0.0415*%
%ADD57R,0.0415X0.0926*%
%ADD58R,0.0395X0.0434*%
%ADD59R,0.0395X0.0710*%
%ADD60R,0.0474X0.0356*%
%ADD61R,0.0316X0.0277*%
%ADD62R,0.0277X0.0316*%
%ADD63R,0.0356X0.0474*%
%ADD64R,0.0434X0.0395*%
%ADD65R,0.0986X0.0986*%
%ADD66R,0.0572X0.0513*%
%ADD67R,0.0434X0.0395*%
%ADD68R,0.0671X0.0375*%
%ADD69R,0.0375X0.0671*%
%ADD70R,0.0379X0.1025*%
%ADD71O,0.0749X0.1261*%
%ADD72O,0.0552X0.0474*%
%ADD73R,0.0552X0.0474*%
%ADD74R,0.2245X0.0907*%
%ADD75R,0.0150X0.0327*%
%ADD76R,0.0560X0.0438*%
%ADD77R,0.0438X0.0560*%
%ADD78R,0.0710X0.1143*%
%ADD79R,0.0986X0.0316*%
%ADD80R,0.0710X0.0395*%
%ADD81C,0.0150*%
%ADD82C,0.0050*%
%ADD83C,0.0059*%
D46*
X14685Y89D02*
Y8002D01*
X8612Y8012D02*
X14685D01*
X8612Y89D02*
X14685D01*
X8612D02*
Y8012D01*
X9331Y14754D02*
X14291D01*
X9331Y12077D02*
Y14754D01*
Y12077D02*
X14291D01*
Y14754D01*
X11663Y13425D02*
X11811D01*
Y13563D01*
Y13425D02*
X11959D01*
X11811Y13297D02*
Y13425D01*
X8361Y11811D02*
X8961D01*
X8661Y11511D02*
Y12111D01*
X14661Y11024D02*
X15261D01*
X14961Y10724D02*
Y11324D01*
X187Y9811D02*
X287D01*
X187D02*
Y14319D01*
X1387D01*
Y9811D02*
Y14319D01*
X287Y9811D02*
X1387D01*
X487Y11811D02*
X1087D01*
X787Y11511D02*
Y12111D01*
X7587Y13024D02*
X7687D01*
Y8516D02*
Y13024D01*
X6487Y8516D02*
X7687D01*
X6487D02*
Y13024D01*
X7587D01*
X6787Y11024D02*
X7387D01*
X7087Y10724D02*
Y11324D01*
D48*
X3701Y5787D02*
X4094D01*
X3898Y5591D02*
Y5984D01*
X4980Y4232D02*
Y7343D01*
X2815D02*
X4980D01*
X2815Y4232D02*
X4980D01*
X2815D02*
Y7343D01*
X12953Y9331D02*
Y9724D01*
X12756Y9528D02*
X13150D01*
X14508Y8445D02*
Y10610D01*
X11398D02*
X14508D01*
X11398Y8445D02*
X14508D01*
X11398D02*
Y10610D01*
X13819Y8002D02*
Y8376D01*
X13632Y8189D02*
X14006D01*
X14291Y7972D02*
Y8406D01*
X13346D02*
X14291D01*
X13346Y7972D02*
X14291D01*
X13346D02*
Y8406D01*
X1890Y14814D02*
Y15188D01*
X2510Y14617D02*
Y15385D01*
X2382Y14460D02*
Y14558D01*
X2333Y14509D02*
X2431D01*
X1270Y15385D02*
X2510D01*
X1703Y15001D02*
X2077D01*
X1270Y14617D02*
X2510D01*
X1270D02*
Y15385D01*
X4685Y11585D02*
Y11959D01*
X4951Y11309D02*
Y12234D01*
X4419D02*
X4951D01*
X4498Y11772D02*
X4872D01*
X4291Y11329D02*
X4390D01*
X4419Y11309D02*
X4951D01*
X4419D02*
Y12234D01*
X4341Y11280D02*
Y11378D01*
X15039Y14567D02*
Y14803D01*
X14921Y14685D02*
X15157D01*
X15394Y14547D02*
Y14823D01*
X14685D02*
X15394D01*
X14685Y14547D02*
X15394D01*
X14685D02*
Y14823D01*
X14724Y6417D02*
X14961D01*
X14843Y6299D02*
Y6535D01*
X14705Y6063D02*
X14980D01*
Y6772D01*
X14705Y6063D02*
Y6772D01*
X14980D01*
X3758Y3819D02*
X4132D01*
X4408Y3553D02*
Y4085D01*
X3945Y3632D02*
Y4006D01*
X3483Y4085D02*
X4408D01*
X3502Y4114D02*
Y4213D01*
X3453Y4163D02*
X3552D01*
X3483Y3553D02*
X4408D01*
X3483D02*
Y4085D01*
X10157Y8238D02*
Y8612D01*
X9970Y8425D02*
X10344D01*
X10630Y8209D02*
Y8642D01*
X9685D02*
X10630D01*
X9685Y8209D02*
X10630D01*
X9685D02*
Y8642D01*
X14734Y4882D02*
X15108D01*
X14921Y4695D02*
Y5069D01*
X15138Y4409D02*
Y5354D01*
X14705D02*
X15138D01*
X14705Y4409D02*
X15138D01*
X14705D02*
Y5354D01*
X14734Y1260D02*
X15108D01*
X14921Y1073D02*
Y1447D01*
X15138Y787D02*
Y1732D01*
X14705D02*
X15138D01*
X14705Y787D02*
X15138D01*
X14705D02*
Y1732D01*
X3189Y10315D02*
X3583D01*
X3386Y10118D02*
Y10512D01*
X13366Y10974D02*
Y11526D01*
X11831D02*
X13366D01*
X11831Y10974D02*
X13366D01*
X11831D02*
Y11526D01*
X6811Y3504D02*
Y3898D01*
X6614Y3701D02*
X7008D01*
X7579Y3004D02*
Y4398D01*
X6043D02*
X7579D01*
X6043Y3004D02*
X7579D01*
X6043D02*
Y4398D01*
X7126Y6457D02*
Y7717D01*
X6417D02*
X7126D01*
X6417Y6457D02*
X7126D01*
X6417D02*
Y7717D01*
X15709Y13661D02*
Y14370D01*
X14449D02*
X15709D01*
X14449Y13661D02*
X15709D01*
X14449D02*
Y14370D01*
X15157Y7165D02*
Y8425D01*
X14449D02*
X15157D01*
X14449Y7165D02*
X15157D01*
X14449D02*
Y8425D01*
X14173Y10630D02*
Y11890D01*
X13465D02*
X14173D01*
X13465Y10630D02*
X14173D01*
X13465D02*
Y11890D01*
X10906Y10118D02*
Y11378D01*
X10197D02*
X10906D01*
X10197Y10118D02*
X10906D01*
X10197D02*
Y11378D01*
X3740Y13819D02*
X4134D01*
X3937Y13622D02*
Y14016D01*
X5020Y12264D02*
Y15374D01*
X2854D02*
X5020D01*
X2854Y12264D02*
X5020D01*
X2854D02*
Y15374D01*
X3947Y7874D02*
X4321D01*
X4596Y7608D02*
Y8140D01*
X4134Y7687D02*
Y8061D01*
X3671Y8140D02*
X4596D01*
X3691Y8169D02*
Y8268D01*
X3642Y8219D02*
X3740D01*
X3671Y7608D02*
X4596D01*
X3671D02*
Y8140D01*
X11968Y2559D02*
Y2953D01*
X11772Y2756D02*
X12165D01*
X14291Y1732D02*
Y3780D01*
X9646D02*
X14291D01*
X9646Y1732D02*
X14291D01*
X9646D02*
Y3780D01*
X8700Y5354D02*
X9094D01*
X8897Y5158D02*
Y5551D01*
X9384Y4532D02*
Y6176D01*
X8420D02*
X9384D01*
X8420Y4532D02*
X9384D01*
X8420D02*
Y6176D01*
X14921Y4813D02*
Y5187D01*
X14734Y5000D02*
X15108D01*
X15394Y4783D02*
Y5217D01*
X14449D02*
X15394D01*
X14449Y4783D02*
X15394D01*
X14449D02*
Y5217D01*
Y4065D02*
Y4439D01*
X14262Y4252D02*
X14636D01*
X14921Y4035D02*
Y4469D01*
X13976D02*
X14921D01*
X13976Y4035D02*
X14921D01*
X13976D02*
Y4469D01*
X8317Y1654D02*
X8691D01*
X8504Y1467D02*
Y1841D01*
X8720Y1181D02*
Y2126D01*
X8287D02*
X8720D01*
X8287Y1181D02*
X8720D01*
X8287D02*
Y2126D01*
X7383Y14734D02*
Y14833D01*
X7334Y14783D02*
X7433D01*
X6891Y14104D02*
Y14478D01*
X7511Y13907D02*
Y14675D01*
X6271D02*
X7511D01*
X6704Y14291D02*
X7078D01*
X6271Y13907D02*
X7511D01*
X6271D02*
Y14675D01*
X4744Y6670D02*
Y8370D01*
X3996D02*
X4744D01*
X3996Y6670D02*
X4744D01*
X3996D02*
Y8370D01*
X6716Y728D02*
Y1476D01*
X5016D02*
X6716D01*
X5016Y728D02*
X6716D01*
X5016D02*
Y1476D01*
X3937Y5591D02*
Y5984D01*
X3740Y5787D02*
X4134D01*
X4705Y5091D02*
Y6484D01*
X3169D02*
X4705D01*
X3169Y5091D02*
X4705D01*
X3169D02*
Y6484D01*
X3543Y8701D02*
Y9094D01*
X3346Y8898D02*
X3740D01*
X4311Y8201D02*
Y9594D01*
X2776D02*
X4311D01*
X2776Y8201D02*
X4311D01*
X2776D02*
Y9594D01*
X3504Y1063D02*
Y1457D01*
X3307Y1260D02*
X3701D01*
X4272Y563D02*
Y1957D01*
X2736D02*
X4272D01*
X2736Y563D02*
X4272D01*
X2736D02*
Y1957D01*
X6811Y5118D02*
Y5512D01*
X6614Y5315D02*
X7008D01*
X7579Y4618D02*
Y6012D01*
X6043D02*
X7579D01*
X6043Y4618D02*
X7579D01*
X6043D02*
Y6012D01*
X11181Y14409D02*
Y14803D01*
X10984Y14606D02*
X11378D01*
X11949Y13909D02*
Y15303D01*
X10413D02*
X11949D01*
X10413Y13909D02*
X11949D01*
X10413D02*
Y15303D01*
X14724Y13898D02*
Y14291D01*
X14528Y14094D02*
X14921D01*
X15492Y13398D02*
Y14791D01*
X13957D02*
X15492D01*
X13957Y13398D02*
X15492D01*
X13957D02*
Y14791D01*
X4094Y2323D02*
Y3031D01*
X2835D02*
X4094D01*
X2835Y2323D02*
X4094D01*
X2835D02*
Y3031D01*
X1969Y14252D02*
Y15512D01*
X1260D02*
X1969D01*
X1260Y14252D02*
X1969D01*
X1260D02*
Y15512D01*
X7598Y14843D02*
Y15551D01*
X6339D02*
X7598D01*
X6339Y14843D02*
X7598D01*
X6339D02*
Y15551D01*
X2835Y14252D02*
Y15512D01*
X2126D02*
X2835D01*
X2126Y14252D02*
X2835D01*
X2126D02*
Y15512D01*
X3465Y6535D02*
Y7795D01*
X2756D02*
X3465D01*
X2756Y6535D02*
X3465D01*
X2756D02*
Y7795D01*
X4567Y9764D02*
Y10472D01*
X3307D02*
X4567D01*
X3307Y9764D02*
X4567D01*
X3307D02*
Y10472D01*
X3661Y10827D02*
Y12087D01*
X2953D02*
X3661D01*
X2953Y10827D02*
X3661D01*
X2953D02*
Y12087D01*
X4094Y3307D02*
Y4016D01*
X2835D02*
X4094D01*
X2835Y3307D02*
X4094D01*
X2835D02*
Y4016D01*
X4094Y4134D02*
Y4843D01*
X2835D02*
X4094D01*
X2835Y4134D02*
X4094D01*
X2835D02*
Y4843D01*
X7441Y3583D02*
Y4291D01*
X6181D02*
X7441D01*
X6181Y3583D02*
X7441D01*
X6181D02*
Y4291D01*
X7480Y1535D02*
Y2244D01*
X6220D02*
X7480D01*
X6220Y1535D02*
X7480D01*
X6220D02*
Y2244D01*
X7402Y6614D02*
Y7323D01*
X6142D02*
X7402D01*
X6142Y6614D02*
X7402D01*
X6142D02*
Y7323D01*
X2638Y669D02*
Y1378D01*
X1378D02*
X2638D01*
X1378Y669D02*
X2638D01*
X1378D02*
Y1378D01*
X11299Y12441D02*
Y13701D01*
X10591D02*
X11299D01*
X10591Y12441D02*
X11299D01*
X10591D02*
Y13701D01*
X13465Y12441D02*
Y13701D01*
X12756D02*
X13465D01*
X12756Y12441D02*
X13465D01*
X12756D02*
Y13701D01*
X1496Y2283D02*
Y2992D01*
X236D02*
X1496D01*
X236Y2283D02*
X1496D01*
X236D02*
Y2992D01*
X1496Y1417D02*
Y2126D01*
X236D02*
X1496D01*
X236Y1417D02*
X1496D01*
X236D02*
Y2126D01*
X15315Y6969D02*
Y8228D01*
X14606D02*
X15315D01*
X14606Y6969D02*
X15315D01*
X14606D02*
Y8228D01*
X15157Y5236D02*
Y6496D01*
X14449D02*
X15157D01*
X14449Y5236D02*
X15157D01*
X14449D02*
Y6496D01*
X11890Y8386D02*
Y8780D01*
X11693Y8583D02*
X12087D01*
X14242Y4921D02*
Y12244D01*
X9537D02*
X14242D01*
X9537Y4921D02*
X14242D01*
X9537D02*
Y12244D01*
X4016Y13661D02*
Y14055D01*
X3819Y13858D02*
X4213D01*
X5098Y12303D02*
Y15413D01*
X2933D02*
X5098D01*
X2933Y12303D02*
X5098D01*
X2933D02*
Y15413D01*
X5709Y14577D02*
Y14951D01*
X5522Y14764D02*
X5896D01*
X6093Y14144D02*
Y15384D01*
X5325D02*
X6093D01*
X5217Y15207D02*
Y15305D01*
X5167Y15256D02*
X5266D01*
X5325Y14144D02*
X6093D01*
X5325D02*
Y15384D01*
D82*
X4055Y8976D02*
Y11654D01*
X2717D02*
X4055D01*
X2717Y8976D02*
X4055D01*
X2717D02*
Y11654D01*
X4370Y7441D02*
Y7598D01*
X4291Y7520D02*
X4449D01*
X5787Y1102D02*
X5945D01*
X5866Y1024D02*
Y1181D01*
M02*
