%FSLAX24Y24*%
%MOIN*%
G70*
G01*
G75*
G04 Layer_Color=8421504*
%ADD10C,0.0098*%
%ADD11R,0.0299X0.0945*%
%ADD12R,0.0315X0.0354*%
%ADD13R,0.0354X0.0315*%
%ADD14R,0.0276X0.0394*%
%ADD15R,0.0236X0.0886*%
%ADD16R,0.0591X0.0295*%
%ADD17R,0.0295X0.0591*%
%ADD18R,0.0354X0.0315*%
%ADD19R,0.0492X0.0433*%
%ADD20R,0.0906X0.0906*%
%ADD21R,0.0197X0.0236*%
%ADD22R,0.0236X0.0197*%
%ADD23R,0.0394X0.0276*%
%ADD24R,0.0315X0.0630*%
%ADD25R,0.0846X0.0335*%
%ADD26C,0.0335*%
%ADD27R,0.0335X0.0846*%
%ADD28R,0.0886X0.0236*%
%ADD29C,0.0276*%
%ADD30C,0.0118*%
%ADD31C,0.0138*%
%ADD32C,0.0079*%
%ADD33C,0.0197*%
%ADD34O,0.0472X0.0394*%
%ADD35R,0.0472X0.0394*%
%ADD36O,0.0669X0.1181*%
%ADD37C,0.0380*%
%ADD38R,0.0630X0.0315*%
%ADD39R,0.0906X0.0236*%
%ADD40R,0.0630X0.1063*%
%ADD41R,0.0358X0.0480*%
%ADD42R,0.0480X0.0358*%
%ADD43R,0.0118X0.0295*%
%ADD44R,0.2165X0.0827*%
%ADD45C,0.0100*%
%ADD46C,0.0236*%
%ADD47C,0.0394*%
%ADD48C,0.0039*%
%ADD49C,0.0061*%
D11*
X12311Y14193D02*
D03*
Y12657D02*
D03*
X12811Y14193D02*
D03*
Y12657D02*
D03*
X11811Y14193D02*
D03*
Y12657D02*
D03*
X11311Y14193D02*
D03*
Y12657D02*
D03*
X10811Y14193D02*
D03*
Y12657D02*
D03*
D12*
X9055Y14646D02*
D03*
X9449D02*
D03*
X9882Y8425D02*
D03*
X10433D02*
D03*
X13543Y8189D02*
D03*
X14094D02*
D03*
D13*
X9242Y8455D02*
D03*
Y8848D02*
D03*
X9242Y9242D02*
D03*
X14921Y984D02*
D03*
Y1535D02*
D03*
X14921Y4606D02*
D03*
Y5157D02*
D03*
D14*
X3878Y7874D02*
D03*
X4390D02*
D03*
X3689Y3819D02*
D03*
X4201D02*
D03*
D15*
X3187Y14843D02*
D03*
Y12795D02*
D03*
X3687D02*
D03*
X4187D02*
D03*
X4687D02*
D03*
X3687Y14843D02*
D03*
X4187D02*
D03*
X4687D02*
D03*
X3148Y6811D02*
D03*
Y4764D02*
D03*
X3648D02*
D03*
X4148D02*
D03*
X4648D02*
D03*
X3648Y6811D02*
D03*
X4148D02*
D03*
X4648D02*
D03*
D16*
X10551Y10404D02*
D03*
Y11093D02*
D03*
X13819Y10915D02*
D03*
Y11604D02*
D03*
X14803Y7451D02*
D03*
Y8140D02*
D03*
X6772Y6742D02*
D03*
Y7431D02*
D03*
D17*
X14734Y14016D02*
D03*
X15423D02*
D03*
D18*
X6417Y3701D02*
D03*
X7205Y3327D02*
D03*
Y4075D02*
D03*
D19*
X12077Y11319D02*
D03*
X13002D02*
D03*
D20*
X3386Y9469D02*
D03*
Y11171D02*
D03*
D21*
X14843Y6614D02*
D03*
Y6220D02*
D03*
D22*
Y14685D02*
D03*
X15236D02*
D03*
D23*
X4685Y11516D02*
D03*
Y12028D02*
D03*
D24*
X1496Y15001D02*
D03*
X2283D02*
D03*
D25*
X9262Y2579D02*
D03*
Y3071D02*
D03*
Y5531D02*
D03*
Y6024D02*
D03*
Y6516D02*
D03*
X14006Y1102D02*
D03*
Y610D02*
D03*
Y1594D02*
D03*
Y4547D02*
D03*
Y2087D02*
D03*
Y2579D02*
D03*
Y5039D02*
D03*
D26*
X9685Y3071D02*
D03*
Y2579D02*
D03*
Y5531D02*
D03*
Y6024D02*
D03*
Y6516D02*
D03*
X9911Y6959D02*
D03*
X13583Y610D02*
D03*
Y1102D02*
D03*
Y1594D02*
D03*
Y2087D02*
D03*
Y2579D02*
D03*
Y4547D02*
D03*
X10404Y6959D02*
D03*
X13583Y5039D02*
D03*
D27*
X9911Y7382D02*
D03*
X10404D02*
D03*
D28*
X11929Y8778D02*
D03*
Y9278D02*
D03*
Y9778D02*
D03*
Y10278D02*
D03*
X13976Y8778D02*
D03*
Y9778D02*
D03*
Y9278D02*
D03*
Y10278D02*
D03*
D29*
X8465Y669D02*
D03*
X13150Y15315D02*
D03*
X6929Y787D02*
D03*
X591Y15039D02*
D03*
M02*
